<?xml version="1.0" encoding="UTF-8" standalone="no"?>
<!DOCTYPE svg PUBLIC "-//W3C//DTD SVG 1.1//EN"
 "http://www.w3.org/Graphics/SVG/1.1/DTD/svg11.dtd">
<!-- Generated by graphviz version 2.43.0 (0)
 -->
<!-- Title: %3 Pages: 1 -->
<svg width="295pt" height="404pt"
 viewBox="0.00 0.00 295.01 404.00" xmlns="http://www.w3.org/2000/svg" xmlns:xlink="http://www.w3.org/1999/xlink">
<g id="graph0" class="graph" transform="scale(1 1) rotate(0) translate(4 400)">
<title>%3</title>
<polygon fill="white" stroke="transparent" points="-4,4 -4,-400 291.01,-400 291.01,4 -4,4"/>
<!-- 0cd3c391&#45;745b&#45;4155&#45;898e&#45;ef0aea010922 -->
<g id="node1" class="node">
<title>0cd3c391&#45;745b&#45;4155&#45;898e&#45;ef0aea010922</title>
<polygon fill="cornsilk" stroke="black" points="259.17,-396 176.17,-396 176.17,-360 259.17,-360 259.17,-396"/>
<text text-anchor="middle" x="217.67" y="-374.3" font-family="Helvetica,sans-Serif" font-size="14.00">set LC++</text>
</g>
<!-- 98f7e19b&#45;98ec&#45;4ff5&#45;b952&#45;0f1bed4019e2 -->
<g id="node2" class="node">
<title>98f7e19b&#45;98ec&#45;4ff5&#45;b952&#45;0f1bed4019e2</title>
<polygon fill="cornsilk" stroke="black" points="137.17,-324 60.17,-324 60.17,-288 137.17,-288 137.17,-324"/>
<text text-anchor="middle" x="98.67" y="-302.3" font-family="Helvetica,sans-Serif" font-size="14.00">read line</text>
</g>
<!-- 0cd3c391&#45;745b&#45;4155&#45;898e&#45;ef0aea010922&#45;&gt;98f7e19b&#45;98ec&#45;4ff5&#45;b952&#45;0f1bed4019e2 -->
<g id="edge1" class="edge">
<title>0cd3c391&#45;745b&#45;4155&#45;898e&#45;ef0aea010922&#45;&gt;98f7e19b&#45;98ec&#45;4ff5&#45;b952&#45;0f1bed4019e2</title>
<path fill="none" stroke="black" d="M188.56,-359.88C173,-350.72 153.65,-339.34 136.89,-329.48"/>
<polygon fill="none" stroke="black" points="138.29,-326.24 127.89,-324.19 134.74,-332.28 138.29,-326.24"/>
</g>
<!-- ea15ee72&#45;8eac&#45;4212&#45;b7f1&#45;95e495ed208a -->
<g id="node8" class="node">
<title>ea15ee72&#45;8eac&#45;4212&#45;b7f1&#45;95e495ed208a</title>
<polygon fill="cornsilk" stroke="black" points="98.67,-252 31.47,-234 98.67,-216 165.87,-234 98.67,-252"/>
<text text-anchor="middle" x="98.67" y="-230.3" font-family="Helvetica,sans-Serif" font-size="14.00">is label?</text>
</g>
<!-- 98f7e19b&#45;98ec&#45;4ff5&#45;b952&#45;0f1bed4019e2&#45;&gt;ea15ee72&#45;8eac&#45;4212&#45;b7f1&#45;95e495ed208a -->
<g id="edge11" class="edge">
<title>98f7e19b&#45;98ec&#45;4ff5&#45;b952&#45;0f1bed4019e2&#45;&gt;ea15ee72&#45;8eac&#45;4212&#45;b7f1&#45;95e495ed208a</title>
<path fill="none" stroke="black" d="M98.67,-287.7C98.67,-279.98 98.67,-270.71 98.67,-262.11"/>
<polygon fill="none" stroke="black" points="102.17,-262.1 98.67,-252.1 95.17,-262.1 102.17,-262.1"/>
</g>
<!-- f67c4e4f&#45;04a4&#45;4526&#45;acb5&#45;0e1394de5f83 -->
<g id="node3" class="node">
<title>f67c4e4f&#45;04a4&#45;4526&#45;acb5&#45;0e1394de5f83</title>
<polygon fill="cornsilk" stroke="black" points="143.17,-396 54.17,-396 54.17,-360 143.17,-360 143.17,-396"/>
<text text-anchor="middle" x="98.67" y="-374.3" font-family="Helvetica,sans-Serif" font-size="14.00">set LC = 0</text>
</g>
<!-- f67c4e4f&#45;04a4&#45;4526&#45;acb5&#45;0e1394de5f83&#45;&gt;98f7e19b&#45;98ec&#45;4ff5&#45;b952&#45;0f1bed4019e2 -->
<g id="edge2" class="edge">
<title>f67c4e4f&#45;04a4&#45;4526&#45;acb5&#45;0e1394de5f83&#45;&gt;98f7e19b&#45;98ec&#45;4ff5&#45;b952&#45;0f1bed4019e2</title>
<path fill="none" stroke="black" d="M98.67,-359.7C98.67,-351.98 98.67,-342.71 98.67,-334.11"/>
<polygon fill="none" stroke="black" points="102.17,-334.1 98.67,-324.1 95.17,-334.1 102.17,-334.1"/>
</g>
<!-- e9b4bf0d&#45;23be&#45;49bc&#45;84d6&#45;98158b0a67fa -->
<g id="node4" class="node">
<title>e9b4bf0d&#45;23be&#45;49bc&#45;84d6&#45;98158b0a67fa</title>
<polygon fill="cornsilk" stroke="black" points="81.67,-180 16.65,-162 81.67,-144 146.69,-162 81.67,-180"/>
<text text-anchor="middle" x="81.67" y="-158.3" font-family="Helvetica,sans-Serif" font-size="14.00">is ORG?</text>
</g>
<!-- cb8facdd&#45;437e&#45;4bc3&#45;b16c&#45;c47081fbc7ff -->
<g id="node5" class="node">
<title>cb8facdd&#45;437e&#45;4bc3&#45;b16c&#45;c47081fbc7ff</title>
<polygon fill="cornsilk" stroke="black" points="64.17,-108 5.17,-108 5.17,-72 64.17,-72 64.17,-108"/>
<text text-anchor="middle" x="34.67" y="-86.3" font-family="Helvetica,sans-Serif" font-size="14.00">set LC</text>
</g>
<!-- e9b4bf0d&#45;23be&#45;49bc&#45;84d6&#45;98158b0a67fa&#45;&gt;cb8facdd&#45;437e&#45;4bc3&#45;b16c&#45;c47081fbc7ff -->
<g id="edge3" class="edge">
<title>e9b4bf0d&#45;23be&#45;49bc&#45;84d6&#45;98158b0a67fa&#45;&gt;cb8facdd&#45;437e&#45;4bc3&#45;b16c&#45;c47081fbc7ff</title>
<path fill="none" stroke="black" d="M71.93,-146.5C66.15,-137.89 58.65,-126.72 51.9,-116.66"/>
<polygon fill="none" stroke="black" points="54.7,-114.55 46.22,-108.2 48.89,-118.46 54.7,-114.55"/>
<text text-anchor="middle" x="59.43" y="-135.3" font-family="Helvetica,sans-Serif" font-size="14.00">yes</text>
</g>
<!-- 04eb53fb&#45;14a9&#45;4ca0&#45;b8ef&#45;94d40f0dc984 -->
<g id="node6" class="node">
<title>04eb53fb&#45;14a9&#45;4ca0&#45;b8ef&#45;94d40f0dc984</title>
<polygon fill="cornsilk" stroke="black" points="222.67,-108 158.49,-90 222.67,-72 286.85,-90 222.67,-108"/>
<text text-anchor="middle" x="222.67" y="-86.3" font-family="Helvetica,sans-Serif" font-size="14.00">is END?</text>
</g>
<!-- e9b4bf0d&#45;23be&#45;49bc&#45;84d6&#45;98158b0a67fa&#45;&gt;04eb53fb&#45;14a9&#45;4ca0&#45;b8ef&#45;94d40f0dc984 -->
<g id="edge4" class="edge">
<title>e9b4bf0d&#45;23be&#45;49bc&#45;84d6&#45;98158b0a67fa&#45;&gt;04eb53fb&#45;14a9&#45;4ca0&#45;b8ef&#45;94d40f0dc984</title>
<path fill="none" stroke="black" d="M103.7,-150.06C127.15,-138.42 164.48,-119.89 191.06,-106.69"/>
<polygon fill="none" stroke="black" points="192.93,-109.67 200.33,-102.09 189.81,-103.4 192.93,-109.67"/>
<text text-anchor="middle" x="94.7" y="-138.86" font-family="Helvetica,sans-Serif" font-size="14.00">no</text>
</g>
<!-- cb8facdd&#45;437e&#45;4bc3&#45;b16c&#45;c47081fbc7ff&#45;&gt;98f7e19b&#45;98ec&#45;4ff5&#45;b952&#45;0f1bed4019e2 -->
<g id="edge9" class="edge">
<title>cb8facdd&#45;437e&#45;4bc3&#45;b16c&#45;c47081fbc7ff&#45;&gt;98f7e19b&#45;98ec&#45;4ff5&#45;b952&#45;0f1bed4019e2</title>
<path fill="none" stroke="black" d="M23.2,-108.33C17.29,-118.31 10.71,-131.35 7.67,-144 -3.64,-191.12 -4.04,-211.56 22.67,-252 30.66,-264.1 42.44,-274.25 54.36,-282.32"/>
<polygon fill="none" stroke="black" points="52.69,-285.41 63,-287.83 56.45,-279.5 52.69,-285.41"/>
</g>
<!-- 04eb53fb&#45;14a9&#45;4ca0&#45;b8ef&#45;94d40f0dc984&#45;&gt;0cd3c391&#45;745b&#45;4155&#45;898e&#45;ef0aea010922 -->
<g id="edge6" class="edge">
<title>04eb53fb&#45;14a9&#45;4ca0&#45;b8ef&#45;94d40f0dc984&#45;&gt;0cd3c391&#45;745b&#45;4155&#45;898e&#45;ef0aea010922</title>
<path fill="none" stroke="black" d="M241.95,-102.7C255.31,-112.03 272,-126.41 279.67,-144 286.06,-158.67 282.1,-164.19 279.67,-180 270.04,-242.68 244.12,-312.79 229.02,-350.14"/>
<polygon fill="none" stroke="black" points="225.62,-349.19 225.07,-359.77 232.1,-351.85 225.62,-349.19"/>
<text text-anchor="middle" x="232.95" y="-106.5" font-family="Helvetica,sans-Serif" font-size="14.00">no</text>
</g>
<!-- a1b706da&#45;946e&#45;40ae&#45;a323&#45;db6a0ce4c4b8 -->
<g id="node7" class="node">
<title>a1b706da&#45;946e&#45;40ae&#45;a323&#45;db6a0ce4c4b8</title>
<polygon fill="cornsilk" stroke="black" points="253.67,-36 195.67,-36 191.67,-32 191.67,0 249.67,0 253.67,-4 253.67,-36"/>
<polyline fill="none" stroke="black" points="249.67,-32 191.67,-32 "/>
<polyline fill="none" stroke="black" points="249.67,-32 249.67,0 "/>
<polyline fill="none" stroke="black" points="249.67,-32 253.67,-36 "/>
<text text-anchor="middle" x="222.67" y="-14.3" font-family="Helvetica,sans-Serif" font-size="14.00">pass 2</text>
</g>
<!-- 04eb53fb&#45;14a9&#45;4ca0&#45;b8ef&#45;94d40f0dc984&#45;&gt;a1b706da&#45;946e&#45;40ae&#45;a323&#45;db6a0ce4c4b8 -->
<g id="edge5" class="edge">
<title>04eb53fb&#45;14a9&#45;4ca0&#45;b8ef&#45;94d40f0dc984&#45;&gt;a1b706da&#45;946e&#45;40ae&#45;a323&#45;db6a0ce4c4b8</title>
<path fill="none" stroke="black" d="M222.67,-71.7C222.67,-63.98 222.67,-54.71 222.67,-46.11"/>
<polygon fill="none" stroke="black" points="226.17,-46.1 222.67,-36.1 219.17,-46.1 226.17,-46.1"/>
<text text-anchor="middle" x="210.17" y="-60.5" font-family="Helvetica,sans-Serif" font-size="14.00">yes</text>
</g>
<!-- ea15ee72&#45;8eac&#45;4212&#45;b7f1&#45;95e495ed208a&#45;&gt;e9b4bf0d&#45;23be&#45;49bc&#45;84d6&#45;98158b0a67fa -->
<g id="edge7" class="edge">
<title>ea15ee72&#45;8eac&#45;4212&#45;b7f1&#45;95e495ed208a&#45;&gt;e9b4bf0d&#45;23be&#45;49bc&#45;84d6&#45;98158b0a67fa</title>
<path fill="none" stroke="black" d="M94.73,-216.76C92.73,-208.55 90.26,-198.37 88.01,-189.09"/>
<polygon fill="none" stroke="black" points="91.35,-188.04 85.59,-179.15 84.55,-189.69 91.35,-188.04"/>
<text text-anchor="middle" x="85.73" y="-205.56" font-family="Helvetica,sans-Serif" font-size="14.00">no</text>
</g>
<!-- e275c0b0&#45;088d&#45;4fc2&#45;8d6e&#45;7006b710f4fb -->
<g id="node9" class="node">
<title>e275c0b0&#45;088d&#45;4fc2&#45;8d6e&#45;7006b710f4fb</title>
<polygon fill="cornsilk" stroke="black" points="270.67,-180 164.67,-180 164.67,-144 270.67,-144 270.67,-180"/>
<text text-anchor="middle" x="217.67" y="-158.3" font-family="Helvetica,sans-Serif" font-size="14.00">store symbol</text>
</g>
<!-- ea15ee72&#45;8eac&#45;4212&#45;b7f1&#45;95e495ed208a&#45;&gt;e275c0b0&#45;088d&#45;4fc2&#45;8d6e&#45;7006b710f4fb -->
<g id="edge8" class="edge">
<title>ea15ee72&#45;8eac&#45;4212&#45;b7f1&#45;95e495ed208a&#45;&gt;e275c0b0&#45;088d&#45;4fc2&#45;8d6e&#45;7006b710f4fb</title>
<path fill="none" stroke="black" d="M118.59,-221.28C135.3,-211.45 159.64,-197.13 180.02,-185.15"/>
<polygon fill="none" stroke="black" points="181.92,-188.09 188.76,-180 178.37,-182.06 181.92,-188.09"/>
<text text-anchor="middle" x="131.09" y="-210.08" font-family="Helvetica,sans-Serif" font-size="14.00">yes</text>
</g>
<!-- e275c0b0&#45;088d&#45;4fc2&#45;8d6e&#45;7006b710f4fb&#45;&gt;0cd3c391&#45;745b&#45;4155&#45;898e&#45;ef0aea010922 -->
<g id="edge10" class="edge">
<title>e275c0b0&#45;088d&#45;4fc2&#45;8d6e&#45;7006b710f4fb&#45;&gt;0cd3c391&#45;745b&#45;4155&#45;898e&#45;ef0aea010922</title>
<path fill="none" stroke="black" d="M217.67,-180.23C217.67,-217.32 217.67,-304.98 217.67,-349.71"/>
<polygon fill="none" stroke="black" points="214.17,-349.85 217.67,-359.85 221.17,-349.85 214.17,-349.85"/>
</g>
</g>
</svg>
