<?xml version="1.0" encoding="UTF-8" standalone="no"?>
<!DOCTYPE svg PUBLIC "-//W3C//DTD SVG 1.1//EN"
 "http://www.w3.org/Graphics/SVG/1.1/DTD/svg11.dtd">
<!-- Generated by graphviz version 2.38.0 (20140413.2041)
 -->
<!-- Title: %3 Pages: 1 -->
<svg width="294pt" height="404pt"
 viewBox="0.00 0.00 293.60 404.00" xmlns="http://www.w3.org/2000/svg" xmlns:xlink="http://www.w3.org/1999/xlink">
<g id="graph0" class="graph" transform="scale(1 1) rotate(0) translate(4 400)">
<title>%3</title>
<polygon fill="white" stroke="none" points="-4,4 -4,-400 289.601,-400 289.601,4 -4,4"/>
<!-- 4938004f&#45;bcca&#45;48f5&#45;a5e3&#45;e25c0554f89e -->
<g id="node1" class="node"><title>4938004f&#45;bcca&#45;48f5&#45;a5e3&#45;e25c0554f89e</title>
<polygon fill="cornsilk" stroke="black" points="223.26,-396 163.26,-396 163.26,-360 223.26,-360 223.26,-396"/>
<text text-anchor="middle" x="193.26" y="-374.3" font-family="Helvetica,sans-Serif" font-size="14.00">set LC</text>
</g>
<!-- ab0166c2&#45;5aac&#45;4ca4&#45;8d69&#45;a42efee324c4 -->
<g id="node2" class="node"><title>ab0166c2&#45;5aac&#45;4ca4&#45;8d69&#45;a42efee324c4</title>
<polygon fill="cornsilk" stroke="black" points="138.76,-324 61.7601,-324 61.7601,-288 138.76,-288 138.76,-324"/>
<text text-anchor="middle" x="100.26" y="-302.3" font-family="Helvetica,sans-Serif" font-size="14.00">read line</text>
</g>
<!-- 4938004f&#45;bcca&#45;48f5&#45;a5e3&#45;e25c0554f89e&#45;&gt;ab0166c2&#45;5aac&#45;4ca4&#45;8d69&#45;a42efee324c4 -->
<g id="edge1" class="edge"><title>4938004f&#45;bcca&#45;48f5&#45;a5e3&#45;e25c0554f89e&#45;&gt;ab0166c2&#45;5aac&#45;4ca4&#45;8d69&#45;a42efee324c4</title>
<path fill="none" stroke="black" d="M170.271,-359.697C158.446,-350.796 143.868,-339.823 131.081,-330.199"/>
<polygon fill="none" stroke="black" points="133.079,-327.322 122.984,-324.104 128.869,-332.915 133.079,-327.322"/>
</g>
<!-- 118ef6d5&#45;5522&#45;41f6&#45;ab97&#45;ea0dfc1185a9 -->
<g id="node9" class="node"><title>118ef6d5&#45;5522&#45;41f6&#45;ab97&#45;ea0dfc1185a9</title>
<polygon fill="cornsilk" stroke="black" points="100.26,-252 35.2389,-234 100.26,-216 165.281,-234 100.26,-252"/>
<text text-anchor="middle" x="100.26" y="-230.3" font-family="Helvetica,sans-Serif" font-size="14.00">is label?</text>
</g>
<!-- ab0166c2&#45;5aac&#45;4ca4&#45;8d69&#45;a42efee324c4&#45;&gt;118ef6d5&#45;5522&#45;41f6&#45;ab97&#45;ea0dfc1185a9 -->
<g id="edge7" class="edge"><title>ab0166c2&#45;5aac&#45;4ca4&#45;8d69&#45;a42efee324c4&#45;&gt;118ef6d5&#45;5522&#45;41f6&#45;ab97&#45;ea0dfc1185a9</title>
<path fill="none" stroke="black" d="M100.26,-287.697C100.26,-279.983 100.26,-270.712 100.26,-262.112"/>
<polygon fill="none" stroke="black" points="103.76,-262.104 100.26,-252.104 96.7602,-262.104 103.76,-262.104"/>
</g>
<!-- 62f81db6&#45;cc2b&#45;41cc&#45;9ebf&#45;0056ec7891f4 -->
<g id="node3" class="node"><title>62f81db6&#45;cc2b&#45;41cc&#45;9ebf&#45;0056ec7891f4</title>
<polygon fill="cornsilk" stroke="black" points="139.26,-108 35.2601,-108 35.2601,-72 139.26,-72 139.26,-108"/>
<text text-anchor="middle" x="87.2601" y="-86.3" font-family="Helvetica,sans-Serif" font-size="14.00">store symbol</text>
</g>
<!-- 764e0695&#45;8a22&#45;42ec&#45;876e&#45;16112b27f987 -->
<g id="node4" class="node"><title>764e0695&#45;8a22&#45;42ec&#45;876e&#45;16112b27f987</title>
<polygon fill="cornsilk" stroke="black" points="129.26,-36 45.2601,-36 45.2601,-0 129.26,-0 129.26,-36"/>
<text text-anchor="middle" x="87.2601" y="-14.3" font-family="Helvetica,sans-Serif" font-size="14.00">set LC++</text>
</g>
<!-- 62f81db6&#45;cc2b&#45;41cc&#45;9ebf&#45;0056ec7891f4&#45;&gt;764e0695&#45;8a22&#45;42ec&#45;876e&#45;16112b27f987 -->
<g id="edge2" class="edge"><title>62f81db6&#45;cc2b&#45;41cc&#45;9ebf&#45;0056ec7891f4&#45;&gt;764e0695&#45;8a22&#45;42ec&#45;876e&#45;16112b27f987</title>
<path fill="none" stroke="black" d="M87.2601,-71.6966C87.2601,-63.9827 87.2601,-54.7125 87.2601,-46.1124"/>
<polygon fill="none" stroke="black" points="90.7602,-46.1043 87.2601,-36.1043 83.7602,-46.1044 90.7602,-46.1043"/>
</g>
<!-- 764e0695&#45;8a22&#45;42ec&#45;876e&#45;16112b27f987&#45;&gt;ab0166c2&#45;5aac&#45;4ca4&#45;8d69&#45;a42efee324c4 -->
<g id="edge6" class="edge"><title>764e0695&#45;8a22&#45;42ec&#45;876e&#45;16112b27f987&#45;&gt;ab0166c2&#45;5aac&#45;4ca4&#45;8d69&#45;a42efee324c4</title>
<path fill="none" stroke="black" d="M58.2201,-36.1631C45.9418,-45.1336 32.9524,-57.3199 26.2601,-72 -6.92436,-144.793 -10.301,-180.843 26.2601,-252 32.533,-264.209 43.0681,-274.234 54.251,-282.152"/>
<polygon fill="none" stroke="black" points="52.5862,-285.246 62.8691,-287.798 56.4221,-279.39 52.5862,-285.246"/>
</g>
<!-- cb32f3d6&#45;ec75&#45;44f1&#45;adb7&#45;30590d3e3820 -->
<g id="node5" class="node"><title>cb32f3d6&#45;ec75&#45;44f1&#45;adb7&#45;30590d3e3820</title>
<polygon fill="cornsilk" stroke="black" points="193.26,-180 128.239,-162 193.26,-144 258.281,-162 193.26,-180"/>
<text text-anchor="middle" x="193.26" y="-158.3" font-family="Helvetica,sans-Serif" font-size="14.00">is ORG?</text>
</g>
<!-- cb32f3d6&#45;ec75&#45;44f1&#45;adb7&#45;30590d3e3820&#45;&gt;4938004f&#45;bcca&#45;48f5&#45;a5e3&#45;e25c0554f89e -->
<g id="edge4" class="edge"><title>cb32f3d6&#45;ec75&#45;44f1&#45;adb7&#45;30590d3e3820&#45;&gt;4938004f&#45;bcca&#45;48f5&#45;a5e3&#45;e25c0554f89e</title>
<path fill="none" stroke="black" d="M193.26,-180.232C193.26,-217.324 193.26,-304.981 193.26,-349.712"/>
<polygon fill="none" stroke="black" points="189.76,-349.849 193.26,-359.849 196.76,-349.849 189.76,-349.849"/>
<text text-anchor="middle" x="181.26" y="-184.032" font-family="Helvetica,sans-Serif" font-size="14.00">yes</text>
</g>
<!-- ef9163cf&#45;9421&#45;4971&#45;9123&#45;4258396ca868 -->
<g id="node6" class="node"><title>ef9163cf&#45;9421&#45;4971&#45;9123&#45;4258396ca868</title>
<polygon fill="cornsilk" stroke="black" points="221.26,-108 157.078,-90 221.26,-72 285.443,-90 221.26,-108"/>
<text text-anchor="middle" x="221.26" y="-86.3" font-family="Helvetica,sans-Serif" font-size="14.00">is END?</text>
</g>
<!-- cb32f3d6&#45;ec75&#45;44f1&#45;adb7&#45;30590d3e3820&#45;&gt;ef9163cf&#45;9421&#45;4971&#45;9123&#45;4258396ca868 -->
<g id="edge3" class="edge"><title>cb32f3d6&#45;ec75&#45;44f1&#45;adb7&#45;30590d3e3820&#45;&gt;ef9163cf&#45;9421&#45;4971&#45;9123&#45;4258396ca868</title>
<path fill="none" stroke="black" d="M199.474,-145.465C202.954,-136.765 207.375,-125.712 211.324,-115.839"/>
<polygon fill="none" stroke="black" points="214.599,-117.077 215.063,-106.492 208.1,-114.477 214.599,-117.077"/>
<text text-anchor="middle" x="190.474" y="-134.265" font-family="Helvetica,sans-Serif" font-size="14.00">no</text>
</g>
<!-- ef9163cf&#45;9421&#45;4971&#45;9123&#45;4258396ca868&#45;&gt;764e0695&#45;8a22&#45;42ec&#45;876e&#45;16112b27f987 -->
<g id="edge9" class="edge"><title>ef9163cf&#45;9421&#45;4971&#45;9123&#45;4258396ca868&#45;&gt;764e0695&#45;8a22&#45;42ec&#45;876e&#45;16112b27f987</title>
<path fill="none" stroke="black" d="M200.027,-77.9083C181.004,-67.9706 152.551,-53.107 128.985,-40.7968"/>
<polygon fill="none" stroke="black" points="130.377,-37.575 119.893,-36.047 127.136,-43.7795 130.377,-37.575"/>
<text text-anchor="middle" x="191.027" y="-66.7083" font-family="Helvetica,sans-Serif" font-size="14.00">no</text>
</g>
<!-- 1c100902&#45;8e7e&#45;4e0c&#45;bb9d&#45;cf6f0a3b16fe -->
<g id="node8" class="node"><title>1c100902&#45;8e7e&#45;4e0c&#45;bb9d&#45;cf6f0a3b16fe</title>
<polygon fill="cornsilk" stroke="black" points="251.26,-36 195.26,-36 191.26,-32 191.26,-0 247.26,-0 251.26,-4 251.26,-36"/>
<polyline fill="none" stroke="black" points="247.26,-32 191.26,-32 "/>
<polyline fill="none" stroke="black" points="247.26,-32 247.26,-0 "/>
<polyline fill="none" stroke="black" points="247.26,-32 251.26,-36 "/>
<text text-anchor="middle" x="221.26" y="-14.3" font-family="Helvetica,sans-Serif" font-size="14.00">pass 2</text>
</g>
<!-- ef9163cf&#45;9421&#45;4971&#45;9123&#45;4258396ca868&#45;&gt;1c100902&#45;8e7e&#45;4e0c&#45;bb9d&#45;cf6f0a3b16fe -->
<g id="edge8" class="edge"><title>ef9163cf&#45;9421&#45;4971&#45;9123&#45;4258396ca868&#45;&gt;1c100902&#45;8e7e&#45;4e0c&#45;bb9d&#45;cf6f0a3b16fe</title>
<path fill="none" stroke="black" d="M221.26,-71.6966C221.26,-63.9827 221.26,-54.7125 221.26,-46.1124"/>
<polygon fill="none" stroke="black" points="224.76,-46.1043 221.26,-36.1043 217.76,-46.1044 224.76,-46.1043"/>
<text text-anchor="middle" x="233.26" y="-60.4966" font-family="Helvetica,sans-Serif" font-size="14.00">yes</text>
</g>
<!-- 8c7ba8d9&#45;9cef&#45;441c&#45;a857&#45;b84222a4c501 -->
<g id="node7" class="node"><title>8c7ba8d9&#45;9cef&#45;441c&#45;a857&#45;b84222a4c501</title>
<polygon fill="cornsilk" stroke="black" points="145.26,-396 55.2601,-396 55.2601,-360 145.26,-360 145.26,-396"/>
<text text-anchor="middle" x="100.26" y="-374.3" font-family="Helvetica,sans-Serif" font-size="14.00">set LC = 0</text>
</g>
<!-- 8c7ba8d9&#45;9cef&#45;441c&#45;a857&#45;b84222a4c501&#45;&gt;ab0166c2&#45;5aac&#45;4ca4&#45;8d69&#45;a42efee324c4 -->
<g id="edge5" class="edge"><title>8c7ba8d9&#45;9cef&#45;441c&#45;a857&#45;b84222a4c501&#45;&gt;ab0166c2&#45;5aac&#45;4ca4&#45;8d69&#45;a42efee324c4</title>
<path fill="none" stroke="black" d="M100.26,-359.697C100.26,-351.983 100.26,-342.712 100.26,-334.112"/>
<polygon fill="none" stroke="black" points="103.76,-334.104 100.26,-324.104 96.7602,-334.104 103.76,-334.104"/>
</g>
<!-- 118ef6d5&#45;5522&#45;41f6&#45;ab97&#45;ea0dfc1185a9&#45;&gt;62f81db6&#45;cc2b&#45;41cc&#45;9ebf&#45;0056ec7891f4 -->
<g id="edge11" class="edge"><title>118ef6d5&#45;5522&#45;41f6&#45;ab97&#45;ea0dfc1185a9&#45;&gt;62f81db6&#45;cc2b&#45;41cc&#45;9ebf&#45;0056ec7891f4</title>
<path fill="none" stroke="black" d="M98.7178,-216.153C96.5112,-192.05 92.4278,-147.447 89.779,-118.514"/>
<polygon fill="none" stroke="black" points="93.2382,-117.907 88.841,-108.268 86.2673,-118.545 93.2382,-117.907"/>
<text text-anchor="middle" x="86.7178" y="-204.953" font-family="Helvetica,sans-Serif" font-size="14.00">yes</text>
</g>
<!-- 118ef6d5&#45;5522&#45;41f6&#45;ab97&#45;ea0dfc1185a9&#45;&gt;cb32f3d6&#45;ec75&#45;44f1&#45;adb7&#45;30590d3e3820 -->
<g id="edge10" class="edge"><title>118ef6d5&#45;5522&#45;41f6&#45;ab97&#45;ea0dfc1185a9&#45;&gt;cb32f3d6&#45;ec75&#45;44f1&#45;adb7&#45;30590d3e3820</title>
<path fill="none" stroke="black" d="M116.887,-220.485C131.213,-209.702 152.099,-193.981 168.41,-181.704"/>
<polygon fill="none" stroke="black" points="170.579,-184.452 176.464,-175.642 166.369,-178.86 170.579,-184.452"/>
<text text-anchor="middle" x="107.887" y="-209.285" font-family="Helvetica,sans-Serif" font-size="14.00">no</text>
</g>
</g>
</svg>
