<?xml version="1.0" encoding="UTF-8" standalone="no"?>
<!DOCTYPE svg PUBLIC "-//W3C//DTD SVG 1.1//EN"
 "http://www.w3.org/Graphics/SVG/1.1/DTD/svg11.dtd">
<!-- Generated by graphviz version 2.38.0 (20140413.2041)
 -->
<!-- Title: %3 Pages: 1 -->
<svg width="294pt" height="404pt"
 viewBox="0.00 0.00 293.60 404.00" xmlns="http://www.w3.org/2000/svg" xmlns:xlink="http://www.w3.org/1999/xlink">
<g id="graph0" class="graph" transform="scale(1 1) rotate(0) translate(4 400)">
<title>%3</title>
<polygon fill="white" stroke="none" points="-4,4 -4,-400 289.601,-400 289.601,4 -4,4"/>
<!-- 199ffde3&#45;aa93&#45;4536&#45;8f79&#45;9ee13ac1f410 -->
<g id="node1" class="node"><title>199ffde3&#45;aa93&#45;4536&#45;8f79&#45;9ee13ac1f410</title>
<polygon fill="cornsilk" stroke="black" points="223.26,-396 163.26,-396 163.26,-360 223.26,-360 223.26,-396"/>
<text text-anchor="middle" x="193.26" y="-374.3" font-family="Helvetica,sans-Serif" font-size="14.00">set LC</text>
</g>
<!-- ba96e5c6&#45;98bb&#45;4d5e&#45;88f7&#45;0e0df9424391 -->
<g id="node2" class="node"><title>ba96e5c6&#45;98bb&#45;4d5e&#45;88f7&#45;0e0df9424391</title>
<polygon fill="cornsilk" stroke="black" points="138.76,-324 61.7601,-324 61.7601,-288 138.76,-288 138.76,-324"/>
<text text-anchor="middle" x="100.26" y="-302.3" font-family="Helvetica,sans-Serif" font-size="14.00">read line</text>
</g>
<!-- 199ffde3&#45;aa93&#45;4536&#45;8f79&#45;9ee13ac1f410&#45;&gt;ba96e5c6&#45;98bb&#45;4d5e&#45;88f7&#45;0e0df9424391 -->
<g id="edge1" class="edge"><title>199ffde3&#45;aa93&#45;4536&#45;8f79&#45;9ee13ac1f410&#45;&gt;ba96e5c6&#45;98bb&#45;4d5e&#45;88f7&#45;0e0df9424391</title>
<path fill="none" stroke="black" d="M170.271,-359.697C158.446,-350.796 143.868,-339.823 131.081,-330.199"/>
<polygon fill="none" stroke="black" points="133.079,-327.322 122.984,-324.104 128.869,-332.915 133.079,-327.322"/>
</g>
<!-- b3b1aaa9&#45;ab2f&#45;4c8b&#45;a904&#45;2dd2b3440d66 -->
<g id="node9" class="node"><title>b3b1aaa9&#45;ab2f&#45;4c8b&#45;a904&#45;2dd2b3440d66</title>
<polygon fill="cornsilk" stroke="black" points="100.26,-252 35.2389,-234 100.26,-216 165.281,-234 100.26,-252"/>
<text text-anchor="middle" x="100.26" y="-230.3" font-family="Helvetica,sans-Serif" font-size="14.00">is label?</text>
</g>
<!-- ba96e5c6&#45;98bb&#45;4d5e&#45;88f7&#45;0e0df9424391&#45;&gt;b3b1aaa9&#45;ab2f&#45;4c8b&#45;a904&#45;2dd2b3440d66 -->
<g id="edge7" class="edge"><title>ba96e5c6&#45;98bb&#45;4d5e&#45;88f7&#45;0e0df9424391&#45;&gt;b3b1aaa9&#45;ab2f&#45;4c8b&#45;a904&#45;2dd2b3440d66</title>
<path fill="none" stroke="black" d="M100.26,-287.697C100.26,-279.983 100.26,-270.712 100.26,-262.112"/>
<polygon fill="none" stroke="black" points="103.76,-262.104 100.26,-252.104 96.7602,-262.104 103.76,-262.104"/>
</g>
<!-- 976de603&#45;7528&#45;472a&#45;930b&#45;c0543690440e -->
<g id="node3" class="node"><title>976de603&#45;7528&#45;472a&#45;930b&#45;c0543690440e</title>
<polygon fill="cornsilk" stroke="black" points="139.26,-108 35.2601,-108 35.2601,-72 139.26,-72 139.26,-108"/>
<text text-anchor="middle" x="87.2601" y="-86.3" font-family="Helvetica,sans-Serif" font-size="14.00">store symbol</text>
</g>
<!-- e48db273&#45;ee8d&#45;4b14&#45;8bbb&#45;9aae6d0431a6 -->
<g id="node4" class="node"><title>e48db273&#45;ee8d&#45;4b14&#45;8bbb&#45;9aae6d0431a6</title>
<polygon fill="cornsilk" stroke="black" points="129.26,-36 45.2601,-36 45.2601,-0 129.26,-0 129.26,-36"/>
<text text-anchor="middle" x="87.2601" y="-14.3" font-family="Helvetica,sans-Serif" font-size="14.00">set LC++</text>
</g>
<!-- 976de603&#45;7528&#45;472a&#45;930b&#45;c0543690440e&#45;&gt;e48db273&#45;ee8d&#45;4b14&#45;8bbb&#45;9aae6d0431a6 -->
<g id="edge2" class="edge"><title>976de603&#45;7528&#45;472a&#45;930b&#45;c0543690440e&#45;&gt;e48db273&#45;ee8d&#45;4b14&#45;8bbb&#45;9aae6d0431a6</title>
<path fill="none" stroke="black" d="M87.2601,-71.6966C87.2601,-63.9827 87.2601,-54.7125 87.2601,-46.1124"/>
<polygon fill="none" stroke="black" points="90.7602,-46.1043 87.2601,-36.1043 83.7602,-46.1044 90.7602,-46.1043"/>
</g>
<!-- e48db273&#45;ee8d&#45;4b14&#45;8bbb&#45;9aae6d0431a6&#45;&gt;ba96e5c6&#45;98bb&#45;4d5e&#45;88f7&#45;0e0df9424391 -->
<g id="edge6" class="edge"><title>e48db273&#45;ee8d&#45;4b14&#45;8bbb&#45;9aae6d0431a6&#45;&gt;ba96e5c6&#45;98bb&#45;4d5e&#45;88f7&#45;0e0df9424391</title>
<path fill="none" stroke="black" d="M58.2201,-36.1631C45.9418,-45.1336 32.9524,-57.3199 26.2601,-72 -6.92436,-144.793 -10.301,-180.843 26.2601,-252 32.533,-264.209 43.0681,-274.234 54.251,-282.152"/>
<polygon fill="none" stroke="black" points="52.5862,-285.246 62.8691,-287.798 56.4221,-279.39 52.5862,-285.246"/>
</g>
<!-- 6541d426&#45;aa6b&#45;43cd&#45;a22b&#45;ffcfb2d2b2ce -->
<g id="node5" class="node"><title>6541d426&#45;aa6b&#45;43cd&#45;a22b&#45;ffcfb2d2b2ce</title>
<polygon fill="cornsilk" stroke="black" points="193.26,-180 128.239,-162 193.26,-144 258.281,-162 193.26,-180"/>
<text text-anchor="middle" x="193.26" y="-158.3" font-family="Helvetica,sans-Serif" font-size="14.00">is ORG?</text>
</g>
<!-- 6541d426&#45;aa6b&#45;43cd&#45;a22b&#45;ffcfb2d2b2ce&#45;&gt;199ffde3&#45;aa93&#45;4536&#45;8f79&#45;9ee13ac1f410 -->
<g id="edge4" class="edge"><title>6541d426&#45;aa6b&#45;43cd&#45;a22b&#45;ffcfb2d2b2ce&#45;&gt;199ffde3&#45;aa93&#45;4536&#45;8f79&#45;9ee13ac1f410</title>
<path fill="none" stroke="black" d="M193.26,-180.232C193.26,-217.324 193.26,-304.981 193.26,-349.712"/>
<polygon fill="none" stroke="black" points="189.76,-349.849 193.26,-359.849 196.76,-349.849 189.76,-349.849"/>
<text text-anchor="middle" x="181.26" y="-184.032" font-family="Helvetica,sans-Serif" font-size="14.00">yes</text>
</g>
<!-- e61955ce&#45;1a2d&#45;4da3&#45;86df&#45;a9d956baf06d -->
<g id="node6" class="node"><title>e61955ce&#45;1a2d&#45;4da3&#45;86df&#45;a9d956baf06d</title>
<polygon fill="cornsilk" stroke="black" points="221.26,-108 157.078,-90 221.26,-72 285.443,-90 221.26,-108"/>
<text text-anchor="middle" x="221.26" y="-86.3" font-family="Helvetica,sans-Serif" font-size="14.00">is END?</text>
</g>
<!-- 6541d426&#45;aa6b&#45;43cd&#45;a22b&#45;ffcfb2d2b2ce&#45;&gt;e61955ce&#45;1a2d&#45;4da3&#45;86df&#45;a9d956baf06d -->
<g id="edge3" class="edge"><title>6541d426&#45;aa6b&#45;43cd&#45;a22b&#45;ffcfb2d2b2ce&#45;&gt;e61955ce&#45;1a2d&#45;4da3&#45;86df&#45;a9d956baf06d</title>
<path fill="none" stroke="black" d="M199.474,-145.465C202.954,-136.765 207.375,-125.712 211.324,-115.839"/>
<polygon fill="none" stroke="black" points="214.599,-117.077 215.063,-106.492 208.1,-114.477 214.599,-117.077"/>
<text text-anchor="middle" x="190.474" y="-134.265" font-family="Helvetica,sans-Serif" font-size="14.00">no</text>
</g>
<!-- e61955ce&#45;1a2d&#45;4da3&#45;86df&#45;a9d956baf06d&#45;&gt;e48db273&#45;ee8d&#45;4b14&#45;8bbb&#45;9aae6d0431a6 -->
<g id="edge9" class="edge"><title>e61955ce&#45;1a2d&#45;4da3&#45;86df&#45;a9d956baf06d&#45;&gt;e48db273&#45;ee8d&#45;4b14&#45;8bbb&#45;9aae6d0431a6</title>
<path fill="none" stroke="black" d="M200.027,-77.9083C181.004,-67.9706 152.551,-53.107 128.985,-40.7968"/>
<polygon fill="none" stroke="black" points="130.377,-37.575 119.893,-36.047 127.136,-43.7795 130.377,-37.575"/>
<text text-anchor="middle" x="191.027" y="-66.7083" font-family="Helvetica,sans-Serif" font-size="14.00">no</text>
</g>
<!-- c4a6ce47&#45;25c4&#45;4867&#45;b1d1&#45;eba872911dd6 -->
<g id="node8" class="node"><title>c4a6ce47&#45;25c4&#45;4867&#45;b1d1&#45;eba872911dd6</title>
<polygon fill="cornsilk" stroke="black" points="251.26,-36 195.26,-36 191.26,-32 191.26,-0 247.26,-0 251.26,-4 251.26,-36"/>
<polyline fill="none" stroke="black" points="247.26,-32 191.26,-32 "/>
<polyline fill="none" stroke="black" points="247.26,-32 247.26,-0 "/>
<polyline fill="none" stroke="black" points="247.26,-32 251.26,-36 "/>
<text text-anchor="middle" x="221.26" y="-14.3" font-family="Helvetica,sans-Serif" font-size="14.00">pass 2</text>
</g>
<!-- e61955ce&#45;1a2d&#45;4da3&#45;86df&#45;a9d956baf06d&#45;&gt;c4a6ce47&#45;25c4&#45;4867&#45;b1d1&#45;eba872911dd6 -->
<g id="edge8" class="edge"><title>e61955ce&#45;1a2d&#45;4da3&#45;86df&#45;a9d956baf06d&#45;&gt;c4a6ce47&#45;25c4&#45;4867&#45;b1d1&#45;eba872911dd6</title>
<path fill="none" stroke="black" d="M221.26,-71.6966C221.26,-63.9827 221.26,-54.7125 221.26,-46.1124"/>
<polygon fill="none" stroke="black" points="224.76,-46.1043 221.26,-36.1043 217.76,-46.1044 224.76,-46.1043"/>
<text text-anchor="middle" x="233.26" y="-60.4966" font-family="Helvetica,sans-Serif" font-size="14.00">yes</text>
</g>
<!-- d9fcbf1c&#45;7cb5&#45;4578&#45;8fb5&#45;cf264cad61d1 -->
<g id="node7" class="node"><title>d9fcbf1c&#45;7cb5&#45;4578&#45;8fb5&#45;cf264cad61d1</title>
<polygon fill="cornsilk" stroke="black" points="145.26,-396 55.2601,-396 55.2601,-360 145.26,-360 145.26,-396"/>
<text text-anchor="middle" x="100.26" y="-374.3" font-family="Helvetica,sans-Serif" font-size="14.00">set LC = 0</text>
</g>
<!-- d9fcbf1c&#45;7cb5&#45;4578&#45;8fb5&#45;cf264cad61d1&#45;&gt;ba96e5c6&#45;98bb&#45;4d5e&#45;88f7&#45;0e0df9424391 -->
<g id="edge5" class="edge"><title>d9fcbf1c&#45;7cb5&#45;4578&#45;8fb5&#45;cf264cad61d1&#45;&gt;ba96e5c6&#45;98bb&#45;4d5e&#45;88f7&#45;0e0df9424391</title>
<path fill="none" stroke="black" d="M100.26,-359.697C100.26,-351.983 100.26,-342.712 100.26,-334.112"/>
<polygon fill="none" stroke="black" points="103.76,-334.104 100.26,-324.104 96.7602,-334.104 103.76,-334.104"/>
</g>
<!-- b3b1aaa9&#45;ab2f&#45;4c8b&#45;a904&#45;2dd2b3440d66&#45;&gt;976de603&#45;7528&#45;472a&#45;930b&#45;c0543690440e -->
<g id="edge11" class="edge"><title>b3b1aaa9&#45;ab2f&#45;4c8b&#45;a904&#45;2dd2b3440d66&#45;&gt;976de603&#45;7528&#45;472a&#45;930b&#45;c0543690440e</title>
<path fill="none" stroke="black" d="M98.7178,-216.153C96.5112,-192.05 92.4278,-147.447 89.779,-118.514"/>
<polygon fill="none" stroke="black" points="93.2382,-117.907 88.841,-108.268 86.2673,-118.545 93.2382,-117.907"/>
<text text-anchor="middle" x="86.7178" y="-204.953" font-family="Helvetica,sans-Serif" font-size="14.00">yes</text>
</g>
<!-- b3b1aaa9&#45;ab2f&#45;4c8b&#45;a904&#45;2dd2b3440d66&#45;&gt;6541d426&#45;aa6b&#45;43cd&#45;a22b&#45;ffcfb2d2b2ce -->
<g id="edge10" class="edge"><title>b3b1aaa9&#45;ab2f&#45;4c8b&#45;a904&#45;2dd2b3440d66&#45;&gt;6541d426&#45;aa6b&#45;43cd&#45;a22b&#45;ffcfb2d2b2ce</title>
<path fill="none" stroke="black" d="M116.887,-220.485C131.213,-209.702 152.099,-193.981 168.41,-181.704"/>
<polygon fill="none" stroke="black" points="170.579,-184.452 176.464,-175.642 166.369,-178.86 170.579,-184.452"/>
<text text-anchor="middle" x="107.887" y="-209.285" font-family="Helvetica,sans-Serif" font-size="14.00">no</text>
</g>
</g>
</svg>
