<?xml version="1.0" encoding="UTF-8" standalone="no"?>
<!DOCTYPE svg PUBLIC "-//W3C//DTD SVG 1.1//EN"
 "http://www.w3.org/Graphics/SVG/1.1/DTD/svg11.dtd">
<!-- Generated by graphviz version 2.38.0 (20140413.2041)
 -->
<!-- Title: %3 Pages: 1 -->
<svg width="294pt" height="404pt"
 viewBox="0.00 0.00 293.60 404.00" xmlns="http://www.w3.org/2000/svg" xmlns:xlink="http://www.w3.org/1999/xlink">
<g id="graph0" class="graph" transform="scale(1 1) rotate(0) translate(4 400)">
<title>%3</title>
<polygon fill="white" stroke="none" points="-4,4 -4,-400 289.601,-400 289.601,4 -4,4"/>
<!-- 6c05a4c0&#45;7ac4&#45;416f&#45;9432&#45;2c89df089003 -->
<g id="node1" class="node"><title>6c05a4c0&#45;7ac4&#45;416f&#45;9432&#45;2c89df089003</title>
<polygon fill="cornsilk" stroke="black" points="223.26,-396 163.26,-396 163.26,-360 223.26,-360 223.26,-396"/>
<text text-anchor="middle" x="193.26" y="-374.3" font-family="Helvetica,sans-Serif" font-size="14.00">set LC</text>
</g>
<!-- 05abeb59&#45;8300&#45;4240&#45;b64b&#45;c80cc0efa9d3 -->
<g id="node2" class="node"><title>05abeb59&#45;8300&#45;4240&#45;b64b&#45;c80cc0efa9d3</title>
<polygon fill="cornsilk" stroke="black" points="138.76,-324 61.7601,-324 61.7601,-288 138.76,-288 138.76,-324"/>
<text text-anchor="middle" x="100.26" y="-302.3" font-family="Helvetica,sans-Serif" font-size="14.00">read line</text>
</g>
<!-- 6c05a4c0&#45;7ac4&#45;416f&#45;9432&#45;2c89df089003&#45;&gt;05abeb59&#45;8300&#45;4240&#45;b64b&#45;c80cc0efa9d3 -->
<g id="edge1" class="edge"><title>6c05a4c0&#45;7ac4&#45;416f&#45;9432&#45;2c89df089003&#45;&gt;05abeb59&#45;8300&#45;4240&#45;b64b&#45;c80cc0efa9d3</title>
<path fill="none" stroke="black" d="M170.271,-359.697C158.446,-350.796 143.868,-339.823 131.081,-330.199"/>
<polygon fill="none" stroke="black" points="133.079,-327.322 122.984,-324.104 128.869,-332.915 133.079,-327.322"/>
</g>
<!-- 994f936b&#45;8b9e&#45;4301&#45;8d43&#45;4939ce993d3d -->
<g id="node9" class="node"><title>994f936b&#45;8b9e&#45;4301&#45;8d43&#45;4939ce993d3d</title>
<polygon fill="cornsilk" stroke="black" points="100.26,-252 35.2389,-234 100.26,-216 165.281,-234 100.26,-252"/>
<text text-anchor="middle" x="100.26" y="-230.3" font-family="Helvetica,sans-Serif" font-size="14.00">is label?</text>
</g>
<!-- 05abeb59&#45;8300&#45;4240&#45;b64b&#45;c80cc0efa9d3&#45;&gt;994f936b&#45;8b9e&#45;4301&#45;8d43&#45;4939ce993d3d -->
<g id="edge7" class="edge"><title>05abeb59&#45;8300&#45;4240&#45;b64b&#45;c80cc0efa9d3&#45;&gt;994f936b&#45;8b9e&#45;4301&#45;8d43&#45;4939ce993d3d</title>
<path fill="none" stroke="black" d="M100.26,-287.697C100.26,-279.983 100.26,-270.712 100.26,-262.112"/>
<polygon fill="none" stroke="black" points="103.76,-262.104 100.26,-252.104 96.7602,-262.104 103.76,-262.104"/>
</g>
<!-- 62976015&#45;b209&#45;4d5f&#45;b5e2&#45;e269b194bddb -->
<g id="node3" class="node"><title>62976015&#45;b209&#45;4d5f&#45;b5e2&#45;e269b194bddb</title>
<polygon fill="cornsilk" stroke="black" points="139.26,-108 35.2601,-108 35.2601,-72 139.26,-72 139.26,-108"/>
<text text-anchor="middle" x="87.2601" y="-86.3" font-family="Helvetica,sans-Serif" font-size="14.00">store symbol</text>
</g>
<!-- b0b53687&#45;eff5&#45;4b69&#45;bd43&#45;5a1d1dd7da53 -->
<g id="node4" class="node"><title>b0b53687&#45;eff5&#45;4b69&#45;bd43&#45;5a1d1dd7da53</title>
<polygon fill="cornsilk" stroke="black" points="129.26,-36 45.2601,-36 45.2601,-0 129.26,-0 129.26,-36"/>
<text text-anchor="middle" x="87.2601" y="-14.3" font-family="Helvetica,sans-Serif" font-size="14.00">set LC++</text>
</g>
<!-- 62976015&#45;b209&#45;4d5f&#45;b5e2&#45;e269b194bddb&#45;&gt;b0b53687&#45;eff5&#45;4b69&#45;bd43&#45;5a1d1dd7da53 -->
<g id="edge2" class="edge"><title>62976015&#45;b209&#45;4d5f&#45;b5e2&#45;e269b194bddb&#45;&gt;b0b53687&#45;eff5&#45;4b69&#45;bd43&#45;5a1d1dd7da53</title>
<path fill="none" stroke="black" d="M87.2601,-71.6966C87.2601,-63.9827 87.2601,-54.7125 87.2601,-46.1124"/>
<polygon fill="none" stroke="black" points="90.7602,-46.1043 87.2601,-36.1043 83.7602,-46.1044 90.7602,-46.1043"/>
</g>
<!-- b0b53687&#45;eff5&#45;4b69&#45;bd43&#45;5a1d1dd7da53&#45;&gt;05abeb59&#45;8300&#45;4240&#45;b64b&#45;c80cc0efa9d3 -->
<g id="edge6" class="edge"><title>b0b53687&#45;eff5&#45;4b69&#45;bd43&#45;5a1d1dd7da53&#45;&gt;05abeb59&#45;8300&#45;4240&#45;b64b&#45;c80cc0efa9d3</title>
<path fill="none" stroke="black" d="M58.2201,-36.1631C45.9418,-45.1336 32.9524,-57.3199 26.2601,-72 -6.92436,-144.793 -10.301,-180.843 26.2601,-252 32.533,-264.209 43.0681,-274.234 54.251,-282.152"/>
<polygon fill="none" stroke="black" points="52.5862,-285.246 62.8691,-287.798 56.4221,-279.39 52.5862,-285.246"/>
</g>
<!-- ed8d6a3e&#45;b45a&#45;4948&#45;a421&#45;46c45d4495c7 -->
<g id="node5" class="node"><title>ed8d6a3e&#45;b45a&#45;4948&#45;a421&#45;46c45d4495c7</title>
<polygon fill="cornsilk" stroke="black" points="193.26,-180 128.239,-162 193.26,-144 258.281,-162 193.26,-180"/>
<text text-anchor="middle" x="193.26" y="-158.3" font-family="Helvetica,sans-Serif" font-size="14.00">is ORG?</text>
</g>
<!-- ed8d6a3e&#45;b45a&#45;4948&#45;a421&#45;46c45d4495c7&#45;&gt;6c05a4c0&#45;7ac4&#45;416f&#45;9432&#45;2c89df089003 -->
<g id="edge4" class="edge"><title>ed8d6a3e&#45;b45a&#45;4948&#45;a421&#45;46c45d4495c7&#45;&gt;6c05a4c0&#45;7ac4&#45;416f&#45;9432&#45;2c89df089003</title>
<path fill="none" stroke="black" d="M193.26,-180.232C193.26,-217.324 193.26,-304.981 193.26,-349.712"/>
<polygon fill="none" stroke="black" points="189.76,-349.849 193.26,-359.849 196.76,-349.849 189.76,-349.849"/>
<text text-anchor="middle" x="181.26" y="-184.032" font-family="Helvetica,sans-Serif" font-size="14.00">yes</text>
</g>
<!-- e5fb6968&#45;56fe&#45;4d65&#45;b441&#45;e6d20dbc604f -->
<g id="node6" class="node"><title>e5fb6968&#45;56fe&#45;4d65&#45;b441&#45;e6d20dbc604f</title>
<polygon fill="cornsilk" stroke="black" points="221.26,-108 157.078,-90 221.26,-72 285.443,-90 221.26,-108"/>
<text text-anchor="middle" x="221.26" y="-86.3" font-family="Helvetica,sans-Serif" font-size="14.00">is END?</text>
</g>
<!-- ed8d6a3e&#45;b45a&#45;4948&#45;a421&#45;46c45d4495c7&#45;&gt;e5fb6968&#45;56fe&#45;4d65&#45;b441&#45;e6d20dbc604f -->
<g id="edge3" class="edge"><title>ed8d6a3e&#45;b45a&#45;4948&#45;a421&#45;46c45d4495c7&#45;&gt;e5fb6968&#45;56fe&#45;4d65&#45;b441&#45;e6d20dbc604f</title>
<path fill="none" stroke="black" d="M199.474,-145.465C202.954,-136.765 207.375,-125.712 211.324,-115.839"/>
<polygon fill="none" stroke="black" points="214.599,-117.077 215.063,-106.492 208.1,-114.477 214.599,-117.077"/>
<text text-anchor="middle" x="190.474" y="-134.265" font-family="Helvetica,sans-Serif" font-size="14.00">no</text>
</g>
<!-- e5fb6968&#45;56fe&#45;4d65&#45;b441&#45;e6d20dbc604f&#45;&gt;b0b53687&#45;eff5&#45;4b69&#45;bd43&#45;5a1d1dd7da53 -->
<g id="edge9" class="edge"><title>e5fb6968&#45;56fe&#45;4d65&#45;b441&#45;e6d20dbc604f&#45;&gt;b0b53687&#45;eff5&#45;4b69&#45;bd43&#45;5a1d1dd7da53</title>
<path fill="none" stroke="black" d="M200.027,-77.9083C181.004,-67.9706 152.551,-53.107 128.985,-40.7968"/>
<polygon fill="none" stroke="black" points="130.377,-37.575 119.893,-36.047 127.136,-43.7795 130.377,-37.575"/>
<text text-anchor="middle" x="191.027" y="-66.7083" font-family="Helvetica,sans-Serif" font-size="14.00">no</text>
</g>
<!-- 360e9dc5&#45;cbc7&#45;4c80&#45;91c9&#45;ab9eb1e5d278 -->
<g id="node8" class="node"><title>360e9dc5&#45;cbc7&#45;4c80&#45;91c9&#45;ab9eb1e5d278</title>
<polygon fill="cornsilk" stroke="black" points="251.26,-36 195.26,-36 191.26,-32 191.26,-0 247.26,-0 251.26,-4 251.26,-36"/>
<polyline fill="none" stroke="black" points="247.26,-32 191.26,-32 "/>
<polyline fill="none" stroke="black" points="247.26,-32 247.26,-0 "/>
<polyline fill="none" stroke="black" points="247.26,-32 251.26,-36 "/>
<text text-anchor="middle" x="221.26" y="-14.3" font-family="Helvetica,sans-Serif" font-size="14.00">pass 2</text>
</g>
<!-- e5fb6968&#45;56fe&#45;4d65&#45;b441&#45;e6d20dbc604f&#45;&gt;360e9dc5&#45;cbc7&#45;4c80&#45;91c9&#45;ab9eb1e5d278 -->
<g id="edge8" class="edge"><title>e5fb6968&#45;56fe&#45;4d65&#45;b441&#45;e6d20dbc604f&#45;&gt;360e9dc5&#45;cbc7&#45;4c80&#45;91c9&#45;ab9eb1e5d278</title>
<path fill="none" stroke="black" d="M221.26,-71.6966C221.26,-63.9827 221.26,-54.7125 221.26,-46.1124"/>
<polygon fill="none" stroke="black" points="224.76,-46.1043 221.26,-36.1043 217.76,-46.1044 224.76,-46.1043"/>
<text text-anchor="middle" x="233.26" y="-60.4966" font-family="Helvetica,sans-Serif" font-size="14.00">yes</text>
</g>
<!-- c592b459&#45;6025&#45;4f19&#45;a020&#45;e6c5da505cda -->
<g id="node7" class="node"><title>c592b459&#45;6025&#45;4f19&#45;a020&#45;e6c5da505cda</title>
<polygon fill="cornsilk" stroke="black" points="145.26,-396 55.2601,-396 55.2601,-360 145.26,-360 145.26,-396"/>
<text text-anchor="middle" x="100.26" y="-374.3" font-family="Helvetica,sans-Serif" font-size="14.00">set LC = 0</text>
</g>
<!-- c592b459&#45;6025&#45;4f19&#45;a020&#45;e6c5da505cda&#45;&gt;05abeb59&#45;8300&#45;4240&#45;b64b&#45;c80cc0efa9d3 -->
<g id="edge5" class="edge"><title>c592b459&#45;6025&#45;4f19&#45;a020&#45;e6c5da505cda&#45;&gt;05abeb59&#45;8300&#45;4240&#45;b64b&#45;c80cc0efa9d3</title>
<path fill="none" stroke="black" d="M100.26,-359.697C100.26,-351.983 100.26,-342.712 100.26,-334.112"/>
<polygon fill="none" stroke="black" points="103.76,-334.104 100.26,-324.104 96.7602,-334.104 103.76,-334.104"/>
</g>
<!-- 994f936b&#45;8b9e&#45;4301&#45;8d43&#45;4939ce993d3d&#45;&gt;62976015&#45;b209&#45;4d5f&#45;b5e2&#45;e269b194bddb -->
<g id="edge11" class="edge"><title>994f936b&#45;8b9e&#45;4301&#45;8d43&#45;4939ce993d3d&#45;&gt;62976015&#45;b209&#45;4d5f&#45;b5e2&#45;e269b194bddb</title>
<path fill="none" stroke="black" d="M98.7178,-216.153C96.5112,-192.05 92.4278,-147.447 89.779,-118.514"/>
<polygon fill="none" stroke="black" points="93.2382,-117.907 88.841,-108.268 86.2673,-118.545 93.2382,-117.907"/>
<text text-anchor="middle" x="86.7178" y="-204.953" font-family="Helvetica,sans-Serif" font-size="14.00">yes</text>
</g>
<!-- 994f936b&#45;8b9e&#45;4301&#45;8d43&#45;4939ce993d3d&#45;&gt;ed8d6a3e&#45;b45a&#45;4948&#45;a421&#45;46c45d4495c7 -->
<g id="edge10" class="edge"><title>994f936b&#45;8b9e&#45;4301&#45;8d43&#45;4939ce993d3d&#45;&gt;ed8d6a3e&#45;b45a&#45;4948&#45;a421&#45;46c45d4495c7</title>
<path fill="none" stroke="black" d="M116.887,-220.485C131.213,-209.702 152.099,-193.981 168.41,-181.704"/>
<polygon fill="none" stroke="black" points="170.579,-184.452 176.464,-175.642 166.369,-178.86 170.579,-184.452"/>
<text text-anchor="middle" x="107.887" y="-209.285" font-family="Helvetica,sans-Serif" font-size="14.00">no</text>
</g>
</g>
</svg>
