<?xml version="1.0" encoding="UTF-8" standalone="no"?>
<!DOCTYPE svg PUBLIC "-//W3C//DTD SVG 1.1//EN"
 "http://www.w3.org/Graphics/SVG/1.1/DTD/svg11.dtd">
<!-- Generated by graphviz version 2.43.0 (0)
 -->
<!-- Title: %3 Pages: 1 -->
<svg width="229pt" height="332pt"
 viewBox="0.00 0.00 229.08 332.00" xmlns="http://www.w3.org/2000/svg" xmlns:xlink="http://www.w3.org/1999/xlink">
<g id="graph0" class="graph" transform="scale(1 1) rotate(0) translate(4 328)">
<title>%3</title>
<polygon fill="white" stroke="transparent" points="-4,4 -4,-328 225.08,-328 225.08,4 -4,4"/>
<!-- d3c51d30&#45;cb6e&#45;4d4b&#45;acb4&#45;1d34658f23d9 -->
<g id="node1" class="node">
<title>d3c51d30&#45;cb6e&#45;4d4b&#45;acb4&#45;1d34658f23d9</title>
<polygon fill="cornsilk" stroke="black" points="193.04,-252 28.04,-252 28.04,-216 193.04,-216 193.04,-252"/>
<text text-anchor="middle" x="110.54" y="-230.3" font-family="Helvetica,sans-Serif" font-size="14.00">Prepare Master Cards</text>
</g>
<!-- e2009aec&#45;de61&#45;4b88&#45;896b&#45;f7491c886b2c -->
<g id="node2" class="node">
<title>e2009aec&#45;de61&#45;4b88&#45;896b&#45;f7491c886b2c</title>
<polygon fill="cornsilk" stroke="black" points="213.38,-180 49.79,-180 7.71,-144 171.29,-144 213.38,-180"/>
<text text-anchor="middle" x="110.54" y="-158.3" font-family="Helvetica,sans-Serif" font-size="14.00">Master Cards</text>
</g>
<!-- d3c51d30&#45;cb6e&#45;4d4b&#45;acb4&#45;1d34658f23d9&#45;&gt;e2009aec&#45;de61&#45;4b88&#45;896b&#45;f7491c886b2c -->
<g id="edge1" class="edge">
<title>d3c51d30&#45;cb6e&#45;4d4b&#45;acb4&#45;1d34658f23d9&#45;&gt;e2009aec&#45;de61&#45;4b88&#45;896b&#45;f7491c886b2c</title>
<path fill="none" stroke="black" d="M110.54,-215.7C110.54,-207.98 110.54,-198.71 110.54,-190.11"/>
<polygon fill="none" stroke="black" points="114.04,-190.1 110.54,-180.1 107.04,-190.1 114.04,-190.1"/>
</g>
<!-- 331ae3a5&#45;873b&#45;4c96&#45;b584&#45;8f6c1875ace9 -->
<g id="node5" class="node">
<title>331ae3a5&#45;873b&#45;4c96&#45;b584&#45;8f6c1875ace9</title>
<polygon fill="cornsilk" stroke="black" points="49.96,-72 171.12,-72 214.27,-108 6.81,-108 49.96,-72"/>
<text text-anchor="middle" x="110.54" y="-86.3" font-family="Helvetica,sans-Serif" font-size="14.00">Visually Verify</text>
</g>
<!-- e2009aec&#45;de61&#45;4b88&#45;896b&#45;f7491c886b2c&#45;&gt;331ae3a5&#45;873b&#45;4c96&#45;b584&#45;8f6c1875ace9 -->
<g id="edge4" class="edge">
<title>e2009aec&#45;de61&#45;4b88&#45;896b&#45;f7491c886b2c&#45;&gt;331ae3a5&#45;873b&#45;4c96&#45;b584&#45;8f6c1875ace9</title>
<path fill="none" stroke="black" d="M110.54,-143.7C110.54,-135.98 110.54,-126.71 110.54,-118.11"/>
<polygon fill="none" stroke="black" points="114.04,-118.1 110.54,-108.1 107.04,-118.1 114.04,-118.1"/>
</g>
<!-- 4cd714f1&#45;af4d&#45;4ce5&#45;b14c&#45;363ce57f9c99 -->
<g id="node3" class="node">
<title>4cd714f1&#45;af4d&#45;4ce5&#45;b14c&#45;363ce57f9c99</title>
<polygon fill="cornsilk" stroke="black" points="221.12,-324 45.21,-324 -0.04,-288 175.87,-288 221.12,-324"/>
<text text-anchor="middle" x="110.54" y="-302.3" font-family="Helvetica,sans-Serif" font-size="14.00">Master Sheets</text>
</g>
<!-- 4cd714f1&#45;af4d&#45;4ce5&#45;b14c&#45;363ce57f9c99&#45;&gt;d3c51d30&#45;cb6e&#45;4d4b&#45;acb4&#45;1d34658f23d9 -->
<g id="edge2" class="edge">
<title>4cd714f1&#45;af4d&#45;4ce5&#45;b14c&#45;363ce57f9c99&#45;&gt;d3c51d30&#45;cb6e&#45;4d4b&#45;acb4&#45;1d34658f23d9</title>
<path fill="none" stroke="black" d="M110.54,-287.7C110.54,-279.98 110.54,-270.71 110.54,-262.11"/>
<polygon fill="none" stroke="black" points="114.04,-262.1 110.54,-252.1 107.04,-262.1 114.04,-262.1"/>
</g>
<!-- 3c927b8c&#45;d773&#45;4263&#45;bc52&#45;19dec5fc15e5 -->
<g id="node4" class="node">
<title>3c927b8c&#45;d773&#45;4263&#45;bc52&#45;19dec5fc15e5</title>
<polygon fill="cornsilk" stroke="black" points="89.69,0 131.39,0 146.24,-36 74.85,-36 89.69,0"/>
<text text-anchor="middle" x="110.54" y="-14.3" font-family="Helvetica,sans-Serif" font-size="14.00">File</text>
</g>
<!-- 331ae3a5&#45;873b&#45;4c96&#45;b584&#45;8f6c1875ace9&#45;&gt;3c927b8c&#45;d773&#45;4263&#45;bc52&#45;19dec5fc15e5 -->
<g id="edge3" class="edge">
<title>331ae3a5&#45;873b&#45;4c96&#45;b584&#45;8f6c1875ace9&#45;&gt;3c927b8c&#45;d773&#45;4263&#45;bc52&#45;19dec5fc15e5</title>
<path fill="none" stroke="black" d="M110.54,-71.7C110.54,-63.98 110.54,-54.71 110.54,-46.11"/>
<polygon fill="none" stroke="black" points="114.04,-46.1 110.54,-36.1 107.04,-46.1 114.04,-46.1"/>
</g>
</g>
</svg>
