<?xml version="1.0" encoding="UTF-8" standalone="no"?>
<!DOCTYPE svg PUBLIC "-//W3C//DTD SVG 1.1//EN"
 "http://www.w3.org/Graphics/SVG/1.1/DTD/svg11.dtd">
<!-- Generated by graphviz version 2.38.0 (20140413.2041)
 -->
<!-- Title: %3 Pages: 1 -->
<svg width="229pt" height="332pt"
 viewBox="0.00 0.00 229.08 332.00" xmlns="http://www.w3.org/2000/svg" xmlns:xlink="http://www.w3.org/1999/xlink">
<g id="graph0" class="graph" transform="scale(1 1) rotate(0) translate(4 328)">
<title>%3</title>
<polygon fill="white" stroke="none" points="-4,4 -4,-328 225.082,-328 225.082,4 -4,4"/>
<!-- a8e44b2a&#45;c4f3&#45;4863&#45;8e11&#45;19f87c007edd -->
<g id="node1" class="node"><title>a8e44b2a&#45;c4f3&#45;4863&#45;8e11&#45;19f87c007edd</title>
<polygon fill="cornsilk" stroke="black" points="221.123,-324 45.2118,-324 -0.0409614,-288 175.87,-288 221.123,-324"/>
<text text-anchor="middle" x="110.541" y="-302.3" font-family="Helvetica,sans-Serif" font-size="14.00">Master Sheets</text>
</g>
<!-- 7761d2c5&#45;2f0a&#45;423a&#45;9a94&#45;51730ab95e74 -->
<g id="node2" class="node"><title>7761d2c5&#45;2f0a&#45;423a&#45;9a94&#45;51730ab95e74</title>
<polygon fill="cornsilk" stroke="black" points="193.541,-252 27.5409,-252 27.5409,-216 193.541,-216 193.541,-252"/>
<text text-anchor="middle" x="110.541" y="-230.3" font-family="Helvetica,sans-Serif" font-size="14.00">Prepare Master Cards</text>
</g>
<!-- a8e44b2a&#45;c4f3&#45;4863&#45;8e11&#45;19f87c007edd&#45;&gt;7761d2c5&#45;2f0a&#45;423a&#45;9a94&#45;51730ab95e74 -->
<g id="edge1" class="edge"><title>a8e44b2a&#45;c4f3&#45;4863&#45;8e11&#45;19f87c007edd&#45;&gt;7761d2c5&#45;2f0a&#45;423a&#45;9a94&#45;51730ab95e74</title>
<path fill="none" stroke="black" d="M110.541,-287.697C110.541,-279.983 110.541,-270.712 110.541,-262.112"/>
<polygon fill="none" stroke="black" points="114.041,-262.104 110.541,-252.104 107.041,-262.104 114.041,-262.104"/>
</g>
<!-- b85532b3&#45;09dc&#45;474f&#45;9226&#45;dada6dabf1fc -->
<g id="node5" class="node"><title>b85532b3&#45;09dc&#45;474f&#45;9226&#45;dada6dabf1fc</title>
<polygon fill="cornsilk" stroke="black" points="212.47,-180 50.3237,-180 8.61195,-144 170.758,-144 212.47,-180"/>
<text text-anchor="middle" x="110.541" y="-158.3" font-family="Helvetica,sans-Serif" font-size="14.00">Master Cards</text>
</g>
<!-- 7761d2c5&#45;2f0a&#45;423a&#45;9a94&#45;51730ab95e74&#45;&gt;b85532b3&#45;09dc&#45;474f&#45;9226&#45;dada6dabf1fc -->
<g id="edge4" class="edge"><title>7761d2c5&#45;2f0a&#45;423a&#45;9a94&#45;51730ab95e74&#45;&gt;b85532b3&#45;09dc&#45;474f&#45;9226&#45;dada6dabf1fc</title>
<path fill="none" stroke="black" d="M110.541,-215.697C110.541,-207.983 110.541,-198.712 110.541,-190.112"/>
<polygon fill="none" stroke="black" points="114.041,-190.104 110.541,-180.104 107.041,-190.104 114.041,-190.104"/>
</g>
<!-- c770b7f9&#45;5059&#45;4948&#45;adfb&#45;5edb1389041c -->
<g id="node3" class="node"><title>c770b7f9&#45;5059&#45;4948&#45;adfb&#45;5edb1389041c</title>
<polygon fill="cornsilk" stroke="black" points="49.4713,-72 171.611,-72 215.109,-108 5.97265,-108 49.4713,-72"/>
<text text-anchor="middle" x="110.541" y="-86.3" font-family="Helvetica,sans-Serif" font-size="14.00">Visually Verify</text>
</g>
<!-- 3d53d4bf&#45;a349&#45;41d6&#45;91b4&#45;24cc72c93b1d -->
<g id="node4" class="node"><title>3d53d4bf&#45;a349&#45;41d6&#45;91b4&#45;24cc72c93b1d</title>
<polygon fill="cornsilk" stroke="black" points="89.2044,-7.10543e-15 131.877,-7.10543e-15 147.075,-36 74.0069,-36 89.2044,-7.10543e-15"/>
<text text-anchor="middle" x="110.541" y="-14.3" font-family="Helvetica,sans-Serif" font-size="14.00">File</text>
</g>
<!-- c770b7f9&#45;5059&#45;4948&#45;adfb&#45;5edb1389041c&#45;&gt;3d53d4bf&#45;a349&#45;41d6&#45;91b4&#45;24cc72c93b1d -->
<g id="edge2" class="edge"><title>c770b7f9&#45;5059&#45;4948&#45;adfb&#45;5edb1389041c&#45;&gt;3d53d4bf&#45;a349&#45;41d6&#45;91b4&#45;24cc72c93b1d</title>
<path fill="none" stroke="black" d="M110.541,-71.6966C110.541,-63.9827 110.541,-54.7125 110.541,-46.1124"/>
<polygon fill="none" stroke="black" points="114.041,-46.1043 110.541,-36.1043 107.041,-46.1044 114.041,-46.1043"/>
</g>
<!-- b85532b3&#45;09dc&#45;474f&#45;9226&#45;dada6dabf1fc&#45;&gt;c770b7f9&#45;5059&#45;4948&#45;adfb&#45;5edb1389041c -->
<g id="edge3" class="edge"><title>b85532b3&#45;09dc&#45;474f&#45;9226&#45;dada6dabf1fc&#45;&gt;c770b7f9&#45;5059&#45;4948&#45;adfb&#45;5edb1389041c</title>
<path fill="none" stroke="black" d="M110.541,-143.697C110.541,-135.983 110.541,-126.712 110.541,-118.112"/>
<polygon fill="none" stroke="black" points="114.041,-118.104 110.541,-108.104 107.041,-118.104 114.041,-118.104"/>
</g>
</g>
</svg>
