<?xml version="1.0" encoding="UTF-8" standalone="no"?>
<!DOCTYPE svg PUBLIC "-//W3C//DTD SVG 1.1//EN"
 "http://www.w3.org/Graphics/SVG/1.1/DTD/svg11.dtd">
<!-- Generated by graphviz version 2.43.0 (0)
 -->
<!-- Title: %3 Pages: 1 -->
<svg width="229pt" height="332pt"
 viewBox="0.00 0.00 229.08 332.00" xmlns="http://www.w3.org/2000/svg" xmlns:xlink="http://www.w3.org/1999/xlink">
<g id="graph0" class="graph" transform="scale(1 1) rotate(0) translate(4 328)">
<title>%3</title>
<polygon fill="white" stroke="transparent" points="-4,4 -4,-328 225.08,-328 225.08,4 -4,4"/>
<!-- 6d42816c&#45;9934&#45;4928&#45;8ce9&#45;4dc448f3279d -->
<g id="node1" class="node">
<title>6d42816c&#45;9934&#45;4928&#45;8ce9&#45;4dc448f3279d</title>
<polygon fill="cornsilk" stroke="black" points="193.04,-252 28.04,-252 28.04,-216 193.04,-216 193.04,-252"/>
<text text-anchor="middle" x="110.54" y="-230.3" font-family="Helvetica,sans-Serif" font-size="14.00">Prepare Master Cards</text>
</g>
<!-- d53ae365&#45;9ae7&#45;478e&#45;8cf9&#45;5cdf3df43bc9 -->
<g id="node2" class="node">
<title>d53ae365&#45;9ae7&#45;478e&#45;8cf9&#45;5cdf3df43bc9</title>
<polygon fill="cornsilk" stroke="black" points="213.38,-180 49.79,-180 7.71,-144 171.29,-144 213.38,-180"/>
<text text-anchor="middle" x="110.54" y="-158.3" font-family="Helvetica,sans-Serif" font-size="14.00">Master Cards</text>
</g>
<!-- 6d42816c&#45;9934&#45;4928&#45;8ce9&#45;4dc448f3279d&#45;&gt;d53ae365&#45;9ae7&#45;478e&#45;8cf9&#45;5cdf3df43bc9 -->
<g id="edge1" class="edge">
<title>6d42816c&#45;9934&#45;4928&#45;8ce9&#45;4dc448f3279d&#45;&gt;d53ae365&#45;9ae7&#45;478e&#45;8cf9&#45;5cdf3df43bc9</title>
<path fill="none" stroke="black" d="M110.54,-215.7C110.54,-207.98 110.54,-198.71 110.54,-190.11"/>
<polygon fill="none" stroke="black" points="114.04,-190.1 110.54,-180.1 107.04,-190.1 114.04,-190.1"/>
</g>
<!-- eab384fc&#45;76ab&#45;4bcc&#45;8e4c&#45;1abf6c9d3991 -->
<g id="node5" class="node">
<title>eab384fc&#45;76ab&#45;4bcc&#45;8e4c&#45;1abf6c9d3991</title>
<polygon fill="cornsilk" stroke="black" points="49.96,-72 171.12,-72 214.27,-108 6.81,-108 49.96,-72"/>
<text text-anchor="middle" x="110.54" y="-86.3" font-family="Helvetica,sans-Serif" font-size="14.00">Visually Verify</text>
</g>
<!-- d53ae365&#45;9ae7&#45;478e&#45;8cf9&#45;5cdf3df43bc9&#45;&gt;eab384fc&#45;76ab&#45;4bcc&#45;8e4c&#45;1abf6c9d3991 -->
<g id="edge4" class="edge">
<title>d53ae365&#45;9ae7&#45;478e&#45;8cf9&#45;5cdf3df43bc9&#45;&gt;eab384fc&#45;76ab&#45;4bcc&#45;8e4c&#45;1abf6c9d3991</title>
<path fill="none" stroke="black" d="M110.54,-143.7C110.54,-135.98 110.54,-126.71 110.54,-118.11"/>
<polygon fill="none" stroke="black" points="114.04,-118.1 110.54,-108.1 107.04,-118.1 114.04,-118.1"/>
</g>
<!-- 5785d892&#45;c6f9&#45;426b&#45;9718&#45;14dc585d3891 -->
<g id="node3" class="node">
<title>5785d892&#45;c6f9&#45;426b&#45;9718&#45;14dc585d3891</title>
<polygon fill="cornsilk" stroke="black" points="221.12,-324 45.21,-324 -0.04,-288 175.87,-288 221.12,-324"/>
<text text-anchor="middle" x="110.54" y="-302.3" font-family="Helvetica,sans-Serif" font-size="14.00">Master Sheets</text>
</g>
<!-- 5785d892&#45;c6f9&#45;426b&#45;9718&#45;14dc585d3891&#45;&gt;6d42816c&#45;9934&#45;4928&#45;8ce9&#45;4dc448f3279d -->
<g id="edge2" class="edge">
<title>5785d892&#45;c6f9&#45;426b&#45;9718&#45;14dc585d3891&#45;&gt;6d42816c&#45;9934&#45;4928&#45;8ce9&#45;4dc448f3279d</title>
<path fill="none" stroke="black" d="M110.54,-287.7C110.54,-279.98 110.54,-270.71 110.54,-262.11"/>
<polygon fill="none" stroke="black" points="114.04,-262.1 110.54,-252.1 107.04,-262.1 114.04,-262.1"/>
</g>
<!-- d2b8efc2&#45;b218&#45;4b90&#45;b6be&#45;d11ed69b9d24 -->
<g id="node4" class="node">
<title>d2b8efc2&#45;b218&#45;4b90&#45;b6be&#45;d11ed69b9d24</title>
<polygon fill="cornsilk" stroke="black" points="89.69,0 131.39,0 146.24,-36 74.85,-36 89.69,0"/>
<text text-anchor="middle" x="110.54" y="-14.3" font-family="Helvetica,sans-Serif" font-size="14.00">File</text>
</g>
<!-- eab384fc&#45;76ab&#45;4bcc&#45;8e4c&#45;1abf6c9d3991&#45;&gt;d2b8efc2&#45;b218&#45;4b90&#45;b6be&#45;d11ed69b9d24 -->
<g id="edge3" class="edge">
<title>eab384fc&#45;76ab&#45;4bcc&#45;8e4c&#45;1abf6c9d3991&#45;&gt;d2b8efc2&#45;b218&#45;4b90&#45;b6be&#45;d11ed69b9d24</title>
<path fill="none" stroke="black" d="M110.54,-71.7C110.54,-63.98 110.54,-54.71 110.54,-46.11"/>
<polygon fill="none" stroke="black" points="114.04,-46.1 110.54,-36.1 107.04,-46.1 114.04,-46.1"/>
</g>
</g>
</svg>
