<?xml version="1.0" encoding="UTF-8" standalone="no"?>
<!DOCTYPE svg PUBLIC "-//W3C//DTD SVG 1.1//EN"
 "http://www.w3.org/Graphics/SVG/1.1/DTD/svg11.dtd">
<!-- Generated by graphviz version 2.43.0 (0)
 -->
<!-- Title: %3 Pages: 1 -->
<svg width="325pt" height="332pt"
 viewBox="0.00 0.00 325.36 332.00" xmlns="http://www.w3.org/2000/svg" xmlns:xlink="http://www.w3.org/1999/xlink">
<g id="graph0" class="graph" transform="scale(1 1) rotate(0) translate(4 328)">
<title>%3</title>
<polygon fill="white" stroke="transparent" points="-4,4 -4,-328 321.36,-328 321.36,4 -4,4"/>
<!-- 642317dc&#45;dd3b&#45;4d70&#45;a44a&#45;fd899f4d84f7 -->
<g id="node1" class="node">
<title>642317dc&#45;dd3b&#45;4d70&#45;a44a&#45;fd899f4d84f7</title>
<polygon fill="cornsilk" stroke="black" points="151,-324 21,-324 21,-288 151,-288 151,-324"/>
<text text-anchor="middle" x="86" y="-302.3" font-family="Helvetica,sans-Serif" font-size="14.00">backslash \ here</text>
</g>
<!-- 01ad6ec0&#45;1aa9&#45;424f&#45;8696&#45;3609c258585f -->
<g id="node2" class="node">
<title>01ad6ec0&#45;1aa9&#45;424f&#45;8696&#45;3609c258585f</title>
<polygon fill="cornsilk" stroke="black" points="143,-252 69.43,-234 143,-216 216.57,-234 143,-252"/>
<text text-anchor="middle" x="143" y="-230.3" font-family="Helvetica,sans-Serif" font-size="14.00">B == 0 ?</text>
</g>
<!-- 642317dc&#45;dd3b&#45;4d70&#45;a44a&#45;fd899f4d84f7&#45;&gt;01ad6ec0&#45;1aa9&#45;424f&#45;8696&#45;3609c258585f -->
<g id="edge1" class="edge">
<title>642317dc&#45;dd3b&#45;4d70&#45;a44a&#45;fd899f4d84f7&#45;&gt;01ad6ec0&#45;1aa9&#45;424f&#45;8696&#45;3609c258585f</title>
<path fill="none" stroke="black" d="M100.09,-287.7C107.61,-278.46 116.95,-266.99 124.99,-257.12"/>
<polygon fill="none" stroke="black" points="127.77,-259.24 131.37,-249.28 122.34,-254.82 127.77,-259.24"/>
</g>
<!-- 44798520&#45;cbf3&#45;4f31&#45;ab11&#45;fb0ccf40bf3c -->
<g id="node3" class="node">
<title>44798520&#45;cbf3&#45;4f31&#45;ab11&#45;fb0ccf40bf3c</title>
<ellipse fill="cornsilk" stroke="black" cx="27" cy="-162" rx="27" ry="18"/>
</g>
<!-- 01ad6ec0&#45;1aa9&#45;424f&#45;8696&#45;3609c258585f&#45;&gt;44798520&#45;cbf3&#45;4f31&#45;ab11&#45;fb0ccf40bf3c -->
<g id="edge2" class="edge">
<title>01ad6ec0&#45;1aa9&#45;424f&#45;8696&#45;3609c258585f&#45;&gt;44798520&#45;cbf3&#45;4f31&#45;ab11&#45;fb0ccf40bf3c</title>
<path fill="none" stroke="black" d="M122.79,-220.81C104.13,-209.55 76.23,-192.71 55.35,-180.11"/>
<polygon fill="none" stroke="black" points="56.96,-176.99 46.59,-174.82 53.34,-182.98 56.96,-176.99"/>
</g>
<!-- d02606fa&#45;fa24&#45;4287&#45;b472&#45;5d21c0b16533 -->
<g id="node4" class="node">
<title>d02606fa&#45;fa24&#45;4287&#45;b472&#45;5d21c0b16533</title>
<polygon fill="cornsilk" stroke="black" points="82,-108 18.66,-90 82,-72 145.34,-90 82,-108"/>
<text text-anchor="middle" x="82" y="-86.3" font-family="Helvetica,sans-Serif" font-size="14.00">A &gt; B ?</text>
</g>
<!-- 01ad6ec0&#45;1aa9&#45;424f&#45;8696&#45;3609c258585f&#45;&gt;d02606fa&#45;fa24&#45;4287&#45;b472&#45;5d21c0b16533 -->
<g id="edge3" class="edge">
<title>01ad6ec0&#45;1aa9&#45;424f&#45;8696&#45;3609c258585f&#45;&gt;d02606fa&#45;fa24&#45;4287&#45;b472&#45;5d21c0b16533</title>
<path fill="none" stroke="black" d="M128.86,-218.94C119.57,-208.91 107.9,-194.66 101,-180 91.71,-160.29 86.92,-135.98 84.47,-117.75"/>
<polygon fill="none" stroke="black" points="87.94,-117.32 83.28,-107.8 80.99,-118.15 87.94,-117.32"/>
<text text-anchor="middle" x="119.86" y="-207.74" font-family="Helvetica,sans-Serif" font-size="14.00">no</text>
</g>
<!-- c6fb8cc8&#45;6439&#45;43a5&#45;9561&#45;fd438032faaf -->
<g id="node5" class="node">
<title>c6fb8cc8&#45;6439&#45;43a5&#45;9561&#45;fd438032faaf</title>
<polygon fill="cornsilk" stroke="black" points="298.04,-154.54 298.04,-169.46 242.95,-180 165.05,-180 109.96,-169.46 109.96,-154.54 165.05,-144 242.95,-144 298.04,-154.54"/>
<text text-anchor="middle" x="204" y="-158.3" font-family="Helvetica,sans-Serif" font-size="14.00">show A @ stdout</text>
</g>
<!-- 01ad6ec0&#45;1aa9&#45;424f&#45;8696&#45;3609c258585f&#45;&gt;c6fb8cc8&#45;6439&#45;43a5&#45;9561&#45;fd438032faaf -->
<g id="edge4" class="edge">
<title>01ad6ec0&#45;1aa9&#45;424f&#45;8696&#45;3609c258585f&#45;&gt;c6fb8cc8&#45;6439&#45;43a5&#45;9561&#45;fd438032faaf</title>
<path fill="none" stroke="black" d="M155.34,-218.83C163.11,-209.92 173.35,-198.17 182.43,-187.75"/>
<polygon fill="none" stroke="black" points="185.16,-189.95 189.09,-180.11 179.88,-185.35 185.16,-189.95"/>
<text text-anchor="middle" x="170.84" y="-207.63" font-family="Helvetica,sans-Serif" font-size="14.00">_yes</text>
</g>
<!-- 44798520&#45;cbf3&#45;4f31&#45;ab11&#45;fb0ccf40bf3c&#45;&gt;d02606fa&#45;fa24&#45;4287&#45;b472&#45;5d21c0b16533 -->
<g id="edge8" class="edge">
<title>44798520&#45;cbf3&#45;4f31&#45;ab11&#45;fb0ccf40bf3c&#45;&gt;d02606fa&#45;fa24&#45;4287&#45;b472&#45;5d21c0b16533</title>
<path fill="none" stroke="black" d="M38.93,-145.81C46.41,-136.29 56.18,-123.86 64.52,-113.24"/>
<polygon fill="none" stroke="black" points="67.41,-115.23 70.84,-105.21 61.91,-110.91 67.41,-115.23"/>
</g>
<!-- 957d9fdf&#45;d0a6&#45;402f&#45;b142&#45;fe64b909c329 -->
<g id="node7" class="node">
<title>957d9fdf&#45;d0a6&#45;402f&#45;b142&#45;fe64b909c329</title>
<polygon fill="cornsilk" stroke="black" points="244.5,-36 163.5,-36 163.5,0 244.5,0 244.5,-36"/>
<text text-anchor="middle" x="204" y="-14.3" font-family="Helvetica,sans-Serif" font-size="14.00">A = A &#45; B</text>
</g>
<!-- d02606fa&#45;fa24&#45;4287&#45;b472&#45;5d21c0b16533&#45;&gt;957d9fdf&#45;d0a6&#45;402f&#45;b142&#45;fe64b909c329 -->
<g id="edge9" class="edge">
<title>d02606fa&#45;fa24&#45;4287&#45;b472&#45;5d21c0b16533&#45;&gt;957d9fdf&#45;d0a6&#45;402f&#45;b142&#45;fe64b909c329</title>
<path fill="none" stroke="black" d="M101.87,-77.6C119.01,-67.77 144.24,-53.29 165.34,-41.18"/>
<polygon fill="none" stroke="black" points="167.16,-44.17 174.09,-36.16 163.68,-38.1 167.16,-44.17"/>
<text text-anchor="middle" x="92.87" y="-66.4" font-family="Helvetica,sans-Serif" font-size="14.00">no</text>
</g>
<!-- 84b5a62b&#45;faae&#45;42bc&#45;a892&#45;ecd6c86e669a -->
<g id="node6" class="node">
<title>84b5a62b&#45;faae&#45;42bc&#45;a892&#45;ecd6c86e669a</title>
<ellipse fill="cornsilk" stroke="black" cx="204" cy="-90" rx="27.9" ry="18"/>
<text text-anchor="middle" x="204" y="-86.3" font-family="Helvetica,sans-Serif" font-size="14.00">end</text>
</g>
<!-- c6fb8cc8&#45;6439&#45;43a5&#45;9561&#45;fd438032faaf&#45;&gt;84b5a62b&#45;faae&#45;42bc&#45;a892&#45;ecd6c86e669a -->
<g id="edge5" class="edge">
<title>c6fb8cc8&#45;6439&#45;43a5&#45;9561&#45;fd438032faaf&#45;&gt;84b5a62b&#45;faae&#45;42bc&#45;a892&#45;ecd6c86e669a</title>
<path fill="none" stroke="black" d="M204,-143.7C204,-135.98 204,-126.71 204,-118.11"/>
<polygon fill="none" stroke="black" points="207.5,-118.1 204,-108.1 200.5,-118.1 207.5,-118.1"/>
</g>
<!-- 957d9fdf&#45;d0a6&#45;402f&#45;b142&#45;fe64b909c329&#45;&gt;01ad6ec0&#45;1aa9&#45;424f&#45;8696&#45;3609c258585f -->
<g id="edge6" class="edge">
<title>957d9fdf&#45;d0a6&#45;402f&#45;b142&#45;fe64b909c329&#45;&gt;01ad6ec0&#45;1aa9&#45;424f&#45;8696&#45;3609c258585f</title>
<path fill="none" stroke="black" d="M229.38,-36.13C270.56,-66.04 343.8,-129.43 307,-180 285.45,-209.62 247.01,-223.03 212.76,-228.96"/>
<polygon fill="none" stroke="black" points="212.1,-225.52 202.76,-230.51 213.17,-232.44 212.1,-225.52"/>
</g>
<!-- 66317d62&#45;b306&#45;4ea2&#45;a49e&#45;444ececd3e0b -->
<g id="node8" class="node">
<title>66317d62&#45;b306&#45;4ea2&#45;a49e&#45;444ececd3e0b</title>
<ellipse fill="cornsilk" stroke="black" cx="201" cy="-306" rx="31.7" ry="18"/>
<text text-anchor="middle" x="201" y="-302.3" font-family="Helvetica,sans-Serif" font-size="14.00">start</text>
</g>
<!-- 66317d62&#45;b306&#45;4ea2&#45;a49e&#45;444ececd3e0b&#45;&gt;01ad6ec0&#45;1aa9&#45;424f&#45;8696&#45;3609c258585f -->
<g id="edge7" class="edge">
<title>66317d62&#45;b306&#45;4ea2&#45;a49e&#45;444ececd3e0b&#45;&gt;01ad6ec0&#45;1aa9&#45;424f&#45;8696&#45;3609c258585f</title>
<path fill="none" stroke="black" d="M188.13,-289.46C180.33,-280.06 170.26,-267.9 161.61,-257.46"/>
<polygon fill="none" stroke="black" points="164.12,-255 155.04,-249.54 158.73,-259.47 164.12,-255"/>
</g>
</g>
</svg>
