<?xml version="1.0" encoding="UTF-8" standalone="no"?>
<!DOCTYPE svg PUBLIC "-//W3C//DTD SVG 1.1//EN"
 "http://www.w3.org/Graphics/SVG/1.1/DTD/svg11.dtd">
<!-- Generated by graphviz version 2.38.0 (20140413.2041)
 -->
<!-- Title: %3 Pages: 1 -->
<svg width="342pt" height="332pt"
 viewBox="0.00 0.00 342.47 332.00" xmlns="http://www.w3.org/2000/svg" xmlns:xlink="http://www.w3.org/1999/xlink">
<g id="graph0" class="graph" transform="scale(1 1) rotate(0) translate(4 328)">
<title>%3</title>
<polygon fill="white" stroke="none" points="-4,4 -4,-328 338.469,-328 338.469,4 -4,4"/>
<!-- 8af686fc&#45;a487&#45;437e&#45;ac26&#45;176413928177 -->
<g id="node1" class="node"><title>8af686fc&#45;a487&#45;437e&#45;ac26&#45;176413928177</title>
<polygon fill="cornsilk" stroke="black" points="244.971,-252 171.406,-234 244.971,-216 318.537,-234 244.971,-252"/>
<text text-anchor="middle" x="244.971" y="-230.3" font-family="Helvetica,sans-Serif" font-size="14.00">B == 0 ?</text>
</g>
<!-- 98b5dd1e&#45;5683&#45;421f&#45;bb0f&#45;687c5b7dd993 -->
<g id="node2" class="node"><title>98b5dd1e&#45;5683&#45;421f&#45;bb0f&#45;687c5b7dd993</title>
<polygon fill="cornsilk" stroke="black" points="189.914,-154.544 189.914,-169.456 134.298,-180 55.6448,-180 0.0285027,-169.456 0.0285027,-154.544 55.6448,-144 134.298,-144 189.914,-154.544"/>
<text text-anchor="middle" x="94.9715" y="-158.3" font-family="Helvetica,sans-Serif" font-size="14.00">show A @ stdout</text>
</g>
<!-- 8af686fc&#45;a487&#45;437e&#45;ac26&#45;176413928177&#45;&gt;98b5dd1e&#45;5683&#45;421f&#45;bb0f&#45;687c5b7dd993 -->
<g id="edge1" class="edge"><title>8af686fc&#45;a487&#45;437e&#45;ac26&#45;176413928177&#45;&gt;98b5dd1e&#45;5683&#45;421f&#45;bb0f&#45;687c5b7dd993</title>
<path fill="none" stroke="black" d="M220.871,-221.753C199.314,-211.693 167.133,-196.675 140.704,-184.342"/>
<polygon fill="none" stroke="black" points="142.164,-181.161 131.622,-180.104 139.204,-187.504 142.164,-181.161"/>
<text text-anchor="middle" x="205.371" y="-210.553" font-family="Helvetica,sans-Serif" font-size="14.00">_yes</text>
</g>
<!-- c58fec0e&#45;52f4&#45;4b11&#45;ac4e&#45;bb70c1dee99a -->
<g id="node3" class="node"><title>c58fec0e&#45;52f4&#45;4b11&#45;ac4e&#45;bb70c1dee99a</title>
<polygon fill="cornsilk" stroke="black" points="236.971,-108 173.628,-90 236.971,-72 300.315,-90 236.971,-108"/>
<text text-anchor="middle" x="236.971" y="-86.3" font-family="Helvetica,sans-Serif" font-size="14.00">A &gt; B ?</text>
</g>
<!-- 8af686fc&#45;a487&#45;437e&#45;ac26&#45;176413928177&#45;&gt;c58fec0e&#45;52f4&#45;4b11&#45;ac4e&#45;bb70c1dee99a -->
<g id="edge2" class="edge"><title>8af686fc&#45;a487&#45;437e&#45;ac26&#45;176413928177&#45;&gt;c58fec0e&#45;52f4&#45;4b11&#45;ac4e&#45;bb70c1dee99a</title>
<path fill="none" stroke="black" d="M241.806,-216.363C239.989,-205.957 237.891,-192.249 236.971,-180 235.42,-159.329 235.495,-135.882 235.917,-118.244"/>
<polygon fill="none" stroke="black" points="239.42,-118.188 236.214,-108.09 232.423,-117.984 239.42,-118.188"/>
<text text-anchor="middle" x="232.806" y="-205.163" font-family="Helvetica,sans-Serif" font-size="14.00">no</text>
</g>
<!-- 274d65ab&#45;8fa2&#45;4296&#45;a1fb&#45;f2bdc0a736f3 -->
<g id="node4" class="node"><title>274d65ab&#45;8fa2&#45;4296&#45;a1fb&#45;f2bdc0a736f3</title>
<ellipse fill="cornsilk" stroke="black" cx="272.971" cy="-162" rx="27" ry="18"/>
</g>
<!-- 8af686fc&#45;a487&#45;437e&#45;ac26&#45;176413928177&#45;&gt;274d65ab&#45;8fa2&#45;4296&#45;a1fb&#45;f2bdc0a736f3 -->
<g id="edge3" class="edge"><title>8af686fc&#45;a487&#45;437e&#45;ac26&#45;176413928177&#45;&gt;274d65ab&#45;8fa2&#45;4296&#45;a1fb&#45;f2bdc0a736f3</title>
<path fill="none" stroke="black" d="M251.186,-217.465C254.534,-209.094 258.753,-198.546 262.585,-188.967"/>
<polygon fill="none" stroke="black" points="265.92,-190.052 266.385,-179.467 259.421,-187.452 265.92,-190.052"/>
</g>
<!-- 728b00fe&#45;ede7&#45;4a44&#45;ab57&#45;39845e6997a3 -->
<g id="node6" class="node"><title>728b00fe&#45;ede7&#45;4a44&#45;ab57&#45;39845e6997a3</title>
<ellipse fill="cornsilk" stroke="black" cx="94.9715" cy="-90" rx="27.0966" ry="18"/>
<text text-anchor="middle" x="94.9715" y="-86.3" font-family="Helvetica,sans-Serif" font-size="14.00">end</text>
</g>
<!-- 98b5dd1e&#45;5683&#45;421f&#45;bb0f&#45;687c5b7dd993&#45;&gt;728b00fe&#45;ede7&#45;4a44&#45;ab57&#45;39845e6997a3 -->
<g id="edge7" class="edge"><title>98b5dd1e&#45;5683&#45;421f&#45;bb0f&#45;687c5b7dd993&#45;&gt;728b00fe&#45;ede7&#45;4a44&#45;ab57&#45;39845e6997a3</title>
<path fill="none" stroke="black" d="M94.9715,-143.697C94.9715,-135.983 94.9715,-126.712 94.9715,-118.112"/>
<polygon fill="none" stroke="black" points="98.4716,-118.104 94.9715,-108.104 91.4716,-118.104 98.4716,-118.104"/>
</g>
<!-- aea0a2b7&#45;6040&#45;40d9&#45;b8ef&#45;3341e3ac14df -->
<g id="node8" class="node"><title>aea0a2b7&#45;6040&#45;40d9&#45;b8ef&#45;3341e3ac14df</title>
<polygon fill="cornsilk" stroke="black" points="322.471,-36 241.471,-36 241.471,-0 322.471,-0 322.471,-36"/>
<text text-anchor="middle" x="281.971" y="-14.3" font-family="Helvetica,sans-Serif" font-size="14.00">A = A &#45; B</text>
</g>
<!-- c58fec0e&#45;52f4&#45;4b11&#45;ac4e&#45;bb70c1dee99a&#45;&gt;aea0a2b7&#45;6040&#45;40d9&#45;b8ef&#45;3341e3ac14df -->
<g id="edge6" class="edge"><title>c58fec0e&#45;52f4&#45;4b11&#45;ac4e&#45;bb70c1dee99a&#45;&gt;aea0a2b7&#45;6040&#45;40d9&#45;b8ef&#45;3341e3ac14df</title>
<path fill="none" stroke="black" d="M246.296,-74.496C251.831,-65.8855 259.009,-54.7197 265.474,-44.6634"/>
<polygon fill="none" stroke="black" points="268.448,-46.5082 270.912,-36.2038 262.56,-42.7229 268.448,-46.5082"/>
<text text-anchor="middle" x="237.296" y="-63.296" font-family="Helvetica,sans-Serif" font-size="14.00">no</text>
</g>
<!-- 274d65ab&#45;8fa2&#45;4296&#45;a1fb&#45;f2bdc0a736f3&#45;&gt;c58fec0e&#45;52f4&#45;4b11&#45;ac4e&#45;bb70c1dee99a -->
<g id="edge9" class="edge"><title>274d65ab&#45;8fa2&#45;4296&#45;a1fb&#45;f2bdc0a736f3&#45;&gt;c58fec0e&#45;52f4&#45;4b11&#45;ac4e&#45;bb70c1dee99a</title>
<path fill="none" stroke="black" d="M264.622,-144.765C260.135,-136.041 254.513,-125.109 249.512,-115.384"/>
<polygon fill="none" stroke="black" points="252.469,-113.481 244.783,-106.189 246.244,-116.683 252.469,-113.481"/>
</g>
<!-- a19c2ad8&#45;16df&#45;4b63&#45;9c42&#45;0a01c8d57b3f -->
<g id="node5" class="node"><title>a19c2ad8&#45;16df&#45;4b63&#45;9c42&#45;0a01c8d57b3f</title>
<polygon fill="cornsilk" stroke="black" points="251.971,-324 123.971,-324 123.971,-288 251.971,-288 251.971,-324"/>
<text text-anchor="middle" x="187.971" y="-302.3" font-family="Helvetica,sans-Serif" font-size="14.00">backslash \ here</text>
</g>
<!-- a19c2ad8&#45;16df&#45;4b63&#45;9c42&#45;0a01c8d57b3f&#45;&gt;8af686fc&#45;a487&#45;437e&#45;ac26&#45;176413928177 -->
<g id="edge4" class="edge"><title>a19c2ad8&#45;16df&#45;4b63&#45;9c42&#45;0a01c8d57b3f&#45;&gt;8af686fc&#45;a487&#45;437e&#45;ac26&#45;176413928177</title>
<path fill="none" stroke="black" d="M202.061,-287.697C209.582,-278.461 218.92,-266.994 226.962,-257.117"/>
<polygon fill="none" stroke="black" points="229.744,-259.243 233.344,-249.279 224.316,-254.823 229.744,-259.243"/>
</g>
<!-- aa0aed15&#45;d0b4&#45;4cb8&#45;a22a&#45;f37d0ff3afef -->
<g id="node7" class="node"><title>aa0aed15&#45;d0b4&#45;4cb8&#45;a22a&#45;f37d0ff3afef</title>
<ellipse fill="cornsilk" stroke="black" cx="301.971" cy="-306" rx="32.4942" ry="18"/>
<text text-anchor="middle" x="301.971" y="-302.3" font-family="Helvetica,sans-Serif" font-size="14.00">start</text>
</g>
<!-- aa0aed15&#45;d0b4&#45;4cb8&#45;a22a&#45;f37d0ff3afef&#45;&gt;8af686fc&#45;a487&#45;437e&#45;ac26&#45;176413928177 -->
<g id="edge5" class="edge"><title>aa0aed15&#45;d0b4&#45;4cb8&#45;a22a&#45;f37d0ff3afef&#45;&gt;8af686fc&#45;a487&#45;437e&#45;ac26&#45;176413928177</title>
<path fill="none" stroke="black" d="M289.037,-289.116C281.366,-279.695 271.523,-267.607 263.087,-257.247"/>
<polygon fill="none" stroke="black" points="265.72,-254.937 256.691,-249.393 260.292,-259.357 265.72,-254.937"/>
</g>
<!-- aea0a2b7&#45;6040&#45;40d9&#45;b8ef&#45;3341e3ac14df&#45;&gt;8af686fc&#45;a487&#45;437e&#45;ac26&#45;176413928177 -->
<g id="edge8" class="edge"><title>aea0a2b7&#45;6040&#45;40d9&#45;b8ef&#45;3341e3ac14df&#45;&gt;8af686fc&#45;a487&#45;437e&#45;ac26&#45;176413928177</title>
<path fill="none" stroke="black" d="M293.438,-36.3331C299.346,-46.311 305.934,-59.3479 308.971,-72 320.175,-118.674 329.398,-136.563 308.971,-180 302.038,-194.744 288.766,-206.794 276.098,-215.658"/>
<polygon fill="none" stroke="black" points="273.96,-212.874 267.509,-221.279 277.793,-218.731 273.96,-212.874"/>
</g>
</g>
</svg>
