<?xml version="1.0" encoding="UTF-8" standalone="no"?>
<!DOCTYPE svg PUBLIC "-//W3C//DTD SVG 1.1//EN"
 "http://www.w3.org/Graphics/SVG/1.1/DTD/svg11.dtd">
<!-- Generated by graphviz version 2.38.0 (20140413.2041)
 -->
<!-- Title: %3 Pages: 1 -->
<svg width="341pt" height="332pt"
 viewBox="0.00 0.00 341.47 332.00" xmlns="http://www.w3.org/2000/svg" xmlns:xlink="http://www.w3.org/1999/xlink">
<g id="graph0" class="graph" transform="scale(1 1) rotate(0) translate(4 328)">
<title>%3</title>
<polygon fill="white" stroke="none" points="-4,4 -4,-328 337.469,-328 337.469,4 -4,4"/>
<!-- 4945213d&#45;9329&#45;4319&#45;afdb&#45;daccc416a828 -->
<g id="node1" class="node"><title>4945213d&#45;9329&#45;4319&#45;afdb&#45;daccc416a828</title>
<polygon fill="cornsilk" stroke="black" points="244.971,-252 171.406,-234 244.971,-216 318.537,-234 244.971,-252"/>
<text text-anchor="middle" x="244.971" y="-230.3" font-family="Helvetica,sans-Serif" font-size="14.00">B == 0 ?</text>
</g>
<!-- a000dc82&#45;52c2&#45;4f92&#45;b396&#45;d20ca4b5a704 -->
<g id="node2" class="node"><title>a000dc82&#45;52c2&#45;4f92&#45;b396&#45;d20ca4b5a704</title>
<polygon fill="cornsilk" stroke="black" points="189.914,-154.544 189.914,-169.456 134.298,-180 55.6448,-180 0.0285027,-169.456 0.0285027,-154.544 55.6448,-144 134.298,-144 189.914,-154.544"/>
<text text-anchor="middle" x="94.9715" y="-158.3" font-family="Helvetica,sans-Serif" font-size="14.00">show A @ stdout</text>
</g>
<!-- 4945213d&#45;9329&#45;4319&#45;afdb&#45;daccc416a828&#45;&gt;a000dc82&#45;52c2&#45;4f92&#45;b396&#45;d20ca4b5a704 -->
<g id="edge1" class="edge"><title>4945213d&#45;9329&#45;4319&#45;afdb&#45;daccc416a828&#45;&gt;a000dc82&#45;52c2&#45;4f92&#45;b396&#45;d20ca4b5a704</title>
<path fill="none" stroke="black" d="M220.871,-221.753C199.314,-211.693 167.133,-196.675 140.704,-184.342"/>
<polygon fill="none" stroke="black" points="142.164,-181.161 131.622,-180.104 139.204,-187.504 142.164,-181.161"/>
<text text-anchor="middle" x="205.371" y="-210.553" font-family="Helvetica,sans-Serif" font-size="14.00">_yes</text>
</g>
<!-- b1f8107e&#45;2e39&#45;4a3d&#45;b3ed&#45;070a6a932a26 -->
<g id="node3" class="node"><title>b1f8107e&#45;2e39&#45;4a3d&#45;b3ed&#45;070a6a932a26</title>
<polygon fill="cornsilk" stroke="black" points="236.971,-108 173.628,-90 236.971,-72 300.315,-90 236.971,-108"/>
<text text-anchor="middle" x="236.971" y="-86.3" font-family="Helvetica,sans-Serif" font-size="14.00">A &gt; B ?</text>
</g>
<!-- 4945213d&#45;9329&#45;4319&#45;afdb&#45;daccc416a828&#45;&gt;b1f8107e&#45;2e39&#45;4a3d&#45;b3ed&#45;070a6a932a26 -->
<g id="edge2" class="edge"><title>4945213d&#45;9329&#45;4319&#45;afdb&#45;daccc416a828&#45;&gt;b1f8107e&#45;2e39&#45;4a3d&#45;b3ed&#45;070a6a932a26</title>
<path fill="none" stroke="black" d="M241.806,-216.363C239.989,-205.957 237.891,-192.249 236.971,-180 235.42,-159.329 235.495,-135.882 235.917,-118.244"/>
<polygon fill="none" stroke="black" points="239.42,-118.188 236.214,-108.09 232.423,-117.984 239.42,-118.188"/>
<text text-anchor="middle" x="232.806" y="-205.163" font-family="Helvetica,sans-Serif" font-size="14.00">no</text>
</g>
<!-- 0d77c13a&#45;d231&#45;4268&#45;9051&#45;5069ce866001 -->
<g id="node4" class="node"><title>0d77c13a&#45;d231&#45;4268&#45;9051&#45;5069ce866001</title>
<ellipse fill="cornsilk" stroke="black" cx="272.971" cy="-162" rx="27" ry="18"/>
</g>
<!-- 4945213d&#45;9329&#45;4319&#45;afdb&#45;daccc416a828&#45;&gt;0d77c13a&#45;d231&#45;4268&#45;9051&#45;5069ce866001 -->
<g id="edge3" class="edge"><title>4945213d&#45;9329&#45;4319&#45;afdb&#45;daccc416a828&#45;&gt;0d77c13a&#45;d231&#45;4268&#45;9051&#45;5069ce866001</title>
<path fill="none" stroke="black" d="M251.186,-217.465C254.534,-209.094 258.753,-198.546 262.585,-188.967"/>
<polygon fill="none" stroke="black" points="265.92,-190.052 266.385,-179.467 259.421,-187.452 265.92,-190.052"/>
</g>
<!-- 1541091b&#45;6a03&#45;4201&#45;b68a&#45;bd6a74b06d34 -->
<g id="node6" class="node"><title>1541091b&#45;6a03&#45;4201&#45;b68a&#45;bd6a74b06d34</title>
<ellipse fill="cornsilk" stroke="black" cx="94.9715" cy="-90" rx="27.0966" ry="18"/>
<text text-anchor="middle" x="94.9715" y="-86.3" font-family="Helvetica,sans-Serif" font-size="14.00">end</text>
</g>
<!-- a000dc82&#45;52c2&#45;4f92&#45;b396&#45;d20ca4b5a704&#45;&gt;1541091b&#45;6a03&#45;4201&#45;b68a&#45;bd6a74b06d34 -->
<g id="edge7" class="edge"><title>a000dc82&#45;52c2&#45;4f92&#45;b396&#45;d20ca4b5a704&#45;&gt;1541091b&#45;6a03&#45;4201&#45;b68a&#45;bd6a74b06d34</title>
<path fill="none" stroke="black" d="M94.9715,-143.697C94.9715,-135.983 94.9715,-126.712 94.9715,-118.112"/>
<polygon fill="none" stroke="black" points="98.4716,-118.104 94.9715,-108.104 91.4716,-118.104 98.4716,-118.104"/>
</g>
<!-- 399f1afc&#45;e480&#45;4167&#45;9671&#45;bdf1c73926c2 -->
<g id="node8" class="node"><title>399f1afc&#45;e480&#45;4167&#45;9671&#45;bdf1c73926c2</title>
<polygon fill="cornsilk" stroke="black" points="322.471,-36 241.471,-36 241.471,-0 322.471,-0 322.471,-36"/>
<text text-anchor="middle" x="281.971" y="-14.3" font-family="Helvetica,sans-Serif" font-size="14.00">A = A &#45; B</text>
</g>
<!-- b1f8107e&#45;2e39&#45;4a3d&#45;b3ed&#45;070a6a932a26&#45;&gt;399f1afc&#45;e480&#45;4167&#45;9671&#45;bdf1c73926c2 -->
<g id="edge6" class="edge"><title>b1f8107e&#45;2e39&#45;4a3d&#45;b3ed&#45;070a6a932a26&#45;&gt;399f1afc&#45;e480&#45;4167&#45;9671&#45;bdf1c73926c2</title>
<path fill="none" stroke="black" d="M246.296,-74.496C251.831,-65.8855 259.009,-54.7197 265.474,-44.6634"/>
<polygon fill="none" stroke="black" points="268.448,-46.5082 270.912,-36.2038 262.56,-42.7229 268.448,-46.5082"/>
<text text-anchor="middle" x="237.296" y="-63.296" font-family="Helvetica,sans-Serif" font-size="14.00">no</text>
</g>
<!-- 0d77c13a&#45;d231&#45;4268&#45;9051&#45;5069ce866001&#45;&gt;b1f8107e&#45;2e39&#45;4a3d&#45;b3ed&#45;070a6a932a26 -->
<g id="edge9" class="edge"><title>0d77c13a&#45;d231&#45;4268&#45;9051&#45;5069ce866001&#45;&gt;b1f8107e&#45;2e39&#45;4a3d&#45;b3ed&#45;070a6a932a26</title>
<path fill="none" stroke="black" d="M264.622,-144.765C260.135,-136.041 254.513,-125.109 249.512,-115.384"/>
<polygon fill="none" stroke="black" points="252.469,-113.481 244.783,-106.189 246.244,-116.683 252.469,-113.481"/>
</g>
<!-- aa51add8&#45;3fd7&#45;4a16&#45;b3c1&#45;bd9ae2054a59 -->
<g id="node5" class="node"><title>aa51add8&#45;3fd7&#45;4a16&#45;b3c1&#45;bd9ae2054a59</title>
<polygon fill="cornsilk" stroke="black" points="250.471,-324 127.471,-324 127.471,-288 250.471,-288 250.471,-324"/>
<text text-anchor="middle" x="188.971" y="-302.3" font-family="Helvetica,sans-Serif" font-size="14.00">backslash &#160;here</text>
</g>
<!-- aa51add8&#45;3fd7&#45;4a16&#45;b3c1&#45;bd9ae2054a59&#45;&gt;4945213d&#45;9329&#45;4319&#45;afdb&#45;daccc416a828 -->
<g id="edge4" class="edge"><title>aa51add8&#45;3fd7&#45;4a16&#45;b3c1&#45;bd9ae2054a59&#45;&gt;4945213d&#45;9329&#45;4319&#45;afdb&#45;daccc416a828</title>
<path fill="none" stroke="black" d="M202.814,-287.697C210.203,-278.461 219.377,-266.994 227.278,-257.117"/>
<polygon fill="none" stroke="black" points="230.034,-259.274 233.548,-249.279 224.568,-254.901 230.034,-259.274"/>
</g>
<!-- 1bb63950&#45;bfcb&#45;4bda&#45;8a8d&#45;df76b2914479 -->
<g id="node7" class="node"><title>1bb63950&#45;bfcb&#45;4bda&#45;8a8d&#45;df76b2914479</title>
<ellipse fill="cornsilk" stroke="black" cx="300.971" cy="-306" rx="32.4942" ry="18"/>
<text text-anchor="middle" x="300.971" y="-302.3" font-family="Helvetica,sans-Serif" font-size="14.00">start</text>
</g>
<!-- 1bb63950&#45;bfcb&#45;4bda&#45;8a8d&#45;df76b2914479&#45;&gt;4945213d&#45;9329&#45;4319&#45;afdb&#45;daccc416a828 -->
<g id="edge5" class="edge"><title>1bb63950&#45;bfcb&#45;4bda&#45;8a8d&#45;df76b2914479&#45;&gt;4945213d&#45;9329&#45;4319&#45;afdb&#45;daccc416a828</title>
<path fill="none" stroke="black" d="M288.264,-289.116C280.727,-279.695 271.057,-267.607 262.769,-257.247"/>
<polygon fill="none" stroke="black" points="265.466,-255.015 256.486,-249.393 260,-259.388 265.466,-255.015"/>
</g>
<!-- 399f1afc&#45;e480&#45;4167&#45;9671&#45;bdf1c73926c2&#45;&gt;4945213d&#45;9329&#45;4319&#45;afdb&#45;daccc416a828 -->
<g id="edge8" class="edge"><title>399f1afc&#45;e480&#45;4167&#45;9671&#45;bdf1c73926c2&#45;&gt;4945213d&#45;9329&#45;4319&#45;afdb&#45;daccc416a828</title>
<path fill="none" stroke="black" d="M293.438,-36.3331C299.346,-46.311 305.934,-59.3479 308.971,-72 320.175,-118.674 329.398,-136.563 308.971,-180 302.038,-194.744 288.766,-206.794 276.098,-215.658"/>
<polygon fill="none" stroke="black" points="273.96,-212.874 267.509,-221.279 277.793,-218.731 273.96,-212.874"/>
</g>
</g>
</svg>
