<?xml version="1.0" encoding="UTF-8" standalone="no"?>
<!DOCTYPE svg PUBLIC "-//W3C//DTD SVG 1.1//EN"
 "http://www.w3.org/Graphics/SVG/1.1/DTD/svg11.dtd">
<!-- Generated by graphviz version 2.43.0 (0)
 -->
<!-- Title: %3 Pages: 1 -->
<svg width="350pt" height="116pt"
 viewBox="0.00 0.00 350.00 116.00" xmlns="http://www.w3.org/2000/svg" xmlns:xlink="http://www.w3.org/1999/xlink">
<g id="graph0" class="graph" transform="scale(1 1) rotate(0) translate(4 112)">
<title>%3</title>
<polygon fill="white" stroke="transparent" points="-4,4 -4,-112 346,-112 346,4 -4,4"/>
<!-- 7564df5c&#45;4d4c&#45;40c0&#45;a07d&#45;56d061292b6b -->
<g id="node1" class="node">
<title>7564df5c&#45;4d4c&#45;40c0&#45;a07d&#45;56d061292b6b</title>
<ellipse fill="cornsilk" stroke="black" cx="27" cy="-90" rx="27" ry="18"/>
<text text-anchor="middle" x="27" y="-86.3" font-family="Helvetica,sans-Serif" font-size="14.00">D</text>
</g>
<!-- 2541e171&#45;d272&#45;4147&#45;8e35&#45;2247b7558949 -->
<g id="node2" class="node">
<title>2541e171&#45;d272&#45;4147&#45;8e35&#45;2247b7558949</title>
<polygon fill="cornsilk" stroke="black" points="192,-36 144,-36 144,0 198,0 198,-30 192,-36"/>
<polyline fill="none" stroke="black" points="192,-36 192,-30 "/>
<polyline fill="none" stroke="black" points="198,-30 192,-30 "/>
<text text-anchor="middle" x="171" y="-14.3" font-family="Helvetica,sans-Serif" font-size="14.00">T</text>
</g>
<!-- 7564df5c&#45;4d4c&#45;40c0&#45;a07d&#45;56d061292b6b&#45;&gt;2541e171&#45;d272&#45;4147&#45;8e35&#45;2247b7558949 -->
<g id="edge1" class="edge">
<title>7564df5c&#45;4d4c&#45;40c0&#45;a07d&#45;56d061292b6b&#45;&gt;2541e171&#45;d272&#45;4147&#45;8e35&#45;2247b7558949</title>
<path fill="none" stroke="black" d="M48.25,-78.67C70.92,-67.65 107.26,-49.98 134.53,-36.73"/>
<polygon fill="none" stroke="black" points="136.29,-39.76 143.76,-32.24 133.23,-33.47 136.29,-39.76"/>
</g>
<!-- 0c5c6c38&#45;c12d&#45;4400&#45;8360&#45;69ca92867a98 -->
<g id="node3" class="node">
<title>0c5c6c38&#45;c12d&#45;4400&#45;8360&#45;69ca92867a98</title>
<ellipse fill="cornsilk" stroke="black" cx="99" cy="-90" rx="27" ry="18"/>
<text text-anchor="middle" x="99" y="-86.3" font-family="Helvetica,sans-Serif" font-size="14.00">C</text>
</g>
<!-- 0c5c6c38&#45;c12d&#45;4400&#45;8360&#45;69ca92867a98&#45;&gt;2541e171&#45;d272&#45;4147&#45;8e35&#45;2247b7558949 -->
<g id="edge2" class="edge">
<title>0c5c6c38&#45;c12d&#45;4400&#45;8360&#45;69ca92867a98&#45;&gt;2541e171&#45;d272&#45;4147&#45;8e35&#45;2247b7558949</title>
<path fill="none" stroke="black" d="M113.57,-74.83C122.92,-65.75 135.3,-53.71 146.17,-43.14"/>
<polygon fill="none" stroke="black" points="148.67,-45.59 153.4,-36.11 143.79,-40.57 148.67,-45.59"/>
</g>
<!-- 45a648f5&#45;63b5&#45;4d81&#45;b39b&#45;778d4684a1ad -->
<g id="node4" class="node">
<title>45a648f5&#45;63b5&#45;4d81&#45;b39b&#45;778d4684a1ad</title>
<ellipse fill="cornsilk" stroke="black" cx="171" cy="-90" rx="27" ry="18"/>
<text text-anchor="middle" x="171" y="-86.3" font-family="Helvetica,sans-Serif" font-size="14.00">E</text>
</g>
<!-- 45a648f5&#45;63b5&#45;4d81&#45;b39b&#45;778d4684a1ad&#45;&gt;2541e171&#45;d272&#45;4147&#45;8e35&#45;2247b7558949 -->
<g id="edge3" class="edge">
<title>45a648f5&#45;63b5&#45;4d81&#45;b39b&#45;778d4684a1ad&#45;&gt;2541e171&#45;d272&#45;4147&#45;8e35&#45;2247b7558949</title>
<path fill="none" stroke="black" d="M171,-71.7C171,-63.98 171,-54.71 171,-46.11"/>
<polygon fill="none" stroke="black" points="174.5,-46.1 171,-36.1 167.5,-46.1 174.5,-46.1"/>
</g>
<!-- 08326d66&#45;aa09&#45;4269&#45;8292&#45;9a719ef12c5f -->
<g id="node5" class="node">
<title>08326d66&#45;aa09&#45;4269&#45;8292&#45;9a719ef12c5f</title>
<ellipse fill="cornsilk" stroke="black" cx="243" cy="-90" rx="27" ry="18"/>
<text text-anchor="middle" x="243" y="-86.3" font-family="Helvetica,sans-Serif" font-size="14.00">B</text>
</g>
<!-- 08326d66&#45;aa09&#45;4269&#45;8292&#45;9a719ef12c5f&#45;&gt;2541e171&#45;d272&#45;4147&#45;8e35&#45;2247b7558949 -->
<g id="edge4" class="edge">
<title>08326d66&#45;aa09&#45;4269&#45;8292&#45;9a719ef12c5f&#45;&gt;2541e171&#45;d272&#45;4147&#45;8e35&#45;2247b7558949</title>
<path fill="none" stroke="black" d="M228.43,-74.83C219.08,-65.75 206.7,-53.71 195.83,-43.14"/>
<polygon fill="none" stroke="black" points="198.21,-40.57 188.6,-36.11 193.33,-45.59 198.21,-40.57"/>
</g>
<!-- 1ce01db5&#45;8535&#45;4265&#45;81cc&#45;3d035732e9e2 -->
<g id="node6" class="node">
<title>1ce01db5&#45;8535&#45;4265&#45;81cc&#45;3d035732e9e2</title>
<ellipse fill="cornsilk" stroke="black" cx="315" cy="-90" rx="27" ry="18"/>
<text text-anchor="middle" x="315" y="-86.3" font-family="Helvetica,sans-Serif" font-size="14.00">A</text>
</g>
<!-- 1ce01db5&#45;8535&#45;4265&#45;81cc&#45;3d035732e9e2&#45;&gt;2541e171&#45;d272&#45;4147&#45;8e35&#45;2247b7558949 -->
<g id="edge5" class="edge">
<title>1ce01db5&#45;8535&#45;4265&#45;81cc&#45;3d035732e9e2&#45;&gt;2541e171&#45;d272&#45;4147&#45;8e35&#45;2247b7558949</title>
<path fill="none" stroke="black" d="M293.75,-78.67C271.08,-67.65 234.74,-49.98 207.47,-36.73"/>
<polygon fill="none" stroke="black" points="208.77,-33.47 198.24,-32.24 205.71,-39.76 208.77,-33.47"/>
</g>
</g>
</svg>
