<?xml version="1.0" encoding="UTF-8" standalone="no"?>
<!DOCTYPE svg PUBLIC "-//W3C//DTD SVG 1.1//EN"
 "http://www.w3.org/Graphics/SVG/1.1/DTD/svg11.dtd">
<!-- Generated by graphviz version 2.38.0 (20140413.2041)
 -->
<!-- Title: %3 Pages: 1 -->
<svg width="350pt" height="116pt"
 viewBox="0.00 0.00 350.00 116.00" xmlns="http://www.w3.org/2000/svg" xmlns:xlink="http://www.w3.org/1999/xlink">
<g id="graph0" class="graph" transform="scale(1 1) rotate(0) translate(4 112)">
<title>%3</title>
<polygon fill="white" stroke="none" points="-4,4 -4,-112 346,-112 346,4 -4,4"/>
<!-- 6eaa6ad9&#45;3dde&#45;4fcd&#45;827f&#45;d5de54874561 -->
<g id="node1" class="node"><title>6eaa6ad9&#45;3dde&#45;4fcd&#45;827f&#45;d5de54874561</title>
<ellipse fill="cornsilk" stroke="black" cx="27" cy="-90" rx="27" ry="18"/>
<text text-anchor="middle" x="27" y="-86.3" font-family="Helvetica,sans-Serif" font-size="14.00">D</text>
</g>
<!-- baaebf32&#45;ef10&#45;4147&#45;871b&#45;d14eb5a865fb -->
<g id="node2" class="node"><title>baaebf32&#45;ef10&#45;4147&#45;871b&#45;d14eb5a865fb</title>
<polygon fill="cornsilk" stroke="black" points="198,-36 144,-36 144,-0 198,-0 198,-36"/>
<text text-anchor="middle" x="171" y="-14.3" font-family="Helvetica,sans-Serif" font-size="14.00">W</text>
</g>
<!-- 6eaa6ad9&#45;3dde&#45;4fcd&#45;827f&#45;d5de54874561&#45;&gt;baaebf32&#45;ef10&#45;4147&#45;871b&#45;d14eb5a865fb -->
<g id="edge1" class="edge"><title>6eaa6ad9&#45;3dde&#45;4fcd&#45;827f&#45;d5de54874561&#45;&gt;baaebf32&#45;ef10&#45;4147&#45;871b&#45;d14eb5a865fb</title>
<path fill="none" stroke="black" d="M48.2477,-78.6713C70.9222,-67.6489 107.26,-49.9846 134.527,-36.7299"/>
<polygon fill="none" stroke="black" points="136.293,-39.7634 143.756,-32.2436 133.232,-33.4678 136.293,-39.7634"/>
</g>
<!-- 52072f02&#45;a408&#45;4c83&#45;bfad&#45;34750c790bc1 -->
<g id="node3" class="node"><title>52072f02&#45;a408&#45;4c83&#45;bfad&#45;34750c790bc1</title>
<ellipse fill="cornsilk" stroke="black" cx="99" cy="-90" rx="27" ry="18"/>
<text text-anchor="middle" x="99" y="-86.3" font-family="Helvetica,sans-Serif" font-size="14.00">A</text>
</g>
<!-- 52072f02&#45;a408&#45;4c83&#45;bfad&#45;34750c790bc1&#45;&gt;baaebf32&#45;ef10&#45;4147&#45;871b&#45;d14eb5a865fb -->
<g id="edge2" class="edge"><title>52072f02&#45;a408&#45;4c83&#45;bfad&#45;34750c790bc1&#45;&gt;baaebf32&#45;ef10&#45;4147&#45;871b&#45;d14eb5a865fb</title>
<path fill="none" stroke="black" d="M113.57,-74.8345C122.918,-65.7459 135.298,-53.7105 146.169,-43.1413"/>
<polygon fill="none" stroke="black" points="148.668,-45.593 153.398,-36.1127 143.789,-40.5741 148.668,-45.593"/>
</g>
<!-- 7e79f8e7&#45;e0e3&#45;4017&#45;935e&#45;98b759826c0d -->
<g id="node4" class="node"><title>7e79f8e7&#45;e0e3&#45;4017&#45;935e&#45;98b759826c0d</title>
<ellipse fill="cornsilk" stroke="black" cx="171" cy="-90" rx="27" ry="18"/>
<text text-anchor="middle" x="171" y="-86.3" font-family="Helvetica,sans-Serif" font-size="14.00">E</text>
</g>
<!-- 7e79f8e7&#45;e0e3&#45;4017&#45;935e&#45;98b759826c0d&#45;&gt;baaebf32&#45;ef10&#45;4147&#45;871b&#45;d14eb5a865fb -->
<g id="edge3" class="edge"><title>7e79f8e7&#45;e0e3&#45;4017&#45;935e&#45;98b759826c0d&#45;&gt;baaebf32&#45;ef10&#45;4147&#45;871b&#45;d14eb5a865fb</title>
<path fill="none" stroke="black" d="M171,-71.6966C171,-63.9827 171,-54.7125 171,-46.1124"/>
<polygon fill="none" stroke="black" points="174.5,-46.1043 171,-36.1043 167.5,-46.1044 174.5,-46.1043"/>
</g>
<!-- 2b08962a&#45;e89d&#45;40ae&#45;8f80&#45;2e11e8e7f16c -->
<g id="node5" class="node"><title>2b08962a&#45;e89d&#45;40ae&#45;8f80&#45;2e11e8e7f16c</title>
<ellipse fill="cornsilk" stroke="black" cx="243" cy="-90" rx="27" ry="18"/>
<text text-anchor="middle" x="243" y="-86.3" font-family="Helvetica,sans-Serif" font-size="14.00">B</text>
</g>
<!-- 2b08962a&#45;e89d&#45;40ae&#45;8f80&#45;2e11e8e7f16c&#45;&gt;baaebf32&#45;ef10&#45;4147&#45;871b&#45;d14eb5a865fb -->
<g id="edge4" class="edge"><title>2b08962a&#45;e89d&#45;40ae&#45;8f80&#45;2e11e8e7f16c&#45;&gt;baaebf32&#45;ef10&#45;4147&#45;871b&#45;d14eb5a865fb</title>
<path fill="none" stroke="black" d="M228.43,-74.8345C219.082,-65.7459 206.702,-53.7105 195.831,-43.1413"/>
<polygon fill="none" stroke="black" points="198.211,-40.5741 188.602,-36.1127 193.332,-45.593 198.211,-40.5741"/>
</g>
<!-- 7c3baef0&#45;d7f9&#45;4b90&#45;9def&#45;a58fc5980990 -->
<g id="node6" class="node"><title>7c3baef0&#45;d7f9&#45;4b90&#45;9def&#45;a58fc5980990</title>
<ellipse fill="cornsilk" stroke="black" cx="315" cy="-90" rx="27" ry="18"/>
<text text-anchor="middle" x="315" y="-86.3" font-family="Helvetica,sans-Serif" font-size="14.00">C</text>
</g>
<!-- 7c3baef0&#45;d7f9&#45;4b90&#45;9def&#45;a58fc5980990&#45;&gt;baaebf32&#45;ef10&#45;4147&#45;871b&#45;d14eb5a865fb -->
<g id="edge5" class="edge"><title>7c3baef0&#45;d7f9&#45;4b90&#45;9def&#45;a58fc5980990&#45;&gt;baaebf32&#45;ef10&#45;4147&#45;871b&#45;d14eb5a865fb</title>
<path fill="none" stroke="black" d="M293.752,-78.6713C271.078,-67.6489 234.74,-49.9846 207.473,-36.7299"/>
<polygon fill="none" stroke="black" points="208.768,-33.4678 198.244,-32.2436 205.707,-39.7634 208.768,-33.4678"/>
</g>
</g>
</svg>
