<?xml version="1.0" encoding="UTF-8" standalone="no"?>
<!DOCTYPE svg PUBLIC "-//W3C//DTD SVG 1.1//EN"
 "http://www.w3.org/Graphics/SVG/1.1/DTD/svg11.dtd">
<!-- Generated by graphviz version 2.38.0 (20140413.2041)
 -->
<!-- Title: %3 Pages: 1 -->
<svg width="350pt" height="116pt"
 viewBox="0.00 0.00 350.00 116.00" xmlns="http://www.w3.org/2000/svg" xmlns:xlink="http://www.w3.org/1999/xlink">
<g id="graph0" class="graph" transform="scale(1 1) rotate(0) translate(4 112)">
<title>%3</title>
<polygon fill="white" stroke="none" points="-4,4 -4,-112 346,-112 346,4 -4,4"/>
<!-- 9b8a78e0&#45;0fc3&#45;43d4&#45;98d5&#45;dd6e42ddff0d -->
<g id="node1" class="node"><title>9b8a78e0&#45;0fc3&#45;43d4&#45;98d5&#45;dd6e42ddff0d</title>
<ellipse fill="cornsilk" stroke="black" cx="27" cy="-90" rx="27" ry="18"/>
<text text-anchor="middle" x="27" y="-86.3" font-family="Helvetica,sans-Serif" font-size="14.00">D</text>
</g>
<!-- d1cf8597&#45;f9c9&#45;499c&#45;970c&#45;0e49c2457bd8 -->
<g id="node2" class="node"><title>d1cf8597&#45;f9c9&#45;499c&#45;970c&#45;0e49c2457bd8</title>
<polygon fill="cornsilk" stroke="black" points="198,-36 148,-36 144,-32 144,-0 194,-0 198,-4 198,-36"/>
<polyline fill="none" stroke="black" points="194,-32 144,-32 "/>
<polyline fill="none" stroke="black" points="194,-32 194,-0 "/>
<polyline fill="none" stroke="black" points="194,-32 198,-36 "/>
<text text-anchor="middle" x="171" y="-14.3" font-family="Helvetica,sans-Serif" font-size="14.00">S</text>
</g>
<!-- 9b8a78e0&#45;0fc3&#45;43d4&#45;98d5&#45;dd6e42ddff0d&#45;&gt;d1cf8597&#45;f9c9&#45;499c&#45;970c&#45;0e49c2457bd8 -->
<g id="edge1" class="edge"><title>9b8a78e0&#45;0fc3&#45;43d4&#45;98d5&#45;dd6e42ddff0d&#45;&gt;d1cf8597&#45;f9c9&#45;499c&#45;970c&#45;0e49c2457bd8</title>
<path fill="none" stroke="black" d="M48.2477,-78.6713C70.9222,-67.6489 107.26,-49.9846 134.527,-36.7299"/>
<polygon fill="none" stroke="black" points="136.293,-39.7634 143.756,-32.2436 133.232,-33.4678 136.293,-39.7634"/>
</g>
<!-- d9232a6d&#45;3e57&#45;4f59&#45;a0bb&#45;a5384c0e89ac -->
<g id="node3" class="node"><title>d9232a6d&#45;3e57&#45;4f59&#45;a0bb&#45;a5384c0e89ac</title>
<ellipse fill="cornsilk" stroke="black" cx="99" cy="-90" rx="27" ry="18"/>
<text text-anchor="middle" x="99" y="-86.3" font-family="Helvetica,sans-Serif" font-size="14.00">A</text>
</g>
<!-- d9232a6d&#45;3e57&#45;4f59&#45;a0bb&#45;a5384c0e89ac&#45;&gt;d1cf8597&#45;f9c9&#45;499c&#45;970c&#45;0e49c2457bd8 -->
<g id="edge2" class="edge"><title>d9232a6d&#45;3e57&#45;4f59&#45;a0bb&#45;a5384c0e89ac&#45;&gt;d1cf8597&#45;f9c9&#45;499c&#45;970c&#45;0e49c2457bd8</title>
<path fill="none" stroke="black" d="M113.57,-74.8345C122.918,-65.7459 135.298,-53.7105 146.169,-43.1413"/>
<polygon fill="none" stroke="black" points="148.668,-45.593 153.398,-36.1127 143.789,-40.5741 148.668,-45.593"/>
</g>
<!-- ab44bb3b&#45;e770&#45;4605&#45;9afa&#45;ac1ffdfee8c3 -->
<g id="node4" class="node"><title>ab44bb3b&#45;e770&#45;4605&#45;9afa&#45;ac1ffdfee8c3</title>
<ellipse fill="cornsilk" stroke="black" cx="171" cy="-90" rx="27" ry="18"/>
<text text-anchor="middle" x="171" y="-86.3" font-family="Helvetica,sans-Serif" font-size="14.00">E</text>
</g>
<!-- ab44bb3b&#45;e770&#45;4605&#45;9afa&#45;ac1ffdfee8c3&#45;&gt;d1cf8597&#45;f9c9&#45;499c&#45;970c&#45;0e49c2457bd8 -->
<g id="edge3" class="edge"><title>ab44bb3b&#45;e770&#45;4605&#45;9afa&#45;ac1ffdfee8c3&#45;&gt;d1cf8597&#45;f9c9&#45;499c&#45;970c&#45;0e49c2457bd8</title>
<path fill="none" stroke="black" d="M171,-71.6966C171,-63.9827 171,-54.7125 171,-46.1124"/>
<polygon fill="none" stroke="black" points="174.5,-46.1043 171,-36.1043 167.5,-46.1044 174.5,-46.1043"/>
</g>
<!-- 8f9928dd&#45;8411&#45;4550&#45;b735&#45;8d704879b40f -->
<g id="node5" class="node"><title>8f9928dd&#45;8411&#45;4550&#45;b735&#45;8d704879b40f</title>
<ellipse fill="cornsilk" stroke="black" cx="243" cy="-90" rx="27" ry="18"/>
<text text-anchor="middle" x="243" y="-86.3" font-family="Helvetica,sans-Serif" font-size="14.00">B</text>
</g>
<!-- 8f9928dd&#45;8411&#45;4550&#45;b735&#45;8d704879b40f&#45;&gt;d1cf8597&#45;f9c9&#45;499c&#45;970c&#45;0e49c2457bd8 -->
<g id="edge4" class="edge"><title>8f9928dd&#45;8411&#45;4550&#45;b735&#45;8d704879b40f&#45;&gt;d1cf8597&#45;f9c9&#45;499c&#45;970c&#45;0e49c2457bd8</title>
<path fill="none" stroke="black" d="M228.43,-74.8345C219.082,-65.7459 206.702,-53.7105 195.831,-43.1413"/>
<polygon fill="none" stroke="black" points="198.211,-40.5741 188.602,-36.1127 193.332,-45.593 198.211,-40.5741"/>
</g>
<!-- 2e4ac4e3&#45;e6b1&#45;43f8&#45;8563&#45;dfc41d0e4a6b -->
<g id="node6" class="node"><title>2e4ac4e3&#45;e6b1&#45;43f8&#45;8563&#45;dfc41d0e4a6b</title>
<ellipse fill="cornsilk" stroke="black" cx="315" cy="-90" rx="27" ry="18"/>
<text text-anchor="middle" x="315" y="-86.3" font-family="Helvetica,sans-Serif" font-size="14.00">C</text>
</g>
<!-- 2e4ac4e3&#45;e6b1&#45;43f8&#45;8563&#45;dfc41d0e4a6b&#45;&gt;d1cf8597&#45;f9c9&#45;499c&#45;970c&#45;0e49c2457bd8 -->
<g id="edge5" class="edge"><title>2e4ac4e3&#45;e6b1&#45;43f8&#45;8563&#45;dfc41d0e4a6b&#45;&gt;d1cf8597&#45;f9c9&#45;499c&#45;970c&#45;0e49c2457bd8</title>
<path fill="none" stroke="black" d="M293.752,-78.6713C271.078,-67.6489 234.74,-49.9846 207.473,-36.7299"/>
<polygon fill="none" stroke="black" points="208.768,-33.4678 198.244,-32.2436 205.707,-39.7634 208.768,-33.4678"/>
</g>
</g>
</svg>
