<?xml version="1.0" encoding="UTF-8" standalone="no"?>
<!DOCTYPE svg PUBLIC "-//W3C//DTD SVG 1.1//EN"
 "http://www.w3.org/Graphics/SVG/1.1/DTD/svg11.dtd">
<!-- Generated by graphviz version 2.38.0 (20140413.2041)
 -->
<!-- Title: %3 Pages: 1 -->
<svg width="350pt" height="116pt"
 viewBox="0.00 0.00 350.00 116.00" xmlns="http://www.w3.org/2000/svg" xmlns:xlink="http://www.w3.org/1999/xlink">
<g id="graph0" class="graph" transform="scale(1 1) rotate(0) translate(4 112)">
<title>%3</title>
<polygon fill="white" stroke="none" points="-4,4 -4,-112 346,-112 346,4 -4,4"/>
<!-- f18a9197&#45;73c2&#45;4c09&#45;9581&#45;bf3ea46f903f -->
<g id="node1" class="node"><title>f18a9197&#45;73c2&#45;4c09&#45;9581&#45;bf3ea46f903f</title>
<ellipse fill="cornsilk" stroke="black" cx="27" cy="-90" rx="27" ry="18"/>
<text text-anchor="middle" x="27" y="-86.3" font-family="Helvetica,sans-Serif" font-size="14.00">D</text>
</g>
<!-- df53c701&#45;7fcc&#45;4d33&#45;a484&#45;6e80ef9af484 -->
<g id="node2" class="node"><title>df53c701&#45;7fcc&#45;4d33&#45;a484&#45;6e80ef9af484</title>
<polygon fill="cornsilk" stroke="black" points="198,-36 144,-36 144,-0 198,-0 198,-36"/>
<text text-anchor="middle" x="171" y="-14.3" font-family="Helvetica,sans-Serif" font-size="14.00">V</text>
</g>
<!-- f18a9197&#45;73c2&#45;4c09&#45;9581&#45;bf3ea46f903f&#45;&gt;df53c701&#45;7fcc&#45;4d33&#45;a484&#45;6e80ef9af484 -->
<g id="edge1" class="edge"><title>f18a9197&#45;73c2&#45;4c09&#45;9581&#45;bf3ea46f903f&#45;&gt;df53c701&#45;7fcc&#45;4d33&#45;a484&#45;6e80ef9af484</title>
<path fill="none" stroke="black" d="M48.2477,-78.6713C70.9222,-67.6489 107.26,-49.9846 134.527,-36.7299"/>
<polygon fill="none" stroke="black" points="136.293,-39.7634 143.756,-32.2436 133.232,-33.4678 136.293,-39.7634"/>
</g>
<!-- c8e7dda4&#45;dd18&#45;4061&#45;b756&#45;302bc5509643 -->
<g id="node3" class="node"><title>c8e7dda4&#45;dd18&#45;4061&#45;b756&#45;302bc5509643</title>
<ellipse fill="cornsilk" stroke="black" cx="99" cy="-90" rx="27" ry="18"/>
<text text-anchor="middle" x="99" y="-86.3" font-family="Helvetica,sans-Serif" font-size="14.00">A</text>
</g>
<!-- c8e7dda4&#45;dd18&#45;4061&#45;b756&#45;302bc5509643&#45;&gt;df53c701&#45;7fcc&#45;4d33&#45;a484&#45;6e80ef9af484 -->
<g id="edge2" class="edge"><title>c8e7dda4&#45;dd18&#45;4061&#45;b756&#45;302bc5509643&#45;&gt;df53c701&#45;7fcc&#45;4d33&#45;a484&#45;6e80ef9af484</title>
<path fill="none" stroke="black" d="M113.57,-74.8345C122.918,-65.7459 135.298,-53.7105 146.169,-43.1413"/>
<polygon fill="none" stroke="black" points="148.668,-45.593 153.398,-36.1127 143.789,-40.5741 148.668,-45.593"/>
</g>
<!-- 32b50a31&#45;0558&#45;45e8&#45;a516&#45;bb13dc18f1ba -->
<g id="node4" class="node"><title>32b50a31&#45;0558&#45;45e8&#45;a516&#45;bb13dc18f1ba</title>
<ellipse fill="cornsilk" stroke="black" cx="171" cy="-90" rx="27" ry="18"/>
<text text-anchor="middle" x="171" y="-86.3" font-family="Helvetica,sans-Serif" font-size="14.00">E</text>
</g>
<!-- 32b50a31&#45;0558&#45;45e8&#45;a516&#45;bb13dc18f1ba&#45;&gt;df53c701&#45;7fcc&#45;4d33&#45;a484&#45;6e80ef9af484 -->
<g id="edge3" class="edge"><title>32b50a31&#45;0558&#45;45e8&#45;a516&#45;bb13dc18f1ba&#45;&gt;df53c701&#45;7fcc&#45;4d33&#45;a484&#45;6e80ef9af484</title>
<path fill="none" stroke="black" d="M171,-71.6966C171,-63.9827 171,-54.7125 171,-46.1124"/>
<polygon fill="none" stroke="black" points="174.5,-46.1043 171,-36.1043 167.5,-46.1044 174.5,-46.1043"/>
</g>
<!-- 5206e6dd&#45;57a6&#45;4d1a&#45;8093&#45;64ac468d3323 -->
<g id="node5" class="node"><title>5206e6dd&#45;57a6&#45;4d1a&#45;8093&#45;64ac468d3323</title>
<ellipse fill="cornsilk" stroke="black" cx="243" cy="-90" rx="27" ry="18"/>
<text text-anchor="middle" x="243" y="-86.3" font-family="Helvetica,sans-Serif" font-size="14.00">B</text>
</g>
<!-- 5206e6dd&#45;57a6&#45;4d1a&#45;8093&#45;64ac468d3323&#45;&gt;df53c701&#45;7fcc&#45;4d33&#45;a484&#45;6e80ef9af484 -->
<g id="edge4" class="edge"><title>5206e6dd&#45;57a6&#45;4d1a&#45;8093&#45;64ac468d3323&#45;&gt;df53c701&#45;7fcc&#45;4d33&#45;a484&#45;6e80ef9af484</title>
<path fill="none" stroke="black" d="M228.43,-74.8345C219.082,-65.7459 206.702,-53.7105 195.831,-43.1413"/>
<polygon fill="none" stroke="black" points="198.211,-40.5741 188.602,-36.1127 193.332,-45.593 198.211,-40.5741"/>
</g>
<!-- af3f7be7&#45;28bb&#45;4426&#45;b2cd&#45;bf2069c5895b -->
<g id="node6" class="node"><title>af3f7be7&#45;28bb&#45;4426&#45;b2cd&#45;bf2069c5895b</title>
<ellipse fill="cornsilk" stroke="black" cx="315" cy="-90" rx="27" ry="18"/>
<text text-anchor="middle" x="315" y="-86.3" font-family="Helvetica,sans-Serif" font-size="14.00">C</text>
</g>
<!-- af3f7be7&#45;28bb&#45;4426&#45;b2cd&#45;bf2069c5895b&#45;&gt;df53c701&#45;7fcc&#45;4d33&#45;a484&#45;6e80ef9af484 -->
<g id="edge5" class="edge"><title>af3f7be7&#45;28bb&#45;4426&#45;b2cd&#45;bf2069c5895b&#45;&gt;df53c701&#45;7fcc&#45;4d33&#45;a484&#45;6e80ef9af484</title>
<path fill="none" stroke="black" d="M293.752,-78.6713C271.078,-67.6489 234.74,-49.9846 207.473,-36.7299"/>
<polygon fill="none" stroke="black" points="208.768,-33.4678 198.244,-32.2436 205.707,-39.7634 208.768,-33.4678"/>
</g>
</g>
</svg>
