<?xml version="1.0" encoding="UTF-8" standalone="no"?>
<!DOCTYPE svg PUBLIC "-//W3C//DTD SVG 1.1//EN"
 "http://www.w3.org/Graphics/SVG/1.1/DTD/svg11.dtd">
<!-- Generated by graphviz version 2.38.0 (20140413.2041)
 -->
<!-- Title: %3 Pages: 1 -->
<svg width="350pt" height="116pt"
 viewBox="0.00 0.00 350.00 116.00" xmlns="http://www.w3.org/2000/svg" xmlns:xlink="http://www.w3.org/1999/xlink">
<g id="graph0" class="graph" transform="scale(1 1) rotate(0) translate(4 112)">
<title>%3</title>
<polygon fill="white" stroke="none" points="-4,4 -4,-112 346,-112 346,4 -4,4"/>
<!-- f23566b1&#45;cd83&#45;4f78&#45;bdf1&#45;b3e3d6c91227 -->
<g id="node1" class="node"><title>f23566b1&#45;cd83&#45;4f78&#45;bdf1&#45;b3e3d6c91227</title>
<ellipse fill="cornsilk" stroke="black" cx="27" cy="-90" rx="27" ry="18"/>
<text text-anchor="middle" x="27" y="-86.3" font-family="Helvetica,sans-Serif" font-size="14.00">D</text>
</g>
<!-- f23e665b&#45;c7a7&#45;4fa0&#45;8993&#45;d3f3ce5ea489 -->
<g id="node2" class="node"><title>f23e665b&#45;c7a7&#45;4fa0&#45;8993&#45;d3f3ce5ea489</title>
<polygon fill="cornsilk" stroke="black" points="192,-36 144,-36 144,-0 198,-0 198,-30 192,-36"/>
<polyline fill="none" stroke="black" points="192,-36 192,-30 "/>
<polyline fill="none" stroke="black" points="198,-30 192,-30 "/>
<text text-anchor="middle" x="171" y="-14.3" font-family="Helvetica,sans-Serif" font-size="14.00">T</text>
</g>
<!-- f23566b1&#45;cd83&#45;4f78&#45;bdf1&#45;b3e3d6c91227&#45;&gt;f23e665b&#45;c7a7&#45;4fa0&#45;8993&#45;d3f3ce5ea489 -->
<g id="edge1" class="edge"><title>f23566b1&#45;cd83&#45;4f78&#45;bdf1&#45;b3e3d6c91227&#45;&gt;f23e665b&#45;c7a7&#45;4fa0&#45;8993&#45;d3f3ce5ea489</title>
<path fill="none" stroke="black" d="M48.2477,-78.6713C70.9222,-67.6489 107.26,-49.9846 134.527,-36.7299"/>
<polygon fill="none" stroke="black" points="136.293,-39.7634 143.756,-32.2436 133.232,-33.4678 136.293,-39.7634"/>
</g>
<!-- 3874056e&#45;90b9&#45;4920&#45;a8d3&#45;76c7fc1eb6f4 -->
<g id="node3" class="node"><title>3874056e&#45;90b9&#45;4920&#45;a8d3&#45;76c7fc1eb6f4</title>
<ellipse fill="cornsilk" stroke="black" cx="99" cy="-90" rx="27" ry="18"/>
<text text-anchor="middle" x="99" y="-86.3" font-family="Helvetica,sans-Serif" font-size="14.00">A</text>
</g>
<!-- 3874056e&#45;90b9&#45;4920&#45;a8d3&#45;76c7fc1eb6f4&#45;&gt;f23e665b&#45;c7a7&#45;4fa0&#45;8993&#45;d3f3ce5ea489 -->
<g id="edge2" class="edge"><title>3874056e&#45;90b9&#45;4920&#45;a8d3&#45;76c7fc1eb6f4&#45;&gt;f23e665b&#45;c7a7&#45;4fa0&#45;8993&#45;d3f3ce5ea489</title>
<path fill="none" stroke="black" d="M113.57,-74.8345C122.918,-65.7459 135.298,-53.7105 146.169,-43.1413"/>
<polygon fill="none" stroke="black" points="148.668,-45.593 153.398,-36.1127 143.789,-40.5741 148.668,-45.593"/>
</g>
<!-- 09b4c03b&#45;d300&#45;4306&#45;a5d2&#45;db6ae98a523b -->
<g id="node4" class="node"><title>09b4c03b&#45;d300&#45;4306&#45;a5d2&#45;db6ae98a523b</title>
<ellipse fill="cornsilk" stroke="black" cx="171" cy="-90" rx="27" ry="18"/>
<text text-anchor="middle" x="171" y="-86.3" font-family="Helvetica,sans-Serif" font-size="14.00">E</text>
</g>
<!-- 09b4c03b&#45;d300&#45;4306&#45;a5d2&#45;db6ae98a523b&#45;&gt;f23e665b&#45;c7a7&#45;4fa0&#45;8993&#45;d3f3ce5ea489 -->
<g id="edge3" class="edge"><title>09b4c03b&#45;d300&#45;4306&#45;a5d2&#45;db6ae98a523b&#45;&gt;f23e665b&#45;c7a7&#45;4fa0&#45;8993&#45;d3f3ce5ea489</title>
<path fill="none" stroke="black" d="M171,-71.6966C171,-63.9827 171,-54.7125 171,-46.1124"/>
<polygon fill="none" stroke="black" points="174.5,-46.1043 171,-36.1043 167.5,-46.1044 174.5,-46.1043"/>
</g>
<!-- 1083bfc1&#45;331b&#45;4cbd&#45;8261&#45;457ed4ba86d9 -->
<g id="node5" class="node"><title>1083bfc1&#45;331b&#45;4cbd&#45;8261&#45;457ed4ba86d9</title>
<ellipse fill="cornsilk" stroke="black" cx="243" cy="-90" rx="27" ry="18"/>
<text text-anchor="middle" x="243" y="-86.3" font-family="Helvetica,sans-Serif" font-size="14.00">B</text>
</g>
<!-- 1083bfc1&#45;331b&#45;4cbd&#45;8261&#45;457ed4ba86d9&#45;&gt;f23e665b&#45;c7a7&#45;4fa0&#45;8993&#45;d3f3ce5ea489 -->
<g id="edge4" class="edge"><title>1083bfc1&#45;331b&#45;4cbd&#45;8261&#45;457ed4ba86d9&#45;&gt;f23e665b&#45;c7a7&#45;4fa0&#45;8993&#45;d3f3ce5ea489</title>
<path fill="none" stroke="black" d="M228.43,-74.8345C219.082,-65.7459 206.702,-53.7105 195.831,-43.1413"/>
<polygon fill="none" stroke="black" points="198.211,-40.5741 188.602,-36.1127 193.332,-45.593 198.211,-40.5741"/>
</g>
<!-- f2a10d83&#45;295d&#45;43b7&#45;b18e&#45;c74c8026c57e -->
<g id="node6" class="node"><title>f2a10d83&#45;295d&#45;43b7&#45;b18e&#45;c74c8026c57e</title>
<ellipse fill="cornsilk" stroke="black" cx="315" cy="-90" rx="27" ry="18"/>
<text text-anchor="middle" x="315" y="-86.3" font-family="Helvetica,sans-Serif" font-size="14.00">C</text>
</g>
<!-- f2a10d83&#45;295d&#45;43b7&#45;b18e&#45;c74c8026c57e&#45;&gt;f23e665b&#45;c7a7&#45;4fa0&#45;8993&#45;d3f3ce5ea489 -->
<g id="edge5" class="edge"><title>f2a10d83&#45;295d&#45;43b7&#45;b18e&#45;c74c8026c57e&#45;&gt;f23e665b&#45;c7a7&#45;4fa0&#45;8993&#45;d3f3ce5ea489</title>
<path fill="none" stroke="black" d="M293.752,-78.6713C271.078,-67.6489 234.74,-49.9846 207.473,-36.7299"/>
<polygon fill="none" stroke="black" points="208.768,-33.4678 198.244,-32.2436 205.707,-39.7634 208.768,-33.4678"/>
</g>
</g>
</svg>
