<?xml version="1.0" encoding="UTF-8" standalone="no"?>
<!DOCTYPE svg PUBLIC "-//W3C//DTD SVG 1.1//EN"
 "http://www.w3.org/Graphics/SVG/1.1/DTD/svg11.dtd">
<!-- Generated by graphviz version 2.38.0 (20140413.2041)
 -->
<!-- Title: %3 Pages: 1 -->
<svg width="350pt" height="116pt"
 viewBox="0.00 0.00 350.00 116.00" xmlns="http://www.w3.org/2000/svg" xmlns:xlink="http://www.w3.org/1999/xlink">
<g id="graph0" class="graph" transform="scale(1 1) rotate(0) translate(4 112)">
<title>%3</title>
<polygon fill="white" stroke="none" points="-4,4 -4,-112 346,-112 346,4 -4,4"/>
<!-- 35925c65&#45;eff5&#45;40e2&#45;8982&#45;520bf24e9d96 -->
<g id="node1" class="node"><title>35925c65&#45;eff5&#45;40e2&#45;8982&#45;520bf24e9d96</title>
<ellipse fill="cornsilk" stroke="black" cx="27" cy="-90" rx="27" ry="18"/>
<text text-anchor="middle" x="27" y="-86.3" font-family="Helvetica,sans-Serif" font-size="14.00">D</text>
</g>
<!-- f0ad29ce&#45;9ade&#45;46cc&#45;8c8a&#45;7822cb980feb -->
<g id="node2" class="node"><title>f0ad29ce&#45;9ade&#45;46cc&#45;8c8a&#45;7822cb980feb</title>
<polygon fill="cornsilk" stroke="black" points="198,-23.5623 171,-36 144,-23.5623 144.025,-3.43769 197.975,-3.43769 198,-23.5623"/>
<text text-anchor="middle" x="171" y="-14.3" font-family="Helvetica,sans-Serif" font-size="14.00">X</text>
</g>
<!-- 35925c65&#45;eff5&#45;40e2&#45;8982&#45;520bf24e9d96&#45;&gt;f0ad29ce&#45;9ade&#45;46cc&#45;8c8a&#45;7822cb980feb -->
<g id="edge1" class="edge"><title>35925c65&#45;eff5&#45;40e2&#45;8982&#45;520bf24e9d96&#45;&gt;f0ad29ce&#45;9ade&#45;46cc&#45;8c8a&#45;7822cb980feb</title>
<path fill="none" stroke="black" d="M48.2477,-78.6713C73.5816,-66.3562 115.972,-45.7498 143.71,-32.266"/>
<polygon fill="none" stroke="black" points="145.395,-35.3388 152.858,-27.819 142.334,-29.0432 145.395,-35.3388"/>
</g>
<!-- c5c0ad53&#45;3f6e&#45;4e48&#45;b758&#45;d8e9f099765e -->
<g id="node3" class="node"><title>c5c0ad53&#45;3f6e&#45;4e48&#45;b758&#45;d8e9f099765e</title>
<ellipse fill="cornsilk" stroke="black" cx="99" cy="-90" rx="27" ry="18"/>
<text text-anchor="middle" x="99" y="-86.3" font-family="Helvetica,sans-Serif" font-size="14.00">A</text>
</g>
<!-- c5c0ad53&#45;3f6e&#45;4e48&#45;b758&#45;d8e9f099765e&#45;&gt;f0ad29ce&#45;9ade&#45;46cc&#45;8c8a&#45;7822cb980feb -->
<g id="edge2" class="edge"><title>c5c0ad53&#45;3f6e&#45;4e48&#45;b758&#45;d8e9f099765e&#45;&gt;f0ad29ce&#45;9ade&#45;46cc&#45;8c8a&#45;7822cb980feb</title>
<path fill="none" stroke="black" d="M113.57,-74.8345C124.492,-64.2166 139.55,-49.5766 151.507,-37.9515"/>
<polygon fill="none" stroke="black" points="154.112,-40.3004 158.842,-30.8201 149.232,-35.2814 154.112,-40.3004"/>
</g>
<!-- dd0761d2&#45;1721&#45;411e&#45;b9bd&#45;d71ab3ea3ae0 -->
<g id="node4" class="node"><title>dd0761d2&#45;1721&#45;411e&#45;b9bd&#45;d71ab3ea3ae0</title>
<ellipse fill="cornsilk" stroke="black" cx="171" cy="-90" rx="27" ry="18"/>
<text text-anchor="middle" x="171" y="-86.3" font-family="Helvetica,sans-Serif" font-size="14.00">E</text>
</g>
<!-- dd0761d2&#45;1721&#45;411e&#45;b9bd&#45;d71ab3ea3ae0&#45;&gt;f0ad29ce&#45;9ade&#45;46cc&#45;8c8a&#45;7822cb980feb -->
<g id="edge3" class="edge"><title>dd0761d2&#45;1721&#45;411e&#45;b9bd&#45;d71ab3ea3ae0&#45;&gt;f0ad29ce&#45;9ade&#45;46cc&#45;8c8a&#45;7822cb980feb</title>
<path fill="none" stroke="black" d="M171,-71.6966C171,-63.9827 171,-54.7125 171,-46.1124"/>
<polygon fill="none" stroke="black" points="174.5,-46.1043 171,-36.1043 167.5,-46.1044 174.5,-46.1043"/>
</g>
<!-- fd977c5b&#45;1e8f&#45;41fc&#45;9b8e&#45;57ff97cd8388 -->
<g id="node5" class="node"><title>fd977c5b&#45;1e8f&#45;41fc&#45;9b8e&#45;57ff97cd8388</title>
<ellipse fill="cornsilk" stroke="black" cx="243" cy="-90" rx="27" ry="18"/>
<text text-anchor="middle" x="243" y="-86.3" font-family="Helvetica,sans-Serif" font-size="14.00">B</text>
</g>
<!-- fd977c5b&#45;1e8f&#45;41fc&#45;9b8e&#45;57ff97cd8388&#45;&gt;f0ad29ce&#45;9ade&#45;46cc&#45;8c8a&#45;7822cb980feb -->
<g id="edge4" class="edge"><title>fd977c5b&#45;1e8f&#45;41fc&#45;9b8e&#45;57ff97cd8388&#45;&gt;f0ad29ce&#45;9ade&#45;46cc&#45;8c8a&#45;7822cb980feb</title>
<path fill="none" stroke="black" d="M228.43,-74.8345C217.508,-64.2166 202.45,-49.5766 190.493,-37.9515"/>
<polygon fill="none" stroke="black" points="192.768,-35.2814 183.158,-30.8201 187.888,-40.3004 192.768,-35.2814"/>
</g>
<!-- 5c0e0b5d&#45;0e50&#45;4d0e&#45;bd3b&#45;4c676b4891d5 -->
<g id="node6" class="node"><title>5c0e0b5d&#45;0e50&#45;4d0e&#45;bd3b&#45;4c676b4891d5</title>
<ellipse fill="cornsilk" stroke="black" cx="315" cy="-90" rx="27" ry="18"/>
<text text-anchor="middle" x="315" y="-86.3" font-family="Helvetica,sans-Serif" font-size="14.00">C</text>
</g>
<!-- 5c0e0b5d&#45;0e50&#45;4d0e&#45;bd3b&#45;4c676b4891d5&#45;&gt;f0ad29ce&#45;9ade&#45;46cc&#45;8c8a&#45;7822cb980feb -->
<g id="edge5" class="edge"><title>5c0e0b5d&#45;0e50&#45;4d0e&#45;bd3b&#45;4c676b4891d5&#45;&gt;f0ad29ce&#45;9ade&#45;46cc&#45;8c8a&#45;7822cb980feb</title>
<path fill="none" stroke="black" d="M293.752,-78.6713C268.418,-66.3562 226.028,-45.7498 198.29,-32.266"/>
<polygon fill="none" stroke="black" points="199.666,-29.0432 189.142,-27.819 196.605,-35.3388 199.666,-29.0432"/>
</g>
</g>
</svg>
