<?xml version="1.0" encoding="UTF-8" standalone="no"?>
<!DOCTYPE svg PUBLIC "-//W3C//DTD SVG 1.1//EN"
 "http://www.w3.org/Graphics/SVG/1.1/DTD/svg11.dtd">
<!-- Generated by graphviz version 2.38.0 (20140413.2041)
 -->
<!-- Title: %3 Pages: 1 -->
<svg width="350pt" height="116pt"
 viewBox="0.00 0.00 350.00 116.00" xmlns="http://www.w3.org/2000/svg" xmlns:xlink="http://www.w3.org/1999/xlink">
<g id="graph0" class="graph" transform="scale(1 1) rotate(0) translate(4 112)">
<title>%3</title>
<polygon fill="white" stroke="none" points="-4,4 -4,-112 346,-112 346,4 -4,4"/>
<!-- 74402ef5&#45;4ea1&#45;40ca&#45;aeb2&#45;212d73302690 -->
<g id="node1" class="node"><title>74402ef5&#45;4ea1&#45;40ca&#45;aeb2&#45;212d73302690</title>
<ellipse fill="cornsilk" stroke="black" cx="27" cy="-90" rx="27" ry="18"/>
<text text-anchor="middle" x="27" y="-86.3" font-family="Helvetica,sans-Serif" font-size="14.00">D</text>
</g>
<!-- 3f28d2de&#45;1991&#45;4e4e&#45;bb5b&#45;f5cefc93d948 -->
<g id="node2" class="node"><title>3f28d2de&#45;1991&#45;4e4e&#45;bb5b&#45;f5cefc93d948</title>
<ellipse fill="cornsilk" stroke="black" cx="171" cy="-18" rx="27" ry="18"/>
<text text-anchor="middle" x="171" y="-14.3" font-family="Helvetica,sans-Serif" font-size="14.00">U</text>
</g>
<!-- 74402ef5&#45;4ea1&#45;40ca&#45;aeb2&#45;212d73302690&#45;&gt;3f28d2de&#45;1991&#45;4e4e&#45;bb5b&#45;f5cefc93d948 -->
<g id="edge1" class="edge"><title>74402ef5&#45;4ea1&#45;40ca&#45;aeb2&#45;212d73302690&#45;&gt;3f28d2de&#45;1991&#45;4e4e&#45;bb5b&#45;f5cefc93d948</title>
<path fill="none" stroke="black" d="M48.2477,-78.6713C72.6018,-66.8324 112.719,-47.3312 140.428,-33.8615"/>
<polygon fill="none" stroke="black" points="142.202,-36.8909 149.665,-29.3711 139.141,-30.5953 142.202,-36.8909"/>
</g>
<!-- c2b8c11e&#45;ad3a&#45;46e1&#45;b1eb&#45;05e42aa981fe -->
<g id="node3" class="node"><title>c2b8c11e&#45;ad3a&#45;46e1&#45;b1eb&#45;05e42aa981fe</title>
<ellipse fill="cornsilk" stroke="black" cx="99" cy="-90" rx="27" ry="18"/>
<text text-anchor="middle" x="99" y="-86.3" font-family="Helvetica,sans-Serif" font-size="14.00">A</text>
</g>
<!-- c2b8c11e&#45;ad3a&#45;46e1&#45;b1eb&#45;05e42aa981fe&#45;&gt;3f28d2de&#45;1991&#45;4e4e&#45;bb5b&#45;f5cefc93d948 -->
<g id="edge2" class="edge"><title>c2b8c11e&#45;ad3a&#45;46e1&#45;b1eb&#45;05e42aa981fe&#45;&gt;3f28d2de&#45;1991&#45;4e4e&#45;bb5b&#45;f5cefc93d948</title>
<path fill="none" stroke="black" d="M113.57,-74.8345C123.75,-64.9376 137.524,-51.5462 149.031,-40.3591"/>
<polygon fill="none" stroke="black" points="151.474,-42.865 156.204,-33.3847 146.595,-37.8461 151.474,-42.865"/>
</g>
<!-- 38749ad9&#45;1071&#45;40d7&#45;9aee&#45;ca578df50308 -->
<g id="node4" class="node"><title>38749ad9&#45;1071&#45;40d7&#45;9aee&#45;ca578df50308</title>
<ellipse fill="cornsilk" stroke="black" cx="171" cy="-90" rx="27" ry="18"/>
<text text-anchor="middle" x="171" y="-86.3" font-family="Helvetica,sans-Serif" font-size="14.00">E</text>
</g>
<!-- 38749ad9&#45;1071&#45;40d7&#45;9aee&#45;ca578df50308&#45;&gt;3f28d2de&#45;1991&#45;4e4e&#45;bb5b&#45;f5cefc93d948 -->
<g id="edge3" class="edge"><title>38749ad9&#45;1071&#45;40d7&#45;9aee&#45;ca578df50308&#45;&gt;3f28d2de&#45;1991&#45;4e4e&#45;bb5b&#45;f5cefc93d948</title>
<path fill="none" stroke="black" d="M171,-71.6966C171,-63.9827 171,-54.7125 171,-46.1124"/>
<polygon fill="none" stroke="black" points="174.5,-46.1043 171,-36.1043 167.5,-46.1044 174.5,-46.1043"/>
</g>
<!-- 1bf1ff1b&#45;1ad5&#45;4b89&#45;a7b6&#45;6da39478b8cf -->
<g id="node5" class="node"><title>1bf1ff1b&#45;1ad5&#45;4b89&#45;a7b6&#45;6da39478b8cf</title>
<ellipse fill="cornsilk" stroke="black" cx="243" cy="-90" rx="27" ry="18"/>
<text text-anchor="middle" x="243" y="-86.3" font-family="Helvetica,sans-Serif" font-size="14.00">B</text>
</g>
<!-- 1bf1ff1b&#45;1ad5&#45;4b89&#45;a7b6&#45;6da39478b8cf&#45;&gt;3f28d2de&#45;1991&#45;4e4e&#45;bb5b&#45;f5cefc93d948 -->
<g id="edge4" class="edge"><title>1bf1ff1b&#45;1ad5&#45;4b89&#45;a7b6&#45;6da39478b8cf&#45;&gt;3f28d2de&#45;1991&#45;4e4e&#45;bb5b&#45;f5cefc93d948</title>
<path fill="none" stroke="black" d="M228.43,-74.8345C218.25,-64.9376 204.476,-51.5462 192.969,-40.3591"/>
<polygon fill="none" stroke="black" points="195.405,-37.8461 185.796,-33.3847 190.526,-42.865 195.405,-37.8461"/>
</g>
<!-- 03113a86&#45;347e&#45;440d&#45;beb9&#45;b6b5a5cdea89 -->
<g id="node6" class="node"><title>03113a86&#45;347e&#45;440d&#45;beb9&#45;b6b5a5cdea89</title>
<ellipse fill="cornsilk" stroke="black" cx="315" cy="-90" rx="27" ry="18"/>
<text text-anchor="middle" x="315" y="-86.3" font-family="Helvetica,sans-Serif" font-size="14.00">C</text>
</g>
<!-- 03113a86&#45;347e&#45;440d&#45;beb9&#45;b6b5a5cdea89&#45;&gt;3f28d2de&#45;1991&#45;4e4e&#45;bb5b&#45;f5cefc93d948 -->
<g id="edge5" class="edge"><title>03113a86&#45;347e&#45;440d&#45;beb9&#45;b6b5a5cdea89&#45;&gt;3f28d2de&#45;1991&#45;4e4e&#45;bb5b&#45;f5cefc93d948</title>
<path fill="none" stroke="black" d="M293.752,-78.6713C269.398,-66.8324 229.281,-47.3312 201.572,-33.8615"/>
<polygon fill="none" stroke="black" points="202.859,-30.5953 192.335,-29.3711 199.798,-36.8909 202.859,-30.5953"/>
</g>
</g>
</svg>
