<?xml version="1.0" encoding="UTF-8" standalone="no"?>
<!DOCTYPE svg PUBLIC "-//W3C//DTD SVG 1.1//EN"
 "http://www.w3.org/Graphics/SVG/1.1/DTD/svg11.dtd">
<!-- Generated by graphviz version 2.38.0 (20140413.2041)
 -->
<!-- Title: %3 Pages: 1 -->
<svg width="350pt" height="116pt"
 viewBox="0.00 0.00 350.00 116.00" xmlns="http://www.w3.org/2000/svg" xmlns:xlink="http://www.w3.org/1999/xlink">
<g id="graph0" class="graph" transform="scale(1 1) rotate(0) translate(4 112)">
<title>%3</title>
<polygon fill="white" stroke="none" points="-4,4 -4,-112 346,-112 346,4 -4,4"/>
<!-- 0c6b6cd2&#45;464d&#45;4d45&#45;84dd&#45;3b4e58a6c8f7 -->
<g id="node1" class="node"><title>0c6b6cd2&#45;464d&#45;4d45&#45;84dd&#45;3b4e58a6c8f7</title>
<ellipse fill="cornsilk" stroke="black" cx="27" cy="-90" rx="27" ry="18"/>
<text text-anchor="middle" x="27" y="-86.3" font-family="Helvetica,sans-Serif" font-size="14.00">D</text>
</g>
<!-- 29bd6083&#45;56d8&#45;40ff&#45;aad7&#45;a6d64dae8bee -->
<g id="node2" class="node"><title>29bd6083&#45;56d8&#45;40ff&#45;aad7&#45;a6d64dae8bee</title>
<polygon fill="cornsilk" stroke="black" points="198.985,-36 154.467,-36 143.015,-1.42109e-14 187.533,-3.55271e-15 198.985,-36"/>
<text text-anchor="middle" x="171" y="-14.3" font-family="Helvetica,sans-Serif" font-size="14.00">Q</text>
</g>
<!-- 0c6b6cd2&#45;464d&#45;4d45&#45;84dd&#45;3b4e58a6c8f7&#45;&gt;29bd6083&#45;56d8&#45;40ff&#45;aad7&#45;a6d64dae8bee -->
<g id="edge1" class="edge"><title>0c6b6cd2&#45;464d&#45;4d45&#45;84dd&#45;3b4e58a6c8f7&#45;&gt;29bd6083&#45;56d8&#45;40ff&#45;aad7&#45;a6d64dae8bee</title>
<path fill="none" stroke="black" d="M48.2477,-78.6713C73.3017,-66.4923 115.037,-46.2041 142.785,-32.7156"/>
<polygon fill="none" stroke="black" points="144.503,-35.7723 151.966,-28.2526 141.442,-29.4768 144.503,-35.7723"/>
</g>
<!-- 196d3e0b&#45;bee1&#45;4ee9&#45;a3fd&#45;c73f142049fa -->
<g id="node3" class="node"><title>196d3e0b&#45;bee1&#45;4ee9&#45;a3fd&#45;c73f142049fa</title>
<ellipse fill="cornsilk" stroke="black" cx="99" cy="-90" rx="27" ry="18"/>
<text text-anchor="middle" x="99" y="-86.3" font-family="Helvetica,sans-Serif" font-size="14.00">A</text>
</g>
<!-- 196d3e0b&#45;bee1&#45;4ee9&#45;a3fd&#45;c73f142049fa&#45;&gt;29bd6083&#45;56d8&#45;40ff&#45;aad7&#45;a6d64dae8bee -->
<g id="edge2" class="edge"><title>196d3e0b&#45;bee1&#45;4ee9&#45;a3fd&#45;c73f142049fa&#45;&gt;29bd6083&#45;56d8&#45;40ff&#45;aad7&#45;a6d64dae8bee</title>
<path fill="none" stroke="black" d="M113.57,-74.8345C123.119,-65.5512 135.83,-53.1933 146.866,-42.4639"/>
<polygon fill="none" stroke="black" points="149.449,-44.8342 154.179,-35.3539 144.569,-39.8152 149.449,-44.8342"/>
</g>
<!-- dccc509a&#45;45f4&#45;4405&#45;83da&#45;24770b4c7cc6 -->
<g id="node4" class="node"><title>dccc509a&#45;45f4&#45;4405&#45;83da&#45;24770b4c7cc6</title>
<ellipse fill="cornsilk" stroke="black" cx="171" cy="-90" rx="27" ry="18"/>
<text text-anchor="middle" x="171" y="-86.3" font-family="Helvetica,sans-Serif" font-size="14.00">E</text>
</g>
<!-- dccc509a&#45;45f4&#45;4405&#45;83da&#45;24770b4c7cc6&#45;&gt;29bd6083&#45;56d8&#45;40ff&#45;aad7&#45;a6d64dae8bee -->
<g id="edge3" class="edge"><title>dccc509a&#45;45f4&#45;4405&#45;83da&#45;24770b4c7cc6&#45;&gt;29bd6083&#45;56d8&#45;40ff&#45;aad7&#45;a6d64dae8bee</title>
<path fill="none" stroke="black" d="M171,-71.6966C171,-63.9827 171,-54.7125 171,-46.1124"/>
<polygon fill="none" stroke="black" points="174.5,-46.1043 171,-36.1043 167.5,-46.1044 174.5,-46.1043"/>
</g>
<!-- 260701c5&#45;f9b6&#45;4440&#45;b37d&#45;2e540bdcab1b -->
<g id="node5" class="node"><title>260701c5&#45;f9b6&#45;4440&#45;b37d&#45;2e540bdcab1b</title>
<ellipse fill="cornsilk" stroke="black" cx="243" cy="-90" rx="27" ry="18"/>
<text text-anchor="middle" x="243" y="-86.3" font-family="Helvetica,sans-Serif" font-size="14.00">B</text>
</g>
<!-- 260701c5&#45;f9b6&#45;4440&#45;b37d&#45;2e540bdcab1b&#45;&gt;29bd6083&#45;56d8&#45;40ff&#45;aad7&#45;a6d64dae8bee -->
<g id="edge4" class="edge"><title>260701c5&#45;f9b6&#45;4440&#45;b37d&#45;2e540bdcab1b&#45;&gt;29bd6083&#45;56d8&#45;40ff&#45;aad7&#45;a6d64dae8bee</title>
<path fill="none" stroke="black" d="M228.43,-74.8345C219.082,-65.7459 206.702,-53.7105 195.831,-43.1413"/>
<polygon fill="none" stroke="black" points="198.211,-40.5741 188.602,-36.1127 193.332,-45.593 198.211,-40.5741"/>
</g>
<!-- 0b5301c8&#45;54b3&#45;4af1&#45;a4f7&#45;cca14ac79835 -->
<g id="node6" class="node"><title>0b5301c8&#45;54b3&#45;4af1&#45;a4f7&#45;cca14ac79835</title>
<ellipse fill="cornsilk" stroke="black" cx="315" cy="-90" rx="27" ry="18"/>
<text text-anchor="middle" x="315" y="-86.3" font-family="Helvetica,sans-Serif" font-size="14.00">C</text>
</g>
<!-- 0b5301c8&#45;54b3&#45;4af1&#45;a4f7&#45;cca14ac79835&#45;&gt;29bd6083&#45;56d8&#45;40ff&#45;aad7&#45;a6d64dae8bee -->
<g id="edge5" class="edge"><title>0b5301c8&#45;54b3&#45;4af1&#45;a4f7&#45;cca14ac79835&#45;&gt;29bd6083&#45;56d8&#45;40ff&#45;aad7&#45;a6d64dae8bee</title>
<path fill="none" stroke="black" d="M293.752,-78.6713C270.938,-67.5809 234.291,-49.7663 206.969,-36.485"/>
<polygon fill="none" stroke="black" points="208.256,-33.2189 197.732,-31.9947 205.196,-39.5145 208.256,-33.2189"/>
</g>
</g>
</svg>
