<?xml version="1.0" encoding="UTF-8" standalone="no"?>
<!DOCTYPE svg PUBLIC "-//W3C//DTD SVG 1.1//EN"
 "http://www.w3.org/Graphics/SVG/1.1/DTD/svg11.dtd">
<!-- Generated by graphviz version 2.43.0 (0)
 -->
<!-- Title: %3 Pages: 1 -->
<svg width="350pt" height="95pt"
 viewBox="0.00 0.00 350.00 95.00" xmlns="http://www.w3.org/2000/svg" xmlns:xlink="http://www.w3.org/1999/xlink">
<g id="graph0" class="graph" transform="scale(1 1) rotate(0) translate(4 91)">
<title>%3</title>
<polygon fill="white" stroke="transparent" points="-4,4 -4,-91 346,-91 346,4 -4,4"/>
<!-- 70f251df&#45;85b3&#45;4db1&#45;a246&#45;d848c3383724 -->
<g id="node1" class="node">
<title>70f251df&#45;85b3&#45;4db1&#45;a246&#45;d848c3383724</title>
<ellipse fill="cornsilk" stroke="black" cx="27" cy="-69" rx="27" ry="18"/>
<text text-anchor="middle" x="27" y="-65.3" font-family="Helvetica,sans-Serif" font-size="14.00">D</text>
</g>
<!-- 137a9559&#45;230f&#45;4446&#45;8ea1&#45;9d9b3f481928 -->
<g id="node2" class="node">
<title>137a9559&#45;230f&#45;4446&#45;8ea1&#45;9d9b3f481928</title>
<polygon fill="cornsilk" stroke="transparent" points="178,-15 164,-15 164,0 178,0 178,-15"/>
<text text-anchor="middle" x="171" y="-3.8" font-family="Helvetica,sans-Serif" font-size="14.00">W</text>
</g>
<!-- 70f251df&#45;85b3&#45;4db1&#45;a246&#45;d848c3383724&#45;&gt;137a9559&#45;230f&#45;4446&#45;8ea1&#45;9d9b3f481928 -->
<g id="edge1" class="edge">
<title>70f251df&#45;85b3&#45;4db1&#45;a246&#45;d848c3383724&#45;&gt;137a9559&#45;230f&#45;4446&#45;8ea1&#45;9d9b3f481928</title>
<path fill="none" stroke="black" d="M48.21,-57.7C53.05,-55.43 58.18,-53.08 63,-51 94.97,-37.18 133.01,-22.64 154.34,-14.66"/>
<polygon fill="none" stroke="black" points="155.7,-17.89 163.86,-11.12 153.26,-11.33 155.7,-17.89"/>
</g>
<!-- 04890152&#45;4402&#45;4685&#45;bf35&#45;b318d8768031 -->
<g id="node3" class="node">
<title>04890152&#45;4402&#45;4685&#45;bf35&#45;b318d8768031</title>
<ellipse fill="cornsilk" stroke="black" cx="99" cy="-69" rx="27" ry="18"/>
<text text-anchor="middle" x="99" y="-65.3" font-family="Helvetica,sans-Serif" font-size="14.00">C</text>
</g>
<!-- 04890152&#45;4402&#45;4685&#45;bf35&#45;b318d8768031&#45;&gt;137a9559&#45;230f&#45;4446&#45;8ea1&#45;9d9b3f481928 -->
<g id="edge2" class="edge">
<title>04890152&#45;4402&#45;4685&#45;bf35&#45;b318d8768031&#45;&gt;137a9559&#45;230f&#45;4446&#45;8ea1&#45;9d9b3f481928</title>
<path fill="none" stroke="black" d="M115.34,-54.5C127.5,-44.44 143.99,-30.82 155.86,-21.01"/>
<polygon fill="none" stroke="black" points="158.41,-23.44 163.89,-14.37 153.95,-18.05 158.41,-23.44"/>
</g>
<!-- 4ebc54d0&#45;1a5d&#45;4964&#45;aa3a&#45;f0994972d9bc -->
<g id="node4" class="node">
<title>4ebc54d0&#45;1a5d&#45;4964&#45;aa3a&#45;f0994972d9bc</title>
<ellipse fill="cornsilk" stroke="black" cx="171" cy="-69" rx="27" ry="18"/>
<text text-anchor="middle" x="171" y="-65.3" font-family="Helvetica,sans-Serif" font-size="14.00">E</text>
</g>
<!-- 4ebc54d0&#45;1a5d&#45;4964&#45;aa3a&#45;f0994972d9bc&#45;&gt;137a9559&#45;230f&#45;4446&#45;8ea1&#45;9d9b3f481928 -->
<g id="edge3" class="edge">
<title>4ebc54d0&#45;1a5d&#45;4964&#45;aa3a&#45;f0994972d9bc&#45;&gt;137a9559&#45;230f&#45;4446&#45;8ea1&#45;9d9b3f481928</title>
<path fill="none" stroke="black" d="M171,-50.79C171,-42.77 171,-33.25 171,-25.28"/>
<polygon fill="none" stroke="black" points="174.5,-25.06 171,-15.06 167.5,-25.06 174.5,-25.06"/>
</g>
<!-- 7f915013&#45;9635&#45;4ace&#45;8e83&#45;b149dd5f5177 -->
<g id="node5" class="node">
<title>7f915013&#45;9635&#45;4ace&#45;8e83&#45;b149dd5f5177</title>
<ellipse fill="cornsilk" stroke="black" cx="243" cy="-69" rx="27" ry="18"/>
<text text-anchor="middle" x="243" y="-65.3" font-family="Helvetica,sans-Serif" font-size="14.00">B</text>
</g>
<!-- 7f915013&#45;9635&#45;4ace&#45;8e83&#45;b149dd5f5177&#45;&gt;137a9559&#45;230f&#45;4446&#45;8ea1&#45;9d9b3f481928 -->
<g id="edge4" class="edge">
<title>7f915013&#45;9635&#45;4ace&#45;8e83&#45;b149dd5f5177&#45;&gt;137a9559&#45;230f&#45;4446&#45;8ea1&#45;9d9b3f481928</title>
<path fill="none" stroke="black" d="M226.66,-54.5C214.5,-44.44 198.01,-30.82 186.14,-21.01"/>
<polygon fill="none" stroke="black" points="188.05,-18.05 178.11,-14.37 183.59,-23.44 188.05,-18.05"/>
</g>
<!-- 2943ca51&#45;00a8&#45;43d4&#45;9b8c&#45;8c4e554578bc -->
<g id="node6" class="node">
<title>2943ca51&#45;00a8&#45;43d4&#45;9b8c&#45;8c4e554578bc</title>
<ellipse fill="cornsilk" stroke="black" cx="315" cy="-69" rx="27" ry="18"/>
<text text-anchor="middle" x="315" y="-65.3" font-family="Helvetica,sans-Serif" font-size="14.00">A</text>
</g>
<!-- 2943ca51&#45;00a8&#45;43d4&#45;9b8c&#45;8c4e554578bc&#45;&gt;137a9559&#45;230f&#45;4446&#45;8ea1&#45;9d9b3f481928 -->
<g id="edge5" class="edge">
<title>2943ca51&#45;00a8&#45;43d4&#45;9b8c&#45;8c4e554578bc&#45;&gt;137a9559&#45;230f&#45;4446&#45;8ea1&#45;9d9b3f481928</title>
<path fill="none" stroke="black" d="M293.79,-57.7C288.95,-55.43 283.82,-53.08 279,-51 247.03,-37.18 208.99,-22.64 187.66,-14.66"/>
<polygon fill="none" stroke="black" points="188.74,-11.33 178.14,-11.12 186.3,-17.89 188.74,-11.33"/>
</g>
</g>
</svg>
