<?xml version="1.0" encoding="UTF-8" standalone="no"?>
<!DOCTYPE svg PUBLIC "-//W3C//DTD SVG 1.1//EN"
 "http://www.w3.org/Graphics/SVG/1.1/DTD/svg11.dtd">
<!-- Generated by graphviz version 2.43.0 (0)
 -->
<!-- Title: %3 Pages: 1 -->
<svg width="350pt" height="116pt"
 viewBox="0.00 0.00 350.00 116.00" xmlns="http://www.w3.org/2000/svg" xmlns:xlink="http://www.w3.org/1999/xlink">
<g id="graph0" class="graph" transform="scale(1 1) rotate(0) translate(4 112)">
<title>%3</title>
<polygon fill="white" stroke="transparent" points="-4,4 -4,-112 346,-112 346,4 -4,4"/>
<!-- ee7bf275&#45;801d&#45;44c4&#45;bee1&#45;9746eddd3a8c -->
<g id="node1" class="node">
<title>ee7bf275&#45;801d&#45;44c4&#45;bee1&#45;9746eddd3a8c</title>
<ellipse fill="cornsilk" stroke="black" cx="27" cy="-90" rx="27" ry="18"/>
<text text-anchor="middle" x="27" y="-86.3" font-family="Helvetica,sans-Serif" font-size="14.00">D</text>
</g>
<!-- 27507655&#45;414a&#45;49bb&#45;a73d&#45;ce2b8575cce1 -->
<g id="node2" class="node">
<title>27507655&#45;414a&#45;49bb&#45;a73d&#45;ce2b8575cce1</title>
<polygon fill="cornsilk" stroke="black" points="198,-23.56 171,-36 144,-23.56 144.03,-3.44 197.97,-3.44 198,-23.56"/>
<text text-anchor="middle" x="171" y="-14.3" font-family="Helvetica,sans-Serif" font-size="14.00">X</text>
</g>
<!-- ee7bf275&#45;801d&#45;44c4&#45;bee1&#45;9746eddd3a8c&#45;&gt;27507655&#45;414a&#45;49bb&#45;a73d&#45;ce2b8575cce1 -->
<g id="edge1" class="edge">
<title>ee7bf275&#45;801d&#45;44c4&#45;bee1&#45;9746eddd3a8c&#45;&gt;27507655&#45;414a&#45;49bb&#45;a73d&#45;ce2b8575cce1</title>
<path fill="none" stroke="black" d="M48.25,-78.67C73.58,-66.36 115.97,-45.75 143.71,-32.27"/>
<polygon fill="none" stroke="black" points="145.39,-35.34 152.86,-27.82 142.33,-29.04 145.39,-35.34"/>
</g>
<!-- d11ff578&#45;2b98&#45;4105&#45;976c&#45;e601cf6330a4 -->
<g id="node3" class="node">
<title>d11ff578&#45;2b98&#45;4105&#45;976c&#45;e601cf6330a4</title>
<ellipse fill="cornsilk" stroke="black" cx="99" cy="-90" rx="27" ry="18"/>
<text text-anchor="middle" x="99" y="-86.3" font-family="Helvetica,sans-Serif" font-size="14.00">C</text>
</g>
<!-- d11ff578&#45;2b98&#45;4105&#45;976c&#45;e601cf6330a4&#45;&gt;27507655&#45;414a&#45;49bb&#45;a73d&#45;ce2b8575cce1 -->
<g id="edge2" class="edge">
<title>d11ff578&#45;2b98&#45;4105&#45;976c&#45;e601cf6330a4&#45;&gt;27507655&#45;414a&#45;49bb&#45;a73d&#45;ce2b8575cce1</title>
<path fill="none" stroke="black" d="M113.57,-74.83C124.49,-64.22 139.55,-49.58 151.51,-37.95"/>
<polygon fill="none" stroke="black" points="154.11,-40.3 158.84,-30.82 149.23,-35.28 154.11,-40.3"/>
</g>
<!-- 3e428e7b&#45;ed82&#45;48dc&#45;9a9c&#45;47a7a34a6142 -->
<g id="node4" class="node">
<title>3e428e7b&#45;ed82&#45;48dc&#45;9a9c&#45;47a7a34a6142</title>
<ellipse fill="cornsilk" stroke="black" cx="171" cy="-90" rx="27" ry="18"/>
<text text-anchor="middle" x="171" y="-86.3" font-family="Helvetica,sans-Serif" font-size="14.00">E</text>
</g>
<!-- 3e428e7b&#45;ed82&#45;48dc&#45;9a9c&#45;47a7a34a6142&#45;&gt;27507655&#45;414a&#45;49bb&#45;a73d&#45;ce2b8575cce1 -->
<g id="edge3" class="edge">
<title>3e428e7b&#45;ed82&#45;48dc&#45;9a9c&#45;47a7a34a6142&#45;&gt;27507655&#45;414a&#45;49bb&#45;a73d&#45;ce2b8575cce1</title>
<path fill="none" stroke="black" d="M171,-71.7C171,-63.98 171,-54.71 171,-46.11"/>
<polygon fill="none" stroke="black" points="174.5,-46.1 171,-36.1 167.5,-46.1 174.5,-46.1"/>
</g>
<!-- 0da413e1&#45;7f6b&#45;442d&#45;b6a3&#45;df8299234ecc -->
<g id="node5" class="node">
<title>0da413e1&#45;7f6b&#45;442d&#45;b6a3&#45;df8299234ecc</title>
<ellipse fill="cornsilk" stroke="black" cx="243" cy="-90" rx="27" ry="18"/>
<text text-anchor="middle" x="243" y="-86.3" font-family="Helvetica,sans-Serif" font-size="14.00">B</text>
</g>
<!-- 0da413e1&#45;7f6b&#45;442d&#45;b6a3&#45;df8299234ecc&#45;&gt;27507655&#45;414a&#45;49bb&#45;a73d&#45;ce2b8575cce1 -->
<g id="edge4" class="edge">
<title>0da413e1&#45;7f6b&#45;442d&#45;b6a3&#45;df8299234ecc&#45;&gt;27507655&#45;414a&#45;49bb&#45;a73d&#45;ce2b8575cce1</title>
<path fill="none" stroke="black" d="M228.43,-74.83C217.51,-64.22 202.45,-49.58 190.49,-37.95"/>
<polygon fill="none" stroke="black" points="192.77,-35.28 183.16,-30.82 187.89,-40.3 192.77,-35.28"/>
</g>
<!-- 7a5f87fe&#45;c408&#45;4cda&#45;9d45&#45;ce4192437159 -->
<g id="node6" class="node">
<title>7a5f87fe&#45;c408&#45;4cda&#45;9d45&#45;ce4192437159</title>
<ellipse fill="cornsilk" stroke="black" cx="315" cy="-90" rx="27" ry="18"/>
<text text-anchor="middle" x="315" y="-86.3" font-family="Helvetica,sans-Serif" font-size="14.00">A</text>
</g>
<!-- 7a5f87fe&#45;c408&#45;4cda&#45;9d45&#45;ce4192437159&#45;&gt;27507655&#45;414a&#45;49bb&#45;a73d&#45;ce2b8575cce1 -->
<g id="edge5" class="edge">
<title>7a5f87fe&#45;c408&#45;4cda&#45;9d45&#45;ce4192437159&#45;&gt;27507655&#45;414a&#45;49bb&#45;a73d&#45;ce2b8575cce1</title>
<path fill="none" stroke="black" d="M293.75,-78.67C268.42,-66.36 226.03,-45.75 198.29,-32.27"/>
<polygon fill="none" stroke="black" points="199.67,-29.04 189.14,-27.82 196.61,-35.34 199.67,-29.04"/>
</g>
</g>
</svg>
