<?xml version="1.0" encoding="UTF-8" standalone="no"?>
<!DOCTYPE svg PUBLIC "-//W3C//DTD SVG 1.1//EN"
 "http://www.w3.org/Graphics/SVG/1.1/DTD/svg11.dtd">
<!-- Generated by graphviz version 2.38.0 (20140413.2041)
 -->
<!-- Title: %3 Pages: 1 -->
<svg width="350pt" height="116pt"
 viewBox="0.00 0.00 350.00 116.00" xmlns="http://www.w3.org/2000/svg" xmlns:xlink="http://www.w3.org/1999/xlink">
<g id="graph0" class="graph" transform="scale(1 1) rotate(0) translate(4 112)">
<title>%3</title>
<polygon fill="white" stroke="none" points="-4,4 -4,-112 346,-112 346,4 -4,4"/>
<!-- baf3c203&#45;81d4&#45;4451&#45;8c51&#45;dfd485a8240d -->
<g id="node1" class="node"><title>baf3c203&#45;81d4&#45;4451&#45;8c51&#45;dfd485a8240d</title>
<ellipse fill="cornsilk" stroke="black" cx="27" cy="-90" rx="27" ry="18"/>
<text text-anchor="middle" x="27" y="-86.3" font-family="Helvetica,sans-Serif" font-size="14.00">D</text>
</g>
<!-- 73ad01b5&#45;9a61&#45;49b9&#45;911d&#45;ef4de82fe4b5 -->
<g id="node2" class="node"><title>73ad01b5&#45;9a61&#45;49b9&#45;911d&#45;ef4de82fe4b5</title>
<polygon fill="cornsilk" stroke="black" points="198,-36 144,-36 144,-0 198,-0 198,-36"/>
<text text-anchor="middle" x="171" y="-14.3" font-family="Helvetica,sans-Serif" font-size="14.00">V</text>
</g>
<!-- baf3c203&#45;81d4&#45;4451&#45;8c51&#45;dfd485a8240d&#45;&gt;73ad01b5&#45;9a61&#45;49b9&#45;911d&#45;ef4de82fe4b5 -->
<g id="edge1" class="edge"><title>baf3c203&#45;81d4&#45;4451&#45;8c51&#45;dfd485a8240d&#45;&gt;73ad01b5&#45;9a61&#45;49b9&#45;911d&#45;ef4de82fe4b5</title>
<path fill="none" stroke="black" d="M48.2477,-78.6713C70.9222,-67.6489 107.26,-49.9846 134.527,-36.7299"/>
<polygon fill="none" stroke="black" points="136.293,-39.7634 143.756,-32.2436 133.232,-33.4678 136.293,-39.7634"/>
</g>
<!-- bd4481c9&#45;8a75&#45;4fcc&#45;b79a&#45;da0eefa3f274 -->
<g id="node3" class="node"><title>bd4481c9&#45;8a75&#45;4fcc&#45;b79a&#45;da0eefa3f274</title>
<ellipse fill="cornsilk" stroke="black" cx="99" cy="-90" rx="27" ry="18"/>
<text text-anchor="middle" x="99" y="-86.3" font-family="Helvetica,sans-Serif" font-size="14.00">A</text>
</g>
<!-- bd4481c9&#45;8a75&#45;4fcc&#45;b79a&#45;da0eefa3f274&#45;&gt;73ad01b5&#45;9a61&#45;49b9&#45;911d&#45;ef4de82fe4b5 -->
<g id="edge2" class="edge"><title>bd4481c9&#45;8a75&#45;4fcc&#45;b79a&#45;da0eefa3f274&#45;&gt;73ad01b5&#45;9a61&#45;49b9&#45;911d&#45;ef4de82fe4b5</title>
<path fill="none" stroke="black" d="M113.57,-74.8345C122.918,-65.7459 135.298,-53.7105 146.169,-43.1413"/>
<polygon fill="none" stroke="black" points="148.668,-45.593 153.398,-36.1127 143.789,-40.5741 148.668,-45.593"/>
</g>
<!-- b15219f6&#45;9c8d&#45;4660&#45;8a7d&#45;1ca562fa97db -->
<g id="node4" class="node"><title>b15219f6&#45;9c8d&#45;4660&#45;8a7d&#45;1ca562fa97db</title>
<ellipse fill="cornsilk" stroke="black" cx="171" cy="-90" rx="27" ry="18"/>
<text text-anchor="middle" x="171" y="-86.3" font-family="Helvetica,sans-Serif" font-size="14.00">E</text>
</g>
<!-- b15219f6&#45;9c8d&#45;4660&#45;8a7d&#45;1ca562fa97db&#45;&gt;73ad01b5&#45;9a61&#45;49b9&#45;911d&#45;ef4de82fe4b5 -->
<g id="edge3" class="edge"><title>b15219f6&#45;9c8d&#45;4660&#45;8a7d&#45;1ca562fa97db&#45;&gt;73ad01b5&#45;9a61&#45;49b9&#45;911d&#45;ef4de82fe4b5</title>
<path fill="none" stroke="black" d="M171,-71.6966C171,-63.9827 171,-54.7125 171,-46.1124"/>
<polygon fill="none" stroke="black" points="174.5,-46.1043 171,-36.1043 167.5,-46.1044 174.5,-46.1043"/>
</g>
<!-- 92dd9301&#45;0304&#45;4c26&#45;82b5&#45;468ff1b0d35a -->
<g id="node5" class="node"><title>92dd9301&#45;0304&#45;4c26&#45;82b5&#45;468ff1b0d35a</title>
<ellipse fill="cornsilk" stroke="black" cx="243" cy="-90" rx="27" ry="18"/>
<text text-anchor="middle" x="243" y="-86.3" font-family="Helvetica,sans-Serif" font-size="14.00">B</text>
</g>
<!-- 92dd9301&#45;0304&#45;4c26&#45;82b5&#45;468ff1b0d35a&#45;&gt;73ad01b5&#45;9a61&#45;49b9&#45;911d&#45;ef4de82fe4b5 -->
<g id="edge4" class="edge"><title>92dd9301&#45;0304&#45;4c26&#45;82b5&#45;468ff1b0d35a&#45;&gt;73ad01b5&#45;9a61&#45;49b9&#45;911d&#45;ef4de82fe4b5</title>
<path fill="none" stroke="black" d="M228.43,-74.8345C219.082,-65.7459 206.702,-53.7105 195.831,-43.1413"/>
<polygon fill="none" stroke="black" points="198.211,-40.5741 188.602,-36.1127 193.332,-45.593 198.211,-40.5741"/>
</g>
<!-- 99267dc5&#45;62d0&#45;47ac&#45;88b0&#45;c0f39a46d96f -->
<g id="node6" class="node"><title>99267dc5&#45;62d0&#45;47ac&#45;88b0&#45;c0f39a46d96f</title>
<ellipse fill="cornsilk" stroke="black" cx="315" cy="-90" rx="27" ry="18"/>
<text text-anchor="middle" x="315" y="-86.3" font-family="Helvetica,sans-Serif" font-size="14.00">C</text>
</g>
<!-- 99267dc5&#45;62d0&#45;47ac&#45;88b0&#45;c0f39a46d96f&#45;&gt;73ad01b5&#45;9a61&#45;49b9&#45;911d&#45;ef4de82fe4b5 -->
<g id="edge5" class="edge"><title>99267dc5&#45;62d0&#45;47ac&#45;88b0&#45;c0f39a46d96f&#45;&gt;73ad01b5&#45;9a61&#45;49b9&#45;911d&#45;ef4de82fe4b5</title>
<path fill="none" stroke="black" d="M293.752,-78.6713C271.078,-67.6489 234.74,-49.9846 207.473,-36.7299"/>
<polygon fill="none" stroke="black" points="208.768,-33.4678 198.244,-32.2436 205.707,-39.7634 208.768,-33.4678"/>
</g>
</g>
</svg>
