<?xml version="1.0" encoding="UTF-8" standalone="no"?>
<!DOCTYPE svg PUBLIC "-//W3C//DTD SVG 1.1//EN"
 "http://www.w3.org/Graphics/SVG/1.1/DTD/svg11.dtd">
<!-- Generated by graphviz version 2.38.0 (20140413.2041)
 -->
<!-- Title: %3 Pages: 1 -->
<svg width="350pt" height="116pt"
 viewBox="0.00 0.00 350.00 116.00" xmlns="http://www.w3.org/2000/svg" xmlns:xlink="http://www.w3.org/1999/xlink">
<g id="graph0" class="graph" transform="scale(1 1) rotate(0) translate(4 112)">
<title>%3</title>
<polygon fill="white" stroke="none" points="-4,4 -4,-112 346,-112 346,4 -4,4"/>
<!-- 64c33a4e&#45;c03f&#45;4ce6&#45;966f&#45;60621a714552 -->
<g id="node1" class="node"><title>64c33a4e&#45;c03f&#45;4ce6&#45;966f&#45;60621a714552</title>
<ellipse fill="cornsilk" stroke="black" cx="27" cy="-90" rx="27" ry="18"/>
<text text-anchor="middle" x="27" y="-86.3" font-family="Helvetica,sans-Serif" font-size="14.00">D</text>
</g>
<!-- 72d18925&#45;5889&#45;40a7&#45;ae12&#45;d19339d77943 -->
<g id="node2" class="node"><title>72d18925&#45;5889&#45;40a7&#45;ae12&#45;d19339d77943</title>
<polygon fill="cornsilk" stroke="black" points="198.985,-36 154.467,-36 143.015,-1.42109e-14 187.533,-3.55271e-15 198.985,-36"/>
<text text-anchor="middle" x="171" y="-14.3" font-family="Helvetica,sans-Serif" font-size="14.00">Q</text>
</g>
<!-- 64c33a4e&#45;c03f&#45;4ce6&#45;966f&#45;60621a714552&#45;&gt;72d18925&#45;5889&#45;40a7&#45;ae12&#45;d19339d77943 -->
<g id="edge1" class="edge"><title>64c33a4e&#45;c03f&#45;4ce6&#45;966f&#45;60621a714552&#45;&gt;72d18925&#45;5889&#45;40a7&#45;ae12&#45;d19339d77943</title>
<path fill="none" stroke="black" d="M48.2477,-78.6713C73.3017,-66.4923 115.037,-46.2041 142.785,-32.7156"/>
<polygon fill="none" stroke="black" points="144.503,-35.7723 151.966,-28.2526 141.442,-29.4768 144.503,-35.7723"/>
</g>
<!-- 013b69e2&#45;f4e2&#45;462b&#45;97a9&#45;746db618e93d -->
<g id="node3" class="node"><title>013b69e2&#45;f4e2&#45;462b&#45;97a9&#45;746db618e93d</title>
<ellipse fill="cornsilk" stroke="black" cx="99" cy="-90" rx="27" ry="18"/>
<text text-anchor="middle" x="99" y="-86.3" font-family="Helvetica,sans-Serif" font-size="14.00">A</text>
</g>
<!-- 013b69e2&#45;f4e2&#45;462b&#45;97a9&#45;746db618e93d&#45;&gt;72d18925&#45;5889&#45;40a7&#45;ae12&#45;d19339d77943 -->
<g id="edge2" class="edge"><title>013b69e2&#45;f4e2&#45;462b&#45;97a9&#45;746db618e93d&#45;&gt;72d18925&#45;5889&#45;40a7&#45;ae12&#45;d19339d77943</title>
<path fill="none" stroke="black" d="M113.57,-74.8345C123.119,-65.5512 135.83,-53.1933 146.866,-42.4639"/>
<polygon fill="none" stroke="black" points="149.449,-44.8342 154.179,-35.3539 144.569,-39.8152 149.449,-44.8342"/>
</g>
<!-- f8660dd7&#45;22eb&#45;4b5f&#45;a317&#45;ee01ff7431cb -->
<g id="node4" class="node"><title>f8660dd7&#45;22eb&#45;4b5f&#45;a317&#45;ee01ff7431cb</title>
<ellipse fill="cornsilk" stroke="black" cx="171" cy="-90" rx="27" ry="18"/>
<text text-anchor="middle" x="171" y="-86.3" font-family="Helvetica,sans-Serif" font-size="14.00">E</text>
</g>
<!-- f8660dd7&#45;22eb&#45;4b5f&#45;a317&#45;ee01ff7431cb&#45;&gt;72d18925&#45;5889&#45;40a7&#45;ae12&#45;d19339d77943 -->
<g id="edge3" class="edge"><title>f8660dd7&#45;22eb&#45;4b5f&#45;a317&#45;ee01ff7431cb&#45;&gt;72d18925&#45;5889&#45;40a7&#45;ae12&#45;d19339d77943</title>
<path fill="none" stroke="black" d="M171,-71.6966C171,-63.9827 171,-54.7125 171,-46.1124"/>
<polygon fill="none" stroke="black" points="174.5,-46.1043 171,-36.1043 167.5,-46.1044 174.5,-46.1043"/>
</g>
<!-- c909424c&#45;728b&#45;4ed6&#45;9736&#45;7592f5e6a937 -->
<g id="node5" class="node"><title>c909424c&#45;728b&#45;4ed6&#45;9736&#45;7592f5e6a937</title>
<ellipse fill="cornsilk" stroke="black" cx="243" cy="-90" rx="27" ry="18"/>
<text text-anchor="middle" x="243" y="-86.3" font-family="Helvetica,sans-Serif" font-size="14.00">B</text>
</g>
<!-- c909424c&#45;728b&#45;4ed6&#45;9736&#45;7592f5e6a937&#45;&gt;72d18925&#45;5889&#45;40a7&#45;ae12&#45;d19339d77943 -->
<g id="edge4" class="edge"><title>c909424c&#45;728b&#45;4ed6&#45;9736&#45;7592f5e6a937&#45;&gt;72d18925&#45;5889&#45;40a7&#45;ae12&#45;d19339d77943</title>
<path fill="none" stroke="black" d="M228.43,-74.8345C219.082,-65.7459 206.702,-53.7105 195.831,-43.1413"/>
<polygon fill="none" stroke="black" points="198.211,-40.5741 188.602,-36.1127 193.332,-45.593 198.211,-40.5741"/>
</g>
<!-- dcbed96b&#45;672b&#45;4d99&#45;977d&#45;4ebeab51a8f0 -->
<g id="node6" class="node"><title>dcbed96b&#45;672b&#45;4d99&#45;977d&#45;4ebeab51a8f0</title>
<ellipse fill="cornsilk" stroke="black" cx="315" cy="-90" rx="27" ry="18"/>
<text text-anchor="middle" x="315" y="-86.3" font-family="Helvetica,sans-Serif" font-size="14.00">C</text>
</g>
<!-- dcbed96b&#45;672b&#45;4d99&#45;977d&#45;4ebeab51a8f0&#45;&gt;72d18925&#45;5889&#45;40a7&#45;ae12&#45;d19339d77943 -->
<g id="edge5" class="edge"><title>dcbed96b&#45;672b&#45;4d99&#45;977d&#45;4ebeab51a8f0&#45;&gt;72d18925&#45;5889&#45;40a7&#45;ae12&#45;d19339d77943</title>
<path fill="none" stroke="black" d="M293.752,-78.6713C270.938,-67.5809 234.291,-49.7663 206.969,-36.485"/>
<polygon fill="none" stroke="black" points="208.256,-33.2189 197.732,-31.9947 205.196,-39.5145 208.256,-33.2189"/>
</g>
</g>
</svg>
