<?xml version="1.0" encoding="UTF-8" standalone="no"?>
<!DOCTYPE svg PUBLIC "-//W3C//DTD SVG 1.1//EN"
 "http://www.w3.org/Graphics/SVG/1.1/DTD/svg11.dtd">
<!-- Generated by graphviz version 2.38.0 (20140413.2041)
 -->
<!-- Title: %3 Pages: 1 -->
<svg width="350pt" height="116pt"
 viewBox="0.00 0.00 350.00 116.00" xmlns="http://www.w3.org/2000/svg" xmlns:xlink="http://www.w3.org/1999/xlink">
<g id="graph0" class="graph" transform="scale(1 1) rotate(0) translate(4 112)">
<title>%3</title>
<polygon fill="white" stroke="none" points="-4,4 -4,-112 346,-112 346,4 -4,4"/>
<!-- 0ed167d8&#45;cef3&#45;4d21&#45;860c&#45;26c27b321c9f -->
<g id="node1" class="node"><title>0ed167d8&#45;cef3&#45;4d21&#45;860c&#45;26c27b321c9f</title>
<ellipse fill="cornsilk" stroke="black" cx="27" cy="-90" rx="27" ry="18"/>
<text text-anchor="middle" x="27" y="-86.3" font-family="Helvetica,sans-Serif" font-size="14.00">D</text>
</g>
<!-- 126c52de&#45;e766&#45;4f61&#45;882c&#45;61a952e0db8b -->
<g id="node2" class="node"><title>126c52de&#45;e766&#45;4f61&#45;882c&#45;61a952e0db8b</title>
<polygon fill="cornsilk" stroke="black" points="198.985,-36 154.467,-36 143.015,-1.42109e-14 187.533,-3.55271e-15 198.985,-36"/>
<text text-anchor="middle" x="171" y="-14.3" font-family="Helvetica,sans-Serif" font-size="14.00">Q</text>
</g>
<!-- 0ed167d8&#45;cef3&#45;4d21&#45;860c&#45;26c27b321c9f&#45;&gt;126c52de&#45;e766&#45;4f61&#45;882c&#45;61a952e0db8b -->
<g id="edge1" class="edge"><title>0ed167d8&#45;cef3&#45;4d21&#45;860c&#45;26c27b321c9f&#45;&gt;126c52de&#45;e766&#45;4f61&#45;882c&#45;61a952e0db8b</title>
<path fill="none" stroke="black" d="M48.2477,-78.6713C73.3017,-66.4923 115.037,-46.2041 142.785,-32.7156"/>
<polygon fill="none" stroke="black" points="144.503,-35.7723 151.966,-28.2526 141.442,-29.4768 144.503,-35.7723"/>
</g>
<!-- d5cf1a82&#45;384d&#45;4db0&#45;b6e0&#45;85a0dbbb3cf1 -->
<g id="node3" class="node"><title>d5cf1a82&#45;384d&#45;4db0&#45;b6e0&#45;85a0dbbb3cf1</title>
<ellipse fill="cornsilk" stroke="black" cx="99" cy="-90" rx="27" ry="18"/>
<text text-anchor="middle" x="99" y="-86.3" font-family="Helvetica,sans-Serif" font-size="14.00">A</text>
</g>
<!-- d5cf1a82&#45;384d&#45;4db0&#45;b6e0&#45;85a0dbbb3cf1&#45;&gt;126c52de&#45;e766&#45;4f61&#45;882c&#45;61a952e0db8b -->
<g id="edge2" class="edge"><title>d5cf1a82&#45;384d&#45;4db0&#45;b6e0&#45;85a0dbbb3cf1&#45;&gt;126c52de&#45;e766&#45;4f61&#45;882c&#45;61a952e0db8b</title>
<path fill="none" stroke="black" d="M113.57,-74.8345C123.119,-65.5512 135.83,-53.1933 146.866,-42.4639"/>
<polygon fill="none" stroke="black" points="149.449,-44.8342 154.179,-35.3539 144.569,-39.8152 149.449,-44.8342"/>
</g>
<!-- d3b63900&#45;4fe6&#45;40b7&#45;8d47&#45;d6d02c16db7a -->
<g id="node4" class="node"><title>d3b63900&#45;4fe6&#45;40b7&#45;8d47&#45;d6d02c16db7a</title>
<ellipse fill="cornsilk" stroke="black" cx="171" cy="-90" rx="27" ry="18"/>
<text text-anchor="middle" x="171" y="-86.3" font-family="Helvetica,sans-Serif" font-size="14.00">E</text>
</g>
<!-- d3b63900&#45;4fe6&#45;40b7&#45;8d47&#45;d6d02c16db7a&#45;&gt;126c52de&#45;e766&#45;4f61&#45;882c&#45;61a952e0db8b -->
<g id="edge3" class="edge"><title>d3b63900&#45;4fe6&#45;40b7&#45;8d47&#45;d6d02c16db7a&#45;&gt;126c52de&#45;e766&#45;4f61&#45;882c&#45;61a952e0db8b</title>
<path fill="none" stroke="black" d="M171,-71.6966C171,-63.9827 171,-54.7125 171,-46.1124"/>
<polygon fill="none" stroke="black" points="174.5,-46.1043 171,-36.1043 167.5,-46.1044 174.5,-46.1043"/>
</g>
<!-- ef45d257&#45;57b6&#45;4f1c&#45;adae&#45;addffbf8e914 -->
<g id="node5" class="node"><title>ef45d257&#45;57b6&#45;4f1c&#45;adae&#45;addffbf8e914</title>
<ellipse fill="cornsilk" stroke="black" cx="243" cy="-90" rx="27" ry="18"/>
<text text-anchor="middle" x="243" y="-86.3" font-family="Helvetica,sans-Serif" font-size="14.00">B</text>
</g>
<!-- ef45d257&#45;57b6&#45;4f1c&#45;adae&#45;addffbf8e914&#45;&gt;126c52de&#45;e766&#45;4f61&#45;882c&#45;61a952e0db8b -->
<g id="edge4" class="edge"><title>ef45d257&#45;57b6&#45;4f1c&#45;adae&#45;addffbf8e914&#45;&gt;126c52de&#45;e766&#45;4f61&#45;882c&#45;61a952e0db8b</title>
<path fill="none" stroke="black" d="M228.43,-74.8345C219.082,-65.7459 206.702,-53.7105 195.831,-43.1413"/>
<polygon fill="none" stroke="black" points="198.211,-40.5741 188.602,-36.1127 193.332,-45.593 198.211,-40.5741"/>
</g>
<!-- 55acbfeb&#45;11ef&#45;47a4&#45;8cd6&#45;72c93e7ed5ca -->
<g id="node6" class="node"><title>55acbfeb&#45;11ef&#45;47a4&#45;8cd6&#45;72c93e7ed5ca</title>
<ellipse fill="cornsilk" stroke="black" cx="315" cy="-90" rx="27" ry="18"/>
<text text-anchor="middle" x="315" y="-86.3" font-family="Helvetica,sans-Serif" font-size="14.00">C</text>
</g>
<!-- 55acbfeb&#45;11ef&#45;47a4&#45;8cd6&#45;72c93e7ed5ca&#45;&gt;126c52de&#45;e766&#45;4f61&#45;882c&#45;61a952e0db8b -->
<g id="edge5" class="edge"><title>55acbfeb&#45;11ef&#45;47a4&#45;8cd6&#45;72c93e7ed5ca&#45;&gt;126c52de&#45;e766&#45;4f61&#45;882c&#45;61a952e0db8b</title>
<path fill="none" stroke="black" d="M293.752,-78.6713C270.938,-67.5809 234.291,-49.7663 206.969,-36.485"/>
<polygon fill="none" stroke="black" points="208.256,-33.2189 197.732,-31.9947 205.196,-39.5145 208.256,-33.2189"/>
</g>
</g>
</svg>
