<?xml version="1.0" encoding="UTF-8" standalone="no"?>
<!DOCTYPE svg PUBLIC "-//W3C//DTD SVG 1.1//EN"
 "http://www.w3.org/Graphics/SVG/1.1/DTD/svg11.dtd">
<!-- Generated by graphviz version 2.43.0 (0)
 -->
<!-- Title: %3 Pages: 1 -->
<svg width="350pt" height="116pt"
 viewBox="0.00 0.00 350.00 116.00" xmlns="http://www.w3.org/2000/svg" xmlns:xlink="http://www.w3.org/1999/xlink">
<g id="graph0" class="graph" transform="scale(1 1) rotate(0) translate(4 112)">
<title>%3</title>
<polygon fill="white" stroke="transparent" points="-4,4 -4,-112 346,-112 346,4 -4,4"/>
<!-- e922a965&#45;044e&#45;4035&#45;8132&#45;ce6429d8d178 -->
<g id="node1" class="node">
<title>e922a965&#45;044e&#45;4035&#45;8132&#45;ce6429d8d178</title>
<ellipse fill="cornsilk" stroke="black" cx="27" cy="-90" rx="27" ry="18"/>
<text text-anchor="middle" x="27" y="-86.3" font-family="Helvetica,sans-Serif" font-size="14.00">D</text>
</g>
<!-- 45fbb48e&#45;5474&#45;4ab7&#45;8cc9&#45;a5b253557e9a -->
<g id="node2" class="node">
<title>45fbb48e&#45;5474&#45;4ab7&#45;8cc9&#45;a5b253557e9a</title>
<polygon fill="cornsilk" stroke="black" points="198,-10.54 198,-25.46 182.18,-36 159.82,-36 144,-25.46 144,-10.54 159.82,0 182.18,0 198,-10.54"/>
<text text-anchor="middle" x="171" y="-14.3" font-family="Helvetica,sans-Serif" font-size="14.00">Z</text>
</g>
<!-- e922a965&#45;044e&#45;4035&#45;8132&#45;ce6429d8d178&#45;&gt;45fbb48e&#45;5474&#45;4ab7&#45;8cc9&#45;a5b253557e9a -->
<g id="edge1" class="edge">
<title>e922a965&#45;044e&#45;4035&#45;8132&#45;ce6429d8d178&#45;&gt;45fbb48e&#45;5474&#45;4ab7&#45;8cc9&#45;a5b253557e9a</title>
<path fill="none" stroke="black" d="M48.25,-78.67C72.6,-66.83 112.72,-47.33 140.43,-33.86"/>
<polygon fill="none" stroke="black" points="142.2,-36.89 149.67,-29.37 139.14,-30.6 142.2,-36.89"/>
</g>
<!-- 8f87ce2c&#45;7c61&#45;4a49&#45;9217&#45;a8f4157ae46b -->
<g id="node3" class="node">
<title>8f87ce2c&#45;7c61&#45;4a49&#45;9217&#45;a8f4157ae46b</title>
<ellipse fill="cornsilk" stroke="black" cx="99" cy="-90" rx="27" ry="18"/>
<text text-anchor="middle" x="99" y="-86.3" font-family="Helvetica,sans-Serif" font-size="14.00">C</text>
</g>
<!-- 8f87ce2c&#45;7c61&#45;4a49&#45;9217&#45;a8f4157ae46b&#45;&gt;45fbb48e&#45;5474&#45;4ab7&#45;8cc9&#45;a5b253557e9a -->
<g id="edge2" class="edge">
<title>8f87ce2c&#45;7c61&#45;4a49&#45;9217&#45;a8f4157ae46b&#45;&gt;45fbb48e&#45;5474&#45;4ab7&#45;8cc9&#45;a5b253557e9a</title>
<path fill="none" stroke="black" d="M113.57,-74.83C123.59,-65.1 137.08,-51.98 148.47,-40.9"/>
<polygon fill="none" stroke="black" points="151.23,-43.11 155.96,-33.63 146.35,-38.09 151.23,-43.11"/>
</g>
<!-- 09b5b962&#45;be16&#45;4a83&#45;bd3a&#45;3d8bfd7c5053 -->
<g id="node4" class="node">
<title>09b5b962&#45;be16&#45;4a83&#45;bd3a&#45;3d8bfd7c5053</title>
<ellipse fill="cornsilk" stroke="black" cx="171" cy="-90" rx="27" ry="18"/>
<text text-anchor="middle" x="171" y="-86.3" font-family="Helvetica,sans-Serif" font-size="14.00">E</text>
</g>
<!-- 09b5b962&#45;be16&#45;4a83&#45;bd3a&#45;3d8bfd7c5053&#45;&gt;45fbb48e&#45;5474&#45;4ab7&#45;8cc9&#45;a5b253557e9a -->
<g id="edge3" class="edge">
<title>09b5b962&#45;be16&#45;4a83&#45;bd3a&#45;3d8bfd7c5053&#45;&gt;45fbb48e&#45;5474&#45;4ab7&#45;8cc9&#45;a5b253557e9a</title>
<path fill="none" stroke="black" d="M171,-71.7C171,-63.98 171,-54.71 171,-46.11"/>
<polygon fill="none" stroke="black" points="174.5,-46.1 171,-36.1 167.5,-46.1 174.5,-46.1"/>
</g>
<!-- 79e86ce2&#45;d686&#45;49cb&#45;8876&#45;bb2380a15310 -->
<g id="node5" class="node">
<title>79e86ce2&#45;d686&#45;49cb&#45;8876&#45;bb2380a15310</title>
<ellipse fill="cornsilk" stroke="black" cx="243" cy="-90" rx="27" ry="18"/>
<text text-anchor="middle" x="243" y="-86.3" font-family="Helvetica,sans-Serif" font-size="14.00">B</text>
</g>
<!-- 79e86ce2&#45;d686&#45;49cb&#45;8876&#45;bb2380a15310&#45;&gt;45fbb48e&#45;5474&#45;4ab7&#45;8cc9&#45;a5b253557e9a -->
<g id="edge4" class="edge">
<title>79e86ce2&#45;d686&#45;49cb&#45;8876&#45;bb2380a15310&#45;&gt;45fbb48e&#45;5474&#45;4ab7&#45;8cc9&#45;a5b253557e9a</title>
<path fill="none" stroke="black" d="M228.43,-74.83C218.41,-65.1 204.92,-51.98 193.53,-40.9"/>
<polygon fill="none" stroke="black" points="195.65,-38.09 186.04,-33.63 190.77,-43.11 195.65,-38.09"/>
</g>
<!-- 754bb063&#45;1723&#45;4494&#45;9c0b&#45;f0caca1c1f74 -->
<g id="node6" class="node">
<title>754bb063&#45;1723&#45;4494&#45;9c0b&#45;f0caca1c1f74</title>
<ellipse fill="cornsilk" stroke="black" cx="315" cy="-90" rx="27" ry="18"/>
<text text-anchor="middle" x="315" y="-86.3" font-family="Helvetica,sans-Serif" font-size="14.00">A</text>
</g>
<!-- 754bb063&#45;1723&#45;4494&#45;9c0b&#45;f0caca1c1f74&#45;&gt;45fbb48e&#45;5474&#45;4ab7&#45;8cc9&#45;a5b253557e9a -->
<g id="edge5" class="edge">
<title>754bb063&#45;1723&#45;4494&#45;9c0b&#45;f0caca1c1f74&#45;&gt;45fbb48e&#45;5474&#45;4ab7&#45;8cc9&#45;a5b253557e9a</title>
<path fill="none" stroke="black" d="M293.75,-78.67C269.4,-66.83 229.28,-47.33 201.57,-33.86"/>
<polygon fill="none" stroke="black" points="202.86,-30.6 192.33,-29.37 199.8,-36.89 202.86,-30.6"/>
</g>
</g>
</svg>
