<?xml version="1.0" encoding="UTF-8" standalone="no"?>
<!DOCTYPE svg PUBLIC "-//W3C//DTD SVG 1.1//EN"
 "http://www.w3.org/Graphics/SVG/1.1/DTD/svg11.dtd">
<!-- Generated by graphviz version 2.43.0 (0)
 -->
<!-- Title: %3 Pages: 1 -->
<svg width="350pt" height="116pt"
 viewBox="0.00 0.00 350.00 116.00" xmlns="http://www.w3.org/2000/svg" xmlns:xlink="http://www.w3.org/1999/xlink">
<g id="graph0" class="graph" transform="scale(1 1) rotate(0) translate(4 112)">
<title>%3</title>
<polygon fill="white" stroke="transparent" points="-4,4 -4,-112 346,-112 346,4 -4,4"/>
<!-- 0a478a47&#45;d2ad&#45;476b&#45;a782&#45;184c03ca7dac -->
<g id="node1" class="node">
<title>0a478a47&#45;d2ad&#45;476b&#45;a782&#45;184c03ca7dac</title>
<ellipse fill="cornsilk" stroke="black" cx="27" cy="-90" rx="27" ry="18"/>
<text text-anchor="middle" x="27" y="-86.3" font-family="Helvetica,sans-Serif" font-size="14.00">D</text>
</g>
<!-- e0873b9c&#45;480f&#45;479f&#45;bf46&#45;354435a8c20a -->
<g id="node2" class="node">
<title>e0873b9c&#45;480f&#45;479f&#45;bf46&#45;354435a8c20a</title>
<polygon fill="cornsilk" stroke="black" points="155.23,0 186.77,0 198,-36 144,-36 155.23,0"/>
<text text-anchor="middle" x="171" y="-14.3" font-family="Helvetica,sans-Serif" font-size="14.00">Y</text>
</g>
<!-- 0a478a47&#45;d2ad&#45;476b&#45;a782&#45;184c03ca7dac&#45;&gt;e0873b9c&#45;480f&#45;479f&#45;bf46&#45;354435a8c20a -->
<g id="edge1" class="edge">
<title>0a478a47&#45;d2ad&#45;476b&#45;a782&#45;184c03ca7dac&#45;&gt;e0873b9c&#45;480f&#45;479f&#45;bf46&#45;354435a8c20a</title>
<path fill="none" stroke="black" d="M48.25,-78.67C71.34,-67.44 108.61,-49.33 136.03,-36"/>
<polygon fill="none" stroke="black" points="137.82,-39.02 145.28,-31.5 134.76,-32.73 137.82,-39.02"/>
</g>
<!-- cd647cd8&#45;231b&#45;44d1&#45;8766&#45;63ad6d1d5fd2 -->
<g id="node3" class="node">
<title>cd647cd8&#45;231b&#45;44d1&#45;8766&#45;63ad6d1d5fd2</title>
<ellipse fill="cornsilk" stroke="black" cx="99" cy="-90" rx="27" ry="18"/>
<text text-anchor="middle" x="99" y="-86.3" font-family="Helvetica,sans-Serif" font-size="14.00">C</text>
</g>
<!-- cd647cd8&#45;231b&#45;44d1&#45;8766&#45;63ad6d1d5fd2&#45;&gt;e0873b9c&#45;480f&#45;479f&#45;bf46&#45;354435a8c20a -->
<g id="edge2" class="edge">
<title>cd647cd8&#45;231b&#45;44d1&#45;8766&#45;63ad6d1d5fd2&#45;&gt;e0873b9c&#45;480f&#45;479f&#45;bf46&#45;354435a8c20a</title>
<path fill="none" stroke="black" d="M113.57,-74.83C122.92,-65.75 135.3,-53.71 146.17,-43.14"/>
<polygon fill="none" stroke="black" points="148.67,-45.59 153.4,-36.11 143.79,-40.57 148.67,-45.59"/>
</g>
<!-- caafb0ae&#45;9552&#45;41a5&#45;99d6&#45;1a63e7d599ba -->
<g id="node4" class="node">
<title>caafb0ae&#45;9552&#45;41a5&#45;99d6&#45;1a63e7d599ba</title>
<ellipse fill="cornsilk" stroke="black" cx="171" cy="-90" rx="27" ry="18"/>
<text text-anchor="middle" x="171" y="-86.3" font-family="Helvetica,sans-Serif" font-size="14.00">E</text>
</g>
<!-- caafb0ae&#45;9552&#45;41a5&#45;99d6&#45;1a63e7d599ba&#45;&gt;e0873b9c&#45;480f&#45;479f&#45;bf46&#45;354435a8c20a -->
<g id="edge3" class="edge">
<title>caafb0ae&#45;9552&#45;41a5&#45;99d6&#45;1a63e7d599ba&#45;&gt;e0873b9c&#45;480f&#45;479f&#45;bf46&#45;354435a8c20a</title>
<path fill="none" stroke="black" d="M171,-71.7C171,-63.98 171,-54.71 171,-46.11"/>
<polygon fill="none" stroke="black" points="174.5,-46.1 171,-36.1 167.5,-46.1 174.5,-46.1"/>
</g>
<!-- b616df29&#45;ebf0&#45;4128&#45;bd41&#45;919f01db7d42 -->
<g id="node5" class="node">
<title>b616df29&#45;ebf0&#45;4128&#45;bd41&#45;919f01db7d42</title>
<ellipse fill="cornsilk" stroke="black" cx="243" cy="-90" rx="27" ry="18"/>
<text text-anchor="middle" x="243" y="-86.3" font-family="Helvetica,sans-Serif" font-size="14.00">B</text>
</g>
<!-- b616df29&#45;ebf0&#45;4128&#45;bd41&#45;919f01db7d42&#45;&gt;e0873b9c&#45;480f&#45;479f&#45;bf46&#45;354435a8c20a -->
<g id="edge4" class="edge">
<title>b616df29&#45;ebf0&#45;4128&#45;bd41&#45;919f01db7d42&#45;&gt;e0873b9c&#45;480f&#45;479f&#45;bf46&#45;354435a8c20a</title>
<path fill="none" stroke="black" d="M228.43,-74.83C219.08,-65.75 206.7,-53.71 195.83,-43.14"/>
<polygon fill="none" stroke="black" points="198.21,-40.57 188.6,-36.11 193.33,-45.59 198.21,-40.57"/>
</g>
<!-- 9a56fbea&#45;dc63&#45;41ca&#45;99db&#45;621fb044c532 -->
<g id="node6" class="node">
<title>9a56fbea&#45;dc63&#45;41ca&#45;99db&#45;621fb044c532</title>
<ellipse fill="cornsilk" stroke="black" cx="315" cy="-90" rx="27" ry="18"/>
<text text-anchor="middle" x="315" y="-86.3" font-family="Helvetica,sans-Serif" font-size="14.00">A</text>
</g>
<!-- 9a56fbea&#45;dc63&#45;41ca&#45;99db&#45;621fb044c532&#45;&gt;e0873b9c&#45;480f&#45;479f&#45;bf46&#45;354435a8c20a -->
<g id="edge5" class="edge">
<title>9a56fbea&#45;dc63&#45;41ca&#45;99db&#45;621fb044c532&#45;&gt;e0873b9c&#45;480f&#45;479f&#45;bf46&#45;354435a8c20a</title>
<path fill="none" stroke="black" d="M293.75,-78.67C270.66,-67.44 233.39,-49.33 205.97,-36"/>
<polygon fill="none" stroke="black" points="207.24,-32.73 196.72,-31.5 204.18,-39.02 207.24,-32.73"/>
</g>
</g>
</svg>
