<?xml version="1.0" encoding="UTF-8" standalone="no"?>
<!DOCTYPE svg PUBLIC "-//W3C//DTD SVG 1.1//EN"
 "http://www.w3.org/Graphics/SVG/1.1/DTD/svg11.dtd">
<!-- Generated by graphviz version 2.38.0 (20140413.2041)
 -->
<!-- Title: %3 Pages: 1 -->
<svg width="350pt" height="116pt"
 viewBox="0.00 0.00 350.00 116.00" xmlns="http://www.w3.org/2000/svg" xmlns:xlink="http://www.w3.org/1999/xlink">
<g id="graph0" class="graph" transform="scale(1 1) rotate(0) translate(4 112)">
<title>%3</title>
<polygon fill="white" stroke="none" points="-4,4 -4,-112 346,-112 346,4 -4,4"/>
<!-- f2ebd7fc&#45;707b&#45;4630&#45;bf0f&#45;7e22f3a32565 -->
<g id="node1" class="node"><title>f2ebd7fc&#45;707b&#45;4630&#45;bf0f&#45;7e22f3a32565</title>
<ellipse fill="cornsilk" stroke="black" cx="27" cy="-90" rx="27" ry="18"/>
<text text-anchor="middle" x="27" y="-86.3" font-family="Helvetica,sans-Serif" font-size="14.00">D</text>
</g>
<!-- 589a4dd7&#45;5d38&#45;4397&#45;b3bd&#45;1be2a42babc6 -->
<g id="node2" class="node"><title>589a4dd7&#45;5d38&#45;4397&#45;b3bd&#45;1be2a42babc6</title>
<polygon fill="cornsilk" stroke="black" points="155.232,-7.10543e-15 186.768,-7.10543e-15 198,-36 144,-36 155.232,-7.10543e-15"/>
<text text-anchor="middle" x="171" y="-14.3" font-family="Helvetica,sans-Serif" font-size="14.00">Y</text>
</g>
<!-- f2ebd7fc&#45;707b&#45;4630&#45;bf0f&#45;7e22f3a32565&#45;&gt;589a4dd7&#45;5d38&#45;4397&#45;b3bd&#45;1be2a42babc6 -->
<g id="edge1" class="edge"><title>f2ebd7fc&#45;707b&#45;4630&#45;bf0f&#45;7e22f3a32565&#45;&gt;589a4dd7&#45;5d38&#45;4397&#45;b3bd&#45;1be2a42babc6</title>
<path fill="none" stroke="black" d="M48.2477,-78.6713C71.3421,-67.4448 108.611,-49.3281 136.032,-35.9982"/>
<polygon fill="none" stroke="black" points="137.818,-39.0218 145.282,-31.502 134.758,-32.7262 137.818,-39.0218"/>
</g>
<!-- dc770ea9&#45;00df&#45;4a1e&#45;8ccf&#45;5a8005acd3eb -->
<g id="node3" class="node"><title>dc770ea9&#45;00df&#45;4a1e&#45;8ccf&#45;5a8005acd3eb</title>
<ellipse fill="cornsilk" stroke="black" cx="99" cy="-90" rx="27" ry="18"/>
<text text-anchor="middle" x="99" y="-86.3" font-family="Helvetica,sans-Serif" font-size="14.00">A</text>
</g>
<!-- dc770ea9&#45;00df&#45;4a1e&#45;8ccf&#45;5a8005acd3eb&#45;&gt;589a4dd7&#45;5d38&#45;4397&#45;b3bd&#45;1be2a42babc6 -->
<g id="edge2" class="edge"><title>dc770ea9&#45;00df&#45;4a1e&#45;8ccf&#45;5a8005acd3eb&#45;&gt;589a4dd7&#45;5d38&#45;4397&#45;b3bd&#45;1be2a42babc6</title>
<path fill="none" stroke="black" d="M113.57,-74.8345C122.918,-65.7459 135.298,-53.7105 146.169,-43.1413"/>
<polygon fill="none" stroke="black" points="148.668,-45.593 153.398,-36.1127 143.789,-40.5741 148.668,-45.593"/>
</g>
<!-- eab4bcd0&#45;c430&#45;482e&#45;b807&#45;dd38e31fba41 -->
<g id="node4" class="node"><title>eab4bcd0&#45;c430&#45;482e&#45;b807&#45;dd38e31fba41</title>
<ellipse fill="cornsilk" stroke="black" cx="171" cy="-90" rx="27" ry="18"/>
<text text-anchor="middle" x="171" y="-86.3" font-family="Helvetica,sans-Serif" font-size="14.00">E</text>
</g>
<!-- eab4bcd0&#45;c430&#45;482e&#45;b807&#45;dd38e31fba41&#45;&gt;589a4dd7&#45;5d38&#45;4397&#45;b3bd&#45;1be2a42babc6 -->
<g id="edge3" class="edge"><title>eab4bcd0&#45;c430&#45;482e&#45;b807&#45;dd38e31fba41&#45;&gt;589a4dd7&#45;5d38&#45;4397&#45;b3bd&#45;1be2a42babc6</title>
<path fill="none" stroke="black" d="M171,-71.6966C171,-63.9827 171,-54.7125 171,-46.1124"/>
<polygon fill="none" stroke="black" points="174.5,-46.1043 171,-36.1043 167.5,-46.1044 174.5,-46.1043"/>
</g>
<!-- 7257429f&#45;2278&#45;4ec0&#45;8ff5&#45;aee463a2c596 -->
<g id="node5" class="node"><title>7257429f&#45;2278&#45;4ec0&#45;8ff5&#45;aee463a2c596</title>
<ellipse fill="cornsilk" stroke="black" cx="243" cy="-90" rx="27" ry="18"/>
<text text-anchor="middle" x="243" y="-86.3" font-family="Helvetica,sans-Serif" font-size="14.00">B</text>
</g>
<!-- 7257429f&#45;2278&#45;4ec0&#45;8ff5&#45;aee463a2c596&#45;&gt;589a4dd7&#45;5d38&#45;4397&#45;b3bd&#45;1be2a42babc6 -->
<g id="edge4" class="edge"><title>7257429f&#45;2278&#45;4ec0&#45;8ff5&#45;aee463a2c596&#45;&gt;589a4dd7&#45;5d38&#45;4397&#45;b3bd&#45;1be2a42babc6</title>
<path fill="none" stroke="black" d="M228.43,-74.8345C219.082,-65.7459 206.702,-53.7105 195.831,-43.1413"/>
<polygon fill="none" stroke="black" points="198.211,-40.5741 188.602,-36.1127 193.332,-45.593 198.211,-40.5741"/>
</g>
<!-- 0ea57465&#45;3785&#45;4282&#45;8fa0&#45;7b5027ddf912 -->
<g id="node6" class="node"><title>0ea57465&#45;3785&#45;4282&#45;8fa0&#45;7b5027ddf912</title>
<ellipse fill="cornsilk" stroke="black" cx="315" cy="-90" rx="27" ry="18"/>
<text text-anchor="middle" x="315" y="-86.3" font-family="Helvetica,sans-Serif" font-size="14.00">C</text>
</g>
<!-- 0ea57465&#45;3785&#45;4282&#45;8fa0&#45;7b5027ddf912&#45;&gt;589a4dd7&#45;5d38&#45;4397&#45;b3bd&#45;1be2a42babc6 -->
<g id="edge5" class="edge"><title>0ea57465&#45;3785&#45;4282&#45;8fa0&#45;7b5027ddf912&#45;&gt;589a4dd7&#45;5d38&#45;4397&#45;b3bd&#45;1be2a42babc6</title>
<path fill="none" stroke="black" d="M293.752,-78.6713C270.658,-67.4448 233.389,-49.3281 205.968,-35.9982"/>
<polygon fill="none" stroke="black" points="207.242,-32.7262 196.718,-31.502 204.182,-39.0218 207.242,-32.7262"/>
</g>
</g>
</svg>
