<?xml version="1.0" encoding="UTF-8" standalone="no"?>
<!DOCTYPE svg PUBLIC "-//W3C//DTD SVG 1.1//EN"
 "http://www.w3.org/Graphics/SVG/1.1/DTD/svg11.dtd">
<!-- Generated by graphviz version 2.38.0 (20140413.2041)
 -->
<!-- Title: %3 Pages: 1 -->
<svg width="350pt" height="116pt"
 viewBox="0.00 0.00 350.00 116.00" xmlns="http://www.w3.org/2000/svg" xmlns:xlink="http://www.w3.org/1999/xlink">
<g id="graph0" class="graph" transform="scale(1 1) rotate(0) translate(4 112)">
<title>%3</title>
<polygon fill="white" stroke="none" points="-4,4 -4,-112 346,-112 346,4 -4,4"/>
<!-- 03f775b2&#45;679d&#45;4f1f&#45;932b&#45;87ecbb629e78 -->
<g id="node1" class="node"><title>03f775b2&#45;679d&#45;4f1f&#45;932b&#45;87ecbb629e78</title>
<ellipse fill="cornsilk" stroke="black" cx="27" cy="-90" rx="27" ry="18"/>
<text text-anchor="middle" x="27" y="-86.3" font-family="Helvetica,sans-Serif" font-size="14.00">D</text>
</g>
<!-- 683ee57d&#45;c14a&#45;4570&#45;9a03&#45;656e812a3c43 -->
<g id="node2" class="node"><title>683ee57d&#45;c14a&#45;4570&#45;9a03&#45;656e812a3c43</title>
<polygon fill="cornsilk" stroke="black" points="198,-36 144,-36 144,-0 198,-0 198,-36"/>
<text text-anchor="middle" x="171" y="-14.3" font-family="Helvetica,sans-Serif" font-size="14.00">W</text>
</g>
<!-- 03f775b2&#45;679d&#45;4f1f&#45;932b&#45;87ecbb629e78&#45;&gt;683ee57d&#45;c14a&#45;4570&#45;9a03&#45;656e812a3c43 -->
<g id="edge1" class="edge"><title>03f775b2&#45;679d&#45;4f1f&#45;932b&#45;87ecbb629e78&#45;&gt;683ee57d&#45;c14a&#45;4570&#45;9a03&#45;656e812a3c43</title>
<path fill="none" stroke="black" d="M48.2477,-78.6713C70.9222,-67.6489 107.26,-49.9846 134.527,-36.7299"/>
<polygon fill="none" stroke="black" points="136.293,-39.7634 143.756,-32.2436 133.232,-33.4678 136.293,-39.7634"/>
</g>
<!-- 38f27cf8&#45;f8ca&#45;4b24&#45;bb95&#45;7f98fb3f8626 -->
<g id="node3" class="node"><title>38f27cf8&#45;f8ca&#45;4b24&#45;bb95&#45;7f98fb3f8626</title>
<ellipse fill="cornsilk" stroke="black" cx="99" cy="-90" rx="27" ry="18"/>
<text text-anchor="middle" x="99" y="-86.3" font-family="Helvetica,sans-Serif" font-size="14.00">A</text>
</g>
<!-- 38f27cf8&#45;f8ca&#45;4b24&#45;bb95&#45;7f98fb3f8626&#45;&gt;683ee57d&#45;c14a&#45;4570&#45;9a03&#45;656e812a3c43 -->
<g id="edge2" class="edge"><title>38f27cf8&#45;f8ca&#45;4b24&#45;bb95&#45;7f98fb3f8626&#45;&gt;683ee57d&#45;c14a&#45;4570&#45;9a03&#45;656e812a3c43</title>
<path fill="none" stroke="black" d="M113.57,-74.8345C122.918,-65.7459 135.298,-53.7105 146.169,-43.1413"/>
<polygon fill="none" stroke="black" points="148.668,-45.593 153.398,-36.1127 143.789,-40.5741 148.668,-45.593"/>
</g>
<!-- 616cc864&#45;2d85&#45;4060&#45;9252&#45;354d96ed8537 -->
<g id="node4" class="node"><title>616cc864&#45;2d85&#45;4060&#45;9252&#45;354d96ed8537</title>
<ellipse fill="cornsilk" stroke="black" cx="171" cy="-90" rx="27" ry="18"/>
<text text-anchor="middle" x="171" y="-86.3" font-family="Helvetica,sans-Serif" font-size="14.00">E</text>
</g>
<!-- 616cc864&#45;2d85&#45;4060&#45;9252&#45;354d96ed8537&#45;&gt;683ee57d&#45;c14a&#45;4570&#45;9a03&#45;656e812a3c43 -->
<g id="edge3" class="edge"><title>616cc864&#45;2d85&#45;4060&#45;9252&#45;354d96ed8537&#45;&gt;683ee57d&#45;c14a&#45;4570&#45;9a03&#45;656e812a3c43</title>
<path fill="none" stroke="black" d="M171,-71.6966C171,-63.9827 171,-54.7125 171,-46.1124"/>
<polygon fill="none" stroke="black" points="174.5,-46.1043 171,-36.1043 167.5,-46.1044 174.5,-46.1043"/>
</g>
<!-- 33c75ef2&#45;307e&#45;4952&#45;8e55&#45;14b5116d874a -->
<g id="node5" class="node"><title>33c75ef2&#45;307e&#45;4952&#45;8e55&#45;14b5116d874a</title>
<ellipse fill="cornsilk" stroke="black" cx="243" cy="-90" rx="27" ry="18"/>
<text text-anchor="middle" x="243" y="-86.3" font-family="Helvetica,sans-Serif" font-size="14.00">B</text>
</g>
<!-- 33c75ef2&#45;307e&#45;4952&#45;8e55&#45;14b5116d874a&#45;&gt;683ee57d&#45;c14a&#45;4570&#45;9a03&#45;656e812a3c43 -->
<g id="edge4" class="edge"><title>33c75ef2&#45;307e&#45;4952&#45;8e55&#45;14b5116d874a&#45;&gt;683ee57d&#45;c14a&#45;4570&#45;9a03&#45;656e812a3c43</title>
<path fill="none" stroke="black" d="M228.43,-74.8345C219.082,-65.7459 206.702,-53.7105 195.831,-43.1413"/>
<polygon fill="none" stroke="black" points="198.211,-40.5741 188.602,-36.1127 193.332,-45.593 198.211,-40.5741"/>
</g>
<!-- d3b3225e&#45;6bd8&#45;47a8&#45;9420&#45;222222678722 -->
<g id="node6" class="node"><title>d3b3225e&#45;6bd8&#45;47a8&#45;9420&#45;222222678722</title>
<ellipse fill="cornsilk" stroke="black" cx="315" cy="-90" rx="27" ry="18"/>
<text text-anchor="middle" x="315" y="-86.3" font-family="Helvetica,sans-Serif" font-size="14.00">C</text>
</g>
<!-- d3b3225e&#45;6bd8&#45;47a8&#45;9420&#45;222222678722&#45;&gt;683ee57d&#45;c14a&#45;4570&#45;9a03&#45;656e812a3c43 -->
<g id="edge5" class="edge"><title>d3b3225e&#45;6bd8&#45;47a8&#45;9420&#45;222222678722&#45;&gt;683ee57d&#45;c14a&#45;4570&#45;9a03&#45;656e812a3c43</title>
<path fill="none" stroke="black" d="M293.752,-78.6713C271.078,-67.6489 234.74,-49.9846 207.473,-36.7299"/>
<polygon fill="none" stroke="black" points="208.768,-33.4678 198.244,-32.2436 205.707,-39.7634 208.768,-33.4678"/>
</g>
</g>
</svg>
