<?xml version="1.0" encoding="UTF-8" standalone="no"?>
<!DOCTYPE svg PUBLIC "-//W3C//DTD SVG 1.1//EN"
 "http://www.w3.org/Graphics/SVG/1.1/DTD/svg11.dtd">
<!-- Generated by graphviz version 2.38.0 (20140413.2041)
 -->
<!-- Title: %3 Pages: 1 -->
<svg width="350pt" height="116pt"
 viewBox="0.00 0.00 350.00 116.00" xmlns="http://www.w3.org/2000/svg" xmlns:xlink="http://www.w3.org/1999/xlink">
<g id="graph0" class="graph" transform="scale(1 1) rotate(0) translate(4 112)">
<title>%3</title>
<polygon fill="white" stroke="none" points="-4,4 -4,-112 346,-112 346,4 -4,4"/>
<!-- 8d92c723&#45;56eb&#45;4f42&#45;aa91&#45;2abe1f5e5433 -->
<g id="node1" class="node"><title>8d92c723&#45;56eb&#45;4f42&#45;aa91&#45;2abe1f5e5433</title>
<ellipse fill="cornsilk" stroke="black" cx="27" cy="-90" rx="27" ry="18"/>
<text text-anchor="middle" x="27" y="-86.3" font-family="Helvetica,sans-Serif" font-size="14.00">D</text>
</g>
<!-- 2c2ab5a9&#45;30e8&#45;4d46&#45;9b3f&#45;13ba5b71ea91 -->
<g id="node2" class="node"><title>2c2ab5a9&#45;30e8&#45;4d46&#45;9b3f&#45;13ba5b71ea91</title>
<polygon fill="cornsilk" stroke="black" points="198,-10.5442 198,-25.4558 182.184,-36 159.816,-36 144,-25.4558 144,-10.5442 159.816,-3.55271e-15 182.184,-0 198,-10.5442"/>
<text text-anchor="middle" x="171" y="-14.3" font-family="Helvetica,sans-Serif" font-size="14.00">Z</text>
</g>
<!-- 8d92c723&#45;56eb&#45;4f42&#45;aa91&#45;2abe1f5e5433&#45;&gt;2c2ab5a9&#45;30e8&#45;4d46&#45;9b3f&#45;13ba5b71ea91 -->
<g id="edge1" class="edge"><title>8d92c723&#45;56eb&#45;4f42&#45;aa91&#45;2abe1f5e5433&#45;&gt;2c2ab5a9&#45;30e8&#45;4d46&#45;9b3f&#45;13ba5b71ea91</title>
<path fill="none" stroke="black" d="M48.2477,-78.6713C72.6018,-66.8324 112.719,-47.3312 140.428,-33.8615"/>
<polygon fill="none" stroke="black" points="142.202,-36.8909 149.665,-29.3711 139.141,-30.5953 142.202,-36.8909"/>
</g>
<!-- 2a37728c&#45;d6d4&#45;4359&#45;9641&#45;459a2dfc683f -->
<g id="node3" class="node"><title>2a37728c&#45;d6d4&#45;4359&#45;9641&#45;459a2dfc683f</title>
<ellipse fill="cornsilk" stroke="black" cx="99" cy="-90" rx="27" ry="18"/>
<text text-anchor="middle" x="99" y="-86.3" font-family="Helvetica,sans-Serif" font-size="14.00">A</text>
</g>
<!-- 2a37728c&#45;d6d4&#45;4359&#45;9641&#45;459a2dfc683f&#45;&gt;2c2ab5a9&#45;30e8&#45;4d46&#45;9b3f&#45;13ba5b71ea91 -->
<g id="edge2" class="edge"><title>2a37728c&#45;d6d4&#45;4359&#45;9641&#45;459a2dfc683f&#45;&gt;2c2ab5a9&#45;30e8&#45;4d46&#45;9b3f&#45;13ba5b71ea91</title>
<path fill="none" stroke="black" d="M113.57,-74.8345C123.586,-65.0967 137.082,-51.9761 148.474,-40.9006"/>
<polygon fill="none" stroke="black" points="151.226,-43.1066 155.956,-33.6263 146.346,-38.0877 151.226,-43.1066"/>
</g>
<!-- b24a082e&#45;2fc9&#45;4a1e&#45;b7dd&#45;0d3db9b84c81 -->
<g id="node4" class="node"><title>b24a082e&#45;2fc9&#45;4a1e&#45;b7dd&#45;0d3db9b84c81</title>
<ellipse fill="cornsilk" stroke="black" cx="171" cy="-90" rx="27" ry="18"/>
<text text-anchor="middle" x="171" y="-86.3" font-family="Helvetica,sans-Serif" font-size="14.00">E</text>
</g>
<!-- b24a082e&#45;2fc9&#45;4a1e&#45;b7dd&#45;0d3db9b84c81&#45;&gt;2c2ab5a9&#45;30e8&#45;4d46&#45;9b3f&#45;13ba5b71ea91 -->
<g id="edge3" class="edge"><title>b24a082e&#45;2fc9&#45;4a1e&#45;b7dd&#45;0d3db9b84c81&#45;&gt;2c2ab5a9&#45;30e8&#45;4d46&#45;9b3f&#45;13ba5b71ea91</title>
<path fill="none" stroke="black" d="M171,-71.6966C171,-63.9827 171,-54.7125 171,-46.1124"/>
<polygon fill="none" stroke="black" points="174.5,-46.1043 171,-36.1043 167.5,-46.1044 174.5,-46.1043"/>
</g>
<!-- ae2ec18b&#45;0f66&#45;4319&#45;8567&#45;3c8ced979647 -->
<g id="node5" class="node"><title>ae2ec18b&#45;0f66&#45;4319&#45;8567&#45;3c8ced979647</title>
<ellipse fill="cornsilk" stroke="black" cx="243" cy="-90" rx="27" ry="18"/>
<text text-anchor="middle" x="243" y="-86.3" font-family="Helvetica,sans-Serif" font-size="14.00">B</text>
</g>
<!-- ae2ec18b&#45;0f66&#45;4319&#45;8567&#45;3c8ced979647&#45;&gt;2c2ab5a9&#45;30e8&#45;4d46&#45;9b3f&#45;13ba5b71ea91 -->
<g id="edge4" class="edge"><title>ae2ec18b&#45;0f66&#45;4319&#45;8567&#45;3c8ced979647&#45;&gt;2c2ab5a9&#45;30e8&#45;4d46&#45;9b3f&#45;13ba5b71ea91</title>
<path fill="none" stroke="black" d="M228.43,-74.8345C218.414,-65.0967 204.918,-51.9761 193.526,-40.9006"/>
<polygon fill="none" stroke="black" points="195.654,-38.0877 186.044,-33.6263 190.774,-43.1066 195.654,-38.0877"/>
</g>
<!-- 7f61aa15&#45;2bd4&#45;4c83&#45;b72e&#45;b315639f78d0 -->
<g id="node6" class="node"><title>7f61aa15&#45;2bd4&#45;4c83&#45;b72e&#45;b315639f78d0</title>
<ellipse fill="cornsilk" stroke="black" cx="315" cy="-90" rx="27" ry="18"/>
<text text-anchor="middle" x="315" y="-86.3" font-family="Helvetica,sans-Serif" font-size="14.00">C</text>
</g>
<!-- 7f61aa15&#45;2bd4&#45;4c83&#45;b72e&#45;b315639f78d0&#45;&gt;2c2ab5a9&#45;30e8&#45;4d46&#45;9b3f&#45;13ba5b71ea91 -->
<g id="edge5" class="edge"><title>7f61aa15&#45;2bd4&#45;4c83&#45;b72e&#45;b315639f78d0&#45;&gt;2c2ab5a9&#45;30e8&#45;4d46&#45;9b3f&#45;13ba5b71ea91</title>
<path fill="none" stroke="black" d="M293.752,-78.6713C269.398,-66.8324 229.281,-47.3312 201.572,-33.8615"/>
<polygon fill="none" stroke="black" points="202.859,-30.5953 192.335,-29.3711 199.798,-36.8909 202.859,-30.5953"/>
</g>
</g>
</svg>
