<?xml version="1.0" encoding="UTF-8" standalone="no"?>
<!DOCTYPE svg PUBLIC "-//W3C//DTD SVG 1.1//EN"
 "http://www.w3.org/Graphics/SVG/1.1/DTD/svg11.dtd">
<!-- Generated by graphviz version 2.38.0 (20140413.2041)
 -->
<!-- Title: %3 Pages: 1 -->
<svg width="350pt" height="116pt"
 viewBox="0.00 0.00 350.00 116.00" xmlns="http://www.w3.org/2000/svg" xmlns:xlink="http://www.w3.org/1999/xlink">
<g id="graph0" class="graph" transform="scale(1 1) rotate(0) translate(4 112)">
<title>%3</title>
<polygon fill="white" stroke="none" points="-4,4 -4,-112 346,-112 346,4 -4,4"/>
<!-- b163de99&#45;7549&#45;4ba4&#45;ade5&#45;2491ee15aebe -->
<g id="node1" class="node"><title>b163de99&#45;7549&#45;4ba4&#45;ade5&#45;2491ee15aebe</title>
<ellipse fill="cornsilk" stroke="black" cx="27" cy="-90" rx="27" ry="18"/>
<text text-anchor="middle" x="27" y="-86.3" font-family="Helvetica,sans-Serif" font-size="14.00">D</text>
</g>
<!-- 390543bf&#45;85c4&#45;4522&#45;abc5&#45;1afacb2bf462 -->
<g id="node2" class="node"><title>390543bf&#45;85c4&#45;4522&#45;abc5&#45;1afacb2bf462</title>
<polygon fill="cornsilk" stroke="black" points="155.232,-7.10543e-15 186.768,-7.10543e-15 198,-36 144,-36 155.232,-7.10543e-15"/>
<text text-anchor="middle" x="171" y="-14.3" font-family="Helvetica,sans-Serif" font-size="14.00">Y</text>
</g>
<!-- b163de99&#45;7549&#45;4ba4&#45;ade5&#45;2491ee15aebe&#45;&gt;390543bf&#45;85c4&#45;4522&#45;abc5&#45;1afacb2bf462 -->
<g id="edge1" class="edge"><title>b163de99&#45;7549&#45;4ba4&#45;ade5&#45;2491ee15aebe&#45;&gt;390543bf&#45;85c4&#45;4522&#45;abc5&#45;1afacb2bf462</title>
<path fill="none" stroke="black" d="M48.2477,-78.6713C71.3421,-67.4448 108.611,-49.3281 136.032,-35.9982"/>
<polygon fill="none" stroke="black" points="137.818,-39.0218 145.282,-31.502 134.758,-32.7262 137.818,-39.0218"/>
</g>
<!-- f3b70803&#45;ef7d&#45;4e70&#45;972e&#45;c67cd0b924a5 -->
<g id="node3" class="node"><title>f3b70803&#45;ef7d&#45;4e70&#45;972e&#45;c67cd0b924a5</title>
<ellipse fill="cornsilk" stroke="black" cx="99" cy="-90" rx="27" ry="18"/>
<text text-anchor="middle" x="99" y="-86.3" font-family="Helvetica,sans-Serif" font-size="14.00">A</text>
</g>
<!-- f3b70803&#45;ef7d&#45;4e70&#45;972e&#45;c67cd0b924a5&#45;&gt;390543bf&#45;85c4&#45;4522&#45;abc5&#45;1afacb2bf462 -->
<g id="edge2" class="edge"><title>f3b70803&#45;ef7d&#45;4e70&#45;972e&#45;c67cd0b924a5&#45;&gt;390543bf&#45;85c4&#45;4522&#45;abc5&#45;1afacb2bf462</title>
<path fill="none" stroke="black" d="M113.57,-74.8345C122.918,-65.7459 135.298,-53.7105 146.169,-43.1413"/>
<polygon fill="none" stroke="black" points="148.668,-45.593 153.398,-36.1127 143.789,-40.5741 148.668,-45.593"/>
</g>
<!-- 0c3d2556&#45;4891&#45;4bad&#45;8e0d&#45;7c30f18b677f -->
<g id="node4" class="node"><title>0c3d2556&#45;4891&#45;4bad&#45;8e0d&#45;7c30f18b677f</title>
<ellipse fill="cornsilk" stroke="black" cx="171" cy="-90" rx="27" ry="18"/>
<text text-anchor="middle" x="171" y="-86.3" font-family="Helvetica,sans-Serif" font-size="14.00">E</text>
</g>
<!-- 0c3d2556&#45;4891&#45;4bad&#45;8e0d&#45;7c30f18b677f&#45;&gt;390543bf&#45;85c4&#45;4522&#45;abc5&#45;1afacb2bf462 -->
<g id="edge3" class="edge"><title>0c3d2556&#45;4891&#45;4bad&#45;8e0d&#45;7c30f18b677f&#45;&gt;390543bf&#45;85c4&#45;4522&#45;abc5&#45;1afacb2bf462</title>
<path fill="none" stroke="black" d="M171,-71.6966C171,-63.9827 171,-54.7125 171,-46.1124"/>
<polygon fill="none" stroke="black" points="174.5,-46.1043 171,-36.1043 167.5,-46.1044 174.5,-46.1043"/>
</g>
<!-- 1b54cb58&#45;b0b6&#45;4b50&#45;86e8&#45;06c7ad11bad9 -->
<g id="node5" class="node"><title>1b54cb58&#45;b0b6&#45;4b50&#45;86e8&#45;06c7ad11bad9</title>
<ellipse fill="cornsilk" stroke="black" cx="243" cy="-90" rx="27" ry="18"/>
<text text-anchor="middle" x="243" y="-86.3" font-family="Helvetica,sans-Serif" font-size="14.00">B</text>
</g>
<!-- 1b54cb58&#45;b0b6&#45;4b50&#45;86e8&#45;06c7ad11bad9&#45;&gt;390543bf&#45;85c4&#45;4522&#45;abc5&#45;1afacb2bf462 -->
<g id="edge4" class="edge"><title>1b54cb58&#45;b0b6&#45;4b50&#45;86e8&#45;06c7ad11bad9&#45;&gt;390543bf&#45;85c4&#45;4522&#45;abc5&#45;1afacb2bf462</title>
<path fill="none" stroke="black" d="M228.43,-74.8345C219.082,-65.7459 206.702,-53.7105 195.831,-43.1413"/>
<polygon fill="none" stroke="black" points="198.211,-40.5741 188.602,-36.1127 193.332,-45.593 198.211,-40.5741"/>
</g>
<!-- 7757399e&#45;58c7&#45;4b31&#45;96d2&#45;0ddc1f32df5a -->
<g id="node6" class="node"><title>7757399e&#45;58c7&#45;4b31&#45;96d2&#45;0ddc1f32df5a</title>
<ellipse fill="cornsilk" stroke="black" cx="315" cy="-90" rx="27" ry="18"/>
<text text-anchor="middle" x="315" y="-86.3" font-family="Helvetica,sans-Serif" font-size="14.00">C</text>
</g>
<!-- 7757399e&#45;58c7&#45;4b31&#45;96d2&#45;0ddc1f32df5a&#45;&gt;390543bf&#45;85c4&#45;4522&#45;abc5&#45;1afacb2bf462 -->
<g id="edge5" class="edge"><title>7757399e&#45;58c7&#45;4b31&#45;96d2&#45;0ddc1f32df5a&#45;&gt;390543bf&#45;85c4&#45;4522&#45;abc5&#45;1afacb2bf462</title>
<path fill="none" stroke="black" d="M293.752,-78.6713C270.658,-67.4448 233.389,-49.3281 205.968,-35.9982"/>
<polygon fill="none" stroke="black" points="207.242,-32.7262 196.718,-31.502 204.182,-39.0218 207.242,-32.7262"/>
</g>
</g>
</svg>
