<?xml version="1.0" encoding="UTF-8" standalone="no"?>
<!DOCTYPE svg PUBLIC "-//W3C//DTD SVG 1.1//EN"
 "http://www.w3.org/Graphics/SVG/1.1/DTD/svg11.dtd">
<!-- Generated by graphviz version 2.43.0 (0)
 -->
<!-- Title: %3 Pages: 1 -->
<svg width="350pt" height="116pt"
 viewBox="0.00 0.00 350.00 116.00" xmlns="http://www.w3.org/2000/svg" xmlns:xlink="http://www.w3.org/1999/xlink">
<g id="graph0" class="graph" transform="scale(1 1) rotate(0) translate(4 112)">
<title>%3</title>
<polygon fill="white" stroke="transparent" points="-4,4 -4,-112 346,-112 346,4 -4,4"/>
<!-- df9198ae&#45;35f0&#45;4854&#45;abe8&#45;ebb6c7ab78f3 -->
<g id="node1" class="node">
<title>df9198ae&#45;35f0&#45;4854&#45;abe8&#45;ebb6c7ab78f3</title>
<ellipse fill="cornsilk" stroke="black" cx="27" cy="-90" rx="27" ry="18"/>
<text text-anchor="middle" x="27" y="-86.3" font-family="Helvetica,sans-Serif" font-size="14.00">D</text>
</g>
<!-- de1115eb&#45;f43e&#45;4d10&#45;8d11&#45;9c75d23f040f -->
<g id="node2" class="node">
<title>de1115eb&#45;f43e&#45;4d10&#45;8d11&#45;9c75d23f040f</title>
<polygon fill="cornsilk" stroke="black" points="171,-36 144,-18 171,0 198,-18 171,-36"/>
<text text-anchor="middle" x="171" y="-14.3" font-family="Helvetica,sans-Serif" font-size="14.00">R</text>
</g>
<!-- df9198ae&#45;35f0&#45;4854&#45;abe8&#45;ebb6c7ab78f3&#45;&gt;de1115eb&#45;f43e&#45;4d10&#45;8d11&#45;9c75d23f040f -->
<g id="edge1" class="edge">
<title>df9198ae&#45;35f0&#45;4854&#45;abe8&#45;ebb6c7ab78f3&#45;&gt;de1115eb&#45;f43e&#45;4d10&#45;8d11&#45;9c75d23f040f</title>
<path fill="none" stroke="black" d="M48.25,-78.67C74.45,-65.94 118.89,-44.33 146.5,-30.91"/>
<polygon fill="none" stroke="black" points="148.38,-33.89 155.84,-26.37 145.32,-27.59 148.38,-33.89"/>
</g>
<!-- b61d781d&#45;e934&#45;4193&#45;a9ed&#45;55bcc68ecbe9 -->
<g id="node3" class="node">
<title>b61d781d&#45;e934&#45;4193&#45;a9ed&#45;55bcc68ecbe9</title>
<ellipse fill="cornsilk" stroke="black" cx="99" cy="-90" rx="27" ry="18"/>
<text text-anchor="middle" x="99" y="-86.3" font-family="Helvetica,sans-Serif" font-size="14.00">C</text>
</g>
<!-- b61d781d&#45;e934&#45;4193&#45;a9ed&#45;55bcc68ecbe9&#45;&gt;de1115eb&#45;f43e&#45;4d10&#45;8d11&#45;9c75d23f040f -->
<g id="edge2" class="edge">
<title>b61d781d&#45;e934&#45;4193&#45;a9ed&#45;55bcc68ecbe9&#45;&gt;de1115eb&#45;f43e&#45;4d10&#45;8d11&#45;9c75d23f040f</title>
<path fill="none" stroke="black" d="M113.57,-74.83C124.9,-63.82 140.67,-48.49 152.82,-36.67"/>
<polygon fill="none" stroke="black" points="155.47,-38.98 160.2,-29.5 150.59,-33.96 155.47,-38.98"/>
</g>
<!-- 87d219c7&#45;c462&#45;4a5f&#45;a429&#45;026096dafd4b -->
<g id="node4" class="node">
<title>87d219c7&#45;c462&#45;4a5f&#45;a429&#45;026096dafd4b</title>
<ellipse fill="cornsilk" stroke="black" cx="171" cy="-90" rx="27" ry="18"/>
<text text-anchor="middle" x="171" y="-86.3" font-family="Helvetica,sans-Serif" font-size="14.00">E</text>
</g>
<!-- 87d219c7&#45;c462&#45;4a5f&#45;a429&#45;026096dafd4b&#45;&gt;de1115eb&#45;f43e&#45;4d10&#45;8d11&#45;9c75d23f040f -->
<g id="edge3" class="edge">
<title>87d219c7&#45;c462&#45;4a5f&#45;a429&#45;026096dafd4b&#45;&gt;de1115eb&#45;f43e&#45;4d10&#45;8d11&#45;9c75d23f040f</title>
<path fill="none" stroke="black" d="M171,-71.7C171,-63.98 171,-54.71 171,-46.11"/>
<polygon fill="none" stroke="black" points="174.5,-46.1 171,-36.1 167.5,-46.1 174.5,-46.1"/>
</g>
<!-- 3c8fb976&#45;5faf&#45;45e1&#45;9987&#45;30948b70a3fc -->
<g id="node5" class="node">
<title>3c8fb976&#45;5faf&#45;45e1&#45;9987&#45;30948b70a3fc</title>
<ellipse fill="cornsilk" stroke="black" cx="243" cy="-90" rx="27" ry="18"/>
<text text-anchor="middle" x="243" y="-86.3" font-family="Helvetica,sans-Serif" font-size="14.00">B</text>
</g>
<!-- 3c8fb976&#45;5faf&#45;45e1&#45;9987&#45;30948b70a3fc&#45;&gt;de1115eb&#45;f43e&#45;4d10&#45;8d11&#45;9c75d23f040f -->
<g id="edge4" class="edge">
<title>3c8fb976&#45;5faf&#45;45e1&#45;9987&#45;30948b70a3fc&#45;&gt;de1115eb&#45;f43e&#45;4d10&#45;8d11&#45;9c75d23f040f</title>
<path fill="none" stroke="black" d="M228.43,-74.83C217.1,-63.82 201.33,-48.49 189.18,-36.67"/>
<polygon fill="none" stroke="black" points="191.41,-33.96 181.8,-29.5 186.53,-38.98 191.41,-33.96"/>
</g>
<!-- 6ea5e1fb&#45;7eab&#45;4dfe&#45;bd01&#45;df94a1ba4693 -->
<g id="node6" class="node">
<title>6ea5e1fb&#45;7eab&#45;4dfe&#45;bd01&#45;df94a1ba4693</title>
<ellipse fill="cornsilk" stroke="black" cx="315" cy="-90" rx="27" ry="18"/>
<text text-anchor="middle" x="315" y="-86.3" font-family="Helvetica,sans-Serif" font-size="14.00">A</text>
</g>
<!-- 6ea5e1fb&#45;7eab&#45;4dfe&#45;bd01&#45;df94a1ba4693&#45;&gt;de1115eb&#45;f43e&#45;4d10&#45;8d11&#45;9c75d23f040f -->
<g id="edge5" class="edge">
<title>6ea5e1fb&#45;7eab&#45;4dfe&#45;bd01&#45;df94a1ba4693&#45;&gt;de1115eb&#45;f43e&#45;4d10&#45;8d11&#45;9c75d23f040f</title>
<path fill="none" stroke="black" d="M293.75,-78.67C267.55,-65.94 223.11,-44.33 195.5,-30.91"/>
<polygon fill="none" stroke="black" points="196.68,-27.59 186.16,-26.37 193.62,-33.89 196.68,-27.59"/>
</g>
</g>
</svg>
