<?xml version="1.0" encoding="UTF-8" standalone="no"?>
<!DOCTYPE svg PUBLIC "-//W3C//DTD SVG 1.1//EN"
 "http://www.w3.org/Graphics/SVG/1.1/DTD/svg11.dtd">
<!-- Generated by graphviz version 2.38.0 (20140413.2041)
 -->
<!-- Title: %3 Pages: 1 -->
<svg width="350pt" height="116pt"
 viewBox="0.00 0.00 350.00 116.00" xmlns="http://www.w3.org/2000/svg" xmlns:xlink="http://www.w3.org/1999/xlink">
<g id="graph0" class="graph" transform="scale(1 1) rotate(0) translate(4 112)">
<title>%3</title>
<polygon fill="white" stroke="none" points="-4,4 -4,-112 346,-112 346,4 -4,4"/>
<!-- fcaa8e4a&#45;8e0b&#45;41a2&#45;8220&#45;db69b72d1692 -->
<g id="node1" class="node"><title>fcaa8e4a&#45;8e0b&#45;41a2&#45;8220&#45;db69b72d1692</title>
<ellipse fill="cornsilk" stroke="black" cx="27" cy="-90" rx="27" ry="18"/>
<text text-anchor="middle" x="27" y="-86.3" font-family="Helvetica,sans-Serif" font-size="14.00">D</text>
</g>
<!-- 3b6a1a94&#45;512d&#45;4e35&#45;bf8a&#45;04eb7ec5ea6d -->
<g id="node2" class="node"><title>3b6a1a94&#45;512d&#45;4e35&#45;bf8a&#45;04eb7ec5ea6d</title>
<polygon fill="cornsilk" stroke="black" points="198.985,-36 154.467,-36 143.015,-1.42109e-14 187.533,-3.55271e-15 198.985,-36"/>
<text text-anchor="middle" x="171" y="-14.3" font-family="Helvetica,sans-Serif" font-size="14.00">Q</text>
</g>
<!-- fcaa8e4a&#45;8e0b&#45;41a2&#45;8220&#45;db69b72d1692&#45;&gt;3b6a1a94&#45;512d&#45;4e35&#45;bf8a&#45;04eb7ec5ea6d -->
<g id="edge1" class="edge"><title>fcaa8e4a&#45;8e0b&#45;41a2&#45;8220&#45;db69b72d1692&#45;&gt;3b6a1a94&#45;512d&#45;4e35&#45;bf8a&#45;04eb7ec5ea6d</title>
<path fill="none" stroke="black" d="M48.2477,-78.6713C73.3017,-66.4923 115.037,-46.2041 142.785,-32.7156"/>
<polygon fill="none" stroke="black" points="144.503,-35.7723 151.966,-28.2526 141.442,-29.4768 144.503,-35.7723"/>
</g>
<!-- 657f4a8f&#45;34b9&#45;4806&#45;a19b&#45;7af3e90b3c3d -->
<g id="node3" class="node"><title>657f4a8f&#45;34b9&#45;4806&#45;a19b&#45;7af3e90b3c3d</title>
<ellipse fill="cornsilk" stroke="black" cx="99" cy="-90" rx="27" ry="18"/>
<text text-anchor="middle" x="99" y="-86.3" font-family="Helvetica,sans-Serif" font-size="14.00">A</text>
</g>
<!-- 657f4a8f&#45;34b9&#45;4806&#45;a19b&#45;7af3e90b3c3d&#45;&gt;3b6a1a94&#45;512d&#45;4e35&#45;bf8a&#45;04eb7ec5ea6d -->
<g id="edge2" class="edge"><title>657f4a8f&#45;34b9&#45;4806&#45;a19b&#45;7af3e90b3c3d&#45;&gt;3b6a1a94&#45;512d&#45;4e35&#45;bf8a&#45;04eb7ec5ea6d</title>
<path fill="none" stroke="black" d="M113.57,-74.8345C123.119,-65.5512 135.83,-53.1933 146.866,-42.4639"/>
<polygon fill="none" stroke="black" points="149.449,-44.8342 154.179,-35.3539 144.569,-39.8152 149.449,-44.8342"/>
</g>
<!-- 6ec2dc46&#45;87e8&#45;4299&#45;a39d&#45;bb8b43880cfe -->
<g id="node4" class="node"><title>6ec2dc46&#45;87e8&#45;4299&#45;a39d&#45;bb8b43880cfe</title>
<ellipse fill="cornsilk" stroke="black" cx="171" cy="-90" rx="27" ry="18"/>
<text text-anchor="middle" x="171" y="-86.3" font-family="Helvetica,sans-Serif" font-size="14.00">E</text>
</g>
<!-- 6ec2dc46&#45;87e8&#45;4299&#45;a39d&#45;bb8b43880cfe&#45;&gt;3b6a1a94&#45;512d&#45;4e35&#45;bf8a&#45;04eb7ec5ea6d -->
<g id="edge3" class="edge"><title>6ec2dc46&#45;87e8&#45;4299&#45;a39d&#45;bb8b43880cfe&#45;&gt;3b6a1a94&#45;512d&#45;4e35&#45;bf8a&#45;04eb7ec5ea6d</title>
<path fill="none" stroke="black" d="M171,-71.6966C171,-63.9827 171,-54.7125 171,-46.1124"/>
<polygon fill="none" stroke="black" points="174.5,-46.1043 171,-36.1043 167.5,-46.1044 174.5,-46.1043"/>
</g>
<!-- f16ea670&#45;5f4c&#45;4b77&#45;b084&#45;42c44fe9ef37 -->
<g id="node5" class="node"><title>f16ea670&#45;5f4c&#45;4b77&#45;b084&#45;42c44fe9ef37</title>
<ellipse fill="cornsilk" stroke="black" cx="243" cy="-90" rx="27" ry="18"/>
<text text-anchor="middle" x="243" y="-86.3" font-family="Helvetica,sans-Serif" font-size="14.00">B</text>
</g>
<!-- f16ea670&#45;5f4c&#45;4b77&#45;b084&#45;42c44fe9ef37&#45;&gt;3b6a1a94&#45;512d&#45;4e35&#45;bf8a&#45;04eb7ec5ea6d -->
<g id="edge4" class="edge"><title>f16ea670&#45;5f4c&#45;4b77&#45;b084&#45;42c44fe9ef37&#45;&gt;3b6a1a94&#45;512d&#45;4e35&#45;bf8a&#45;04eb7ec5ea6d</title>
<path fill="none" stroke="black" d="M228.43,-74.8345C219.082,-65.7459 206.702,-53.7105 195.831,-43.1413"/>
<polygon fill="none" stroke="black" points="198.211,-40.5741 188.602,-36.1127 193.332,-45.593 198.211,-40.5741"/>
</g>
<!-- 37407744&#45;f7fd&#45;4ecb&#45;b153&#45;4d16d12af62a -->
<g id="node6" class="node"><title>37407744&#45;f7fd&#45;4ecb&#45;b153&#45;4d16d12af62a</title>
<ellipse fill="cornsilk" stroke="black" cx="315" cy="-90" rx="27" ry="18"/>
<text text-anchor="middle" x="315" y="-86.3" font-family="Helvetica,sans-Serif" font-size="14.00">C</text>
</g>
<!-- 37407744&#45;f7fd&#45;4ecb&#45;b153&#45;4d16d12af62a&#45;&gt;3b6a1a94&#45;512d&#45;4e35&#45;bf8a&#45;04eb7ec5ea6d -->
<g id="edge5" class="edge"><title>37407744&#45;f7fd&#45;4ecb&#45;b153&#45;4d16d12af62a&#45;&gt;3b6a1a94&#45;512d&#45;4e35&#45;bf8a&#45;04eb7ec5ea6d</title>
<path fill="none" stroke="black" d="M293.752,-78.6713C270.938,-67.5809 234.291,-49.7663 206.969,-36.485"/>
<polygon fill="none" stroke="black" points="208.256,-33.2189 197.732,-31.9947 205.196,-39.5145 208.256,-33.2189"/>
</g>
</g>
</svg>
