<?xml version="1.0" encoding="UTF-8" standalone="no"?>
<!DOCTYPE svg PUBLIC "-//W3C//DTD SVG 1.1//EN"
 "http://www.w3.org/Graphics/SVG/1.1/DTD/svg11.dtd">
<!-- Generated by graphviz version 2.43.0 (0)
 -->
<!-- Title: %3 Pages: 1 -->
<svg width="350pt" height="95pt"
 viewBox="0.00 0.00 350.00 95.00" xmlns="http://www.w3.org/2000/svg" xmlns:xlink="http://www.w3.org/1999/xlink">
<g id="graph0" class="graph" transform="scale(1 1) rotate(0) translate(4 91)">
<title>%3</title>
<polygon fill="white" stroke="transparent" points="-4,4 -4,-91 346,-91 346,4 -4,4"/>
<!-- 1dfb36d1&#45;4f9b&#45;4671&#45;8045&#45;309420afa2a7 -->
<g id="node1" class="node">
<title>1dfb36d1&#45;4f9b&#45;4671&#45;8045&#45;309420afa2a7</title>
<ellipse fill="cornsilk" stroke="black" cx="27" cy="-69" rx="27" ry="18"/>
<text text-anchor="middle" x="27" y="-65.3" font-family="Helvetica,sans-Serif" font-size="14.00">D</text>
</g>
<!-- d4aa4638&#45;706a&#45;4486&#45;b45b&#45;c87905fbc02c -->
<g id="node2" class="node">
<title>d4aa4638&#45;706a&#45;4486&#45;b45b&#45;c87905fbc02c</title>
<polygon fill="cornsilk" stroke="transparent" points="178,-15 164,-15 164,0 178,0 178,-15"/>
<text text-anchor="middle" x="171" y="-3.8" font-family="Helvetica,sans-Serif" font-size="14.00">W</text>
</g>
<!-- 1dfb36d1&#45;4f9b&#45;4671&#45;8045&#45;309420afa2a7&#45;&gt;d4aa4638&#45;706a&#45;4486&#45;b45b&#45;c87905fbc02c -->
<g id="edge1" class="edge">
<title>1dfb36d1&#45;4f9b&#45;4671&#45;8045&#45;309420afa2a7&#45;&gt;d4aa4638&#45;706a&#45;4486&#45;b45b&#45;c87905fbc02c</title>
<path fill="none" stroke="black" d="M48.21,-57.7C53.05,-55.43 58.18,-53.08 63,-51 94.97,-37.18 133.01,-22.64 154.34,-14.66"/>
<polygon fill="none" stroke="black" points="155.7,-17.89 163.86,-11.12 153.26,-11.33 155.7,-17.89"/>
</g>
<!-- 5d624833&#45;fa1b&#45;4da8&#45;8084&#45;8a06a2ea6f74 -->
<g id="node3" class="node">
<title>5d624833&#45;fa1b&#45;4da8&#45;8084&#45;8a06a2ea6f74</title>
<ellipse fill="cornsilk" stroke="black" cx="99" cy="-69" rx="27" ry="18"/>
<text text-anchor="middle" x="99" y="-65.3" font-family="Helvetica,sans-Serif" font-size="14.00">C</text>
</g>
<!-- 5d624833&#45;fa1b&#45;4da8&#45;8084&#45;8a06a2ea6f74&#45;&gt;d4aa4638&#45;706a&#45;4486&#45;b45b&#45;c87905fbc02c -->
<g id="edge2" class="edge">
<title>5d624833&#45;fa1b&#45;4da8&#45;8084&#45;8a06a2ea6f74&#45;&gt;d4aa4638&#45;706a&#45;4486&#45;b45b&#45;c87905fbc02c</title>
<path fill="none" stroke="black" d="M115.34,-54.5C127.5,-44.44 143.99,-30.82 155.86,-21.01"/>
<polygon fill="none" stroke="black" points="158.41,-23.44 163.89,-14.37 153.95,-18.05 158.41,-23.44"/>
</g>
<!-- 6e0aaaa6&#45;25a2&#45;4618&#45;a0c6&#45;09e82b880c86 -->
<g id="node4" class="node">
<title>6e0aaaa6&#45;25a2&#45;4618&#45;a0c6&#45;09e82b880c86</title>
<ellipse fill="cornsilk" stroke="black" cx="171" cy="-69" rx="27" ry="18"/>
<text text-anchor="middle" x="171" y="-65.3" font-family="Helvetica,sans-Serif" font-size="14.00">E</text>
</g>
<!-- 6e0aaaa6&#45;25a2&#45;4618&#45;a0c6&#45;09e82b880c86&#45;&gt;d4aa4638&#45;706a&#45;4486&#45;b45b&#45;c87905fbc02c -->
<g id="edge3" class="edge">
<title>6e0aaaa6&#45;25a2&#45;4618&#45;a0c6&#45;09e82b880c86&#45;&gt;d4aa4638&#45;706a&#45;4486&#45;b45b&#45;c87905fbc02c</title>
<path fill="none" stroke="black" d="M171,-50.79C171,-42.77 171,-33.25 171,-25.28"/>
<polygon fill="none" stroke="black" points="174.5,-25.06 171,-15.06 167.5,-25.06 174.5,-25.06"/>
</g>
<!-- 5e96a6a6&#45;a968&#45;44ff&#45;9edc&#45;737305e09f54 -->
<g id="node5" class="node">
<title>5e96a6a6&#45;a968&#45;44ff&#45;9edc&#45;737305e09f54</title>
<ellipse fill="cornsilk" stroke="black" cx="243" cy="-69" rx="27" ry="18"/>
<text text-anchor="middle" x="243" y="-65.3" font-family="Helvetica,sans-Serif" font-size="14.00">B</text>
</g>
<!-- 5e96a6a6&#45;a968&#45;44ff&#45;9edc&#45;737305e09f54&#45;&gt;d4aa4638&#45;706a&#45;4486&#45;b45b&#45;c87905fbc02c -->
<g id="edge4" class="edge">
<title>5e96a6a6&#45;a968&#45;44ff&#45;9edc&#45;737305e09f54&#45;&gt;d4aa4638&#45;706a&#45;4486&#45;b45b&#45;c87905fbc02c</title>
<path fill="none" stroke="black" d="M226.66,-54.5C214.5,-44.44 198.01,-30.82 186.14,-21.01"/>
<polygon fill="none" stroke="black" points="188.05,-18.05 178.11,-14.37 183.59,-23.44 188.05,-18.05"/>
</g>
<!-- 2c3e47d3&#45;7fcc&#45;4351&#45;837f&#45;bbfecb36e1fb -->
<g id="node6" class="node">
<title>2c3e47d3&#45;7fcc&#45;4351&#45;837f&#45;bbfecb36e1fb</title>
<ellipse fill="cornsilk" stroke="black" cx="315" cy="-69" rx="27" ry="18"/>
<text text-anchor="middle" x="315" y="-65.3" font-family="Helvetica,sans-Serif" font-size="14.00">A</text>
</g>
<!-- 2c3e47d3&#45;7fcc&#45;4351&#45;837f&#45;bbfecb36e1fb&#45;&gt;d4aa4638&#45;706a&#45;4486&#45;b45b&#45;c87905fbc02c -->
<g id="edge5" class="edge">
<title>2c3e47d3&#45;7fcc&#45;4351&#45;837f&#45;bbfecb36e1fb&#45;&gt;d4aa4638&#45;706a&#45;4486&#45;b45b&#45;c87905fbc02c</title>
<path fill="none" stroke="black" d="M293.79,-57.7C288.95,-55.43 283.82,-53.08 279,-51 247.03,-37.18 208.99,-22.64 187.66,-14.66"/>
<polygon fill="none" stroke="black" points="188.74,-11.33 178.14,-11.12 186.3,-17.89 188.74,-11.33"/>
</g>
</g>
</svg>
