<?xml version="1.0" encoding="UTF-8" standalone="no"?>
<!DOCTYPE svg PUBLIC "-//W3C//DTD SVG 1.1//EN"
 "http://www.w3.org/Graphics/SVG/1.1/DTD/svg11.dtd">
<!-- Generated by graphviz version 2.38.0 (20140413.2041)
 -->
<!-- Title: %3 Pages: 1 -->
<svg width="350pt" height="116pt"
 viewBox="0.00 0.00 350.00 116.00" xmlns="http://www.w3.org/2000/svg" xmlns:xlink="http://www.w3.org/1999/xlink">
<g id="graph0" class="graph" transform="scale(1 1) rotate(0) translate(4 112)">
<title>%3</title>
<polygon fill="white" stroke="none" points="-4,4 -4,-112 346,-112 346,4 -4,4"/>
<!-- 3b369d6c&#45;280a&#45;451e&#45;ba87&#45;59bb15f9a2bf -->
<g id="node1" class="node"><title>3b369d6c&#45;280a&#45;451e&#45;ba87&#45;59bb15f9a2bf</title>
<ellipse fill="cornsilk" stroke="black" cx="27" cy="-90" rx="27" ry="18"/>
<text text-anchor="middle" x="27" y="-86.3" font-family="Helvetica,sans-Serif" font-size="14.00">D</text>
</g>
<!-- e821958d&#45;2740&#45;43ef&#45;a3c8&#45;f69fcfee7cca -->
<g id="node2" class="node"><title>e821958d&#45;2740&#45;43ef&#45;a3c8&#45;f69fcfee7cca</title>
<polygon fill="cornsilk" stroke="black" points="171,-36 144,-18 171,-3.55271e-15 198,-18 171,-36"/>
<text text-anchor="middle" x="171" y="-14.3" font-family="Helvetica,sans-Serif" font-size="14.00">R</text>
</g>
<!-- 3b369d6c&#45;280a&#45;451e&#45;ba87&#45;59bb15f9a2bf&#45;&gt;e821958d&#45;2740&#45;43ef&#45;a3c8&#45;f69fcfee7cca -->
<g id="edge1" class="edge"><title>3b369d6c&#45;280a&#45;451e&#45;ba87&#45;59bb15f9a2bf&#45;&gt;e821958d&#45;2740&#45;43ef&#45;a3c8&#45;f69fcfee7cca</title>
<path fill="none" stroke="black" d="M48.2477,-78.6713C74.4464,-65.9358 118.886,-44.3332 146.498,-30.9106"/>
<polygon fill="none" stroke="black" points="148.381,-33.8869 155.845,-26.3672 145.321,-27.5914 148.381,-33.8869"/>
</g>
<!-- ca877d62&#45;b04b&#45;4c1d&#45;bf2f&#45;a73d98d8cd15 -->
<g id="node3" class="node"><title>ca877d62&#45;b04b&#45;4c1d&#45;bf2f&#45;a73d98d8cd15</title>
<ellipse fill="cornsilk" stroke="black" cx="99" cy="-90" rx="27" ry="18"/>
<text text-anchor="middle" x="99" y="-86.3" font-family="Helvetica,sans-Serif" font-size="14.00">A</text>
</g>
<!-- ca877d62&#45;b04b&#45;4c1d&#45;bf2f&#45;a73d98d8cd15&#45;&gt;e821958d&#45;2740&#45;43ef&#45;a3c8&#45;f69fcfee7cca -->
<g id="edge2" class="edge"><title>ca877d62&#45;b04b&#45;4c1d&#45;bf2f&#45;a73d98d8cd15&#45;&gt;e821958d&#45;2740&#45;43ef&#45;a3c8&#45;f69fcfee7cca</title>
<path fill="none" stroke="black" d="M113.57,-74.8345C124.896,-63.8233 140.671,-48.4867 152.822,-36.6726"/>
<polygon fill="none" stroke="black" points="155.471,-38.9789 160.201,-29.4986 150.592,-33.96 155.471,-38.9789"/>
</g>
<!-- c4523741&#45;62eb&#45;47ea&#45;b146&#45;d903b71ac317 -->
<g id="node4" class="node"><title>c4523741&#45;62eb&#45;47ea&#45;b146&#45;d903b71ac317</title>
<ellipse fill="cornsilk" stroke="black" cx="171" cy="-90" rx="27" ry="18"/>
<text text-anchor="middle" x="171" y="-86.3" font-family="Helvetica,sans-Serif" font-size="14.00">E</text>
</g>
<!-- c4523741&#45;62eb&#45;47ea&#45;b146&#45;d903b71ac317&#45;&gt;e821958d&#45;2740&#45;43ef&#45;a3c8&#45;f69fcfee7cca -->
<g id="edge3" class="edge"><title>c4523741&#45;62eb&#45;47ea&#45;b146&#45;d903b71ac317&#45;&gt;e821958d&#45;2740&#45;43ef&#45;a3c8&#45;f69fcfee7cca</title>
<path fill="none" stroke="black" d="M171,-71.6966C171,-63.9827 171,-54.7125 171,-46.1124"/>
<polygon fill="none" stroke="black" points="174.5,-46.1043 171,-36.1043 167.5,-46.1044 174.5,-46.1043"/>
</g>
<!-- 4e57f6a7&#45;00c4&#45;4ba7&#45;80c7&#45;523ead811af0 -->
<g id="node5" class="node"><title>4e57f6a7&#45;00c4&#45;4ba7&#45;80c7&#45;523ead811af0</title>
<ellipse fill="cornsilk" stroke="black" cx="243" cy="-90" rx="27" ry="18"/>
<text text-anchor="middle" x="243" y="-86.3" font-family="Helvetica,sans-Serif" font-size="14.00">B</text>
</g>
<!-- 4e57f6a7&#45;00c4&#45;4ba7&#45;80c7&#45;523ead811af0&#45;&gt;e821958d&#45;2740&#45;43ef&#45;a3c8&#45;f69fcfee7cca -->
<g id="edge4" class="edge"><title>4e57f6a7&#45;00c4&#45;4ba7&#45;80c7&#45;523ead811af0&#45;&gt;e821958d&#45;2740&#45;43ef&#45;a3c8&#45;f69fcfee7cca</title>
<path fill="none" stroke="black" d="M228.43,-74.8345C217.104,-63.8233 201.329,-48.4867 189.178,-36.6726"/>
<polygon fill="none" stroke="black" points="191.408,-33.96 181.799,-29.4986 186.529,-38.9789 191.408,-33.96"/>
</g>
<!-- 46cc61ca&#45;bcb0&#45;4844&#45;978d&#45;3b18700fc12b -->
<g id="node6" class="node"><title>46cc61ca&#45;bcb0&#45;4844&#45;978d&#45;3b18700fc12b</title>
<ellipse fill="cornsilk" stroke="black" cx="315" cy="-90" rx="27" ry="18"/>
<text text-anchor="middle" x="315" y="-86.3" font-family="Helvetica,sans-Serif" font-size="14.00">C</text>
</g>
<!-- 46cc61ca&#45;bcb0&#45;4844&#45;978d&#45;3b18700fc12b&#45;&gt;e821958d&#45;2740&#45;43ef&#45;a3c8&#45;f69fcfee7cca -->
<g id="edge5" class="edge"><title>46cc61ca&#45;bcb0&#45;4844&#45;978d&#45;3b18700fc12b&#45;&gt;e821958d&#45;2740&#45;43ef&#45;a3c8&#45;f69fcfee7cca</title>
<path fill="none" stroke="black" d="M293.752,-78.6713C267.554,-65.9358 223.114,-44.3332 195.502,-30.9106"/>
<polygon fill="none" stroke="black" points="196.679,-27.5914 186.155,-26.3672 193.619,-33.8869 196.679,-27.5914"/>
</g>
</g>
</svg>
