<?xml version="1.0" encoding="UTF-8" standalone="no"?>
<!DOCTYPE svg PUBLIC "-//W3C//DTD SVG 1.1//EN"
 "http://www.w3.org/Graphics/SVG/1.1/DTD/svg11.dtd">
<!-- Generated by graphviz version 2.38.0 (20140413.2041)
 -->
<!-- Title: %3 Pages: 1 -->
<svg width="350pt" height="116pt"
 viewBox="0.00 0.00 350.00 116.00" xmlns="http://www.w3.org/2000/svg" xmlns:xlink="http://www.w3.org/1999/xlink">
<g id="graph0" class="graph" transform="scale(1 1) rotate(0) translate(4 112)">
<title>%3</title>
<polygon fill="white" stroke="none" points="-4,4 -4,-112 346,-112 346,4 -4,4"/>
<!-- d68823a3&#45;e4ea&#45;418f&#45;9877&#45;43103c60e385 -->
<g id="node1" class="node"><title>d68823a3&#45;e4ea&#45;418f&#45;9877&#45;43103c60e385</title>
<ellipse fill="cornsilk" stroke="black" cx="27" cy="-90" rx="27" ry="18"/>
<text text-anchor="middle" x="27" y="-86.3" font-family="Helvetica,sans-Serif" font-size="14.00">D</text>
</g>
<!-- a9ec3cb9&#45;95b9&#45;4028&#45;ab9b&#45;f55ab6061c38 -->
<g id="node2" class="node"><title>a9ec3cb9&#45;95b9&#45;4028&#45;ab9b&#45;f55ab6061c38</title>
<polygon fill="cornsilk" stroke="black" points="192,-36 144,-36 144,-0 198,-0 198,-30 192,-36"/>
<polyline fill="none" stroke="black" points="192,-36 192,-30 "/>
<polyline fill="none" stroke="black" points="198,-30 192,-30 "/>
<text text-anchor="middle" x="171" y="-14.3" font-family="Helvetica,sans-Serif" font-size="14.00">T</text>
</g>
<!-- d68823a3&#45;e4ea&#45;418f&#45;9877&#45;43103c60e385&#45;&gt;a9ec3cb9&#45;95b9&#45;4028&#45;ab9b&#45;f55ab6061c38 -->
<g id="edge1" class="edge"><title>d68823a3&#45;e4ea&#45;418f&#45;9877&#45;43103c60e385&#45;&gt;a9ec3cb9&#45;95b9&#45;4028&#45;ab9b&#45;f55ab6061c38</title>
<path fill="none" stroke="black" d="M48.2477,-78.6713C70.9222,-67.6489 107.26,-49.9846 134.527,-36.7299"/>
<polygon fill="none" stroke="black" points="136.293,-39.7634 143.756,-32.2436 133.232,-33.4678 136.293,-39.7634"/>
</g>
<!-- b7292a5e&#45;56e8&#45;4e1a&#45;9e89&#45;ed6dab6b24ca -->
<g id="node3" class="node"><title>b7292a5e&#45;56e8&#45;4e1a&#45;9e89&#45;ed6dab6b24ca</title>
<ellipse fill="cornsilk" stroke="black" cx="99" cy="-90" rx="27" ry="18"/>
<text text-anchor="middle" x="99" y="-86.3" font-family="Helvetica,sans-Serif" font-size="14.00">A</text>
</g>
<!-- b7292a5e&#45;56e8&#45;4e1a&#45;9e89&#45;ed6dab6b24ca&#45;&gt;a9ec3cb9&#45;95b9&#45;4028&#45;ab9b&#45;f55ab6061c38 -->
<g id="edge2" class="edge"><title>b7292a5e&#45;56e8&#45;4e1a&#45;9e89&#45;ed6dab6b24ca&#45;&gt;a9ec3cb9&#45;95b9&#45;4028&#45;ab9b&#45;f55ab6061c38</title>
<path fill="none" stroke="black" d="M113.57,-74.8345C122.918,-65.7459 135.298,-53.7105 146.169,-43.1413"/>
<polygon fill="none" stroke="black" points="148.668,-45.593 153.398,-36.1127 143.789,-40.5741 148.668,-45.593"/>
</g>
<!-- 861cad95&#45;6b1b&#45;47c0&#45;9873&#45;931a8bd4d4e2 -->
<g id="node4" class="node"><title>861cad95&#45;6b1b&#45;47c0&#45;9873&#45;931a8bd4d4e2</title>
<ellipse fill="cornsilk" stroke="black" cx="171" cy="-90" rx="27" ry="18"/>
<text text-anchor="middle" x="171" y="-86.3" font-family="Helvetica,sans-Serif" font-size="14.00">E</text>
</g>
<!-- 861cad95&#45;6b1b&#45;47c0&#45;9873&#45;931a8bd4d4e2&#45;&gt;a9ec3cb9&#45;95b9&#45;4028&#45;ab9b&#45;f55ab6061c38 -->
<g id="edge3" class="edge"><title>861cad95&#45;6b1b&#45;47c0&#45;9873&#45;931a8bd4d4e2&#45;&gt;a9ec3cb9&#45;95b9&#45;4028&#45;ab9b&#45;f55ab6061c38</title>
<path fill="none" stroke="black" d="M171,-71.6966C171,-63.9827 171,-54.7125 171,-46.1124"/>
<polygon fill="none" stroke="black" points="174.5,-46.1043 171,-36.1043 167.5,-46.1044 174.5,-46.1043"/>
</g>
<!-- c9146360&#45;58bb&#45;4bfc&#45;8613&#45;1bf04a86f540 -->
<g id="node5" class="node"><title>c9146360&#45;58bb&#45;4bfc&#45;8613&#45;1bf04a86f540</title>
<ellipse fill="cornsilk" stroke="black" cx="243" cy="-90" rx="27" ry="18"/>
<text text-anchor="middle" x="243" y="-86.3" font-family="Helvetica,sans-Serif" font-size="14.00">B</text>
</g>
<!-- c9146360&#45;58bb&#45;4bfc&#45;8613&#45;1bf04a86f540&#45;&gt;a9ec3cb9&#45;95b9&#45;4028&#45;ab9b&#45;f55ab6061c38 -->
<g id="edge4" class="edge"><title>c9146360&#45;58bb&#45;4bfc&#45;8613&#45;1bf04a86f540&#45;&gt;a9ec3cb9&#45;95b9&#45;4028&#45;ab9b&#45;f55ab6061c38</title>
<path fill="none" stroke="black" d="M228.43,-74.8345C219.082,-65.7459 206.702,-53.7105 195.831,-43.1413"/>
<polygon fill="none" stroke="black" points="198.211,-40.5741 188.602,-36.1127 193.332,-45.593 198.211,-40.5741"/>
</g>
<!-- 05a17930&#45;1f8f&#45;4b6d&#45;ad3b&#45;65566bd10c59 -->
<g id="node6" class="node"><title>05a17930&#45;1f8f&#45;4b6d&#45;ad3b&#45;65566bd10c59</title>
<ellipse fill="cornsilk" stroke="black" cx="315" cy="-90" rx="27" ry="18"/>
<text text-anchor="middle" x="315" y="-86.3" font-family="Helvetica,sans-Serif" font-size="14.00">C</text>
</g>
<!-- 05a17930&#45;1f8f&#45;4b6d&#45;ad3b&#45;65566bd10c59&#45;&gt;a9ec3cb9&#45;95b9&#45;4028&#45;ab9b&#45;f55ab6061c38 -->
<g id="edge5" class="edge"><title>05a17930&#45;1f8f&#45;4b6d&#45;ad3b&#45;65566bd10c59&#45;&gt;a9ec3cb9&#45;95b9&#45;4028&#45;ab9b&#45;f55ab6061c38</title>
<path fill="none" stroke="black" d="M293.752,-78.6713C271.078,-67.6489 234.74,-49.9846 207.473,-36.7299"/>
<polygon fill="none" stroke="black" points="208.768,-33.4678 198.244,-32.2436 205.707,-39.7634 208.768,-33.4678"/>
</g>
</g>
</svg>
