<?xml version="1.0" encoding="UTF-8" standalone="no"?>
<!DOCTYPE svg PUBLIC "-//W3C//DTD SVG 1.1//EN"
 "http://www.w3.org/Graphics/SVG/1.1/DTD/svg11.dtd">
<!-- Generated by graphviz version 2.43.0 (0)
 -->
<!-- Title: %3 Pages: 1 -->
<svg width="350pt" height="116pt"
 viewBox="0.00 0.00 350.00 116.00" xmlns="http://www.w3.org/2000/svg" xmlns:xlink="http://www.w3.org/1999/xlink">
<g id="graph0" class="graph" transform="scale(1 1) rotate(0) translate(4 112)">
<title>%3</title>
<polygon fill="white" stroke="transparent" points="-4,4 -4,-112 346,-112 346,4 -4,4"/>
<!-- 45524f17&#45;360d&#45;43ab&#45;aa81&#45;4661b1a7e05f -->
<g id="node1" class="node">
<title>45524f17&#45;360d&#45;43ab&#45;aa81&#45;4661b1a7e05f</title>
<ellipse fill="cornsilk" stroke="black" cx="27" cy="-90" rx="27" ry="18"/>
<text text-anchor="middle" x="27" y="-86.3" font-family="Helvetica,sans-Serif" font-size="14.00">D</text>
</g>
<!-- 32783f44&#45;c76a&#45;47e4&#45;93c7&#45;b98ea4749720 -->
<g id="node2" class="node">
<title>32783f44&#45;c76a&#45;47e4&#45;93c7&#45;b98ea4749720</title>
<polygon fill="cornsilk" stroke="black" points="198,-36 148,-36 144,-32 144,0 194,0 198,-4 198,-36"/>
<polyline fill="none" stroke="black" points="194,-32 144,-32 "/>
<polyline fill="none" stroke="black" points="194,-32 194,0 "/>
<polyline fill="none" stroke="black" points="194,-32 198,-36 "/>
<text text-anchor="middle" x="171" y="-14.3" font-family="Helvetica,sans-Serif" font-size="14.00">S</text>
</g>
<!-- 45524f17&#45;360d&#45;43ab&#45;aa81&#45;4661b1a7e05f&#45;&gt;32783f44&#45;c76a&#45;47e4&#45;93c7&#45;b98ea4749720 -->
<g id="edge1" class="edge">
<title>45524f17&#45;360d&#45;43ab&#45;aa81&#45;4661b1a7e05f&#45;&gt;32783f44&#45;c76a&#45;47e4&#45;93c7&#45;b98ea4749720</title>
<path fill="none" stroke="black" d="M48.25,-78.67C70.92,-67.65 107.26,-49.98 134.53,-36.73"/>
<polygon fill="none" stroke="black" points="136.29,-39.76 143.76,-32.24 133.23,-33.47 136.29,-39.76"/>
</g>
<!-- ac0968d0&#45;0a27&#45;42ca&#45;85dc&#45;fc871f428ea5 -->
<g id="node3" class="node">
<title>ac0968d0&#45;0a27&#45;42ca&#45;85dc&#45;fc871f428ea5</title>
<ellipse fill="cornsilk" stroke="black" cx="99" cy="-90" rx="27" ry="18"/>
<text text-anchor="middle" x="99" y="-86.3" font-family="Helvetica,sans-Serif" font-size="14.00">C</text>
</g>
<!-- ac0968d0&#45;0a27&#45;42ca&#45;85dc&#45;fc871f428ea5&#45;&gt;32783f44&#45;c76a&#45;47e4&#45;93c7&#45;b98ea4749720 -->
<g id="edge2" class="edge">
<title>ac0968d0&#45;0a27&#45;42ca&#45;85dc&#45;fc871f428ea5&#45;&gt;32783f44&#45;c76a&#45;47e4&#45;93c7&#45;b98ea4749720</title>
<path fill="none" stroke="black" d="M113.57,-74.83C122.92,-65.75 135.3,-53.71 146.17,-43.14"/>
<polygon fill="none" stroke="black" points="148.67,-45.59 153.4,-36.11 143.79,-40.57 148.67,-45.59"/>
</g>
<!-- b12cef95&#45;3a29&#45;4434&#45;bd42&#45;ec590d449e92 -->
<g id="node4" class="node">
<title>b12cef95&#45;3a29&#45;4434&#45;bd42&#45;ec590d449e92</title>
<ellipse fill="cornsilk" stroke="black" cx="171" cy="-90" rx="27" ry="18"/>
<text text-anchor="middle" x="171" y="-86.3" font-family="Helvetica,sans-Serif" font-size="14.00">E</text>
</g>
<!-- b12cef95&#45;3a29&#45;4434&#45;bd42&#45;ec590d449e92&#45;&gt;32783f44&#45;c76a&#45;47e4&#45;93c7&#45;b98ea4749720 -->
<g id="edge3" class="edge">
<title>b12cef95&#45;3a29&#45;4434&#45;bd42&#45;ec590d449e92&#45;&gt;32783f44&#45;c76a&#45;47e4&#45;93c7&#45;b98ea4749720</title>
<path fill="none" stroke="black" d="M171,-71.7C171,-63.98 171,-54.71 171,-46.11"/>
<polygon fill="none" stroke="black" points="174.5,-46.1 171,-36.1 167.5,-46.1 174.5,-46.1"/>
</g>
<!-- c6061ffe&#45;c493&#45;497d&#45;abca&#45;74b1574ef91a -->
<g id="node5" class="node">
<title>c6061ffe&#45;c493&#45;497d&#45;abca&#45;74b1574ef91a</title>
<ellipse fill="cornsilk" stroke="black" cx="243" cy="-90" rx="27" ry="18"/>
<text text-anchor="middle" x="243" y="-86.3" font-family="Helvetica,sans-Serif" font-size="14.00">B</text>
</g>
<!-- c6061ffe&#45;c493&#45;497d&#45;abca&#45;74b1574ef91a&#45;&gt;32783f44&#45;c76a&#45;47e4&#45;93c7&#45;b98ea4749720 -->
<g id="edge4" class="edge">
<title>c6061ffe&#45;c493&#45;497d&#45;abca&#45;74b1574ef91a&#45;&gt;32783f44&#45;c76a&#45;47e4&#45;93c7&#45;b98ea4749720</title>
<path fill="none" stroke="black" d="M228.43,-74.83C219.08,-65.75 206.7,-53.71 195.83,-43.14"/>
<polygon fill="none" stroke="black" points="198.21,-40.57 188.6,-36.11 193.33,-45.59 198.21,-40.57"/>
</g>
<!-- fa84a473&#45;414e&#45;4f7b&#45;9a1d&#45;d7e4bb0db40a -->
<g id="node6" class="node">
<title>fa84a473&#45;414e&#45;4f7b&#45;9a1d&#45;d7e4bb0db40a</title>
<ellipse fill="cornsilk" stroke="black" cx="315" cy="-90" rx="27" ry="18"/>
<text text-anchor="middle" x="315" y="-86.3" font-family="Helvetica,sans-Serif" font-size="14.00">A</text>
</g>
<!-- fa84a473&#45;414e&#45;4f7b&#45;9a1d&#45;d7e4bb0db40a&#45;&gt;32783f44&#45;c76a&#45;47e4&#45;93c7&#45;b98ea4749720 -->
<g id="edge5" class="edge">
<title>fa84a473&#45;414e&#45;4f7b&#45;9a1d&#45;d7e4bb0db40a&#45;&gt;32783f44&#45;c76a&#45;47e4&#45;93c7&#45;b98ea4749720</title>
<path fill="none" stroke="black" d="M293.75,-78.67C271.08,-67.65 234.74,-49.98 207.47,-36.73"/>
<polygon fill="none" stroke="black" points="208.77,-33.47 198.24,-32.24 205.71,-39.76 208.77,-33.47"/>
</g>
</g>
</svg>
