<?xml version="1.0" encoding="UTF-8" standalone="no"?>
<!DOCTYPE svg PUBLIC "-//W3C//DTD SVG 1.1//EN"
 "http://www.w3.org/Graphics/SVG/1.1/DTD/svg11.dtd">
<!-- Generated by graphviz version 2.43.0 (0)
 -->
<!-- Title: %3 Pages: 1 -->
<svg width="350pt" height="116pt"
 viewBox="0.00 0.00 350.00 116.00" xmlns="http://www.w3.org/2000/svg" xmlns:xlink="http://www.w3.org/1999/xlink">
<g id="graph0" class="graph" transform="scale(1 1) rotate(0) translate(4 112)">
<title>%3</title>
<polygon fill="white" stroke="transparent" points="-4,4 -4,-112 346,-112 346,4 -4,4"/>
<!-- db5a2c30&#45;4a40&#45;4e1f&#45;a4c7&#45;9e354e322f6f -->
<g id="node1" class="node">
<title>db5a2c30&#45;4a40&#45;4e1f&#45;a4c7&#45;9e354e322f6f</title>
<ellipse fill="cornsilk" stroke="black" cx="27" cy="-90" rx="27" ry="18"/>
<text text-anchor="middle" x="27" y="-86.3" font-family="Helvetica,sans-Serif" font-size="14.00">D</text>
</g>
<!-- de2230fd&#45;8d81&#45;4e77&#45;b8e6&#45;482f03490bbf -->
<g id="node2" class="node">
<title>de2230fd&#45;8d81&#45;4e77&#45;b8e6&#45;482f03490bbf</title>
<polygon fill="cornsilk" stroke="black" points="198,-36 148,-36 144,-32 144,0 194,0 198,-4 198,-36"/>
<polyline fill="none" stroke="black" points="194,-32 144,-32 "/>
<polyline fill="none" stroke="black" points="194,-32 194,0 "/>
<polyline fill="none" stroke="black" points="194,-32 198,-36 "/>
<text text-anchor="middle" x="171" y="-14.3" font-family="Helvetica,sans-Serif" font-size="14.00">S</text>
</g>
<!-- db5a2c30&#45;4a40&#45;4e1f&#45;a4c7&#45;9e354e322f6f&#45;&gt;de2230fd&#45;8d81&#45;4e77&#45;b8e6&#45;482f03490bbf -->
<g id="edge1" class="edge">
<title>db5a2c30&#45;4a40&#45;4e1f&#45;a4c7&#45;9e354e322f6f&#45;&gt;de2230fd&#45;8d81&#45;4e77&#45;b8e6&#45;482f03490bbf</title>
<path fill="none" stroke="black" d="M48.25,-78.67C70.92,-67.65 107.26,-49.98 134.53,-36.73"/>
<polygon fill="none" stroke="black" points="136.29,-39.76 143.76,-32.24 133.23,-33.47 136.29,-39.76"/>
</g>
<!-- 29987c3e&#45;48f1&#45;4713&#45;bf36&#45;05ff3354016d -->
<g id="node3" class="node">
<title>29987c3e&#45;48f1&#45;4713&#45;bf36&#45;05ff3354016d</title>
<ellipse fill="cornsilk" stroke="black" cx="99" cy="-90" rx="27" ry="18"/>
<text text-anchor="middle" x="99" y="-86.3" font-family="Helvetica,sans-Serif" font-size="14.00">C</text>
</g>
<!-- 29987c3e&#45;48f1&#45;4713&#45;bf36&#45;05ff3354016d&#45;&gt;de2230fd&#45;8d81&#45;4e77&#45;b8e6&#45;482f03490bbf -->
<g id="edge2" class="edge">
<title>29987c3e&#45;48f1&#45;4713&#45;bf36&#45;05ff3354016d&#45;&gt;de2230fd&#45;8d81&#45;4e77&#45;b8e6&#45;482f03490bbf</title>
<path fill="none" stroke="black" d="M113.57,-74.83C122.92,-65.75 135.3,-53.71 146.17,-43.14"/>
<polygon fill="none" stroke="black" points="148.67,-45.59 153.4,-36.11 143.79,-40.57 148.67,-45.59"/>
</g>
<!-- eb1c389d&#45;e997&#45;4602&#45;a1be&#45;aa2821aba58c -->
<g id="node4" class="node">
<title>eb1c389d&#45;e997&#45;4602&#45;a1be&#45;aa2821aba58c</title>
<ellipse fill="cornsilk" stroke="black" cx="171" cy="-90" rx="27" ry="18"/>
<text text-anchor="middle" x="171" y="-86.3" font-family="Helvetica,sans-Serif" font-size="14.00">E</text>
</g>
<!-- eb1c389d&#45;e997&#45;4602&#45;a1be&#45;aa2821aba58c&#45;&gt;de2230fd&#45;8d81&#45;4e77&#45;b8e6&#45;482f03490bbf -->
<g id="edge3" class="edge">
<title>eb1c389d&#45;e997&#45;4602&#45;a1be&#45;aa2821aba58c&#45;&gt;de2230fd&#45;8d81&#45;4e77&#45;b8e6&#45;482f03490bbf</title>
<path fill="none" stroke="black" d="M171,-71.7C171,-63.98 171,-54.71 171,-46.11"/>
<polygon fill="none" stroke="black" points="174.5,-46.1 171,-36.1 167.5,-46.1 174.5,-46.1"/>
</g>
<!-- 48c44f40&#45;1c31&#45;42db&#45;ae79&#45;4658cb5acb1b -->
<g id="node5" class="node">
<title>48c44f40&#45;1c31&#45;42db&#45;ae79&#45;4658cb5acb1b</title>
<ellipse fill="cornsilk" stroke="black" cx="243" cy="-90" rx="27" ry="18"/>
<text text-anchor="middle" x="243" y="-86.3" font-family="Helvetica,sans-Serif" font-size="14.00">B</text>
</g>
<!-- 48c44f40&#45;1c31&#45;42db&#45;ae79&#45;4658cb5acb1b&#45;&gt;de2230fd&#45;8d81&#45;4e77&#45;b8e6&#45;482f03490bbf -->
<g id="edge4" class="edge">
<title>48c44f40&#45;1c31&#45;42db&#45;ae79&#45;4658cb5acb1b&#45;&gt;de2230fd&#45;8d81&#45;4e77&#45;b8e6&#45;482f03490bbf</title>
<path fill="none" stroke="black" d="M228.43,-74.83C219.08,-65.75 206.7,-53.71 195.83,-43.14"/>
<polygon fill="none" stroke="black" points="198.21,-40.57 188.6,-36.11 193.33,-45.59 198.21,-40.57"/>
</g>
<!-- 6ff1f2fc&#45;92ae&#45;4073&#45;af3c&#45;6d0f4d4a86f6 -->
<g id="node6" class="node">
<title>6ff1f2fc&#45;92ae&#45;4073&#45;af3c&#45;6d0f4d4a86f6</title>
<ellipse fill="cornsilk" stroke="black" cx="315" cy="-90" rx="27" ry="18"/>
<text text-anchor="middle" x="315" y="-86.3" font-family="Helvetica,sans-Serif" font-size="14.00">A</text>
</g>
<!-- 6ff1f2fc&#45;92ae&#45;4073&#45;af3c&#45;6d0f4d4a86f6&#45;&gt;de2230fd&#45;8d81&#45;4e77&#45;b8e6&#45;482f03490bbf -->
<g id="edge5" class="edge">
<title>6ff1f2fc&#45;92ae&#45;4073&#45;af3c&#45;6d0f4d4a86f6&#45;&gt;de2230fd&#45;8d81&#45;4e77&#45;b8e6&#45;482f03490bbf</title>
<path fill="none" stroke="black" d="M293.75,-78.67C271.08,-67.65 234.74,-49.98 207.47,-36.73"/>
<polygon fill="none" stroke="black" points="208.77,-33.47 198.24,-32.24 205.71,-39.76 208.77,-33.47"/>
</g>
</g>
</svg>
