<?xml version="1.0" encoding="UTF-8" standalone="no"?>
<!DOCTYPE svg PUBLIC "-//W3C//DTD SVG 1.1//EN"
 "http://www.w3.org/Graphics/SVG/1.1/DTD/svg11.dtd">
<!-- Generated by graphviz version 2.38.0 (20140413.2041)
 -->
<!-- Title: %3 Pages: 1 -->
<svg width="350pt" height="116pt"
 viewBox="0.00 0.00 350.00 116.00" xmlns="http://www.w3.org/2000/svg" xmlns:xlink="http://www.w3.org/1999/xlink">
<g id="graph0" class="graph" transform="scale(1 1) rotate(0) translate(4 112)">
<title>%3</title>
<polygon fill="white" stroke="none" points="-4,4 -4,-112 346,-112 346,4 -4,4"/>
<!-- 810c654d&#45;afd1&#45;4de8&#45;80d7&#45;3eaf113e103c -->
<g id="node1" class="node"><title>810c654d&#45;afd1&#45;4de8&#45;80d7&#45;3eaf113e103c</title>
<ellipse fill="cornsilk" stroke="black" cx="27" cy="-90" rx="27" ry="18"/>
<text text-anchor="middle" x="27" y="-86.3" font-family="Helvetica,sans-Serif" font-size="14.00">D</text>
</g>
<!-- e78267d7&#45;8339&#45;433f&#45;ba95&#45;56ae7a8bf6c0 -->
<g id="node2" class="node"><title>e78267d7&#45;8339&#45;433f&#45;ba95&#45;56ae7a8bf6c0</title>
<polygon fill="cornsilk" stroke="black" points="192,-36 144,-36 144,-0 198,-0 198,-30 192,-36"/>
<polyline fill="none" stroke="black" points="192,-36 192,-30 "/>
<polyline fill="none" stroke="black" points="198,-30 192,-30 "/>
<text text-anchor="middle" x="171" y="-14.3" font-family="Helvetica,sans-Serif" font-size="14.00">T</text>
</g>
<!-- 810c654d&#45;afd1&#45;4de8&#45;80d7&#45;3eaf113e103c&#45;&gt;e78267d7&#45;8339&#45;433f&#45;ba95&#45;56ae7a8bf6c0 -->
<g id="edge1" class="edge"><title>810c654d&#45;afd1&#45;4de8&#45;80d7&#45;3eaf113e103c&#45;&gt;e78267d7&#45;8339&#45;433f&#45;ba95&#45;56ae7a8bf6c0</title>
<path fill="none" stroke="black" d="M48.2477,-78.6713C70.9222,-67.6489 107.26,-49.9846 134.527,-36.7299"/>
<polygon fill="none" stroke="black" points="136.293,-39.7634 143.756,-32.2436 133.232,-33.4678 136.293,-39.7634"/>
</g>
<!-- 48b16b99&#45;7918&#45;4c15&#45;aff7&#45;4eb1768ba5d0 -->
<g id="node3" class="node"><title>48b16b99&#45;7918&#45;4c15&#45;aff7&#45;4eb1768ba5d0</title>
<ellipse fill="cornsilk" stroke="black" cx="99" cy="-90" rx="27" ry="18"/>
<text text-anchor="middle" x="99" y="-86.3" font-family="Helvetica,sans-Serif" font-size="14.00">A</text>
</g>
<!-- 48b16b99&#45;7918&#45;4c15&#45;aff7&#45;4eb1768ba5d0&#45;&gt;e78267d7&#45;8339&#45;433f&#45;ba95&#45;56ae7a8bf6c0 -->
<g id="edge2" class="edge"><title>48b16b99&#45;7918&#45;4c15&#45;aff7&#45;4eb1768ba5d0&#45;&gt;e78267d7&#45;8339&#45;433f&#45;ba95&#45;56ae7a8bf6c0</title>
<path fill="none" stroke="black" d="M113.57,-74.8345C122.918,-65.7459 135.298,-53.7105 146.169,-43.1413"/>
<polygon fill="none" stroke="black" points="148.668,-45.593 153.398,-36.1127 143.789,-40.5741 148.668,-45.593"/>
</g>
<!-- 57ca5308&#45;7226&#45;45ff&#45;aec9&#45;9174d6cc5aac -->
<g id="node4" class="node"><title>57ca5308&#45;7226&#45;45ff&#45;aec9&#45;9174d6cc5aac</title>
<ellipse fill="cornsilk" stroke="black" cx="171" cy="-90" rx="27" ry="18"/>
<text text-anchor="middle" x="171" y="-86.3" font-family="Helvetica,sans-Serif" font-size="14.00">E</text>
</g>
<!-- 57ca5308&#45;7226&#45;45ff&#45;aec9&#45;9174d6cc5aac&#45;&gt;e78267d7&#45;8339&#45;433f&#45;ba95&#45;56ae7a8bf6c0 -->
<g id="edge3" class="edge"><title>57ca5308&#45;7226&#45;45ff&#45;aec9&#45;9174d6cc5aac&#45;&gt;e78267d7&#45;8339&#45;433f&#45;ba95&#45;56ae7a8bf6c0</title>
<path fill="none" stroke="black" d="M171,-71.6966C171,-63.9827 171,-54.7125 171,-46.1124"/>
<polygon fill="none" stroke="black" points="174.5,-46.1043 171,-36.1043 167.5,-46.1044 174.5,-46.1043"/>
</g>
<!-- 6a5ab626&#45;3086&#45;4683&#45;a705&#45;76e5b94f2956 -->
<g id="node5" class="node"><title>6a5ab626&#45;3086&#45;4683&#45;a705&#45;76e5b94f2956</title>
<ellipse fill="cornsilk" stroke="black" cx="243" cy="-90" rx="27" ry="18"/>
<text text-anchor="middle" x="243" y="-86.3" font-family="Helvetica,sans-Serif" font-size="14.00">B</text>
</g>
<!-- 6a5ab626&#45;3086&#45;4683&#45;a705&#45;76e5b94f2956&#45;&gt;e78267d7&#45;8339&#45;433f&#45;ba95&#45;56ae7a8bf6c0 -->
<g id="edge4" class="edge"><title>6a5ab626&#45;3086&#45;4683&#45;a705&#45;76e5b94f2956&#45;&gt;e78267d7&#45;8339&#45;433f&#45;ba95&#45;56ae7a8bf6c0</title>
<path fill="none" stroke="black" d="M228.43,-74.8345C219.082,-65.7459 206.702,-53.7105 195.831,-43.1413"/>
<polygon fill="none" stroke="black" points="198.211,-40.5741 188.602,-36.1127 193.332,-45.593 198.211,-40.5741"/>
</g>
<!-- af3fb53a&#45;8fd4&#45;43ac&#45;b2dc&#45;5a457bffa924 -->
<g id="node6" class="node"><title>af3fb53a&#45;8fd4&#45;43ac&#45;b2dc&#45;5a457bffa924</title>
<ellipse fill="cornsilk" stroke="black" cx="315" cy="-90" rx="27" ry="18"/>
<text text-anchor="middle" x="315" y="-86.3" font-family="Helvetica,sans-Serif" font-size="14.00">C</text>
</g>
<!-- af3fb53a&#45;8fd4&#45;43ac&#45;b2dc&#45;5a457bffa924&#45;&gt;e78267d7&#45;8339&#45;433f&#45;ba95&#45;56ae7a8bf6c0 -->
<g id="edge5" class="edge"><title>af3fb53a&#45;8fd4&#45;43ac&#45;b2dc&#45;5a457bffa924&#45;&gt;e78267d7&#45;8339&#45;433f&#45;ba95&#45;56ae7a8bf6c0</title>
<path fill="none" stroke="black" d="M293.752,-78.6713C271.078,-67.6489 234.74,-49.9846 207.473,-36.7299"/>
<polygon fill="none" stroke="black" points="208.768,-33.4678 198.244,-32.2436 205.707,-39.7634 208.768,-33.4678"/>
</g>
</g>
</svg>
