<?xml version="1.0" encoding="UTF-8" standalone="no"?>
<!DOCTYPE svg PUBLIC "-//W3C//DTD SVG 1.1//EN"
 "http://www.w3.org/Graphics/SVG/1.1/DTD/svg11.dtd">
<!-- Generated by graphviz version 2.38.0 (20140413.2041)
 -->
<!-- Title: %3 Pages: 1 -->
<svg width="350pt" height="116pt"
 viewBox="0.00 0.00 350.00 116.00" xmlns="http://www.w3.org/2000/svg" xmlns:xlink="http://www.w3.org/1999/xlink">
<g id="graph0" class="graph" transform="scale(1 1) rotate(0) translate(4 112)">
<title>%3</title>
<polygon fill="white" stroke="none" points="-4,4 -4,-112 346,-112 346,4 -4,4"/>
<!-- 7590c56a&#45;934c&#45;4126&#45;982d&#45;fe4c450cadaa -->
<g id="node1" class="node"><title>7590c56a&#45;934c&#45;4126&#45;982d&#45;fe4c450cadaa</title>
<ellipse fill="cornsilk" stroke="black" cx="27" cy="-90" rx="27" ry="18"/>
<text text-anchor="middle" x="27" y="-86.3" font-family="Helvetica,sans-Serif" font-size="14.00">D</text>
</g>
<!-- 1e6108aa&#45;efcf&#45;4b1e&#45;8c49&#45;1bcc3da4d50c -->
<g id="node2" class="node"><title>1e6108aa&#45;efcf&#45;4b1e&#45;8c49&#45;1bcc3da4d50c</title>
<polygon fill="cornsilk" stroke="black" points="198,-36 144,-36 144,-0 198,-0 198,-36"/>
<text text-anchor="middle" x="171" y="-14.3" font-family="Helvetica,sans-Serif" font-size="14.00">W</text>
</g>
<!-- 7590c56a&#45;934c&#45;4126&#45;982d&#45;fe4c450cadaa&#45;&gt;1e6108aa&#45;efcf&#45;4b1e&#45;8c49&#45;1bcc3da4d50c -->
<g id="edge1" class="edge"><title>7590c56a&#45;934c&#45;4126&#45;982d&#45;fe4c450cadaa&#45;&gt;1e6108aa&#45;efcf&#45;4b1e&#45;8c49&#45;1bcc3da4d50c</title>
<path fill="none" stroke="black" d="M48.2477,-78.6713C70.9222,-67.6489 107.26,-49.9846 134.527,-36.7299"/>
<polygon fill="none" stroke="black" points="136.293,-39.7634 143.756,-32.2436 133.232,-33.4678 136.293,-39.7634"/>
</g>
<!-- ee2f60b6&#45;71f8&#45;43fa&#45;a523&#45;400e7a7df51a -->
<g id="node3" class="node"><title>ee2f60b6&#45;71f8&#45;43fa&#45;a523&#45;400e7a7df51a</title>
<ellipse fill="cornsilk" stroke="black" cx="99" cy="-90" rx="27" ry="18"/>
<text text-anchor="middle" x="99" y="-86.3" font-family="Helvetica,sans-Serif" font-size="14.00">A</text>
</g>
<!-- ee2f60b6&#45;71f8&#45;43fa&#45;a523&#45;400e7a7df51a&#45;&gt;1e6108aa&#45;efcf&#45;4b1e&#45;8c49&#45;1bcc3da4d50c -->
<g id="edge2" class="edge"><title>ee2f60b6&#45;71f8&#45;43fa&#45;a523&#45;400e7a7df51a&#45;&gt;1e6108aa&#45;efcf&#45;4b1e&#45;8c49&#45;1bcc3da4d50c</title>
<path fill="none" stroke="black" d="M113.57,-74.8345C122.918,-65.7459 135.298,-53.7105 146.169,-43.1413"/>
<polygon fill="none" stroke="black" points="148.668,-45.593 153.398,-36.1127 143.789,-40.5741 148.668,-45.593"/>
</g>
<!-- ec162357&#45;5324&#45;41f7&#45;a533&#45;9aaed00824e1 -->
<g id="node4" class="node"><title>ec162357&#45;5324&#45;41f7&#45;a533&#45;9aaed00824e1</title>
<ellipse fill="cornsilk" stroke="black" cx="171" cy="-90" rx="27" ry="18"/>
<text text-anchor="middle" x="171" y="-86.3" font-family="Helvetica,sans-Serif" font-size="14.00">E</text>
</g>
<!-- ec162357&#45;5324&#45;41f7&#45;a533&#45;9aaed00824e1&#45;&gt;1e6108aa&#45;efcf&#45;4b1e&#45;8c49&#45;1bcc3da4d50c -->
<g id="edge3" class="edge"><title>ec162357&#45;5324&#45;41f7&#45;a533&#45;9aaed00824e1&#45;&gt;1e6108aa&#45;efcf&#45;4b1e&#45;8c49&#45;1bcc3da4d50c</title>
<path fill="none" stroke="black" d="M171,-71.6966C171,-63.9827 171,-54.7125 171,-46.1124"/>
<polygon fill="none" stroke="black" points="174.5,-46.1043 171,-36.1043 167.5,-46.1044 174.5,-46.1043"/>
</g>
<!-- c2ec6cfa&#45;a7d3&#45;41ca&#45;89fc&#45;34fa27b52dcc -->
<g id="node5" class="node"><title>c2ec6cfa&#45;a7d3&#45;41ca&#45;89fc&#45;34fa27b52dcc</title>
<ellipse fill="cornsilk" stroke="black" cx="243" cy="-90" rx="27" ry="18"/>
<text text-anchor="middle" x="243" y="-86.3" font-family="Helvetica,sans-Serif" font-size="14.00">B</text>
</g>
<!-- c2ec6cfa&#45;a7d3&#45;41ca&#45;89fc&#45;34fa27b52dcc&#45;&gt;1e6108aa&#45;efcf&#45;4b1e&#45;8c49&#45;1bcc3da4d50c -->
<g id="edge4" class="edge"><title>c2ec6cfa&#45;a7d3&#45;41ca&#45;89fc&#45;34fa27b52dcc&#45;&gt;1e6108aa&#45;efcf&#45;4b1e&#45;8c49&#45;1bcc3da4d50c</title>
<path fill="none" stroke="black" d="M228.43,-74.8345C219.082,-65.7459 206.702,-53.7105 195.831,-43.1413"/>
<polygon fill="none" stroke="black" points="198.211,-40.5741 188.602,-36.1127 193.332,-45.593 198.211,-40.5741"/>
</g>
<!-- 648b9ccf&#45;cc04&#45;49aa&#45;a947&#45;725c933bec5b -->
<g id="node6" class="node"><title>648b9ccf&#45;cc04&#45;49aa&#45;a947&#45;725c933bec5b</title>
<ellipse fill="cornsilk" stroke="black" cx="315" cy="-90" rx="27" ry="18"/>
<text text-anchor="middle" x="315" y="-86.3" font-family="Helvetica,sans-Serif" font-size="14.00">C</text>
</g>
<!-- 648b9ccf&#45;cc04&#45;49aa&#45;a947&#45;725c933bec5b&#45;&gt;1e6108aa&#45;efcf&#45;4b1e&#45;8c49&#45;1bcc3da4d50c -->
<g id="edge5" class="edge"><title>648b9ccf&#45;cc04&#45;49aa&#45;a947&#45;725c933bec5b&#45;&gt;1e6108aa&#45;efcf&#45;4b1e&#45;8c49&#45;1bcc3da4d50c</title>
<path fill="none" stroke="black" d="M293.752,-78.6713C271.078,-67.6489 234.74,-49.9846 207.473,-36.7299"/>
<polygon fill="none" stroke="black" points="208.768,-33.4678 198.244,-32.2436 205.707,-39.7634 208.768,-33.4678"/>
</g>
</g>
</svg>
