<?xml version="1.0" encoding="UTF-8" standalone="no"?>
<!DOCTYPE svg PUBLIC "-//W3C//DTD SVG 1.1//EN"
 "http://www.w3.org/Graphics/SVG/1.1/DTD/svg11.dtd">
<!-- Generated by graphviz version 2.38.0 (20140413.2041)
 -->
<!-- Title: %3 Pages: 1 -->
<svg width="350pt" height="116pt"
 viewBox="0.00 0.00 350.00 116.00" xmlns="http://www.w3.org/2000/svg" xmlns:xlink="http://www.w3.org/1999/xlink">
<g id="graph0" class="graph" transform="scale(1 1) rotate(0) translate(4 112)">
<title>%3</title>
<polygon fill="white" stroke="none" points="-4,4 -4,-112 346,-112 346,4 -4,4"/>
<!-- e91a6029&#45;137e&#45;4cd9&#45;8dd5&#45;3d9d6ce907d3 -->
<g id="node1" class="node"><title>e91a6029&#45;137e&#45;4cd9&#45;8dd5&#45;3d9d6ce907d3</title>
<ellipse fill="cornsilk" stroke="black" cx="27" cy="-90" rx="27" ry="18"/>
<text text-anchor="middle" x="27" y="-86.3" font-family="Helvetica,sans-Serif" font-size="14.00">D</text>
</g>
<!-- 650389c5&#45;66ac&#45;4a9d&#45;a79f&#45;7c22454a02a8 -->
<g id="node2" class="node"><title>650389c5&#45;66ac&#45;4a9d&#45;a79f&#45;7c22454a02a8</title>
<polygon fill="cornsilk" stroke="black" points="155.232,-7.10543e-15 186.768,-7.10543e-15 198,-36 144,-36 155.232,-7.10543e-15"/>
<text text-anchor="middle" x="171" y="-14.3" font-family="Helvetica,sans-Serif" font-size="14.00">Y</text>
</g>
<!-- e91a6029&#45;137e&#45;4cd9&#45;8dd5&#45;3d9d6ce907d3&#45;&gt;650389c5&#45;66ac&#45;4a9d&#45;a79f&#45;7c22454a02a8 -->
<g id="edge1" class="edge"><title>e91a6029&#45;137e&#45;4cd9&#45;8dd5&#45;3d9d6ce907d3&#45;&gt;650389c5&#45;66ac&#45;4a9d&#45;a79f&#45;7c22454a02a8</title>
<path fill="none" stroke="black" d="M48.2477,-78.6713C71.3421,-67.4448 108.611,-49.3281 136.032,-35.9982"/>
<polygon fill="none" stroke="black" points="137.818,-39.0218 145.282,-31.502 134.758,-32.7262 137.818,-39.0218"/>
</g>
<!-- 41b57787&#45;beed&#45;4afc&#45;8b19&#45;7b21f8722874 -->
<g id="node3" class="node"><title>41b57787&#45;beed&#45;4afc&#45;8b19&#45;7b21f8722874</title>
<ellipse fill="cornsilk" stroke="black" cx="99" cy="-90" rx="27" ry="18"/>
<text text-anchor="middle" x="99" y="-86.3" font-family="Helvetica,sans-Serif" font-size="14.00">A</text>
</g>
<!-- 41b57787&#45;beed&#45;4afc&#45;8b19&#45;7b21f8722874&#45;&gt;650389c5&#45;66ac&#45;4a9d&#45;a79f&#45;7c22454a02a8 -->
<g id="edge2" class="edge"><title>41b57787&#45;beed&#45;4afc&#45;8b19&#45;7b21f8722874&#45;&gt;650389c5&#45;66ac&#45;4a9d&#45;a79f&#45;7c22454a02a8</title>
<path fill="none" stroke="black" d="M113.57,-74.8345C122.918,-65.7459 135.298,-53.7105 146.169,-43.1413"/>
<polygon fill="none" stroke="black" points="148.668,-45.593 153.398,-36.1127 143.789,-40.5741 148.668,-45.593"/>
</g>
<!-- b54a8040&#45;cfca&#45;4829&#45;80c5&#45;4e4ab8c013fd -->
<g id="node4" class="node"><title>b54a8040&#45;cfca&#45;4829&#45;80c5&#45;4e4ab8c013fd</title>
<ellipse fill="cornsilk" stroke="black" cx="171" cy="-90" rx="27" ry="18"/>
<text text-anchor="middle" x="171" y="-86.3" font-family="Helvetica,sans-Serif" font-size="14.00">E</text>
</g>
<!-- b54a8040&#45;cfca&#45;4829&#45;80c5&#45;4e4ab8c013fd&#45;&gt;650389c5&#45;66ac&#45;4a9d&#45;a79f&#45;7c22454a02a8 -->
<g id="edge3" class="edge"><title>b54a8040&#45;cfca&#45;4829&#45;80c5&#45;4e4ab8c013fd&#45;&gt;650389c5&#45;66ac&#45;4a9d&#45;a79f&#45;7c22454a02a8</title>
<path fill="none" stroke="black" d="M171,-71.6966C171,-63.9827 171,-54.7125 171,-46.1124"/>
<polygon fill="none" stroke="black" points="174.5,-46.1043 171,-36.1043 167.5,-46.1044 174.5,-46.1043"/>
</g>
<!-- 83a50e76&#45;8c65&#45;42f3&#45;a8bb&#45;03cc9923a69f -->
<g id="node5" class="node"><title>83a50e76&#45;8c65&#45;42f3&#45;a8bb&#45;03cc9923a69f</title>
<ellipse fill="cornsilk" stroke="black" cx="243" cy="-90" rx="27" ry="18"/>
<text text-anchor="middle" x="243" y="-86.3" font-family="Helvetica,sans-Serif" font-size="14.00">B</text>
</g>
<!-- 83a50e76&#45;8c65&#45;42f3&#45;a8bb&#45;03cc9923a69f&#45;&gt;650389c5&#45;66ac&#45;4a9d&#45;a79f&#45;7c22454a02a8 -->
<g id="edge4" class="edge"><title>83a50e76&#45;8c65&#45;42f3&#45;a8bb&#45;03cc9923a69f&#45;&gt;650389c5&#45;66ac&#45;4a9d&#45;a79f&#45;7c22454a02a8</title>
<path fill="none" stroke="black" d="M228.43,-74.8345C219.082,-65.7459 206.702,-53.7105 195.831,-43.1413"/>
<polygon fill="none" stroke="black" points="198.211,-40.5741 188.602,-36.1127 193.332,-45.593 198.211,-40.5741"/>
</g>
<!-- 72628f63&#45;6cd3&#45;4e80&#45;ae43&#45;523e8ebc3977 -->
<g id="node6" class="node"><title>72628f63&#45;6cd3&#45;4e80&#45;ae43&#45;523e8ebc3977</title>
<ellipse fill="cornsilk" stroke="black" cx="315" cy="-90" rx="27" ry="18"/>
<text text-anchor="middle" x="315" y="-86.3" font-family="Helvetica,sans-Serif" font-size="14.00">C</text>
</g>
<!-- 72628f63&#45;6cd3&#45;4e80&#45;ae43&#45;523e8ebc3977&#45;&gt;650389c5&#45;66ac&#45;4a9d&#45;a79f&#45;7c22454a02a8 -->
<g id="edge5" class="edge"><title>72628f63&#45;6cd3&#45;4e80&#45;ae43&#45;523e8ebc3977&#45;&gt;650389c5&#45;66ac&#45;4a9d&#45;a79f&#45;7c22454a02a8</title>
<path fill="none" stroke="black" d="M293.752,-78.6713C270.658,-67.4448 233.389,-49.3281 205.968,-35.9982"/>
<polygon fill="none" stroke="black" points="207.242,-32.7262 196.718,-31.502 204.182,-39.0218 207.242,-32.7262"/>
</g>
</g>
</svg>
