<?xml version="1.0" encoding="UTF-8" standalone="no"?>
<!DOCTYPE svg PUBLIC "-//W3C//DTD SVG 1.1//EN"
 "http://www.w3.org/Graphics/SVG/1.1/DTD/svg11.dtd">
<!-- Generated by graphviz version 2.43.0 (0)
 -->
<!-- Title: %3 Pages: 1 -->
<svg width="350pt" height="116pt"
 viewBox="0.00 0.00 350.00 116.00" xmlns="http://www.w3.org/2000/svg" xmlns:xlink="http://www.w3.org/1999/xlink">
<g id="graph0" class="graph" transform="scale(1 1) rotate(0) translate(4 112)">
<title>%3</title>
<polygon fill="white" stroke="transparent" points="-4,4 -4,-112 346,-112 346,4 -4,4"/>
<!-- a82f56e5&#45;2c39&#45;4b43&#45;8660&#45;c5b03cdd0754 -->
<g id="node1" class="node">
<title>a82f56e5&#45;2c39&#45;4b43&#45;8660&#45;c5b03cdd0754</title>
<ellipse fill="cornsilk" stroke="black" cx="27" cy="-90" rx="27" ry="18"/>
<text text-anchor="middle" x="27" y="-86.3" font-family="Helvetica,sans-Serif" font-size="14.00">D</text>
</g>
<!-- 3f7479d8&#45;6e7a&#45;4886&#45;b063&#45;da8efb07a1bb -->
<g id="node2" class="node">
<title>3f7479d8&#45;6e7a&#45;4886&#45;b063&#45;da8efb07a1bb</title>
<polygon fill="cornsilk" stroke="black" points="198,-36 144,-36 144,0 198,0 198,-36"/>
<text text-anchor="middle" x="171" y="-14.3" font-family="Helvetica,sans-Serif" font-size="14.00">P</text>
</g>
<!-- a82f56e5&#45;2c39&#45;4b43&#45;8660&#45;c5b03cdd0754&#45;&gt;3f7479d8&#45;6e7a&#45;4886&#45;b063&#45;da8efb07a1bb -->
<g id="edge1" class="edge">
<title>a82f56e5&#45;2c39&#45;4b43&#45;8660&#45;c5b03cdd0754&#45;&gt;3f7479d8&#45;6e7a&#45;4886&#45;b063&#45;da8efb07a1bb</title>
<path fill="none" stroke="black" d="M48.25,-78.67C70.92,-67.65 107.26,-49.98 134.53,-36.73"/>
<polygon fill="none" stroke="black" points="136.29,-39.76 143.76,-32.24 133.23,-33.47 136.29,-39.76"/>
</g>
<!-- f1b9a5bb&#45;0897&#45;4d8d&#45;8cd9&#45;58b691dbf16b -->
<g id="node3" class="node">
<title>f1b9a5bb&#45;0897&#45;4d8d&#45;8cd9&#45;58b691dbf16b</title>
<ellipse fill="cornsilk" stroke="black" cx="99" cy="-90" rx="27" ry="18"/>
<text text-anchor="middle" x="99" y="-86.3" font-family="Helvetica,sans-Serif" font-size="14.00">C</text>
</g>
<!-- f1b9a5bb&#45;0897&#45;4d8d&#45;8cd9&#45;58b691dbf16b&#45;&gt;3f7479d8&#45;6e7a&#45;4886&#45;b063&#45;da8efb07a1bb -->
<g id="edge2" class="edge">
<title>f1b9a5bb&#45;0897&#45;4d8d&#45;8cd9&#45;58b691dbf16b&#45;&gt;3f7479d8&#45;6e7a&#45;4886&#45;b063&#45;da8efb07a1bb</title>
<path fill="none" stroke="black" d="M113.57,-74.83C122.92,-65.75 135.3,-53.71 146.17,-43.14"/>
<polygon fill="none" stroke="black" points="148.67,-45.59 153.4,-36.11 143.79,-40.57 148.67,-45.59"/>
</g>
<!-- c0897e02&#45;c25c&#45;4774&#45;8392&#45;91b8ed7c1c07 -->
<g id="node4" class="node">
<title>c0897e02&#45;c25c&#45;4774&#45;8392&#45;91b8ed7c1c07</title>
<ellipse fill="cornsilk" stroke="black" cx="171" cy="-90" rx="27" ry="18"/>
<text text-anchor="middle" x="171" y="-86.3" font-family="Helvetica,sans-Serif" font-size="14.00">E</text>
</g>
<!-- c0897e02&#45;c25c&#45;4774&#45;8392&#45;91b8ed7c1c07&#45;&gt;3f7479d8&#45;6e7a&#45;4886&#45;b063&#45;da8efb07a1bb -->
<g id="edge3" class="edge">
<title>c0897e02&#45;c25c&#45;4774&#45;8392&#45;91b8ed7c1c07&#45;&gt;3f7479d8&#45;6e7a&#45;4886&#45;b063&#45;da8efb07a1bb</title>
<path fill="none" stroke="black" d="M171,-71.7C171,-63.98 171,-54.71 171,-46.11"/>
<polygon fill="none" stroke="black" points="174.5,-46.1 171,-36.1 167.5,-46.1 174.5,-46.1"/>
</g>
<!-- da3a7381&#45;3d59&#45;41b6&#45;b4c2&#45;0cd1bdeb8a70 -->
<g id="node5" class="node">
<title>da3a7381&#45;3d59&#45;41b6&#45;b4c2&#45;0cd1bdeb8a70</title>
<ellipse fill="cornsilk" stroke="black" cx="243" cy="-90" rx="27" ry="18"/>
<text text-anchor="middle" x="243" y="-86.3" font-family="Helvetica,sans-Serif" font-size="14.00">B</text>
</g>
<!-- da3a7381&#45;3d59&#45;41b6&#45;b4c2&#45;0cd1bdeb8a70&#45;&gt;3f7479d8&#45;6e7a&#45;4886&#45;b063&#45;da8efb07a1bb -->
<g id="edge4" class="edge">
<title>da3a7381&#45;3d59&#45;41b6&#45;b4c2&#45;0cd1bdeb8a70&#45;&gt;3f7479d8&#45;6e7a&#45;4886&#45;b063&#45;da8efb07a1bb</title>
<path fill="none" stroke="black" d="M228.43,-74.83C219.08,-65.75 206.7,-53.71 195.83,-43.14"/>
<polygon fill="none" stroke="black" points="198.21,-40.57 188.6,-36.11 193.33,-45.59 198.21,-40.57"/>
</g>
<!-- 8bd86b81&#45;2c89&#45;473a&#45;b036&#45;d0698c30ceb4 -->
<g id="node6" class="node">
<title>8bd86b81&#45;2c89&#45;473a&#45;b036&#45;d0698c30ceb4</title>
<ellipse fill="cornsilk" stroke="black" cx="315" cy="-90" rx="27" ry="18"/>
<text text-anchor="middle" x="315" y="-86.3" font-family="Helvetica,sans-Serif" font-size="14.00">A</text>
</g>
<!-- 8bd86b81&#45;2c89&#45;473a&#45;b036&#45;d0698c30ceb4&#45;&gt;3f7479d8&#45;6e7a&#45;4886&#45;b063&#45;da8efb07a1bb -->
<g id="edge5" class="edge">
<title>8bd86b81&#45;2c89&#45;473a&#45;b036&#45;d0698c30ceb4&#45;&gt;3f7479d8&#45;6e7a&#45;4886&#45;b063&#45;da8efb07a1bb</title>
<path fill="none" stroke="black" d="M293.75,-78.67C271.08,-67.65 234.74,-49.98 207.47,-36.73"/>
<polygon fill="none" stroke="black" points="208.77,-33.47 198.24,-32.24 205.71,-39.76 208.77,-33.47"/>
</g>
</g>
</svg>
