<?xml version="1.0" encoding="UTF-8" standalone="no"?>
<!DOCTYPE svg PUBLIC "-//W3C//DTD SVG 1.1//EN"
 "http://www.w3.org/Graphics/SVG/1.1/DTD/svg11.dtd">
<!-- Generated by graphviz version 2.38.0 (20140413.2041)
 -->
<!-- Title: %3 Pages: 1 -->
<svg width="350pt" height="116pt"
 viewBox="0.00 0.00 350.00 116.00" xmlns="http://www.w3.org/2000/svg" xmlns:xlink="http://www.w3.org/1999/xlink">
<g id="graph0" class="graph" transform="scale(1 1) rotate(0) translate(4 112)">
<title>%3</title>
<polygon fill="white" stroke="none" points="-4,4 -4,-112 346,-112 346,4 -4,4"/>
<!-- c126e7ee&#45;8c17&#45;4598&#45;bb0e&#45;b51f2dea511e -->
<g id="node1" class="node"><title>c126e7ee&#45;8c17&#45;4598&#45;bb0e&#45;b51f2dea511e</title>
<ellipse fill="cornsilk" stroke="black" cx="27" cy="-90" rx="27" ry="18"/>
<text text-anchor="middle" x="27" y="-86.3" font-family="Helvetica,sans-Serif" font-size="14.00">D</text>
</g>
<!-- 11e3588e&#45;ae75&#45;4d9b&#45;b045&#45;4d1416345dcf -->
<g id="node2" class="node"><title>11e3588e&#45;ae75&#45;4d9b&#45;b045&#45;4d1416345dcf</title>
<polygon fill="cornsilk" stroke="black" points="198,-36 144,-36 144,-0 198,-0 198,-36"/>
<text text-anchor="middle" x="171" y="-14.3" font-family="Helvetica,sans-Serif" font-size="14.00">P</text>
</g>
<!-- c126e7ee&#45;8c17&#45;4598&#45;bb0e&#45;b51f2dea511e&#45;&gt;11e3588e&#45;ae75&#45;4d9b&#45;b045&#45;4d1416345dcf -->
<g id="edge1" class="edge"><title>c126e7ee&#45;8c17&#45;4598&#45;bb0e&#45;b51f2dea511e&#45;&gt;11e3588e&#45;ae75&#45;4d9b&#45;b045&#45;4d1416345dcf</title>
<path fill="none" stroke="black" d="M48.2477,-78.6713C70.9222,-67.6489 107.26,-49.9846 134.527,-36.7299"/>
<polygon fill="none" stroke="black" points="136.293,-39.7634 143.756,-32.2436 133.232,-33.4678 136.293,-39.7634"/>
</g>
<!-- 30a18fc2&#45;b2cb&#45;482f&#45;8b3a&#45;5e90c0861552 -->
<g id="node3" class="node"><title>30a18fc2&#45;b2cb&#45;482f&#45;8b3a&#45;5e90c0861552</title>
<ellipse fill="cornsilk" stroke="black" cx="99" cy="-90" rx="27" ry="18"/>
<text text-anchor="middle" x="99" y="-86.3" font-family="Helvetica,sans-Serif" font-size="14.00">A</text>
</g>
<!-- 30a18fc2&#45;b2cb&#45;482f&#45;8b3a&#45;5e90c0861552&#45;&gt;11e3588e&#45;ae75&#45;4d9b&#45;b045&#45;4d1416345dcf -->
<g id="edge2" class="edge"><title>30a18fc2&#45;b2cb&#45;482f&#45;8b3a&#45;5e90c0861552&#45;&gt;11e3588e&#45;ae75&#45;4d9b&#45;b045&#45;4d1416345dcf</title>
<path fill="none" stroke="black" d="M113.57,-74.8345C122.918,-65.7459 135.298,-53.7105 146.169,-43.1413"/>
<polygon fill="none" stroke="black" points="148.668,-45.593 153.398,-36.1127 143.789,-40.5741 148.668,-45.593"/>
</g>
<!-- bc60a7f6&#45;0d0c&#45;4a1a&#45;8e5a&#45;a0933beafcbe -->
<g id="node4" class="node"><title>bc60a7f6&#45;0d0c&#45;4a1a&#45;8e5a&#45;a0933beafcbe</title>
<ellipse fill="cornsilk" stroke="black" cx="171" cy="-90" rx="27" ry="18"/>
<text text-anchor="middle" x="171" y="-86.3" font-family="Helvetica,sans-Serif" font-size="14.00">E</text>
</g>
<!-- bc60a7f6&#45;0d0c&#45;4a1a&#45;8e5a&#45;a0933beafcbe&#45;&gt;11e3588e&#45;ae75&#45;4d9b&#45;b045&#45;4d1416345dcf -->
<g id="edge3" class="edge"><title>bc60a7f6&#45;0d0c&#45;4a1a&#45;8e5a&#45;a0933beafcbe&#45;&gt;11e3588e&#45;ae75&#45;4d9b&#45;b045&#45;4d1416345dcf</title>
<path fill="none" stroke="black" d="M171,-71.6966C171,-63.9827 171,-54.7125 171,-46.1124"/>
<polygon fill="none" stroke="black" points="174.5,-46.1043 171,-36.1043 167.5,-46.1044 174.5,-46.1043"/>
</g>
<!-- 34a2a90e&#45;2bf8&#45;4f3d&#45;84bb&#45;f4dabbd8878e -->
<g id="node5" class="node"><title>34a2a90e&#45;2bf8&#45;4f3d&#45;84bb&#45;f4dabbd8878e</title>
<ellipse fill="cornsilk" stroke="black" cx="243" cy="-90" rx="27" ry="18"/>
<text text-anchor="middle" x="243" y="-86.3" font-family="Helvetica,sans-Serif" font-size="14.00">B</text>
</g>
<!-- 34a2a90e&#45;2bf8&#45;4f3d&#45;84bb&#45;f4dabbd8878e&#45;&gt;11e3588e&#45;ae75&#45;4d9b&#45;b045&#45;4d1416345dcf -->
<g id="edge4" class="edge"><title>34a2a90e&#45;2bf8&#45;4f3d&#45;84bb&#45;f4dabbd8878e&#45;&gt;11e3588e&#45;ae75&#45;4d9b&#45;b045&#45;4d1416345dcf</title>
<path fill="none" stroke="black" d="M228.43,-74.8345C219.082,-65.7459 206.702,-53.7105 195.831,-43.1413"/>
<polygon fill="none" stroke="black" points="198.211,-40.5741 188.602,-36.1127 193.332,-45.593 198.211,-40.5741"/>
</g>
<!-- 7ef95986&#45;bf91&#45;4254&#45;977f&#45;db2bcdfb3e79 -->
<g id="node6" class="node"><title>7ef95986&#45;bf91&#45;4254&#45;977f&#45;db2bcdfb3e79</title>
<ellipse fill="cornsilk" stroke="black" cx="315" cy="-90" rx="27" ry="18"/>
<text text-anchor="middle" x="315" y="-86.3" font-family="Helvetica,sans-Serif" font-size="14.00">C</text>
</g>
<!-- 7ef95986&#45;bf91&#45;4254&#45;977f&#45;db2bcdfb3e79&#45;&gt;11e3588e&#45;ae75&#45;4d9b&#45;b045&#45;4d1416345dcf -->
<g id="edge5" class="edge"><title>7ef95986&#45;bf91&#45;4254&#45;977f&#45;db2bcdfb3e79&#45;&gt;11e3588e&#45;ae75&#45;4d9b&#45;b045&#45;4d1416345dcf</title>
<path fill="none" stroke="black" d="M293.752,-78.6713C271.078,-67.6489 234.74,-49.9846 207.473,-36.7299"/>
<polygon fill="none" stroke="black" points="208.768,-33.4678 198.244,-32.2436 205.707,-39.7634 208.768,-33.4678"/>
</g>
</g>
</svg>
