<?xml version="1.0" encoding="UTF-8" standalone="no"?>
<!DOCTYPE svg PUBLIC "-//W3C//DTD SVG 1.1//EN"
 "http://www.w3.org/Graphics/SVG/1.1/DTD/svg11.dtd">
<!-- Generated by graphviz version 2.43.0 (0)
 -->
<!-- Title: %3 Pages: 1 -->
<svg width="350pt" height="116pt"
 viewBox="0.00 0.00 350.00 116.00" xmlns="http://www.w3.org/2000/svg" xmlns:xlink="http://www.w3.org/1999/xlink">
<g id="graph0" class="graph" transform="scale(1 1) rotate(0) translate(4 112)">
<title>%3</title>
<polygon fill="white" stroke="transparent" points="-4,4 -4,-112 346,-112 346,4 -4,4"/>
<!-- b954857c&#45;eb48&#45;4f17&#45;b762&#45;acec741e95f9 -->
<g id="node1" class="node">
<title>b954857c&#45;eb48&#45;4f17&#45;b762&#45;acec741e95f9</title>
<ellipse fill="cornsilk" stroke="black" cx="27" cy="-90" rx="27" ry="18"/>
<text text-anchor="middle" x="27" y="-86.3" font-family="Helvetica,sans-Serif" font-size="14.00">D</text>
</g>
<!-- c6aa3fe5&#45;92ea&#45;408e&#45;b04d&#45;b3756068fec1 -->
<g id="node2" class="node">
<title>c6aa3fe5&#45;92ea&#45;408e&#45;b04d&#45;b3756068fec1</title>
<polygon fill="cornsilk" stroke="black" points="155.23,0 186.77,0 198,-36 144,-36 155.23,0"/>
<text text-anchor="middle" x="171" y="-14.3" font-family="Helvetica,sans-Serif" font-size="14.00">Y</text>
</g>
<!-- b954857c&#45;eb48&#45;4f17&#45;b762&#45;acec741e95f9&#45;&gt;c6aa3fe5&#45;92ea&#45;408e&#45;b04d&#45;b3756068fec1 -->
<g id="edge1" class="edge">
<title>b954857c&#45;eb48&#45;4f17&#45;b762&#45;acec741e95f9&#45;&gt;c6aa3fe5&#45;92ea&#45;408e&#45;b04d&#45;b3756068fec1</title>
<path fill="none" stroke="black" d="M48.25,-78.67C71.34,-67.44 108.61,-49.33 136.03,-36"/>
<polygon fill="none" stroke="black" points="137.82,-39.02 145.28,-31.5 134.76,-32.73 137.82,-39.02"/>
</g>
<!-- d2038e92&#45;3695&#45;4798&#45;b463&#45;f86950d20228 -->
<g id="node3" class="node">
<title>d2038e92&#45;3695&#45;4798&#45;b463&#45;f86950d20228</title>
<ellipse fill="cornsilk" stroke="black" cx="99" cy="-90" rx="27" ry="18"/>
<text text-anchor="middle" x="99" y="-86.3" font-family="Helvetica,sans-Serif" font-size="14.00">C</text>
</g>
<!-- d2038e92&#45;3695&#45;4798&#45;b463&#45;f86950d20228&#45;&gt;c6aa3fe5&#45;92ea&#45;408e&#45;b04d&#45;b3756068fec1 -->
<g id="edge2" class="edge">
<title>d2038e92&#45;3695&#45;4798&#45;b463&#45;f86950d20228&#45;&gt;c6aa3fe5&#45;92ea&#45;408e&#45;b04d&#45;b3756068fec1</title>
<path fill="none" stroke="black" d="M113.57,-74.83C122.92,-65.75 135.3,-53.71 146.17,-43.14"/>
<polygon fill="none" stroke="black" points="148.67,-45.59 153.4,-36.11 143.79,-40.57 148.67,-45.59"/>
</g>
<!-- b0fcc008&#45;c6dc&#45;4f39&#45;a56b&#45;6e8b28c911d0 -->
<g id="node4" class="node">
<title>b0fcc008&#45;c6dc&#45;4f39&#45;a56b&#45;6e8b28c911d0</title>
<ellipse fill="cornsilk" stroke="black" cx="171" cy="-90" rx="27" ry="18"/>
<text text-anchor="middle" x="171" y="-86.3" font-family="Helvetica,sans-Serif" font-size="14.00">E</text>
</g>
<!-- b0fcc008&#45;c6dc&#45;4f39&#45;a56b&#45;6e8b28c911d0&#45;&gt;c6aa3fe5&#45;92ea&#45;408e&#45;b04d&#45;b3756068fec1 -->
<g id="edge3" class="edge">
<title>b0fcc008&#45;c6dc&#45;4f39&#45;a56b&#45;6e8b28c911d0&#45;&gt;c6aa3fe5&#45;92ea&#45;408e&#45;b04d&#45;b3756068fec1</title>
<path fill="none" stroke="black" d="M171,-71.7C171,-63.98 171,-54.71 171,-46.11"/>
<polygon fill="none" stroke="black" points="174.5,-46.1 171,-36.1 167.5,-46.1 174.5,-46.1"/>
</g>
<!-- 1d270064&#45;bfde&#45;42c4&#45;af39&#45;f97e12c8f6e6 -->
<g id="node5" class="node">
<title>1d270064&#45;bfde&#45;42c4&#45;af39&#45;f97e12c8f6e6</title>
<ellipse fill="cornsilk" stroke="black" cx="243" cy="-90" rx="27" ry="18"/>
<text text-anchor="middle" x="243" y="-86.3" font-family="Helvetica,sans-Serif" font-size="14.00">B</text>
</g>
<!-- 1d270064&#45;bfde&#45;42c4&#45;af39&#45;f97e12c8f6e6&#45;&gt;c6aa3fe5&#45;92ea&#45;408e&#45;b04d&#45;b3756068fec1 -->
<g id="edge4" class="edge">
<title>1d270064&#45;bfde&#45;42c4&#45;af39&#45;f97e12c8f6e6&#45;&gt;c6aa3fe5&#45;92ea&#45;408e&#45;b04d&#45;b3756068fec1</title>
<path fill="none" stroke="black" d="M228.43,-74.83C219.08,-65.75 206.7,-53.71 195.83,-43.14"/>
<polygon fill="none" stroke="black" points="198.21,-40.57 188.6,-36.11 193.33,-45.59 198.21,-40.57"/>
</g>
<!-- dfa96b84&#45;0f0b&#45;4c61&#45;828a&#45;b5664765fae5 -->
<g id="node6" class="node">
<title>dfa96b84&#45;0f0b&#45;4c61&#45;828a&#45;b5664765fae5</title>
<ellipse fill="cornsilk" stroke="black" cx="315" cy="-90" rx="27" ry="18"/>
<text text-anchor="middle" x="315" y="-86.3" font-family="Helvetica,sans-Serif" font-size="14.00">A</text>
</g>
<!-- dfa96b84&#45;0f0b&#45;4c61&#45;828a&#45;b5664765fae5&#45;&gt;c6aa3fe5&#45;92ea&#45;408e&#45;b04d&#45;b3756068fec1 -->
<g id="edge5" class="edge">
<title>dfa96b84&#45;0f0b&#45;4c61&#45;828a&#45;b5664765fae5&#45;&gt;c6aa3fe5&#45;92ea&#45;408e&#45;b04d&#45;b3756068fec1</title>
<path fill="none" stroke="black" d="M293.75,-78.67C270.66,-67.44 233.39,-49.33 205.97,-36"/>
<polygon fill="none" stroke="black" points="207.24,-32.73 196.72,-31.5 204.18,-39.02 207.24,-32.73"/>
</g>
</g>
</svg>
