<?xml version="1.0" encoding="UTF-8" standalone="no"?>
<!DOCTYPE svg PUBLIC "-//W3C//DTD SVG 1.1//EN"
 "http://www.w3.org/Graphics/SVG/1.1/DTD/svg11.dtd">
<!-- Generated by graphviz version 2.38.0 (20140413.2041)
 -->
<!-- Title: %3 Pages: 1 -->
<svg width="350pt" height="116pt"
 viewBox="0.00 0.00 350.00 116.00" xmlns="http://www.w3.org/2000/svg" xmlns:xlink="http://www.w3.org/1999/xlink">
<g id="graph0" class="graph" transform="scale(1 1) rotate(0) translate(4 112)">
<title>%3</title>
<polygon fill="white" stroke="none" points="-4,4 -4,-112 346,-112 346,4 -4,4"/>
<!-- 3369459f&#45;5ba5&#45;44f8&#45;846b&#45;87040a4ee09e -->
<g id="node1" class="node"><title>3369459f&#45;5ba5&#45;44f8&#45;846b&#45;87040a4ee09e</title>
<ellipse fill="cornsilk" stroke="black" cx="27" cy="-90" rx="27" ry="18"/>
<text text-anchor="middle" x="27" y="-86.3" font-family="Helvetica,sans-Serif" font-size="14.00">D</text>
</g>
<!-- 2943f655&#45;9cbe&#45;40fe&#45;b5f1&#45;fe2064c7b399 -->
<g id="node2" class="node"><title>2943f655&#45;9cbe&#45;40fe&#45;b5f1&#45;fe2064c7b399</title>
<polygon fill="cornsilk" stroke="black" points="198,-36 144,-36 144,-0 198,-0 198,-36"/>
<text text-anchor="middle" x="171" y="-14.3" font-family="Helvetica,sans-Serif" font-size="14.00">W</text>
</g>
<!-- 3369459f&#45;5ba5&#45;44f8&#45;846b&#45;87040a4ee09e&#45;&gt;2943f655&#45;9cbe&#45;40fe&#45;b5f1&#45;fe2064c7b399 -->
<g id="edge1" class="edge"><title>3369459f&#45;5ba5&#45;44f8&#45;846b&#45;87040a4ee09e&#45;&gt;2943f655&#45;9cbe&#45;40fe&#45;b5f1&#45;fe2064c7b399</title>
<path fill="none" stroke="black" d="M48.2477,-78.6713C70.9222,-67.6489 107.26,-49.9846 134.527,-36.7299"/>
<polygon fill="none" stroke="black" points="136.293,-39.7634 143.756,-32.2436 133.232,-33.4678 136.293,-39.7634"/>
</g>
<!-- d42c6ab9&#45;1110&#45;4646&#45;afcd&#45;f3e8cd83149a -->
<g id="node3" class="node"><title>d42c6ab9&#45;1110&#45;4646&#45;afcd&#45;f3e8cd83149a</title>
<ellipse fill="cornsilk" stroke="black" cx="99" cy="-90" rx="27" ry="18"/>
<text text-anchor="middle" x="99" y="-86.3" font-family="Helvetica,sans-Serif" font-size="14.00">A</text>
</g>
<!-- d42c6ab9&#45;1110&#45;4646&#45;afcd&#45;f3e8cd83149a&#45;&gt;2943f655&#45;9cbe&#45;40fe&#45;b5f1&#45;fe2064c7b399 -->
<g id="edge2" class="edge"><title>d42c6ab9&#45;1110&#45;4646&#45;afcd&#45;f3e8cd83149a&#45;&gt;2943f655&#45;9cbe&#45;40fe&#45;b5f1&#45;fe2064c7b399</title>
<path fill="none" stroke="black" d="M113.57,-74.8345C122.918,-65.7459 135.298,-53.7105 146.169,-43.1413"/>
<polygon fill="none" stroke="black" points="148.668,-45.593 153.398,-36.1127 143.789,-40.5741 148.668,-45.593"/>
</g>
<!-- 294c44d1&#45;743f&#45;43c3&#45;90a7&#45;3a919fff6133 -->
<g id="node4" class="node"><title>294c44d1&#45;743f&#45;43c3&#45;90a7&#45;3a919fff6133</title>
<ellipse fill="cornsilk" stroke="black" cx="171" cy="-90" rx="27" ry="18"/>
<text text-anchor="middle" x="171" y="-86.3" font-family="Helvetica,sans-Serif" font-size="14.00">E</text>
</g>
<!-- 294c44d1&#45;743f&#45;43c3&#45;90a7&#45;3a919fff6133&#45;&gt;2943f655&#45;9cbe&#45;40fe&#45;b5f1&#45;fe2064c7b399 -->
<g id="edge3" class="edge"><title>294c44d1&#45;743f&#45;43c3&#45;90a7&#45;3a919fff6133&#45;&gt;2943f655&#45;9cbe&#45;40fe&#45;b5f1&#45;fe2064c7b399</title>
<path fill="none" stroke="black" d="M171,-71.6966C171,-63.9827 171,-54.7125 171,-46.1124"/>
<polygon fill="none" stroke="black" points="174.5,-46.1043 171,-36.1043 167.5,-46.1044 174.5,-46.1043"/>
</g>
<!-- b3029e3e&#45;32fd&#45;42bd&#45;bb2e&#45;2fc63969410c -->
<g id="node5" class="node"><title>b3029e3e&#45;32fd&#45;42bd&#45;bb2e&#45;2fc63969410c</title>
<ellipse fill="cornsilk" stroke="black" cx="243" cy="-90" rx="27" ry="18"/>
<text text-anchor="middle" x="243" y="-86.3" font-family="Helvetica,sans-Serif" font-size="14.00">B</text>
</g>
<!-- b3029e3e&#45;32fd&#45;42bd&#45;bb2e&#45;2fc63969410c&#45;&gt;2943f655&#45;9cbe&#45;40fe&#45;b5f1&#45;fe2064c7b399 -->
<g id="edge4" class="edge"><title>b3029e3e&#45;32fd&#45;42bd&#45;bb2e&#45;2fc63969410c&#45;&gt;2943f655&#45;9cbe&#45;40fe&#45;b5f1&#45;fe2064c7b399</title>
<path fill="none" stroke="black" d="M228.43,-74.8345C219.082,-65.7459 206.702,-53.7105 195.831,-43.1413"/>
<polygon fill="none" stroke="black" points="198.211,-40.5741 188.602,-36.1127 193.332,-45.593 198.211,-40.5741"/>
</g>
<!-- 7c536004&#45;f5a6&#45;4e59&#45;8f78&#45;4b336e590447 -->
<g id="node6" class="node"><title>7c536004&#45;f5a6&#45;4e59&#45;8f78&#45;4b336e590447</title>
<ellipse fill="cornsilk" stroke="black" cx="315" cy="-90" rx="27" ry="18"/>
<text text-anchor="middle" x="315" y="-86.3" font-family="Helvetica,sans-Serif" font-size="14.00">C</text>
</g>
<!-- 7c536004&#45;f5a6&#45;4e59&#45;8f78&#45;4b336e590447&#45;&gt;2943f655&#45;9cbe&#45;40fe&#45;b5f1&#45;fe2064c7b399 -->
<g id="edge5" class="edge"><title>7c536004&#45;f5a6&#45;4e59&#45;8f78&#45;4b336e590447&#45;&gt;2943f655&#45;9cbe&#45;40fe&#45;b5f1&#45;fe2064c7b399</title>
<path fill="none" stroke="black" d="M293.752,-78.6713C271.078,-67.6489 234.74,-49.9846 207.473,-36.7299"/>
<polygon fill="none" stroke="black" points="208.768,-33.4678 198.244,-32.2436 205.707,-39.7634 208.768,-33.4678"/>
</g>
</g>
</svg>
