<?xml version="1.0" encoding="UTF-8" standalone="no"?>
<!DOCTYPE svg PUBLIC "-//W3C//DTD SVG 1.1//EN"
 "http://www.w3.org/Graphics/SVG/1.1/DTD/svg11.dtd">
<!-- Generated by graphviz version 2.43.0 (0)
 -->
<!-- Title: %3 Pages: 1 -->
<svg width="350pt" height="116pt"
 viewBox="0.00 0.00 350.00 116.00" xmlns="http://www.w3.org/2000/svg" xmlns:xlink="http://www.w3.org/1999/xlink">
<g id="graph0" class="graph" transform="scale(1 1) rotate(0) translate(4 112)">
<title>%3</title>
<polygon fill="white" stroke="transparent" points="-4,4 -4,-112 346,-112 346,4 -4,4"/>
<!-- f37b2bca&#45;80ce&#45;464b&#45;a748&#45;038e57545a94 -->
<g id="node1" class="node">
<title>f37b2bca&#45;80ce&#45;464b&#45;a748&#45;038e57545a94</title>
<ellipse fill="cornsilk" stroke="black" cx="27" cy="-90" rx="27" ry="18"/>
<text text-anchor="middle" x="27" y="-86.3" font-family="Helvetica,sans-Serif" font-size="14.00">D</text>
</g>
<!-- 612fe29a&#45;501c&#45;4851&#45;9332&#45;bf5ed8081aa3 -->
<g id="node2" class="node">
<title>612fe29a&#45;501c&#45;4851&#45;9332&#45;bf5ed8081aa3</title>
<polygon fill="cornsilk" stroke="black" points="198.98,-36 154.47,-36 143.02,0 187.53,0 198.98,-36"/>
<text text-anchor="middle" x="171" y="-14.3" font-family="Helvetica,sans-Serif" font-size="14.00">Q</text>
</g>
<!-- f37b2bca&#45;80ce&#45;464b&#45;a748&#45;038e57545a94&#45;&gt;612fe29a&#45;501c&#45;4851&#45;9332&#45;bf5ed8081aa3 -->
<g id="edge1" class="edge">
<title>f37b2bca&#45;80ce&#45;464b&#45;a748&#45;038e57545a94&#45;&gt;612fe29a&#45;501c&#45;4851&#45;9332&#45;bf5ed8081aa3</title>
<path fill="none" stroke="black" d="M48.25,-78.67C73.3,-66.49 115.04,-46.2 142.79,-32.72"/>
<polygon fill="none" stroke="black" points="144.5,-35.77 151.97,-28.25 141.44,-29.48 144.5,-35.77"/>
</g>
<!-- 386b0a48&#45;1bdd&#45;4b26&#45;b4c0&#45;1b3ae3e5d7e6 -->
<g id="node3" class="node">
<title>386b0a48&#45;1bdd&#45;4b26&#45;b4c0&#45;1b3ae3e5d7e6</title>
<ellipse fill="cornsilk" stroke="black" cx="99" cy="-90" rx="27" ry="18"/>
<text text-anchor="middle" x="99" y="-86.3" font-family="Helvetica,sans-Serif" font-size="14.00">C</text>
</g>
<!-- 386b0a48&#45;1bdd&#45;4b26&#45;b4c0&#45;1b3ae3e5d7e6&#45;&gt;612fe29a&#45;501c&#45;4851&#45;9332&#45;bf5ed8081aa3 -->
<g id="edge2" class="edge">
<title>386b0a48&#45;1bdd&#45;4b26&#45;b4c0&#45;1b3ae3e5d7e6&#45;&gt;612fe29a&#45;501c&#45;4851&#45;9332&#45;bf5ed8081aa3</title>
<path fill="none" stroke="black" d="M113.57,-74.83C123.12,-65.55 135.83,-53.19 146.87,-42.46"/>
<polygon fill="none" stroke="black" points="149.45,-44.83 154.18,-35.35 144.57,-39.82 149.45,-44.83"/>
</g>
<!-- 2e70d1c5&#45;467e&#45;4e0f&#45;b5b6&#45;28e617824877 -->
<g id="node4" class="node">
<title>2e70d1c5&#45;467e&#45;4e0f&#45;b5b6&#45;28e617824877</title>
<ellipse fill="cornsilk" stroke="black" cx="171" cy="-90" rx="27" ry="18"/>
<text text-anchor="middle" x="171" y="-86.3" font-family="Helvetica,sans-Serif" font-size="14.00">E</text>
</g>
<!-- 2e70d1c5&#45;467e&#45;4e0f&#45;b5b6&#45;28e617824877&#45;&gt;612fe29a&#45;501c&#45;4851&#45;9332&#45;bf5ed8081aa3 -->
<g id="edge3" class="edge">
<title>2e70d1c5&#45;467e&#45;4e0f&#45;b5b6&#45;28e617824877&#45;&gt;612fe29a&#45;501c&#45;4851&#45;9332&#45;bf5ed8081aa3</title>
<path fill="none" stroke="black" d="M171,-71.7C171,-63.98 171,-54.71 171,-46.11"/>
<polygon fill="none" stroke="black" points="174.5,-46.1 171,-36.1 167.5,-46.1 174.5,-46.1"/>
</g>
<!-- f90d98a7&#45;da67&#45;4d29&#45;982e&#45;27918dfa510d -->
<g id="node5" class="node">
<title>f90d98a7&#45;da67&#45;4d29&#45;982e&#45;27918dfa510d</title>
<ellipse fill="cornsilk" stroke="black" cx="243" cy="-90" rx="27" ry="18"/>
<text text-anchor="middle" x="243" y="-86.3" font-family="Helvetica,sans-Serif" font-size="14.00">B</text>
</g>
<!-- f90d98a7&#45;da67&#45;4d29&#45;982e&#45;27918dfa510d&#45;&gt;612fe29a&#45;501c&#45;4851&#45;9332&#45;bf5ed8081aa3 -->
<g id="edge4" class="edge">
<title>f90d98a7&#45;da67&#45;4d29&#45;982e&#45;27918dfa510d&#45;&gt;612fe29a&#45;501c&#45;4851&#45;9332&#45;bf5ed8081aa3</title>
<path fill="none" stroke="black" d="M228.43,-74.83C219.08,-65.75 206.7,-53.71 195.83,-43.14"/>
<polygon fill="none" stroke="black" points="198.21,-40.57 188.6,-36.11 193.33,-45.59 198.21,-40.57"/>
</g>
<!-- 10d4992e&#45;f6c8&#45;4c9d&#45;8328&#45;d1a1d13b73f8 -->
<g id="node6" class="node">
<title>10d4992e&#45;f6c8&#45;4c9d&#45;8328&#45;d1a1d13b73f8</title>
<ellipse fill="cornsilk" stroke="black" cx="315" cy="-90" rx="27" ry="18"/>
<text text-anchor="middle" x="315" y="-86.3" font-family="Helvetica,sans-Serif" font-size="14.00">A</text>
</g>
<!-- 10d4992e&#45;f6c8&#45;4c9d&#45;8328&#45;d1a1d13b73f8&#45;&gt;612fe29a&#45;501c&#45;4851&#45;9332&#45;bf5ed8081aa3 -->
<g id="edge5" class="edge">
<title>10d4992e&#45;f6c8&#45;4c9d&#45;8328&#45;d1a1d13b73f8&#45;&gt;612fe29a&#45;501c&#45;4851&#45;9332&#45;bf5ed8081aa3</title>
<path fill="none" stroke="black" d="M293.75,-78.67C270.94,-67.58 234.29,-49.77 206.97,-36.48"/>
<polygon fill="none" stroke="black" points="208.26,-33.22 197.73,-31.99 205.2,-39.51 208.26,-33.22"/>
</g>
</g>
</svg>
