<?xml version="1.0" encoding="UTF-8" standalone="no"?>
<!DOCTYPE svg PUBLIC "-//W3C//DTD SVG 1.1//EN"
 "http://www.w3.org/Graphics/SVG/1.1/DTD/svg11.dtd">
<!-- Generated by graphviz version 2.43.0 (0)
 -->
<!-- Title: %3 Pages: 1 -->
<svg width="350pt" height="116pt"
 viewBox="0.00 0.00 350.00 116.00" xmlns="http://www.w3.org/2000/svg" xmlns:xlink="http://www.w3.org/1999/xlink">
<g id="graph0" class="graph" transform="scale(1 1) rotate(0) translate(4 112)">
<title>%3</title>
<polygon fill="white" stroke="transparent" points="-4,4 -4,-112 346,-112 346,4 -4,4"/>
<!-- fd699816&#45;bd03&#45;4617&#45;bf71&#45;d2c96db1a1ee -->
<g id="node1" class="node">
<title>fd699816&#45;bd03&#45;4617&#45;bf71&#45;d2c96db1a1ee</title>
<ellipse fill="cornsilk" stroke="black" cx="27" cy="-90" rx="27" ry="18"/>
<text text-anchor="middle" x="27" y="-86.3" font-family="Helvetica,sans-Serif" font-size="14.00">D</text>
</g>
<!-- 737ff217&#45;3f7b&#45;4dcc&#45;a3ef&#45;741f237f1c12 -->
<g id="node2" class="node">
<title>737ff217&#45;3f7b&#45;4dcc&#45;a3ef&#45;741f237f1c12</title>
<polygon fill="cornsilk" stroke="black" points="198,-10.54 198,-25.46 182.18,-36 159.82,-36 144,-25.46 144,-10.54 159.82,0 182.18,0 198,-10.54"/>
<text text-anchor="middle" x="171" y="-14.3" font-family="Helvetica,sans-Serif" font-size="14.00">Z</text>
</g>
<!-- fd699816&#45;bd03&#45;4617&#45;bf71&#45;d2c96db1a1ee&#45;&gt;737ff217&#45;3f7b&#45;4dcc&#45;a3ef&#45;741f237f1c12 -->
<g id="edge1" class="edge">
<title>fd699816&#45;bd03&#45;4617&#45;bf71&#45;d2c96db1a1ee&#45;&gt;737ff217&#45;3f7b&#45;4dcc&#45;a3ef&#45;741f237f1c12</title>
<path fill="none" stroke="black" d="M48.25,-78.67C72.6,-66.83 112.72,-47.33 140.43,-33.86"/>
<polygon fill="none" stroke="black" points="142.2,-36.89 149.67,-29.37 139.14,-30.6 142.2,-36.89"/>
</g>
<!-- 0267ae2f&#45;fa06&#45;4675&#45;b6ca&#45;69ac0f94d276 -->
<g id="node3" class="node">
<title>0267ae2f&#45;fa06&#45;4675&#45;b6ca&#45;69ac0f94d276</title>
<ellipse fill="cornsilk" stroke="black" cx="99" cy="-90" rx="27" ry="18"/>
<text text-anchor="middle" x="99" y="-86.3" font-family="Helvetica,sans-Serif" font-size="14.00">C</text>
</g>
<!-- 0267ae2f&#45;fa06&#45;4675&#45;b6ca&#45;69ac0f94d276&#45;&gt;737ff217&#45;3f7b&#45;4dcc&#45;a3ef&#45;741f237f1c12 -->
<g id="edge2" class="edge">
<title>0267ae2f&#45;fa06&#45;4675&#45;b6ca&#45;69ac0f94d276&#45;&gt;737ff217&#45;3f7b&#45;4dcc&#45;a3ef&#45;741f237f1c12</title>
<path fill="none" stroke="black" d="M113.57,-74.83C123.59,-65.1 137.08,-51.98 148.47,-40.9"/>
<polygon fill="none" stroke="black" points="151.23,-43.11 155.96,-33.63 146.35,-38.09 151.23,-43.11"/>
</g>
<!-- cde6009a&#45;82b1&#45;49e1&#45;bf4f&#45;b778a813ba50 -->
<g id="node4" class="node">
<title>cde6009a&#45;82b1&#45;49e1&#45;bf4f&#45;b778a813ba50</title>
<ellipse fill="cornsilk" stroke="black" cx="171" cy="-90" rx="27" ry="18"/>
<text text-anchor="middle" x="171" y="-86.3" font-family="Helvetica,sans-Serif" font-size="14.00">E</text>
</g>
<!-- cde6009a&#45;82b1&#45;49e1&#45;bf4f&#45;b778a813ba50&#45;&gt;737ff217&#45;3f7b&#45;4dcc&#45;a3ef&#45;741f237f1c12 -->
<g id="edge3" class="edge">
<title>cde6009a&#45;82b1&#45;49e1&#45;bf4f&#45;b778a813ba50&#45;&gt;737ff217&#45;3f7b&#45;4dcc&#45;a3ef&#45;741f237f1c12</title>
<path fill="none" stroke="black" d="M171,-71.7C171,-63.98 171,-54.71 171,-46.11"/>
<polygon fill="none" stroke="black" points="174.5,-46.1 171,-36.1 167.5,-46.1 174.5,-46.1"/>
</g>
<!-- 872df149&#45;cd18&#45;476f&#45;8386&#45;f5a573aec4e7 -->
<g id="node5" class="node">
<title>872df149&#45;cd18&#45;476f&#45;8386&#45;f5a573aec4e7</title>
<ellipse fill="cornsilk" stroke="black" cx="243" cy="-90" rx="27" ry="18"/>
<text text-anchor="middle" x="243" y="-86.3" font-family="Helvetica,sans-Serif" font-size="14.00">B</text>
</g>
<!-- 872df149&#45;cd18&#45;476f&#45;8386&#45;f5a573aec4e7&#45;&gt;737ff217&#45;3f7b&#45;4dcc&#45;a3ef&#45;741f237f1c12 -->
<g id="edge4" class="edge">
<title>872df149&#45;cd18&#45;476f&#45;8386&#45;f5a573aec4e7&#45;&gt;737ff217&#45;3f7b&#45;4dcc&#45;a3ef&#45;741f237f1c12</title>
<path fill="none" stroke="black" d="M228.43,-74.83C218.41,-65.1 204.92,-51.98 193.53,-40.9"/>
<polygon fill="none" stroke="black" points="195.65,-38.09 186.04,-33.63 190.77,-43.11 195.65,-38.09"/>
</g>
<!-- 4f11fd93&#45;adfc&#45;43a6&#45;9393&#45;97f1eb671dac -->
<g id="node6" class="node">
<title>4f11fd93&#45;adfc&#45;43a6&#45;9393&#45;97f1eb671dac</title>
<ellipse fill="cornsilk" stroke="black" cx="315" cy="-90" rx="27" ry="18"/>
<text text-anchor="middle" x="315" y="-86.3" font-family="Helvetica,sans-Serif" font-size="14.00">A</text>
</g>
<!-- 4f11fd93&#45;adfc&#45;43a6&#45;9393&#45;97f1eb671dac&#45;&gt;737ff217&#45;3f7b&#45;4dcc&#45;a3ef&#45;741f237f1c12 -->
<g id="edge5" class="edge">
<title>4f11fd93&#45;adfc&#45;43a6&#45;9393&#45;97f1eb671dac&#45;&gt;737ff217&#45;3f7b&#45;4dcc&#45;a3ef&#45;741f237f1c12</title>
<path fill="none" stroke="black" d="M293.75,-78.67C269.4,-66.83 229.28,-47.33 201.57,-33.86"/>
<polygon fill="none" stroke="black" points="202.86,-30.6 192.33,-29.37 199.8,-36.89 202.86,-30.6"/>
</g>
</g>
</svg>
