<?xml version="1.0" encoding="UTF-8" standalone="no"?>
<!DOCTYPE svg PUBLIC "-//W3C//DTD SVG 1.1//EN"
 "http://www.w3.org/Graphics/SVG/1.1/DTD/svg11.dtd">
<!-- Generated by graphviz version 2.38.0 (20140413.2041)
 -->
<!-- Title: %3 Pages: 1 -->
<svg width="350pt" height="116pt"
 viewBox="0.00 0.00 350.00 116.00" xmlns="http://www.w3.org/2000/svg" xmlns:xlink="http://www.w3.org/1999/xlink">
<g id="graph0" class="graph" transform="scale(1 1) rotate(0) translate(4 112)">
<title>%3</title>
<polygon fill="white" stroke="none" points="-4,4 -4,-112 346,-112 346,4 -4,4"/>
<!-- 66398fe5&#45;6b46&#45;499c&#45;ad08&#45;353f08683044 -->
<g id="node1" class="node"><title>66398fe5&#45;6b46&#45;499c&#45;ad08&#45;353f08683044</title>
<ellipse fill="cornsilk" stroke="black" cx="27" cy="-90" rx="27" ry="18"/>
<text text-anchor="middle" x="27" y="-86.3" font-family="Helvetica,sans-Serif" font-size="14.00">D</text>
</g>
<!-- c1a82b69&#45;7f36&#45;4cfe&#45;a5a0&#45;f16bcdfb1736 -->
<g id="node2" class="node"><title>c1a82b69&#45;7f36&#45;4cfe&#45;a5a0&#45;f16bcdfb1736</title>
<ellipse fill="cornsilk" stroke="black" cx="171" cy="-18" rx="27" ry="18"/>
<text text-anchor="middle" x="171" y="-14.3" font-family="Helvetica,sans-Serif" font-size="14.00">U</text>
</g>
<!-- 66398fe5&#45;6b46&#45;499c&#45;ad08&#45;353f08683044&#45;&gt;c1a82b69&#45;7f36&#45;4cfe&#45;a5a0&#45;f16bcdfb1736 -->
<g id="edge1" class="edge"><title>66398fe5&#45;6b46&#45;499c&#45;ad08&#45;353f08683044&#45;&gt;c1a82b69&#45;7f36&#45;4cfe&#45;a5a0&#45;f16bcdfb1736</title>
<path fill="none" stroke="black" d="M48.2477,-78.6713C72.6018,-66.8324 112.719,-47.3312 140.428,-33.8615"/>
<polygon fill="none" stroke="black" points="142.202,-36.8909 149.665,-29.3711 139.141,-30.5953 142.202,-36.8909"/>
</g>
<!-- 567eb1d6&#45;45c7&#45;4395&#45;b135&#45;50ed7d2af6b6 -->
<g id="node3" class="node"><title>567eb1d6&#45;45c7&#45;4395&#45;b135&#45;50ed7d2af6b6</title>
<ellipse fill="cornsilk" stroke="black" cx="99" cy="-90" rx="27" ry="18"/>
<text text-anchor="middle" x="99" y="-86.3" font-family="Helvetica,sans-Serif" font-size="14.00">A</text>
</g>
<!-- 567eb1d6&#45;45c7&#45;4395&#45;b135&#45;50ed7d2af6b6&#45;&gt;c1a82b69&#45;7f36&#45;4cfe&#45;a5a0&#45;f16bcdfb1736 -->
<g id="edge2" class="edge"><title>567eb1d6&#45;45c7&#45;4395&#45;b135&#45;50ed7d2af6b6&#45;&gt;c1a82b69&#45;7f36&#45;4cfe&#45;a5a0&#45;f16bcdfb1736</title>
<path fill="none" stroke="black" d="M113.57,-74.8345C123.75,-64.9376 137.524,-51.5462 149.031,-40.3591"/>
<polygon fill="none" stroke="black" points="151.474,-42.865 156.204,-33.3847 146.595,-37.8461 151.474,-42.865"/>
</g>
<!-- 6a6ca895&#45;daa9&#45;49ab&#45;986b&#45;a83025c96312 -->
<g id="node4" class="node"><title>6a6ca895&#45;daa9&#45;49ab&#45;986b&#45;a83025c96312</title>
<ellipse fill="cornsilk" stroke="black" cx="171" cy="-90" rx="27" ry="18"/>
<text text-anchor="middle" x="171" y="-86.3" font-family="Helvetica,sans-Serif" font-size="14.00">E</text>
</g>
<!-- 6a6ca895&#45;daa9&#45;49ab&#45;986b&#45;a83025c96312&#45;&gt;c1a82b69&#45;7f36&#45;4cfe&#45;a5a0&#45;f16bcdfb1736 -->
<g id="edge3" class="edge"><title>6a6ca895&#45;daa9&#45;49ab&#45;986b&#45;a83025c96312&#45;&gt;c1a82b69&#45;7f36&#45;4cfe&#45;a5a0&#45;f16bcdfb1736</title>
<path fill="none" stroke="black" d="M171,-71.6966C171,-63.9827 171,-54.7125 171,-46.1124"/>
<polygon fill="none" stroke="black" points="174.5,-46.1043 171,-36.1043 167.5,-46.1044 174.5,-46.1043"/>
</g>
<!-- 8fb83db3&#45;7b72&#45;432e&#45;8b68&#45;65adbc028ea0 -->
<g id="node5" class="node"><title>8fb83db3&#45;7b72&#45;432e&#45;8b68&#45;65adbc028ea0</title>
<ellipse fill="cornsilk" stroke="black" cx="243" cy="-90" rx="27" ry="18"/>
<text text-anchor="middle" x="243" y="-86.3" font-family="Helvetica,sans-Serif" font-size="14.00">B</text>
</g>
<!-- 8fb83db3&#45;7b72&#45;432e&#45;8b68&#45;65adbc028ea0&#45;&gt;c1a82b69&#45;7f36&#45;4cfe&#45;a5a0&#45;f16bcdfb1736 -->
<g id="edge4" class="edge"><title>8fb83db3&#45;7b72&#45;432e&#45;8b68&#45;65adbc028ea0&#45;&gt;c1a82b69&#45;7f36&#45;4cfe&#45;a5a0&#45;f16bcdfb1736</title>
<path fill="none" stroke="black" d="M228.43,-74.8345C218.25,-64.9376 204.476,-51.5462 192.969,-40.3591"/>
<polygon fill="none" stroke="black" points="195.405,-37.8461 185.796,-33.3847 190.526,-42.865 195.405,-37.8461"/>
</g>
<!-- 41b3ad96&#45;7801&#45;44b3&#45;89af&#45;2fb1f155087a -->
<g id="node6" class="node"><title>41b3ad96&#45;7801&#45;44b3&#45;89af&#45;2fb1f155087a</title>
<ellipse fill="cornsilk" stroke="black" cx="315" cy="-90" rx="27" ry="18"/>
<text text-anchor="middle" x="315" y="-86.3" font-family="Helvetica,sans-Serif" font-size="14.00">C</text>
</g>
<!-- 41b3ad96&#45;7801&#45;44b3&#45;89af&#45;2fb1f155087a&#45;&gt;c1a82b69&#45;7f36&#45;4cfe&#45;a5a0&#45;f16bcdfb1736 -->
<g id="edge5" class="edge"><title>41b3ad96&#45;7801&#45;44b3&#45;89af&#45;2fb1f155087a&#45;&gt;c1a82b69&#45;7f36&#45;4cfe&#45;a5a0&#45;f16bcdfb1736</title>
<path fill="none" stroke="black" d="M293.752,-78.6713C269.398,-66.8324 229.281,-47.3312 201.572,-33.8615"/>
<polygon fill="none" stroke="black" points="202.859,-30.5953 192.335,-29.3711 199.798,-36.8909 202.859,-30.5953"/>
</g>
</g>
</svg>
