<?xml version="1.0" encoding="UTF-8" standalone="no"?>
<!DOCTYPE svg PUBLIC "-//W3C//DTD SVG 1.1//EN"
 "http://www.w3.org/Graphics/SVG/1.1/DTD/svg11.dtd">
<!-- Generated by graphviz version 2.38.0 (20140413.2041)
 -->
<!-- Title: %3 Pages: 1 -->
<svg width="350pt" height="116pt"
 viewBox="0.00 0.00 350.00 116.00" xmlns="http://www.w3.org/2000/svg" xmlns:xlink="http://www.w3.org/1999/xlink">
<g id="graph0" class="graph" transform="scale(1 1) rotate(0) translate(4 112)">
<title>%3</title>
<polygon fill="white" stroke="none" points="-4,4 -4,-112 346,-112 346,4 -4,4"/>
<!-- 3e06fbc6&#45;5c24&#45;4d6c&#45;9cee&#45;04260a2619c1 -->
<g id="node1" class="node"><title>3e06fbc6&#45;5c24&#45;4d6c&#45;9cee&#45;04260a2619c1</title>
<ellipse fill="cornsilk" stroke="black" cx="27" cy="-90" rx="27" ry="18"/>
<text text-anchor="middle" x="27" y="-86.3" font-family="Helvetica,sans-Serif" font-size="14.00">D</text>
</g>
<!-- 1ac66fb1&#45;7d5b&#45;4674&#45;a4df&#45;a6067e44e348 -->
<g id="node2" class="node"><title>1ac66fb1&#45;7d5b&#45;4674&#45;a4df&#45;a6067e44e348</title>
<ellipse fill="cornsilk" stroke="black" cx="171" cy="-18" rx="27" ry="18"/>
<text text-anchor="middle" x="171" y="-14.3" font-family="Helvetica,sans-Serif" font-size="14.00">U</text>
</g>
<!-- 3e06fbc6&#45;5c24&#45;4d6c&#45;9cee&#45;04260a2619c1&#45;&gt;1ac66fb1&#45;7d5b&#45;4674&#45;a4df&#45;a6067e44e348 -->
<g id="edge1" class="edge"><title>3e06fbc6&#45;5c24&#45;4d6c&#45;9cee&#45;04260a2619c1&#45;&gt;1ac66fb1&#45;7d5b&#45;4674&#45;a4df&#45;a6067e44e348</title>
<path fill="none" stroke="black" d="M48.2477,-78.6713C72.6018,-66.8324 112.719,-47.3312 140.428,-33.8615"/>
<polygon fill="none" stroke="black" points="142.202,-36.8909 149.665,-29.3711 139.141,-30.5953 142.202,-36.8909"/>
</g>
<!-- 46b9ece5&#45;7554&#45;4062&#45;a921&#45;1b148fc0ae80 -->
<g id="node3" class="node"><title>46b9ece5&#45;7554&#45;4062&#45;a921&#45;1b148fc0ae80</title>
<ellipse fill="cornsilk" stroke="black" cx="99" cy="-90" rx="27" ry="18"/>
<text text-anchor="middle" x="99" y="-86.3" font-family="Helvetica,sans-Serif" font-size="14.00">A</text>
</g>
<!-- 46b9ece5&#45;7554&#45;4062&#45;a921&#45;1b148fc0ae80&#45;&gt;1ac66fb1&#45;7d5b&#45;4674&#45;a4df&#45;a6067e44e348 -->
<g id="edge2" class="edge"><title>46b9ece5&#45;7554&#45;4062&#45;a921&#45;1b148fc0ae80&#45;&gt;1ac66fb1&#45;7d5b&#45;4674&#45;a4df&#45;a6067e44e348</title>
<path fill="none" stroke="black" d="M113.57,-74.8345C123.75,-64.9376 137.524,-51.5462 149.031,-40.3591"/>
<polygon fill="none" stroke="black" points="151.474,-42.865 156.204,-33.3847 146.595,-37.8461 151.474,-42.865"/>
</g>
<!-- 3d6fd696&#45;f476&#45;4278&#45;8cd4&#45;015978d0c812 -->
<g id="node4" class="node"><title>3d6fd696&#45;f476&#45;4278&#45;8cd4&#45;015978d0c812</title>
<ellipse fill="cornsilk" stroke="black" cx="171" cy="-90" rx="27" ry="18"/>
<text text-anchor="middle" x="171" y="-86.3" font-family="Helvetica,sans-Serif" font-size="14.00">E</text>
</g>
<!-- 3d6fd696&#45;f476&#45;4278&#45;8cd4&#45;015978d0c812&#45;&gt;1ac66fb1&#45;7d5b&#45;4674&#45;a4df&#45;a6067e44e348 -->
<g id="edge3" class="edge"><title>3d6fd696&#45;f476&#45;4278&#45;8cd4&#45;015978d0c812&#45;&gt;1ac66fb1&#45;7d5b&#45;4674&#45;a4df&#45;a6067e44e348</title>
<path fill="none" stroke="black" d="M171,-71.6966C171,-63.9827 171,-54.7125 171,-46.1124"/>
<polygon fill="none" stroke="black" points="174.5,-46.1043 171,-36.1043 167.5,-46.1044 174.5,-46.1043"/>
</g>
<!-- 8c20ca79&#45;5c65&#45;4e28&#45;92a1&#45;b5bb39df0a0f -->
<g id="node5" class="node"><title>8c20ca79&#45;5c65&#45;4e28&#45;92a1&#45;b5bb39df0a0f</title>
<ellipse fill="cornsilk" stroke="black" cx="243" cy="-90" rx="27" ry="18"/>
<text text-anchor="middle" x="243" y="-86.3" font-family="Helvetica,sans-Serif" font-size="14.00">B</text>
</g>
<!-- 8c20ca79&#45;5c65&#45;4e28&#45;92a1&#45;b5bb39df0a0f&#45;&gt;1ac66fb1&#45;7d5b&#45;4674&#45;a4df&#45;a6067e44e348 -->
<g id="edge4" class="edge"><title>8c20ca79&#45;5c65&#45;4e28&#45;92a1&#45;b5bb39df0a0f&#45;&gt;1ac66fb1&#45;7d5b&#45;4674&#45;a4df&#45;a6067e44e348</title>
<path fill="none" stroke="black" d="M228.43,-74.8345C218.25,-64.9376 204.476,-51.5462 192.969,-40.3591"/>
<polygon fill="none" stroke="black" points="195.405,-37.8461 185.796,-33.3847 190.526,-42.865 195.405,-37.8461"/>
</g>
<!-- 0f2c67db&#45;2676&#45;40f5&#45;801e&#45;e83bc30bc706 -->
<g id="node6" class="node"><title>0f2c67db&#45;2676&#45;40f5&#45;801e&#45;e83bc30bc706</title>
<ellipse fill="cornsilk" stroke="black" cx="315" cy="-90" rx="27" ry="18"/>
<text text-anchor="middle" x="315" y="-86.3" font-family="Helvetica,sans-Serif" font-size="14.00">C</text>
</g>
<!-- 0f2c67db&#45;2676&#45;40f5&#45;801e&#45;e83bc30bc706&#45;&gt;1ac66fb1&#45;7d5b&#45;4674&#45;a4df&#45;a6067e44e348 -->
<g id="edge5" class="edge"><title>0f2c67db&#45;2676&#45;40f5&#45;801e&#45;e83bc30bc706&#45;&gt;1ac66fb1&#45;7d5b&#45;4674&#45;a4df&#45;a6067e44e348</title>
<path fill="none" stroke="black" d="M293.752,-78.6713C269.398,-66.8324 229.281,-47.3312 201.572,-33.8615"/>
<polygon fill="none" stroke="black" points="202.859,-30.5953 192.335,-29.3711 199.798,-36.8909 202.859,-30.5953"/>
</g>
</g>
</svg>
