<?xml version="1.0" encoding="UTF-8" standalone="no"?>
<!DOCTYPE svg PUBLIC "-//W3C//DTD SVG 1.1//EN"
 "http://www.w3.org/Graphics/SVG/1.1/DTD/svg11.dtd">
<!-- Generated by graphviz version 2.38.0 (20140413.2041)
 -->
<!-- Title: %3 Pages: 1 -->
<svg width="350pt" height="116pt"
 viewBox="0.00 0.00 350.00 116.00" xmlns="http://www.w3.org/2000/svg" xmlns:xlink="http://www.w3.org/1999/xlink">
<g id="graph0" class="graph" transform="scale(1 1) rotate(0) translate(4 112)">
<title>%3</title>
<polygon fill="white" stroke="none" points="-4,4 -4,-112 346,-112 346,4 -4,4"/>
<!-- b006d974&#45;502f&#45;4998&#45;9df6&#45;800a890ae40a -->
<g id="node1" class="node"><title>b006d974&#45;502f&#45;4998&#45;9df6&#45;800a890ae40a</title>
<ellipse fill="cornsilk" stroke="black" cx="27" cy="-90" rx="27" ry="18"/>
<text text-anchor="middle" x="27" y="-86.3" font-family="Helvetica,sans-Serif" font-size="14.00">D</text>
</g>
<!-- b383d355&#45;35c5&#45;4bd2&#45;9bd4&#45;e179fae096fa -->
<g id="node2" class="node"><title>b383d355&#45;35c5&#45;4bd2&#45;9bd4&#45;e179fae096fa</title>
<polygon fill="cornsilk" stroke="black" points="198,-10.5442 198,-25.4558 182.184,-36 159.816,-36 144,-25.4558 144,-10.5442 159.816,-3.55271e-15 182.184,-0 198,-10.5442"/>
<text text-anchor="middle" x="171" y="-14.3" font-family="Helvetica,sans-Serif" font-size="14.00">Z</text>
</g>
<!-- b006d974&#45;502f&#45;4998&#45;9df6&#45;800a890ae40a&#45;&gt;b383d355&#45;35c5&#45;4bd2&#45;9bd4&#45;e179fae096fa -->
<g id="edge1" class="edge"><title>b006d974&#45;502f&#45;4998&#45;9df6&#45;800a890ae40a&#45;&gt;b383d355&#45;35c5&#45;4bd2&#45;9bd4&#45;e179fae096fa</title>
<path fill="none" stroke="black" d="M48.2477,-78.6713C72.6018,-66.8324 112.719,-47.3312 140.428,-33.8615"/>
<polygon fill="none" stroke="black" points="142.202,-36.8909 149.665,-29.3711 139.141,-30.5953 142.202,-36.8909"/>
</g>
<!-- f86b8852&#45;2c6e&#45;4525&#45;b282&#45;19c116853909 -->
<g id="node3" class="node"><title>f86b8852&#45;2c6e&#45;4525&#45;b282&#45;19c116853909</title>
<ellipse fill="cornsilk" stroke="black" cx="99" cy="-90" rx="27" ry="18"/>
<text text-anchor="middle" x="99" y="-86.3" font-family="Helvetica,sans-Serif" font-size="14.00">A</text>
</g>
<!-- f86b8852&#45;2c6e&#45;4525&#45;b282&#45;19c116853909&#45;&gt;b383d355&#45;35c5&#45;4bd2&#45;9bd4&#45;e179fae096fa -->
<g id="edge2" class="edge"><title>f86b8852&#45;2c6e&#45;4525&#45;b282&#45;19c116853909&#45;&gt;b383d355&#45;35c5&#45;4bd2&#45;9bd4&#45;e179fae096fa</title>
<path fill="none" stroke="black" d="M113.57,-74.8345C123.586,-65.0967 137.082,-51.9761 148.474,-40.9006"/>
<polygon fill="none" stroke="black" points="151.226,-43.1066 155.956,-33.6263 146.346,-38.0877 151.226,-43.1066"/>
</g>
<!-- e39fd401&#45;de1f&#45;4548&#45;b198&#45;e27853cab035 -->
<g id="node4" class="node"><title>e39fd401&#45;de1f&#45;4548&#45;b198&#45;e27853cab035</title>
<ellipse fill="cornsilk" stroke="black" cx="171" cy="-90" rx="27" ry="18"/>
<text text-anchor="middle" x="171" y="-86.3" font-family="Helvetica,sans-Serif" font-size="14.00">E</text>
</g>
<!-- e39fd401&#45;de1f&#45;4548&#45;b198&#45;e27853cab035&#45;&gt;b383d355&#45;35c5&#45;4bd2&#45;9bd4&#45;e179fae096fa -->
<g id="edge3" class="edge"><title>e39fd401&#45;de1f&#45;4548&#45;b198&#45;e27853cab035&#45;&gt;b383d355&#45;35c5&#45;4bd2&#45;9bd4&#45;e179fae096fa</title>
<path fill="none" stroke="black" d="M171,-71.6966C171,-63.9827 171,-54.7125 171,-46.1124"/>
<polygon fill="none" stroke="black" points="174.5,-46.1043 171,-36.1043 167.5,-46.1044 174.5,-46.1043"/>
</g>
<!-- 6cb83d56&#45;9587&#45;4574&#45;8844&#45;045b4d959f57 -->
<g id="node5" class="node"><title>6cb83d56&#45;9587&#45;4574&#45;8844&#45;045b4d959f57</title>
<ellipse fill="cornsilk" stroke="black" cx="243" cy="-90" rx="27" ry="18"/>
<text text-anchor="middle" x="243" y="-86.3" font-family="Helvetica,sans-Serif" font-size="14.00">B</text>
</g>
<!-- 6cb83d56&#45;9587&#45;4574&#45;8844&#45;045b4d959f57&#45;&gt;b383d355&#45;35c5&#45;4bd2&#45;9bd4&#45;e179fae096fa -->
<g id="edge4" class="edge"><title>6cb83d56&#45;9587&#45;4574&#45;8844&#45;045b4d959f57&#45;&gt;b383d355&#45;35c5&#45;4bd2&#45;9bd4&#45;e179fae096fa</title>
<path fill="none" stroke="black" d="M228.43,-74.8345C218.414,-65.0967 204.918,-51.9761 193.526,-40.9006"/>
<polygon fill="none" stroke="black" points="195.654,-38.0877 186.044,-33.6263 190.774,-43.1066 195.654,-38.0877"/>
</g>
<!-- 4c382786&#45;65fe&#45;457d&#45;923a&#45;ea294cc615e0 -->
<g id="node6" class="node"><title>4c382786&#45;65fe&#45;457d&#45;923a&#45;ea294cc615e0</title>
<ellipse fill="cornsilk" stroke="black" cx="315" cy="-90" rx="27" ry="18"/>
<text text-anchor="middle" x="315" y="-86.3" font-family="Helvetica,sans-Serif" font-size="14.00">C</text>
</g>
<!-- 4c382786&#45;65fe&#45;457d&#45;923a&#45;ea294cc615e0&#45;&gt;b383d355&#45;35c5&#45;4bd2&#45;9bd4&#45;e179fae096fa -->
<g id="edge5" class="edge"><title>4c382786&#45;65fe&#45;457d&#45;923a&#45;ea294cc615e0&#45;&gt;b383d355&#45;35c5&#45;4bd2&#45;9bd4&#45;e179fae096fa</title>
<path fill="none" stroke="black" d="M293.752,-78.6713C269.398,-66.8324 229.281,-47.3312 201.572,-33.8615"/>
<polygon fill="none" stroke="black" points="202.859,-30.5953 192.335,-29.3711 199.798,-36.8909 202.859,-30.5953"/>
</g>
</g>
</svg>
