<?xml version="1.0" encoding="UTF-8" standalone="no"?>
<!DOCTYPE svg PUBLIC "-//W3C//DTD SVG 1.1//EN"
 "http://www.w3.org/Graphics/SVG/1.1/DTD/svg11.dtd">
<!-- Generated by graphviz version 2.43.0 (0)
 -->
<!-- Title: %3 Pages: 1 -->
<svg width="350pt" height="116pt"
 viewBox="0.00 0.00 350.00 116.00" xmlns="http://www.w3.org/2000/svg" xmlns:xlink="http://www.w3.org/1999/xlink">
<g id="graph0" class="graph" transform="scale(1 1) rotate(0) translate(4 112)">
<title>%3</title>
<polygon fill="white" stroke="transparent" points="-4,4 -4,-112 346,-112 346,4 -4,4"/>
<!-- 7f48541e&#45;6a6f&#45;4687&#45;b2c0&#45;30dc6f7b86cb -->
<g id="node1" class="node">
<title>7f48541e&#45;6a6f&#45;4687&#45;b2c0&#45;30dc6f7b86cb</title>
<ellipse fill="cornsilk" stroke="black" cx="27" cy="-90" rx="27" ry="18"/>
<text text-anchor="middle" x="27" y="-86.3" font-family="Helvetica,sans-Serif" font-size="14.00">A</text>
</g>
<!-- 0881a738&#45;485b&#45;4c8e&#45;8047&#45;fbacbe2cd518 -->
<g id="node2" class="node">
<title>0881a738&#45;485b&#45;4c8e&#45;8047&#45;fbacbe2cd518</title>
<ellipse fill="cornsilk" stroke="black" cx="171" cy="-18" rx="27" ry="18"/>
<text text-anchor="middle" x="171" y="-14.3" font-family="Helvetica,sans-Serif" font-size="14.00">U</text>
</g>
<!-- 7f48541e&#45;6a6f&#45;4687&#45;b2c0&#45;30dc6f7b86cb&#45;&gt;0881a738&#45;485b&#45;4c8e&#45;8047&#45;fbacbe2cd518 -->
<g id="edge1" class="edge">
<title>7f48541e&#45;6a6f&#45;4687&#45;b2c0&#45;30dc6f7b86cb&#45;&gt;0881a738&#45;485b&#45;4c8e&#45;8047&#45;fbacbe2cd518</title>
<path fill="none" stroke="black" d="M48.25,-78.67C72.6,-66.83 112.72,-47.33 140.43,-33.86"/>
<polygon fill="none" stroke="black" points="142.2,-36.89 149.67,-29.37 139.14,-30.6 142.2,-36.89"/>
</g>
<!-- df8d3de4&#45;4b17&#45;4949&#45;8948&#45;1db6e6133baa -->
<g id="node3" class="node">
<title>df8d3de4&#45;4b17&#45;4949&#45;8948&#45;1db6e6133baa</title>
<ellipse fill="cornsilk" stroke="black" cx="99" cy="-90" rx="27" ry="18"/>
<text text-anchor="middle" x="99" y="-86.3" font-family="Helvetica,sans-Serif" font-size="14.00">E</text>
</g>
<!-- df8d3de4&#45;4b17&#45;4949&#45;8948&#45;1db6e6133baa&#45;&gt;0881a738&#45;485b&#45;4c8e&#45;8047&#45;fbacbe2cd518 -->
<g id="edge2" class="edge">
<title>df8d3de4&#45;4b17&#45;4949&#45;8948&#45;1db6e6133baa&#45;&gt;0881a738&#45;485b&#45;4c8e&#45;8047&#45;fbacbe2cd518</title>
<path fill="none" stroke="black" d="M113.57,-74.83C123.75,-64.94 137.52,-51.55 149.03,-40.36"/>
<polygon fill="none" stroke="black" points="151.47,-42.87 156.2,-33.38 146.59,-37.85 151.47,-42.87"/>
</g>
<!-- a30157d8&#45;d7cc&#45;40af&#45;8c51&#45;e444936aa9f2 -->
<g id="node4" class="node">
<title>a30157d8&#45;d7cc&#45;40af&#45;8c51&#45;e444936aa9f2</title>
<ellipse fill="cornsilk" stroke="black" cx="171" cy="-90" rx="27" ry="18"/>
<text text-anchor="middle" x="171" y="-86.3" font-family="Helvetica,sans-Serif" font-size="14.00">D</text>
</g>
<!-- a30157d8&#45;d7cc&#45;40af&#45;8c51&#45;e444936aa9f2&#45;&gt;0881a738&#45;485b&#45;4c8e&#45;8047&#45;fbacbe2cd518 -->
<g id="edge3" class="edge">
<title>a30157d8&#45;d7cc&#45;40af&#45;8c51&#45;e444936aa9f2&#45;&gt;0881a738&#45;485b&#45;4c8e&#45;8047&#45;fbacbe2cd518</title>
<path fill="none" stroke="black" d="M171,-71.7C171,-63.98 171,-54.71 171,-46.11"/>
<polygon fill="none" stroke="black" points="174.5,-46.1 171,-36.1 167.5,-46.1 174.5,-46.1"/>
</g>
<!-- aea0c9a0&#45;4301&#45;4c81&#45;8543&#45;210775ca3aaa -->
<g id="node5" class="node">
<title>aea0c9a0&#45;4301&#45;4c81&#45;8543&#45;210775ca3aaa</title>
<ellipse fill="cornsilk" stroke="black" cx="243" cy="-90" rx="27" ry="18"/>
<text text-anchor="middle" x="243" y="-86.3" font-family="Helvetica,sans-Serif" font-size="14.00">C</text>
</g>
<!-- aea0c9a0&#45;4301&#45;4c81&#45;8543&#45;210775ca3aaa&#45;&gt;0881a738&#45;485b&#45;4c8e&#45;8047&#45;fbacbe2cd518 -->
<g id="edge4" class="edge">
<title>aea0c9a0&#45;4301&#45;4c81&#45;8543&#45;210775ca3aaa&#45;&gt;0881a738&#45;485b&#45;4c8e&#45;8047&#45;fbacbe2cd518</title>
<path fill="none" stroke="black" d="M228.43,-74.83C218.25,-64.94 204.48,-51.55 192.97,-40.36"/>
<polygon fill="none" stroke="black" points="195.41,-37.85 185.8,-33.38 190.53,-42.87 195.41,-37.85"/>
</g>
<!-- 4e857408&#45;4a2d&#45;4046&#45;9b91&#45;fb460a744161 -->
<g id="node6" class="node">
<title>4e857408&#45;4a2d&#45;4046&#45;9b91&#45;fb460a744161</title>
<ellipse fill="cornsilk" stroke="black" cx="315" cy="-90" rx="27" ry="18"/>
<text text-anchor="middle" x="315" y="-86.3" font-family="Helvetica,sans-Serif" font-size="14.00">B</text>
</g>
<!-- 4e857408&#45;4a2d&#45;4046&#45;9b91&#45;fb460a744161&#45;&gt;0881a738&#45;485b&#45;4c8e&#45;8047&#45;fbacbe2cd518 -->
<g id="edge5" class="edge">
<title>4e857408&#45;4a2d&#45;4046&#45;9b91&#45;fb460a744161&#45;&gt;0881a738&#45;485b&#45;4c8e&#45;8047&#45;fbacbe2cd518</title>
<path fill="none" stroke="black" d="M293.75,-78.67C269.4,-66.83 229.28,-47.33 201.57,-33.86"/>
<polygon fill="none" stroke="black" points="202.86,-30.6 192.33,-29.37 199.8,-36.89 202.86,-30.6"/>
</g>
</g>
</svg>
