<?xml version="1.0" encoding="UTF-8" standalone="no"?>
<!DOCTYPE svg PUBLIC "-//W3C//DTD SVG 1.1//EN"
 "http://www.w3.org/Graphics/SVG/1.1/DTD/svg11.dtd">
<!-- Generated by graphviz version 2.38.0 (20140413.2041)
 -->
<!-- Title: %3 Pages: 1 -->
<svg width="350pt" height="116pt"
 viewBox="0.00 0.00 350.00 116.00" xmlns="http://www.w3.org/2000/svg" xmlns:xlink="http://www.w3.org/1999/xlink">
<g id="graph0" class="graph" transform="scale(1 1) rotate(0) translate(4 112)">
<title>%3</title>
<polygon fill="white" stroke="none" points="-4,4 -4,-112 346,-112 346,4 -4,4"/>
<!-- 5c3e0055&#45;8a25&#45;41f2&#45;8bfd&#45;873791691e75 -->
<g id="node1" class="node"><title>5c3e0055&#45;8a25&#45;41f2&#45;8bfd&#45;873791691e75</title>
<ellipse fill="cornsilk" stroke="black" cx="27" cy="-90" rx="27" ry="18"/>
<text text-anchor="middle" x="27" y="-86.3" font-family="Helvetica,sans-Serif" font-size="14.00">D</text>
</g>
<!-- 943d18bb&#45;48cc&#45;408f&#45;8b79&#45;01e03349baf0 -->
<g id="node2" class="node"><title>943d18bb&#45;48cc&#45;408f&#45;8b79&#45;01e03349baf0</title>
<polygon fill="cornsilk" stroke="black" points="198,-36 144,-36 144,-0 198,-0 198,-36"/>
<text text-anchor="middle" x="171" y="-14.3" font-family="Helvetica,sans-Serif" font-size="14.00">W</text>
</g>
<!-- 5c3e0055&#45;8a25&#45;41f2&#45;8bfd&#45;873791691e75&#45;&gt;943d18bb&#45;48cc&#45;408f&#45;8b79&#45;01e03349baf0 -->
<g id="edge1" class="edge"><title>5c3e0055&#45;8a25&#45;41f2&#45;8bfd&#45;873791691e75&#45;&gt;943d18bb&#45;48cc&#45;408f&#45;8b79&#45;01e03349baf0</title>
<path fill="none" stroke="black" d="M48.2477,-78.6713C70.9222,-67.6489 107.26,-49.9846 134.527,-36.7299"/>
<polygon fill="none" stroke="black" points="136.293,-39.7634 143.756,-32.2436 133.232,-33.4678 136.293,-39.7634"/>
</g>
<!-- d2d614cd&#45;993b&#45;4bf2&#45;9d60&#45;13a7d38d12c7 -->
<g id="node3" class="node"><title>d2d614cd&#45;993b&#45;4bf2&#45;9d60&#45;13a7d38d12c7</title>
<ellipse fill="cornsilk" stroke="black" cx="99" cy="-90" rx="27" ry="18"/>
<text text-anchor="middle" x="99" y="-86.3" font-family="Helvetica,sans-Serif" font-size="14.00">A</text>
</g>
<!-- d2d614cd&#45;993b&#45;4bf2&#45;9d60&#45;13a7d38d12c7&#45;&gt;943d18bb&#45;48cc&#45;408f&#45;8b79&#45;01e03349baf0 -->
<g id="edge2" class="edge"><title>d2d614cd&#45;993b&#45;4bf2&#45;9d60&#45;13a7d38d12c7&#45;&gt;943d18bb&#45;48cc&#45;408f&#45;8b79&#45;01e03349baf0</title>
<path fill="none" stroke="black" d="M113.57,-74.8345C122.918,-65.7459 135.298,-53.7105 146.169,-43.1413"/>
<polygon fill="none" stroke="black" points="148.668,-45.593 153.398,-36.1127 143.789,-40.5741 148.668,-45.593"/>
</g>
<!-- 163e7ea8&#45;87de&#45;4937&#45;a8d7&#45;aa5dc8a39f46 -->
<g id="node4" class="node"><title>163e7ea8&#45;87de&#45;4937&#45;a8d7&#45;aa5dc8a39f46</title>
<ellipse fill="cornsilk" stroke="black" cx="171" cy="-90" rx="27" ry="18"/>
<text text-anchor="middle" x="171" y="-86.3" font-family="Helvetica,sans-Serif" font-size="14.00">E</text>
</g>
<!-- 163e7ea8&#45;87de&#45;4937&#45;a8d7&#45;aa5dc8a39f46&#45;&gt;943d18bb&#45;48cc&#45;408f&#45;8b79&#45;01e03349baf0 -->
<g id="edge3" class="edge"><title>163e7ea8&#45;87de&#45;4937&#45;a8d7&#45;aa5dc8a39f46&#45;&gt;943d18bb&#45;48cc&#45;408f&#45;8b79&#45;01e03349baf0</title>
<path fill="none" stroke="black" d="M171,-71.6966C171,-63.9827 171,-54.7125 171,-46.1124"/>
<polygon fill="none" stroke="black" points="174.5,-46.1043 171,-36.1043 167.5,-46.1044 174.5,-46.1043"/>
</g>
<!-- 31c64038&#45;2635&#45;43c4&#45;a408&#45;3bfbcfa98b07 -->
<g id="node5" class="node"><title>31c64038&#45;2635&#45;43c4&#45;a408&#45;3bfbcfa98b07</title>
<ellipse fill="cornsilk" stroke="black" cx="243" cy="-90" rx="27" ry="18"/>
<text text-anchor="middle" x="243" y="-86.3" font-family="Helvetica,sans-Serif" font-size="14.00">B</text>
</g>
<!-- 31c64038&#45;2635&#45;43c4&#45;a408&#45;3bfbcfa98b07&#45;&gt;943d18bb&#45;48cc&#45;408f&#45;8b79&#45;01e03349baf0 -->
<g id="edge4" class="edge"><title>31c64038&#45;2635&#45;43c4&#45;a408&#45;3bfbcfa98b07&#45;&gt;943d18bb&#45;48cc&#45;408f&#45;8b79&#45;01e03349baf0</title>
<path fill="none" stroke="black" d="M228.43,-74.8345C219.082,-65.7459 206.702,-53.7105 195.831,-43.1413"/>
<polygon fill="none" stroke="black" points="198.211,-40.5741 188.602,-36.1127 193.332,-45.593 198.211,-40.5741"/>
</g>
<!-- 17d75bec&#45;050b&#45;477c&#45;906c&#45;2cadc8bb1033 -->
<g id="node6" class="node"><title>17d75bec&#45;050b&#45;477c&#45;906c&#45;2cadc8bb1033</title>
<ellipse fill="cornsilk" stroke="black" cx="315" cy="-90" rx="27" ry="18"/>
<text text-anchor="middle" x="315" y="-86.3" font-family="Helvetica,sans-Serif" font-size="14.00">C</text>
</g>
<!-- 17d75bec&#45;050b&#45;477c&#45;906c&#45;2cadc8bb1033&#45;&gt;943d18bb&#45;48cc&#45;408f&#45;8b79&#45;01e03349baf0 -->
<g id="edge5" class="edge"><title>17d75bec&#45;050b&#45;477c&#45;906c&#45;2cadc8bb1033&#45;&gt;943d18bb&#45;48cc&#45;408f&#45;8b79&#45;01e03349baf0</title>
<path fill="none" stroke="black" d="M293.752,-78.6713C271.078,-67.6489 234.74,-49.9846 207.473,-36.7299"/>
<polygon fill="none" stroke="black" points="208.768,-33.4678 198.244,-32.2436 205.707,-39.7634 208.768,-33.4678"/>
</g>
</g>
</svg>
