<?xml version="1.0" encoding="UTF-8" standalone="no"?>
<!DOCTYPE svg PUBLIC "-//W3C//DTD SVG 1.1//EN"
 "http://www.w3.org/Graphics/SVG/1.1/DTD/svg11.dtd">
<!-- Generated by graphviz version 2.38.0 (20140413.2041)
 -->
<!-- Title: %3 Pages: 1 -->
<svg width="350pt" height="116pt"
 viewBox="0.00 0.00 350.00 116.00" xmlns="http://www.w3.org/2000/svg" xmlns:xlink="http://www.w3.org/1999/xlink">
<g id="graph0" class="graph" transform="scale(1 1) rotate(0) translate(4 112)">
<title>%3</title>
<polygon fill="white" stroke="none" points="-4,4 -4,-112 346,-112 346,4 -4,4"/>
<!-- c3b5d727&#45;063a&#45;4cb3&#45;8dc6&#45;9a2b30fbd037 -->
<g id="node1" class="node"><title>c3b5d727&#45;063a&#45;4cb3&#45;8dc6&#45;9a2b30fbd037</title>
<ellipse fill="cornsilk" stroke="black" cx="27" cy="-90" rx="27" ry="18"/>
<text text-anchor="middle" x="27" y="-86.3" font-family="Helvetica,sans-Serif" font-size="14.00">D</text>
</g>
<!-- 3d6a711e&#45;84e7&#45;485f&#45;9cbd&#45;12b6248dda73 -->
<g id="node2" class="node"><title>3d6a711e&#45;84e7&#45;485f&#45;9cbd&#45;12b6248dda73</title>
<polygon fill="cornsilk" stroke="black" points="198,-36 144,-36 144,-0 198,-0 198,-36"/>
<text text-anchor="middle" x="171" y="-14.3" font-family="Helvetica,sans-Serif" font-size="14.00">P</text>
</g>
<!-- c3b5d727&#45;063a&#45;4cb3&#45;8dc6&#45;9a2b30fbd037&#45;&gt;3d6a711e&#45;84e7&#45;485f&#45;9cbd&#45;12b6248dda73 -->
<g id="edge1" class="edge"><title>c3b5d727&#45;063a&#45;4cb3&#45;8dc6&#45;9a2b30fbd037&#45;&gt;3d6a711e&#45;84e7&#45;485f&#45;9cbd&#45;12b6248dda73</title>
<path fill="none" stroke="black" d="M48.2477,-78.6713C70.9222,-67.6489 107.26,-49.9846 134.527,-36.7299"/>
<polygon fill="none" stroke="black" points="136.293,-39.7634 143.756,-32.2436 133.232,-33.4678 136.293,-39.7634"/>
</g>
<!-- ad056f45&#45;97a3&#45;4fab&#45;899c&#45;550a982ab031 -->
<g id="node3" class="node"><title>ad056f45&#45;97a3&#45;4fab&#45;899c&#45;550a982ab031</title>
<ellipse fill="cornsilk" stroke="black" cx="99" cy="-90" rx="27" ry="18"/>
<text text-anchor="middle" x="99" y="-86.3" font-family="Helvetica,sans-Serif" font-size="14.00">A</text>
</g>
<!-- ad056f45&#45;97a3&#45;4fab&#45;899c&#45;550a982ab031&#45;&gt;3d6a711e&#45;84e7&#45;485f&#45;9cbd&#45;12b6248dda73 -->
<g id="edge2" class="edge"><title>ad056f45&#45;97a3&#45;4fab&#45;899c&#45;550a982ab031&#45;&gt;3d6a711e&#45;84e7&#45;485f&#45;9cbd&#45;12b6248dda73</title>
<path fill="none" stroke="black" d="M113.57,-74.8345C122.918,-65.7459 135.298,-53.7105 146.169,-43.1413"/>
<polygon fill="none" stroke="black" points="148.668,-45.593 153.398,-36.1127 143.789,-40.5741 148.668,-45.593"/>
</g>
<!-- e246cf87&#45;5861&#45;4fcf&#45;962e&#45;db12d2481bac -->
<g id="node4" class="node"><title>e246cf87&#45;5861&#45;4fcf&#45;962e&#45;db12d2481bac</title>
<ellipse fill="cornsilk" stroke="black" cx="171" cy="-90" rx="27" ry="18"/>
<text text-anchor="middle" x="171" y="-86.3" font-family="Helvetica,sans-Serif" font-size="14.00">E</text>
</g>
<!-- e246cf87&#45;5861&#45;4fcf&#45;962e&#45;db12d2481bac&#45;&gt;3d6a711e&#45;84e7&#45;485f&#45;9cbd&#45;12b6248dda73 -->
<g id="edge3" class="edge"><title>e246cf87&#45;5861&#45;4fcf&#45;962e&#45;db12d2481bac&#45;&gt;3d6a711e&#45;84e7&#45;485f&#45;9cbd&#45;12b6248dda73</title>
<path fill="none" stroke="black" d="M171,-71.6966C171,-63.9827 171,-54.7125 171,-46.1124"/>
<polygon fill="none" stroke="black" points="174.5,-46.1043 171,-36.1043 167.5,-46.1044 174.5,-46.1043"/>
</g>
<!-- 32ddeb01&#45;c31e&#45;4ae6&#45;8db6&#45;f788fa6576e8 -->
<g id="node5" class="node"><title>32ddeb01&#45;c31e&#45;4ae6&#45;8db6&#45;f788fa6576e8</title>
<ellipse fill="cornsilk" stroke="black" cx="243" cy="-90" rx="27" ry="18"/>
<text text-anchor="middle" x="243" y="-86.3" font-family="Helvetica,sans-Serif" font-size="14.00">B</text>
</g>
<!-- 32ddeb01&#45;c31e&#45;4ae6&#45;8db6&#45;f788fa6576e8&#45;&gt;3d6a711e&#45;84e7&#45;485f&#45;9cbd&#45;12b6248dda73 -->
<g id="edge4" class="edge"><title>32ddeb01&#45;c31e&#45;4ae6&#45;8db6&#45;f788fa6576e8&#45;&gt;3d6a711e&#45;84e7&#45;485f&#45;9cbd&#45;12b6248dda73</title>
<path fill="none" stroke="black" d="M228.43,-74.8345C219.082,-65.7459 206.702,-53.7105 195.831,-43.1413"/>
<polygon fill="none" stroke="black" points="198.211,-40.5741 188.602,-36.1127 193.332,-45.593 198.211,-40.5741"/>
</g>
<!-- b627464d&#45;3329&#45;4aa1&#45;8cb5&#45;08e331e46fa6 -->
<g id="node6" class="node"><title>b627464d&#45;3329&#45;4aa1&#45;8cb5&#45;08e331e46fa6</title>
<ellipse fill="cornsilk" stroke="black" cx="315" cy="-90" rx="27" ry="18"/>
<text text-anchor="middle" x="315" y="-86.3" font-family="Helvetica,sans-Serif" font-size="14.00">C</text>
</g>
<!-- b627464d&#45;3329&#45;4aa1&#45;8cb5&#45;08e331e46fa6&#45;&gt;3d6a711e&#45;84e7&#45;485f&#45;9cbd&#45;12b6248dda73 -->
<g id="edge5" class="edge"><title>b627464d&#45;3329&#45;4aa1&#45;8cb5&#45;08e331e46fa6&#45;&gt;3d6a711e&#45;84e7&#45;485f&#45;9cbd&#45;12b6248dda73</title>
<path fill="none" stroke="black" d="M293.752,-78.6713C271.078,-67.6489 234.74,-49.9846 207.473,-36.7299"/>
<polygon fill="none" stroke="black" points="208.768,-33.4678 198.244,-32.2436 205.707,-39.7634 208.768,-33.4678"/>
</g>
</g>
</svg>
