<?xml version="1.0" encoding="UTF-8" standalone="no"?>
<!DOCTYPE svg PUBLIC "-//W3C//DTD SVG 1.1//EN"
 "http://www.w3.org/Graphics/SVG/1.1/DTD/svg11.dtd">
<!-- Generated by graphviz version 2.43.0 (0)
 -->
<!-- Title: %3 Pages: 1 -->
<svg width="350pt" height="116pt"
 viewBox="0.00 0.00 350.00 116.00" xmlns="http://www.w3.org/2000/svg" xmlns:xlink="http://www.w3.org/1999/xlink">
<g id="graph0" class="graph" transform="scale(1 1) rotate(0) translate(4 112)">
<title>%3</title>
<polygon fill="white" stroke="transparent" points="-4,4 -4,-112 346,-112 346,4 -4,4"/>
<!-- 1945bf05&#45;8b82&#45;4ed7&#45;b9bb&#45;3c67b02c3c25 -->
<g id="node1" class="node">
<title>1945bf05&#45;8b82&#45;4ed7&#45;b9bb&#45;3c67b02c3c25</title>
<ellipse fill="cornsilk" stroke="black" cx="27" cy="-90" rx="27" ry="18"/>
<text text-anchor="middle" x="27" y="-86.3" font-family="Helvetica,sans-Serif" font-size="14.00">D</text>
</g>
<!-- 57d9e0c4&#45;1a0b&#45;43f0&#45;86e3&#45;69b884d14ad3 -->
<g id="node2" class="node">
<title>57d9e0c4&#45;1a0b&#45;43f0&#45;86e3&#45;69b884d14ad3</title>
<polygon fill="cornsilk" stroke="black" points="198,-36 144,-36 144,0 198,0 198,-36"/>
<text text-anchor="middle" x="171" y="-14.3" font-family="Helvetica,sans-Serif" font-size="14.00">P</text>
</g>
<!-- 1945bf05&#45;8b82&#45;4ed7&#45;b9bb&#45;3c67b02c3c25&#45;&gt;57d9e0c4&#45;1a0b&#45;43f0&#45;86e3&#45;69b884d14ad3 -->
<g id="edge1" class="edge">
<title>1945bf05&#45;8b82&#45;4ed7&#45;b9bb&#45;3c67b02c3c25&#45;&gt;57d9e0c4&#45;1a0b&#45;43f0&#45;86e3&#45;69b884d14ad3</title>
<path fill="none" stroke="black" d="M48.25,-78.67C70.92,-67.65 107.26,-49.98 134.53,-36.73"/>
<polygon fill="none" stroke="black" points="136.29,-39.76 143.76,-32.24 133.23,-33.47 136.29,-39.76"/>
</g>
<!-- 20d90e6b&#45;b104&#45;41bd&#45;86a2&#45;d6a7cc4f9553 -->
<g id="node3" class="node">
<title>20d90e6b&#45;b104&#45;41bd&#45;86a2&#45;d6a7cc4f9553</title>
<ellipse fill="cornsilk" stroke="black" cx="99" cy="-90" rx="27" ry="18"/>
<text text-anchor="middle" x="99" y="-86.3" font-family="Helvetica,sans-Serif" font-size="14.00">C</text>
</g>
<!-- 20d90e6b&#45;b104&#45;41bd&#45;86a2&#45;d6a7cc4f9553&#45;&gt;57d9e0c4&#45;1a0b&#45;43f0&#45;86e3&#45;69b884d14ad3 -->
<g id="edge2" class="edge">
<title>20d90e6b&#45;b104&#45;41bd&#45;86a2&#45;d6a7cc4f9553&#45;&gt;57d9e0c4&#45;1a0b&#45;43f0&#45;86e3&#45;69b884d14ad3</title>
<path fill="none" stroke="black" d="M113.57,-74.83C122.92,-65.75 135.3,-53.71 146.17,-43.14"/>
<polygon fill="none" stroke="black" points="148.67,-45.59 153.4,-36.11 143.79,-40.57 148.67,-45.59"/>
</g>
<!-- 7d31f243&#45;89fb&#45;410d&#45;ad24&#45;2e90c57a076d -->
<g id="node4" class="node">
<title>7d31f243&#45;89fb&#45;410d&#45;ad24&#45;2e90c57a076d</title>
<ellipse fill="cornsilk" stroke="black" cx="171" cy="-90" rx="27" ry="18"/>
<text text-anchor="middle" x="171" y="-86.3" font-family="Helvetica,sans-Serif" font-size="14.00">E</text>
</g>
<!-- 7d31f243&#45;89fb&#45;410d&#45;ad24&#45;2e90c57a076d&#45;&gt;57d9e0c4&#45;1a0b&#45;43f0&#45;86e3&#45;69b884d14ad3 -->
<g id="edge3" class="edge">
<title>7d31f243&#45;89fb&#45;410d&#45;ad24&#45;2e90c57a076d&#45;&gt;57d9e0c4&#45;1a0b&#45;43f0&#45;86e3&#45;69b884d14ad3</title>
<path fill="none" stroke="black" d="M171,-71.7C171,-63.98 171,-54.71 171,-46.11"/>
<polygon fill="none" stroke="black" points="174.5,-46.1 171,-36.1 167.5,-46.1 174.5,-46.1"/>
</g>
<!-- bb77efa2&#45;add6&#45;4a7a&#45;905f&#45;2a324cf79bc6 -->
<g id="node5" class="node">
<title>bb77efa2&#45;add6&#45;4a7a&#45;905f&#45;2a324cf79bc6</title>
<ellipse fill="cornsilk" stroke="black" cx="243" cy="-90" rx="27" ry="18"/>
<text text-anchor="middle" x="243" y="-86.3" font-family="Helvetica,sans-Serif" font-size="14.00">B</text>
</g>
<!-- bb77efa2&#45;add6&#45;4a7a&#45;905f&#45;2a324cf79bc6&#45;&gt;57d9e0c4&#45;1a0b&#45;43f0&#45;86e3&#45;69b884d14ad3 -->
<g id="edge4" class="edge">
<title>bb77efa2&#45;add6&#45;4a7a&#45;905f&#45;2a324cf79bc6&#45;&gt;57d9e0c4&#45;1a0b&#45;43f0&#45;86e3&#45;69b884d14ad3</title>
<path fill="none" stroke="black" d="M228.43,-74.83C219.08,-65.75 206.7,-53.71 195.83,-43.14"/>
<polygon fill="none" stroke="black" points="198.21,-40.57 188.6,-36.11 193.33,-45.59 198.21,-40.57"/>
</g>
<!-- f5bb860f&#45;e53d&#45;4746&#45;a325&#45;77e996bc75b5 -->
<g id="node6" class="node">
<title>f5bb860f&#45;e53d&#45;4746&#45;a325&#45;77e996bc75b5</title>
<ellipse fill="cornsilk" stroke="black" cx="315" cy="-90" rx="27" ry="18"/>
<text text-anchor="middle" x="315" y="-86.3" font-family="Helvetica,sans-Serif" font-size="14.00">A</text>
</g>
<!-- f5bb860f&#45;e53d&#45;4746&#45;a325&#45;77e996bc75b5&#45;&gt;57d9e0c4&#45;1a0b&#45;43f0&#45;86e3&#45;69b884d14ad3 -->
<g id="edge5" class="edge">
<title>f5bb860f&#45;e53d&#45;4746&#45;a325&#45;77e996bc75b5&#45;&gt;57d9e0c4&#45;1a0b&#45;43f0&#45;86e3&#45;69b884d14ad3</title>
<path fill="none" stroke="black" d="M293.75,-78.67C271.08,-67.65 234.74,-49.98 207.47,-36.73"/>
<polygon fill="none" stroke="black" points="208.77,-33.47 198.24,-32.24 205.71,-39.76 208.77,-33.47"/>
</g>
</g>
</svg>
