<?xml version="1.0" encoding="UTF-8" standalone="no"?>
<!DOCTYPE svg PUBLIC "-//W3C//DTD SVG 1.1//EN"
 "http://www.w3.org/Graphics/SVG/1.1/DTD/svg11.dtd">
<!-- Generated by graphviz version 2.43.0 (0)
 -->
<!-- Title: %3 Pages: 1 -->
<svg width="350pt" height="116pt"
 viewBox="0.00 0.00 350.00 116.00" xmlns="http://www.w3.org/2000/svg" xmlns:xlink="http://www.w3.org/1999/xlink">
<g id="graph0" class="graph" transform="scale(1 1) rotate(0) translate(4 112)">
<title>%3</title>
<polygon fill="white" stroke="transparent" points="-4,4 -4,-112 346,-112 346,4 -4,4"/>
<!-- c6fdd049&#45;3955&#45;49d5&#45;a7be&#45;64a9a1a74e43 -->
<g id="node1" class="node">
<title>c6fdd049&#45;3955&#45;49d5&#45;a7be&#45;64a9a1a74e43</title>
<ellipse fill="cornsilk" stroke="black" cx="27" cy="-90" rx="27" ry="18"/>
<text text-anchor="middle" x="27" y="-86.3" font-family="Helvetica,sans-Serif" font-size="14.00">D</text>
</g>
<!-- 3933cf6e&#45;2dd4&#45;4241&#45;a6d6&#45;66442a7761a6 -->
<g id="node2" class="node">
<title>3933cf6e&#45;2dd4&#45;4241&#45;a6d6&#45;66442a7761a6</title>
<polygon fill="cornsilk" stroke="black" points="192,-36 144,-36 144,0 198,0 198,-30 192,-36"/>
<polyline fill="none" stroke="black" points="192,-36 192,-30 "/>
<polyline fill="none" stroke="black" points="198,-30 192,-30 "/>
<text text-anchor="middle" x="171" y="-14.3" font-family="Helvetica,sans-Serif" font-size="14.00">T</text>
</g>
<!-- c6fdd049&#45;3955&#45;49d5&#45;a7be&#45;64a9a1a74e43&#45;&gt;3933cf6e&#45;2dd4&#45;4241&#45;a6d6&#45;66442a7761a6 -->
<g id="edge1" class="edge">
<title>c6fdd049&#45;3955&#45;49d5&#45;a7be&#45;64a9a1a74e43&#45;&gt;3933cf6e&#45;2dd4&#45;4241&#45;a6d6&#45;66442a7761a6</title>
<path fill="none" stroke="black" d="M48.25,-78.67C70.92,-67.65 107.26,-49.98 134.53,-36.73"/>
<polygon fill="none" stroke="black" points="136.29,-39.76 143.76,-32.24 133.23,-33.47 136.29,-39.76"/>
</g>
<!-- b7212dae&#45;79cd&#45;4fa0&#45;a162&#45;3e736cf2bfc9 -->
<g id="node3" class="node">
<title>b7212dae&#45;79cd&#45;4fa0&#45;a162&#45;3e736cf2bfc9</title>
<ellipse fill="cornsilk" stroke="black" cx="99" cy="-90" rx="27" ry="18"/>
<text text-anchor="middle" x="99" y="-86.3" font-family="Helvetica,sans-Serif" font-size="14.00">C</text>
</g>
<!-- b7212dae&#45;79cd&#45;4fa0&#45;a162&#45;3e736cf2bfc9&#45;&gt;3933cf6e&#45;2dd4&#45;4241&#45;a6d6&#45;66442a7761a6 -->
<g id="edge2" class="edge">
<title>b7212dae&#45;79cd&#45;4fa0&#45;a162&#45;3e736cf2bfc9&#45;&gt;3933cf6e&#45;2dd4&#45;4241&#45;a6d6&#45;66442a7761a6</title>
<path fill="none" stroke="black" d="M113.57,-74.83C122.92,-65.75 135.3,-53.71 146.17,-43.14"/>
<polygon fill="none" stroke="black" points="148.67,-45.59 153.4,-36.11 143.79,-40.57 148.67,-45.59"/>
</g>
<!-- d255c5c3&#45;acce&#45;4199&#45;b5a4&#45;c9332d05a80b -->
<g id="node4" class="node">
<title>d255c5c3&#45;acce&#45;4199&#45;b5a4&#45;c9332d05a80b</title>
<ellipse fill="cornsilk" stroke="black" cx="171" cy="-90" rx="27" ry="18"/>
<text text-anchor="middle" x="171" y="-86.3" font-family="Helvetica,sans-Serif" font-size="14.00">E</text>
</g>
<!-- d255c5c3&#45;acce&#45;4199&#45;b5a4&#45;c9332d05a80b&#45;&gt;3933cf6e&#45;2dd4&#45;4241&#45;a6d6&#45;66442a7761a6 -->
<g id="edge3" class="edge">
<title>d255c5c3&#45;acce&#45;4199&#45;b5a4&#45;c9332d05a80b&#45;&gt;3933cf6e&#45;2dd4&#45;4241&#45;a6d6&#45;66442a7761a6</title>
<path fill="none" stroke="black" d="M171,-71.7C171,-63.98 171,-54.71 171,-46.11"/>
<polygon fill="none" stroke="black" points="174.5,-46.1 171,-36.1 167.5,-46.1 174.5,-46.1"/>
</g>
<!-- ab9ea256&#45;5213&#45;45ed&#45;937b&#45;f3c77ea27996 -->
<g id="node5" class="node">
<title>ab9ea256&#45;5213&#45;45ed&#45;937b&#45;f3c77ea27996</title>
<ellipse fill="cornsilk" stroke="black" cx="243" cy="-90" rx="27" ry="18"/>
<text text-anchor="middle" x="243" y="-86.3" font-family="Helvetica,sans-Serif" font-size="14.00">B</text>
</g>
<!-- ab9ea256&#45;5213&#45;45ed&#45;937b&#45;f3c77ea27996&#45;&gt;3933cf6e&#45;2dd4&#45;4241&#45;a6d6&#45;66442a7761a6 -->
<g id="edge4" class="edge">
<title>ab9ea256&#45;5213&#45;45ed&#45;937b&#45;f3c77ea27996&#45;&gt;3933cf6e&#45;2dd4&#45;4241&#45;a6d6&#45;66442a7761a6</title>
<path fill="none" stroke="black" d="M228.43,-74.83C219.08,-65.75 206.7,-53.71 195.83,-43.14"/>
<polygon fill="none" stroke="black" points="198.21,-40.57 188.6,-36.11 193.33,-45.59 198.21,-40.57"/>
</g>
<!-- e6ade2ab&#45;fe86&#45;4669&#45;b04f&#45;9dac1d3fa440 -->
<g id="node6" class="node">
<title>e6ade2ab&#45;fe86&#45;4669&#45;b04f&#45;9dac1d3fa440</title>
<ellipse fill="cornsilk" stroke="black" cx="315" cy="-90" rx="27" ry="18"/>
<text text-anchor="middle" x="315" y="-86.3" font-family="Helvetica,sans-Serif" font-size="14.00">A</text>
</g>
<!-- e6ade2ab&#45;fe86&#45;4669&#45;b04f&#45;9dac1d3fa440&#45;&gt;3933cf6e&#45;2dd4&#45;4241&#45;a6d6&#45;66442a7761a6 -->
<g id="edge5" class="edge">
<title>e6ade2ab&#45;fe86&#45;4669&#45;b04f&#45;9dac1d3fa440&#45;&gt;3933cf6e&#45;2dd4&#45;4241&#45;a6d6&#45;66442a7761a6</title>
<path fill="none" stroke="black" d="M293.75,-78.67C271.08,-67.65 234.74,-49.98 207.47,-36.73"/>
<polygon fill="none" stroke="black" points="208.77,-33.47 198.24,-32.24 205.71,-39.76 208.77,-33.47"/>
</g>
</g>
</svg>
