<?xml version="1.0" encoding="UTF-8" standalone="no"?>
<!DOCTYPE svg PUBLIC "-//W3C//DTD SVG 1.1//EN"
 "http://www.w3.org/Graphics/SVG/1.1/DTD/svg11.dtd">
<!-- Generated by graphviz version 2.38.0 (20140413.2041)
 -->
<!-- Title: %3 Pages: 1 -->
<svg width="350pt" height="116pt"
 viewBox="0.00 0.00 350.00 116.00" xmlns="http://www.w3.org/2000/svg" xmlns:xlink="http://www.w3.org/1999/xlink">
<g id="graph0" class="graph" transform="scale(1 1) rotate(0) translate(4 112)">
<title>%3</title>
<polygon fill="white" stroke="none" points="-4,4 -4,-112 346,-112 346,4 -4,4"/>
<!-- 27f4d1c0&#45;6672&#45;4e8c&#45;bca8&#45;ca105ee7677e -->
<g id="node1" class="node"><title>27f4d1c0&#45;6672&#45;4e8c&#45;bca8&#45;ca105ee7677e</title>
<ellipse fill="cornsilk" stroke="black" cx="27" cy="-90" rx="27" ry="18"/>
<text text-anchor="middle" x="27" y="-86.3" font-family="Helvetica,sans-Serif" font-size="14.00">D</text>
</g>
<!-- 1af23410&#45;be9f&#45;4491&#45;bafd&#45;376d179bff48 -->
<g id="node2" class="node"><title>1af23410&#45;be9f&#45;4491&#45;bafd&#45;376d179bff48</title>
<polygon fill="cornsilk" stroke="black" points="198,-10.5442 198,-25.4558 182.184,-36 159.816,-36 144,-25.4558 144,-10.5442 159.816,-3.55271e-15 182.184,-0 198,-10.5442"/>
<text text-anchor="middle" x="171" y="-14.3" font-family="Helvetica,sans-Serif" font-size="14.00">Z</text>
</g>
<!-- 27f4d1c0&#45;6672&#45;4e8c&#45;bca8&#45;ca105ee7677e&#45;&gt;1af23410&#45;be9f&#45;4491&#45;bafd&#45;376d179bff48 -->
<g id="edge1" class="edge"><title>27f4d1c0&#45;6672&#45;4e8c&#45;bca8&#45;ca105ee7677e&#45;&gt;1af23410&#45;be9f&#45;4491&#45;bafd&#45;376d179bff48</title>
<path fill="none" stroke="black" d="M48.2477,-78.6713C72.6018,-66.8324 112.719,-47.3312 140.428,-33.8615"/>
<polygon fill="none" stroke="black" points="142.202,-36.8909 149.665,-29.3711 139.141,-30.5953 142.202,-36.8909"/>
</g>
<!-- 3b019cc4&#45;71d6&#45;4b3a&#45;9361&#45;94793059e1c0 -->
<g id="node3" class="node"><title>3b019cc4&#45;71d6&#45;4b3a&#45;9361&#45;94793059e1c0</title>
<ellipse fill="cornsilk" stroke="black" cx="99" cy="-90" rx="27" ry="18"/>
<text text-anchor="middle" x="99" y="-86.3" font-family="Helvetica,sans-Serif" font-size="14.00">A</text>
</g>
<!-- 3b019cc4&#45;71d6&#45;4b3a&#45;9361&#45;94793059e1c0&#45;&gt;1af23410&#45;be9f&#45;4491&#45;bafd&#45;376d179bff48 -->
<g id="edge2" class="edge"><title>3b019cc4&#45;71d6&#45;4b3a&#45;9361&#45;94793059e1c0&#45;&gt;1af23410&#45;be9f&#45;4491&#45;bafd&#45;376d179bff48</title>
<path fill="none" stroke="black" d="M113.57,-74.8345C123.586,-65.0967 137.082,-51.9761 148.474,-40.9006"/>
<polygon fill="none" stroke="black" points="151.226,-43.1066 155.956,-33.6263 146.346,-38.0877 151.226,-43.1066"/>
</g>
<!-- 7d3e8121&#45;cfa4&#45;4770&#45;aac6&#45;a018bbc50405 -->
<g id="node4" class="node"><title>7d3e8121&#45;cfa4&#45;4770&#45;aac6&#45;a018bbc50405</title>
<ellipse fill="cornsilk" stroke="black" cx="171" cy="-90" rx="27" ry="18"/>
<text text-anchor="middle" x="171" y="-86.3" font-family="Helvetica,sans-Serif" font-size="14.00">E</text>
</g>
<!-- 7d3e8121&#45;cfa4&#45;4770&#45;aac6&#45;a018bbc50405&#45;&gt;1af23410&#45;be9f&#45;4491&#45;bafd&#45;376d179bff48 -->
<g id="edge3" class="edge"><title>7d3e8121&#45;cfa4&#45;4770&#45;aac6&#45;a018bbc50405&#45;&gt;1af23410&#45;be9f&#45;4491&#45;bafd&#45;376d179bff48</title>
<path fill="none" stroke="black" d="M171,-71.6966C171,-63.9827 171,-54.7125 171,-46.1124"/>
<polygon fill="none" stroke="black" points="174.5,-46.1043 171,-36.1043 167.5,-46.1044 174.5,-46.1043"/>
</g>
<!-- 25d5941c&#45;19a2&#45;4065&#45;a41e&#45;ebba86841fe4 -->
<g id="node5" class="node"><title>25d5941c&#45;19a2&#45;4065&#45;a41e&#45;ebba86841fe4</title>
<ellipse fill="cornsilk" stroke="black" cx="243" cy="-90" rx="27" ry="18"/>
<text text-anchor="middle" x="243" y="-86.3" font-family="Helvetica,sans-Serif" font-size="14.00">B</text>
</g>
<!-- 25d5941c&#45;19a2&#45;4065&#45;a41e&#45;ebba86841fe4&#45;&gt;1af23410&#45;be9f&#45;4491&#45;bafd&#45;376d179bff48 -->
<g id="edge4" class="edge"><title>25d5941c&#45;19a2&#45;4065&#45;a41e&#45;ebba86841fe4&#45;&gt;1af23410&#45;be9f&#45;4491&#45;bafd&#45;376d179bff48</title>
<path fill="none" stroke="black" d="M228.43,-74.8345C218.414,-65.0967 204.918,-51.9761 193.526,-40.9006"/>
<polygon fill="none" stroke="black" points="195.654,-38.0877 186.044,-33.6263 190.774,-43.1066 195.654,-38.0877"/>
</g>
<!-- 4d44b534&#45;373a&#45;4a79&#45;9a56&#45;3d6dea80211f -->
<g id="node6" class="node"><title>4d44b534&#45;373a&#45;4a79&#45;9a56&#45;3d6dea80211f</title>
<ellipse fill="cornsilk" stroke="black" cx="315" cy="-90" rx="27" ry="18"/>
<text text-anchor="middle" x="315" y="-86.3" font-family="Helvetica,sans-Serif" font-size="14.00">C</text>
</g>
<!-- 4d44b534&#45;373a&#45;4a79&#45;9a56&#45;3d6dea80211f&#45;&gt;1af23410&#45;be9f&#45;4491&#45;bafd&#45;376d179bff48 -->
<g id="edge5" class="edge"><title>4d44b534&#45;373a&#45;4a79&#45;9a56&#45;3d6dea80211f&#45;&gt;1af23410&#45;be9f&#45;4491&#45;bafd&#45;376d179bff48</title>
<path fill="none" stroke="black" d="M293.752,-78.6713C269.398,-66.8324 229.281,-47.3312 201.572,-33.8615"/>
<polygon fill="none" stroke="black" points="202.859,-30.5953 192.335,-29.3711 199.798,-36.8909 202.859,-30.5953"/>
</g>
</g>
</svg>
