<?xml version="1.0" encoding="UTF-8" standalone="no"?>
<!DOCTYPE svg PUBLIC "-//W3C//DTD SVG 1.1//EN"
 "http://www.w3.org/Graphics/SVG/1.1/DTD/svg11.dtd">
<!-- Generated by graphviz version 2.38.0 (20140413.2041)
 -->
<!-- Title: %3 Pages: 1 -->
<svg width="350pt" height="116pt"
 viewBox="0.00 0.00 350.00 116.00" xmlns="http://www.w3.org/2000/svg" xmlns:xlink="http://www.w3.org/1999/xlink">
<g id="graph0" class="graph" transform="scale(1 1) rotate(0) translate(4 112)">
<title>%3</title>
<polygon fill="white" stroke="none" points="-4,4 -4,-112 346,-112 346,4 -4,4"/>
<!-- 17cf06a7&#45;bf6d&#45;472e&#45;abe0&#45;52548edb1a61 -->
<g id="node1" class="node"><title>17cf06a7&#45;bf6d&#45;472e&#45;abe0&#45;52548edb1a61</title>
<ellipse fill="cornsilk" stroke="black" cx="27" cy="-90" rx="27" ry="18"/>
<text text-anchor="middle" x="27" y="-86.3" font-family="Helvetica,sans-Serif" font-size="14.00">D</text>
</g>
<!-- 39f89ca4&#45;44b0&#45;4a18&#45;ba7f&#45;c3ea0803cef2 -->
<g id="node2" class="node"><title>39f89ca4&#45;44b0&#45;4a18&#45;ba7f&#45;c3ea0803cef2</title>
<polygon fill="cornsilk" stroke="black" points="192,-36 144,-36 144,-0 198,-0 198,-30 192,-36"/>
<polyline fill="none" stroke="black" points="192,-36 192,-30 "/>
<polyline fill="none" stroke="black" points="198,-30 192,-30 "/>
<text text-anchor="middle" x="171" y="-14.3" font-family="Helvetica,sans-Serif" font-size="14.00">T</text>
</g>
<!-- 17cf06a7&#45;bf6d&#45;472e&#45;abe0&#45;52548edb1a61&#45;&gt;39f89ca4&#45;44b0&#45;4a18&#45;ba7f&#45;c3ea0803cef2 -->
<g id="edge1" class="edge"><title>17cf06a7&#45;bf6d&#45;472e&#45;abe0&#45;52548edb1a61&#45;&gt;39f89ca4&#45;44b0&#45;4a18&#45;ba7f&#45;c3ea0803cef2</title>
<path fill="none" stroke="black" d="M48.2477,-78.6713C70.9222,-67.6489 107.26,-49.9846 134.527,-36.7299"/>
<polygon fill="none" stroke="black" points="136.293,-39.7634 143.756,-32.2436 133.232,-33.4678 136.293,-39.7634"/>
</g>
<!-- e884cbbd&#45;b47c&#45;4ed3&#45;94df&#45;868a32c2c0f3 -->
<g id="node3" class="node"><title>e884cbbd&#45;b47c&#45;4ed3&#45;94df&#45;868a32c2c0f3</title>
<ellipse fill="cornsilk" stroke="black" cx="99" cy="-90" rx="27" ry="18"/>
<text text-anchor="middle" x="99" y="-86.3" font-family="Helvetica,sans-Serif" font-size="14.00">A</text>
</g>
<!-- e884cbbd&#45;b47c&#45;4ed3&#45;94df&#45;868a32c2c0f3&#45;&gt;39f89ca4&#45;44b0&#45;4a18&#45;ba7f&#45;c3ea0803cef2 -->
<g id="edge2" class="edge"><title>e884cbbd&#45;b47c&#45;4ed3&#45;94df&#45;868a32c2c0f3&#45;&gt;39f89ca4&#45;44b0&#45;4a18&#45;ba7f&#45;c3ea0803cef2</title>
<path fill="none" stroke="black" d="M113.57,-74.8345C122.918,-65.7459 135.298,-53.7105 146.169,-43.1413"/>
<polygon fill="none" stroke="black" points="148.668,-45.593 153.398,-36.1127 143.789,-40.5741 148.668,-45.593"/>
</g>
<!-- c09e678a&#45;6503&#45;4c01&#45;8c4f&#45;8aa2568aa325 -->
<g id="node4" class="node"><title>c09e678a&#45;6503&#45;4c01&#45;8c4f&#45;8aa2568aa325</title>
<ellipse fill="cornsilk" stroke="black" cx="171" cy="-90" rx="27" ry="18"/>
<text text-anchor="middle" x="171" y="-86.3" font-family="Helvetica,sans-Serif" font-size="14.00">E</text>
</g>
<!-- c09e678a&#45;6503&#45;4c01&#45;8c4f&#45;8aa2568aa325&#45;&gt;39f89ca4&#45;44b0&#45;4a18&#45;ba7f&#45;c3ea0803cef2 -->
<g id="edge3" class="edge"><title>c09e678a&#45;6503&#45;4c01&#45;8c4f&#45;8aa2568aa325&#45;&gt;39f89ca4&#45;44b0&#45;4a18&#45;ba7f&#45;c3ea0803cef2</title>
<path fill="none" stroke="black" d="M171,-71.6966C171,-63.9827 171,-54.7125 171,-46.1124"/>
<polygon fill="none" stroke="black" points="174.5,-46.1043 171,-36.1043 167.5,-46.1044 174.5,-46.1043"/>
</g>
<!-- a7d7613c&#45;7556&#45;4066&#45;a281&#45;59def3ffef67 -->
<g id="node5" class="node"><title>a7d7613c&#45;7556&#45;4066&#45;a281&#45;59def3ffef67</title>
<ellipse fill="cornsilk" stroke="black" cx="243" cy="-90" rx="27" ry="18"/>
<text text-anchor="middle" x="243" y="-86.3" font-family="Helvetica,sans-Serif" font-size="14.00">B</text>
</g>
<!-- a7d7613c&#45;7556&#45;4066&#45;a281&#45;59def3ffef67&#45;&gt;39f89ca4&#45;44b0&#45;4a18&#45;ba7f&#45;c3ea0803cef2 -->
<g id="edge4" class="edge"><title>a7d7613c&#45;7556&#45;4066&#45;a281&#45;59def3ffef67&#45;&gt;39f89ca4&#45;44b0&#45;4a18&#45;ba7f&#45;c3ea0803cef2</title>
<path fill="none" stroke="black" d="M228.43,-74.8345C219.082,-65.7459 206.702,-53.7105 195.831,-43.1413"/>
<polygon fill="none" stroke="black" points="198.211,-40.5741 188.602,-36.1127 193.332,-45.593 198.211,-40.5741"/>
</g>
<!-- b03dc178&#45;eea0&#45;4cf0&#45;96ac&#45;8764db6feef3 -->
<g id="node6" class="node"><title>b03dc178&#45;eea0&#45;4cf0&#45;96ac&#45;8764db6feef3</title>
<ellipse fill="cornsilk" stroke="black" cx="315" cy="-90" rx="27" ry="18"/>
<text text-anchor="middle" x="315" y="-86.3" font-family="Helvetica,sans-Serif" font-size="14.00">C</text>
</g>
<!-- b03dc178&#45;eea0&#45;4cf0&#45;96ac&#45;8764db6feef3&#45;&gt;39f89ca4&#45;44b0&#45;4a18&#45;ba7f&#45;c3ea0803cef2 -->
<g id="edge5" class="edge"><title>b03dc178&#45;eea0&#45;4cf0&#45;96ac&#45;8764db6feef3&#45;&gt;39f89ca4&#45;44b0&#45;4a18&#45;ba7f&#45;c3ea0803cef2</title>
<path fill="none" stroke="black" d="M293.752,-78.6713C271.078,-67.6489 234.74,-49.9846 207.473,-36.7299"/>
<polygon fill="none" stroke="black" points="208.768,-33.4678 198.244,-32.2436 205.707,-39.7634 208.768,-33.4678"/>
</g>
</g>
</svg>
