<?xml version="1.0" encoding="UTF-8" standalone="no"?>
<!DOCTYPE svg PUBLIC "-//W3C//DTD SVG 1.1//EN"
 "http://www.w3.org/Graphics/SVG/1.1/DTD/svg11.dtd">
<!-- Generated by graphviz version 2.43.0 (0)
 -->
<!-- Title: %3 Pages: 1 -->
<svg width="350pt" height="116pt"
 viewBox="0.00 0.00 350.00 116.00" xmlns="http://www.w3.org/2000/svg" xmlns:xlink="http://www.w3.org/1999/xlink">
<g id="graph0" class="graph" transform="scale(1 1) rotate(0) translate(4 112)">
<title>%3</title>
<polygon fill="white" stroke="transparent" points="-4,4 -4,-112 346,-112 346,4 -4,4"/>
<!-- e2d7cc1d&#45;2c11&#45;429d&#45;899d&#45;77b91a183303 -->
<g id="node1" class="node">
<title>e2d7cc1d&#45;2c11&#45;429d&#45;899d&#45;77b91a183303</title>
<ellipse fill="cornsilk" stroke="black" cx="27" cy="-90" rx="27" ry="18"/>
<text text-anchor="middle" x="27" y="-86.3" font-family="Helvetica,sans-Serif" font-size="14.00">D</text>
</g>
<!-- 921b9c8b&#45;76c2&#45;4e44&#45;93ef&#45;a1501dc172d8 -->
<g id="node2" class="node">
<title>921b9c8b&#45;76c2&#45;4e44&#45;93ef&#45;a1501dc172d8</title>
<polygon fill="cornsilk" stroke="black" points="171,-36 144,-18 171,0 198,-18 171,-36"/>
<text text-anchor="middle" x="171" y="-14.3" font-family="Helvetica,sans-Serif" font-size="14.00">R</text>
</g>
<!-- e2d7cc1d&#45;2c11&#45;429d&#45;899d&#45;77b91a183303&#45;&gt;921b9c8b&#45;76c2&#45;4e44&#45;93ef&#45;a1501dc172d8 -->
<g id="edge1" class="edge">
<title>e2d7cc1d&#45;2c11&#45;429d&#45;899d&#45;77b91a183303&#45;&gt;921b9c8b&#45;76c2&#45;4e44&#45;93ef&#45;a1501dc172d8</title>
<path fill="none" stroke="black" d="M48.25,-78.67C74.45,-65.94 118.89,-44.33 146.5,-30.91"/>
<polygon fill="none" stroke="black" points="148.38,-33.89 155.84,-26.37 145.32,-27.59 148.38,-33.89"/>
</g>
<!-- de83f751&#45;043a&#45;4e79&#45;951a&#45;c6009d31617b -->
<g id="node3" class="node">
<title>de83f751&#45;043a&#45;4e79&#45;951a&#45;c6009d31617b</title>
<ellipse fill="cornsilk" stroke="black" cx="99" cy="-90" rx="27" ry="18"/>
<text text-anchor="middle" x="99" y="-86.3" font-family="Helvetica,sans-Serif" font-size="14.00">C</text>
</g>
<!-- de83f751&#45;043a&#45;4e79&#45;951a&#45;c6009d31617b&#45;&gt;921b9c8b&#45;76c2&#45;4e44&#45;93ef&#45;a1501dc172d8 -->
<g id="edge2" class="edge">
<title>de83f751&#45;043a&#45;4e79&#45;951a&#45;c6009d31617b&#45;&gt;921b9c8b&#45;76c2&#45;4e44&#45;93ef&#45;a1501dc172d8</title>
<path fill="none" stroke="black" d="M113.57,-74.83C124.9,-63.82 140.67,-48.49 152.82,-36.67"/>
<polygon fill="none" stroke="black" points="155.47,-38.98 160.2,-29.5 150.59,-33.96 155.47,-38.98"/>
</g>
<!-- fc261410&#45;2a0e&#45;4d61&#45;9ad8&#45;a0b9bd5ca029 -->
<g id="node4" class="node">
<title>fc261410&#45;2a0e&#45;4d61&#45;9ad8&#45;a0b9bd5ca029</title>
<ellipse fill="cornsilk" stroke="black" cx="171" cy="-90" rx="27" ry="18"/>
<text text-anchor="middle" x="171" y="-86.3" font-family="Helvetica,sans-Serif" font-size="14.00">E</text>
</g>
<!-- fc261410&#45;2a0e&#45;4d61&#45;9ad8&#45;a0b9bd5ca029&#45;&gt;921b9c8b&#45;76c2&#45;4e44&#45;93ef&#45;a1501dc172d8 -->
<g id="edge3" class="edge">
<title>fc261410&#45;2a0e&#45;4d61&#45;9ad8&#45;a0b9bd5ca029&#45;&gt;921b9c8b&#45;76c2&#45;4e44&#45;93ef&#45;a1501dc172d8</title>
<path fill="none" stroke="black" d="M171,-71.7C171,-63.98 171,-54.71 171,-46.11"/>
<polygon fill="none" stroke="black" points="174.5,-46.1 171,-36.1 167.5,-46.1 174.5,-46.1"/>
</g>
<!-- 72ac12ea&#45;b986&#45;4292&#45;b317&#45;749a45152c39 -->
<g id="node5" class="node">
<title>72ac12ea&#45;b986&#45;4292&#45;b317&#45;749a45152c39</title>
<ellipse fill="cornsilk" stroke="black" cx="243" cy="-90" rx="27" ry="18"/>
<text text-anchor="middle" x="243" y="-86.3" font-family="Helvetica,sans-Serif" font-size="14.00">B</text>
</g>
<!-- 72ac12ea&#45;b986&#45;4292&#45;b317&#45;749a45152c39&#45;&gt;921b9c8b&#45;76c2&#45;4e44&#45;93ef&#45;a1501dc172d8 -->
<g id="edge4" class="edge">
<title>72ac12ea&#45;b986&#45;4292&#45;b317&#45;749a45152c39&#45;&gt;921b9c8b&#45;76c2&#45;4e44&#45;93ef&#45;a1501dc172d8</title>
<path fill="none" stroke="black" d="M228.43,-74.83C217.1,-63.82 201.33,-48.49 189.18,-36.67"/>
<polygon fill="none" stroke="black" points="191.41,-33.96 181.8,-29.5 186.53,-38.98 191.41,-33.96"/>
</g>
<!-- 1a37d368&#45;2533&#45;4753&#45;a694&#45;cc10deb31628 -->
<g id="node6" class="node">
<title>1a37d368&#45;2533&#45;4753&#45;a694&#45;cc10deb31628</title>
<ellipse fill="cornsilk" stroke="black" cx="315" cy="-90" rx="27" ry="18"/>
<text text-anchor="middle" x="315" y="-86.3" font-family="Helvetica,sans-Serif" font-size="14.00">A</text>
</g>
<!-- 1a37d368&#45;2533&#45;4753&#45;a694&#45;cc10deb31628&#45;&gt;921b9c8b&#45;76c2&#45;4e44&#45;93ef&#45;a1501dc172d8 -->
<g id="edge5" class="edge">
<title>1a37d368&#45;2533&#45;4753&#45;a694&#45;cc10deb31628&#45;&gt;921b9c8b&#45;76c2&#45;4e44&#45;93ef&#45;a1501dc172d8</title>
<path fill="none" stroke="black" d="M293.75,-78.67C267.55,-65.94 223.11,-44.33 195.5,-30.91"/>
<polygon fill="none" stroke="black" points="196.68,-27.59 186.16,-26.37 193.62,-33.89 196.68,-27.59"/>
</g>
</g>
</svg>
