<?xml version="1.0" encoding="UTF-8" standalone="no"?>
<!DOCTYPE svg PUBLIC "-//W3C//DTD SVG 1.1//EN"
 "http://www.w3.org/Graphics/SVG/1.1/DTD/svg11.dtd">
<!-- Generated by graphviz version 2.38.0 (20140413.2041)
 -->
<!-- Title: %3 Pages: 1 -->
<svg width="350pt" height="116pt"
 viewBox="0.00 0.00 350.00 116.00" xmlns="http://www.w3.org/2000/svg" xmlns:xlink="http://www.w3.org/1999/xlink">
<g id="graph0" class="graph" transform="scale(1 1) rotate(0) translate(4 112)">
<title>%3</title>
<polygon fill="white" stroke="none" points="-4,4 -4,-112 346,-112 346,4 -4,4"/>
<!-- ddfe49e5&#45;6874&#45;49d2&#45;8f90&#45;ae893bd2ea13 -->
<g id="node1" class="node"><title>ddfe49e5&#45;6874&#45;49d2&#45;8f90&#45;ae893bd2ea13</title>
<ellipse fill="cornsilk" stroke="black" cx="27" cy="-90" rx="27" ry="18"/>
<text text-anchor="middle" x="27" y="-86.3" font-family="Helvetica,sans-Serif" font-size="14.00">D</text>
</g>
<!-- dd69ce4b&#45;ab4d&#45;47d8&#45;9123&#45;8202720e480c -->
<g id="node2" class="node"><title>dd69ce4b&#45;ab4d&#45;47d8&#45;9123&#45;8202720e480c</title>
<polygon fill="cornsilk" stroke="black" points="198,-23.5623 171,-36 144,-23.5623 144.025,-3.43769 197.975,-3.43769 198,-23.5623"/>
<text text-anchor="middle" x="171" y="-14.3" font-family="Helvetica,sans-Serif" font-size="14.00">X</text>
</g>
<!-- ddfe49e5&#45;6874&#45;49d2&#45;8f90&#45;ae893bd2ea13&#45;&gt;dd69ce4b&#45;ab4d&#45;47d8&#45;9123&#45;8202720e480c -->
<g id="edge1" class="edge"><title>ddfe49e5&#45;6874&#45;49d2&#45;8f90&#45;ae893bd2ea13&#45;&gt;dd69ce4b&#45;ab4d&#45;47d8&#45;9123&#45;8202720e480c</title>
<path fill="none" stroke="black" d="M48.2477,-78.6713C73.5816,-66.3562 115.972,-45.7498 143.71,-32.266"/>
<polygon fill="none" stroke="black" points="145.395,-35.3388 152.858,-27.819 142.334,-29.0432 145.395,-35.3388"/>
</g>
<!-- 96e8e041&#45;1439&#45;4a68&#45;9ee1&#45;e52f2989964e -->
<g id="node3" class="node"><title>96e8e041&#45;1439&#45;4a68&#45;9ee1&#45;e52f2989964e</title>
<ellipse fill="cornsilk" stroke="black" cx="99" cy="-90" rx="27" ry="18"/>
<text text-anchor="middle" x="99" y="-86.3" font-family="Helvetica,sans-Serif" font-size="14.00">A</text>
</g>
<!-- 96e8e041&#45;1439&#45;4a68&#45;9ee1&#45;e52f2989964e&#45;&gt;dd69ce4b&#45;ab4d&#45;47d8&#45;9123&#45;8202720e480c -->
<g id="edge2" class="edge"><title>96e8e041&#45;1439&#45;4a68&#45;9ee1&#45;e52f2989964e&#45;&gt;dd69ce4b&#45;ab4d&#45;47d8&#45;9123&#45;8202720e480c</title>
<path fill="none" stroke="black" d="M113.57,-74.8345C124.492,-64.2166 139.55,-49.5766 151.507,-37.9515"/>
<polygon fill="none" stroke="black" points="154.112,-40.3004 158.842,-30.8201 149.232,-35.2814 154.112,-40.3004"/>
</g>
<!-- 908eb660&#45;f795&#45;45bb&#45;9bc4&#45;6bce9a22ed46 -->
<g id="node4" class="node"><title>908eb660&#45;f795&#45;45bb&#45;9bc4&#45;6bce9a22ed46</title>
<ellipse fill="cornsilk" stroke="black" cx="171" cy="-90" rx="27" ry="18"/>
<text text-anchor="middle" x="171" y="-86.3" font-family="Helvetica,sans-Serif" font-size="14.00">E</text>
</g>
<!-- 908eb660&#45;f795&#45;45bb&#45;9bc4&#45;6bce9a22ed46&#45;&gt;dd69ce4b&#45;ab4d&#45;47d8&#45;9123&#45;8202720e480c -->
<g id="edge3" class="edge"><title>908eb660&#45;f795&#45;45bb&#45;9bc4&#45;6bce9a22ed46&#45;&gt;dd69ce4b&#45;ab4d&#45;47d8&#45;9123&#45;8202720e480c</title>
<path fill="none" stroke="black" d="M171,-71.6966C171,-63.9827 171,-54.7125 171,-46.1124"/>
<polygon fill="none" stroke="black" points="174.5,-46.1043 171,-36.1043 167.5,-46.1044 174.5,-46.1043"/>
</g>
<!-- 38d9394e&#45;fc1b&#45;435f&#45;99d9&#45;4f5a0b500de7 -->
<g id="node5" class="node"><title>38d9394e&#45;fc1b&#45;435f&#45;99d9&#45;4f5a0b500de7</title>
<ellipse fill="cornsilk" stroke="black" cx="243" cy="-90" rx="27" ry="18"/>
<text text-anchor="middle" x="243" y="-86.3" font-family="Helvetica,sans-Serif" font-size="14.00">B</text>
</g>
<!-- 38d9394e&#45;fc1b&#45;435f&#45;99d9&#45;4f5a0b500de7&#45;&gt;dd69ce4b&#45;ab4d&#45;47d8&#45;9123&#45;8202720e480c -->
<g id="edge4" class="edge"><title>38d9394e&#45;fc1b&#45;435f&#45;99d9&#45;4f5a0b500de7&#45;&gt;dd69ce4b&#45;ab4d&#45;47d8&#45;9123&#45;8202720e480c</title>
<path fill="none" stroke="black" d="M228.43,-74.8345C217.508,-64.2166 202.45,-49.5766 190.493,-37.9515"/>
<polygon fill="none" stroke="black" points="192.768,-35.2814 183.158,-30.8201 187.888,-40.3004 192.768,-35.2814"/>
</g>
<!-- 12a101e8&#45;2214&#45;417f&#45;b53d&#45;668d1a01ef82 -->
<g id="node6" class="node"><title>12a101e8&#45;2214&#45;417f&#45;b53d&#45;668d1a01ef82</title>
<ellipse fill="cornsilk" stroke="black" cx="315" cy="-90" rx="27" ry="18"/>
<text text-anchor="middle" x="315" y="-86.3" font-family="Helvetica,sans-Serif" font-size="14.00">C</text>
</g>
<!-- 12a101e8&#45;2214&#45;417f&#45;b53d&#45;668d1a01ef82&#45;&gt;dd69ce4b&#45;ab4d&#45;47d8&#45;9123&#45;8202720e480c -->
<g id="edge5" class="edge"><title>12a101e8&#45;2214&#45;417f&#45;b53d&#45;668d1a01ef82&#45;&gt;dd69ce4b&#45;ab4d&#45;47d8&#45;9123&#45;8202720e480c</title>
<path fill="none" stroke="black" d="M293.752,-78.6713C268.418,-66.3562 226.028,-45.7498 198.29,-32.266"/>
<polygon fill="none" stroke="black" points="199.666,-29.0432 189.142,-27.819 196.605,-35.3388 199.666,-29.0432"/>
</g>
</g>
</svg>
