<?xml version="1.0" encoding="UTF-8" standalone="no"?>
<!DOCTYPE svg PUBLIC "-//W3C//DTD SVG 1.1//EN"
 "http://www.w3.org/Graphics/SVG/1.1/DTD/svg11.dtd">
<!-- Generated by graphviz version 2.38.0 (20140413.2041)
 -->
<!-- Title: %3 Pages: 1 -->
<svg width="350pt" height="116pt"
 viewBox="0.00 0.00 350.00 116.00" xmlns="http://www.w3.org/2000/svg" xmlns:xlink="http://www.w3.org/1999/xlink">
<g id="graph0" class="graph" transform="scale(1 1) rotate(0) translate(4 112)">
<title>%3</title>
<polygon fill="white" stroke="none" points="-4,4 -4,-112 346,-112 346,4 -4,4"/>
<!-- 9a9c0494&#45;aa84&#45;40b5&#45;98c2&#45;88ad09a5a398 -->
<g id="node1" class="node"><title>9a9c0494&#45;aa84&#45;40b5&#45;98c2&#45;88ad09a5a398</title>
<ellipse fill="cornsilk" stroke="black" cx="27" cy="-90" rx="27" ry="18"/>
<text text-anchor="middle" x="27" y="-86.3" font-family="Helvetica,sans-Serif" font-size="14.00">D</text>
</g>
<!-- 786015ab&#45;1aaf&#45;4149&#45;8ce9&#45;7f23a7abb214 -->
<g id="node2" class="node"><title>786015ab&#45;1aaf&#45;4149&#45;8ce9&#45;7f23a7abb214</title>
<ellipse fill="cornsilk" stroke="black" cx="171" cy="-18" rx="27" ry="18"/>
<text text-anchor="middle" x="171" y="-14.3" font-family="Helvetica,sans-Serif" font-size="14.00">U</text>
</g>
<!-- 9a9c0494&#45;aa84&#45;40b5&#45;98c2&#45;88ad09a5a398&#45;&gt;786015ab&#45;1aaf&#45;4149&#45;8ce9&#45;7f23a7abb214 -->
<g id="edge1" class="edge"><title>9a9c0494&#45;aa84&#45;40b5&#45;98c2&#45;88ad09a5a398&#45;&gt;786015ab&#45;1aaf&#45;4149&#45;8ce9&#45;7f23a7abb214</title>
<path fill="none" stroke="black" d="M48.2477,-78.6713C72.6018,-66.8324 112.719,-47.3312 140.428,-33.8615"/>
<polygon fill="none" stroke="black" points="142.202,-36.8909 149.665,-29.3711 139.141,-30.5953 142.202,-36.8909"/>
</g>
<!-- 12f60607&#45;05dc&#45;4395&#45;a25d&#45;608b16f6c459 -->
<g id="node3" class="node"><title>12f60607&#45;05dc&#45;4395&#45;a25d&#45;608b16f6c459</title>
<ellipse fill="cornsilk" stroke="black" cx="99" cy="-90" rx="27" ry="18"/>
<text text-anchor="middle" x="99" y="-86.3" font-family="Helvetica,sans-Serif" font-size="14.00">A</text>
</g>
<!-- 12f60607&#45;05dc&#45;4395&#45;a25d&#45;608b16f6c459&#45;&gt;786015ab&#45;1aaf&#45;4149&#45;8ce9&#45;7f23a7abb214 -->
<g id="edge2" class="edge"><title>12f60607&#45;05dc&#45;4395&#45;a25d&#45;608b16f6c459&#45;&gt;786015ab&#45;1aaf&#45;4149&#45;8ce9&#45;7f23a7abb214</title>
<path fill="none" stroke="black" d="M113.57,-74.8345C123.75,-64.9376 137.524,-51.5462 149.031,-40.3591"/>
<polygon fill="none" stroke="black" points="151.474,-42.865 156.204,-33.3847 146.595,-37.8461 151.474,-42.865"/>
</g>
<!-- 703be6d2&#45;0bb2&#45;40fb&#45;823c&#45;d12d2e94f3ab -->
<g id="node4" class="node"><title>703be6d2&#45;0bb2&#45;40fb&#45;823c&#45;d12d2e94f3ab</title>
<ellipse fill="cornsilk" stroke="black" cx="171" cy="-90" rx="27" ry="18"/>
<text text-anchor="middle" x="171" y="-86.3" font-family="Helvetica,sans-Serif" font-size="14.00">E</text>
</g>
<!-- 703be6d2&#45;0bb2&#45;40fb&#45;823c&#45;d12d2e94f3ab&#45;&gt;786015ab&#45;1aaf&#45;4149&#45;8ce9&#45;7f23a7abb214 -->
<g id="edge3" class="edge"><title>703be6d2&#45;0bb2&#45;40fb&#45;823c&#45;d12d2e94f3ab&#45;&gt;786015ab&#45;1aaf&#45;4149&#45;8ce9&#45;7f23a7abb214</title>
<path fill="none" stroke="black" d="M171,-71.6966C171,-63.9827 171,-54.7125 171,-46.1124"/>
<polygon fill="none" stroke="black" points="174.5,-46.1043 171,-36.1043 167.5,-46.1044 174.5,-46.1043"/>
</g>
<!-- 66a52a1a&#45;fe37&#45;4b49&#45;b4af&#45;318dcc159a12 -->
<g id="node5" class="node"><title>66a52a1a&#45;fe37&#45;4b49&#45;b4af&#45;318dcc159a12</title>
<ellipse fill="cornsilk" stroke="black" cx="243" cy="-90" rx="27" ry="18"/>
<text text-anchor="middle" x="243" y="-86.3" font-family="Helvetica,sans-Serif" font-size="14.00">B</text>
</g>
<!-- 66a52a1a&#45;fe37&#45;4b49&#45;b4af&#45;318dcc159a12&#45;&gt;786015ab&#45;1aaf&#45;4149&#45;8ce9&#45;7f23a7abb214 -->
<g id="edge4" class="edge"><title>66a52a1a&#45;fe37&#45;4b49&#45;b4af&#45;318dcc159a12&#45;&gt;786015ab&#45;1aaf&#45;4149&#45;8ce9&#45;7f23a7abb214</title>
<path fill="none" stroke="black" d="M228.43,-74.8345C218.25,-64.9376 204.476,-51.5462 192.969,-40.3591"/>
<polygon fill="none" stroke="black" points="195.405,-37.8461 185.796,-33.3847 190.526,-42.865 195.405,-37.8461"/>
</g>
<!-- bad5fcf6&#45;1903&#45;483a&#45;93b0&#45;374895650a07 -->
<g id="node6" class="node"><title>bad5fcf6&#45;1903&#45;483a&#45;93b0&#45;374895650a07</title>
<ellipse fill="cornsilk" stroke="black" cx="315" cy="-90" rx="27" ry="18"/>
<text text-anchor="middle" x="315" y="-86.3" font-family="Helvetica,sans-Serif" font-size="14.00">C</text>
</g>
<!-- bad5fcf6&#45;1903&#45;483a&#45;93b0&#45;374895650a07&#45;&gt;786015ab&#45;1aaf&#45;4149&#45;8ce9&#45;7f23a7abb214 -->
<g id="edge5" class="edge"><title>bad5fcf6&#45;1903&#45;483a&#45;93b0&#45;374895650a07&#45;&gt;786015ab&#45;1aaf&#45;4149&#45;8ce9&#45;7f23a7abb214</title>
<path fill="none" stroke="black" d="M293.752,-78.6713C269.398,-66.8324 229.281,-47.3312 201.572,-33.8615"/>
<polygon fill="none" stroke="black" points="202.859,-30.5953 192.335,-29.3711 199.798,-36.8909 202.859,-30.5953"/>
</g>
</g>
</svg>
