<?xml version="1.0" encoding="UTF-8" standalone="no"?>
<!DOCTYPE svg PUBLIC "-//W3C//DTD SVG 1.1//EN"
 "http://www.w3.org/Graphics/SVG/1.1/DTD/svg11.dtd">
<!-- Generated by graphviz version 2.43.0 (0)
 -->
<!-- Title: %3 Pages: 1 -->
<svg width="350pt" height="116pt"
 viewBox="0.00 0.00 350.00 116.00" xmlns="http://www.w3.org/2000/svg" xmlns:xlink="http://www.w3.org/1999/xlink">
<g id="graph0" class="graph" transform="scale(1 1) rotate(0) translate(4 112)">
<title>%3</title>
<polygon fill="white" stroke="transparent" points="-4,4 -4,-112 346,-112 346,4 -4,4"/>
<!-- cc6bc0d9&#45;b7d1&#45;4e6a&#45;a47d&#45;a50eafb3e82b -->
<g id="node1" class="node">
<title>cc6bc0d9&#45;b7d1&#45;4e6a&#45;a47d&#45;a50eafb3e82b</title>
<ellipse fill="cornsilk" stroke="black" cx="27" cy="-90" rx="27" ry="18"/>
<text text-anchor="middle" x="27" y="-86.3" font-family="Helvetica,sans-Serif" font-size="14.00">D</text>
</g>
<!-- 98bbd6df&#45;f770&#45;44cf&#45;b037&#45;ef7b5abbd16f -->
<g id="node2" class="node">
<title>98bbd6df&#45;f770&#45;44cf&#45;b037&#45;ef7b5abbd16f</title>
<path fill="cornsilk" stroke="black" d="M198,-32.73C198,-34.53 185.9,-36 171,-36 156.1,-36 144,-34.53 144,-32.73 144,-32.73 144,-3.27 144,-3.27 144,-1.47 156.1,0 171,0 185.9,0 198,-1.47 198,-3.27 198,-3.27 198,-32.73 198,-32.73"/>
<path fill="none" stroke="black" d="M198,-32.73C198,-30.92 185.9,-29.45 171,-29.45 156.1,-29.45 144,-30.92 144,-32.73"/>
<text text-anchor="middle" x="171" y="-14.3" font-family="Helvetica,sans-Serif" font-size="14.00">V</text>
</g>
<!-- cc6bc0d9&#45;b7d1&#45;4e6a&#45;a47d&#45;a50eafb3e82b&#45;&gt;98bbd6df&#45;f770&#45;44cf&#45;b037&#45;ef7b5abbd16f -->
<g id="edge1" class="edge">
<title>cc6bc0d9&#45;b7d1&#45;4e6a&#45;a47d&#45;a50eafb3e82b&#45;&gt;98bbd6df&#45;f770&#45;44cf&#45;b037&#45;ef7b5abbd16f</title>
<path fill="none" stroke="black" d="M48.25,-78.67C70.92,-67.65 107.26,-49.98 134.53,-36.73"/>
<polygon fill="none" stroke="black" points="136.29,-39.76 143.76,-32.24 133.23,-33.47 136.29,-39.76"/>
</g>
<!-- 7c1af973&#45;fa2d&#45;4317&#45;950a&#45;455a34c99b79 -->
<g id="node3" class="node">
<title>7c1af973&#45;fa2d&#45;4317&#45;950a&#45;455a34c99b79</title>
<ellipse fill="cornsilk" stroke="black" cx="99" cy="-90" rx="27" ry="18"/>
<text text-anchor="middle" x="99" y="-86.3" font-family="Helvetica,sans-Serif" font-size="14.00">C</text>
</g>
<!-- 7c1af973&#45;fa2d&#45;4317&#45;950a&#45;455a34c99b79&#45;&gt;98bbd6df&#45;f770&#45;44cf&#45;b037&#45;ef7b5abbd16f -->
<g id="edge2" class="edge">
<title>7c1af973&#45;fa2d&#45;4317&#45;950a&#45;455a34c99b79&#45;&gt;98bbd6df&#45;f770&#45;44cf&#45;b037&#45;ef7b5abbd16f</title>
<path fill="none" stroke="black" d="M113.57,-74.83C122.99,-65.68 135.47,-53.54 146.4,-42.92"/>
<polygon fill="none" stroke="black" points="148.93,-45.34 153.66,-35.86 144.05,-40.32 148.93,-45.34"/>
</g>
<!-- 67cd8d78&#45;9582&#45;412d&#45;a6a6&#45;83aecdfb292d -->
<g id="node4" class="node">
<title>67cd8d78&#45;9582&#45;412d&#45;a6a6&#45;83aecdfb292d</title>
<ellipse fill="cornsilk" stroke="black" cx="171" cy="-90" rx="27" ry="18"/>
<text text-anchor="middle" x="171" y="-86.3" font-family="Helvetica,sans-Serif" font-size="14.00">E</text>
</g>
<!-- 67cd8d78&#45;9582&#45;412d&#45;a6a6&#45;83aecdfb292d&#45;&gt;98bbd6df&#45;f770&#45;44cf&#45;b037&#45;ef7b5abbd16f -->
<g id="edge3" class="edge">
<title>67cd8d78&#45;9582&#45;412d&#45;a6a6&#45;83aecdfb292d&#45;&gt;98bbd6df&#45;f770&#45;44cf&#45;b037&#45;ef7b5abbd16f</title>
<path fill="none" stroke="black" d="M171,-71.7C171,-63.98 171,-54.71 171,-46.11"/>
<polygon fill="none" stroke="black" points="174.5,-46.1 171,-36.1 167.5,-46.1 174.5,-46.1"/>
</g>
<!-- e57d3acd&#45;0df9&#45;4416&#45;8e6b&#45;ea67140c5db0 -->
<g id="node5" class="node">
<title>e57d3acd&#45;0df9&#45;4416&#45;8e6b&#45;ea67140c5db0</title>
<ellipse fill="cornsilk" stroke="black" cx="243" cy="-90" rx="27" ry="18"/>
<text text-anchor="middle" x="243" y="-86.3" font-family="Helvetica,sans-Serif" font-size="14.00">B</text>
</g>
<!-- e57d3acd&#45;0df9&#45;4416&#45;8e6b&#45;ea67140c5db0&#45;&gt;98bbd6df&#45;f770&#45;44cf&#45;b037&#45;ef7b5abbd16f -->
<g id="edge4" class="edge">
<title>e57d3acd&#45;0df9&#45;4416&#45;8e6b&#45;ea67140c5db0&#45;&gt;98bbd6df&#45;f770&#45;44cf&#45;b037&#45;ef7b5abbd16f</title>
<path fill="none" stroke="black" d="M228.43,-74.83C219.01,-65.68 206.53,-53.54 195.6,-42.92"/>
<polygon fill="none" stroke="black" points="197.95,-40.32 188.34,-35.86 193.07,-45.34 197.95,-40.32"/>
</g>
<!-- a6a5a039&#45;67a9&#45;482a&#45;b2a5&#45;87d818798a86 -->
<g id="node6" class="node">
<title>a6a5a039&#45;67a9&#45;482a&#45;b2a5&#45;87d818798a86</title>
<ellipse fill="cornsilk" stroke="black" cx="315" cy="-90" rx="27" ry="18"/>
<text text-anchor="middle" x="315" y="-86.3" font-family="Helvetica,sans-Serif" font-size="14.00">A</text>
</g>
<!-- a6a5a039&#45;67a9&#45;482a&#45;b2a5&#45;87d818798a86&#45;&gt;98bbd6df&#45;f770&#45;44cf&#45;b037&#45;ef7b5abbd16f -->
<g id="edge5" class="edge">
<title>a6a5a039&#45;67a9&#45;482a&#45;b2a5&#45;87d818798a86&#45;&gt;98bbd6df&#45;f770&#45;44cf&#45;b037&#45;ef7b5abbd16f</title>
<path fill="none" stroke="black" d="M293.75,-78.67C271.08,-67.65 234.74,-49.98 207.47,-36.73"/>
<polygon fill="none" stroke="black" points="208.77,-33.47 198.24,-32.24 205.71,-39.76 208.77,-33.47"/>
</g>
</g>
</svg>
