<?xml version="1.0" encoding="UTF-8" standalone="no"?>
<!DOCTYPE svg PUBLIC "-//W3C//DTD SVG 1.1//EN"
 "http://www.w3.org/Graphics/SVG/1.1/DTD/svg11.dtd">
<!-- Generated by graphviz version 2.38.0 (20140413.2041)
 -->
<!-- Title: %3 Pages: 1 -->
<svg width="350pt" height="116pt"
 viewBox="0.00 0.00 350.00 116.00" xmlns="http://www.w3.org/2000/svg" xmlns:xlink="http://www.w3.org/1999/xlink">
<g id="graph0" class="graph" transform="scale(1 1) rotate(0) translate(4 112)">
<title>%3</title>
<polygon fill="white" stroke="none" points="-4,4 -4,-112 346,-112 346,4 -4,4"/>
<!-- d98e9319&#45;9974&#45;4ef3&#45;b35b&#45;dfabff6aaf40 -->
<g id="node1" class="node"><title>d98e9319&#45;9974&#45;4ef3&#45;b35b&#45;dfabff6aaf40</title>
<ellipse fill="cornsilk" stroke="black" cx="27" cy="-90" rx="27" ry="18"/>
<text text-anchor="middle" x="27" y="-86.3" font-family="Helvetica,sans-Serif" font-size="14.00">D</text>
</g>
<!-- 644f7c8e&#45;7332&#45;4f5a&#45;b896&#45;28a8ebab987d -->
<g id="node2" class="node"><title>644f7c8e&#45;7332&#45;4f5a&#45;b896&#45;28a8ebab987d</title>
<polygon fill="cornsilk" stroke="black" points="171,-36 144,-18 171,-3.55271e-15 198,-18 171,-36"/>
<text text-anchor="middle" x="171" y="-14.3" font-family="Helvetica,sans-Serif" font-size="14.00">R</text>
</g>
<!-- d98e9319&#45;9974&#45;4ef3&#45;b35b&#45;dfabff6aaf40&#45;&gt;644f7c8e&#45;7332&#45;4f5a&#45;b896&#45;28a8ebab987d -->
<g id="edge1" class="edge"><title>d98e9319&#45;9974&#45;4ef3&#45;b35b&#45;dfabff6aaf40&#45;&gt;644f7c8e&#45;7332&#45;4f5a&#45;b896&#45;28a8ebab987d</title>
<path fill="none" stroke="black" d="M48.2477,-78.6713C74.4464,-65.9358 118.886,-44.3332 146.498,-30.9106"/>
<polygon fill="none" stroke="black" points="148.381,-33.8869 155.845,-26.3672 145.321,-27.5914 148.381,-33.8869"/>
</g>
<!-- 26edfebd&#45;2468&#45;486c&#45;a784&#45;9c5ebe998f45 -->
<g id="node3" class="node"><title>26edfebd&#45;2468&#45;486c&#45;a784&#45;9c5ebe998f45</title>
<ellipse fill="cornsilk" stroke="black" cx="99" cy="-90" rx="27" ry="18"/>
<text text-anchor="middle" x="99" y="-86.3" font-family="Helvetica,sans-Serif" font-size="14.00">A</text>
</g>
<!-- 26edfebd&#45;2468&#45;486c&#45;a784&#45;9c5ebe998f45&#45;&gt;644f7c8e&#45;7332&#45;4f5a&#45;b896&#45;28a8ebab987d -->
<g id="edge2" class="edge"><title>26edfebd&#45;2468&#45;486c&#45;a784&#45;9c5ebe998f45&#45;&gt;644f7c8e&#45;7332&#45;4f5a&#45;b896&#45;28a8ebab987d</title>
<path fill="none" stroke="black" d="M113.57,-74.8345C124.896,-63.8233 140.671,-48.4867 152.822,-36.6726"/>
<polygon fill="none" stroke="black" points="155.471,-38.9789 160.201,-29.4986 150.592,-33.96 155.471,-38.9789"/>
</g>
<!-- eebc4895&#45;003b&#45;4888&#45;b3b5&#45;354c541bd04d -->
<g id="node4" class="node"><title>eebc4895&#45;003b&#45;4888&#45;b3b5&#45;354c541bd04d</title>
<ellipse fill="cornsilk" stroke="black" cx="171" cy="-90" rx="27" ry="18"/>
<text text-anchor="middle" x="171" y="-86.3" font-family="Helvetica,sans-Serif" font-size="14.00">E</text>
</g>
<!-- eebc4895&#45;003b&#45;4888&#45;b3b5&#45;354c541bd04d&#45;&gt;644f7c8e&#45;7332&#45;4f5a&#45;b896&#45;28a8ebab987d -->
<g id="edge3" class="edge"><title>eebc4895&#45;003b&#45;4888&#45;b3b5&#45;354c541bd04d&#45;&gt;644f7c8e&#45;7332&#45;4f5a&#45;b896&#45;28a8ebab987d</title>
<path fill="none" stroke="black" d="M171,-71.6966C171,-63.9827 171,-54.7125 171,-46.1124"/>
<polygon fill="none" stroke="black" points="174.5,-46.1043 171,-36.1043 167.5,-46.1044 174.5,-46.1043"/>
</g>
<!-- 09876669&#45;dafd&#45;4cd0&#45;af6a&#45;050c20fa9374 -->
<g id="node5" class="node"><title>09876669&#45;dafd&#45;4cd0&#45;af6a&#45;050c20fa9374</title>
<ellipse fill="cornsilk" stroke="black" cx="243" cy="-90" rx="27" ry="18"/>
<text text-anchor="middle" x="243" y="-86.3" font-family="Helvetica,sans-Serif" font-size="14.00">B</text>
</g>
<!-- 09876669&#45;dafd&#45;4cd0&#45;af6a&#45;050c20fa9374&#45;&gt;644f7c8e&#45;7332&#45;4f5a&#45;b896&#45;28a8ebab987d -->
<g id="edge4" class="edge"><title>09876669&#45;dafd&#45;4cd0&#45;af6a&#45;050c20fa9374&#45;&gt;644f7c8e&#45;7332&#45;4f5a&#45;b896&#45;28a8ebab987d</title>
<path fill="none" stroke="black" d="M228.43,-74.8345C217.104,-63.8233 201.329,-48.4867 189.178,-36.6726"/>
<polygon fill="none" stroke="black" points="191.408,-33.96 181.799,-29.4986 186.529,-38.9789 191.408,-33.96"/>
</g>
<!-- 330c5b2d&#45;831a&#45;4d63&#45;8b79&#45;2572d9db700e -->
<g id="node6" class="node"><title>330c5b2d&#45;831a&#45;4d63&#45;8b79&#45;2572d9db700e</title>
<ellipse fill="cornsilk" stroke="black" cx="315" cy="-90" rx="27" ry="18"/>
<text text-anchor="middle" x="315" y="-86.3" font-family="Helvetica,sans-Serif" font-size="14.00">C</text>
</g>
<!-- 330c5b2d&#45;831a&#45;4d63&#45;8b79&#45;2572d9db700e&#45;&gt;644f7c8e&#45;7332&#45;4f5a&#45;b896&#45;28a8ebab987d -->
<g id="edge5" class="edge"><title>330c5b2d&#45;831a&#45;4d63&#45;8b79&#45;2572d9db700e&#45;&gt;644f7c8e&#45;7332&#45;4f5a&#45;b896&#45;28a8ebab987d</title>
<path fill="none" stroke="black" d="M293.752,-78.6713C267.554,-65.9358 223.114,-44.3332 195.502,-30.9106"/>
<polygon fill="none" stroke="black" points="196.679,-27.5914 186.155,-26.3672 193.619,-33.8869 196.679,-27.5914"/>
</g>
</g>
</svg>
