<?xml version="1.0" encoding="UTF-8" standalone="no"?>
<!DOCTYPE svg PUBLIC "-//W3C//DTD SVG 1.1//EN"
 "http://www.w3.org/Graphics/SVG/1.1/DTD/svg11.dtd">
<!-- Generated by graphviz version 2.38.0 (20140413.2041)
 -->
<!-- Title: %3 Pages: 1 -->
<svg width="350pt" height="116pt"
 viewBox="0.00 0.00 350.00 116.00" xmlns="http://www.w3.org/2000/svg" xmlns:xlink="http://www.w3.org/1999/xlink">
<g id="graph0" class="graph" transform="scale(1 1) rotate(0) translate(4 112)">
<title>%3</title>
<polygon fill="white" stroke="none" points="-4,4 -4,-112 346,-112 346,4 -4,4"/>
<!-- d0fcf863&#45;0dd9&#45;4904&#45;8495&#45;5b7ad4787d47 -->
<g id="node1" class="node"><title>d0fcf863&#45;0dd9&#45;4904&#45;8495&#45;5b7ad4787d47</title>
<ellipse fill="cornsilk" stroke="black" cx="27" cy="-90" rx="27" ry="18"/>
<text text-anchor="middle" x="27" y="-86.3" font-family="Helvetica,sans-Serif" font-size="14.00">D</text>
</g>
<!-- 14fa40f7&#45;9744&#45;4cdf&#45;a8a8&#45;b62075504e89 -->
<g id="node2" class="node"><title>14fa40f7&#45;9744&#45;4cdf&#45;a8a8&#45;b62075504e89</title>
<polygon fill="cornsilk" stroke="black" points="192,-36 144,-36 144,-0 198,-0 198,-30 192,-36"/>
<polyline fill="none" stroke="black" points="192,-36 192,-30 "/>
<polyline fill="none" stroke="black" points="198,-30 192,-30 "/>
<text text-anchor="middle" x="171" y="-14.3" font-family="Helvetica,sans-Serif" font-size="14.00">T</text>
</g>
<!-- d0fcf863&#45;0dd9&#45;4904&#45;8495&#45;5b7ad4787d47&#45;&gt;14fa40f7&#45;9744&#45;4cdf&#45;a8a8&#45;b62075504e89 -->
<g id="edge1" class="edge"><title>d0fcf863&#45;0dd9&#45;4904&#45;8495&#45;5b7ad4787d47&#45;&gt;14fa40f7&#45;9744&#45;4cdf&#45;a8a8&#45;b62075504e89</title>
<path fill="none" stroke="black" d="M48.2477,-78.6713C70.9222,-67.6489 107.26,-49.9846 134.527,-36.7299"/>
<polygon fill="none" stroke="black" points="136.293,-39.7634 143.756,-32.2436 133.232,-33.4678 136.293,-39.7634"/>
</g>
<!-- ffab49c2&#45;9ef7&#45;48c4&#45;a5da&#45;83de3d7df0b6 -->
<g id="node3" class="node"><title>ffab49c2&#45;9ef7&#45;48c4&#45;a5da&#45;83de3d7df0b6</title>
<ellipse fill="cornsilk" stroke="black" cx="99" cy="-90" rx="27" ry="18"/>
<text text-anchor="middle" x="99" y="-86.3" font-family="Helvetica,sans-Serif" font-size="14.00">A</text>
</g>
<!-- ffab49c2&#45;9ef7&#45;48c4&#45;a5da&#45;83de3d7df0b6&#45;&gt;14fa40f7&#45;9744&#45;4cdf&#45;a8a8&#45;b62075504e89 -->
<g id="edge2" class="edge"><title>ffab49c2&#45;9ef7&#45;48c4&#45;a5da&#45;83de3d7df0b6&#45;&gt;14fa40f7&#45;9744&#45;4cdf&#45;a8a8&#45;b62075504e89</title>
<path fill="none" stroke="black" d="M113.57,-74.8345C122.918,-65.7459 135.298,-53.7105 146.169,-43.1413"/>
<polygon fill="none" stroke="black" points="148.668,-45.593 153.398,-36.1127 143.789,-40.5741 148.668,-45.593"/>
</g>
<!-- ffa4f30c&#45;f6ee&#45;481c&#45;8b84&#45;86dfbd3db4a6 -->
<g id="node4" class="node"><title>ffa4f30c&#45;f6ee&#45;481c&#45;8b84&#45;86dfbd3db4a6</title>
<ellipse fill="cornsilk" stroke="black" cx="171" cy="-90" rx="27" ry="18"/>
<text text-anchor="middle" x="171" y="-86.3" font-family="Helvetica,sans-Serif" font-size="14.00">E</text>
</g>
<!-- ffa4f30c&#45;f6ee&#45;481c&#45;8b84&#45;86dfbd3db4a6&#45;&gt;14fa40f7&#45;9744&#45;4cdf&#45;a8a8&#45;b62075504e89 -->
<g id="edge3" class="edge"><title>ffa4f30c&#45;f6ee&#45;481c&#45;8b84&#45;86dfbd3db4a6&#45;&gt;14fa40f7&#45;9744&#45;4cdf&#45;a8a8&#45;b62075504e89</title>
<path fill="none" stroke="black" d="M171,-71.6966C171,-63.9827 171,-54.7125 171,-46.1124"/>
<polygon fill="none" stroke="black" points="174.5,-46.1043 171,-36.1043 167.5,-46.1044 174.5,-46.1043"/>
</g>
<!-- ea747e17&#45;3a9d&#45;4d24&#45;90f9&#45;a0ae96384d82 -->
<g id="node5" class="node"><title>ea747e17&#45;3a9d&#45;4d24&#45;90f9&#45;a0ae96384d82</title>
<ellipse fill="cornsilk" stroke="black" cx="243" cy="-90" rx="27" ry="18"/>
<text text-anchor="middle" x="243" y="-86.3" font-family="Helvetica,sans-Serif" font-size="14.00">B</text>
</g>
<!-- ea747e17&#45;3a9d&#45;4d24&#45;90f9&#45;a0ae96384d82&#45;&gt;14fa40f7&#45;9744&#45;4cdf&#45;a8a8&#45;b62075504e89 -->
<g id="edge4" class="edge"><title>ea747e17&#45;3a9d&#45;4d24&#45;90f9&#45;a0ae96384d82&#45;&gt;14fa40f7&#45;9744&#45;4cdf&#45;a8a8&#45;b62075504e89</title>
<path fill="none" stroke="black" d="M228.43,-74.8345C219.082,-65.7459 206.702,-53.7105 195.831,-43.1413"/>
<polygon fill="none" stroke="black" points="198.211,-40.5741 188.602,-36.1127 193.332,-45.593 198.211,-40.5741"/>
</g>
<!-- bd8bafe4&#45;52d6&#45;4043&#45;b6bb&#45;0362c7eac62d -->
<g id="node6" class="node"><title>bd8bafe4&#45;52d6&#45;4043&#45;b6bb&#45;0362c7eac62d</title>
<ellipse fill="cornsilk" stroke="black" cx="315" cy="-90" rx="27" ry="18"/>
<text text-anchor="middle" x="315" y="-86.3" font-family="Helvetica,sans-Serif" font-size="14.00">C</text>
</g>
<!-- bd8bafe4&#45;52d6&#45;4043&#45;b6bb&#45;0362c7eac62d&#45;&gt;14fa40f7&#45;9744&#45;4cdf&#45;a8a8&#45;b62075504e89 -->
<g id="edge5" class="edge"><title>bd8bafe4&#45;52d6&#45;4043&#45;b6bb&#45;0362c7eac62d&#45;&gt;14fa40f7&#45;9744&#45;4cdf&#45;a8a8&#45;b62075504e89</title>
<path fill="none" stroke="black" d="M293.752,-78.6713C271.078,-67.6489 234.74,-49.9846 207.473,-36.7299"/>
<polygon fill="none" stroke="black" points="208.768,-33.4678 198.244,-32.2436 205.707,-39.7634 208.768,-33.4678"/>
</g>
</g>
</svg>
