<?xml version="1.0" encoding="UTF-8" standalone="no"?>
<!DOCTYPE svg PUBLIC "-//W3C//DTD SVG 1.1//EN"
 "http://www.w3.org/Graphics/SVG/1.1/DTD/svg11.dtd">
<!-- Generated by graphviz version 2.43.0 (0)
 -->
<!-- Title: %3 Pages: 1 -->
<svg width="350pt" height="116pt"
 viewBox="0.00 0.00 350.00 116.00" xmlns="http://www.w3.org/2000/svg" xmlns:xlink="http://www.w3.org/1999/xlink">
<g id="graph0" class="graph" transform="scale(1 1) rotate(0) translate(4 112)">
<title>%3</title>
<polygon fill="white" stroke="transparent" points="-4,4 -4,-112 346,-112 346,4 -4,4"/>
<!-- 77652f25&#45;9c24&#45;47de&#45;b32a&#45;29f7602978d5 -->
<g id="node1" class="node">
<title>77652f25&#45;9c24&#45;47de&#45;b32a&#45;29f7602978d5</title>
<ellipse fill="cornsilk" stroke="black" cx="27" cy="-90" rx="27" ry="18"/>
<text text-anchor="middle" x="27" y="-86.3" font-family="Helvetica,sans-Serif" font-size="14.00">D</text>
</g>
<!-- a585f843&#45;c487&#45;4408&#45;a4da&#45;27fd06e88158 -->
<g id="node2" class="node">
<title>a585f843&#45;c487&#45;4408&#45;a4da&#45;27fd06e88158</title>
<polygon fill="cornsilk" stroke="black" points="198,-23.56 171,-36 144,-23.56 144.03,-3.44 197.97,-3.44 198,-23.56"/>
<text text-anchor="middle" x="171" y="-14.3" font-family="Helvetica,sans-Serif" font-size="14.00">X</text>
</g>
<!-- 77652f25&#45;9c24&#45;47de&#45;b32a&#45;29f7602978d5&#45;&gt;a585f843&#45;c487&#45;4408&#45;a4da&#45;27fd06e88158 -->
<g id="edge1" class="edge">
<title>77652f25&#45;9c24&#45;47de&#45;b32a&#45;29f7602978d5&#45;&gt;a585f843&#45;c487&#45;4408&#45;a4da&#45;27fd06e88158</title>
<path fill="none" stroke="black" d="M48.25,-78.67C73.58,-66.36 115.97,-45.75 143.71,-32.27"/>
<polygon fill="none" stroke="black" points="145.39,-35.34 152.86,-27.82 142.33,-29.04 145.39,-35.34"/>
</g>
<!-- 5616bfa2&#45;19ff&#45;4505&#45;a52c&#45;5337996d221c -->
<g id="node3" class="node">
<title>5616bfa2&#45;19ff&#45;4505&#45;a52c&#45;5337996d221c</title>
<ellipse fill="cornsilk" stroke="black" cx="99" cy="-90" rx="27" ry="18"/>
<text text-anchor="middle" x="99" y="-86.3" font-family="Helvetica,sans-Serif" font-size="14.00">C</text>
</g>
<!-- 5616bfa2&#45;19ff&#45;4505&#45;a52c&#45;5337996d221c&#45;&gt;a585f843&#45;c487&#45;4408&#45;a4da&#45;27fd06e88158 -->
<g id="edge2" class="edge">
<title>5616bfa2&#45;19ff&#45;4505&#45;a52c&#45;5337996d221c&#45;&gt;a585f843&#45;c487&#45;4408&#45;a4da&#45;27fd06e88158</title>
<path fill="none" stroke="black" d="M113.57,-74.83C124.49,-64.22 139.55,-49.58 151.51,-37.95"/>
<polygon fill="none" stroke="black" points="154.11,-40.3 158.84,-30.82 149.23,-35.28 154.11,-40.3"/>
</g>
<!-- e989c885&#45;c5e0&#45;493a&#45;aa7d&#45;7efdc05af2e6 -->
<g id="node4" class="node">
<title>e989c885&#45;c5e0&#45;493a&#45;aa7d&#45;7efdc05af2e6</title>
<ellipse fill="cornsilk" stroke="black" cx="171" cy="-90" rx="27" ry="18"/>
<text text-anchor="middle" x="171" y="-86.3" font-family="Helvetica,sans-Serif" font-size="14.00">E</text>
</g>
<!-- e989c885&#45;c5e0&#45;493a&#45;aa7d&#45;7efdc05af2e6&#45;&gt;a585f843&#45;c487&#45;4408&#45;a4da&#45;27fd06e88158 -->
<g id="edge3" class="edge">
<title>e989c885&#45;c5e0&#45;493a&#45;aa7d&#45;7efdc05af2e6&#45;&gt;a585f843&#45;c487&#45;4408&#45;a4da&#45;27fd06e88158</title>
<path fill="none" stroke="black" d="M171,-71.7C171,-63.98 171,-54.71 171,-46.11"/>
<polygon fill="none" stroke="black" points="174.5,-46.1 171,-36.1 167.5,-46.1 174.5,-46.1"/>
</g>
<!-- f8db43f9&#45;da14&#45;4ec2&#45;ac3c&#45;ca24a0769b57 -->
<g id="node5" class="node">
<title>f8db43f9&#45;da14&#45;4ec2&#45;ac3c&#45;ca24a0769b57</title>
<ellipse fill="cornsilk" stroke="black" cx="243" cy="-90" rx="27" ry="18"/>
<text text-anchor="middle" x="243" y="-86.3" font-family="Helvetica,sans-Serif" font-size="14.00">B</text>
</g>
<!-- f8db43f9&#45;da14&#45;4ec2&#45;ac3c&#45;ca24a0769b57&#45;&gt;a585f843&#45;c487&#45;4408&#45;a4da&#45;27fd06e88158 -->
<g id="edge4" class="edge">
<title>f8db43f9&#45;da14&#45;4ec2&#45;ac3c&#45;ca24a0769b57&#45;&gt;a585f843&#45;c487&#45;4408&#45;a4da&#45;27fd06e88158</title>
<path fill="none" stroke="black" d="M228.43,-74.83C217.51,-64.22 202.45,-49.58 190.49,-37.95"/>
<polygon fill="none" stroke="black" points="192.77,-35.28 183.16,-30.82 187.89,-40.3 192.77,-35.28"/>
</g>
<!-- 0b4adad5&#45;b302&#45;4028&#45;959c&#45;d047f2c3ff74 -->
<g id="node6" class="node">
<title>0b4adad5&#45;b302&#45;4028&#45;959c&#45;d047f2c3ff74</title>
<ellipse fill="cornsilk" stroke="black" cx="315" cy="-90" rx="27" ry="18"/>
<text text-anchor="middle" x="315" y="-86.3" font-family="Helvetica,sans-Serif" font-size="14.00">A</text>
</g>
<!-- 0b4adad5&#45;b302&#45;4028&#45;959c&#45;d047f2c3ff74&#45;&gt;a585f843&#45;c487&#45;4408&#45;a4da&#45;27fd06e88158 -->
<g id="edge5" class="edge">
<title>0b4adad5&#45;b302&#45;4028&#45;959c&#45;d047f2c3ff74&#45;&gt;a585f843&#45;c487&#45;4408&#45;a4da&#45;27fd06e88158</title>
<path fill="none" stroke="black" d="M293.75,-78.67C268.42,-66.36 226.03,-45.75 198.29,-32.27"/>
<polygon fill="none" stroke="black" points="199.67,-29.04 189.14,-27.82 196.61,-35.34 199.67,-29.04"/>
</g>
</g>
</svg>
