<?xml version="1.0" encoding="UTF-8" standalone="no"?>
<!DOCTYPE svg PUBLIC "-//W3C//DTD SVG 1.1//EN"
 "http://www.w3.org/Graphics/SVG/1.1/DTD/svg11.dtd">
<!-- Generated by graphviz version 2.38.0 (20140413.2041)
 -->
<!-- Title: %3 Pages: 1 -->
<svg width="350pt" height="116pt"
 viewBox="0.00 0.00 350.00 116.00" xmlns="http://www.w3.org/2000/svg" xmlns:xlink="http://www.w3.org/1999/xlink">
<g id="graph0" class="graph" transform="scale(1 1) rotate(0) translate(4 112)">
<title>%3</title>
<polygon fill="white" stroke="none" points="-4,4 -4,-112 346,-112 346,4 -4,4"/>
<!-- e690f226&#45;8901&#45;4ead&#45;a1a4&#45;271830704280 -->
<g id="node1" class="node"><title>e690f226&#45;8901&#45;4ead&#45;a1a4&#45;271830704280</title>
<ellipse fill="cornsilk" stroke="black" cx="27" cy="-90" rx="27" ry="18"/>
<text text-anchor="middle" x="27" y="-86.3" font-family="Helvetica,sans-Serif" font-size="14.00">D</text>
</g>
<!-- 5fef9ee6&#45;bbf2&#45;4d6e&#45;a920&#45;1062449a270c -->
<g id="node2" class="node"><title>5fef9ee6&#45;bbf2&#45;4d6e&#45;a920&#45;1062449a270c</title>
<polygon fill="cornsilk" stroke="black" points="198,-36 148,-36 144,-32 144,-0 194,-0 198,-4 198,-36"/>
<polyline fill="none" stroke="black" points="194,-32 144,-32 "/>
<polyline fill="none" stroke="black" points="194,-32 194,-0 "/>
<polyline fill="none" stroke="black" points="194,-32 198,-36 "/>
<text text-anchor="middle" x="171" y="-14.3" font-family="Helvetica,sans-Serif" font-size="14.00">S</text>
</g>
<!-- e690f226&#45;8901&#45;4ead&#45;a1a4&#45;271830704280&#45;&gt;5fef9ee6&#45;bbf2&#45;4d6e&#45;a920&#45;1062449a270c -->
<g id="edge1" class="edge"><title>e690f226&#45;8901&#45;4ead&#45;a1a4&#45;271830704280&#45;&gt;5fef9ee6&#45;bbf2&#45;4d6e&#45;a920&#45;1062449a270c</title>
<path fill="none" stroke="black" d="M48.2477,-78.6713C70.9222,-67.6489 107.26,-49.9846 134.527,-36.7299"/>
<polygon fill="none" stroke="black" points="136.293,-39.7634 143.756,-32.2436 133.232,-33.4678 136.293,-39.7634"/>
</g>
<!-- 470a5f1e&#45;ecd8&#45;415d&#45;bbdf&#45;4a39382792cc -->
<g id="node3" class="node"><title>470a5f1e&#45;ecd8&#45;415d&#45;bbdf&#45;4a39382792cc</title>
<ellipse fill="cornsilk" stroke="black" cx="99" cy="-90" rx="27" ry="18"/>
<text text-anchor="middle" x="99" y="-86.3" font-family="Helvetica,sans-Serif" font-size="14.00">A</text>
</g>
<!-- 470a5f1e&#45;ecd8&#45;415d&#45;bbdf&#45;4a39382792cc&#45;&gt;5fef9ee6&#45;bbf2&#45;4d6e&#45;a920&#45;1062449a270c -->
<g id="edge2" class="edge"><title>470a5f1e&#45;ecd8&#45;415d&#45;bbdf&#45;4a39382792cc&#45;&gt;5fef9ee6&#45;bbf2&#45;4d6e&#45;a920&#45;1062449a270c</title>
<path fill="none" stroke="black" d="M113.57,-74.8345C122.918,-65.7459 135.298,-53.7105 146.169,-43.1413"/>
<polygon fill="none" stroke="black" points="148.668,-45.593 153.398,-36.1127 143.789,-40.5741 148.668,-45.593"/>
</g>
<!-- 399b8e7a&#45;0ea6&#45;400e&#45;aa8f&#45;97a46f78c21b -->
<g id="node4" class="node"><title>399b8e7a&#45;0ea6&#45;400e&#45;aa8f&#45;97a46f78c21b</title>
<ellipse fill="cornsilk" stroke="black" cx="171" cy="-90" rx="27" ry="18"/>
<text text-anchor="middle" x="171" y="-86.3" font-family="Helvetica,sans-Serif" font-size="14.00">E</text>
</g>
<!-- 399b8e7a&#45;0ea6&#45;400e&#45;aa8f&#45;97a46f78c21b&#45;&gt;5fef9ee6&#45;bbf2&#45;4d6e&#45;a920&#45;1062449a270c -->
<g id="edge3" class="edge"><title>399b8e7a&#45;0ea6&#45;400e&#45;aa8f&#45;97a46f78c21b&#45;&gt;5fef9ee6&#45;bbf2&#45;4d6e&#45;a920&#45;1062449a270c</title>
<path fill="none" stroke="black" d="M171,-71.6966C171,-63.9827 171,-54.7125 171,-46.1124"/>
<polygon fill="none" stroke="black" points="174.5,-46.1043 171,-36.1043 167.5,-46.1044 174.5,-46.1043"/>
</g>
<!-- 0cc8d93d&#45;ec5f&#45;4690&#45;97b7&#45;8f77614ef70f -->
<g id="node5" class="node"><title>0cc8d93d&#45;ec5f&#45;4690&#45;97b7&#45;8f77614ef70f</title>
<ellipse fill="cornsilk" stroke="black" cx="243" cy="-90" rx="27" ry="18"/>
<text text-anchor="middle" x="243" y="-86.3" font-family="Helvetica,sans-Serif" font-size="14.00">B</text>
</g>
<!-- 0cc8d93d&#45;ec5f&#45;4690&#45;97b7&#45;8f77614ef70f&#45;&gt;5fef9ee6&#45;bbf2&#45;4d6e&#45;a920&#45;1062449a270c -->
<g id="edge4" class="edge"><title>0cc8d93d&#45;ec5f&#45;4690&#45;97b7&#45;8f77614ef70f&#45;&gt;5fef9ee6&#45;bbf2&#45;4d6e&#45;a920&#45;1062449a270c</title>
<path fill="none" stroke="black" d="M228.43,-74.8345C219.082,-65.7459 206.702,-53.7105 195.831,-43.1413"/>
<polygon fill="none" stroke="black" points="198.211,-40.5741 188.602,-36.1127 193.332,-45.593 198.211,-40.5741"/>
</g>
<!-- 5e7abec6&#45;1a7b&#45;4575&#45;9cea&#45;e572f8022f09 -->
<g id="node6" class="node"><title>5e7abec6&#45;1a7b&#45;4575&#45;9cea&#45;e572f8022f09</title>
<ellipse fill="cornsilk" stroke="black" cx="315" cy="-90" rx="27" ry="18"/>
<text text-anchor="middle" x="315" y="-86.3" font-family="Helvetica,sans-Serif" font-size="14.00">C</text>
</g>
<!-- 5e7abec6&#45;1a7b&#45;4575&#45;9cea&#45;e572f8022f09&#45;&gt;5fef9ee6&#45;bbf2&#45;4d6e&#45;a920&#45;1062449a270c -->
<g id="edge5" class="edge"><title>5e7abec6&#45;1a7b&#45;4575&#45;9cea&#45;e572f8022f09&#45;&gt;5fef9ee6&#45;bbf2&#45;4d6e&#45;a920&#45;1062449a270c</title>
<path fill="none" stroke="black" d="M293.752,-78.6713C271.078,-67.6489 234.74,-49.9846 207.473,-36.7299"/>
<polygon fill="none" stroke="black" points="208.768,-33.4678 198.244,-32.2436 205.707,-39.7634 208.768,-33.4678"/>
</g>
</g>
</svg>
