<?xml version="1.0" encoding="UTF-8" standalone="no"?>
<!DOCTYPE svg PUBLIC "-//W3C//DTD SVG 1.1//EN"
 "http://www.w3.org/Graphics/SVG/1.1/DTD/svg11.dtd">
<!-- Generated by graphviz version 2.43.0 (0)
 -->
<!-- Title: %3 Pages: 1 -->
<svg width="350pt" height="116pt"
 viewBox="0.00 0.00 350.00 116.00" xmlns="http://www.w3.org/2000/svg" xmlns:xlink="http://www.w3.org/1999/xlink">
<g id="graph0" class="graph" transform="scale(1 1) rotate(0) translate(4 112)">
<title>%3</title>
<polygon fill="white" stroke="transparent" points="-4,4 -4,-112 346,-112 346,4 -4,4"/>
<!-- fb076635&#45;91a3&#45;4f05&#45;a34a&#45;ffa619a52e9d -->
<g id="node1" class="node">
<title>fb076635&#45;91a3&#45;4f05&#45;a34a&#45;ffa619a52e9d</title>
<ellipse fill="cornsilk" stroke="black" cx="27" cy="-90" rx="27" ry="18"/>
<text text-anchor="middle" x="27" y="-86.3" font-family="Helvetica,sans-Serif" font-size="14.00">A</text>
</g>
<!-- 8531119c&#45;f8f7&#45;48dd&#45;8664&#45;3dd8885ebed4 -->
<g id="node2" class="node">
<title>8531119c&#45;f8f7&#45;48dd&#45;8664&#45;3dd8885ebed4</title>
<ellipse fill="cornsilk" stroke="black" cx="171" cy="-18" rx="27" ry="18"/>
<text text-anchor="middle" x="171" y="-14.3" font-family="Helvetica,sans-Serif" font-size="14.00">U</text>
</g>
<!-- fb076635&#45;91a3&#45;4f05&#45;a34a&#45;ffa619a52e9d&#45;&gt;8531119c&#45;f8f7&#45;48dd&#45;8664&#45;3dd8885ebed4 -->
<g id="edge1" class="edge">
<title>fb076635&#45;91a3&#45;4f05&#45;a34a&#45;ffa619a52e9d&#45;&gt;8531119c&#45;f8f7&#45;48dd&#45;8664&#45;3dd8885ebed4</title>
<path fill="none" stroke="black" d="M48.25,-78.67C72.6,-66.83 112.72,-47.33 140.43,-33.86"/>
<polygon fill="none" stroke="black" points="142.2,-36.89 149.67,-29.37 139.14,-30.6 142.2,-36.89"/>
</g>
<!-- 14ec292a&#45;b63e&#45;4e41&#45;8a82&#45;9f024bdd5347 -->
<g id="node3" class="node">
<title>14ec292a&#45;b63e&#45;4e41&#45;8a82&#45;9f024bdd5347</title>
<ellipse fill="cornsilk" stroke="black" cx="99" cy="-90" rx="27" ry="18"/>
<text text-anchor="middle" x="99" y="-86.3" font-family="Helvetica,sans-Serif" font-size="14.00">E</text>
</g>
<!-- 14ec292a&#45;b63e&#45;4e41&#45;8a82&#45;9f024bdd5347&#45;&gt;8531119c&#45;f8f7&#45;48dd&#45;8664&#45;3dd8885ebed4 -->
<g id="edge2" class="edge">
<title>14ec292a&#45;b63e&#45;4e41&#45;8a82&#45;9f024bdd5347&#45;&gt;8531119c&#45;f8f7&#45;48dd&#45;8664&#45;3dd8885ebed4</title>
<path fill="none" stroke="black" d="M113.57,-74.83C123.75,-64.94 137.52,-51.55 149.03,-40.36"/>
<polygon fill="none" stroke="black" points="151.47,-42.87 156.2,-33.38 146.59,-37.85 151.47,-42.87"/>
</g>
<!-- 84f6b5ef&#45;134e&#45;44d0&#45;a30d&#45;569472a48849 -->
<g id="node4" class="node">
<title>84f6b5ef&#45;134e&#45;44d0&#45;a30d&#45;569472a48849</title>
<ellipse fill="cornsilk" stroke="black" cx="171" cy="-90" rx="27" ry="18"/>
<text text-anchor="middle" x="171" y="-86.3" font-family="Helvetica,sans-Serif" font-size="14.00">D</text>
</g>
<!-- 84f6b5ef&#45;134e&#45;44d0&#45;a30d&#45;569472a48849&#45;&gt;8531119c&#45;f8f7&#45;48dd&#45;8664&#45;3dd8885ebed4 -->
<g id="edge3" class="edge">
<title>84f6b5ef&#45;134e&#45;44d0&#45;a30d&#45;569472a48849&#45;&gt;8531119c&#45;f8f7&#45;48dd&#45;8664&#45;3dd8885ebed4</title>
<path fill="none" stroke="black" d="M171,-71.7C171,-63.98 171,-54.71 171,-46.11"/>
<polygon fill="none" stroke="black" points="174.5,-46.1 171,-36.1 167.5,-46.1 174.5,-46.1"/>
</g>
<!-- 4a0fed38&#45;9d5b&#45;4c17&#45;b253&#45;5e59ecd9e434 -->
<g id="node5" class="node">
<title>4a0fed38&#45;9d5b&#45;4c17&#45;b253&#45;5e59ecd9e434</title>
<ellipse fill="cornsilk" stroke="black" cx="243" cy="-90" rx="27" ry="18"/>
<text text-anchor="middle" x="243" y="-86.3" font-family="Helvetica,sans-Serif" font-size="14.00">C</text>
</g>
<!-- 4a0fed38&#45;9d5b&#45;4c17&#45;b253&#45;5e59ecd9e434&#45;&gt;8531119c&#45;f8f7&#45;48dd&#45;8664&#45;3dd8885ebed4 -->
<g id="edge4" class="edge">
<title>4a0fed38&#45;9d5b&#45;4c17&#45;b253&#45;5e59ecd9e434&#45;&gt;8531119c&#45;f8f7&#45;48dd&#45;8664&#45;3dd8885ebed4</title>
<path fill="none" stroke="black" d="M228.43,-74.83C218.25,-64.94 204.48,-51.55 192.97,-40.36"/>
<polygon fill="none" stroke="black" points="195.41,-37.85 185.8,-33.38 190.53,-42.87 195.41,-37.85"/>
</g>
<!-- 6f095ba6&#45;d238&#45;4a07&#45;80cd&#45;d64c5c0d728e -->
<g id="node6" class="node">
<title>6f095ba6&#45;d238&#45;4a07&#45;80cd&#45;d64c5c0d728e</title>
<ellipse fill="cornsilk" stroke="black" cx="315" cy="-90" rx="27" ry="18"/>
<text text-anchor="middle" x="315" y="-86.3" font-family="Helvetica,sans-Serif" font-size="14.00">B</text>
</g>
<!-- 6f095ba6&#45;d238&#45;4a07&#45;80cd&#45;d64c5c0d728e&#45;&gt;8531119c&#45;f8f7&#45;48dd&#45;8664&#45;3dd8885ebed4 -->
<g id="edge5" class="edge">
<title>6f095ba6&#45;d238&#45;4a07&#45;80cd&#45;d64c5c0d728e&#45;&gt;8531119c&#45;f8f7&#45;48dd&#45;8664&#45;3dd8885ebed4</title>
<path fill="none" stroke="black" d="M293.75,-78.67C269.4,-66.83 229.28,-47.33 201.57,-33.86"/>
<polygon fill="none" stroke="black" points="202.86,-30.6 192.33,-29.37 199.8,-36.89 202.86,-30.6"/>
</g>
</g>
</svg>
