<?xml version="1.0" encoding="UTF-8" standalone="no"?>
<!DOCTYPE svg PUBLIC "-//W3C//DTD SVG 1.1//EN"
 "http://www.w3.org/Graphics/SVG/1.1/DTD/svg11.dtd">
<!-- Generated by graphviz version 2.38.0 (20140413.2041)
 -->
<!-- Title: %3 Pages: 1 -->
<svg width="350pt" height="116pt"
 viewBox="0.00 0.00 350.00 116.00" xmlns="http://www.w3.org/2000/svg" xmlns:xlink="http://www.w3.org/1999/xlink">
<g id="graph0" class="graph" transform="scale(1 1) rotate(0) translate(4 112)">
<title>%3</title>
<polygon fill="white" stroke="none" points="-4,4 -4,-112 346,-112 346,4 -4,4"/>
<!-- 13ed3632&#45;b19e&#45;4c8f&#45;b883&#45;af1b581a0444 -->
<g id="node1" class="node"><title>13ed3632&#45;b19e&#45;4c8f&#45;b883&#45;af1b581a0444</title>
<ellipse fill="cornsilk" stroke="black" cx="27" cy="-90" rx="27" ry="18"/>
<text text-anchor="middle" x="27" y="-86.3" font-family="Helvetica,sans-Serif" font-size="14.00">D</text>
</g>
<!-- e80ca85f&#45;58eb&#45;4723&#45;8125&#45;3d4331719a97 -->
<g id="node2" class="node"><title>e80ca85f&#45;58eb&#45;4723&#45;8125&#45;3d4331719a97</title>
<polygon fill="cornsilk" stroke="black" points="171,-36 144,-18 171,-3.55271e-15 198,-18 171,-36"/>
<text text-anchor="middle" x="171" y="-14.3" font-family="Helvetica,sans-Serif" font-size="14.00">R</text>
</g>
<!-- 13ed3632&#45;b19e&#45;4c8f&#45;b883&#45;af1b581a0444&#45;&gt;e80ca85f&#45;58eb&#45;4723&#45;8125&#45;3d4331719a97 -->
<g id="edge1" class="edge"><title>13ed3632&#45;b19e&#45;4c8f&#45;b883&#45;af1b581a0444&#45;&gt;e80ca85f&#45;58eb&#45;4723&#45;8125&#45;3d4331719a97</title>
<path fill="none" stroke="black" d="M48.2477,-78.6713C74.4464,-65.9358 118.886,-44.3332 146.498,-30.9106"/>
<polygon fill="none" stroke="black" points="148.381,-33.8869 155.845,-26.3672 145.321,-27.5914 148.381,-33.8869"/>
</g>
<!-- 26e8f056&#45;2a11&#45;4cbd&#45;8242&#45;2bbdd7783225 -->
<g id="node3" class="node"><title>26e8f056&#45;2a11&#45;4cbd&#45;8242&#45;2bbdd7783225</title>
<ellipse fill="cornsilk" stroke="black" cx="99" cy="-90" rx="27" ry="18"/>
<text text-anchor="middle" x="99" y="-86.3" font-family="Helvetica,sans-Serif" font-size="14.00">A</text>
</g>
<!-- 26e8f056&#45;2a11&#45;4cbd&#45;8242&#45;2bbdd7783225&#45;&gt;e80ca85f&#45;58eb&#45;4723&#45;8125&#45;3d4331719a97 -->
<g id="edge2" class="edge"><title>26e8f056&#45;2a11&#45;4cbd&#45;8242&#45;2bbdd7783225&#45;&gt;e80ca85f&#45;58eb&#45;4723&#45;8125&#45;3d4331719a97</title>
<path fill="none" stroke="black" d="M113.57,-74.8345C124.896,-63.8233 140.671,-48.4867 152.822,-36.6726"/>
<polygon fill="none" stroke="black" points="155.471,-38.9789 160.201,-29.4986 150.592,-33.96 155.471,-38.9789"/>
</g>
<!-- e87deded&#45;f0a5&#45;43a0&#45;a141&#45;bb92a8835302 -->
<g id="node4" class="node"><title>e87deded&#45;f0a5&#45;43a0&#45;a141&#45;bb92a8835302</title>
<ellipse fill="cornsilk" stroke="black" cx="171" cy="-90" rx="27" ry="18"/>
<text text-anchor="middle" x="171" y="-86.3" font-family="Helvetica,sans-Serif" font-size="14.00">E</text>
</g>
<!-- e87deded&#45;f0a5&#45;43a0&#45;a141&#45;bb92a8835302&#45;&gt;e80ca85f&#45;58eb&#45;4723&#45;8125&#45;3d4331719a97 -->
<g id="edge3" class="edge"><title>e87deded&#45;f0a5&#45;43a0&#45;a141&#45;bb92a8835302&#45;&gt;e80ca85f&#45;58eb&#45;4723&#45;8125&#45;3d4331719a97</title>
<path fill="none" stroke="black" d="M171,-71.6966C171,-63.9827 171,-54.7125 171,-46.1124"/>
<polygon fill="none" stroke="black" points="174.5,-46.1043 171,-36.1043 167.5,-46.1044 174.5,-46.1043"/>
</g>
<!-- a8fb59f3&#45;4e86&#45;44d9&#45;804a&#45;febad2584d10 -->
<g id="node5" class="node"><title>a8fb59f3&#45;4e86&#45;44d9&#45;804a&#45;febad2584d10</title>
<ellipse fill="cornsilk" stroke="black" cx="243" cy="-90" rx="27" ry="18"/>
<text text-anchor="middle" x="243" y="-86.3" font-family="Helvetica,sans-Serif" font-size="14.00">B</text>
</g>
<!-- a8fb59f3&#45;4e86&#45;44d9&#45;804a&#45;febad2584d10&#45;&gt;e80ca85f&#45;58eb&#45;4723&#45;8125&#45;3d4331719a97 -->
<g id="edge4" class="edge"><title>a8fb59f3&#45;4e86&#45;44d9&#45;804a&#45;febad2584d10&#45;&gt;e80ca85f&#45;58eb&#45;4723&#45;8125&#45;3d4331719a97</title>
<path fill="none" stroke="black" d="M228.43,-74.8345C217.104,-63.8233 201.329,-48.4867 189.178,-36.6726"/>
<polygon fill="none" stroke="black" points="191.408,-33.96 181.799,-29.4986 186.529,-38.9789 191.408,-33.96"/>
</g>
<!-- 21794894&#45;5988&#45;4c4a&#45;b3df&#45;c2bbb8092fd9 -->
<g id="node6" class="node"><title>21794894&#45;5988&#45;4c4a&#45;b3df&#45;c2bbb8092fd9</title>
<ellipse fill="cornsilk" stroke="black" cx="315" cy="-90" rx="27" ry="18"/>
<text text-anchor="middle" x="315" y="-86.3" font-family="Helvetica,sans-Serif" font-size="14.00">C</text>
</g>
<!-- 21794894&#45;5988&#45;4c4a&#45;b3df&#45;c2bbb8092fd9&#45;&gt;e80ca85f&#45;58eb&#45;4723&#45;8125&#45;3d4331719a97 -->
<g id="edge5" class="edge"><title>21794894&#45;5988&#45;4c4a&#45;b3df&#45;c2bbb8092fd9&#45;&gt;e80ca85f&#45;58eb&#45;4723&#45;8125&#45;3d4331719a97</title>
<path fill="none" stroke="black" d="M293.752,-78.6713C267.554,-65.9358 223.114,-44.3332 195.502,-30.9106"/>
<polygon fill="none" stroke="black" points="196.679,-27.5914 186.155,-26.3672 193.619,-33.8869 196.679,-27.5914"/>
</g>
</g>
</svg>
