<?xml version="1.0" encoding="UTF-8" standalone="no"?>
<!DOCTYPE svg PUBLIC "-//W3C//DTD SVG 1.1//EN"
 "http://www.w3.org/Graphics/SVG/1.1/DTD/svg11.dtd">
<!-- Generated by graphviz version 2.38.0 (20140413.2041)
 -->
<!-- Title: %3 Pages: 1 -->
<svg width="375pt" height="476pt"
 viewBox="0.00 0.00 375.21 476.00" xmlns="http://www.w3.org/2000/svg" xmlns:xlink="http://www.w3.org/1999/xlink">
<g id="graph0" class="graph" transform="scale(1 1) rotate(0) translate(4 472)">
<title>%3</title>
<polygon fill="white" stroke="none" points="-4,4 -4,-472 371.209,-472 371.209,4 -4,4"/>
<!-- 03e81337&#45;0322&#45;4572&#45;b1fa&#45;9f36b883dce1 -->
<g id="node1" class="node"><title>03e81337&#45;0322&#45;4572&#45;b1fa&#45;9f36b883dce1</title>
<polygon fill="cornsilk" stroke="black" points="35.7034,-432 81.8963,-432 98.3474,-468 19.2523,-468 35.7034,-432"/>
<text text-anchor="middle" x="58.7999" y="-446.3" font-family="Helvetica,sans-Serif" font-size="14.00">edit</text>
</g>
<!-- fbb956b6&#45;2935&#45;47fc&#45;9182&#45;1b9063a1da4f -->
<g id="node2" class="node"><title>fbb956b6&#45;2935&#45;47fc&#45;9182&#45;1b9063a1da4f</title>
<polygon fill="cornsilk" stroke="black" points="108.3,-396 9.29987,-396 9.29987,-360 108.3,-360 108.3,-396"/>
<text text-anchor="middle" x="58.7999" y="-374.3" font-family="Helvetica,sans-Serif" font-size="14.00">github jboss</text>
</g>
<!-- 03e81337&#45;0322&#45;4572&#45;b1fa&#45;9f36b883dce1&#45;&gt;fbb956b6&#45;2935&#45;47fc&#45;9182&#45;1b9063a1da4f -->
<g id="edge1" class="edge"><title>03e81337&#45;0322&#45;4572&#45;b1fa&#45;9f36b883dce1&#45;&gt;fbb956b6&#45;2935&#45;47fc&#45;9182&#45;1b9063a1da4f</title>
<path fill="none" stroke="black" d="M58.7999,-431.697C58.7999,-423.983 58.7999,-414.712 58.7999,-406.112"/>
<polygon fill="none" stroke="black" points="62.3,-406.104 58.7999,-396.104 55.3,-406.104 62.3,-406.104"/>
</g>
<!-- 1b73eab0&#45;ba0c&#45;42db&#45;8fa4&#45;560f9a306fee -->
<g id="node3" class="node"><title>1b73eab0&#45;ba0c&#45;42db&#45;8fa4&#45;560f9a306fee</title>
<polygon fill="cornsilk" stroke="black" points="129.4,-324 26.6355,-324 0.199519,-288 102.964,-288 129.4,-324"/>
<text text-anchor="middle" x="64.7999" y="-302.3" font-family="Helvetica,sans-Serif" font-size="14.00">sources</text>
</g>
<!-- fbb956b6&#45;2935&#45;47fc&#45;9182&#45;1b9063a1da4f&#45;&gt;1b73eab0&#45;ba0c&#45;42db&#45;8fa4&#45;560f9a306fee -->
<g id="edge4" class="edge"><title>fbb956b6&#45;2935&#45;47fc&#45;9182&#45;1b9063a1da4f&#45;&gt;1b73eab0&#45;ba0c&#45;42db&#45;8fa4&#45;560f9a306fee</title>
<path fill="none" stroke="black" d="M60.283,-359.697C60.9442,-351.983 61.7388,-342.712 62.4759,-334.112"/>
<polygon fill="none" stroke="black" points="65.9669,-334.367 63.3338,-324.104 58.9925,-333.769 65.9669,-334.367"/>
</g>
<!-- 69b8f2a0&#45;0c33&#45;40c6&#45;a315&#45;ef250998c3ba -->
<g id="node4" class="node"><title>69b8f2a0&#45;0c33&#45;40c6&#45;a315&#45;ef250998c3ba</title>
<polygon fill="cornsilk" stroke="black" points="196.8,-252 110.8,-252 106.8,-248 106.8,-216 192.8,-216 196.8,-220 196.8,-252"/>
<polyline fill="none" stroke="black" points="192.8,-248 106.8,-248 "/>
<polyline fill="none" stroke="black" points="192.8,-248 192.8,-216 "/>
<polyline fill="none" stroke="black" points="192.8,-248 196.8,-252 "/>
<text text-anchor="middle" x="151.8" y="-230.3" font-family="Helvetica,sans-Serif" font-size="14.00">jenkins job</text>
</g>
<!-- 1b73eab0&#45;ba0c&#45;42db&#45;8fa4&#45;560f9a306fee&#45;&gt;69b8f2a0&#45;0c33&#45;40c6&#45;a315&#45;ef250998c3ba -->
<g id="edge2" class="edge"><title>1b73eab0&#45;ba0c&#45;42db&#45;8fa4&#45;560f9a306fee&#45;&gt;69b8f2a0&#45;0c33&#45;40c6&#45;a315&#45;ef250998c3ba</title>
<path fill="none" stroke="black" d="M86.3055,-287.697C97.2624,-278.881 110.746,-268.032 122.625,-258.474"/>
<polygon fill="none" stroke="black" points="124.944,-261.1 130.542,-252.104 120.556,-255.646 124.944,-261.1"/>
</g>
<!-- db1d4b40&#45;c734&#45;46cb&#45;ad63&#45;ec24d8d8a668 -->
<g id="node7" class="node"><title>db1d4b40&#45;c734&#45;46cb&#45;ad63&#45;ec24d8d8a668</title>
<polygon fill="cornsilk" stroke="black" points="236.423,-180 101.806,-180 67.1763,-144 201.793,-144 236.423,-180"/>
<text text-anchor="middle" x="151.8" y="-158.3" font-family="Helvetica,sans-Serif" font-size="14.00">config files</text>
</g>
<!-- 69b8f2a0&#45;0c33&#45;40c6&#45;a315&#45;ef250998c3ba&#45;&gt;db1d4b40&#45;c734&#45;46cb&#45;ad63&#45;ec24d8d8a668 -->
<g id="edge5" class="edge"><title>69b8f2a0&#45;0c33&#45;40c6&#45;a315&#45;ef250998c3ba&#45;&gt;db1d4b40&#45;c734&#45;46cb&#45;ad63&#45;ec24d8d8a668</title>
<path fill="none" stroke="black" d="M151.8,-215.697C151.8,-207.983 151.8,-198.712 151.8,-190.112"/>
<polygon fill="none" stroke="black" points="155.3,-190.104 151.8,-180.104 148.3,-190.104 155.3,-190.104"/>
</g>
<!-- 28bc43fb&#45;53c4&#45;48c8&#45;8ef8&#45;c2340bd5370e -->
<g id="node5" class="node"><title>28bc43fb&#45;53c4&#45;48c8&#45;8ef8&#45;c2340bd5370e</title>
<ellipse fill="cornsilk" stroke="black" cx="151.8" cy="-18" rx="27.0966" ry="18"/>
<text text-anchor="middle" x="151.8" y="-14.3" font-family="Helvetica,sans-Serif" font-size="14.00">end</text>
</g>
<!-- 8b5490dc&#45;7355&#45;4214&#45;8653&#45;1674f2fde8c2 -->
<g id="node6" class="node"><title>8b5490dc&#45;7355&#45;4214&#45;8653&#45;1674f2fde8c2</title>
<polygon fill="cornsilk" stroke="black" points="193.117,-288 286.482,-288 319.733,-324 159.866,-324 193.117,-288"/>
<text text-anchor="middle" x="239.8" y="-302.3" font-family="Helvetica,sans-Serif" font-size="14.00">start build</text>
</g>
<!-- 8b5490dc&#45;7355&#45;4214&#45;8653&#45;1674f2fde8c2&#45;&gt;69b8f2a0&#45;0c33&#45;40c6&#45;a315&#45;ef250998c3ba -->
<g id="edge3" class="edge"><title>8b5490dc&#45;7355&#45;4214&#45;8653&#45;1674f2fde8c2&#45;&gt;69b8f2a0&#45;0c33&#45;40c6&#45;a315&#45;ef250998c3ba</title>
<path fill="none" stroke="black" d="M218.047,-287.697C206.964,-278.881 193.326,-268.032 181.31,-258.474"/>
<polygon fill="none" stroke="black" points="183.307,-255.59 173.302,-252.104 178.95,-261.069 183.307,-255.59"/>
</g>
<!-- f0fcc765&#45;b5cb&#45;4b42&#45;81de&#45;ccd4e2daf387 -->
<g id="node9" class="node"><title>f0fcc765&#45;b5cb&#45;4b42&#45;81de&#45;ccd4e2daf387</title>
<polygon fill="cornsilk" stroke="black" points="217.8,-108 85.7999,-108 85.7999,-72 217.8,-72 217.8,-108"/>
<text text-anchor="middle" x="151.8" y="-86.3" font-family="Helvetica,sans-Serif" font-size="14.00">target jboss host</text>
</g>
<!-- db1d4b40&#45;c734&#45;46cb&#45;ad63&#45;ec24d8d8a668&#45;&gt;f0fcc765&#45;b5cb&#45;4b42&#45;81de&#45;ccd4e2daf387 -->
<g id="edge7" class="edge"><title>db1d4b40&#45;c734&#45;46cb&#45;ad63&#45;ec24d8d8a668&#45;&gt;f0fcc765&#45;b5cb&#45;4b42&#45;81de&#45;ccd4e2daf387</title>
<path fill="none" stroke="black" d="M151.8,-143.697C151.8,-135.983 151.8,-126.712 151.8,-118.112"/>
<polygon fill="none" stroke="black" points="155.3,-118.104 151.8,-108.104 148.3,-118.104 155.3,-118.104"/>
</g>
<!-- ae25943d&#45;442d&#45;4b91&#45;97ea&#45;6cc8fbd3211b -->
<g id="node8" class="node"><title>ae25943d&#45;442d&#45;4b91&#45;97ea&#45;6cc8fbd3211b</title>
<polygon fill="cornsilk" stroke="black" points="176.531,-360 317.068,-360 367.119,-396 126.481,-396 176.531,-360"/>
<text text-anchor="middle" x="246.8" y="-374.3" font-family="Helvetica,sans-Serif" font-size="14.00">servers, restart?</text>
</g>
<!-- ae25943d&#45;442d&#45;4b91&#45;97ea&#45;6cc8fbd3211b&#45;&gt;8b5490dc&#45;7355&#45;4214&#45;8653&#45;1674f2fde8c2 -->
<g id="edge6" class="edge"><title>ae25943d&#45;442d&#45;4b91&#45;97ea&#45;6cc8fbd3211b&#45;&gt;8b5490dc&#45;7355&#45;4214&#45;8653&#45;1674f2fde8c2</title>
<path fill="none" stroke="black" d="M245.07,-359.697C244.298,-351.983 243.371,-342.712 242.511,-334.112"/>
<polygon fill="none" stroke="black" points="245.988,-333.706 241.51,-324.104 239.023,-334.403 245.988,-333.706"/>
</g>
<!-- f0fcc765&#45;b5cb&#45;4b42&#45;81de&#45;ccd4e2daf387&#45;&gt;28bc43fb&#45;53c4&#45;48c8&#45;8ef8&#45;c2340bd5370e -->
<g id="edge8" class="edge"><title>f0fcc765&#45;b5cb&#45;4b42&#45;81de&#45;ccd4e2daf387&#45;&gt;28bc43fb&#45;53c4&#45;48c8&#45;8ef8&#45;c2340bd5370e</title>
<path fill="none" stroke="black" d="M151.8,-71.6966C151.8,-63.9827 151.8,-54.7125 151.8,-46.1124"/>
<polygon fill="none" stroke="black" points="155.3,-46.1043 151.8,-36.1043 148.3,-46.1044 155.3,-46.1043"/>
</g>
</g>
</svg>
