<?xml version="1.0" encoding="UTF-8" standalone="no"?>
<!DOCTYPE svg PUBLIC "-//W3C//DTD SVG 1.1//EN"
 "http://www.w3.org/Graphics/SVG/1.1/DTD/svg11.dtd">
<!-- Generated by graphviz version 2.43.0 (0)
 -->
<!-- Title: %3 Pages: 1 -->
<svg width="378pt" height="476pt"
 viewBox="0.00 0.00 378.12 476.00" xmlns="http://www.w3.org/2000/svg" xmlns:xlink="http://www.w3.org/1999/xlink">
<g id="graph0" class="graph" transform="scale(1 1) rotate(0) translate(4 472)">
<title>%3</title>
<polygon fill="white" stroke="transparent" points="-4,4 -4,-472 374.12,-472 374.12,4 -4,4"/>
<!-- bf794bd6&#45;32c8&#45;447c&#45;b535&#45;4e8ea3f58d43 -->
<g id="node1" class="node">
<title>bf794bd6&#45;32c8&#45;447c&#45;b535&#45;4e8ea3f58d43</title>
<polygon fill="cornsilk" stroke="black" points="302.25,-180 162.52,-180 126.57,-144 266.3,-144 302.25,-180"/>
<text text-anchor="middle" x="214.41" y="-158.3" font-family="Helvetica,sans-Serif" font-size="14.00">config files</text>
</g>
<!-- bfa21361&#45;f50a&#45;43a3&#45;85d8&#45;ddfbb1d9858e -->
<g id="node2" class="node">
<title>bfa21361&#45;f50a&#45;43a3&#45;85d8&#45;ddfbb1d9858e</title>
<polygon fill="cornsilk" stroke="black" points="280.91,-108 147.91,-108 147.91,-72 280.91,-72 280.91,-108"/>
<text text-anchor="middle" x="214.41" y="-86.3" font-family="Helvetica,sans-Serif" font-size="14.00">target jboss host</text>
</g>
<!-- bf794bd6&#45;32c8&#45;447c&#45;b535&#45;4e8ea3f58d43&#45;&gt;bfa21361&#45;f50a&#45;43a3&#45;85d8&#45;ddfbb1d9858e -->
<g id="edge1" class="edge">
<title>bf794bd6&#45;32c8&#45;447c&#45;b535&#45;4e8ea3f58d43&#45;&gt;bfa21361&#45;f50a&#45;43a3&#45;85d8&#45;ddfbb1d9858e</title>
<path fill="none" stroke="black" d="M214.41,-143.7C214.41,-135.98 214.41,-126.71 214.41,-118.11"/>
<polygon fill="none" stroke="black" points="217.91,-118.1 214.41,-108.1 210.91,-118.1 217.91,-118.1"/>
</g>
<!-- 6ad5e9cc&#45;594b&#45;46af&#45;a428&#45;f4659b28a5e3 -->
<g id="node5" class="node">
<title>6ad5e9cc&#45;594b&#45;46af&#45;a428&#45;f4659b28a5e3</title>
<ellipse fill="cornsilk" stroke="black" cx="214.41" cy="-18" rx="27.9" ry="18"/>
<text text-anchor="middle" x="214.41" y="-14.3" font-family="Helvetica,sans-Serif" font-size="14.00">end</text>
</g>
<!-- bfa21361&#45;f50a&#45;43a3&#45;85d8&#45;ddfbb1d9858e&#45;&gt;6ad5e9cc&#45;594b&#45;46af&#45;a428&#45;f4659b28a5e3 -->
<g id="edge3" class="edge">
<title>bfa21361&#45;f50a&#45;43a3&#45;85d8&#45;ddfbb1d9858e&#45;&gt;6ad5e9cc&#45;594b&#45;46af&#45;a428&#45;f4659b28a5e3</title>
<path fill="none" stroke="black" d="M214.41,-71.7C214.41,-63.98 214.41,-54.71 214.41,-46.11"/>
<polygon fill="none" stroke="black" points="217.91,-46.1 214.41,-36.1 210.91,-46.1 217.91,-46.1"/>
</g>
<!-- 8e8fc67e&#45;fbc0&#45;438e&#45;9570&#45;8feadd170355 -->
<g id="node3" class="node">
<title>8e8fc67e&#45;fbc0&#45;438e&#45;9570&#45;8feadd170355</title>
<polygon fill="cornsilk" stroke="black" points="286.31,-432 332.51,-432 348.96,-468 269.86,-468 286.31,-432"/>
<text text-anchor="middle" x="309.41" y="-446.3" font-family="Helvetica,sans-Serif" font-size="14.00">edit</text>
</g>
<!-- 7919a547&#45;cda6&#45;4620&#45;b73e&#45;0e7a47e04f10 -->
<g id="node4" class="node">
<title>7919a547&#45;cda6&#45;4620&#45;b73e&#45;0e7a47e04f10</title>
<path fill="cornsilk" stroke="black" d="M360.41,-392.73C360.41,-394.53 337.55,-396 309.41,-396 281.27,-396 258.41,-394.53 258.41,-392.73 258.41,-392.73 258.41,-363.27 258.41,-363.27 258.41,-361.47 281.27,-360 309.41,-360 337.55,-360 360.41,-361.47 360.41,-363.27 360.41,-363.27 360.41,-392.73 360.41,-392.73"/>
<path fill="none" stroke="black" d="M360.41,-392.73C360.41,-390.92 337.55,-389.45 309.41,-389.45 281.27,-389.45 258.41,-390.92 258.41,-392.73"/>
<text text-anchor="middle" x="309.41" y="-374.3" font-family="Helvetica,sans-Serif" font-size="14.00">github jboss</text>
</g>
<!-- 8e8fc67e&#45;fbc0&#45;438e&#45;9570&#45;8feadd170355&#45;&gt;7919a547&#45;cda6&#45;4620&#45;b73e&#45;0e7a47e04f10 -->
<g id="edge2" class="edge">
<title>8e8fc67e&#45;fbc0&#45;438e&#45;9570&#45;8feadd170355&#45;&gt;7919a547&#45;cda6&#45;4620&#45;b73e&#45;0e7a47e04f10</title>
<path fill="none" stroke="black" d="M309.41,-431.7C309.41,-423.98 309.41,-414.71 309.41,-406.11"/>
<polygon fill="none" stroke="black" points="312.91,-406.1 309.41,-396.1 305.91,-406.1 312.91,-406.1"/>
</g>
<!-- 5364c557&#45;4ec8&#45;4365&#45;9d2c&#45;570fd72f1514 -->
<g id="node8" class="node">
<title>5364c557&#45;4ec8&#45;4365&#45;9d2c&#45;570fd72f1514</title>
<polygon fill="cornsilk" stroke="black" points="370.32,-324 263.88,-324 236.5,-288 342.94,-288 370.32,-324"/>
<text text-anchor="middle" x="303.41" y="-302.3" font-family="Helvetica,sans-Serif" font-size="14.00">sources</text>
</g>
<!-- 7919a547&#45;cda6&#45;4620&#45;b73e&#45;0e7a47e04f10&#45;&gt;5364c557&#45;4ec8&#45;4365&#45;9d2c&#45;570fd72f1514 -->
<g id="edge8" class="edge">
<title>7919a547&#45;cda6&#45;4620&#45;b73e&#45;0e7a47e04f10&#45;&gt;5364c557&#45;4ec8&#45;4365&#45;9d2c&#45;570fd72f1514</title>
<path fill="none" stroke="black" d="M307.93,-359.7C307.27,-351.98 306.47,-342.71 305.73,-334.11"/>
<polygon fill="none" stroke="black" points="309.22,-333.77 304.88,-324.1 302.24,-334.37 309.22,-333.77"/>
</g>
<!-- ba1b07f7&#45;66d8&#45;46c7&#45;b159&#45;0325ce82998e -->
<g id="node6" class="node">
<title>ba1b07f7&#45;66d8&#45;46c7&#45;b159&#45;0325ce82998e</title>
<polygon fill="cornsilk" stroke="black" points="50.14,-360 190.68,-360 240.73,-396 0.09,-396 50.14,-360"/>
<text text-anchor="middle" x="120.41" y="-374.3" font-family="Helvetica,sans-Serif" font-size="14.00">servers, restart?</text>
</g>
<!-- 294ebaaa&#45;9a28&#45;4ba1&#45;aeca&#45;2454af1cfffe -->
<g id="node7" class="node">
<title>294ebaaa&#45;9a28&#45;4ba1&#45;aeca&#45;2454af1cfffe</title>
<polygon fill="cornsilk" stroke="black" points="84.24,-288 178.58,-288 212.18,-324 50.64,-324 84.24,-288"/>
<text text-anchor="middle" x="131.41" y="-302.3" font-family="Helvetica,sans-Serif" font-size="14.00">start build</text>
</g>
<!-- ba1b07f7&#45;66d8&#45;46c7&#45;b159&#45;0325ce82998e&#45;&gt;294ebaaa&#45;9a28&#45;4ba1&#45;aeca&#45;2454af1cfffe -->
<g id="edge4" class="edge">
<title>ba1b07f7&#45;66d8&#45;46c7&#45;b159&#45;0325ce82998e&#45;&gt;294ebaaa&#45;9a28&#45;4ba1&#45;aeca&#45;2454af1cfffe</title>
<path fill="none" stroke="black" d="M123.13,-359.7C124.34,-351.98 125.8,-342.71 127.15,-334.11"/>
<polygon fill="none" stroke="black" points="130.63,-334.53 128.72,-324.1 123.71,-333.44 130.63,-334.53"/>
</g>
<!-- 83235df2&#45;3af9&#45;4737&#45;9989&#45;623340978d23 -->
<g id="node9" class="node">
<title>83235df2&#45;3af9&#45;4737&#45;9989&#45;623340978d23</title>
<polygon fill="cornsilk" stroke="black" points="260.41,-252 172.41,-252 168.41,-248 168.41,-216 256.41,-216 260.41,-220 260.41,-252"/>
<polyline fill="none" stroke="black" points="256.41,-248 168.41,-248 "/>
<polyline fill="none" stroke="black" points="256.41,-248 256.41,-216 "/>
<polyline fill="none" stroke="black" points="256.41,-248 260.41,-252 "/>
<text text-anchor="middle" x="214.41" y="-230.3" font-family="Helvetica,sans-Serif" font-size="14.00">jenkins job</text>
</g>
<!-- 294ebaaa&#45;9a28&#45;4ba1&#45;aeca&#45;2454af1cfffe&#45;&gt;83235df2&#45;3af9&#45;4737&#45;9989&#45;623340978d23 -->
<g id="edge7" class="edge">
<title>294ebaaa&#45;9a28&#45;4ba1&#45;aeca&#45;2454af1cfffe&#45;&gt;83235df2&#45;3af9&#45;4737&#45;9989&#45;623340978d23</title>
<path fill="none" stroke="black" d="M151.93,-287.7C162.28,-278.97 175,-268.24 186.25,-258.75"/>
<polygon fill="none" stroke="black" points="188.74,-261.23 194.13,-252.1 184.23,-255.88 188.74,-261.23"/>
</g>
<!-- 5364c557&#45;4ec8&#45;4365&#45;9d2c&#45;570fd72f1514&#45;&gt;83235df2&#45;3af9&#45;4737&#45;9989&#45;623340978d23 -->
<g id="edge5" class="edge">
<title>5364c557&#45;4ec8&#45;4365&#45;9d2c&#45;570fd72f1514&#45;&gt;83235df2&#45;3af9&#45;4737&#45;9989&#45;623340978d23</title>
<path fill="none" stroke="black" d="M281.41,-287.7C270.2,-278.88 256.41,-268.03 244.26,-258.47"/>
<polygon fill="none" stroke="black" points="246.18,-255.54 236.16,-252.1 241.85,-261.04 246.18,-255.54"/>
</g>
<!-- 83235df2&#45;3af9&#45;4737&#45;9989&#45;623340978d23&#45;&gt;bf794bd6&#45;32c8&#45;447c&#45;b535&#45;4e8ea3f58d43 -->
<g id="edge6" class="edge">
<title>83235df2&#45;3af9&#45;4737&#45;9989&#45;623340978d23&#45;&gt;bf794bd6&#45;32c8&#45;447c&#45;b535&#45;4e8ea3f58d43</title>
<path fill="none" stroke="black" d="M214.41,-215.7C214.41,-207.98 214.41,-198.71 214.41,-190.11"/>
<polygon fill="none" stroke="black" points="217.91,-190.1 214.41,-180.1 210.91,-190.1 217.91,-190.1"/>
</g>
</g>
</svg>
