<?xml version="1.0" encoding="UTF-8" standalone="no"?>
<!DOCTYPE svg PUBLIC "-//W3C//DTD SVG 1.1//EN"
 "http://www.w3.org/Graphics/SVG/1.1/DTD/svg11.dtd">
<!-- Generated by graphviz version 2.38.0 (20140413.2041)
 -->
<!-- Title: %3 Pages: 1 -->
<svg width="375pt" height="476pt"
 viewBox="0.00 0.00 375.21 476.00" xmlns="http://www.w3.org/2000/svg" xmlns:xlink="http://www.w3.org/1999/xlink">
<g id="graph0" class="graph" transform="scale(1 1) rotate(0) translate(4 472)">
<title>%3</title>
<polygon fill="white" stroke="none" points="-4,4 -4,-472 371.209,-472 371.209,4 -4,4"/>
<!-- 49761519&#45;3276&#45;4802&#45;97c8&#45;eef307b239dc -->
<g id="node1" class="node"><title>49761519&#45;3276&#45;4802&#45;97c8&#45;eef307b239dc</title>
<polygon fill="cornsilk" stroke="black" points="35.7034,-432 81.8963,-432 98.3474,-468 19.2523,-468 35.7034,-432"/>
<text text-anchor="middle" x="58.7999" y="-446.3" font-family="Helvetica,sans-Serif" font-size="14.00">edit</text>
</g>
<!-- dd645636&#45;80d5&#45;47a3&#45;a7a5&#45;f8248826fa5b -->
<g id="node2" class="node"><title>dd645636&#45;80d5&#45;47a3&#45;a7a5&#45;f8248826fa5b</title>
<polygon fill="cornsilk" stroke="black" points="108.3,-396 9.29987,-396 9.29987,-360 108.3,-360 108.3,-396"/>
<text text-anchor="middle" x="58.7999" y="-374.3" font-family="Helvetica,sans-Serif" font-size="14.00">github jboss</text>
</g>
<!-- 49761519&#45;3276&#45;4802&#45;97c8&#45;eef307b239dc&#45;&gt;dd645636&#45;80d5&#45;47a3&#45;a7a5&#45;f8248826fa5b -->
<g id="edge1" class="edge"><title>49761519&#45;3276&#45;4802&#45;97c8&#45;eef307b239dc&#45;&gt;dd645636&#45;80d5&#45;47a3&#45;a7a5&#45;f8248826fa5b</title>
<path fill="none" stroke="black" d="M58.7999,-431.697C58.7999,-423.983 58.7999,-414.712 58.7999,-406.112"/>
<polygon fill="none" stroke="black" points="62.3,-406.104 58.7999,-396.104 55.3,-406.104 62.3,-406.104"/>
</g>
<!-- 4e18930d&#45;9210&#45;4e27&#45;9e0c&#45;4b9f2ff17b3a -->
<g id="node3" class="node"><title>4e18930d&#45;9210&#45;4e27&#45;9e0c&#45;4b9f2ff17b3a</title>
<polygon fill="cornsilk" stroke="black" points="129.4,-324 26.6355,-324 0.199519,-288 102.964,-288 129.4,-324"/>
<text text-anchor="middle" x="64.7999" y="-302.3" font-family="Helvetica,sans-Serif" font-size="14.00">sources</text>
</g>
<!-- dd645636&#45;80d5&#45;47a3&#45;a7a5&#45;f8248826fa5b&#45;&gt;4e18930d&#45;9210&#45;4e27&#45;9e0c&#45;4b9f2ff17b3a -->
<g id="edge4" class="edge"><title>dd645636&#45;80d5&#45;47a3&#45;a7a5&#45;f8248826fa5b&#45;&gt;4e18930d&#45;9210&#45;4e27&#45;9e0c&#45;4b9f2ff17b3a</title>
<path fill="none" stroke="black" d="M60.283,-359.697C60.9442,-351.983 61.7388,-342.712 62.4759,-334.112"/>
<polygon fill="none" stroke="black" points="65.9669,-334.367 63.3338,-324.104 58.9925,-333.769 65.9669,-334.367"/>
</g>
<!-- b71401ca&#45;2fce&#45;444d&#45;b57a&#45;7c5192e89ba4 -->
<g id="node4" class="node"><title>b71401ca&#45;2fce&#45;444d&#45;b57a&#45;7c5192e89ba4</title>
<polygon fill="cornsilk" stroke="black" points="196.8,-252 110.8,-252 106.8,-248 106.8,-216 192.8,-216 196.8,-220 196.8,-252"/>
<polyline fill="none" stroke="black" points="192.8,-248 106.8,-248 "/>
<polyline fill="none" stroke="black" points="192.8,-248 192.8,-216 "/>
<polyline fill="none" stroke="black" points="192.8,-248 196.8,-252 "/>
<text text-anchor="middle" x="151.8" y="-230.3" font-family="Helvetica,sans-Serif" font-size="14.00">jenkins job</text>
</g>
<!-- 4e18930d&#45;9210&#45;4e27&#45;9e0c&#45;4b9f2ff17b3a&#45;&gt;b71401ca&#45;2fce&#45;444d&#45;b57a&#45;7c5192e89ba4 -->
<g id="edge2" class="edge"><title>4e18930d&#45;9210&#45;4e27&#45;9e0c&#45;4b9f2ff17b3a&#45;&gt;b71401ca&#45;2fce&#45;444d&#45;b57a&#45;7c5192e89ba4</title>
<path fill="none" stroke="black" d="M86.3055,-287.697C97.2624,-278.881 110.746,-268.032 122.625,-258.474"/>
<polygon fill="none" stroke="black" points="124.944,-261.1 130.542,-252.104 120.556,-255.646 124.944,-261.1"/>
</g>
<!-- 6435cbc5&#45;d942&#45;4b6c&#45;a148&#45;5e4ac95a9a19 -->
<g id="node7" class="node"><title>6435cbc5&#45;d942&#45;4b6c&#45;a148&#45;5e4ac95a9a19</title>
<polygon fill="cornsilk" stroke="black" points="236.423,-180 101.806,-180 67.1763,-144 201.793,-144 236.423,-180"/>
<text text-anchor="middle" x="151.8" y="-158.3" font-family="Helvetica,sans-Serif" font-size="14.00">config files</text>
</g>
<!-- b71401ca&#45;2fce&#45;444d&#45;b57a&#45;7c5192e89ba4&#45;&gt;6435cbc5&#45;d942&#45;4b6c&#45;a148&#45;5e4ac95a9a19 -->
<g id="edge5" class="edge"><title>b71401ca&#45;2fce&#45;444d&#45;b57a&#45;7c5192e89ba4&#45;&gt;6435cbc5&#45;d942&#45;4b6c&#45;a148&#45;5e4ac95a9a19</title>
<path fill="none" stroke="black" d="M151.8,-215.697C151.8,-207.983 151.8,-198.712 151.8,-190.112"/>
<polygon fill="none" stroke="black" points="155.3,-190.104 151.8,-180.104 148.3,-190.104 155.3,-190.104"/>
</g>
<!-- 74e2862e&#45;4dd2&#45;42d2&#45;b411&#45;454952c9a156 -->
<g id="node5" class="node"><title>74e2862e&#45;4dd2&#45;42d2&#45;b411&#45;454952c9a156</title>
<ellipse fill="cornsilk" stroke="black" cx="151.8" cy="-18" rx="27.0966" ry="18"/>
<text text-anchor="middle" x="151.8" y="-14.3" font-family="Helvetica,sans-Serif" font-size="14.00">end</text>
</g>
<!-- d35fe7c8&#45;a403&#45;47ee&#45;b1a0&#45;5b7d823431a2 -->
<g id="node6" class="node"><title>d35fe7c8&#45;a403&#45;47ee&#45;b1a0&#45;5b7d823431a2</title>
<polygon fill="cornsilk" stroke="black" points="193.117,-288 286.482,-288 319.733,-324 159.866,-324 193.117,-288"/>
<text text-anchor="middle" x="239.8" y="-302.3" font-family="Helvetica,sans-Serif" font-size="14.00">start build</text>
</g>
<!-- d35fe7c8&#45;a403&#45;47ee&#45;b1a0&#45;5b7d823431a2&#45;&gt;b71401ca&#45;2fce&#45;444d&#45;b57a&#45;7c5192e89ba4 -->
<g id="edge3" class="edge"><title>d35fe7c8&#45;a403&#45;47ee&#45;b1a0&#45;5b7d823431a2&#45;&gt;b71401ca&#45;2fce&#45;444d&#45;b57a&#45;7c5192e89ba4</title>
<path fill="none" stroke="black" d="M218.047,-287.697C206.964,-278.881 193.326,-268.032 181.31,-258.474"/>
<polygon fill="none" stroke="black" points="183.307,-255.59 173.302,-252.104 178.95,-261.069 183.307,-255.59"/>
</g>
<!-- 667b4b42&#45;80f8&#45;4707&#45;9fb1&#45;971159fe3d02 -->
<g id="node9" class="node"><title>667b4b42&#45;80f8&#45;4707&#45;9fb1&#45;971159fe3d02</title>
<polygon fill="cornsilk" stroke="black" points="217.8,-108 85.7999,-108 85.7999,-72 217.8,-72 217.8,-108"/>
<text text-anchor="middle" x="151.8" y="-86.3" font-family="Helvetica,sans-Serif" font-size="14.00">target jboss host</text>
</g>
<!-- 6435cbc5&#45;d942&#45;4b6c&#45;a148&#45;5e4ac95a9a19&#45;&gt;667b4b42&#45;80f8&#45;4707&#45;9fb1&#45;971159fe3d02 -->
<g id="edge7" class="edge"><title>6435cbc5&#45;d942&#45;4b6c&#45;a148&#45;5e4ac95a9a19&#45;&gt;667b4b42&#45;80f8&#45;4707&#45;9fb1&#45;971159fe3d02</title>
<path fill="none" stroke="black" d="M151.8,-143.697C151.8,-135.983 151.8,-126.712 151.8,-118.112"/>
<polygon fill="none" stroke="black" points="155.3,-118.104 151.8,-108.104 148.3,-118.104 155.3,-118.104"/>
</g>
<!-- 90fe0c69&#45;7a63&#45;4a30&#45;95a7&#45;e5bd251de65f -->
<g id="node8" class="node"><title>90fe0c69&#45;7a63&#45;4a30&#45;95a7&#45;e5bd251de65f</title>
<polygon fill="cornsilk" stroke="black" points="176.531,-360 317.068,-360 367.119,-396 126.481,-396 176.531,-360"/>
<text text-anchor="middle" x="246.8" y="-374.3" font-family="Helvetica,sans-Serif" font-size="14.00">servers, restart?</text>
</g>
<!-- 90fe0c69&#45;7a63&#45;4a30&#45;95a7&#45;e5bd251de65f&#45;&gt;d35fe7c8&#45;a403&#45;47ee&#45;b1a0&#45;5b7d823431a2 -->
<g id="edge6" class="edge"><title>90fe0c69&#45;7a63&#45;4a30&#45;95a7&#45;e5bd251de65f&#45;&gt;d35fe7c8&#45;a403&#45;47ee&#45;b1a0&#45;5b7d823431a2</title>
<path fill="none" stroke="black" d="M245.07,-359.697C244.298,-351.983 243.371,-342.712 242.511,-334.112"/>
<polygon fill="none" stroke="black" points="245.988,-333.706 241.51,-324.104 239.023,-334.403 245.988,-333.706"/>
</g>
<!-- 667b4b42&#45;80f8&#45;4707&#45;9fb1&#45;971159fe3d02&#45;&gt;74e2862e&#45;4dd2&#45;42d2&#45;b411&#45;454952c9a156 -->
<g id="edge8" class="edge"><title>667b4b42&#45;80f8&#45;4707&#45;9fb1&#45;971159fe3d02&#45;&gt;74e2862e&#45;4dd2&#45;42d2&#45;b411&#45;454952c9a156</title>
<path fill="none" stroke="black" d="M151.8,-71.6966C151.8,-63.9827 151.8,-54.7125 151.8,-46.1124"/>
<polygon fill="none" stroke="black" points="155.3,-46.1043 151.8,-36.1043 148.3,-46.1044 155.3,-46.1043"/>
</g>
</g>
</svg>
