<?xml version="1.0" encoding="UTF-8" standalone="no"?>
<!DOCTYPE svg PUBLIC "-//W3C//DTD SVG 1.1//EN"
 "http://www.w3.org/Graphics/SVG/1.1/DTD/svg11.dtd">
<!-- Generated by graphviz version 2.38.0 (20140413.2041)
 -->
<!-- Title: %3 Pages: 1 -->
<svg width="375pt" height="476pt"
 viewBox="0.00 0.00 375.21 476.00" xmlns="http://www.w3.org/2000/svg" xmlns:xlink="http://www.w3.org/1999/xlink">
<g id="graph0" class="graph" transform="scale(1 1) rotate(0) translate(4 472)">
<title>%3</title>
<polygon fill="white" stroke="none" points="-4,4 -4,-472 371.209,-472 371.209,4 -4,4"/>
<!-- fecc91dd&#45;21c1&#45;4355&#45;82b2&#45;d0471c63b55f -->
<g id="node1" class="node"><title>fecc91dd&#45;21c1&#45;4355&#45;82b2&#45;d0471c63b55f</title>
<polygon fill="cornsilk" stroke="black" points="35.7034,-432 81.8963,-432 98.3474,-468 19.2523,-468 35.7034,-432"/>
<text text-anchor="middle" x="58.7999" y="-446.3" font-family="Helvetica,sans-Serif" font-size="14.00">edit</text>
</g>
<!-- 8574182a&#45;d451&#45;45d5&#45;88fa&#45;2c14f15d6bd6 -->
<g id="node2" class="node"><title>8574182a&#45;d451&#45;45d5&#45;88fa&#45;2c14f15d6bd6</title>
<polygon fill="cornsilk" stroke="black" points="108.3,-396 9.29987,-396 9.29987,-360 108.3,-360 108.3,-396"/>
<text text-anchor="middle" x="58.7999" y="-374.3" font-family="Helvetica,sans-Serif" font-size="14.00">github jboss</text>
</g>
<!-- fecc91dd&#45;21c1&#45;4355&#45;82b2&#45;d0471c63b55f&#45;&gt;8574182a&#45;d451&#45;45d5&#45;88fa&#45;2c14f15d6bd6 -->
<g id="edge1" class="edge"><title>fecc91dd&#45;21c1&#45;4355&#45;82b2&#45;d0471c63b55f&#45;&gt;8574182a&#45;d451&#45;45d5&#45;88fa&#45;2c14f15d6bd6</title>
<path fill="none" stroke="black" d="M58.7999,-431.697C58.7999,-423.983 58.7999,-414.712 58.7999,-406.112"/>
<polygon fill="none" stroke="black" points="62.3,-406.104 58.7999,-396.104 55.3,-406.104 62.3,-406.104"/>
</g>
<!-- b957970a&#45;579f&#45;43cb&#45;9aea&#45;25b25381fb9f -->
<g id="node3" class="node"><title>b957970a&#45;579f&#45;43cb&#45;9aea&#45;25b25381fb9f</title>
<polygon fill="cornsilk" stroke="black" points="129.4,-324 26.6355,-324 0.199519,-288 102.964,-288 129.4,-324"/>
<text text-anchor="middle" x="64.7999" y="-302.3" font-family="Helvetica,sans-Serif" font-size="14.00">sources</text>
</g>
<!-- 8574182a&#45;d451&#45;45d5&#45;88fa&#45;2c14f15d6bd6&#45;&gt;b957970a&#45;579f&#45;43cb&#45;9aea&#45;25b25381fb9f -->
<g id="edge4" class="edge"><title>8574182a&#45;d451&#45;45d5&#45;88fa&#45;2c14f15d6bd6&#45;&gt;b957970a&#45;579f&#45;43cb&#45;9aea&#45;25b25381fb9f</title>
<path fill="none" stroke="black" d="M60.283,-359.697C60.9442,-351.983 61.7388,-342.712 62.4759,-334.112"/>
<polygon fill="none" stroke="black" points="65.9669,-334.367 63.3338,-324.104 58.9925,-333.769 65.9669,-334.367"/>
</g>
<!-- e9e9881b&#45;5df5&#45;486e&#45;8b0d&#45;55e773d26a7c -->
<g id="node4" class="node"><title>e9e9881b&#45;5df5&#45;486e&#45;8b0d&#45;55e773d26a7c</title>
<polygon fill="cornsilk" stroke="black" points="196.8,-252 110.8,-252 106.8,-248 106.8,-216 192.8,-216 196.8,-220 196.8,-252"/>
<polyline fill="none" stroke="black" points="192.8,-248 106.8,-248 "/>
<polyline fill="none" stroke="black" points="192.8,-248 192.8,-216 "/>
<polyline fill="none" stroke="black" points="192.8,-248 196.8,-252 "/>
<text text-anchor="middle" x="151.8" y="-230.3" font-family="Helvetica,sans-Serif" font-size="14.00">jenkins job</text>
</g>
<!-- b957970a&#45;579f&#45;43cb&#45;9aea&#45;25b25381fb9f&#45;&gt;e9e9881b&#45;5df5&#45;486e&#45;8b0d&#45;55e773d26a7c -->
<g id="edge2" class="edge"><title>b957970a&#45;579f&#45;43cb&#45;9aea&#45;25b25381fb9f&#45;&gt;e9e9881b&#45;5df5&#45;486e&#45;8b0d&#45;55e773d26a7c</title>
<path fill="none" stroke="black" d="M86.3055,-287.697C97.2624,-278.881 110.746,-268.032 122.625,-258.474"/>
<polygon fill="none" stroke="black" points="124.944,-261.1 130.542,-252.104 120.556,-255.646 124.944,-261.1"/>
</g>
<!-- 2f4b0e84&#45;49bd&#45;47fb&#45;bae8&#45;70353589ba3c -->
<g id="node7" class="node"><title>2f4b0e84&#45;49bd&#45;47fb&#45;bae8&#45;70353589ba3c</title>
<polygon fill="cornsilk" stroke="black" points="236.423,-180 101.806,-180 67.1763,-144 201.793,-144 236.423,-180"/>
<text text-anchor="middle" x="151.8" y="-158.3" font-family="Helvetica,sans-Serif" font-size="14.00">config files</text>
</g>
<!-- e9e9881b&#45;5df5&#45;486e&#45;8b0d&#45;55e773d26a7c&#45;&gt;2f4b0e84&#45;49bd&#45;47fb&#45;bae8&#45;70353589ba3c -->
<g id="edge5" class="edge"><title>e9e9881b&#45;5df5&#45;486e&#45;8b0d&#45;55e773d26a7c&#45;&gt;2f4b0e84&#45;49bd&#45;47fb&#45;bae8&#45;70353589ba3c</title>
<path fill="none" stroke="black" d="M151.8,-215.697C151.8,-207.983 151.8,-198.712 151.8,-190.112"/>
<polygon fill="none" stroke="black" points="155.3,-190.104 151.8,-180.104 148.3,-190.104 155.3,-190.104"/>
</g>
<!-- 01724829&#45;6019&#45;4460&#45;8f99&#45;8134d120c21d -->
<g id="node5" class="node"><title>01724829&#45;6019&#45;4460&#45;8f99&#45;8134d120c21d</title>
<ellipse fill="cornsilk" stroke="black" cx="151.8" cy="-18" rx="27.0966" ry="18"/>
<text text-anchor="middle" x="151.8" y="-14.3" font-family="Helvetica,sans-Serif" font-size="14.00">end</text>
</g>
<!-- 52f86337&#45;2a3f&#45;453c&#45;8966&#45;f2f8e020b238 -->
<g id="node6" class="node"><title>52f86337&#45;2a3f&#45;453c&#45;8966&#45;f2f8e020b238</title>
<polygon fill="cornsilk" stroke="black" points="193.117,-288 286.482,-288 319.733,-324 159.866,-324 193.117,-288"/>
<text text-anchor="middle" x="239.8" y="-302.3" font-family="Helvetica,sans-Serif" font-size="14.00">start build</text>
</g>
<!-- 52f86337&#45;2a3f&#45;453c&#45;8966&#45;f2f8e020b238&#45;&gt;e9e9881b&#45;5df5&#45;486e&#45;8b0d&#45;55e773d26a7c -->
<g id="edge3" class="edge"><title>52f86337&#45;2a3f&#45;453c&#45;8966&#45;f2f8e020b238&#45;&gt;e9e9881b&#45;5df5&#45;486e&#45;8b0d&#45;55e773d26a7c</title>
<path fill="none" stroke="black" d="M218.047,-287.697C206.964,-278.881 193.326,-268.032 181.31,-258.474"/>
<polygon fill="none" stroke="black" points="183.307,-255.59 173.302,-252.104 178.95,-261.069 183.307,-255.59"/>
</g>
<!-- 38c20493&#45;3d0f&#45;4167&#45;bc20&#45;04f87253e798 -->
<g id="node9" class="node"><title>38c20493&#45;3d0f&#45;4167&#45;bc20&#45;04f87253e798</title>
<polygon fill="cornsilk" stroke="black" points="217.8,-108 85.7999,-108 85.7999,-72 217.8,-72 217.8,-108"/>
<text text-anchor="middle" x="151.8" y="-86.3" font-family="Helvetica,sans-Serif" font-size="14.00">target jboss host</text>
</g>
<!-- 2f4b0e84&#45;49bd&#45;47fb&#45;bae8&#45;70353589ba3c&#45;&gt;38c20493&#45;3d0f&#45;4167&#45;bc20&#45;04f87253e798 -->
<g id="edge7" class="edge"><title>2f4b0e84&#45;49bd&#45;47fb&#45;bae8&#45;70353589ba3c&#45;&gt;38c20493&#45;3d0f&#45;4167&#45;bc20&#45;04f87253e798</title>
<path fill="none" stroke="black" d="M151.8,-143.697C151.8,-135.983 151.8,-126.712 151.8,-118.112"/>
<polygon fill="none" stroke="black" points="155.3,-118.104 151.8,-108.104 148.3,-118.104 155.3,-118.104"/>
</g>
<!-- e4df7e7a&#45;cad4&#45;438b&#45;a75b&#45;8ace0e6c3c5e -->
<g id="node8" class="node"><title>e4df7e7a&#45;cad4&#45;438b&#45;a75b&#45;8ace0e6c3c5e</title>
<polygon fill="cornsilk" stroke="black" points="176.531,-360 317.068,-360 367.119,-396 126.481,-396 176.531,-360"/>
<text text-anchor="middle" x="246.8" y="-374.3" font-family="Helvetica,sans-Serif" font-size="14.00">servers, restart?</text>
</g>
<!-- e4df7e7a&#45;cad4&#45;438b&#45;a75b&#45;8ace0e6c3c5e&#45;&gt;52f86337&#45;2a3f&#45;453c&#45;8966&#45;f2f8e020b238 -->
<g id="edge6" class="edge"><title>e4df7e7a&#45;cad4&#45;438b&#45;a75b&#45;8ace0e6c3c5e&#45;&gt;52f86337&#45;2a3f&#45;453c&#45;8966&#45;f2f8e020b238</title>
<path fill="none" stroke="black" d="M245.07,-359.697C244.298,-351.983 243.371,-342.712 242.511,-334.112"/>
<polygon fill="none" stroke="black" points="245.988,-333.706 241.51,-324.104 239.023,-334.403 245.988,-333.706"/>
</g>
<!-- 38c20493&#45;3d0f&#45;4167&#45;bc20&#45;04f87253e798&#45;&gt;01724829&#45;6019&#45;4460&#45;8f99&#45;8134d120c21d -->
<g id="edge8" class="edge"><title>38c20493&#45;3d0f&#45;4167&#45;bc20&#45;04f87253e798&#45;&gt;01724829&#45;6019&#45;4460&#45;8f99&#45;8134d120c21d</title>
<path fill="none" stroke="black" d="M151.8,-71.6966C151.8,-63.9827 151.8,-54.7125 151.8,-46.1124"/>
<polygon fill="none" stroke="black" points="155.3,-46.1043 151.8,-36.1043 148.3,-46.1044 155.3,-46.1043"/>
</g>
</g>
</svg>
