<?xml version="1.0" encoding="UTF-8" standalone="no"?>
<!DOCTYPE svg PUBLIC "-//W3C//DTD SVG 1.1//EN"
 "http://www.w3.org/Graphics/SVG/1.1/DTD/svg11.dtd">
<!-- Generated by graphviz version 2.38.0 (20140413.2041)
 -->
<!-- Title: %3 Pages: 1 -->
<svg width="595pt" height="1196pt"
 viewBox="0.00 0.00 594.50 1196.00" xmlns="http://www.w3.org/2000/svg" xmlns:xlink="http://www.w3.org/1999/xlink">
<g id="graph0" class="graph" transform="scale(1 1) rotate(0) translate(4 1192)">
<title>%3</title>
<polygon fill="white" stroke="none" points="-4,4 -4,-1192 590.5,-1192 590.5,4 -4,4"/>
<!-- 071b18f7&#45;dc44&#45;46b7&#45;a822&#45;fc2b84fc144e -->
<g id="node1" class="node"><title>071b18f7&#45;dc44&#45;46b7&#45;a822&#45;fc2b84fc144e</title>
<ellipse fill="cornsilk" stroke="black" cx="297.5" cy="-882" rx="40.0939" ry="18"/>
<text text-anchor="middle" x="297.5" y="-878.3" font-family="Helvetica,sans-Serif" font-size="14.00">START</text>
</g>
<!-- 9183c22b&#45;a678&#45;4bb1&#45;bab8&#45;9a7fce6662b4 -->
<g id="node2" class="node"><title>9183c22b&#45;a678&#45;4bb1&#45;bab8&#45;9a7fce6662b4</title>
<polygon fill="cornsilk" stroke="black" points="204.5,-828 172.158,-810 204.5,-792 236.842,-810 204.5,-828"/>
<text text-anchor="middle" x="204.5" y="-806.3" font-family="Helvetica,sans-Serif" font-size="14.00">KB</text>
</g>
<!-- 071b18f7&#45;dc44&#45;46b7&#45;a822&#45;fc2b84fc144e&#45;&gt;9183c22b&#45;a678&#45;4bb1&#45;bab8&#45;9a7fce6662b4 -->
<g id="edge1" class="edge"><title>071b18f7&#45;dc44&#45;46b7&#45;a822&#45;fc2b84fc144e&#45;&gt;9183c22b&#45;a678&#45;4bb1&#45;bab8&#45;9a7fce6662b4</title>
<path fill="none" stroke="black" d="M277.777,-866.155C262.481,-854.642 241.321,-838.715 225.671,-826.935"/>
<polygon fill="none" stroke="black" points="227.71,-824.089 217.615,-820.872 223.5,-829.682 227.71,-824.089"/>
</g>
<!-- e417140a&#45;b55c&#45;4abb&#45;b927&#45;d734718c3d7c -->
<g id="node13" class="node"><title>e417140a&#45;b55c&#45;4abb&#45;b927&#45;d734718c3d7c</title>
<polygon fill="cornsilk" stroke="black" points="167,-756 66,-756 66,-720 167,-720 167,-756"/>
<text text-anchor="middle" x="116.5" y="-734.3" font-family="Helvetica,sans-Serif" font-size="14.00">PRINT &quot;KIM&quot;</text>
</g>
<!-- 9183c22b&#45;a678&#45;4bb1&#45;bab8&#45;9a7fce6662b4&#45;&gt;e417140a&#45;b55c&#45;4abb&#45;b927&#45;d734718c3d7c -->
<g id="edge28" class="edge"><title>9183c22b&#45;a678&#45;4bb1&#45;bab8&#45;9a7fce6662b4&#45;&gt;e417140a&#45;b55c&#45;4abb&#45;b927&#45;d734718c3d7c</title>
<path fill="none" stroke="black" d="M191.892,-798.971C179.912,-789.442 161.456,-774.76 145.803,-762.309"/>
<polygon fill="none" stroke="black" points="147.927,-759.526 137.922,-756.04 143.569,-765.004 147.927,-759.526"/>
<text text-anchor="middle" x="177.892" y="-787.771" font-family="Helvetica,sans-Serif" font-size="14.00">TTY</text>
</g>
<!-- 933cdc5f&#45;53e4&#45;4666&#45;9894&#45;0fb81cdb9379 -->
<g id="node23" class="node"><title>933cdc5f&#45;53e4&#45;4666&#45;9894&#45;0fb81cdb9379</title>
<polygon fill="cornsilk" stroke="black" points="250.5,-540 134.5,-540 134.5,-504 250.5,-504 250.5,-540"/>
<text text-anchor="middle" x="192.5" y="-518.3" font-family="Helvetica,sans-Serif" font-size="14.00">DISPLAY CELL</text>
</g>
<!-- 9183c22b&#45;a678&#45;4bb1&#45;bab8&#45;9a7fce6662b4&#45;&gt;933cdc5f&#45;53e4&#45;4666&#45;9894&#45;0fb81cdb9379 -->
<g id="edge27" class="edge"><title>9183c22b&#45;a678&#45;4bb1&#45;bab8&#45;9a7fce6662b4&#45;&gt;933cdc5f&#45;53e4&#45;4666&#45;9894&#45;0fb81cdb9379</title>
<path fill="none" stroke="black" d="M203.803,-792.387C201.815,-745.012 196.104,-608.896 193.647,-550.331"/>
<polygon fill="none" stroke="black" points="197.13,-549.863 193.214,-540.018 190.136,-550.156 197.13,-549.863"/>
<text text-anchor="middle" x="213.303" y="-781.187" font-family="Helvetica,sans-Serif" font-size="14.00">KB</text>
</g>
<!-- d93bda03&#45;1eed&#45;46ca&#45;a75a&#45;95aa97551aa0 -->
<g id="node3" class="node"><title>d93bda03&#45;1eed&#45;46ca&#45;a75a&#45;95aa97551aa0</title>
<polygon fill="cornsilk" stroke="black" points="288.5,-396 172.5,-396 172.5,-360 288.5,-360 288.5,-396"/>
<text text-anchor="middle" x="230.5" y="-374.3" font-family="Helvetica,sans-Serif" font-size="14.00">DISPLAY CELL</text>
</g>
<!-- 9a72311e&#45;6202&#45;4b08&#45;8df7&#45;b0c343769464 -->
<g id="node4" class="node"><title>9a72311e&#45;6202&#45;4b08&#45;8df7&#45;b0c343769464</title>
<polygon fill="cornsilk" stroke="black" points="249.5,-324 217.158,-306 249.5,-288 281.842,-306 249.5,-324"/>
<text text-anchor="middle" x="249.5" y="-302.3" font-family="Helvetica,sans-Serif" font-size="14.00">AK</text>
</g>
<!-- d93bda03&#45;1eed&#45;46ca&#45;a75a&#45;95aa97551aa0&#45;&gt;9a72311e&#45;6202&#45;4b08&#45;8df7&#45;b0c343769464 -->
<g id="edge2" class="edge"><title>d93bda03&#45;1eed&#45;46ca&#45;a75a&#45;95aa97551aa0&#45;&gt;9a72311e&#45;6202&#45;4b08&#45;8df7&#45;b0c343769464</title>
<path fill="none" stroke="black" d="M235.197,-359.697C237.464,-351.343 240.227,-341.163 242.718,-331.986"/>
<polygon fill="none" stroke="black" points="246.132,-332.77 245.374,-322.202 239.376,-330.936 246.132,-332.77"/>
</g>
<!-- 9a72311e&#45;6202&#45;4b08&#45;8df7&#45;b0c343769464&#45;&gt;071b18f7&#45;dc44&#45;46b7&#45;a822&#45;fc2b84fc144e -->
<g id="edge9" class="edge"><title>9a72311e&#45;6202&#45;4b08&#45;8df7&#45;b0c343769464&#45;&gt;071b18f7&#45;dc44&#45;46b7&#45;a822&#45;fc2b84fc144e</title>
<path fill="none" stroke="black" d="M262.139,-317.432C273.188,-327.26 288.789,-342.982 297.5,-360 315.931,-396.004 316.5,-408.553 316.5,-449 316.5,-739 316.5,-739 316.5,-739 316.5,-779.36 308.866,-825.608 303.276,-854.064"/>
<polygon fill="none" stroke="black" points="299.808,-853.553 301.254,-864.049 306.669,-854.943 299.808,-853.553"/>
<text text-anchor="middle" x="289.139" y="-321.232" font-family="Helvetica,sans-Serif" font-size="14.00">NO KEY</text>
</g>
<!-- 314b55f1&#45;f4ed&#45;47a8&#45;a448&#45;72b35f12373a -->
<g id="node11" class="node"><title>314b55f1&#45;f4ed&#45;47a8&#45;a448&#45;72b35f12373a</title>
<polygon fill="cornsilk" stroke="black" points="288,-252 211,-252 211,-216 288,-216 288,-252"/>
<text text-anchor="middle" x="249.5" y="-230.3" font-family="Helvetica,sans-Serif" font-size="14.00">GET KEY</text>
</g>
<!-- 9a72311e&#45;6202&#45;4b08&#45;8df7&#45;b0c343769464&#45;&gt;314b55f1&#45;f4ed&#45;47a8&#45;a448&#45;72b35f12373a -->
<g id="edge8" class="edge"><title>9a72311e&#45;6202&#45;4b08&#45;8df7&#45;b0c343769464&#45;&gt;314b55f1&#45;f4ed&#45;47a8&#45;a448&#45;72b35f12373a</title>
<path fill="none" stroke="black" d="M249.5,-287.697C249.5,-279.983 249.5,-270.712 249.5,-262.112"/>
<polygon fill="none" stroke="black" points="253,-262.104 249.5,-252.104 246,-262.104 253,-262.104"/>
</g>
<!-- 439570fb&#45;1935&#45;4ae4&#45;9d11&#45;02ad8db98908 -->
<g id="node5" class="node"><title>439570fb&#45;1935&#45;4ae4&#45;9d11&#45;02ad8db98908</title>
<polygon fill="cornsilk" stroke="black" points="394.5,-972 200.5,-972 200.5,-936 394.5,-936 394.5,-972"/>
<text text-anchor="middle" x="297.5" y="-950.3" font-family="Helvetica,sans-Serif" font-size="14.00">BIT RATE MEASUREMENT</text>
</g>
<!-- 439570fb&#45;1935&#45;4ae4&#45;9d11&#45;02ad8db98908&#45;&gt;071b18f7&#45;dc44&#45;46b7&#45;a822&#45;fc2b84fc144e -->
<g id="edge3" class="edge"><title>439570fb&#45;1935&#45;4ae4&#45;9d11&#45;02ad8db98908&#45;&gt;071b18f7&#45;dc44&#45;46b7&#45;a822&#45;fc2b84fc144e</title>
<path fill="none" stroke="black" d="M297.5,-935.697C297.5,-927.983 297.5,-918.712 297.5,-910.112"/>
<polygon fill="none" stroke="black" points="301,-910.104 297.5,-900.104 294,-910.104 301,-910.104"/>
</g>
<!-- d86704b6&#45;9605&#45;4f64&#45;97ad&#45;207927db0197 -->
<g id="node6" class="node"><title>d86704b6&#45;9605&#45;4f64&#45;97ad&#45;207927db0197</title>
<polygon fill="cornsilk" stroke="black" points="262.5,-36 230.158,-18 262.5,-3.55271e-15 294.842,-18 262.5,-36"/>
<text text-anchor="middle" x="262.5" y="-14.3" font-family="Helvetica,sans-Serif" font-size="14.00">AK</text>
</g>
<!-- d86704b6&#45;9605&#45;4f64&#45;97ad&#45;207927db0197&#45;&gt;071b18f7&#45;dc44&#45;46b7&#45;a822&#45;fc2b84fc144e -->
<g id="edge5" class="edge"><title>d86704b6&#45;9605&#45;4f64&#45;97ad&#45;207927db0197&#45;&gt;071b18f7&#45;dc44&#45;46b7&#45;a822&#45;fc2b84fc144e</title>
<path fill="none" stroke="black" d="M278.149,-27.438C293.46,-36.4853 316.343,-52.2513 329.5,-72 352.28,-106.193 354.5,-119.914 354.5,-161 354.5,-739 354.5,-739 354.5,-739 354.5,-782.438 331.245,-828.318 314.443,-855.799"/>
<polygon fill="none" stroke="black" points="311.404,-854.057 309.035,-864.384 317.326,-857.788 311.404,-854.057"/>
<text text-anchor="middle" x="305.149" y="-31.238" font-family="Helvetica,sans-Serif" font-size="14.00">NO KEY</text>
</g>
<!-- d42f3d49&#45;bac8&#45;4ff6&#45;8bc8&#45;32d574775559 -->
<g id="node7" class="node"><title>d42f3d49&#45;bac8&#45;4ff6&#45;8bc8&#45;32d574775559</title>
<polygon fill="cornsilk" stroke="black" points="320.5,-108 204.5,-108 204.5,-72 320.5,-72 320.5,-108"/>
<text text-anchor="middle" x="262.5" y="-86.3" font-family="Helvetica,sans-Serif" font-size="14.00">DISPLAY CELL</text>
</g>
<!-- d86704b6&#45;9605&#45;4f64&#45;97ad&#45;207927db0197&#45;&gt;d42f3d49&#45;bac8&#45;4ff6&#45;8bc8&#45;32d574775559 -->
<g id="edge4" class="edge"><title>d86704b6&#45;9605&#45;4f64&#45;97ad&#45;207927db0197&#45;&gt;d42f3d49&#45;bac8&#45;4ff6&#45;8bc8&#45;32d574775559</title>
<path fill="none" stroke="black" d="M268.064,-33.279C269.132,-41.4439 269.478,-51.9598 269.105,-61.6524"/>
<polygon fill="none" stroke="black" points="265.608,-61.4806 268.416,-71.6966 272.592,-61.9595 265.608,-61.4806"/>
</g>
<!-- d42f3d49&#45;bac8&#45;4ff6&#45;8bc8&#45;32d574775559&#45;&gt;d86704b6&#45;9605&#45;4f64&#45;97ad&#45;207927db0197 -->
<g id="edge15" class="edge"><title>d42f3d49&#45;bac8&#45;4ff6&#45;8bc8&#45;32d574775559&#45;&gt;d86704b6&#45;9605&#45;4f64&#45;97ad&#45;207927db0197</title>
<path fill="none" stroke="black" d="M256.584,-71.6966C255.708,-63.1996 255.522,-52.8141 256.027,-43.5161"/>
<polygon fill="none" stroke="black" points="259.537,-43.5496 256.936,-33.279 252.565,-42.9299 259.537,-43.5496"/>
</g>
<!-- d3f38405&#45;ac59&#45;4fae&#45;a18f&#45;8e625873a092 -->
<g id="node8" class="node"><title>d3f38405&#45;ac59&#45;4fae&#45;a18f&#45;8e625873a092</title>
<polygon fill="cornsilk" stroke="black" points="307,-180 192,-180 192,-144 307,-144 307,-180"/>
<text text-anchor="middle" x="249.5" y="-158.3" font-family="Helvetica,sans-Serif" font-size="14.00">EXECUTE KEY</text>
</g>
<!-- d3f38405&#45;ac59&#45;4fae&#45;a18f&#45;8e625873a092&#45;&gt;d42f3d49&#45;bac8&#45;4ff6&#45;8bc8&#45;32d574775559 -->
<g id="edge6" class="edge"><title>d3f38405&#45;ac59&#45;4fae&#45;a18f&#45;8e625873a092&#45;&gt;d42f3d49&#45;bac8&#45;4ff6&#45;8bc8&#45;32d574775559</title>
<path fill="none" stroke="black" d="M252.713,-143.697C254.146,-135.983 255.868,-126.712 257.465,-118.112"/>
<polygon fill="none" stroke="black" points="260.939,-118.575 259.323,-108.104 254.056,-117.297 260.939,-118.575"/>
</g>
<!-- 0dc39ee2&#45;57b1&#45;42d5&#45;a089&#45;8867d33fd617 -->
<g id="node9" class="node"><title>0dc39ee2&#45;57b1&#45;42d5&#45;a089&#45;8867d33fd617</title>
<polygon fill="cornsilk" stroke="black" points="175,-108 0,-108 0,-72 175,-72 175,-108"/>
<text text-anchor="middle" x="87.5" y="-86.3" font-family="Helvetica,sans-Serif" font-size="14.00">PROCESS G/RUN KEYS</text>
</g>
<!-- d3f38405&#45;ac59&#45;4fae&#45;a18f&#45;8e625873a092&#45;&gt;0dc39ee2&#45;57b1&#45;42d5&#45;a089&#45;8867d33fd617 -->
<g id="edge7" class="edge"><title>d3f38405&#45;ac59&#45;4fae&#45;a18f&#45;8e625873a092&#45;&gt;0dc39ee2&#45;57b1&#45;42d5&#45;a089&#45;8867d33fd617</title>
<path fill="none" stroke="black" d="M209.87,-143.876C187.724,-134.307 159.937,-122.3 136.442,-112.148"/>
<polygon fill="none" stroke="black" points="137.569,-108.822 127.001,-108.068 134.792,-115.248 137.569,-108.822"/>
<text text-anchor="middle" x="194.37" y="-132.676" font-family="Helvetica,sans-Serif" font-size="14.00">RUN</text>
</g>
<!-- e6b791f3&#45;2bda&#45;46d1&#45;ac55&#45;2fb9b830ef56 -->
<g id="node10" class="node"><title>e6b791f3&#45;2bda&#45;46d1&#45;ac55&#45;2fb9b830ef56</title>
<ellipse fill="cornsilk" stroke="black" cx="87.5" cy="-18" rx="32.4942" ry="18"/>
<text text-anchor="middle" x="87.5" y="-14.3" font-family="Helvetica,sans-Serif" font-size="14.00">EXIT</text>
</g>
<!-- 0dc39ee2&#45;57b1&#45;42d5&#45;a089&#45;8867d33fd617&#45;&gt;e6b791f3&#45;2bda&#45;46d1&#45;ac55&#45;2fb9b830ef56 -->
<g id="edge14" class="edge"><title>0dc39ee2&#45;57b1&#45;42d5&#45;a089&#45;8867d33fd617&#45;&gt;e6b791f3&#45;2bda&#45;46d1&#45;ac55&#45;2fb9b830ef56</title>
<path fill="none" stroke="black" d="M87.5,-71.6966C87.5,-63.9827 87.5,-54.7125 87.5,-46.1124"/>
<polygon fill="none" stroke="black" points="91.0001,-46.1043 87.5,-36.1043 84.0001,-46.1044 91.0001,-46.1043"/>
</g>
<!-- 314b55f1&#45;f4ed&#45;47a8&#45;a448&#45;72b35f12373a&#45;&gt;d3f38405&#45;ac59&#45;4fae&#45;a18f&#45;8e625873a092 -->
<g id="edge29" class="edge"><title>314b55f1&#45;f4ed&#45;47a8&#45;a448&#45;72b35f12373a&#45;&gt;d3f38405&#45;ac59&#45;4fae&#45;a18f&#45;8e625873a092</title>
<path fill="none" stroke="black" d="M249.5,-215.697C249.5,-207.983 249.5,-198.712 249.5,-190.112"/>
<polygon fill="none" stroke="black" points="253,-190.104 249.5,-180.104 246,-190.104 253,-190.104"/>
</g>
<!-- a6a4bf7c&#45;e1be&#45;4582&#45;acfc&#45;0eacc62502e5 -->
<g id="node12" class="node"><title>a6a4bf7c&#45;e1be&#45;4582&#45;acfc&#45;0eacc62502e5</title>
<polygon fill="cornsilk" stroke="black" points="234.5,-1044 202.158,-1026 234.5,-1008 266.842,-1026 234.5,-1044"/>
<text text-anchor="middle" x="234.5" y="-1022.3" font-family="Helvetica,sans-Serif" font-size="14.00">KB</text>
</g>
<!-- a6a4bf7c&#45;e1be&#45;4582&#45;acfc&#45;0eacc62502e5&#45;&gt;071b18f7&#45;dc44&#45;46b7&#45;a822&#45;fc2b84fc144e -->
<g id="edge11" class="edge"><title>a6a4bf7c&#45;e1be&#45;4582&#45;acfc&#45;0eacc62502e5&#45;&gt;071b18f7&#45;dc44&#45;46b7&#45;a822&#45;fc2b84fc144e</title>
<path fill="none" stroke="black" d="M222.561,-1014.49C204.698,-997.458 174.81,-963.005 191.5,-936 204.786,-914.503 229.723,-901.434 252.074,-893.654"/>
<polygon fill="none" stroke="black" points="253.329,-896.927 261.78,-890.537 251.189,-890.262 253.329,-896.927"/>
<text text-anchor="middle" x="213.061" y="-1003.29" font-family="Helvetica,sans-Serif" font-size="14.00">KB</text>
</g>
<!-- a6a4bf7c&#45;e1be&#45;4582&#45;acfc&#45;0eacc62502e5&#45;&gt;439570fb&#45;1935&#45;4ae4&#45;9d11&#45;02ad8db98908 -->
<g id="edge10" class="edge"><title>a6a4bf7c&#45;e1be&#45;4582&#45;acfc&#45;0eacc62502e5&#45;&gt;439570fb&#45;1935&#45;4ae4&#45;9d11&#45;02ad8db98908</title>
<path fill="none" stroke="black" d="M244.903,-1013.44C253.138,-1004.29 264.933,-991.186 275.267,-979.703"/>
<polygon fill="none" stroke="black" points="278.038,-981.856 282.126,-972.082 272.835,-977.174 278.038,-981.856"/>
<text text-anchor="middle" x="258.903" y="-1002.24" font-family="Helvetica,sans-Serif" font-size="14.00">TTY</text>
</g>
<!-- 9416b0a2&#45;0855&#45;4696&#45;9cfa&#45;44f1a623d04b -->
<g id="node14" class="node"><title>9416b0a2&#45;0855&#45;4696&#45;9cfa&#45;44f1a623d04b</title>
<polygon fill="cornsilk" stroke="black" points="176,-684 39,-684 39,-648 176,-648 176,-684"/>
<text text-anchor="middle" x="107.5" y="-662.3" font-family="Helvetica,sans-Serif" font-size="14.00">GET CHARACTER</text>
</g>
<!-- e417140a&#45;b55c&#45;4abb&#45;b927&#45;d734718c3d7c&#45;&gt;9416b0a2&#45;0855&#45;4696&#45;9cfa&#45;44f1a623d04b -->
<g id="edge12" class="edge"><title>e417140a&#45;b55c&#45;4abb&#45;b927&#45;d734718c3d7c&#45;&gt;9416b0a2&#45;0855&#45;4696&#45;9cfa&#45;44f1a623d04b</title>
<path fill="none" stroke="black" d="M114.275,-719.697C113.283,-711.983 112.092,-702.712 110.986,-694.112"/>
<polygon fill="none" stroke="black" points="114.446,-693.576 109.699,-684.104 107.503,-694.469 114.446,-693.576"/>
</g>
<!-- 03fbae3c&#45;d116&#45;4ad9&#45;a1b7&#45;61f3eb561b83 -->
<g id="node22" class="node"><title>03fbae3c&#45;d116&#45;4ad9&#45;a1b7&#45;61f3eb561b83</title>
<polygon fill="cornsilk" stroke="black" points="118.5,-612 86.1581,-594 118.5,-576 150.842,-594 118.5,-612"/>
<text text-anchor="middle" x="118.5" y="-590.3" font-family="Helvetica,sans-Serif" font-size="14.00">KB</text>
</g>
<!-- 9416b0a2&#45;0855&#45;4696&#45;9cfa&#45;44f1a623d04b&#45;&gt;03fbae3c&#45;d116&#45;4ad9&#45;a1b7&#45;61f3eb561b83 -->
<g id="edge22" class="edge"><title>9416b0a2&#45;0855&#45;4696&#45;9cfa&#45;44f1a623d04b&#45;&gt;03fbae3c&#45;d116&#45;4ad9&#45;a1b7&#45;61f3eb561b83</title>
<path fill="none" stroke="black" d="M110.219,-647.697C111.499,-639.549 113.053,-629.664 114.466,-620.668"/>
<polygon fill="none" stroke="black" points="117.942,-621.093 116.037,-610.671 111.027,-620.007 117.942,-621.093"/>
</g>
<!-- db99f9f5&#45;88e4&#45;4eaf&#45;951e&#45;5cede4403b00 -->
<g id="node15" class="node"><title>db99f9f5&#45;88e4&#45;4eaf&#45;951e&#45;5cede4403b00</title>
<ellipse fill="cornsilk" stroke="black" cx="499.5" cy="-1026" rx="28.6953" ry="18"/>
<text text-anchor="middle" x="499.5" y="-1022.3" font-family="Helvetica,sans-Serif" font-size="14.00">NMI</text>
</g>
<!-- 974b03fc&#45;c407&#45;40ff&#45;a405&#45;318f8db3c3f1 -->
<g id="node16" class="node"><title>974b03fc&#45;c407&#45;40ff&#45;a405&#45;318f8db3c3f1</title>
<polygon fill="cornsilk" stroke="black" points="586.5,-972 412.5,-972 412.5,-936 586.5,-936 586.5,-972"/>
<text text-anchor="middle" x="499.5" y="-950.3" font-family="Helvetica,sans-Serif" font-size="14.00">SAVE MPU REGISTERS</text>
</g>
<!-- db99f9f5&#45;88e4&#45;4eaf&#45;951e&#45;5cede4403b00&#45;&gt;974b03fc&#45;c407&#45;40ff&#45;a405&#45;318f8db3c3f1 -->
<g id="edge13" class="edge"><title>db99f9f5&#45;88e4&#45;4eaf&#45;951e&#45;5cede4403b00&#45;&gt;974b03fc&#45;c407&#45;40ff&#45;a405&#45;318f8db3c3f1</title>
<path fill="none" stroke="black" d="M499.5,-1007.7C499.5,-999.983 499.5,-990.712 499.5,-982.112"/>
<polygon fill="none" stroke="black" points="503,-982.104 499.5,-972.104 496,-982.104 503,-982.104"/>
</g>
<!-- 974b03fc&#45;c407&#45;40ff&#45;a405&#45;318f8db3c3f1&#45;&gt;071b18f7&#45;dc44&#45;46b7&#45;a822&#45;fc2b84fc144e -->
<g id="edge21" class="edge"><title>974b03fc&#45;c407&#45;40ff&#45;a405&#45;318f8db3c3f1&#45;&gt;071b18f7&#45;dc44&#45;46b7&#45;a822&#45;fc2b84fc144e</title>
<path fill="none" stroke="black" d="M450.344,-935.966C415.842,-924.009 370.266,-908.216 337.884,-896.995"/>
<polygon fill="none" stroke="black" points="338.88,-893.635 328.285,-893.668 336.588,-900.25 338.88,-893.635"/>
</g>
<!-- 991453b9&#45;425b&#45;4373&#45;bc1e&#45;78dac5fe2997 -->
<g id="node17" class="node"><title>991453b9&#45;425b&#45;4373&#45;bc1e&#45;78dac5fe2997</title>
<ellipse fill="cornsilk" stroke="black" cx="234.5" cy="-1170" rx="28.6953" ry="18"/>
<text text-anchor="middle" x="234.5" y="-1166.3" font-family="Helvetica,sans-Serif" font-size="14.00">RST</text>
</g>
<!-- ce8a28f6&#45;de77&#45;4056&#45;a069&#45;08314eb88d93 -->
<g id="node18" class="node"><title>ce8a28f6&#45;de77&#45;4056&#45;a069&#45;08314eb88d93</title>
<polygon fill="cornsilk" stroke="black" points="280,-1116 189,-1116 189,-1080 280,-1080 280,-1116"/>
<text text-anchor="middle" x="234.5" y="-1094.3" font-family="Helvetica,sans-Serif" font-size="14.00">INITIALIZE</text>
</g>
<!-- 991453b9&#45;425b&#45;4373&#45;bc1e&#45;78dac5fe2997&#45;&gt;ce8a28f6&#45;de77&#45;4056&#45;a069&#45;08314eb88d93 -->
<g id="edge16" class="edge"><title>991453b9&#45;425b&#45;4373&#45;bc1e&#45;78dac5fe2997&#45;&gt;ce8a28f6&#45;de77&#45;4056&#45;a069&#45;08314eb88d93</title>
<path fill="none" stroke="black" d="M234.5,-1151.7C234.5,-1143.98 234.5,-1134.71 234.5,-1126.11"/>
<polygon fill="none" stroke="black" points="238,-1126.1 234.5,-1116.1 231,-1126.1 238,-1126.1"/>
</g>
<!-- ce8a28f6&#45;de77&#45;4056&#45;a069&#45;08314eb88d93&#45;&gt;a6a4bf7c&#45;e1be&#45;4582&#45;acfc&#45;0eacc62502e5 -->
<g id="edge17" class="edge"><title>ce8a28f6&#45;de77&#45;4056&#45;a069&#45;08314eb88d93&#45;&gt;a6a4bf7c&#45;e1be&#45;4582&#45;acfc&#45;0eacc62502e5</title>
<path fill="none" stroke="black" d="M234.5,-1079.7C234.5,-1071.98 234.5,-1062.71 234.5,-1054.11"/>
<polygon fill="none" stroke="black" points="238,-1054.1 234.5,-1044.1 231,-1054.1 238,-1054.1"/>
</g>
<!-- 34b22ef1&#45;00af&#45;4e2c&#45;ab96&#45;2f35932d6a75 -->
<g id="node19" class="node"><title>34b22ef1&#45;00af&#45;4e2c&#45;ab96&#45;2f35932d6a75</title>
<polygon fill="cornsilk" stroke="black" points="116,-540 1,-540 1,-504 116,-504 116,-540"/>
<text text-anchor="middle" x="58.5" y="-518.3" font-family="Helvetica,sans-Serif" font-size="14.00">EXECUTE KEY</text>
</g>
<!-- 34b22ef1&#45;00af&#45;4e2c&#45;ab96&#45;2f35932d6a75&#45;&gt;0dc39ee2&#45;57b1&#45;42d5&#45;a089&#45;8867d33fd617 -->
<g id="edge18" class="edge"><title>34b22ef1&#45;00af&#45;4e2c&#45;ab96&#45;2f35932d6a75&#45;&gt;0dc39ee2&#45;57b1&#45;42d5&#45;a089&#45;8867d33fd617</title>
<path fill="none" stroke="black" d="M63.1544,-503.658C69.8751,-477.049 81.5,-424.453 81.5,-379 81.5,-379 81.5,-379 81.5,-233 81.5,-192.96 83.9107,-146.627 85.676,-118.065"/>
<polygon fill="none" stroke="black" points="89.1718,-118.242 86.3146,-108.039 82.1859,-117.797 89.1718,-118.242"/>
<text text-anchor="middle" x="57.1544" y="-492.458" font-family="Helvetica,sans-Serif" font-size="14.00">G</text>
</g>
<!-- 34b22ef1&#45;00af&#45;4e2c&#45;ab96&#45;2f35932d6a75&#45;&gt;9416b0a2&#45;0855&#45;4696&#45;9cfa&#45;44f1a623d04b -->
<g id="edge19" class="edge"><title>34b22ef1&#45;00af&#45;4e2c&#45;ab96&#45;2f35932d6a75&#45;&gt;9416b0a2&#45;0855&#45;4696&#45;9cfa&#45;44f1a623d04b</title>
<path fill="none" stroke="black" d="M60.583,-540.17C63.1584,-558.424 68.3628,-587.922 77.5,-612 81.0263,-621.292 86.0077,-630.906 90.9003,-639.353"/>
<polygon fill="none" stroke="black" points="87.9442,-641.229 96.1013,-647.99 93.9409,-637.618 87.9442,-641.229"/>
</g>
<!-- da8a886b&#45;5e62&#45;4b0b&#45;ac17&#45;f5f0e6e4eeec -->
<g id="node20" class="node"><title>da8a886b&#45;5e62&#45;4b0b&#45;ac17&#45;f5f0e6e4eeec</title>
<ellipse fill="cornsilk" stroke="black" cx="355.5" cy="-1170" rx="27.0966" ry="18"/>
<text text-anchor="middle" x="355.5" y="-1166.3" font-family="Helvetica,sans-Serif" font-size="14.00">IRQ</text>
</g>
<!-- 8d5e958e&#45;1efb&#45;495e&#45;baa3&#45;801551ee0fc3 -->
<g id="node21" class="node"><title>8d5e958e&#45;1efb&#45;495e&#45;baa3&#45;801551ee0fc3</title>
<polygon fill="cornsilk" stroke="black" points="413,-1116 302,-1116 298,-1112 298,-1080 409,-1080 413,-1084 413,-1116"/>
<polyline fill="none" stroke="black" points="409,-1112 298,-1112 "/>
<polyline fill="none" stroke="black" points="409,-1112 409,-1080 "/>
<polyline fill="none" stroke="black" points="409,-1112 413,-1116 "/>
<text text-anchor="middle" x="355.5" y="-1094.3" font-family="Helvetica,sans-Serif" font-size="14.00">USER OPTION</text>
</g>
<!-- da8a886b&#45;5e62&#45;4b0b&#45;ac17&#45;f5f0e6e4eeec&#45;&gt;8d5e958e&#45;1efb&#45;495e&#45;baa3&#45;801551ee0fc3 -->
<g id="edge20" class="edge"><title>da8a886b&#45;5e62&#45;4b0b&#45;ac17&#45;f5f0e6e4eeec&#45;&gt;8d5e958e&#45;1efb&#45;495e&#45;baa3&#45;801551ee0fc3</title>
<path fill="none" stroke="black" d="M355.5,-1151.7C355.5,-1143.98 355.5,-1134.71 355.5,-1126.11"/>
<polygon fill="none" stroke="black" points="359,-1126.1 355.5,-1116.1 352,-1126.1 359,-1126.1"/>
</g>
<!-- 03fbae3c&#45;d116&#45;4ad9&#45;a1b7&#45;61f3eb561b83&#45;&gt;34b22ef1&#45;00af&#45;4e2c&#45;ab96&#45;2f35932d6a75 -->
<g id="edge23" class="edge"><title>03fbae3c&#45;d116&#45;4ad9&#45;a1b7&#45;61f3eb561b83&#45;&gt;34b22ef1&#45;00af&#45;4e2c&#45;ab96&#45;2f35932d6a75</title>
<path fill="none" stroke="black" d="M108.592,-581.441C100.75,-572.291 89.5164,-559.186 79.6744,-547.703"/>
<polygon fill="none" stroke="black" points="82.307,-545.397 73.1417,-540.082 76.9922,-549.952 82.307,-545.397"/>
<text text-anchor="middle" x="94.5922" y="-570.241" font-family="Helvetica,sans-Serif" font-size="14.00">TTY</text>
</g>
<!-- 03fbae3c&#45;d116&#45;4ad9&#45;a1b7&#45;61f3eb561b83&#45;&gt;933cdc5f&#45;53e4&#45;4666&#45;9894&#45;0fb81cdb9379 -->
<g id="edge24" class="edge"><title>03fbae3c&#45;d116&#45;4ad9&#45;a1b7&#45;61f3eb561b83&#45;&gt;933cdc5f&#45;53e4&#45;4666&#45;9894&#45;0fb81cdb9379</title>
<path fill="none" stroke="black" d="M130.062,-582.062C139.892,-572.764 154.364,-559.075 166.901,-547.216"/>
<polygon fill="none" stroke="black" points="169.538,-549.539 174.398,-540.124 164.728,-544.453 169.538,-549.539"/>
<text text-anchor="middle" x="120.562" y="-570.862" font-family="Helvetica,sans-Serif" font-size="14.00">KB</text>
</g>
<!-- 7b256e4a&#45;e917&#45;4a4c&#45;9e2d&#45;1d73817b76ea -->
<g id="node24" class="node"><title>7b256e4a&#45;e917&#45;4a4c&#45;9e2d&#45;1d73817b76ea</title>
<polygon fill="cornsilk" stroke="black" points="230.5,-468 198.158,-450 230.5,-432 262.842,-450 230.5,-468"/>
<text text-anchor="middle" x="230.5" y="-446.3" font-family="Helvetica,sans-Serif" font-size="14.00">AK</text>
</g>
<!-- 933cdc5f&#45;53e4&#45;4666&#45;9894&#45;0fb81cdb9379&#45;&gt;7b256e4a&#45;e917&#45;4a4c&#45;9e2d&#45;1d73817b76ea -->
<g id="edge30" class="edge"><title>933cdc5f&#45;53e4&#45;4666&#45;9894&#45;0fb81cdb9379&#45;&gt;7b256e4a&#45;e917&#45;4a4c&#45;9e2d&#45;1d73817b76ea</title>
<path fill="none" stroke="black" d="M201.893,-503.697C206.89,-494.492 213.089,-483.072 218.438,-473.219"/>
<polygon fill="none" stroke="black" points="221.544,-474.834 223.239,-464.375 215.392,-471.494 221.544,-474.834"/>
</g>
<!-- 7b256e4a&#45;e917&#45;4a4c&#45;9e2d&#45;1d73817b76ea&#45;&gt;071b18f7&#45;dc44&#45;46b7&#45;a822&#45;fc2b84fc144e -->
<g id="edge26" class="edge"><title>7b256e4a&#45;e917&#45;4a4c&#45;9e2d&#45;1d73817b76ea&#45;&gt;071b18f7&#45;dc44&#45;46b7&#45;a822&#45;fc2b84fc144e</title>
<path fill="none" stroke="black" d="M238.744,-463.569C245.249,-474.007 254.097,-489.447 259.5,-504 273.578,-541.918 278.5,-552.553 278.5,-593 278.5,-739 278.5,-739 278.5,-739 278.5,-779.36 286.134,-825.608 291.724,-854.064"/>
<polygon fill="none" stroke="black" points="288.331,-854.943 293.746,-864.049 295.192,-853.553 288.331,-854.943"/>
<text text-anchor="middle" x="265.744" y="-467.369" font-family="Helvetica,sans-Serif" font-size="14.00">NO KEY</text>
</g>
<!-- 7b256e4a&#45;e917&#45;4a4c&#45;9e2d&#45;1d73817b76ea&#45;&gt;d93bda03&#45;1eed&#45;46ca&#45;a75a&#45;95aa97551aa0 -->
<g id="edge25" class="edge"><title>7b256e4a&#45;e917&#45;4a4c&#45;9e2d&#45;1d73817b76ea&#45;&gt;d93bda03&#45;1eed&#45;46ca&#45;a75a&#45;95aa97551aa0</title>
<path fill="none" stroke="black" d="M230.5,-431.697C230.5,-423.983 230.5,-414.712 230.5,-406.112"/>
<polygon fill="none" stroke="black" points="234,-406.104 230.5,-396.104 227,-406.104 234,-406.104"/>
</g>
</g>
</svg>
