<?xml version="1.0" encoding="UTF-8" standalone="no"?>
<!DOCTYPE svg PUBLIC "-//W3C//DTD SVG 1.1//EN"
 "http://www.w3.org/Graphics/SVG/1.1/DTD/svg11.dtd">
<!-- Generated by graphviz version 2.38.0 (20140413.2041)
 -->
<!-- Title: %3 Pages: 1 -->
<svg width="595pt" height="1196pt"
 viewBox="0.00 0.00 594.50 1196.00" xmlns="http://www.w3.org/2000/svg" xmlns:xlink="http://www.w3.org/1999/xlink">
<g id="graph0" class="graph" transform="scale(1 1) rotate(0) translate(4 1192)">
<title>%3</title>
<polygon fill="white" stroke="none" points="-4,4 -4,-1192 590.5,-1192 590.5,4 -4,4"/>
<!-- 07a9fdf9&#45;578e&#45;4a50&#45;87c7&#45;806e2163020a -->
<g id="node1" class="node"><title>07a9fdf9&#45;578e&#45;4a50&#45;87c7&#45;806e2163020a</title>
<ellipse fill="cornsilk" stroke="black" cx="297.5" cy="-882" rx="40.0939" ry="18"/>
<text text-anchor="middle" x="297.5" y="-878.3" font-family="Helvetica,sans-Serif" font-size="14.00">START</text>
</g>
<!-- 8e99f13d&#45;feea&#45;430a&#45;bd82&#45;86784fd9d3ae -->
<g id="node2" class="node"><title>8e99f13d&#45;feea&#45;430a&#45;bd82&#45;86784fd9d3ae</title>
<polygon fill="cornsilk" stroke="black" points="204.5,-828 172.158,-810 204.5,-792 236.842,-810 204.5,-828"/>
<text text-anchor="middle" x="204.5" y="-806.3" font-family="Helvetica,sans-Serif" font-size="14.00">KB</text>
</g>
<!-- 07a9fdf9&#45;578e&#45;4a50&#45;87c7&#45;806e2163020a&#45;&gt;8e99f13d&#45;feea&#45;430a&#45;bd82&#45;86784fd9d3ae -->
<g id="edge1" class="edge"><title>07a9fdf9&#45;578e&#45;4a50&#45;87c7&#45;806e2163020a&#45;&gt;8e99f13d&#45;feea&#45;430a&#45;bd82&#45;86784fd9d3ae</title>
<path fill="none" stroke="black" d="M277.777,-866.155C262.481,-854.642 241.321,-838.715 225.671,-826.935"/>
<polygon fill="none" stroke="black" points="227.71,-824.089 217.615,-820.872 223.5,-829.682 227.71,-824.089"/>
</g>
<!-- 40866d27&#45;136c&#45;429e&#45;9c18&#45;2dd2c62f50b7 -->
<g id="node13" class="node"><title>40866d27&#45;136c&#45;429e&#45;9c18&#45;2dd2c62f50b7</title>
<polygon fill="cornsilk" stroke="black" points="167,-756 66,-756 66,-720 167,-720 167,-756"/>
<text text-anchor="middle" x="116.5" y="-734.3" font-family="Helvetica,sans-Serif" font-size="14.00">PRINT &quot;KIM&quot;</text>
</g>
<!-- 8e99f13d&#45;feea&#45;430a&#45;bd82&#45;86784fd9d3ae&#45;&gt;40866d27&#45;136c&#45;429e&#45;9c18&#45;2dd2c62f50b7 -->
<g id="edge28" class="edge"><title>8e99f13d&#45;feea&#45;430a&#45;bd82&#45;86784fd9d3ae&#45;&gt;40866d27&#45;136c&#45;429e&#45;9c18&#45;2dd2c62f50b7</title>
<path fill="none" stroke="black" d="M191.892,-798.971C179.912,-789.442 161.456,-774.76 145.803,-762.309"/>
<polygon fill="none" stroke="black" points="147.927,-759.526 137.922,-756.04 143.569,-765.004 147.927,-759.526"/>
<text text-anchor="middle" x="177.892" y="-787.771" font-family="Helvetica,sans-Serif" font-size="14.00">TTY</text>
</g>
<!-- b279873a&#45;ec7d&#45;47fd&#45;ace2&#45;b28e90c1da09 -->
<g id="node23" class="node"><title>b279873a&#45;ec7d&#45;47fd&#45;ace2&#45;b28e90c1da09</title>
<polygon fill="cornsilk" stroke="black" points="250.5,-540 134.5,-540 134.5,-504 250.5,-504 250.5,-540"/>
<text text-anchor="middle" x="192.5" y="-518.3" font-family="Helvetica,sans-Serif" font-size="14.00">DISPLAY CELL</text>
</g>
<!-- 8e99f13d&#45;feea&#45;430a&#45;bd82&#45;86784fd9d3ae&#45;&gt;b279873a&#45;ec7d&#45;47fd&#45;ace2&#45;b28e90c1da09 -->
<g id="edge27" class="edge"><title>8e99f13d&#45;feea&#45;430a&#45;bd82&#45;86784fd9d3ae&#45;&gt;b279873a&#45;ec7d&#45;47fd&#45;ace2&#45;b28e90c1da09</title>
<path fill="none" stroke="black" d="M203.803,-792.387C201.815,-745.012 196.104,-608.896 193.647,-550.331"/>
<polygon fill="none" stroke="black" points="197.13,-549.863 193.214,-540.018 190.136,-550.156 197.13,-549.863"/>
<text text-anchor="middle" x="213.303" y="-781.187" font-family="Helvetica,sans-Serif" font-size="14.00">KB</text>
</g>
<!-- 45b88e4b&#45;6ba7&#45;4cca&#45;9cc0&#45;e640b6aec62d -->
<g id="node3" class="node"><title>45b88e4b&#45;6ba7&#45;4cca&#45;9cc0&#45;e640b6aec62d</title>
<polygon fill="cornsilk" stroke="black" points="288.5,-396 172.5,-396 172.5,-360 288.5,-360 288.5,-396"/>
<text text-anchor="middle" x="230.5" y="-374.3" font-family="Helvetica,sans-Serif" font-size="14.00">DISPLAY CELL</text>
</g>
<!-- 95859b8d&#45;1f20&#45;4a04&#45;b134&#45;56c02c32bd0f -->
<g id="node4" class="node"><title>95859b8d&#45;1f20&#45;4a04&#45;b134&#45;56c02c32bd0f</title>
<polygon fill="cornsilk" stroke="black" points="249.5,-324 217.158,-306 249.5,-288 281.842,-306 249.5,-324"/>
<text text-anchor="middle" x="249.5" y="-302.3" font-family="Helvetica,sans-Serif" font-size="14.00">AK</text>
</g>
<!-- 45b88e4b&#45;6ba7&#45;4cca&#45;9cc0&#45;e640b6aec62d&#45;&gt;95859b8d&#45;1f20&#45;4a04&#45;b134&#45;56c02c32bd0f -->
<g id="edge2" class="edge"><title>45b88e4b&#45;6ba7&#45;4cca&#45;9cc0&#45;e640b6aec62d&#45;&gt;95859b8d&#45;1f20&#45;4a04&#45;b134&#45;56c02c32bd0f</title>
<path fill="none" stroke="black" d="M235.197,-359.697C237.464,-351.343 240.227,-341.163 242.718,-331.986"/>
<polygon fill="none" stroke="black" points="246.132,-332.77 245.374,-322.202 239.376,-330.936 246.132,-332.77"/>
</g>
<!-- 95859b8d&#45;1f20&#45;4a04&#45;b134&#45;56c02c32bd0f&#45;&gt;07a9fdf9&#45;578e&#45;4a50&#45;87c7&#45;806e2163020a -->
<g id="edge9" class="edge"><title>95859b8d&#45;1f20&#45;4a04&#45;b134&#45;56c02c32bd0f&#45;&gt;07a9fdf9&#45;578e&#45;4a50&#45;87c7&#45;806e2163020a</title>
<path fill="none" stroke="black" d="M262.139,-317.432C273.188,-327.26 288.789,-342.982 297.5,-360 315.931,-396.004 316.5,-408.553 316.5,-449 316.5,-739 316.5,-739 316.5,-739 316.5,-779.36 308.866,-825.608 303.276,-854.064"/>
<polygon fill="none" stroke="black" points="299.808,-853.553 301.254,-864.049 306.669,-854.943 299.808,-853.553"/>
<text text-anchor="middle" x="289.139" y="-321.232" font-family="Helvetica,sans-Serif" font-size="14.00">NO KEY</text>
</g>
<!-- 1949edf1&#45;eb02&#45;4747&#45;9b41&#45;4385c00671ed -->
<g id="node11" class="node"><title>1949edf1&#45;eb02&#45;4747&#45;9b41&#45;4385c00671ed</title>
<polygon fill="cornsilk" stroke="black" points="288,-252 211,-252 211,-216 288,-216 288,-252"/>
<text text-anchor="middle" x="249.5" y="-230.3" font-family="Helvetica,sans-Serif" font-size="14.00">GET KEY</text>
</g>
<!-- 95859b8d&#45;1f20&#45;4a04&#45;b134&#45;56c02c32bd0f&#45;&gt;1949edf1&#45;eb02&#45;4747&#45;9b41&#45;4385c00671ed -->
<g id="edge8" class="edge"><title>95859b8d&#45;1f20&#45;4a04&#45;b134&#45;56c02c32bd0f&#45;&gt;1949edf1&#45;eb02&#45;4747&#45;9b41&#45;4385c00671ed</title>
<path fill="none" stroke="black" d="M249.5,-287.697C249.5,-279.983 249.5,-270.712 249.5,-262.112"/>
<polygon fill="none" stroke="black" points="253,-262.104 249.5,-252.104 246,-262.104 253,-262.104"/>
</g>
<!-- 8af63bf8&#45;e2a8&#45;4829&#45;ac13&#45;627eac0e3b02 -->
<g id="node5" class="node"><title>8af63bf8&#45;e2a8&#45;4829&#45;ac13&#45;627eac0e3b02</title>
<polygon fill="cornsilk" stroke="black" points="394.5,-972 200.5,-972 200.5,-936 394.5,-936 394.5,-972"/>
<text text-anchor="middle" x="297.5" y="-950.3" font-family="Helvetica,sans-Serif" font-size="14.00">BIT RATE MEASUREMENT</text>
</g>
<!-- 8af63bf8&#45;e2a8&#45;4829&#45;ac13&#45;627eac0e3b02&#45;&gt;07a9fdf9&#45;578e&#45;4a50&#45;87c7&#45;806e2163020a -->
<g id="edge3" class="edge"><title>8af63bf8&#45;e2a8&#45;4829&#45;ac13&#45;627eac0e3b02&#45;&gt;07a9fdf9&#45;578e&#45;4a50&#45;87c7&#45;806e2163020a</title>
<path fill="none" stroke="black" d="M297.5,-935.697C297.5,-927.983 297.5,-918.712 297.5,-910.112"/>
<polygon fill="none" stroke="black" points="301,-910.104 297.5,-900.104 294,-910.104 301,-910.104"/>
</g>
<!-- ee14f676&#45;8ce8&#45;4189&#45;9f73&#45;a518dc991840 -->
<g id="node6" class="node"><title>ee14f676&#45;8ce8&#45;4189&#45;9f73&#45;a518dc991840</title>
<polygon fill="cornsilk" stroke="black" points="262.5,-36 230.158,-18 262.5,-3.55271e-15 294.842,-18 262.5,-36"/>
<text text-anchor="middle" x="262.5" y="-14.3" font-family="Helvetica,sans-Serif" font-size="14.00">AK</text>
</g>
<!-- ee14f676&#45;8ce8&#45;4189&#45;9f73&#45;a518dc991840&#45;&gt;07a9fdf9&#45;578e&#45;4a50&#45;87c7&#45;806e2163020a -->
<g id="edge5" class="edge"><title>ee14f676&#45;8ce8&#45;4189&#45;9f73&#45;a518dc991840&#45;&gt;07a9fdf9&#45;578e&#45;4a50&#45;87c7&#45;806e2163020a</title>
<path fill="none" stroke="black" d="M278.149,-27.438C293.46,-36.4853 316.343,-52.2513 329.5,-72 352.28,-106.193 354.5,-119.914 354.5,-161 354.5,-739 354.5,-739 354.5,-739 354.5,-782.438 331.245,-828.318 314.443,-855.799"/>
<polygon fill="none" stroke="black" points="311.404,-854.057 309.035,-864.384 317.326,-857.788 311.404,-854.057"/>
<text text-anchor="middle" x="305.149" y="-31.238" font-family="Helvetica,sans-Serif" font-size="14.00">NO KEY</text>
</g>
<!-- 6a713cc5&#45;512e&#45;43c8&#45;bb4c&#45;7f9f972863df -->
<g id="node7" class="node"><title>6a713cc5&#45;512e&#45;43c8&#45;bb4c&#45;7f9f972863df</title>
<polygon fill="cornsilk" stroke="black" points="320.5,-108 204.5,-108 204.5,-72 320.5,-72 320.5,-108"/>
<text text-anchor="middle" x="262.5" y="-86.3" font-family="Helvetica,sans-Serif" font-size="14.00">DISPLAY CELL</text>
</g>
<!-- ee14f676&#45;8ce8&#45;4189&#45;9f73&#45;a518dc991840&#45;&gt;6a713cc5&#45;512e&#45;43c8&#45;bb4c&#45;7f9f972863df -->
<g id="edge4" class="edge"><title>ee14f676&#45;8ce8&#45;4189&#45;9f73&#45;a518dc991840&#45;&gt;6a713cc5&#45;512e&#45;43c8&#45;bb4c&#45;7f9f972863df</title>
<path fill="none" stroke="black" d="M268.064,-33.279C269.132,-41.4439 269.478,-51.9598 269.105,-61.6524"/>
<polygon fill="none" stroke="black" points="265.608,-61.4806 268.416,-71.6966 272.592,-61.9595 265.608,-61.4806"/>
</g>
<!-- 6a713cc5&#45;512e&#45;43c8&#45;bb4c&#45;7f9f972863df&#45;&gt;ee14f676&#45;8ce8&#45;4189&#45;9f73&#45;a518dc991840 -->
<g id="edge15" class="edge"><title>6a713cc5&#45;512e&#45;43c8&#45;bb4c&#45;7f9f972863df&#45;&gt;ee14f676&#45;8ce8&#45;4189&#45;9f73&#45;a518dc991840</title>
<path fill="none" stroke="black" d="M256.584,-71.6966C255.708,-63.1996 255.522,-52.8141 256.027,-43.5161"/>
<polygon fill="none" stroke="black" points="259.537,-43.5496 256.936,-33.279 252.565,-42.9299 259.537,-43.5496"/>
</g>
<!-- 3f15bb3e&#45;7c49&#45;4d09&#45;ae3d&#45;2202b8df1960 -->
<g id="node8" class="node"><title>3f15bb3e&#45;7c49&#45;4d09&#45;ae3d&#45;2202b8df1960</title>
<polygon fill="cornsilk" stroke="black" points="307,-180 192,-180 192,-144 307,-144 307,-180"/>
<text text-anchor="middle" x="249.5" y="-158.3" font-family="Helvetica,sans-Serif" font-size="14.00">EXECUTE KEY</text>
</g>
<!-- 3f15bb3e&#45;7c49&#45;4d09&#45;ae3d&#45;2202b8df1960&#45;&gt;6a713cc5&#45;512e&#45;43c8&#45;bb4c&#45;7f9f972863df -->
<g id="edge6" class="edge"><title>3f15bb3e&#45;7c49&#45;4d09&#45;ae3d&#45;2202b8df1960&#45;&gt;6a713cc5&#45;512e&#45;43c8&#45;bb4c&#45;7f9f972863df</title>
<path fill="none" stroke="black" d="M252.713,-143.697C254.146,-135.983 255.868,-126.712 257.465,-118.112"/>
<polygon fill="none" stroke="black" points="260.939,-118.575 259.323,-108.104 254.056,-117.297 260.939,-118.575"/>
</g>
<!-- f36543ec&#45;2be5&#45;4ada&#45;af4e&#45;3a57369048d8 -->
<g id="node9" class="node"><title>f36543ec&#45;2be5&#45;4ada&#45;af4e&#45;3a57369048d8</title>
<polygon fill="cornsilk" stroke="black" points="175,-108 0,-108 0,-72 175,-72 175,-108"/>
<text text-anchor="middle" x="87.5" y="-86.3" font-family="Helvetica,sans-Serif" font-size="14.00">PROCESS G/RUN KEYS</text>
</g>
<!-- 3f15bb3e&#45;7c49&#45;4d09&#45;ae3d&#45;2202b8df1960&#45;&gt;f36543ec&#45;2be5&#45;4ada&#45;af4e&#45;3a57369048d8 -->
<g id="edge7" class="edge"><title>3f15bb3e&#45;7c49&#45;4d09&#45;ae3d&#45;2202b8df1960&#45;&gt;f36543ec&#45;2be5&#45;4ada&#45;af4e&#45;3a57369048d8</title>
<path fill="none" stroke="black" d="M209.87,-143.876C187.724,-134.307 159.937,-122.3 136.442,-112.148"/>
<polygon fill="none" stroke="black" points="137.569,-108.822 127.001,-108.068 134.792,-115.248 137.569,-108.822"/>
<text text-anchor="middle" x="194.37" y="-132.676" font-family="Helvetica,sans-Serif" font-size="14.00">RUN</text>
</g>
<!-- a60f42b4&#45;054f&#45;4464&#45;8568&#45;f74bc0697250 -->
<g id="node10" class="node"><title>a60f42b4&#45;054f&#45;4464&#45;8568&#45;f74bc0697250</title>
<ellipse fill="cornsilk" stroke="black" cx="87.5" cy="-18" rx="32.4942" ry="18"/>
<text text-anchor="middle" x="87.5" y="-14.3" font-family="Helvetica,sans-Serif" font-size="14.00">EXIT</text>
</g>
<!-- f36543ec&#45;2be5&#45;4ada&#45;af4e&#45;3a57369048d8&#45;&gt;a60f42b4&#45;054f&#45;4464&#45;8568&#45;f74bc0697250 -->
<g id="edge14" class="edge"><title>f36543ec&#45;2be5&#45;4ada&#45;af4e&#45;3a57369048d8&#45;&gt;a60f42b4&#45;054f&#45;4464&#45;8568&#45;f74bc0697250</title>
<path fill="none" stroke="black" d="M87.5,-71.6966C87.5,-63.9827 87.5,-54.7125 87.5,-46.1124"/>
<polygon fill="none" stroke="black" points="91.0001,-46.1043 87.5,-36.1043 84.0001,-46.1044 91.0001,-46.1043"/>
</g>
<!-- 1949edf1&#45;eb02&#45;4747&#45;9b41&#45;4385c00671ed&#45;&gt;3f15bb3e&#45;7c49&#45;4d09&#45;ae3d&#45;2202b8df1960 -->
<g id="edge29" class="edge"><title>1949edf1&#45;eb02&#45;4747&#45;9b41&#45;4385c00671ed&#45;&gt;3f15bb3e&#45;7c49&#45;4d09&#45;ae3d&#45;2202b8df1960</title>
<path fill="none" stroke="black" d="M249.5,-215.697C249.5,-207.983 249.5,-198.712 249.5,-190.112"/>
<polygon fill="none" stroke="black" points="253,-190.104 249.5,-180.104 246,-190.104 253,-190.104"/>
</g>
<!-- 768b0b98&#45;a3cd&#45;48e0&#45;b5b0&#45;d51baeda581e -->
<g id="node12" class="node"><title>768b0b98&#45;a3cd&#45;48e0&#45;b5b0&#45;d51baeda581e</title>
<polygon fill="cornsilk" stroke="black" points="234.5,-1044 202.158,-1026 234.5,-1008 266.842,-1026 234.5,-1044"/>
<text text-anchor="middle" x="234.5" y="-1022.3" font-family="Helvetica,sans-Serif" font-size="14.00">KB</text>
</g>
<!-- 768b0b98&#45;a3cd&#45;48e0&#45;b5b0&#45;d51baeda581e&#45;&gt;07a9fdf9&#45;578e&#45;4a50&#45;87c7&#45;806e2163020a -->
<g id="edge11" class="edge"><title>768b0b98&#45;a3cd&#45;48e0&#45;b5b0&#45;d51baeda581e&#45;&gt;07a9fdf9&#45;578e&#45;4a50&#45;87c7&#45;806e2163020a</title>
<path fill="none" stroke="black" d="M222.561,-1014.49C204.698,-997.458 174.81,-963.005 191.5,-936 204.786,-914.503 229.723,-901.434 252.074,-893.654"/>
<polygon fill="none" stroke="black" points="253.329,-896.927 261.78,-890.537 251.189,-890.262 253.329,-896.927"/>
<text text-anchor="middle" x="213.061" y="-1003.29" font-family="Helvetica,sans-Serif" font-size="14.00">KB</text>
</g>
<!-- 768b0b98&#45;a3cd&#45;48e0&#45;b5b0&#45;d51baeda581e&#45;&gt;8af63bf8&#45;e2a8&#45;4829&#45;ac13&#45;627eac0e3b02 -->
<g id="edge10" class="edge"><title>768b0b98&#45;a3cd&#45;48e0&#45;b5b0&#45;d51baeda581e&#45;&gt;8af63bf8&#45;e2a8&#45;4829&#45;ac13&#45;627eac0e3b02</title>
<path fill="none" stroke="black" d="M244.903,-1013.44C253.138,-1004.29 264.933,-991.186 275.267,-979.703"/>
<polygon fill="none" stroke="black" points="278.038,-981.856 282.126,-972.082 272.835,-977.174 278.038,-981.856"/>
<text text-anchor="middle" x="258.903" y="-1002.24" font-family="Helvetica,sans-Serif" font-size="14.00">TTY</text>
</g>
<!-- 239fda16&#45;a94d&#45;4d94&#45;b86e&#45;2ce78db291de -->
<g id="node14" class="node"><title>239fda16&#45;a94d&#45;4d94&#45;b86e&#45;2ce78db291de</title>
<polygon fill="cornsilk" stroke="black" points="176,-684 39,-684 39,-648 176,-648 176,-684"/>
<text text-anchor="middle" x="107.5" y="-662.3" font-family="Helvetica,sans-Serif" font-size="14.00">GET CHARACTER</text>
</g>
<!-- 40866d27&#45;136c&#45;429e&#45;9c18&#45;2dd2c62f50b7&#45;&gt;239fda16&#45;a94d&#45;4d94&#45;b86e&#45;2ce78db291de -->
<g id="edge12" class="edge"><title>40866d27&#45;136c&#45;429e&#45;9c18&#45;2dd2c62f50b7&#45;&gt;239fda16&#45;a94d&#45;4d94&#45;b86e&#45;2ce78db291de</title>
<path fill="none" stroke="black" d="M114.275,-719.697C113.283,-711.983 112.092,-702.712 110.986,-694.112"/>
<polygon fill="none" stroke="black" points="114.446,-693.576 109.699,-684.104 107.503,-694.469 114.446,-693.576"/>
</g>
<!-- cebbbe5e&#45;7adb&#45;4edd&#45;98e0&#45;818ee22b1139 -->
<g id="node22" class="node"><title>cebbbe5e&#45;7adb&#45;4edd&#45;98e0&#45;818ee22b1139</title>
<polygon fill="cornsilk" stroke="black" points="118.5,-612 86.1581,-594 118.5,-576 150.842,-594 118.5,-612"/>
<text text-anchor="middle" x="118.5" y="-590.3" font-family="Helvetica,sans-Serif" font-size="14.00">KB</text>
</g>
<!-- 239fda16&#45;a94d&#45;4d94&#45;b86e&#45;2ce78db291de&#45;&gt;cebbbe5e&#45;7adb&#45;4edd&#45;98e0&#45;818ee22b1139 -->
<g id="edge22" class="edge"><title>239fda16&#45;a94d&#45;4d94&#45;b86e&#45;2ce78db291de&#45;&gt;cebbbe5e&#45;7adb&#45;4edd&#45;98e0&#45;818ee22b1139</title>
<path fill="none" stroke="black" d="M110.219,-647.697C111.499,-639.549 113.053,-629.664 114.466,-620.668"/>
<polygon fill="none" stroke="black" points="117.942,-621.093 116.037,-610.671 111.027,-620.007 117.942,-621.093"/>
</g>
<!-- 37fba769&#45;2085&#45;4cf2&#45;85a2&#45;b5f15be66641 -->
<g id="node15" class="node"><title>37fba769&#45;2085&#45;4cf2&#45;85a2&#45;b5f15be66641</title>
<ellipse fill="cornsilk" stroke="black" cx="499.5" cy="-1026" rx="28.6953" ry="18"/>
<text text-anchor="middle" x="499.5" y="-1022.3" font-family="Helvetica,sans-Serif" font-size="14.00">NMI</text>
</g>
<!-- b374b095&#45;0863&#45;49a7&#45;b051&#45;893b16181f11 -->
<g id="node16" class="node"><title>b374b095&#45;0863&#45;49a7&#45;b051&#45;893b16181f11</title>
<polygon fill="cornsilk" stroke="black" points="586.5,-972 412.5,-972 412.5,-936 586.5,-936 586.5,-972"/>
<text text-anchor="middle" x="499.5" y="-950.3" font-family="Helvetica,sans-Serif" font-size="14.00">SAVE MPU REGISTERS</text>
</g>
<!-- 37fba769&#45;2085&#45;4cf2&#45;85a2&#45;b5f15be66641&#45;&gt;b374b095&#45;0863&#45;49a7&#45;b051&#45;893b16181f11 -->
<g id="edge13" class="edge"><title>37fba769&#45;2085&#45;4cf2&#45;85a2&#45;b5f15be66641&#45;&gt;b374b095&#45;0863&#45;49a7&#45;b051&#45;893b16181f11</title>
<path fill="none" stroke="black" d="M499.5,-1007.7C499.5,-999.983 499.5,-990.712 499.5,-982.112"/>
<polygon fill="none" stroke="black" points="503,-982.104 499.5,-972.104 496,-982.104 503,-982.104"/>
</g>
<!-- b374b095&#45;0863&#45;49a7&#45;b051&#45;893b16181f11&#45;&gt;07a9fdf9&#45;578e&#45;4a50&#45;87c7&#45;806e2163020a -->
<g id="edge21" class="edge"><title>b374b095&#45;0863&#45;49a7&#45;b051&#45;893b16181f11&#45;&gt;07a9fdf9&#45;578e&#45;4a50&#45;87c7&#45;806e2163020a</title>
<path fill="none" stroke="black" d="M450.344,-935.966C415.842,-924.009 370.266,-908.216 337.884,-896.995"/>
<polygon fill="none" stroke="black" points="338.88,-893.635 328.285,-893.668 336.588,-900.25 338.88,-893.635"/>
</g>
<!-- bb466645&#45;5346&#45;49b1&#45;918d&#45;3c376f4aa998 -->
<g id="node17" class="node"><title>bb466645&#45;5346&#45;49b1&#45;918d&#45;3c376f4aa998</title>
<ellipse fill="cornsilk" stroke="black" cx="234.5" cy="-1170" rx="28.6953" ry="18"/>
<text text-anchor="middle" x="234.5" y="-1166.3" font-family="Helvetica,sans-Serif" font-size="14.00">RST</text>
</g>
<!-- af787914&#45;97fe&#45;4037&#45;ac23&#45;08780d79270e -->
<g id="node18" class="node"><title>af787914&#45;97fe&#45;4037&#45;ac23&#45;08780d79270e</title>
<polygon fill="cornsilk" stroke="black" points="280,-1116 189,-1116 189,-1080 280,-1080 280,-1116"/>
<text text-anchor="middle" x="234.5" y="-1094.3" font-family="Helvetica,sans-Serif" font-size="14.00">INITIALIZE</text>
</g>
<!-- bb466645&#45;5346&#45;49b1&#45;918d&#45;3c376f4aa998&#45;&gt;af787914&#45;97fe&#45;4037&#45;ac23&#45;08780d79270e -->
<g id="edge16" class="edge"><title>bb466645&#45;5346&#45;49b1&#45;918d&#45;3c376f4aa998&#45;&gt;af787914&#45;97fe&#45;4037&#45;ac23&#45;08780d79270e</title>
<path fill="none" stroke="black" d="M234.5,-1151.7C234.5,-1143.98 234.5,-1134.71 234.5,-1126.11"/>
<polygon fill="none" stroke="black" points="238,-1126.1 234.5,-1116.1 231,-1126.1 238,-1126.1"/>
</g>
<!-- af787914&#45;97fe&#45;4037&#45;ac23&#45;08780d79270e&#45;&gt;768b0b98&#45;a3cd&#45;48e0&#45;b5b0&#45;d51baeda581e -->
<g id="edge17" class="edge"><title>af787914&#45;97fe&#45;4037&#45;ac23&#45;08780d79270e&#45;&gt;768b0b98&#45;a3cd&#45;48e0&#45;b5b0&#45;d51baeda581e</title>
<path fill="none" stroke="black" d="M234.5,-1079.7C234.5,-1071.98 234.5,-1062.71 234.5,-1054.11"/>
<polygon fill="none" stroke="black" points="238,-1054.1 234.5,-1044.1 231,-1054.1 238,-1054.1"/>
</g>
<!-- 1a8a9d56&#45;a415&#45;4670&#45;a531&#45;a5bfc2bbe18f -->
<g id="node19" class="node"><title>1a8a9d56&#45;a415&#45;4670&#45;a531&#45;a5bfc2bbe18f</title>
<polygon fill="cornsilk" stroke="black" points="116,-540 1,-540 1,-504 116,-504 116,-540"/>
<text text-anchor="middle" x="58.5" y="-518.3" font-family="Helvetica,sans-Serif" font-size="14.00">EXECUTE KEY</text>
</g>
<!-- 1a8a9d56&#45;a415&#45;4670&#45;a531&#45;a5bfc2bbe18f&#45;&gt;f36543ec&#45;2be5&#45;4ada&#45;af4e&#45;3a57369048d8 -->
<g id="edge18" class="edge"><title>1a8a9d56&#45;a415&#45;4670&#45;a531&#45;a5bfc2bbe18f&#45;&gt;f36543ec&#45;2be5&#45;4ada&#45;af4e&#45;3a57369048d8</title>
<path fill="none" stroke="black" d="M63.1544,-503.658C69.8751,-477.049 81.5,-424.453 81.5,-379 81.5,-379 81.5,-379 81.5,-233 81.5,-192.96 83.9107,-146.627 85.676,-118.065"/>
<polygon fill="none" stroke="black" points="89.1718,-118.242 86.3146,-108.039 82.1859,-117.797 89.1718,-118.242"/>
<text text-anchor="middle" x="57.1544" y="-492.458" font-family="Helvetica,sans-Serif" font-size="14.00">G</text>
</g>
<!-- 1a8a9d56&#45;a415&#45;4670&#45;a531&#45;a5bfc2bbe18f&#45;&gt;239fda16&#45;a94d&#45;4d94&#45;b86e&#45;2ce78db291de -->
<g id="edge19" class="edge"><title>1a8a9d56&#45;a415&#45;4670&#45;a531&#45;a5bfc2bbe18f&#45;&gt;239fda16&#45;a94d&#45;4d94&#45;b86e&#45;2ce78db291de</title>
<path fill="none" stroke="black" d="M60.583,-540.17C63.1584,-558.424 68.3628,-587.922 77.5,-612 81.0263,-621.292 86.0077,-630.906 90.9003,-639.353"/>
<polygon fill="none" stroke="black" points="87.9442,-641.229 96.1013,-647.99 93.9409,-637.618 87.9442,-641.229"/>
</g>
<!-- 2d0cfb20&#45;cb24&#45;4bb6&#45;8bfd&#45;1ecef2d1b26b -->
<g id="node20" class="node"><title>2d0cfb20&#45;cb24&#45;4bb6&#45;8bfd&#45;1ecef2d1b26b</title>
<ellipse fill="cornsilk" stroke="black" cx="355.5" cy="-1170" rx="27.0966" ry="18"/>
<text text-anchor="middle" x="355.5" y="-1166.3" font-family="Helvetica,sans-Serif" font-size="14.00">IRQ</text>
</g>
<!-- 9b84f9cc&#45;8744&#45;49a6&#45;8987&#45;ac8f70fcab95 -->
<g id="node21" class="node"><title>9b84f9cc&#45;8744&#45;49a6&#45;8987&#45;ac8f70fcab95</title>
<polygon fill="cornsilk" stroke="black" points="413,-1116 302,-1116 298,-1112 298,-1080 409,-1080 413,-1084 413,-1116"/>
<polyline fill="none" stroke="black" points="409,-1112 298,-1112 "/>
<polyline fill="none" stroke="black" points="409,-1112 409,-1080 "/>
<polyline fill="none" stroke="black" points="409,-1112 413,-1116 "/>
<text text-anchor="middle" x="355.5" y="-1094.3" font-family="Helvetica,sans-Serif" font-size="14.00">USER OPTION</text>
</g>
<!-- 2d0cfb20&#45;cb24&#45;4bb6&#45;8bfd&#45;1ecef2d1b26b&#45;&gt;9b84f9cc&#45;8744&#45;49a6&#45;8987&#45;ac8f70fcab95 -->
<g id="edge20" class="edge"><title>2d0cfb20&#45;cb24&#45;4bb6&#45;8bfd&#45;1ecef2d1b26b&#45;&gt;9b84f9cc&#45;8744&#45;49a6&#45;8987&#45;ac8f70fcab95</title>
<path fill="none" stroke="black" d="M355.5,-1151.7C355.5,-1143.98 355.5,-1134.71 355.5,-1126.11"/>
<polygon fill="none" stroke="black" points="359,-1126.1 355.5,-1116.1 352,-1126.1 359,-1126.1"/>
</g>
<!-- cebbbe5e&#45;7adb&#45;4edd&#45;98e0&#45;818ee22b1139&#45;&gt;1a8a9d56&#45;a415&#45;4670&#45;a531&#45;a5bfc2bbe18f -->
<g id="edge23" class="edge"><title>cebbbe5e&#45;7adb&#45;4edd&#45;98e0&#45;818ee22b1139&#45;&gt;1a8a9d56&#45;a415&#45;4670&#45;a531&#45;a5bfc2bbe18f</title>
<path fill="none" stroke="black" d="M108.592,-581.441C100.75,-572.291 89.5164,-559.186 79.6744,-547.703"/>
<polygon fill="none" stroke="black" points="82.307,-545.397 73.1417,-540.082 76.9922,-549.952 82.307,-545.397"/>
<text text-anchor="middle" x="94.5922" y="-570.241" font-family="Helvetica,sans-Serif" font-size="14.00">TTY</text>
</g>
<!-- cebbbe5e&#45;7adb&#45;4edd&#45;98e0&#45;818ee22b1139&#45;&gt;b279873a&#45;ec7d&#45;47fd&#45;ace2&#45;b28e90c1da09 -->
<g id="edge24" class="edge"><title>cebbbe5e&#45;7adb&#45;4edd&#45;98e0&#45;818ee22b1139&#45;&gt;b279873a&#45;ec7d&#45;47fd&#45;ace2&#45;b28e90c1da09</title>
<path fill="none" stroke="black" d="M130.062,-582.062C139.892,-572.764 154.364,-559.075 166.901,-547.216"/>
<polygon fill="none" stroke="black" points="169.538,-549.539 174.398,-540.124 164.728,-544.453 169.538,-549.539"/>
<text text-anchor="middle" x="120.562" y="-570.862" font-family="Helvetica,sans-Serif" font-size="14.00">KB</text>
</g>
<!-- ca630141&#45;e3a3&#45;451a&#45;82f8&#45;afe6f37a3ea5 -->
<g id="node24" class="node"><title>ca630141&#45;e3a3&#45;451a&#45;82f8&#45;afe6f37a3ea5</title>
<polygon fill="cornsilk" stroke="black" points="230.5,-468 198.158,-450 230.5,-432 262.842,-450 230.5,-468"/>
<text text-anchor="middle" x="230.5" y="-446.3" font-family="Helvetica,sans-Serif" font-size="14.00">AK</text>
</g>
<!-- b279873a&#45;ec7d&#45;47fd&#45;ace2&#45;b28e90c1da09&#45;&gt;ca630141&#45;e3a3&#45;451a&#45;82f8&#45;afe6f37a3ea5 -->
<g id="edge30" class="edge"><title>b279873a&#45;ec7d&#45;47fd&#45;ace2&#45;b28e90c1da09&#45;&gt;ca630141&#45;e3a3&#45;451a&#45;82f8&#45;afe6f37a3ea5</title>
<path fill="none" stroke="black" d="M201.893,-503.697C206.89,-494.492 213.089,-483.072 218.438,-473.219"/>
<polygon fill="none" stroke="black" points="221.544,-474.834 223.239,-464.375 215.392,-471.494 221.544,-474.834"/>
</g>
<!-- ca630141&#45;e3a3&#45;451a&#45;82f8&#45;afe6f37a3ea5&#45;&gt;07a9fdf9&#45;578e&#45;4a50&#45;87c7&#45;806e2163020a -->
<g id="edge26" class="edge"><title>ca630141&#45;e3a3&#45;451a&#45;82f8&#45;afe6f37a3ea5&#45;&gt;07a9fdf9&#45;578e&#45;4a50&#45;87c7&#45;806e2163020a</title>
<path fill="none" stroke="black" d="M238.744,-463.569C245.249,-474.007 254.097,-489.447 259.5,-504 273.578,-541.918 278.5,-552.553 278.5,-593 278.5,-739 278.5,-739 278.5,-739 278.5,-779.36 286.134,-825.608 291.724,-854.064"/>
<polygon fill="none" stroke="black" points="288.331,-854.943 293.746,-864.049 295.192,-853.553 288.331,-854.943"/>
<text text-anchor="middle" x="265.744" y="-467.369" font-family="Helvetica,sans-Serif" font-size="14.00">NO KEY</text>
</g>
<!-- ca630141&#45;e3a3&#45;451a&#45;82f8&#45;afe6f37a3ea5&#45;&gt;45b88e4b&#45;6ba7&#45;4cca&#45;9cc0&#45;e640b6aec62d -->
<g id="edge25" class="edge"><title>ca630141&#45;e3a3&#45;451a&#45;82f8&#45;afe6f37a3ea5&#45;&gt;45b88e4b&#45;6ba7&#45;4cca&#45;9cc0&#45;e640b6aec62d</title>
<path fill="none" stroke="black" d="M230.5,-431.697C230.5,-423.983 230.5,-414.712 230.5,-406.112"/>
<polygon fill="none" stroke="black" points="234,-406.104 230.5,-396.104 227,-406.104 234,-406.104"/>
</g>
</g>
</svg>
