<?xml version="1.0" encoding="UTF-8" standalone="no"?>
<!DOCTYPE svg PUBLIC "-//W3C//DTD SVG 1.1//EN"
 "http://www.w3.org/Graphics/SVG/1.1/DTD/svg11.dtd">
<!-- Generated by graphviz version 2.43.0 (0)
 -->
<!-- Title: %3 Pages: 1 -->
<svg width="1063pt" height="908pt"
 viewBox="0.00 0.00 1062.78 908.00" xmlns="http://www.w3.org/2000/svg" xmlns:xlink="http://www.w3.org/1999/xlink">
<g id="graph0" class="graph" transform="scale(1 1) rotate(0) translate(4 904)">
<title>%3</title>
<polygon fill="white" stroke="transparent" points="-4,4 -4,-904 1058.78,-904 1058.78,4 -4,4"/>
<!-- c01a1012&#45;be73&#45;48c7&#45;9f64&#45;a9233bc8d929 -->
<g id="node1" class="node">
<title>c01a1012&#45;be73&#45;48c7&#45;9f64&#45;a9233bc8d929</title>
<polygon fill="cornsilk" stroke="black" points="614.28,-900 581.93,-882 614.28,-864 646.62,-882 614.28,-900"/>
<text text-anchor="middle" x="614.28" y="-878.3" font-family="Helvetica,sans-Serif" font-size="14.00">KB</text>
</g>
<!-- 51b3665d&#45;efdb&#45;4e77&#45;8e80&#45;e4a3d4f1dcca -->
<g id="node2" class="node">
<title>51b3665d&#45;efdb&#45;4e77&#45;8e80&#45;e4a3d4f1dcca</title>
<polygon fill="cornsilk" stroke="black" points="172.78,-468 59.78,-468 59.78,-432 172.78,-432 172.78,-468"/>
<text text-anchor="middle" x="116.28" y="-446.3" font-family="Helvetica,sans-Serif" font-size="14.00">EXECUTE KEY</text>
</g>
<!-- c01a1012&#45;be73&#45;48c7&#45;9f64&#45;a9233bc8d929&#45;&gt;51b3665d&#45;efdb&#45;4e77&#45;8e80&#45;e4a3d4f1dcca -->
<g id="edge1" class="edge">
<title>c01a1012&#45;be73&#45;48c7&#45;9f64&#45;a9233bc8d929&#45;&gt;51b3665d&#45;efdb&#45;4e77&#45;8e80&#45;e4a3d4f1dcca</title>
<path fill="none" stroke="black" d="M588.04,-878.43C492.44,-868.36 168.28,-827.68 168.28,-739 168.28,-739 168.28,-739 168.28,-593 168.28,-550.49 147.47,-504.95 132.18,-477.22"/>
<polygon fill="none" stroke="black" points="135.03,-475.15 127.05,-468.19 128.95,-478.61 135.03,-475.15"/>
<text text-anchor="middle" x="575.54" y="-867.23" font-family="Helvetica,sans-Serif" font-size="14.00">TTY</text>
</g>
<!-- 6a58bcda&#45;1f37&#45;4549&#45;a6fc&#45;79d75d83794c -->
<g id="node3" class="node">
<title>6a58bcda&#45;1f37&#45;4549&#45;a6fc&#45;79d75d83794c</title>
<polygon fill="cornsilk" stroke="black" points="670.28,-828 558.28,-828 558.28,-792 670.28,-792 670.28,-828"/>
<text text-anchor="middle" x="614.28" y="-806.3" font-family="Helvetica,sans-Serif" font-size="14.00">DISPLAY CELL</text>
</g>
<!-- c01a1012&#45;be73&#45;48c7&#45;9f64&#45;a9233bc8d929&#45;&gt;6a58bcda&#45;1f37&#45;4549&#45;a6fc&#45;79d75d83794c -->
<g id="edge2" class="edge">
<title>c01a1012&#45;be73&#45;48c7&#45;9f64&#45;a9233bc8d929&#45;&gt;6a58bcda&#45;1f37&#45;4549&#45;a6fc&#45;79d75d83794c</title>
<path fill="none" stroke="black" d="M614.28,-863.7C614.28,-855.98 614.28,-846.71 614.28,-838.11"/>
<polygon fill="none" stroke="black" points="617.78,-838.1 614.28,-828.1 610.78,-838.1 617.78,-838.1"/>
<text text-anchor="middle" x="604.78" y="-852.5" font-family="Helvetica,sans-Serif" font-size="14.00">KB</text>
</g>
<!-- 6c05ac2a&#45;ffdf&#45;4451&#45;9ea6&#45;80bf67e86528 -->
<g id="node5" class="node">
<title>6c05ac2a&#45;ffdf&#45;4451&#45;9ea6&#45;80bf67e86528</title>
<polygon fill="cornsilk" stroke="black" points="740.28,-36 606.28,-36 606.28,0 740.28,0 740.28,-36"/>
<text text-anchor="middle" x="673.28" y="-14.3" font-family="Helvetica,sans-Serif" font-size="14.00">GET CHARACTER</text>
</g>
<!-- 51b3665d&#45;efdb&#45;4e77&#45;8e80&#45;e4a3d4f1dcca&#45;&gt;6c05ac2a&#45;ffdf&#45;4451&#45;9ea6&#45;80bf67e86528 -->
<g id="edge29" class="edge">
<title>51b3665d&#45;efdb&#45;4e77&#45;8e80&#45;e4a3d4f1dcca&#45;&gt;6c05ac2a&#45;ffdf&#45;4451&#45;9ea6&#45;80bf67e86528</title>
<path fill="none" stroke="black" d="M67.41,-431.95C50.13,-423.63 32.07,-411.9 20.28,-396 -3.83,-363.52 1.28,-347.45 1.28,-307 1.28,-307 1.28,-307 1.28,-161 1.28,-40.59 419.49,-21.79 596.07,-19.21"/>
<polygon fill="none" stroke="black" points="596.12,-22.71 606.07,-19.08 596.03,-15.72 596.12,-22.71"/>
</g>
<!-- 930c69cf&#45;e97d&#45;4221&#45;9b76&#45;1aefe551e0d2 -->
<g id="node9" class="node">
<title>930c69cf&#45;e97d&#45;4221&#45;9b76&#45;1aefe551e0d2</title>
<polygon fill="cornsilk" stroke="black" points="202.78,-396 29.78,-396 29.78,-360 202.78,-360 202.78,-396"/>
<text text-anchor="middle" x="116.28" y="-374.3" font-family="Helvetica,sans-Serif" font-size="14.00">PROCESS G/RUN KEYS</text>
</g>
<!-- 51b3665d&#45;efdb&#45;4e77&#45;8e80&#45;e4a3d4f1dcca&#45;&gt;930c69cf&#45;e97d&#45;4221&#45;9b76&#45;1aefe551e0d2 -->
<g id="edge28" class="edge">
<title>51b3665d&#45;efdb&#45;4e77&#45;8e80&#45;e4a3d4f1dcca&#45;&gt;930c69cf&#45;e97d&#45;4221&#45;9b76&#45;1aefe551e0d2</title>
<path fill="none" stroke="black" d="M116.28,-431.7C116.28,-423.98 116.28,-414.71 116.28,-406.11"/>
<polygon fill="none" stroke="black" points="119.78,-406.1 116.28,-396.1 112.78,-406.1 119.78,-406.1"/>
<text text-anchor="middle" x="110.78" y="-420.5" font-family="Helvetica,sans-Serif" font-size="14.00">G</text>
</g>
<!-- 4f2d165c&#45;8cb6&#45;42dc&#45;a079&#45;abd2499db047 -->
<g id="node6" class="node">
<title>4f2d165c&#45;8cb6&#45;42dc&#45;a079&#45;abd2499db047</title>
<polygon fill="cornsilk" stroke="black" points="399.28,-756 366.93,-738 399.28,-720 431.62,-738 399.28,-756"/>
<text text-anchor="middle" x="399.28" y="-734.3" font-family="Helvetica,sans-Serif" font-size="14.00">AK</text>
</g>
<!-- 6a58bcda&#45;1f37&#45;4549&#45;a6fc&#45;79d75d83794c&#45;&gt;4f2d165c&#45;8cb6&#45;42dc&#45;a079&#45;abd2499db047 -->
<g id="edge23" class="edge">
<title>6a58bcda&#45;1f37&#45;4549&#45;a6fc&#45;79d75d83794c&#45;&gt;4f2d165c&#45;8cb6&#45;42dc&#45;a079&#45;abd2499db047</title>
<path fill="none" stroke="black" d="M561.96,-791.97C520.05,-778.32 462.8,-759.68 428.58,-748.54"/>
<polygon fill="none" stroke="black" points="429.33,-745.11 418.74,-745.34 427.17,-751.76 429.33,-745.11"/>
</g>
<!-- 17741106&#45;73d4&#45;42a1&#45;b6df&#45;efd8a58b7d8d -->
<g id="node4" class="node">
<title>17741106&#45;73d4&#45;42a1&#45;b6df&#45;efd8a58b7d8d</title>
<polygon fill="cornsilk" stroke="black" points="723.78,-108 622.78,-108 622.78,-72 723.78,-72 723.78,-108"/>
<text text-anchor="middle" x="673.28" y="-86.3" font-family="Helvetica,sans-Serif" font-size="14.00">PRINT &quot;KIM&quot;</text>
</g>
<!-- 17741106&#45;73d4&#45;42a1&#45;b6df&#45;efd8a58b7d8d&#45;&gt;6c05ac2a&#45;ffdf&#45;4451&#45;9ea6&#45;80bf67e86528 -->
<g id="edge3" class="edge">
<title>17741106&#45;73d4&#45;42a1&#45;b6df&#45;efd8a58b7d8d&#45;&gt;6c05ac2a&#45;ffdf&#45;4451&#45;9ea6&#45;80bf67e86528</title>
<path fill="none" stroke="black" d="M673.28,-71.7C673.28,-63.98 673.28,-54.71 673.28,-46.11"/>
<polygon fill="none" stroke="black" points="676.78,-46.1 673.28,-36.1 669.78,-46.1 676.78,-46.1"/>
</g>
<!-- 6c05ac2a&#45;ffdf&#45;4451&#45;9ea6&#45;80bf67e86528&#45;&gt;c01a1012&#45;be73&#45;48c7&#45;9f64&#45;a9233bc8d929 -->
<g id="edge4" class="edge">
<title>6c05ac2a&#45;ffdf&#45;4451&#45;9ea6&#45;80bf67e86528&#45;&gt;c01a1012&#45;be73&#45;48c7&#45;9f64&#45;a9233bc8d929</title>
<path fill="none" stroke="black" d="M740.45,-29.31C811.45,-44.46 913.28,-80.27 913.28,-161 913.28,-739 913.28,-739 913.28,-739 913.28,-852.29 735.95,-875.31 654.42,-879.9"/>
<polygon fill="none" stroke="black" points="653.85,-876.42 644.04,-880.41 654.2,-883.41 653.85,-876.42"/>
</g>
<!-- fa6aa1b1&#45;c646&#45;4f42&#45;8f38&#45;ba2dd487c8ef -->
<g id="node7" class="node">
<title>fa6aa1b1&#45;c646&#45;4f42&#45;8f38&#45;ba2dd487c8ef</title>
<ellipse fill="cornsilk" stroke="black" cx="513.28" cy="-234" rx="38.99" ry="18"/>
<text text-anchor="middle" x="513.28" y="-230.3" font-family="Helvetica,sans-Serif" font-size="14.00">START</text>
</g>
<!-- 4f2d165c&#45;8cb6&#45;42dc&#45;a079&#45;abd2499db047&#45;&gt;fa6aa1b1&#45;c646&#45;4f42&#45;8f38&#45;ba2dd487c8ef -->
<g id="edge5" class="edge">
<title>4f2d165c&#45;8cb6&#45;42dc&#45;a079&#45;abd2499db047&#45;&gt;fa6aa1b1&#45;c646&#45;4f42&#45;8f38&#45;ba2dd487c8ef</title>
<path fill="none" stroke="black" d="M399.28,-719.95C399.28,-693.29 399.28,-640.11 399.28,-595 399.28,-595 399.28,-595 399.28,-377 399.28,-336.55 394.25,-320.54 418.28,-288 431.62,-269.93 453.06,-257.22 472.2,-248.78"/>
<polygon fill="none" stroke="black" points="473.76,-251.92 481.66,-244.86 471.08,-245.45 473.76,-251.92"/>
<text text-anchor="middle" x="372.78" y="-708.75" font-family="Helvetica,sans-Serif" font-size="14.00">NO KEY</text>
</g>
<!-- ce9c3f95&#45;bd16&#45;448e&#45;9c1a&#45;6e1b54e2d454 -->
<g id="node8" class="node">
<title>ce9c3f95&#45;bd16&#45;448e&#45;9c1a&#45;6e1b54e2d454</title>
<polygon fill="cornsilk" stroke="black" points="371.28,-684 259.28,-684 259.28,-648 371.28,-648 371.28,-684"/>
<text text-anchor="middle" x="315.28" y="-662.3" font-family="Helvetica,sans-Serif" font-size="14.00">DISPLAY CELL</text>
</g>
<!-- 4f2d165c&#45;8cb6&#45;42dc&#45;a079&#45;abd2499db047&#45;&gt;ce9c3f95&#45;bd16&#45;448e&#45;9c1a&#45;6e1b54e2d454 -->
<g id="edge6" class="edge">
<title>4f2d165c&#45;8cb6&#45;42dc&#45;a079&#45;abd2499db047&#45;&gt;ce9c3f95&#45;bd16&#45;448e&#45;9c1a&#45;6e1b54e2d454</title>
<path fill="none" stroke="black" d="M386.88,-726.67C375.56,-717.24 358.4,-702.94 343.72,-690.7"/>
<polygon fill="none" stroke="black" points="345.79,-687.87 335.87,-684.16 341.31,-693.25 345.79,-687.87"/>
</g>
<!-- 84d7cdbf&#45;6907&#45;4fbe&#45;b2d3&#45;9d4d46376eeb -->
<g id="node20" class="node">
<title>84d7cdbf&#45;6907&#45;4fbe&#45;b2d3&#45;9d4d46376eeb</title>
<polygon fill="cornsilk" stroke="black" points="673.28,-180 640.93,-162 673.28,-144 705.62,-162 673.28,-180"/>
<text text-anchor="middle" x="673.28" y="-158.3" font-family="Helvetica,sans-Serif" font-size="14.00">KB</text>
</g>
<!-- fa6aa1b1&#45;c646&#45;4f42&#45;8f38&#45;ba2dd487c8ef&#45;&gt;84d7cdbf&#45;6907&#45;4fbe&#45;b2d3&#45;9d4d46376eeb -->
<g id="edge14" class="edge">
<title>fa6aa1b1&#45;c646&#45;4f42&#45;8f38&#45;ba2dd487c8ef&#45;&gt;84d7cdbf&#45;6907&#45;4fbe&#45;b2d3&#45;9d4d46376eeb</title>
<path fill="none" stroke="black" d="M540.78,-220.97C570.48,-207.97 617.47,-187.42 646.77,-174.59"/>
<polygon fill="none" stroke="black" points="648.22,-177.78 655.98,-170.57 645.42,-171.37 648.22,-177.78"/>
</g>
<!-- 928fcff9&#45;e15c&#45;41cb&#45;b829&#45;81f094a277e6 -->
<g id="node15" class="node">
<title>928fcff9&#45;e15c&#45;41cb&#45;b829&#45;81f094a277e6</title>
<polygon fill="cornsilk" stroke="black" points="315.28,-612 282.93,-594 315.28,-576 347.62,-594 315.28,-612"/>
<text text-anchor="middle" x="315.28" y="-590.3" font-family="Helvetica,sans-Serif" font-size="14.00">AK</text>
</g>
<!-- ce9c3f95&#45;bd16&#45;448e&#45;9c1a&#45;6e1b54e2d454&#45;&gt;928fcff9&#45;e15c&#45;41cb&#45;b829&#45;81f094a277e6 -->
<g id="edge15" class="edge">
<title>ce9c3f95&#45;bd16&#45;448e&#45;9c1a&#45;6e1b54e2d454&#45;&gt;928fcff9&#45;e15c&#45;41cb&#45;b829&#45;81f094a277e6</title>
<path fill="none" stroke="black" d="M315.28,-647.7C315.28,-639.98 315.28,-630.71 315.28,-622.11"/>
<polygon fill="none" stroke="black" points="318.78,-622.1 315.28,-612.1 311.78,-622.1 318.78,-622.1"/>
</g>
<!-- 0698e119&#45;87f0&#45;4576&#45;89c8&#45;6ce5d0a13aff -->
<g id="node10" class="node">
<title>0698e119&#45;87f0&#45;4576&#45;89c8&#45;6ce5d0a13aff</title>
<ellipse fill="cornsilk" stroke="black" cx="116.28" cy="-306" rx="31.4" ry="18"/>
<text text-anchor="middle" x="116.28" y="-302.3" font-family="Helvetica,sans-Serif" font-size="14.00">EXIT</text>
</g>
<!-- 930c69cf&#45;e97d&#45;4221&#45;9b76&#45;1aefe551e0d2&#45;&gt;0698e119&#45;87f0&#45;4576&#45;89c8&#45;6ce5d0a13aff -->
<g id="edge7" class="edge">
<title>930c69cf&#45;e97d&#45;4221&#45;9b76&#45;1aefe551e0d2&#45;&gt;0698e119&#45;87f0&#45;4576&#45;89c8&#45;6ce5d0a13aff</title>
<path fill="none" stroke="black" d="M116.28,-359.7C116.28,-351.98 116.28,-342.71 116.28,-334.11"/>
<polygon fill="none" stroke="black" points="119.78,-334.1 116.28,-324.1 112.78,-334.1 119.78,-334.1"/>
</g>
<!-- 7f350d79&#45;ea3c&#45;46e3&#45;976d&#45;8e80f4717b39 -->
<g id="node11" class="node">
<title>7f350d79&#45;ea3c&#45;46e3&#45;976d&#45;8e80f4717b39</title>
<ellipse fill="cornsilk" stroke="black" cx="689.28" cy="-522" rx="28.7" ry="18"/>
<text text-anchor="middle" x="689.28" y="-518.3" font-family="Helvetica,sans-Serif" font-size="14.00">RST</text>
</g>
<!-- 9aedcbe4&#45;54de&#45;4c33&#45;b6d3&#45;b643de688c5a -->
<g id="node12" class="node">
<title>9aedcbe4&#45;54de&#45;4c33&#45;b6d3&#45;b643de688c5a</title>
<polygon fill="cornsilk" stroke="black" points="733.78,-468 644.78,-468 644.78,-432 733.78,-432 733.78,-468"/>
<text text-anchor="middle" x="689.28" y="-446.3" font-family="Helvetica,sans-Serif" font-size="14.00">INITIALIZE</text>
</g>
<!-- 7f350d79&#45;ea3c&#45;46e3&#45;976d&#45;8e80f4717b39&#45;&gt;9aedcbe4&#45;54de&#45;4c33&#45;b6d3&#45;b643de688c5a -->
<g id="edge8" class="edge">
<title>7f350d79&#45;ea3c&#45;46e3&#45;976d&#45;8e80f4717b39&#45;&gt;9aedcbe4&#45;54de&#45;4c33&#45;b6d3&#45;b643de688c5a</title>
<path fill="none" stroke="black" d="M689.28,-503.7C689.28,-495.98 689.28,-486.71 689.28,-478.11"/>
<polygon fill="none" stroke="black" points="692.78,-478.1 689.28,-468.1 685.78,-478.1 692.78,-478.1"/>
</g>
<!-- 4ed329a8&#45;47bf&#45;420e&#45;917e&#45;2fb0e81affaf -->
<g id="node19" class="node">
<title>4ed329a8&#45;47bf&#45;420e&#45;917e&#45;2fb0e81affaf</title>
<polygon fill="cornsilk" stroke="black" points="689.28,-396 656.93,-378 689.28,-360 721.62,-378 689.28,-396"/>
<text text-anchor="middle" x="689.28" y="-374.3" font-family="Helvetica,sans-Serif" font-size="14.00">KB</text>
</g>
<!-- 9aedcbe4&#45;54de&#45;4c33&#45;b6d3&#45;b643de688c5a&#45;&gt;4ed329a8&#45;47bf&#45;420e&#45;917e&#45;2fb0e81affaf -->
<g id="edge13" class="edge">
<title>9aedcbe4&#45;54de&#45;4c33&#45;b6d3&#45;b643de688c5a&#45;&gt;4ed329a8&#45;47bf&#45;420e&#45;917e&#45;2fb0e81affaf</title>
<path fill="none" stroke="black" d="M689.28,-431.7C689.28,-423.98 689.28,-414.71 689.28,-406.11"/>
<polygon fill="none" stroke="black" points="692.78,-406.1 689.28,-396.1 685.78,-406.1 692.78,-406.1"/>
</g>
<!-- d02e6ca3&#45;d6bd&#45;4dc7&#45;a0ad&#45;fe50e95d9132 -->
<g id="node13" class="node">
<title>d02e6ca3&#45;d6bd&#45;4dc7&#45;a0ad&#45;fe50e95d9132</title>
<polygon fill="cornsilk" stroke="black" points="333.28,-396 221.28,-396 221.28,-360 333.28,-360 333.28,-396"/>
<text text-anchor="middle" x="277.28" y="-374.3" font-family="Helvetica,sans-Serif" font-size="14.00">DISPLAY CELL</text>
</g>
<!-- 11c24dcd&#45;fc99&#45;46f0&#45;875e&#45;c190813b412f -->
<g id="node14" class="node">
<title>11c24dcd&#45;fc99&#45;46f0&#45;875e&#45;c190813b412f</title>
<polygon fill="cornsilk" stroke="black" points="277.28,-324 244.93,-306 277.28,-288 309.62,-306 277.28,-324"/>
<text text-anchor="middle" x="277.28" y="-302.3" font-family="Helvetica,sans-Serif" font-size="14.00">AK</text>
</g>
<!-- d02e6ca3&#45;d6bd&#45;4dc7&#45;a0ad&#45;fe50e95d9132&#45;&gt;11c24dcd&#45;fc99&#45;46f0&#45;875e&#45;c190813b412f -->
<g id="edge9" class="edge">
<title>d02e6ca3&#45;d6bd&#45;4dc7&#45;a0ad&#45;fe50e95d9132&#45;&gt;11c24dcd&#45;fc99&#45;46f0&#45;875e&#45;c190813b412f</title>
<path fill="none" stroke="black" d="M271.36,-359.7C270.48,-351.2 270.3,-340.81 270.8,-331.52"/>
<polygon fill="none" stroke="black" points="274.31,-331.55 271.71,-321.28 267.34,-330.93 274.31,-331.55"/>
</g>
<!-- 11c24dcd&#45;fc99&#45;46f0&#45;875e&#45;c190813b412f&#45;&gt;fa6aa1b1&#45;c646&#45;4f42&#45;8f38&#45;ba2dd487c8ef -->
<g id="edge24" class="edge">
<title>11c24dcd&#45;fc99&#45;46f0&#45;875e&#45;c190813b412f&#45;&gt;fa6aa1b1&#45;c646&#45;4f42&#45;8f38&#45;ba2dd487c8ef</title>
<path fill="none" stroke="black" d="M297.4,-299.03C335.85,-287.63 420.5,-262.52 471.63,-247.35"/>
<polygon fill="none" stroke="black" points="472.79,-250.66 481.39,-244.46 470.8,-243.95 472.79,-250.66"/>
<text text-anchor="middle" x="323.9" y="-287.83" font-family="Helvetica,sans-Serif" font-size="14.00">NO KEY</text>
</g>
<!-- 11c24dcd&#45;fc99&#45;46f0&#45;875e&#45;c190813b412f&#45;&gt;d02e6ca3&#45;d6bd&#45;4dc7&#45;a0ad&#45;fe50e95d9132 -->
<g id="edge25" class="edge">
<title>11c24dcd&#45;fc99&#45;46f0&#45;875e&#45;c190813b412f&#45;&gt;d02e6ca3&#45;d6bd&#45;4dc7&#45;a0ad&#45;fe50e95d9132</title>
<path fill="none" stroke="black" d="M282.84,-321.28C283.91,-329.44 284.25,-339.96 283.88,-349.65"/>
<polygon fill="none" stroke="black" points="280.38,-349.48 283.19,-359.7 287.37,-349.96 280.38,-349.48"/>
</g>
<!-- 928fcff9&#45;e15c&#45;41cb&#45;b829&#45;81f094a277e6&#45;&gt;fa6aa1b1&#45;c646&#45;4f42&#45;8f38&#45;ba2dd487c8ef -->
<g id="edge10" class="edge">
<title>928fcff9&#45;e15c&#45;41cb&#45;b829&#45;81f094a277e6&#45;&gt;fa6aa1b1&#45;c646&#45;4f42&#45;8f38&#45;ba2dd487c8ef</title>
<path fill="none" stroke="black" d="M322.67,-579.76C335.67,-555.18 361.28,-500.5 361.28,-451 361.28,-451 361.28,-451 361.28,-377 361.28,-336.03 358.24,-318.78 385.28,-288 406.34,-264.02 439.96,-250.66 467.46,-243.35"/>
<polygon fill="none" stroke="black" points="468.41,-246.72 477.28,-240.93 466.73,-239.93 468.41,-246.72"/>
<text text-anchor="middle" x="349.17" y="-568.56" font-family="Helvetica,sans-Serif" font-size="14.00">NO KEY</text>
</g>
<!-- d073dd34&#45;6dea&#45;4449&#45;9ba2&#45;c1286270ca2a -->
<g id="node16" class="node">
<title>d073dd34&#45;6dea&#45;4449&#45;9ba2&#45;c1286270ca2a</title>
<polygon fill="cornsilk" stroke="black" points="323.78,-540 248.78,-540 248.78,-504 323.78,-504 323.78,-540"/>
<text text-anchor="middle" x="286.28" y="-518.3" font-family="Helvetica,sans-Serif" font-size="14.00">GET KEY</text>
</g>
<!-- 928fcff9&#45;e15c&#45;41cb&#45;b829&#45;81f094a277e6&#45;&gt;d073dd34&#45;6dea&#45;4449&#45;9ba2&#45;c1286270ca2a -->
<g id="edge11" class="edge">
<title>928fcff9&#45;e15c&#45;41cb&#45;b829&#45;81f094a277e6&#45;&gt;d073dd34&#45;6dea&#45;4449&#45;9ba2&#45;c1286270ca2a</title>
<path fill="none" stroke="black" d="M309.55,-579.17C306.02,-570.66 301.38,-559.46 297.18,-549.31"/>
<polygon fill="none" stroke="black" points="300.39,-547.92 293.33,-540.02 293.92,-550.6 300.39,-547.92"/>
</g>
<!-- c68037a2&#45;a763&#45;4e5c&#45;968b&#45;b0078eb82254 -->
<g id="node21" class="node">
<title>c68037a2&#45;a763&#45;4e5c&#45;968b&#45;b0078eb82254</title>
<polygon fill="cornsilk" stroke="black" points="332.78,-468 219.78,-468 219.78,-432 332.78,-432 332.78,-468"/>
<text text-anchor="middle" x="276.28" y="-446.3" font-family="Helvetica,sans-Serif" font-size="14.00">EXECUTE KEY</text>
</g>
<!-- d073dd34&#45;6dea&#45;4449&#45;9ba2&#45;c1286270ca2a&#45;&gt;c68037a2&#45;a763&#45;4e5c&#45;968b&#45;b0078eb82254 -->
<g id="edge30" class="edge">
<title>d073dd34&#45;6dea&#45;4449&#45;9ba2&#45;c1286270ca2a&#45;&gt;c68037a2&#45;a763&#45;4e5c&#45;968b&#45;b0078eb82254</title>
<path fill="none" stroke="black" d="M283.8,-503.7C282.7,-495.98 281.38,-486.71 280.15,-478.11"/>
<polygon fill="none" stroke="black" points="283.6,-477.51 278.72,-468.1 276.67,-478.5 283.6,-477.51"/>
</g>
<!-- 29d93918&#45;851e&#45;4751&#45;8c31&#45;0b1d4f245f34 -->
<g id="node17" class="node">
<title>29d93918&#45;851e&#45;4751&#45;8c31&#45;0b1d4f245f34</title>
<ellipse fill="cornsilk" stroke="black" cx="998.28" cy="-882" rx="27.1" ry="18"/>
<text text-anchor="middle" x="998.28" y="-878.3" font-family="Helvetica,sans-Serif" font-size="14.00">IRQ</text>
</g>
<!-- 15f73c29&#45;bd1e&#45;4572&#45;b3ef&#45;a0025590c6fa -->
<g id="node18" class="node">
<title>15f73c29&#45;bd1e&#45;4572&#45;b3ef&#45;a0025590c6fa</title>
<polygon fill="cornsilk" stroke="black" points="1054.78,-828 945.78,-828 941.78,-824 941.78,-792 1050.78,-792 1054.78,-796 1054.78,-828"/>
<polyline fill="none" stroke="black" points="1050.78,-824 941.78,-824 "/>
<polyline fill="none" stroke="black" points="1050.78,-824 1050.78,-792 "/>
<polyline fill="none" stroke="black" points="1050.78,-824 1054.78,-828 "/>
<text text-anchor="middle" x="998.28" y="-806.3" font-family="Helvetica,sans-Serif" font-size="14.00">USER OPTION</text>
</g>
<!-- 29d93918&#45;851e&#45;4751&#45;8c31&#45;0b1d4f245f34&#45;&gt;15f73c29&#45;bd1e&#45;4572&#45;b3ef&#45;a0025590c6fa -->
<g id="edge12" class="edge">
<title>29d93918&#45;851e&#45;4751&#45;8c31&#45;0b1d4f245f34&#45;&gt;15f73c29&#45;bd1e&#45;4572&#45;b3ef&#45;a0025590c6fa</title>
<path fill="none" stroke="black" d="M998.28,-863.7C998.28,-855.98 998.28,-846.71 998.28,-838.11"/>
<polygon fill="none" stroke="black" points="1001.78,-838.1 998.28,-828.1 994.78,-838.1 1001.78,-838.1"/>
</g>
<!-- 4ed329a8&#45;47bf&#45;420e&#45;917e&#45;2fb0e81affaf&#45;&gt;fa6aa1b1&#45;c646&#45;4f42&#45;8f38&#45;ba2dd487c8ef -->
<g id="edge18" class="edge">
<title>4ed329a8&#45;47bf&#45;420e&#45;917e&#45;2fb0e81affaf&#45;&gt;fa6aa1b1&#45;c646&#45;4f42&#45;8f38&#45;ba2dd487c8ef</title>
<path fill="none" stroke="black" d="M680.35,-364.91C666.44,-346.65 638.06,-311.63 608.28,-288 590.3,-273.74 568,-261.08 549.51,-251.71"/>
<polygon fill="none" stroke="black" points="551.03,-248.56 540.51,-247.25 547.92,-254.83 551.03,-248.56"/>
<text text-anchor="middle" x="670.85" y="-353.71" font-family="Helvetica,sans-Serif" font-size="14.00">KB</text>
</g>
<!-- 8c117a54&#45;1675&#45;40f3&#45;a760&#45;b7b2e9c545f5 -->
<g id="node22" class="node">
<title>8c117a54&#45;1675&#45;40f3&#45;a760&#45;b7b2e9c545f5</title>
<polygon fill="cornsilk" stroke="black" points="846.78,-324 655.78,-324 655.78,-288 846.78,-288 846.78,-324"/>
<text text-anchor="middle" x="751.28" y="-302.3" font-family="Helvetica,sans-Serif" font-size="14.00">BIT RATE MEASUREMENT</text>
</g>
<!-- 4ed329a8&#45;47bf&#45;420e&#45;917e&#45;2fb0e81affaf&#45;&gt;8c117a54&#45;1675&#45;40f3&#45;a760&#45;b7b2e9c545f5 -->
<g id="edge19" class="edge">
<title>4ed329a8&#45;47bf&#45;420e&#45;917e&#45;2fb0e81affaf&#45;&gt;8c117a54&#45;1675&#45;40f3&#45;a760&#45;b7b2e9c545f5</title>
<path fill="none" stroke="black" d="M699.51,-365.44C707.62,-356.29 719.22,-343.19 729.4,-331.7"/>
<polygon fill="none" stroke="black" points="732.14,-333.89 736.15,-324.08 726.9,-329.25 732.14,-333.89"/>
<text text-anchor="middle" x="712.01" y="-354.24" font-family="Helvetica,sans-Serif" font-size="14.00">TTY</text>
</g>
<!-- 84d7cdbf&#45;6907&#45;4fbe&#45;b2d3&#45;9d4d46376eeb&#45;&gt;6a58bcda&#45;1f37&#45;4549&#45;a6fc&#45;79d75d83794c -->
<g id="edge21" class="edge">
<title>84d7cdbf&#45;6907&#45;4fbe&#45;b2d3&#45;9d4d46376eeb&#45;&gt;6a58bcda&#45;1f37&#45;4549&#45;a6fc&#45;79d75d83794c</title>
<path fill="none" stroke="black" d="M695.66,-167.55C748.26,-179.68 875.28,-217.98 875.28,-305 875.28,-667 875.28,-667 875.28,-667 875.28,-755.49 758.07,-789.15 680.75,-801.73"/>
<polygon fill="none" stroke="black" points="679.94,-798.31 670.59,-803.3 681,-805.23 679.94,-798.31"/>
<text text-anchor="middle" x="705.16" y="-171.35" font-family="Helvetica,sans-Serif" font-size="14.00">KB</text>
</g>
<!-- 84d7cdbf&#45;6907&#45;4fbe&#45;b2d3&#45;9d4d46376eeb&#45;&gt;17741106&#45;73d4&#45;42a1&#45;b6df&#45;efd8a58b7d8d -->
<g id="edge22" class="edge">
<title>84d7cdbf&#45;6907&#45;4fbe&#45;b2d3&#45;9d4d46376eeb&#45;&gt;17741106&#45;73d4&#45;42a1&#45;b6df&#45;efd8a58b7d8d</title>
<path fill="none" stroke="black" d="M673.28,-143.7C673.28,-135.98 673.28,-126.71 673.28,-118.11"/>
<polygon fill="none" stroke="black" points="676.78,-118.1 673.28,-108.1 669.78,-118.1 676.78,-118.1"/>
<text text-anchor="middle" x="660.78" y="-132.5" font-family="Helvetica,sans-Serif" font-size="14.00">TTY</text>
</g>
<!-- c68037a2&#45;a763&#45;4e5c&#45;968b&#45;b0078eb82254&#45;&gt;930c69cf&#45;e97d&#45;4221&#45;9b76&#45;1aefe551e0d2 -->
<g id="edge16" class="edge">
<title>c68037a2&#45;a763&#45;4e5c&#45;968b&#45;b0078eb82254&#45;&gt;930c69cf&#45;e97d&#45;4221&#45;9b76&#45;1aefe551e0d2</title>
<path fill="none" stroke="black" d="M237.13,-431.88C215.26,-422.31 187.82,-410.3 164.61,-400.15"/>
<polygon fill="none" stroke="black" points="165.85,-396.87 155.29,-396.07 163.05,-403.28 165.85,-396.87"/>
<text text-anchor="middle" x="221.63" y="-420.68" font-family="Helvetica,sans-Serif" font-size="14.00">RUN</text>
</g>
<!-- c68037a2&#45;a763&#45;4e5c&#45;968b&#45;b0078eb82254&#45;&gt;d02e6ca3&#45;d6bd&#45;4dc7&#45;a0ad&#45;fe50e95d9132 -->
<g id="edge17" class="edge">
<title>c68037a2&#45;a763&#45;4e5c&#45;968b&#45;b0078eb82254&#45;&gt;d02e6ca3&#45;d6bd&#45;4dc7&#45;a0ad&#45;fe50e95d9132</title>
<path fill="none" stroke="black" d="M276.52,-431.7C276.63,-423.98 276.77,-414.71 276.89,-406.11"/>
<polygon fill="none" stroke="black" points="280.39,-406.15 277.03,-396.1 273.39,-406.05 280.39,-406.15"/>
</g>
<!-- 8c117a54&#45;1675&#45;40f3&#45;a760&#45;b7b2e9c545f5&#45;&gt;fa6aa1b1&#45;c646&#45;4f42&#45;8f38&#45;ba2dd487c8ef -->
<g id="edge20" class="edge">
<title>8c117a54&#45;1675&#45;40f3&#45;a760&#45;b7b2e9c545f5&#45;&gt;fa6aa1b1&#45;c646&#45;4f42&#45;8f38&#45;ba2dd487c8ef</title>
<path fill="none" stroke="black" d="M693.36,-287.97C650.67,-275.41 593.58,-258.62 555.23,-247.34"/>
<polygon fill="none" stroke="black" points="556,-243.92 545.42,-244.45 554.03,-250.63 556,-243.92"/>
</g>
<!-- a5f29053&#45;a206&#45;4781&#45;816d&#45;290814158968 -->
<g id="node23" class="node">
<title>a5f29053&#45;a206&#45;4781&#45;816d&#45;290814158968</title>
<polygon fill="cornsilk" stroke="black" points="599.28,-324 427.28,-324 427.28,-288 599.28,-288 599.28,-324"/>
<text text-anchor="middle" x="513.28" y="-302.3" font-family="Helvetica,sans-Serif" font-size="14.00">SAVE MPU REGISTERS</text>
</g>
<!-- a5f29053&#45;a206&#45;4781&#45;816d&#45;290814158968&#45;&gt;fa6aa1b1&#45;c646&#45;4f42&#45;8f38&#45;ba2dd487c8ef -->
<g id="edge26" class="edge">
<title>a5f29053&#45;a206&#45;4781&#45;816d&#45;290814158968&#45;&gt;fa6aa1b1&#45;c646&#45;4f42&#45;8f38&#45;ba2dd487c8ef</title>
<path fill="none" stroke="black" d="M513.28,-287.7C513.28,-279.98 513.28,-270.71 513.28,-262.11"/>
<polygon fill="none" stroke="black" points="516.78,-262.1 513.28,-252.1 509.78,-262.1 516.78,-262.1"/>
</g>
<!-- f986ec8f&#45;ba2b&#45;4dcb&#45;8796&#45;49128e2a7a88 -->
<g id="node24" class="node">
<title>f986ec8f&#45;ba2b&#45;4dcb&#45;8796&#45;49128e2a7a88</title>
<ellipse fill="cornsilk" stroke="black" cx="513.28" cy="-378" rx="28.7" ry="18"/>
<text text-anchor="middle" x="513.28" y="-374.3" font-family="Helvetica,sans-Serif" font-size="14.00">NMI</text>
</g>
<!-- f986ec8f&#45;ba2b&#45;4dcb&#45;8796&#45;49128e2a7a88&#45;&gt;a5f29053&#45;a206&#45;4781&#45;816d&#45;290814158968 -->
<g id="edge27" class="edge">
<title>f986ec8f&#45;ba2b&#45;4dcb&#45;8796&#45;49128e2a7a88&#45;&gt;a5f29053&#45;a206&#45;4781&#45;816d&#45;290814158968</title>
<path fill="none" stroke="black" d="M513.28,-359.7C513.28,-351.98 513.28,-342.71 513.28,-334.11"/>
<polygon fill="none" stroke="black" points="516.78,-334.1 513.28,-324.1 509.78,-334.1 516.78,-334.1"/>
</g>
</g>
</svg>
