<?xml version="1.0" encoding="UTF-8" standalone="no"?>
<!DOCTYPE svg PUBLIC "-//W3C//DTD SVG 1.1//EN"
 "http://www.w3.org/Graphics/SVG/1.1/DTD/svg11.dtd">
<!-- Generated by graphviz version 2.38.0 (20140413.2041)
 -->
<!-- Title: %3 Pages: 1 -->
<svg width="595pt" height="1196pt"
 viewBox="0.00 0.00 594.50 1196.00" xmlns="http://www.w3.org/2000/svg" xmlns:xlink="http://www.w3.org/1999/xlink">
<g id="graph0" class="graph" transform="scale(1 1) rotate(0) translate(4 1192)">
<title>%3</title>
<polygon fill="white" stroke="none" points="-4,4 -4,-1192 590.5,-1192 590.5,4 -4,4"/>
<!-- bd8b6443&#45;713f&#45;4826&#45;af36&#45;27c9fb0a1386 -->
<g id="node1" class="node"><title>bd8b6443&#45;713f&#45;4826&#45;af36&#45;27c9fb0a1386</title>
<ellipse fill="cornsilk" stroke="black" cx="297.5" cy="-882" rx="40.0939" ry="18"/>
<text text-anchor="middle" x="297.5" y="-878.3" font-family="Helvetica,sans-Serif" font-size="14.00">START</text>
</g>
<!-- 39074c04&#45;a9d2&#45;42ec&#45;ab81&#45;16dbd16b5887 -->
<g id="node2" class="node"><title>39074c04&#45;a9d2&#45;42ec&#45;ab81&#45;16dbd16b5887</title>
<polygon fill="cornsilk" stroke="black" points="204.5,-828 172.158,-810 204.5,-792 236.842,-810 204.5,-828"/>
<text text-anchor="middle" x="204.5" y="-806.3" font-family="Helvetica,sans-Serif" font-size="14.00">KB</text>
</g>
<!-- bd8b6443&#45;713f&#45;4826&#45;af36&#45;27c9fb0a1386&#45;&gt;39074c04&#45;a9d2&#45;42ec&#45;ab81&#45;16dbd16b5887 -->
<g id="edge1" class="edge"><title>bd8b6443&#45;713f&#45;4826&#45;af36&#45;27c9fb0a1386&#45;&gt;39074c04&#45;a9d2&#45;42ec&#45;ab81&#45;16dbd16b5887</title>
<path fill="none" stroke="black" d="M277.777,-866.155C262.481,-854.642 241.321,-838.715 225.671,-826.935"/>
<polygon fill="none" stroke="black" points="227.71,-824.089 217.615,-820.872 223.5,-829.682 227.71,-824.089"/>
</g>
<!-- 054e70b5&#45;e081&#45;4a8c&#45;803c&#45;cc13a487034c -->
<g id="node13" class="node"><title>054e70b5&#45;e081&#45;4a8c&#45;803c&#45;cc13a487034c</title>
<polygon fill="cornsilk" stroke="black" points="167,-756 66,-756 66,-720 167,-720 167,-756"/>
<text text-anchor="middle" x="116.5" y="-734.3" font-family="Helvetica,sans-Serif" font-size="14.00">PRINT &quot;KIM&quot;</text>
</g>
<!-- 39074c04&#45;a9d2&#45;42ec&#45;ab81&#45;16dbd16b5887&#45;&gt;054e70b5&#45;e081&#45;4a8c&#45;803c&#45;cc13a487034c -->
<g id="edge28" class="edge"><title>39074c04&#45;a9d2&#45;42ec&#45;ab81&#45;16dbd16b5887&#45;&gt;054e70b5&#45;e081&#45;4a8c&#45;803c&#45;cc13a487034c</title>
<path fill="none" stroke="black" d="M191.892,-798.971C179.912,-789.442 161.456,-774.76 145.803,-762.309"/>
<polygon fill="none" stroke="black" points="147.927,-759.526 137.922,-756.04 143.569,-765.004 147.927,-759.526"/>
<text text-anchor="middle" x="177.892" y="-787.771" font-family="Helvetica,sans-Serif" font-size="14.00">TTY</text>
</g>
<!-- 9dc01b06&#45;a6c5&#45;4d9b&#45;9b80&#45;916ffaad4074 -->
<g id="node23" class="node"><title>9dc01b06&#45;a6c5&#45;4d9b&#45;9b80&#45;916ffaad4074</title>
<polygon fill="cornsilk" stroke="black" points="250.5,-540 134.5,-540 134.5,-504 250.5,-504 250.5,-540"/>
<text text-anchor="middle" x="192.5" y="-518.3" font-family="Helvetica,sans-Serif" font-size="14.00">DISPLAY CELL</text>
</g>
<!-- 39074c04&#45;a9d2&#45;42ec&#45;ab81&#45;16dbd16b5887&#45;&gt;9dc01b06&#45;a6c5&#45;4d9b&#45;9b80&#45;916ffaad4074 -->
<g id="edge27" class="edge"><title>39074c04&#45;a9d2&#45;42ec&#45;ab81&#45;16dbd16b5887&#45;&gt;9dc01b06&#45;a6c5&#45;4d9b&#45;9b80&#45;916ffaad4074</title>
<path fill="none" stroke="black" d="M203.803,-792.387C201.815,-745.012 196.104,-608.896 193.647,-550.331"/>
<polygon fill="none" stroke="black" points="197.13,-549.863 193.214,-540.018 190.136,-550.156 197.13,-549.863"/>
<text text-anchor="middle" x="213.303" y="-781.187" font-family="Helvetica,sans-Serif" font-size="14.00">KB</text>
</g>
<!-- cc159440&#45;eef7&#45;43ce&#45;a1eb&#45;4e8f7a64a280 -->
<g id="node3" class="node"><title>cc159440&#45;eef7&#45;43ce&#45;a1eb&#45;4e8f7a64a280</title>
<polygon fill="cornsilk" stroke="black" points="288.5,-396 172.5,-396 172.5,-360 288.5,-360 288.5,-396"/>
<text text-anchor="middle" x="230.5" y="-374.3" font-family="Helvetica,sans-Serif" font-size="14.00">DISPLAY CELL</text>
</g>
<!-- f890ba7e&#45;8317&#45;40fc&#45;92f6&#45;d7079c36b3a8 -->
<g id="node4" class="node"><title>f890ba7e&#45;8317&#45;40fc&#45;92f6&#45;d7079c36b3a8</title>
<polygon fill="cornsilk" stroke="black" points="249.5,-324 217.158,-306 249.5,-288 281.842,-306 249.5,-324"/>
<text text-anchor="middle" x="249.5" y="-302.3" font-family="Helvetica,sans-Serif" font-size="14.00">AK</text>
</g>
<!-- cc159440&#45;eef7&#45;43ce&#45;a1eb&#45;4e8f7a64a280&#45;&gt;f890ba7e&#45;8317&#45;40fc&#45;92f6&#45;d7079c36b3a8 -->
<g id="edge2" class="edge"><title>cc159440&#45;eef7&#45;43ce&#45;a1eb&#45;4e8f7a64a280&#45;&gt;f890ba7e&#45;8317&#45;40fc&#45;92f6&#45;d7079c36b3a8</title>
<path fill="none" stroke="black" d="M235.197,-359.697C237.464,-351.343 240.227,-341.163 242.718,-331.986"/>
<polygon fill="none" stroke="black" points="246.132,-332.77 245.374,-322.202 239.376,-330.936 246.132,-332.77"/>
</g>
<!-- f890ba7e&#45;8317&#45;40fc&#45;92f6&#45;d7079c36b3a8&#45;&gt;bd8b6443&#45;713f&#45;4826&#45;af36&#45;27c9fb0a1386 -->
<g id="edge9" class="edge"><title>f890ba7e&#45;8317&#45;40fc&#45;92f6&#45;d7079c36b3a8&#45;&gt;bd8b6443&#45;713f&#45;4826&#45;af36&#45;27c9fb0a1386</title>
<path fill="none" stroke="black" d="M262.139,-317.432C273.188,-327.26 288.789,-342.982 297.5,-360 315.931,-396.004 316.5,-408.553 316.5,-449 316.5,-739 316.5,-739 316.5,-739 316.5,-779.36 308.866,-825.608 303.276,-854.064"/>
<polygon fill="none" stroke="black" points="299.808,-853.553 301.254,-864.049 306.669,-854.943 299.808,-853.553"/>
<text text-anchor="middle" x="289.139" y="-321.232" font-family="Helvetica,sans-Serif" font-size="14.00">NO KEY</text>
</g>
<!-- fbefe936&#45;05f2&#45;4beb&#45;8927&#45;a5c8f6bb9380 -->
<g id="node11" class="node"><title>fbefe936&#45;05f2&#45;4beb&#45;8927&#45;a5c8f6bb9380</title>
<polygon fill="cornsilk" stroke="black" points="288,-252 211,-252 211,-216 288,-216 288,-252"/>
<text text-anchor="middle" x="249.5" y="-230.3" font-family="Helvetica,sans-Serif" font-size="14.00">GET KEY</text>
</g>
<!-- f890ba7e&#45;8317&#45;40fc&#45;92f6&#45;d7079c36b3a8&#45;&gt;fbefe936&#45;05f2&#45;4beb&#45;8927&#45;a5c8f6bb9380 -->
<g id="edge8" class="edge"><title>f890ba7e&#45;8317&#45;40fc&#45;92f6&#45;d7079c36b3a8&#45;&gt;fbefe936&#45;05f2&#45;4beb&#45;8927&#45;a5c8f6bb9380</title>
<path fill="none" stroke="black" d="M249.5,-287.697C249.5,-279.983 249.5,-270.712 249.5,-262.112"/>
<polygon fill="none" stroke="black" points="253,-262.104 249.5,-252.104 246,-262.104 253,-262.104"/>
</g>
<!-- 83bca026&#45;7d80&#45;4db5&#45;a90d&#45;6e7df48f1aa1 -->
<g id="node5" class="node"><title>83bca026&#45;7d80&#45;4db5&#45;a90d&#45;6e7df48f1aa1</title>
<polygon fill="cornsilk" stroke="black" points="394.5,-972 200.5,-972 200.5,-936 394.5,-936 394.5,-972"/>
<text text-anchor="middle" x="297.5" y="-950.3" font-family="Helvetica,sans-Serif" font-size="14.00">BIT RATE MEASUREMENT</text>
</g>
<!-- 83bca026&#45;7d80&#45;4db5&#45;a90d&#45;6e7df48f1aa1&#45;&gt;bd8b6443&#45;713f&#45;4826&#45;af36&#45;27c9fb0a1386 -->
<g id="edge3" class="edge"><title>83bca026&#45;7d80&#45;4db5&#45;a90d&#45;6e7df48f1aa1&#45;&gt;bd8b6443&#45;713f&#45;4826&#45;af36&#45;27c9fb0a1386</title>
<path fill="none" stroke="black" d="M297.5,-935.697C297.5,-927.983 297.5,-918.712 297.5,-910.112"/>
<polygon fill="none" stroke="black" points="301,-910.104 297.5,-900.104 294,-910.104 301,-910.104"/>
</g>
<!-- 0500165a&#45;53d6&#45;4a1a&#45;aed1&#45;6c345b0acd59 -->
<g id="node6" class="node"><title>0500165a&#45;53d6&#45;4a1a&#45;aed1&#45;6c345b0acd59</title>
<polygon fill="cornsilk" stroke="black" points="262.5,-36 230.158,-18 262.5,-3.55271e-15 294.842,-18 262.5,-36"/>
<text text-anchor="middle" x="262.5" y="-14.3" font-family="Helvetica,sans-Serif" font-size="14.00">AK</text>
</g>
<!-- 0500165a&#45;53d6&#45;4a1a&#45;aed1&#45;6c345b0acd59&#45;&gt;bd8b6443&#45;713f&#45;4826&#45;af36&#45;27c9fb0a1386 -->
<g id="edge5" class="edge"><title>0500165a&#45;53d6&#45;4a1a&#45;aed1&#45;6c345b0acd59&#45;&gt;bd8b6443&#45;713f&#45;4826&#45;af36&#45;27c9fb0a1386</title>
<path fill="none" stroke="black" d="M278.149,-27.438C293.46,-36.4853 316.343,-52.2513 329.5,-72 352.28,-106.193 354.5,-119.914 354.5,-161 354.5,-739 354.5,-739 354.5,-739 354.5,-782.438 331.245,-828.318 314.443,-855.799"/>
<polygon fill="none" stroke="black" points="311.404,-854.057 309.035,-864.384 317.326,-857.788 311.404,-854.057"/>
<text text-anchor="middle" x="305.149" y="-31.238" font-family="Helvetica,sans-Serif" font-size="14.00">NO KEY</text>
</g>
<!-- 7ff5b355&#45;05e5&#45;45bb&#45;8f6f&#45;557bf0b10016 -->
<g id="node7" class="node"><title>7ff5b355&#45;05e5&#45;45bb&#45;8f6f&#45;557bf0b10016</title>
<polygon fill="cornsilk" stroke="black" points="320.5,-108 204.5,-108 204.5,-72 320.5,-72 320.5,-108"/>
<text text-anchor="middle" x="262.5" y="-86.3" font-family="Helvetica,sans-Serif" font-size="14.00">DISPLAY CELL</text>
</g>
<!-- 0500165a&#45;53d6&#45;4a1a&#45;aed1&#45;6c345b0acd59&#45;&gt;7ff5b355&#45;05e5&#45;45bb&#45;8f6f&#45;557bf0b10016 -->
<g id="edge4" class="edge"><title>0500165a&#45;53d6&#45;4a1a&#45;aed1&#45;6c345b0acd59&#45;&gt;7ff5b355&#45;05e5&#45;45bb&#45;8f6f&#45;557bf0b10016</title>
<path fill="none" stroke="black" d="M268.064,-33.279C269.132,-41.4439 269.478,-51.9598 269.105,-61.6524"/>
<polygon fill="none" stroke="black" points="265.608,-61.4806 268.416,-71.6966 272.592,-61.9595 265.608,-61.4806"/>
</g>
<!-- 7ff5b355&#45;05e5&#45;45bb&#45;8f6f&#45;557bf0b10016&#45;&gt;0500165a&#45;53d6&#45;4a1a&#45;aed1&#45;6c345b0acd59 -->
<g id="edge15" class="edge"><title>7ff5b355&#45;05e5&#45;45bb&#45;8f6f&#45;557bf0b10016&#45;&gt;0500165a&#45;53d6&#45;4a1a&#45;aed1&#45;6c345b0acd59</title>
<path fill="none" stroke="black" d="M256.584,-71.6966C255.708,-63.1996 255.522,-52.8141 256.027,-43.5161"/>
<polygon fill="none" stroke="black" points="259.537,-43.5496 256.936,-33.279 252.565,-42.9299 259.537,-43.5496"/>
</g>
<!-- de6e4c3e&#45;f7c3&#45;4add&#45;9ad2&#45;7749dd91db4d -->
<g id="node8" class="node"><title>de6e4c3e&#45;f7c3&#45;4add&#45;9ad2&#45;7749dd91db4d</title>
<polygon fill="cornsilk" stroke="black" points="307,-180 192,-180 192,-144 307,-144 307,-180"/>
<text text-anchor="middle" x="249.5" y="-158.3" font-family="Helvetica,sans-Serif" font-size="14.00">EXECUTE KEY</text>
</g>
<!-- de6e4c3e&#45;f7c3&#45;4add&#45;9ad2&#45;7749dd91db4d&#45;&gt;7ff5b355&#45;05e5&#45;45bb&#45;8f6f&#45;557bf0b10016 -->
<g id="edge6" class="edge"><title>de6e4c3e&#45;f7c3&#45;4add&#45;9ad2&#45;7749dd91db4d&#45;&gt;7ff5b355&#45;05e5&#45;45bb&#45;8f6f&#45;557bf0b10016</title>
<path fill="none" stroke="black" d="M252.713,-143.697C254.146,-135.983 255.868,-126.712 257.465,-118.112"/>
<polygon fill="none" stroke="black" points="260.939,-118.575 259.323,-108.104 254.056,-117.297 260.939,-118.575"/>
</g>
<!-- 1593dd63&#45;3731&#45;48bf&#45;bdff&#45;64a52a7503bf -->
<g id="node9" class="node"><title>1593dd63&#45;3731&#45;48bf&#45;bdff&#45;64a52a7503bf</title>
<polygon fill="cornsilk" stroke="black" points="175,-108 0,-108 0,-72 175,-72 175,-108"/>
<text text-anchor="middle" x="87.5" y="-86.3" font-family="Helvetica,sans-Serif" font-size="14.00">PROCESS G/RUN KEYS</text>
</g>
<!-- de6e4c3e&#45;f7c3&#45;4add&#45;9ad2&#45;7749dd91db4d&#45;&gt;1593dd63&#45;3731&#45;48bf&#45;bdff&#45;64a52a7503bf -->
<g id="edge7" class="edge"><title>de6e4c3e&#45;f7c3&#45;4add&#45;9ad2&#45;7749dd91db4d&#45;&gt;1593dd63&#45;3731&#45;48bf&#45;bdff&#45;64a52a7503bf</title>
<path fill="none" stroke="black" d="M209.87,-143.876C187.724,-134.307 159.937,-122.3 136.442,-112.148"/>
<polygon fill="none" stroke="black" points="137.569,-108.822 127.001,-108.068 134.792,-115.248 137.569,-108.822"/>
<text text-anchor="middle" x="194.37" y="-132.676" font-family="Helvetica,sans-Serif" font-size="14.00">RUN</text>
</g>
<!-- 99506d15&#45;5a3b&#45;411a&#45;b650&#45;f07a25eabfb7 -->
<g id="node10" class="node"><title>99506d15&#45;5a3b&#45;411a&#45;b650&#45;f07a25eabfb7</title>
<ellipse fill="cornsilk" stroke="black" cx="87.5" cy="-18" rx="32.4942" ry="18"/>
<text text-anchor="middle" x="87.5" y="-14.3" font-family="Helvetica,sans-Serif" font-size="14.00">EXIT</text>
</g>
<!-- 1593dd63&#45;3731&#45;48bf&#45;bdff&#45;64a52a7503bf&#45;&gt;99506d15&#45;5a3b&#45;411a&#45;b650&#45;f07a25eabfb7 -->
<g id="edge14" class="edge"><title>1593dd63&#45;3731&#45;48bf&#45;bdff&#45;64a52a7503bf&#45;&gt;99506d15&#45;5a3b&#45;411a&#45;b650&#45;f07a25eabfb7</title>
<path fill="none" stroke="black" d="M87.5,-71.6966C87.5,-63.9827 87.5,-54.7125 87.5,-46.1124"/>
<polygon fill="none" stroke="black" points="91.0001,-46.1043 87.5,-36.1043 84.0001,-46.1044 91.0001,-46.1043"/>
</g>
<!-- fbefe936&#45;05f2&#45;4beb&#45;8927&#45;a5c8f6bb9380&#45;&gt;de6e4c3e&#45;f7c3&#45;4add&#45;9ad2&#45;7749dd91db4d -->
<g id="edge29" class="edge"><title>fbefe936&#45;05f2&#45;4beb&#45;8927&#45;a5c8f6bb9380&#45;&gt;de6e4c3e&#45;f7c3&#45;4add&#45;9ad2&#45;7749dd91db4d</title>
<path fill="none" stroke="black" d="M249.5,-215.697C249.5,-207.983 249.5,-198.712 249.5,-190.112"/>
<polygon fill="none" stroke="black" points="253,-190.104 249.5,-180.104 246,-190.104 253,-190.104"/>
</g>
<!-- 2afcdd35&#45;3e1b&#45;450a&#45;bac6&#45;d68f471e2112 -->
<g id="node12" class="node"><title>2afcdd35&#45;3e1b&#45;450a&#45;bac6&#45;d68f471e2112</title>
<polygon fill="cornsilk" stroke="black" points="234.5,-1044 202.158,-1026 234.5,-1008 266.842,-1026 234.5,-1044"/>
<text text-anchor="middle" x="234.5" y="-1022.3" font-family="Helvetica,sans-Serif" font-size="14.00">KB</text>
</g>
<!-- 2afcdd35&#45;3e1b&#45;450a&#45;bac6&#45;d68f471e2112&#45;&gt;bd8b6443&#45;713f&#45;4826&#45;af36&#45;27c9fb0a1386 -->
<g id="edge11" class="edge"><title>2afcdd35&#45;3e1b&#45;450a&#45;bac6&#45;d68f471e2112&#45;&gt;bd8b6443&#45;713f&#45;4826&#45;af36&#45;27c9fb0a1386</title>
<path fill="none" stroke="black" d="M222.561,-1014.49C204.698,-997.458 174.81,-963.005 191.5,-936 204.786,-914.503 229.723,-901.434 252.074,-893.654"/>
<polygon fill="none" stroke="black" points="253.329,-896.927 261.78,-890.537 251.189,-890.262 253.329,-896.927"/>
<text text-anchor="middle" x="213.061" y="-1003.29" font-family="Helvetica,sans-Serif" font-size="14.00">KB</text>
</g>
<!-- 2afcdd35&#45;3e1b&#45;450a&#45;bac6&#45;d68f471e2112&#45;&gt;83bca026&#45;7d80&#45;4db5&#45;a90d&#45;6e7df48f1aa1 -->
<g id="edge10" class="edge"><title>2afcdd35&#45;3e1b&#45;450a&#45;bac6&#45;d68f471e2112&#45;&gt;83bca026&#45;7d80&#45;4db5&#45;a90d&#45;6e7df48f1aa1</title>
<path fill="none" stroke="black" d="M244.903,-1013.44C253.138,-1004.29 264.933,-991.186 275.267,-979.703"/>
<polygon fill="none" stroke="black" points="278.038,-981.856 282.126,-972.082 272.835,-977.174 278.038,-981.856"/>
<text text-anchor="middle" x="258.903" y="-1002.24" font-family="Helvetica,sans-Serif" font-size="14.00">TTY</text>
</g>
<!-- 2812f60d&#45;656f&#45;446a&#45;ac06&#45;0b70aeb3ed9d -->
<g id="node14" class="node"><title>2812f60d&#45;656f&#45;446a&#45;ac06&#45;0b70aeb3ed9d</title>
<polygon fill="cornsilk" stroke="black" points="176,-684 39,-684 39,-648 176,-648 176,-684"/>
<text text-anchor="middle" x="107.5" y="-662.3" font-family="Helvetica,sans-Serif" font-size="14.00">GET CHARACTER</text>
</g>
<!-- 054e70b5&#45;e081&#45;4a8c&#45;803c&#45;cc13a487034c&#45;&gt;2812f60d&#45;656f&#45;446a&#45;ac06&#45;0b70aeb3ed9d -->
<g id="edge12" class="edge"><title>054e70b5&#45;e081&#45;4a8c&#45;803c&#45;cc13a487034c&#45;&gt;2812f60d&#45;656f&#45;446a&#45;ac06&#45;0b70aeb3ed9d</title>
<path fill="none" stroke="black" d="M114.275,-719.697C113.283,-711.983 112.092,-702.712 110.986,-694.112"/>
<polygon fill="none" stroke="black" points="114.446,-693.576 109.699,-684.104 107.503,-694.469 114.446,-693.576"/>
</g>
<!-- e9bc0dbe&#45;ee7c&#45;4588&#45;b674&#45;ced9a4111da0 -->
<g id="node22" class="node"><title>e9bc0dbe&#45;ee7c&#45;4588&#45;b674&#45;ced9a4111da0</title>
<polygon fill="cornsilk" stroke="black" points="118.5,-612 86.1581,-594 118.5,-576 150.842,-594 118.5,-612"/>
<text text-anchor="middle" x="118.5" y="-590.3" font-family="Helvetica,sans-Serif" font-size="14.00">KB</text>
</g>
<!-- 2812f60d&#45;656f&#45;446a&#45;ac06&#45;0b70aeb3ed9d&#45;&gt;e9bc0dbe&#45;ee7c&#45;4588&#45;b674&#45;ced9a4111da0 -->
<g id="edge22" class="edge"><title>2812f60d&#45;656f&#45;446a&#45;ac06&#45;0b70aeb3ed9d&#45;&gt;e9bc0dbe&#45;ee7c&#45;4588&#45;b674&#45;ced9a4111da0</title>
<path fill="none" stroke="black" d="M110.219,-647.697C111.499,-639.549 113.053,-629.664 114.466,-620.668"/>
<polygon fill="none" stroke="black" points="117.942,-621.093 116.037,-610.671 111.027,-620.007 117.942,-621.093"/>
</g>
<!-- e70425ed&#45;7aff&#45;44c9&#45;9218&#45;88758ee43a3b -->
<g id="node15" class="node"><title>e70425ed&#45;7aff&#45;44c9&#45;9218&#45;88758ee43a3b</title>
<ellipse fill="cornsilk" stroke="black" cx="499.5" cy="-1026" rx="28.6953" ry="18"/>
<text text-anchor="middle" x="499.5" y="-1022.3" font-family="Helvetica,sans-Serif" font-size="14.00">NMI</text>
</g>
<!-- 5b79cca6&#45;dd79&#45;4187&#45;bb37&#45;d3949ad53f3f -->
<g id="node16" class="node"><title>5b79cca6&#45;dd79&#45;4187&#45;bb37&#45;d3949ad53f3f</title>
<polygon fill="cornsilk" stroke="black" points="586.5,-972 412.5,-972 412.5,-936 586.5,-936 586.5,-972"/>
<text text-anchor="middle" x="499.5" y="-950.3" font-family="Helvetica,sans-Serif" font-size="14.00">SAVE MPU REGISTERS</text>
</g>
<!-- e70425ed&#45;7aff&#45;44c9&#45;9218&#45;88758ee43a3b&#45;&gt;5b79cca6&#45;dd79&#45;4187&#45;bb37&#45;d3949ad53f3f -->
<g id="edge13" class="edge"><title>e70425ed&#45;7aff&#45;44c9&#45;9218&#45;88758ee43a3b&#45;&gt;5b79cca6&#45;dd79&#45;4187&#45;bb37&#45;d3949ad53f3f</title>
<path fill="none" stroke="black" d="M499.5,-1007.7C499.5,-999.983 499.5,-990.712 499.5,-982.112"/>
<polygon fill="none" stroke="black" points="503,-982.104 499.5,-972.104 496,-982.104 503,-982.104"/>
</g>
<!-- 5b79cca6&#45;dd79&#45;4187&#45;bb37&#45;d3949ad53f3f&#45;&gt;bd8b6443&#45;713f&#45;4826&#45;af36&#45;27c9fb0a1386 -->
<g id="edge21" class="edge"><title>5b79cca6&#45;dd79&#45;4187&#45;bb37&#45;d3949ad53f3f&#45;&gt;bd8b6443&#45;713f&#45;4826&#45;af36&#45;27c9fb0a1386</title>
<path fill="none" stroke="black" d="M450.344,-935.966C415.842,-924.009 370.266,-908.216 337.884,-896.995"/>
<polygon fill="none" stroke="black" points="338.88,-893.635 328.285,-893.668 336.588,-900.25 338.88,-893.635"/>
</g>
<!-- 2e41de40&#45;95bd&#45;43cb&#45;8cfd&#45;c27983564f05 -->
<g id="node17" class="node"><title>2e41de40&#45;95bd&#45;43cb&#45;8cfd&#45;c27983564f05</title>
<ellipse fill="cornsilk" stroke="black" cx="234.5" cy="-1170" rx="28.6953" ry="18"/>
<text text-anchor="middle" x="234.5" y="-1166.3" font-family="Helvetica,sans-Serif" font-size="14.00">RST</text>
</g>
<!-- 6a820382&#45;cdfa&#45;442c&#45;bab0&#45;bc39b7c55e94 -->
<g id="node18" class="node"><title>6a820382&#45;cdfa&#45;442c&#45;bab0&#45;bc39b7c55e94</title>
<polygon fill="cornsilk" stroke="black" points="280,-1116 189,-1116 189,-1080 280,-1080 280,-1116"/>
<text text-anchor="middle" x="234.5" y="-1094.3" font-family="Helvetica,sans-Serif" font-size="14.00">INITIALIZE</text>
</g>
<!-- 2e41de40&#45;95bd&#45;43cb&#45;8cfd&#45;c27983564f05&#45;&gt;6a820382&#45;cdfa&#45;442c&#45;bab0&#45;bc39b7c55e94 -->
<g id="edge16" class="edge"><title>2e41de40&#45;95bd&#45;43cb&#45;8cfd&#45;c27983564f05&#45;&gt;6a820382&#45;cdfa&#45;442c&#45;bab0&#45;bc39b7c55e94</title>
<path fill="none" stroke="black" d="M234.5,-1151.7C234.5,-1143.98 234.5,-1134.71 234.5,-1126.11"/>
<polygon fill="none" stroke="black" points="238,-1126.1 234.5,-1116.1 231,-1126.1 238,-1126.1"/>
</g>
<!-- 6a820382&#45;cdfa&#45;442c&#45;bab0&#45;bc39b7c55e94&#45;&gt;2afcdd35&#45;3e1b&#45;450a&#45;bac6&#45;d68f471e2112 -->
<g id="edge17" class="edge"><title>6a820382&#45;cdfa&#45;442c&#45;bab0&#45;bc39b7c55e94&#45;&gt;2afcdd35&#45;3e1b&#45;450a&#45;bac6&#45;d68f471e2112</title>
<path fill="none" stroke="black" d="M234.5,-1079.7C234.5,-1071.98 234.5,-1062.71 234.5,-1054.11"/>
<polygon fill="none" stroke="black" points="238,-1054.1 234.5,-1044.1 231,-1054.1 238,-1054.1"/>
</g>
<!-- 68b5552f&#45;94a0&#45;4a3c&#45;af94&#45;fa624e2f8a89 -->
<g id="node19" class="node"><title>68b5552f&#45;94a0&#45;4a3c&#45;af94&#45;fa624e2f8a89</title>
<polygon fill="cornsilk" stroke="black" points="116,-540 1,-540 1,-504 116,-504 116,-540"/>
<text text-anchor="middle" x="58.5" y="-518.3" font-family="Helvetica,sans-Serif" font-size="14.00">EXECUTE KEY</text>
</g>
<!-- 68b5552f&#45;94a0&#45;4a3c&#45;af94&#45;fa624e2f8a89&#45;&gt;1593dd63&#45;3731&#45;48bf&#45;bdff&#45;64a52a7503bf -->
<g id="edge18" class="edge"><title>68b5552f&#45;94a0&#45;4a3c&#45;af94&#45;fa624e2f8a89&#45;&gt;1593dd63&#45;3731&#45;48bf&#45;bdff&#45;64a52a7503bf</title>
<path fill="none" stroke="black" d="M63.1544,-503.658C69.8751,-477.049 81.5,-424.453 81.5,-379 81.5,-379 81.5,-379 81.5,-233 81.5,-192.96 83.9107,-146.627 85.676,-118.065"/>
<polygon fill="none" stroke="black" points="89.1718,-118.242 86.3146,-108.039 82.1859,-117.797 89.1718,-118.242"/>
<text text-anchor="middle" x="57.1544" y="-492.458" font-family="Helvetica,sans-Serif" font-size="14.00">G</text>
</g>
<!-- 68b5552f&#45;94a0&#45;4a3c&#45;af94&#45;fa624e2f8a89&#45;&gt;2812f60d&#45;656f&#45;446a&#45;ac06&#45;0b70aeb3ed9d -->
<g id="edge19" class="edge"><title>68b5552f&#45;94a0&#45;4a3c&#45;af94&#45;fa624e2f8a89&#45;&gt;2812f60d&#45;656f&#45;446a&#45;ac06&#45;0b70aeb3ed9d</title>
<path fill="none" stroke="black" d="M60.583,-540.17C63.1584,-558.424 68.3628,-587.922 77.5,-612 81.0263,-621.292 86.0077,-630.906 90.9003,-639.353"/>
<polygon fill="none" stroke="black" points="87.9442,-641.229 96.1013,-647.99 93.9409,-637.618 87.9442,-641.229"/>
</g>
<!-- 176c90cf&#45;68b0&#45;4ebe&#45;86ee&#45;fa88503e0d9b -->
<g id="node20" class="node"><title>176c90cf&#45;68b0&#45;4ebe&#45;86ee&#45;fa88503e0d9b</title>
<ellipse fill="cornsilk" stroke="black" cx="355.5" cy="-1170" rx="27.0966" ry="18"/>
<text text-anchor="middle" x="355.5" y="-1166.3" font-family="Helvetica,sans-Serif" font-size="14.00">IRQ</text>
</g>
<!-- 32ebbafc&#45;d005&#45;4e7c&#45;84b1&#45;e91dcfe326d7 -->
<g id="node21" class="node"><title>32ebbafc&#45;d005&#45;4e7c&#45;84b1&#45;e91dcfe326d7</title>
<polygon fill="cornsilk" stroke="black" points="413,-1116 302,-1116 298,-1112 298,-1080 409,-1080 413,-1084 413,-1116"/>
<polyline fill="none" stroke="black" points="409,-1112 298,-1112 "/>
<polyline fill="none" stroke="black" points="409,-1112 409,-1080 "/>
<polyline fill="none" stroke="black" points="409,-1112 413,-1116 "/>
<text text-anchor="middle" x="355.5" y="-1094.3" font-family="Helvetica,sans-Serif" font-size="14.00">USER OPTION</text>
</g>
<!-- 176c90cf&#45;68b0&#45;4ebe&#45;86ee&#45;fa88503e0d9b&#45;&gt;32ebbafc&#45;d005&#45;4e7c&#45;84b1&#45;e91dcfe326d7 -->
<g id="edge20" class="edge"><title>176c90cf&#45;68b0&#45;4ebe&#45;86ee&#45;fa88503e0d9b&#45;&gt;32ebbafc&#45;d005&#45;4e7c&#45;84b1&#45;e91dcfe326d7</title>
<path fill="none" stroke="black" d="M355.5,-1151.7C355.5,-1143.98 355.5,-1134.71 355.5,-1126.11"/>
<polygon fill="none" stroke="black" points="359,-1126.1 355.5,-1116.1 352,-1126.1 359,-1126.1"/>
</g>
<!-- e9bc0dbe&#45;ee7c&#45;4588&#45;b674&#45;ced9a4111da0&#45;&gt;68b5552f&#45;94a0&#45;4a3c&#45;af94&#45;fa624e2f8a89 -->
<g id="edge23" class="edge"><title>e9bc0dbe&#45;ee7c&#45;4588&#45;b674&#45;ced9a4111da0&#45;&gt;68b5552f&#45;94a0&#45;4a3c&#45;af94&#45;fa624e2f8a89</title>
<path fill="none" stroke="black" d="M108.592,-581.441C100.75,-572.291 89.5164,-559.186 79.6744,-547.703"/>
<polygon fill="none" stroke="black" points="82.307,-545.397 73.1417,-540.082 76.9922,-549.952 82.307,-545.397"/>
<text text-anchor="middle" x="94.5922" y="-570.241" font-family="Helvetica,sans-Serif" font-size="14.00">TTY</text>
</g>
<!-- e9bc0dbe&#45;ee7c&#45;4588&#45;b674&#45;ced9a4111da0&#45;&gt;9dc01b06&#45;a6c5&#45;4d9b&#45;9b80&#45;916ffaad4074 -->
<g id="edge24" class="edge"><title>e9bc0dbe&#45;ee7c&#45;4588&#45;b674&#45;ced9a4111da0&#45;&gt;9dc01b06&#45;a6c5&#45;4d9b&#45;9b80&#45;916ffaad4074</title>
<path fill="none" stroke="black" d="M130.062,-582.062C139.892,-572.764 154.364,-559.075 166.901,-547.216"/>
<polygon fill="none" stroke="black" points="169.538,-549.539 174.398,-540.124 164.728,-544.453 169.538,-549.539"/>
<text text-anchor="middle" x="120.562" y="-570.862" font-family="Helvetica,sans-Serif" font-size="14.00">KB</text>
</g>
<!-- 39a29338&#45;5b98&#45;4274&#45;b158&#45;e520d116e4fe -->
<g id="node24" class="node"><title>39a29338&#45;5b98&#45;4274&#45;b158&#45;e520d116e4fe</title>
<polygon fill="cornsilk" stroke="black" points="230.5,-468 198.158,-450 230.5,-432 262.842,-450 230.5,-468"/>
<text text-anchor="middle" x="230.5" y="-446.3" font-family="Helvetica,sans-Serif" font-size="14.00">AK</text>
</g>
<!-- 9dc01b06&#45;a6c5&#45;4d9b&#45;9b80&#45;916ffaad4074&#45;&gt;39a29338&#45;5b98&#45;4274&#45;b158&#45;e520d116e4fe -->
<g id="edge30" class="edge"><title>9dc01b06&#45;a6c5&#45;4d9b&#45;9b80&#45;916ffaad4074&#45;&gt;39a29338&#45;5b98&#45;4274&#45;b158&#45;e520d116e4fe</title>
<path fill="none" stroke="black" d="M201.893,-503.697C206.89,-494.492 213.089,-483.072 218.438,-473.219"/>
<polygon fill="none" stroke="black" points="221.544,-474.834 223.239,-464.375 215.392,-471.494 221.544,-474.834"/>
</g>
<!-- 39a29338&#45;5b98&#45;4274&#45;b158&#45;e520d116e4fe&#45;&gt;bd8b6443&#45;713f&#45;4826&#45;af36&#45;27c9fb0a1386 -->
<g id="edge26" class="edge"><title>39a29338&#45;5b98&#45;4274&#45;b158&#45;e520d116e4fe&#45;&gt;bd8b6443&#45;713f&#45;4826&#45;af36&#45;27c9fb0a1386</title>
<path fill="none" stroke="black" d="M238.744,-463.569C245.249,-474.007 254.097,-489.447 259.5,-504 273.578,-541.918 278.5,-552.553 278.5,-593 278.5,-739 278.5,-739 278.5,-739 278.5,-779.36 286.134,-825.608 291.724,-854.064"/>
<polygon fill="none" stroke="black" points="288.331,-854.943 293.746,-864.049 295.192,-853.553 288.331,-854.943"/>
<text text-anchor="middle" x="265.744" y="-467.369" font-family="Helvetica,sans-Serif" font-size="14.00">NO KEY</text>
</g>
<!-- 39a29338&#45;5b98&#45;4274&#45;b158&#45;e520d116e4fe&#45;&gt;cc159440&#45;eef7&#45;43ce&#45;a1eb&#45;4e8f7a64a280 -->
<g id="edge25" class="edge"><title>39a29338&#45;5b98&#45;4274&#45;b158&#45;e520d116e4fe&#45;&gt;cc159440&#45;eef7&#45;43ce&#45;a1eb&#45;4e8f7a64a280</title>
<path fill="none" stroke="black" d="M230.5,-431.697C230.5,-423.983 230.5,-414.712 230.5,-406.112"/>
<polygon fill="none" stroke="black" points="234,-406.104 230.5,-396.104 227,-406.104 234,-406.104"/>
</g>
</g>
</svg>
