<?xml version="1.0" encoding="UTF-8" standalone="no"?>
<!DOCTYPE svg PUBLIC "-//W3C//DTD SVG 1.1//EN"
 "http://www.w3.org/Graphics/SVG/1.1/DTD/svg11.dtd">
<!-- Generated by graphviz version 2.43.0 (0)
 -->
<!-- Title: %3 Pages: 1 -->
<svg width="1063pt" height="908pt"
 viewBox="0.00 0.00 1062.78 908.00" xmlns="http://www.w3.org/2000/svg" xmlns:xlink="http://www.w3.org/1999/xlink">
<g id="graph0" class="graph" transform="scale(1 1) rotate(0) translate(4 904)">
<title>%3</title>
<polygon fill="white" stroke="transparent" points="-4,4 -4,-904 1058.78,-904 1058.78,4 -4,4"/>
<!-- 885689fa&#45;550f&#45;4868&#45;a215&#45;da5ed0851052 -->
<g id="node1" class="node">
<title>885689fa&#45;550f&#45;4868&#45;a215&#45;da5ed0851052</title>
<polygon fill="cornsilk" stroke="black" points="614.28,-900 581.93,-882 614.28,-864 646.62,-882 614.28,-900"/>
<text text-anchor="middle" x="614.28" y="-878.3" font-family="Helvetica,sans-Serif" font-size="14.00">KB</text>
</g>
<!-- 99817075&#45;6e92&#45;44ac&#45;be12&#45;2c53fc620f1b -->
<g id="node2" class="node">
<title>99817075&#45;6e92&#45;44ac&#45;be12&#45;2c53fc620f1b</title>
<polygon fill="cornsilk" stroke="black" points="172.78,-468 59.78,-468 59.78,-432 172.78,-432 172.78,-468"/>
<text text-anchor="middle" x="116.28" y="-446.3" font-family="Helvetica,sans-Serif" font-size="14.00">EXECUTE KEY</text>
</g>
<!-- 885689fa&#45;550f&#45;4868&#45;a215&#45;da5ed0851052&#45;&gt;99817075&#45;6e92&#45;44ac&#45;be12&#45;2c53fc620f1b -->
<g id="edge1" class="edge">
<title>885689fa&#45;550f&#45;4868&#45;a215&#45;da5ed0851052&#45;&gt;99817075&#45;6e92&#45;44ac&#45;be12&#45;2c53fc620f1b</title>
<path fill="none" stroke="black" d="M588.04,-878.43C492.44,-868.36 168.28,-827.68 168.28,-739 168.28,-739 168.28,-739 168.28,-593 168.28,-550.49 147.47,-504.95 132.18,-477.22"/>
<polygon fill="none" stroke="black" points="135.03,-475.15 127.05,-468.19 128.95,-478.61 135.03,-475.15"/>
<text text-anchor="middle" x="575.54" y="-867.23" font-family="Helvetica,sans-Serif" font-size="14.00">TTY</text>
</g>
<!-- 70b58f81&#45;dc19&#45;4669&#45;bf48&#45;5d967f140786 -->
<g id="node3" class="node">
<title>70b58f81&#45;dc19&#45;4669&#45;bf48&#45;5d967f140786</title>
<polygon fill="cornsilk" stroke="black" points="670.28,-828 558.28,-828 558.28,-792 670.28,-792 670.28,-828"/>
<text text-anchor="middle" x="614.28" y="-806.3" font-family="Helvetica,sans-Serif" font-size="14.00">DISPLAY CELL</text>
</g>
<!-- 885689fa&#45;550f&#45;4868&#45;a215&#45;da5ed0851052&#45;&gt;70b58f81&#45;dc19&#45;4669&#45;bf48&#45;5d967f140786 -->
<g id="edge2" class="edge">
<title>885689fa&#45;550f&#45;4868&#45;a215&#45;da5ed0851052&#45;&gt;70b58f81&#45;dc19&#45;4669&#45;bf48&#45;5d967f140786</title>
<path fill="none" stroke="black" d="M614.28,-863.7C614.28,-855.98 614.28,-846.71 614.28,-838.11"/>
<polygon fill="none" stroke="black" points="617.78,-838.1 614.28,-828.1 610.78,-838.1 617.78,-838.1"/>
<text text-anchor="middle" x="604.78" y="-852.5" font-family="Helvetica,sans-Serif" font-size="14.00">KB</text>
</g>
<!-- c6cd8772&#45;6429&#45;48f1&#45;b8c1&#45;e3e1040bf9dd -->
<g id="node5" class="node">
<title>c6cd8772&#45;6429&#45;48f1&#45;b8c1&#45;e3e1040bf9dd</title>
<polygon fill="cornsilk" stroke="black" points="740.28,-36 606.28,-36 606.28,0 740.28,0 740.28,-36"/>
<text text-anchor="middle" x="673.28" y="-14.3" font-family="Helvetica,sans-Serif" font-size="14.00">GET CHARACTER</text>
</g>
<!-- 99817075&#45;6e92&#45;44ac&#45;be12&#45;2c53fc620f1b&#45;&gt;c6cd8772&#45;6429&#45;48f1&#45;b8c1&#45;e3e1040bf9dd -->
<g id="edge29" class="edge">
<title>99817075&#45;6e92&#45;44ac&#45;be12&#45;2c53fc620f1b&#45;&gt;c6cd8772&#45;6429&#45;48f1&#45;b8c1&#45;e3e1040bf9dd</title>
<path fill="none" stroke="black" d="M67.41,-431.95C50.13,-423.63 32.07,-411.9 20.28,-396 -3.83,-363.52 1.28,-347.45 1.28,-307 1.28,-307 1.28,-307 1.28,-161 1.28,-40.59 419.49,-21.79 596.07,-19.21"/>
<polygon fill="none" stroke="black" points="596.12,-22.71 606.07,-19.08 596.03,-15.72 596.12,-22.71"/>
</g>
<!-- a600638e&#45;af10&#45;4d32&#45;b3d0&#45;bc42bcbee50c -->
<g id="node9" class="node">
<title>a600638e&#45;af10&#45;4d32&#45;b3d0&#45;bc42bcbee50c</title>
<polygon fill="cornsilk" stroke="black" points="202.78,-396 29.78,-396 29.78,-360 202.78,-360 202.78,-396"/>
<text text-anchor="middle" x="116.28" y="-374.3" font-family="Helvetica,sans-Serif" font-size="14.00">PROCESS G/RUN KEYS</text>
</g>
<!-- 99817075&#45;6e92&#45;44ac&#45;be12&#45;2c53fc620f1b&#45;&gt;a600638e&#45;af10&#45;4d32&#45;b3d0&#45;bc42bcbee50c -->
<g id="edge28" class="edge">
<title>99817075&#45;6e92&#45;44ac&#45;be12&#45;2c53fc620f1b&#45;&gt;a600638e&#45;af10&#45;4d32&#45;b3d0&#45;bc42bcbee50c</title>
<path fill="none" stroke="black" d="M116.28,-431.7C116.28,-423.98 116.28,-414.71 116.28,-406.11"/>
<polygon fill="none" stroke="black" points="119.78,-406.1 116.28,-396.1 112.78,-406.1 119.78,-406.1"/>
<text text-anchor="middle" x="110.78" y="-420.5" font-family="Helvetica,sans-Serif" font-size="14.00">G</text>
</g>
<!-- d66c3be8&#45;1b21&#45;443d&#45;980e&#45;f9a8b9ee7c3c -->
<g id="node6" class="node">
<title>d66c3be8&#45;1b21&#45;443d&#45;980e&#45;f9a8b9ee7c3c</title>
<polygon fill="cornsilk" stroke="black" points="399.28,-756 366.93,-738 399.28,-720 431.62,-738 399.28,-756"/>
<text text-anchor="middle" x="399.28" y="-734.3" font-family="Helvetica,sans-Serif" font-size="14.00">AK</text>
</g>
<!-- 70b58f81&#45;dc19&#45;4669&#45;bf48&#45;5d967f140786&#45;&gt;d66c3be8&#45;1b21&#45;443d&#45;980e&#45;f9a8b9ee7c3c -->
<g id="edge23" class="edge">
<title>70b58f81&#45;dc19&#45;4669&#45;bf48&#45;5d967f140786&#45;&gt;d66c3be8&#45;1b21&#45;443d&#45;980e&#45;f9a8b9ee7c3c</title>
<path fill="none" stroke="black" d="M561.96,-791.97C520.05,-778.32 462.8,-759.68 428.58,-748.54"/>
<polygon fill="none" stroke="black" points="429.33,-745.11 418.74,-745.34 427.17,-751.76 429.33,-745.11"/>
</g>
<!-- 33d111a0&#45;9f4c&#45;4725&#45;bad1&#45;f681cebd5849 -->
<g id="node4" class="node">
<title>33d111a0&#45;9f4c&#45;4725&#45;bad1&#45;f681cebd5849</title>
<polygon fill="cornsilk" stroke="black" points="723.78,-108 622.78,-108 622.78,-72 723.78,-72 723.78,-108"/>
<text text-anchor="middle" x="673.28" y="-86.3" font-family="Helvetica,sans-Serif" font-size="14.00">PRINT &quot;KIM&quot;</text>
</g>
<!-- 33d111a0&#45;9f4c&#45;4725&#45;bad1&#45;f681cebd5849&#45;&gt;c6cd8772&#45;6429&#45;48f1&#45;b8c1&#45;e3e1040bf9dd -->
<g id="edge3" class="edge">
<title>33d111a0&#45;9f4c&#45;4725&#45;bad1&#45;f681cebd5849&#45;&gt;c6cd8772&#45;6429&#45;48f1&#45;b8c1&#45;e3e1040bf9dd</title>
<path fill="none" stroke="black" d="M673.28,-71.7C673.28,-63.98 673.28,-54.71 673.28,-46.11"/>
<polygon fill="none" stroke="black" points="676.78,-46.1 673.28,-36.1 669.78,-46.1 676.78,-46.1"/>
</g>
<!-- c6cd8772&#45;6429&#45;48f1&#45;b8c1&#45;e3e1040bf9dd&#45;&gt;885689fa&#45;550f&#45;4868&#45;a215&#45;da5ed0851052 -->
<g id="edge4" class="edge">
<title>c6cd8772&#45;6429&#45;48f1&#45;b8c1&#45;e3e1040bf9dd&#45;&gt;885689fa&#45;550f&#45;4868&#45;a215&#45;da5ed0851052</title>
<path fill="none" stroke="black" d="M740.45,-29.31C811.45,-44.46 913.28,-80.27 913.28,-161 913.28,-739 913.28,-739 913.28,-739 913.28,-852.29 735.95,-875.31 654.42,-879.9"/>
<polygon fill="none" stroke="black" points="653.85,-876.42 644.04,-880.41 654.2,-883.41 653.85,-876.42"/>
</g>
<!-- 8525a33d&#45;996b&#45;42cc&#45;aa7c&#45;e5d8a1a70a82 -->
<g id="node7" class="node">
<title>8525a33d&#45;996b&#45;42cc&#45;aa7c&#45;e5d8a1a70a82</title>
<ellipse fill="cornsilk" stroke="black" cx="513.28" cy="-234" rx="38.99" ry="18"/>
<text text-anchor="middle" x="513.28" y="-230.3" font-family="Helvetica,sans-Serif" font-size="14.00">START</text>
</g>
<!-- d66c3be8&#45;1b21&#45;443d&#45;980e&#45;f9a8b9ee7c3c&#45;&gt;8525a33d&#45;996b&#45;42cc&#45;aa7c&#45;e5d8a1a70a82 -->
<g id="edge5" class="edge">
<title>d66c3be8&#45;1b21&#45;443d&#45;980e&#45;f9a8b9ee7c3c&#45;&gt;8525a33d&#45;996b&#45;42cc&#45;aa7c&#45;e5d8a1a70a82</title>
<path fill="none" stroke="black" d="M399.28,-719.95C399.28,-693.29 399.28,-640.11 399.28,-595 399.28,-595 399.28,-595 399.28,-377 399.28,-336.55 394.25,-320.54 418.28,-288 431.62,-269.93 453.06,-257.22 472.2,-248.78"/>
<polygon fill="none" stroke="black" points="473.76,-251.92 481.66,-244.86 471.08,-245.45 473.76,-251.92"/>
<text text-anchor="middle" x="372.78" y="-708.75" font-family="Helvetica,sans-Serif" font-size="14.00">NO KEY</text>
</g>
<!-- 87b3f746&#45;5065&#45;4140&#45;9d8c&#45;73d6a31a6bc8 -->
<g id="node8" class="node">
<title>87b3f746&#45;5065&#45;4140&#45;9d8c&#45;73d6a31a6bc8</title>
<polygon fill="cornsilk" stroke="black" points="371.28,-684 259.28,-684 259.28,-648 371.28,-648 371.28,-684"/>
<text text-anchor="middle" x="315.28" y="-662.3" font-family="Helvetica,sans-Serif" font-size="14.00">DISPLAY CELL</text>
</g>
<!-- d66c3be8&#45;1b21&#45;443d&#45;980e&#45;f9a8b9ee7c3c&#45;&gt;87b3f746&#45;5065&#45;4140&#45;9d8c&#45;73d6a31a6bc8 -->
<g id="edge6" class="edge">
<title>d66c3be8&#45;1b21&#45;443d&#45;980e&#45;f9a8b9ee7c3c&#45;&gt;87b3f746&#45;5065&#45;4140&#45;9d8c&#45;73d6a31a6bc8</title>
<path fill="none" stroke="black" d="M386.88,-726.67C375.56,-717.24 358.4,-702.94 343.72,-690.7"/>
<polygon fill="none" stroke="black" points="345.79,-687.87 335.87,-684.16 341.31,-693.25 345.79,-687.87"/>
</g>
<!-- 881c0155&#45;c6d7&#45;4340&#45;8cd4&#45;8c6d8bedcfa4 -->
<g id="node20" class="node">
<title>881c0155&#45;c6d7&#45;4340&#45;8cd4&#45;8c6d8bedcfa4</title>
<polygon fill="cornsilk" stroke="black" points="673.28,-180 640.93,-162 673.28,-144 705.62,-162 673.28,-180"/>
<text text-anchor="middle" x="673.28" y="-158.3" font-family="Helvetica,sans-Serif" font-size="14.00">KB</text>
</g>
<!-- 8525a33d&#45;996b&#45;42cc&#45;aa7c&#45;e5d8a1a70a82&#45;&gt;881c0155&#45;c6d7&#45;4340&#45;8cd4&#45;8c6d8bedcfa4 -->
<g id="edge14" class="edge">
<title>8525a33d&#45;996b&#45;42cc&#45;aa7c&#45;e5d8a1a70a82&#45;&gt;881c0155&#45;c6d7&#45;4340&#45;8cd4&#45;8c6d8bedcfa4</title>
<path fill="none" stroke="black" d="M540.78,-220.97C570.48,-207.97 617.47,-187.42 646.77,-174.59"/>
<polygon fill="none" stroke="black" points="648.22,-177.78 655.98,-170.57 645.42,-171.37 648.22,-177.78"/>
</g>
<!-- bbb52d7d&#45;4f38&#45;473e&#45;834c&#45;d95efde29bc2 -->
<g id="node15" class="node">
<title>bbb52d7d&#45;4f38&#45;473e&#45;834c&#45;d95efde29bc2</title>
<polygon fill="cornsilk" stroke="black" points="315.28,-612 282.93,-594 315.28,-576 347.62,-594 315.28,-612"/>
<text text-anchor="middle" x="315.28" y="-590.3" font-family="Helvetica,sans-Serif" font-size="14.00">AK</text>
</g>
<!-- 87b3f746&#45;5065&#45;4140&#45;9d8c&#45;73d6a31a6bc8&#45;&gt;bbb52d7d&#45;4f38&#45;473e&#45;834c&#45;d95efde29bc2 -->
<g id="edge15" class="edge">
<title>87b3f746&#45;5065&#45;4140&#45;9d8c&#45;73d6a31a6bc8&#45;&gt;bbb52d7d&#45;4f38&#45;473e&#45;834c&#45;d95efde29bc2</title>
<path fill="none" stroke="black" d="M315.28,-647.7C315.28,-639.98 315.28,-630.71 315.28,-622.11"/>
<polygon fill="none" stroke="black" points="318.78,-622.1 315.28,-612.1 311.78,-622.1 318.78,-622.1"/>
</g>
<!-- 9690269a&#45;ed7a&#45;4f91&#45;a9e4&#45;cc46b9d9bea1 -->
<g id="node10" class="node">
<title>9690269a&#45;ed7a&#45;4f91&#45;a9e4&#45;cc46b9d9bea1</title>
<ellipse fill="cornsilk" stroke="black" cx="116.28" cy="-306" rx="31.4" ry="18"/>
<text text-anchor="middle" x="116.28" y="-302.3" font-family="Helvetica,sans-Serif" font-size="14.00">EXIT</text>
</g>
<!-- a600638e&#45;af10&#45;4d32&#45;b3d0&#45;bc42bcbee50c&#45;&gt;9690269a&#45;ed7a&#45;4f91&#45;a9e4&#45;cc46b9d9bea1 -->
<g id="edge7" class="edge">
<title>a600638e&#45;af10&#45;4d32&#45;b3d0&#45;bc42bcbee50c&#45;&gt;9690269a&#45;ed7a&#45;4f91&#45;a9e4&#45;cc46b9d9bea1</title>
<path fill="none" stroke="black" d="M116.28,-359.7C116.28,-351.98 116.28,-342.71 116.28,-334.11"/>
<polygon fill="none" stroke="black" points="119.78,-334.1 116.28,-324.1 112.78,-334.1 119.78,-334.1"/>
</g>
<!-- 101985e6&#45;bfed&#45;4f62&#45;b69d&#45;d86d0434ee47 -->
<g id="node11" class="node">
<title>101985e6&#45;bfed&#45;4f62&#45;b69d&#45;d86d0434ee47</title>
<ellipse fill="cornsilk" stroke="black" cx="689.28" cy="-522" rx="28.7" ry="18"/>
<text text-anchor="middle" x="689.28" y="-518.3" font-family="Helvetica,sans-Serif" font-size="14.00">RST</text>
</g>
<!-- aba205ae&#45;aa7a&#45;45f7&#45;942f&#45;2bd13309528b -->
<g id="node12" class="node">
<title>aba205ae&#45;aa7a&#45;45f7&#45;942f&#45;2bd13309528b</title>
<polygon fill="cornsilk" stroke="black" points="733.78,-468 644.78,-468 644.78,-432 733.78,-432 733.78,-468"/>
<text text-anchor="middle" x="689.28" y="-446.3" font-family="Helvetica,sans-Serif" font-size="14.00">INITIALIZE</text>
</g>
<!-- 101985e6&#45;bfed&#45;4f62&#45;b69d&#45;d86d0434ee47&#45;&gt;aba205ae&#45;aa7a&#45;45f7&#45;942f&#45;2bd13309528b -->
<g id="edge8" class="edge">
<title>101985e6&#45;bfed&#45;4f62&#45;b69d&#45;d86d0434ee47&#45;&gt;aba205ae&#45;aa7a&#45;45f7&#45;942f&#45;2bd13309528b</title>
<path fill="none" stroke="black" d="M689.28,-503.7C689.28,-495.98 689.28,-486.71 689.28,-478.11"/>
<polygon fill="none" stroke="black" points="692.78,-478.1 689.28,-468.1 685.78,-478.1 692.78,-478.1"/>
</g>
<!-- 4269469c&#45;52e1&#45;418f&#45;9a02&#45;effb6ef4f147 -->
<g id="node19" class="node">
<title>4269469c&#45;52e1&#45;418f&#45;9a02&#45;effb6ef4f147</title>
<polygon fill="cornsilk" stroke="black" points="689.28,-396 656.93,-378 689.28,-360 721.62,-378 689.28,-396"/>
<text text-anchor="middle" x="689.28" y="-374.3" font-family="Helvetica,sans-Serif" font-size="14.00">KB</text>
</g>
<!-- aba205ae&#45;aa7a&#45;45f7&#45;942f&#45;2bd13309528b&#45;&gt;4269469c&#45;52e1&#45;418f&#45;9a02&#45;effb6ef4f147 -->
<g id="edge13" class="edge">
<title>aba205ae&#45;aa7a&#45;45f7&#45;942f&#45;2bd13309528b&#45;&gt;4269469c&#45;52e1&#45;418f&#45;9a02&#45;effb6ef4f147</title>
<path fill="none" stroke="black" d="M689.28,-431.7C689.28,-423.98 689.28,-414.71 689.28,-406.11"/>
<polygon fill="none" stroke="black" points="692.78,-406.1 689.28,-396.1 685.78,-406.1 692.78,-406.1"/>
</g>
<!-- ad7d5dbb&#45;9615&#45;4ace&#45;8152&#45;7ae6cbb32ab8 -->
<g id="node13" class="node">
<title>ad7d5dbb&#45;9615&#45;4ace&#45;8152&#45;7ae6cbb32ab8</title>
<polygon fill="cornsilk" stroke="black" points="333.28,-396 221.28,-396 221.28,-360 333.28,-360 333.28,-396"/>
<text text-anchor="middle" x="277.28" y="-374.3" font-family="Helvetica,sans-Serif" font-size="14.00">DISPLAY CELL</text>
</g>
<!-- eb65beda&#45;edef&#45;432d&#45;8adf&#45;9fa07565478c -->
<g id="node14" class="node">
<title>eb65beda&#45;edef&#45;432d&#45;8adf&#45;9fa07565478c</title>
<polygon fill="cornsilk" stroke="black" points="277.28,-324 244.93,-306 277.28,-288 309.62,-306 277.28,-324"/>
<text text-anchor="middle" x="277.28" y="-302.3" font-family="Helvetica,sans-Serif" font-size="14.00">AK</text>
</g>
<!-- ad7d5dbb&#45;9615&#45;4ace&#45;8152&#45;7ae6cbb32ab8&#45;&gt;eb65beda&#45;edef&#45;432d&#45;8adf&#45;9fa07565478c -->
<g id="edge9" class="edge">
<title>ad7d5dbb&#45;9615&#45;4ace&#45;8152&#45;7ae6cbb32ab8&#45;&gt;eb65beda&#45;edef&#45;432d&#45;8adf&#45;9fa07565478c</title>
<path fill="none" stroke="black" d="M271.36,-359.7C270.48,-351.2 270.3,-340.81 270.8,-331.52"/>
<polygon fill="none" stroke="black" points="274.31,-331.55 271.71,-321.28 267.34,-330.93 274.31,-331.55"/>
</g>
<!-- eb65beda&#45;edef&#45;432d&#45;8adf&#45;9fa07565478c&#45;&gt;8525a33d&#45;996b&#45;42cc&#45;aa7c&#45;e5d8a1a70a82 -->
<g id="edge24" class="edge">
<title>eb65beda&#45;edef&#45;432d&#45;8adf&#45;9fa07565478c&#45;&gt;8525a33d&#45;996b&#45;42cc&#45;aa7c&#45;e5d8a1a70a82</title>
<path fill="none" stroke="black" d="M297.4,-299.03C335.85,-287.63 420.5,-262.52 471.63,-247.35"/>
<polygon fill="none" stroke="black" points="472.79,-250.66 481.39,-244.46 470.8,-243.95 472.79,-250.66"/>
<text text-anchor="middle" x="323.9" y="-287.83" font-family="Helvetica,sans-Serif" font-size="14.00">NO KEY</text>
</g>
<!-- eb65beda&#45;edef&#45;432d&#45;8adf&#45;9fa07565478c&#45;&gt;ad7d5dbb&#45;9615&#45;4ace&#45;8152&#45;7ae6cbb32ab8 -->
<g id="edge25" class="edge">
<title>eb65beda&#45;edef&#45;432d&#45;8adf&#45;9fa07565478c&#45;&gt;ad7d5dbb&#45;9615&#45;4ace&#45;8152&#45;7ae6cbb32ab8</title>
<path fill="none" stroke="black" d="M282.84,-321.28C283.91,-329.44 284.25,-339.96 283.88,-349.65"/>
<polygon fill="none" stroke="black" points="280.38,-349.48 283.19,-359.7 287.37,-349.96 280.38,-349.48"/>
</g>
<!-- bbb52d7d&#45;4f38&#45;473e&#45;834c&#45;d95efde29bc2&#45;&gt;8525a33d&#45;996b&#45;42cc&#45;aa7c&#45;e5d8a1a70a82 -->
<g id="edge10" class="edge">
<title>bbb52d7d&#45;4f38&#45;473e&#45;834c&#45;d95efde29bc2&#45;&gt;8525a33d&#45;996b&#45;42cc&#45;aa7c&#45;e5d8a1a70a82</title>
<path fill="none" stroke="black" d="M322.67,-579.76C335.67,-555.18 361.28,-500.5 361.28,-451 361.28,-451 361.28,-451 361.28,-377 361.28,-336.03 358.24,-318.78 385.28,-288 406.34,-264.02 439.96,-250.66 467.46,-243.35"/>
<polygon fill="none" stroke="black" points="468.41,-246.72 477.28,-240.93 466.73,-239.93 468.41,-246.72"/>
<text text-anchor="middle" x="349.17" y="-568.56" font-family="Helvetica,sans-Serif" font-size="14.00">NO KEY</text>
</g>
<!-- 57526097&#45;37ae&#45;4988&#45;8a59&#45;87939638e06a -->
<g id="node16" class="node">
<title>57526097&#45;37ae&#45;4988&#45;8a59&#45;87939638e06a</title>
<polygon fill="cornsilk" stroke="black" points="323.78,-540 248.78,-540 248.78,-504 323.78,-504 323.78,-540"/>
<text text-anchor="middle" x="286.28" y="-518.3" font-family="Helvetica,sans-Serif" font-size="14.00">GET KEY</text>
</g>
<!-- bbb52d7d&#45;4f38&#45;473e&#45;834c&#45;d95efde29bc2&#45;&gt;57526097&#45;37ae&#45;4988&#45;8a59&#45;87939638e06a -->
<g id="edge11" class="edge">
<title>bbb52d7d&#45;4f38&#45;473e&#45;834c&#45;d95efde29bc2&#45;&gt;57526097&#45;37ae&#45;4988&#45;8a59&#45;87939638e06a</title>
<path fill="none" stroke="black" d="M309.55,-579.17C306.02,-570.66 301.38,-559.46 297.18,-549.31"/>
<polygon fill="none" stroke="black" points="300.39,-547.92 293.33,-540.02 293.92,-550.6 300.39,-547.92"/>
</g>
<!-- baedf981&#45;1268&#45;4867&#45;bbdc&#45;33801b2a96bd -->
<g id="node21" class="node">
<title>baedf981&#45;1268&#45;4867&#45;bbdc&#45;33801b2a96bd</title>
<polygon fill="cornsilk" stroke="black" points="332.78,-468 219.78,-468 219.78,-432 332.78,-432 332.78,-468"/>
<text text-anchor="middle" x="276.28" y="-446.3" font-family="Helvetica,sans-Serif" font-size="14.00">EXECUTE KEY</text>
</g>
<!-- 57526097&#45;37ae&#45;4988&#45;8a59&#45;87939638e06a&#45;&gt;baedf981&#45;1268&#45;4867&#45;bbdc&#45;33801b2a96bd -->
<g id="edge30" class="edge">
<title>57526097&#45;37ae&#45;4988&#45;8a59&#45;87939638e06a&#45;&gt;baedf981&#45;1268&#45;4867&#45;bbdc&#45;33801b2a96bd</title>
<path fill="none" stroke="black" d="M283.8,-503.7C282.7,-495.98 281.38,-486.71 280.15,-478.11"/>
<polygon fill="none" stroke="black" points="283.6,-477.51 278.72,-468.1 276.67,-478.5 283.6,-477.51"/>
</g>
<!-- 31fddea1&#45;ae2e&#45;4917&#45;9546&#45;ffbd3179dc64 -->
<g id="node17" class="node">
<title>31fddea1&#45;ae2e&#45;4917&#45;9546&#45;ffbd3179dc64</title>
<ellipse fill="cornsilk" stroke="black" cx="998.28" cy="-882" rx="27.1" ry="18"/>
<text text-anchor="middle" x="998.28" y="-878.3" font-family="Helvetica,sans-Serif" font-size="14.00">IRQ</text>
</g>
<!-- e801bd2a&#45;a530&#45;42bc&#45;be44&#45;1f2ec091b443 -->
<g id="node18" class="node">
<title>e801bd2a&#45;a530&#45;42bc&#45;be44&#45;1f2ec091b443</title>
<polygon fill="cornsilk" stroke="black" points="1054.78,-828 945.78,-828 941.78,-824 941.78,-792 1050.78,-792 1054.78,-796 1054.78,-828"/>
<polyline fill="none" stroke="black" points="1050.78,-824 941.78,-824 "/>
<polyline fill="none" stroke="black" points="1050.78,-824 1050.78,-792 "/>
<polyline fill="none" stroke="black" points="1050.78,-824 1054.78,-828 "/>
<text text-anchor="middle" x="998.28" y="-806.3" font-family="Helvetica,sans-Serif" font-size="14.00">USER OPTION</text>
</g>
<!-- 31fddea1&#45;ae2e&#45;4917&#45;9546&#45;ffbd3179dc64&#45;&gt;e801bd2a&#45;a530&#45;42bc&#45;be44&#45;1f2ec091b443 -->
<g id="edge12" class="edge">
<title>31fddea1&#45;ae2e&#45;4917&#45;9546&#45;ffbd3179dc64&#45;&gt;e801bd2a&#45;a530&#45;42bc&#45;be44&#45;1f2ec091b443</title>
<path fill="none" stroke="black" d="M998.28,-863.7C998.28,-855.98 998.28,-846.71 998.28,-838.11"/>
<polygon fill="none" stroke="black" points="1001.78,-838.1 998.28,-828.1 994.78,-838.1 1001.78,-838.1"/>
</g>
<!-- 4269469c&#45;52e1&#45;418f&#45;9a02&#45;effb6ef4f147&#45;&gt;8525a33d&#45;996b&#45;42cc&#45;aa7c&#45;e5d8a1a70a82 -->
<g id="edge18" class="edge">
<title>4269469c&#45;52e1&#45;418f&#45;9a02&#45;effb6ef4f147&#45;&gt;8525a33d&#45;996b&#45;42cc&#45;aa7c&#45;e5d8a1a70a82</title>
<path fill="none" stroke="black" d="M680.35,-364.91C666.44,-346.65 638.06,-311.63 608.28,-288 590.3,-273.74 568,-261.08 549.51,-251.71"/>
<polygon fill="none" stroke="black" points="551.03,-248.56 540.51,-247.25 547.92,-254.83 551.03,-248.56"/>
<text text-anchor="middle" x="670.85" y="-353.71" font-family="Helvetica,sans-Serif" font-size="14.00">KB</text>
</g>
<!-- cf2b18e5&#45;d72c&#45;4830&#45;83f0&#45;c3ae7b28073d -->
<g id="node22" class="node">
<title>cf2b18e5&#45;d72c&#45;4830&#45;83f0&#45;c3ae7b28073d</title>
<polygon fill="cornsilk" stroke="black" points="846.78,-324 655.78,-324 655.78,-288 846.78,-288 846.78,-324"/>
<text text-anchor="middle" x="751.28" y="-302.3" font-family="Helvetica,sans-Serif" font-size="14.00">BIT RATE MEASUREMENT</text>
</g>
<!-- 4269469c&#45;52e1&#45;418f&#45;9a02&#45;effb6ef4f147&#45;&gt;cf2b18e5&#45;d72c&#45;4830&#45;83f0&#45;c3ae7b28073d -->
<g id="edge19" class="edge">
<title>4269469c&#45;52e1&#45;418f&#45;9a02&#45;effb6ef4f147&#45;&gt;cf2b18e5&#45;d72c&#45;4830&#45;83f0&#45;c3ae7b28073d</title>
<path fill="none" stroke="black" d="M699.51,-365.44C707.62,-356.29 719.22,-343.19 729.4,-331.7"/>
<polygon fill="none" stroke="black" points="732.14,-333.89 736.15,-324.08 726.9,-329.25 732.14,-333.89"/>
<text text-anchor="middle" x="712.01" y="-354.24" font-family="Helvetica,sans-Serif" font-size="14.00">TTY</text>
</g>
<!-- 881c0155&#45;c6d7&#45;4340&#45;8cd4&#45;8c6d8bedcfa4&#45;&gt;70b58f81&#45;dc19&#45;4669&#45;bf48&#45;5d967f140786 -->
<g id="edge21" class="edge">
<title>881c0155&#45;c6d7&#45;4340&#45;8cd4&#45;8c6d8bedcfa4&#45;&gt;70b58f81&#45;dc19&#45;4669&#45;bf48&#45;5d967f140786</title>
<path fill="none" stroke="black" d="M695.66,-167.55C748.26,-179.68 875.28,-217.98 875.28,-305 875.28,-667 875.28,-667 875.28,-667 875.28,-755.49 758.07,-789.15 680.75,-801.73"/>
<polygon fill="none" stroke="black" points="679.94,-798.31 670.59,-803.3 681,-805.23 679.94,-798.31"/>
<text text-anchor="middle" x="705.16" y="-171.35" font-family="Helvetica,sans-Serif" font-size="14.00">KB</text>
</g>
<!-- 881c0155&#45;c6d7&#45;4340&#45;8cd4&#45;8c6d8bedcfa4&#45;&gt;33d111a0&#45;9f4c&#45;4725&#45;bad1&#45;f681cebd5849 -->
<g id="edge22" class="edge">
<title>881c0155&#45;c6d7&#45;4340&#45;8cd4&#45;8c6d8bedcfa4&#45;&gt;33d111a0&#45;9f4c&#45;4725&#45;bad1&#45;f681cebd5849</title>
<path fill="none" stroke="black" d="M673.28,-143.7C673.28,-135.98 673.28,-126.71 673.28,-118.11"/>
<polygon fill="none" stroke="black" points="676.78,-118.1 673.28,-108.1 669.78,-118.1 676.78,-118.1"/>
<text text-anchor="middle" x="660.78" y="-132.5" font-family="Helvetica,sans-Serif" font-size="14.00">TTY</text>
</g>
<!-- baedf981&#45;1268&#45;4867&#45;bbdc&#45;33801b2a96bd&#45;&gt;a600638e&#45;af10&#45;4d32&#45;b3d0&#45;bc42bcbee50c -->
<g id="edge16" class="edge">
<title>baedf981&#45;1268&#45;4867&#45;bbdc&#45;33801b2a96bd&#45;&gt;a600638e&#45;af10&#45;4d32&#45;b3d0&#45;bc42bcbee50c</title>
<path fill="none" stroke="black" d="M237.13,-431.88C215.26,-422.31 187.82,-410.3 164.61,-400.15"/>
<polygon fill="none" stroke="black" points="165.85,-396.87 155.29,-396.07 163.05,-403.28 165.85,-396.87"/>
<text text-anchor="middle" x="221.63" y="-420.68" font-family="Helvetica,sans-Serif" font-size="14.00">RUN</text>
</g>
<!-- baedf981&#45;1268&#45;4867&#45;bbdc&#45;33801b2a96bd&#45;&gt;ad7d5dbb&#45;9615&#45;4ace&#45;8152&#45;7ae6cbb32ab8 -->
<g id="edge17" class="edge">
<title>baedf981&#45;1268&#45;4867&#45;bbdc&#45;33801b2a96bd&#45;&gt;ad7d5dbb&#45;9615&#45;4ace&#45;8152&#45;7ae6cbb32ab8</title>
<path fill="none" stroke="black" d="M276.52,-431.7C276.63,-423.98 276.77,-414.71 276.89,-406.11"/>
<polygon fill="none" stroke="black" points="280.39,-406.15 277.03,-396.1 273.39,-406.05 280.39,-406.15"/>
</g>
<!-- cf2b18e5&#45;d72c&#45;4830&#45;83f0&#45;c3ae7b28073d&#45;&gt;8525a33d&#45;996b&#45;42cc&#45;aa7c&#45;e5d8a1a70a82 -->
<g id="edge20" class="edge">
<title>cf2b18e5&#45;d72c&#45;4830&#45;83f0&#45;c3ae7b28073d&#45;&gt;8525a33d&#45;996b&#45;42cc&#45;aa7c&#45;e5d8a1a70a82</title>
<path fill="none" stroke="black" d="M693.36,-287.97C650.67,-275.41 593.58,-258.62 555.23,-247.34"/>
<polygon fill="none" stroke="black" points="556,-243.92 545.42,-244.45 554.03,-250.63 556,-243.92"/>
</g>
<!-- 0fb2d56d&#45;40d6&#45;4195&#45;b1e3&#45;0248343a8878 -->
<g id="node23" class="node">
<title>0fb2d56d&#45;40d6&#45;4195&#45;b1e3&#45;0248343a8878</title>
<polygon fill="cornsilk" stroke="black" points="599.28,-324 427.28,-324 427.28,-288 599.28,-288 599.28,-324"/>
<text text-anchor="middle" x="513.28" y="-302.3" font-family="Helvetica,sans-Serif" font-size="14.00">SAVE MPU REGISTERS</text>
</g>
<!-- 0fb2d56d&#45;40d6&#45;4195&#45;b1e3&#45;0248343a8878&#45;&gt;8525a33d&#45;996b&#45;42cc&#45;aa7c&#45;e5d8a1a70a82 -->
<g id="edge26" class="edge">
<title>0fb2d56d&#45;40d6&#45;4195&#45;b1e3&#45;0248343a8878&#45;&gt;8525a33d&#45;996b&#45;42cc&#45;aa7c&#45;e5d8a1a70a82</title>
<path fill="none" stroke="black" d="M513.28,-287.7C513.28,-279.98 513.28,-270.71 513.28,-262.11"/>
<polygon fill="none" stroke="black" points="516.78,-262.1 513.28,-252.1 509.78,-262.1 516.78,-262.1"/>
</g>
<!-- 332c3ff2&#45;65de&#45;43f1&#45;b60c&#45;25bd19ddcfc4 -->
<g id="node24" class="node">
<title>332c3ff2&#45;65de&#45;43f1&#45;b60c&#45;25bd19ddcfc4</title>
<ellipse fill="cornsilk" stroke="black" cx="513.28" cy="-378" rx="28.7" ry="18"/>
<text text-anchor="middle" x="513.28" y="-374.3" font-family="Helvetica,sans-Serif" font-size="14.00">NMI</text>
</g>
<!-- 332c3ff2&#45;65de&#45;43f1&#45;b60c&#45;25bd19ddcfc4&#45;&gt;0fb2d56d&#45;40d6&#45;4195&#45;b1e3&#45;0248343a8878 -->
<g id="edge27" class="edge">
<title>332c3ff2&#45;65de&#45;43f1&#45;b60c&#45;25bd19ddcfc4&#45;&gt;0fb2d56d&#45;40d6&#45;4195&#45;b1e3&#45;0248343a8878</title>
<path fill="none" stroke="black" d="M513.28,-359.7C513.28,-351.98 513.28,-342.71 513.28,-334.11"/>
<polygon fill="none" stroke="black" points="516.78,-334.1 513.28,-324.1 509.78,-334.1 516.78,-334.1"/>
</g>
</g>
</svg>
