<?xml version="1.0" encoding="UTF-8" standalone="no"?>
<!DOCTYPE svg PUBLIC "-//W3C//DTD SVG 1.1//EN"
 "http://www.w3.org/Graphics/SVG/1.1/DTD/svg11.dtd">
<!-- Generated by graphviz version 2.38.0 (20140413.2041)
 -->
<!-- Title: %3 Pages: 1 -->
<svg width="285pt" height="404pt"
 viewBox="0.00 0.00 284.62 404.00" xmlns="http://www.w3.org/2000/svg" xmlns:xlink="http://www.w3.org/1999/xlink">
<g id="graph0" class="graph" transform="scale(1 1) rotate(0) translate(4 400)">
<title>%3</title>
<polygon fill="white" stroke="none" points="-4,4 -4,-400 280.617,-400 280.617,4 -4,4"/>
<!-- caecb3f0&#45;85d0&#45;4c29&#45;ad55&#45;275bba28e9f1 -->
<g id="node1" class="node"><title>caecb3f0&#45;85d0&#45;4c29&#45;ad55&#45;275bba28e9f1</title>
<polygon fill="cornsilk" stroke="black" points="19.1423,-360 72.7734,-360 91.8736,-396 0.0420985,-396 19.1423,-360"/>
<text text-anchor="middle" x="45.9579" y="-374.3" font-family="Helvetica,sans-Serif" font-size="14.00">Fix it</text>
</g>
<!-- 032b2eb2&#45;e801&#45;444f&#45;ac1a&#45;1d87b9cc3869 -->
<g id="node2" class="node"><title>032b2eb2&#45;e801&#45;444f&#45;ac1a&#45;1d87b9cc3869</title>
<polygon fill="cornsilk" stroke="black" points="183.958,-324 73.9579,-324 73.9579,-288 183.958,-288 183.958,-324"/>
<text text-anchor="middle" x="128.958" y="-302.3" font-family="Helvetica,sans-Serif" font-size="14.00">My Operation</text>
</g>
<!-- caecb3f0&#45;85d0&#45;4c29&#45;ad55&#45;275bba28e9f1&#45;&gt;032b2eb2&#45;e801&#45;444f&#45;ac1a&#45;1d87b9cc3869 -->
<g id="edge1" class="edge"><title>caecb3f0&#45;85d0&#45;4c29&#45;ad55&#45;275bba28e9f1&#45;&gt;032b2eb2&#45;e801&#45;444f&#45;ac1a&#45;1d87b9cc3869</title>
<path fill="none" stroke="black" d="M66.4747,-359.697C76.8273,-350.965 89.5441,-340.24 100.797,-330.75"/>
<polygon fill="none" stroke="black" points="103.289,-333.227 108.677,-324.104 98.7762,-327.876 103.289,-333.227"/>
</g>
<!-- 2b611696&#45;123d&#45;4ba6&#45;ada0&#45;b1ac09d803d9 -->
<g id="node3" class="node"><title>2b611696&#45;123d&#45;4ba6&#45;ada0&#45;b1ac09d803d9</title>
<polygon fill="cornsilk" stroke="black" points="151.958,-252 97.9579,-252 97.9579,-216 151.958,-216 151.958,-252"/>
</g>
<!-- 032b2eb2&#45;e801&#45;444f&#45;ac1a&#45;1d87b9cc3869&#45;&gt;2b611696&#45;123d&#45;4ba6&#45;ada0&#45;b1ac09d803d9 -->
<g id="edge2" class="edge"><title>032b2eb2&#45;e801&#45;444f&#45;ac1a&#45;1d87b9cc3869&#45;&gt;2b611696&#45;123d&#45;4ba6&#45;ada0&#45;b1ac09d803d9</title>
<path fill="none" stroke="black" d="M127.969,-287.697C127.528,-279.983 126.999,-270.712 126.507,-262.112"/>
<polygon fill="none" stroke="black" points="130,-261.888 125.935,-252.104 123.012,-262.288 130,-261.888"/>
</g>
<!-- 409a34da&#45;1b6e&#45;47e1&#45;875d&#45;a9d6f2bb4e26 -->
<g id="node7" class="node"><title>409a34da&#45;1b6e&#45;47e1&#45;875d&#45;a9d6f2bb4e26</title>
<polygon fill="cornsilk" stroke="black" points="117.958,-180 77.5719,-162 117.958,-144 158.344,-162 117.958,-180"/>
<text text-anchor="middle" x="117.958" y="-158.3" font-family="Helvetica,sans-Serif" font-size="14.00">OK?</text>
</g>
<!-- 2b611696&#45;123d&#45;4ba6&#45;ada0&#45;b1ac09d803d9&#45;&gt;409a34da&#45;1b6e&#45;47e1&#45;875d&#45;a9d6f2bb4e26 -->
<g id="edge5" class="edge"><title>2b611696&#45;123d&#45;4ba6&#45;ada0&#45;b1ac09d803d9&#45;&gt;409a34da&#45;1b6e&#45;47e1&#45;875d&#45;a9d6f2bb4e26</title>
<path fill="none" stroke="black" d="M123.228,-215.697C122.445,-207.868 121.501,-198.435 120.631,-189.728"/>
<polygon fill="none" stroke="black" points="124.098,-189.224 119.62,-179.622 117.133,-189.921 124.098,-189.224"/>
</g>
<!-- 3cd70c4a&#45;864c&#45;4930&#45;9ba3&#45;0475b4585e8a -->
<g id="node4" class="node"><title>3cd70c4a&#45;864c&#45;4930&#45;9ba3&#45;0475b4585e8a</title>
<ellipse fill="cornsilk" stroke="black" cx="208.958" cy="-18" rx="27.0966" ry="18"/>
<text text-anchor="middle" x="208.958" y="-14.3" font-family="Helvetica,sans-Serif" font-size="14.00">end</text>
</g>
<!-- 2799b1f7&#45;68bc&#45;4ea2&#45;a168&#45;35066ad7f597 -->
<g id="node5" class="node"><title>2799b1f7&#45;68bc&#45;4ea2&#45;a168&#45;35066ad7f597</title>
<polygon fill="cornsilk" stroke="black" points="110.458,-108 37.4579,-108 33.4579,-104 33.4579,-72 106.458,-72 110.458,-76 110.458,-108"/>
<polyline fill="none" stroke="black" points="106.458,-104 33.4579,-104 "/>
<polyline fill="none" stroke="black" points="106.458,-104 106.458,-72 "/>
<polyline fill="none" stroke="black" points="106.458,-104 110.458,-108 "/>
<text text-anchor="middle" x="71.9579" y="-86.3" font-family="Helvetica,sans-Serif" font-size="14.00">FOOBAR</text>
</g>
<!-- 2799b1f7&#45;68bc&#45;4ea2&#45;a168&#45;35066ad7f597&#45;&gt;caecb3f0&#45;85d0&#45;4c29&#45;ad55&#45;275bba28e9f1 -->
<g id="edge3" class="edge"><title>2799b1f7&#45;68bc&#45;4ea2&#45;a168&#45;35066ad7f597&#45;&gt;caecb3f0&#45;85d0&#45;4c29&#45;ad55&#45;275bba28e9f1</title>
<path fill="none" stroke="black" d="M70.3845,-108.306C66.0204,-156.313 53.7361,-291.439 48.4395,-349.702"/>
<polygon fill="none" stroke="black" points="44.9262,-349.69 47.5064,-359.966 51.8975,-350.324 44.9262,-349.69"/>
</g>
<!-- 1ed8dec2&#45;5761&#45;4cd1&#45;a9ce&#45;d05203589d00 -->
<g id="node6" class="node"><title>1ed8dec2&#45;5761&#45;4cd1&#45;a9ce&#45;d05203589d00</title>
<ellipse fill="cornsilk" stroke="black" cx="141.958" cy="-378" rx="32.4942" ry="18"/>
<text text-anchor="middle" x="141.958" y="-374.3" font-family="Helvetica,sans-Serif" font-size="14.00">start</text>
</g>
<!-- 1ed8dec2&#45;5761&#45;4cd1&#45;a9ce&#45;d05203589d00&#45;&gt;032b2eb2&#45;e801&#45;444f&#45;ac1a&#45;1d87b9cc3869 -->
<g id="edge4" class="edge"><title>1ed8dec2&#45;5761&#45;4cd1&#45;a9ce&#45;d05203589d00&#45;&gt;032b2eb2&#45;e801&#45;444f&#45;ac1a&#45;1d87b9cc3869</title>
<path fill="none" stroke="black" d="M138.811,-360.055C137.379,-352.346 135.649,-343.027 134.04,-334.364"/>
<polygon fill="none" stroke="black" points="137.433,-333.468 132.166,-324.275 130.551,-334.746 137.433,-333.468"/>
</g>
<!-- 409a34da&#45;1b6e&#45;47e1&#45;875d&#45;a9d6f2bb4e26&#45;&gt;2799b1f7&#45;68bc&#45;4ea2&#45;a168&#45;35066ad7f597 -->
<g id="edge8" class="edge"><title>409a34da&#45;1b6e&#45;47e1&#45;875d&#45;a9d6f2bb4e26&#45;&gt;2799b1f7&#45;68bc&#45;4ea2&#45;a168&#45;35066ad7f597</title>
<path fill="none" stroke="black" d="M109.306,-147.834C103.531,-139.046 95.7479,-127.202 88.7811,-116.601"/>
<polygon fill="none" stroke="black" points="91.5999,-114.517 83.1831,-108.082 85.75,-118.361 91.5999,-114.517"/>
<text text-anchor="middle" x="100.306" y="-136.634" font-family="Helvetica,sans-Serif" font-size="14.00">no</text>
</g>
<!-- 34e58b81&#45;a087&#45;4f8a&#45;84b2&#45;82cef0a9fa88 -->
<g id="node9" class="node"><title>34e58b81&#45;a087&#45;4f8a&#45;84b2&#45;82cef0a9fa88</title>
<polygon fill="cornsilk" stroke="black" points="276.776,-108 168.893,-108 141.14,-72 249.023,-72 276.776,-108"/>
<text text-anchor="middle" x="208.958" y="-86.3" font-family="Helvetica,sans-Serif" font-size="14.00">Catch it</text>
</g>
<!-- 409a34da&#45;1b6e&#45;47e1&#45;875d&#45;a9d6f2bb4e26&#45;&gt;34e58b81&#45;a087&#45;4f8a&#45;84b2&#45;82cef0a9fa88 -->
<g id="edge7" class="edge"><title>409a34da&#45;1b6e&#45;47e1&#45;875d&#45;a9d6f2bb4e26&#45;&gt;34e58b81&#45;a087&#45;4f8a&#45;84b2&#45;82cef0a9fa88</title>
<path fill="none" stroke="black" d="M132.177,-150.062C144.492,-140.589 162.734,-126.556 178.348,-114.546"/>
<polygon fill="none" stroke="black" points="180.904,-116.995 186.697,-108.124 176.636,-111.447 180.904,-116.995"/>
<text text-anchor="middle" x="144.177" y="-138.863" font-family="Helvetica,sans-Serif" font-size="14.00">yes</text>
</g>
<!-- 69a5465a&#45;4e4f&#45;4cc9&#45;8ac8&#45;4ab235ae2974 -->
<g id="node8" class="node"><title>69a5465a&#45;4e4f&#45;4cc9&#45;8ac8&#45;4ab235ae2974</title>
<ellipse fill="cornsilk" stroke="black" cx="222.958" cy="-162" rx="46.5926" ry="18"/>
<text text-anchor="middle" x="222.958" y="-158.3" font-family="Helvetica,sans-Serif" font-size="14.00">alt start</text>
</g>
<!-- 69a5465a&#45;4e4f&#45;4cc9&#45;8ac8&#45;4ab235ae2974&#45;&gt;34e58b81&#45;a087&#45;4f8a&#45;84b2&#45;82cef0a9fa88 -->
<g id="edge6" class="edge"><title>69a5465a&#45;4e4f&#45;4cc9&#45;8ac8&#45;4ab235ae2974&#45;&gt;34e58b81&#45;a087&#45;4f8a&#45;84b2&#45;82cef0a9fa88</title>
<path fill="none" stroke="black" d="M219.497,-143.697C217.954,-135.983 216.1,-126.712 214.38,-118.112"/>
<polygon fill="none" stroke="black" points="217.772,-117.224 212.379,-108.104 210.908,-118.597 217.772,-117.224"/>
</g>
<!-- 34e58b81&#45;a087&#45;4f8a&#45;84b2&#45;82cef0a9fa88&#45;&gt;3cd70c4a&#45;864c&#45;4930&#45;9ba3&#45;0475b4585e8a -->
<g id="edge9" class="edge"><title>34e58b81&#45;a087&#45;4f8a&#45;84b2&#45;82cef0a9fa88&#45;&gt;3cd70c4a&#45;864c&#45;4930&#45;9ba3&#45;0475b4585e8a</title>
<path fill="none" stroke="black" d="M208.958,-71.6966C208.958,-63.9827 208.958,-54.7125 208.958,-46.1124"/>
<polygon fill="none" stroke="black" points="212.458,-46.1043 208.958,-36.1043 205.458,-46.1044 212.458,-46.1043"/>
</g>
</g>
</svg>
