<?xml version="1.0" encoding="UTF-8" standalone="no"?>
<!DOCTYPE svg PUBLIC "-//W3C//DTD SVG 1.1//EN"
 "http://www.w3.org/Graphics/SVG/1.1/DTD/svg11.dtd">
<!-- Generated by graphviz version 2.43.0 (0)
 -->
<!-- Title: %3 Pages: 1 -->
<svg width="375pt" height="332pt"
 viewBox="0.00 0.00 374.74 332.00" xmlns="http://www.w3.org/2000/svg" xmlns:xlink="http://www.w3.org/1999/xlink">
<g id="graph0" class="graph" transform="scale(1 1) rotate(0) translate(4 328)">
<title>%3</title>
<polygon fill="white" stroke="transparent" points="-4,4 -4,-328 370.74,-328 370.74,4 -4,4"/>
<!-- 6852517a&#45;21bd&#45;477b&#45;a201&#45;0eae9a072c77 -->
<g id="node1" class="node">
<title>6852517a&#45;21bd&#45;477b&#45;a201&#45;0eae9a072c77</title>
<polygon fill="cornsilk" stroke="black" points="197.04,-324 156.65,-306 197.04,-288 237.42,-306 197.04,-324"/>
<text text-anchor="middle" x="197.04" y="-302.3" font-family="Helvetica,sans-Serif" font-size="14.00">OK?</text>
</g>
<!-- 10549310&#45;c2cb&#45;4000&#45;a4b2&#45;813f4829ffa2 -->
<g id="node2" class="node">
<title>10549310&#45;c2cb&#45;4000&#45;a4b2&#45;813f4829ffa2</title>
<polygon fill="cornsilk" stroke="black" points="127.54,-252 54.54,-252 50.54,-248 50.54,-216 123.54,-216 127.54,-220 127.54,-252"/>
<polyline fill="none" stroke="black" points="123.54,-248 50.54,-248 "/>
<polyline fill="none" stroke="black" points="123.54,-248 123.54,-216 "/>
<polyline fill="none" stroke="black" points="123.54,-248 127.54,-252 "/>
<text text-anchor="middle" x="89.04" y="-230.3" font-family="Helvetica,sans-Serif" font-size="14.00">FOOBAR</text>
</g>
<!-- 6852517a&#45;21bd&#45;477b&#45;a201&#45;0eae9a072c77&#45;&gt;10549310&#45;c2cb&#45;4000&#45;a4b2&#45;813f4829ffa2 -->
<g id="edge1" class="edge">
<title>6852517a&#45;21bd&#45;477b&#45;a201&#45;0eae9a072c77&#45;&gt;10549310&#45;c2cb&#45;4000&#45;a4b2&#45;813f4829ffa2</title>
<path fill="none" stroke="black" d="M181.1,-294.67C166.14,-284.98 143.25,-270.14 124.04,-257.69"/>
<polygon fill="none" stroke="black" points="125.81,-254.66 115.51,-252.16 122,-260.54 125.81,-254.66"/>
<text text-anchor="middle" x="172.1" y="-283.47" font-family="Helvetica,sans-Serif" font-size="14.00">no</text>
</g>
<!-- a2be27b6&#45;6d8b&#45;441f&#45;9688&#45;029150387efb -->
<g id="node3" class="node">
<title>a2be27b6&#45;6d8b&#45;441f&#45;9688&#45;029150387efb</title>
<polygon fill="cornsilk" stroke="black" points="366.95,-252 260.51,-252 233.13,-216 339.57,-216 366.95,-252"/>
<text text-anchor="middle" x="300.04" y="-230.3" font-family="Helvetica,sans-Serif" font-size="14.00">Catch it</text>
</g>
<!-- 6852517a&#45;21bd&#45;477b&#45;a201&#45;0eae9a072c77&#45;&gt;a2be27b6&#45;6d8b&#45;441f&#45;9688&#45;029150387efb -->
<g id="edge2" class="edge">
<title>6852517a&#45;21bd&#45;477b&#45;a201&#45;0eae9a072c77&#45;&gt;a2be27b6&#45;6d8b&#45;441f&#45;9688&#45;029150387efb</title>
<path fill="none" stroke="black" d="M212.24,-294.67C226.38,-285.06 247.94,-270.41 266.16,-258.02"/>
<polygon fill="none" stroke="black" points="268.49,-260.68 274.79,-252.16 264.55,-254.89 268.49,-260.68"/>
<text text-anchor="middle" x="199.74" y="-283.47" font-family="Helvetica,sans-Serif" font-size="14.00">yes</text>
</g>
<!-- 9eb59ecb&#45;cb86&#45;432f&#45;b9c2&#45;bb8398658863 -->
<g id="node8" class="node">
<title>9eb59ecb&#45;cb86&#45;432f&#45;b9c2&#45;bb8398658863</title>
<polygon fill="cornsilk" stroke="black" points="18.71,-144 71.36,-144 90.12,-180 -0.04,-180 18.71,-144"/>
<text text-anchor="middle" x="45.04" y="-158.3" font-family="Helvetica,sans-Serif" font-size="14.00">Fix it</text>
</g>
<!-- 10549310&#45;c2cb&#45;4000&#45;a4b2&#45;813f4829ffa2&#45;&gt;9eb59ecb&#45;cb86&#45;432f&#45;b9c2&#45;bb8398658863 -->
<g id="edge7" class="edge">
<title>10549310&#45;c2cb&#45;4000&#45;a4b2&#45;813f4829ffa2&#45;&gt;9eb59ecb&#45;cb86&#45;432f&#45;b9c2&#45;bb8398658863</title>
<path fill="none" stroke="black" d="M78.16,-215.7C73.05,-207.56 66.84,-197.69 61.19,-188.7"/>
<polygon fill="none" stroke="black" points="64.07,-186.71 55.79,-180.1 58.15,-190.43 64.07,-186.71"/>
</g>
<!-- 497e963c&#45;2a48&#45;44d3&#45;981a&#45;1c08356f5950 -->
<g id="node4" class="node">
<title>497e963c&#45;2a48&#45;44d3&#45;981a&#45;1c08356f5950</title>
<ellipse fill="cornsilk" stroke="black" cx="300.04" cy="-162" rx="27.9" ry="18"/>
<text text-anchor="middle" x="300.04" y="-158.3" font-family="Helvetica,sans-Serif" font-size="14.00">end</text>
</g>
<!-- a2be27b6&#45;6d8b&#45;441f&#45;9688&#45;029150387efb&#45;&gt;497e963c&#45;2a48&#45;44d3&#45;981a&#45;1c08356f5950 -->
<g id="edge3" class="edge">
<title>a2be27b6&#45;6d8b&#45;441f&#45;9688&#45;029150387efb&#45;&gt;497e963c&#45;2a48&#45;44d3&#45;981a&#45;1c08356f5950</title>
<path fill="none" stroke="black" d="M300.04,-215.7C300.04,-207.98 300.04,-198.71 300.04,-190.11"/>
<polygon fill="none" stroke="black" points="303.54,-190.1 300.04,-180.1 296.54,-190.1 303.54,-190.1"/>
</g>
<!-- e96671e3&#45;ef11&#45;46e7&#45;9458&#45;35ff722ca302 -->
<g id="node5" class="node">
<title>e96671e3&#45;ef11&#45;46e7&#45;9458&#45;35ff722ca302</title>
<ellipse fill="cornsilk" stroke="black" cx="302.04" cy="-306" rx="46.29" ry="18"/>
<text text-anchor="middle" x="302.04" y="-302.3" font-family="Helvetica,sans-Serif" font-size="14.00">alt start</text>
</g>
<!-- e96671e3&#45;ef11&#45;46e7&#45;9458&#45;35ff722ca302&#45;&gt;a2be27b6&#45;6d8b&#45;441f&#45;9688&#45;029150387efb -->
<g id="edge4" class="edge">
<title>e96671e3&#45;ef11&#45;46e7&#45;9458&#45;35ff722ca302&#45;&gt;a2be27b6&#45;6d8b&#45;441f&#45;9688&#45;029150387efb</title>
<path fill="none" stroke="black" d="M301.54,-287.7C301.32,-279.98 301.06,-270.71 300.81,-262.11"/>
<polygon fill="none" stroke="black" points="304.31,-262 300.53,-252.1 297.31,-262.2 304.31,-262"/>
</g>
<!-- 9c9f717f&#45;95e0&#45;4d49&#45;a133&#45;e7127f18f40d -->
<g id="node6" class="node">
<title>9c9f717f&#45;95e0&#45;4d49&#45;a133&#45;e7127f18f40d</title>
<polygon fill="cornsilk" stroke="black" points="172.04,-108 62.04,-108 62.04,-72 172.04,-72 172.04,-108"/>
<text text-anchor="middle" x="117.04" y="-86.3" font-family="Helvetica,sans-Serif" font-size="14.00">My Operation</text>
</g>
<!-- 3b9085e7&#45;4fda&#45;4790&#45;9a3b&#45;8895e3ed716c -->
<g id="node7" class="node">
<title>3b9085e7&#45;4fda&#45;4790&#45;9a3b&#45;8895e3ed716c</title>
<polygon fill="cornsilk" stroke="black" points="185.04,-36 131.04,-36 131.04,0 185.04,0 185.04,-36"/>
</g>
<!-- 9c9f717f&#45;95e0&#45;4d49&#45;a133&#45;e7127f18f40d&#45;&gt;3b9085e7&#45;4fda&#45;4790&#45;9a3b&#45;8895e3ed716c -->
<g id="edge5" class="edge">
<title>9c9f717f&#45;95e0&#45;4d49&#45;a133&#45;e7127f18f40d&#45;&gt;3b9085e7&#45;4fda&#45;4790&#45;9a3b&#45;8895e3ed716c</title>
<path fill="none" stroke="black" d="M127.17,-71.7C131.89,-63.64 137.6,-53.89 142.82,-44.98"/>
<polygon fill="none" stroke="black" points="145.99,-46.5 148.02,-36.1 139.95,-42.96 145.99,-46.5"/>
</g>
<!-- 3b9085e7&#45;4fda&#45;4790&#45;9a3b&#45;8895e3ed716c&#45;&gt;6852517a&#45;21bd&#45;477b&#45;a201&#45;0eae9a072c77 -->
<g id="edge6" class="edge">
<title>3b9085e7&#45;4fda&#45;4790&#45;9a3b&#45;8895e3ed716c&#45;&gt;6852517a&#45;21bd&#45;477b&#45;a201&#45;0eae9a072c77</title>
<path fill="none" stroke="black" d="M167.26,-36.14C172.25,-46.28 178,-59.53 181.04,-72 198.82,-145 199.25,-234.39 198.12,-278.2"/>
<polygon fill="none" stroke="black" points="194.62,-278.22 197.81,-288.32 201.62,-278.43 194.62,-278.22"/>
</g>
<!-- 9eb59ecb&#45;cb86&#45;432f&#45;b9c2&#45;bb8398658863&#45;&gt;9c9f717f&#45;95e0&#45;4d49&#45;a133&#45;e7127f18f40d -->
<g id="edge8" class="edge">
<title>9eb59ecb&#45;cb86&#45;432f&#45;b9c2&#45;bb8398658863&#45;&gt;9c9f717f&#45;95e0&#45;4d49&#45;a133&#45;e7127f18f40d</title>
<path fill="none" stroke="black" d="M62.84,-143.7C71.64,-135.14 82.42,-124.66 92.04,-115.3"/>
<polygon fill="none" stroke="black" points="94.72,-117.58 99.45,-108.1 89.84,-112.57 94.72,-117.58"/>
</g>
<!-- 1c2787a9&#45;898a&#45;4dea&#45;84cf&#45;2670fe66b4de -->
<g id="node9" class="node">
<title>1c2787a9&#45;898a&#45;4dea&#45;84cf&#45;2670fe66b4de</title>
<ellipse fill="cornsilk" stroke="black" cx="140.04" cy="-162" rx="31.7" ry="18"/>
<text text-anchor="middle" x="140.04" y="-158.3" font-family="Helvetica,sans-Serif" font-size="14.00">start</text>
</g>
<!-- 1c2787a9&#45;898a&#45;4dea&#45;84cf&#45;2670fe66b4de&#45;&gt;9c9f717f&#45;95e0&#45;4d49&#45;a133&#45;e7127f18f40d -->
<g id="edge9" class="edge">
<title>1c2787a9&#45;898a&#45;4dea&#45;84cf&#45;2670fe66b4de&#45;&gt;9c9f717f&#45;95e0&#45;4d49&#45;a133&#45;e7127f18f40d</title>
<path fill="none" stroke="black" d="M134.47,-144.05C131.88,-136.18 128.74,-126.62 125.84,-117.79"/>
<polygon fill="none" stroke="black" points="129.16,-116.68 122.71,-108.28 122.51,-118.87 129.16,-116.68"/>
</g>
</g>
</svg>
