<?xml version="1.0" encoding="UTF-8" standalone="no"?>
<!DOCTYPE svg PUBLIC "-//W3C//DTD SVG 1.1//EN"
 "http://www.w3.org/Graphics/SVG/1.1/DTD/svg11.dtd">
<!-- Generated by graphviz version 2.38.0 (20140413.2041)
 -->
<!-- Title: %3 Pages: 1 -->
<svg width="285pt" height="404pt"
 viewBox="0.00 0.00 284.62 404.00" xmlns="http://www.w3.org/2000/svg" xmlns:xlink="http://www.w3.org/1999/xlink">
<g id="graph0" class="graph" transform="scale(1 1) rotate(0) translate(4 400)">
<title>%3</title>
<polygon fill="white" stroke="none" points="-4,4 -4,-400 280.617,-400 280.617,4 -4,4"/>
<!-- 770ff93b&#45;58b1&#45;4294&#45;8366&#45;db79a67ada5a -->
<g id="node1" class="node"><title>770ff93b&#45;58b1&#45;4294&#45;8366&#45;db79a67ada5a</title>
<polygon fill="cornsilk" stroke="black" points="19.1423,-360 72.7734,-360 91.8736,-396 0.0420985,-396 19.1423,-360"/>
<text text-anchor="middle" x="45.9579" y="-374.3" font-family="Helvetica,sans-Serif" font-size="14.00">Fix it</text>
</g>
<!-- 070ddd78&#45;aa59&#45;4452&#45;a6e3&#45;8cf52873627f -->
<g id="node2" class="node"><title>070ddd78&#45;aa59&#45;4452&#45;a6e3&#45;8cf52873627f</title>
<polygon fill="cornsilk" stroke="black" points="183.958,-324 73.9579,-324 73.9579,-288 183.958,-288 183.958,-324"/>
<text text-anchor="middle" x="128.958" y="-302.3" font-family="Helvetica,sans-Serif" font-size="14.00">My Operation</text>
</g>
<!-- 770ff93b&#45;58b1&#45;4294&#45;8366&#45;db79a67ada5a&#45;&gt;070ddd78&#45;aa59&#45;4452&#45;a6e3&#45;8cf52873627f -->
<g id="edge1" class="edge"><title>770ff93b&#45;58b1&#45;4294&#45;8366&#45;db79a67ada5a&#45;&gt;070ddd78&#45;aa59&#45;4452&#45;a6e3&#45;8cf52873627f</title>
<path fill="none" stroke="black" d="M66.4747,-359.697C76.8273,-350.965 89.5441,-340.24 100.797,-330.75"/>
<polygon fill="none" stroke="black" points="103.289,-333.227 108.677,-324.104 98.7762,-327.876 103.289,-333.227"/>
</g>
<!-- a0fdc968&#45;d4ad&#45;4876&#45;9111&#45;b7e40c7a43c7 -->
<g id="node3" class="node"><title>a0fdc968&#45;d4ad&#45;4876&#45;9111&#45;b7e40c7a43c7</title>
<polygon fill="cornsilk" stroke="black" points="151.958,-252 97.9579,-252 97.9579,-216 151.958,-216 151.958,-252"/>
</g>
<!-- 070ddd78&#45;aa59&#45;4452&#45;a6e3&#45;8cf52873627f&#45;&gt;a0fdc968&#45;d4ad&#45;4876&#45;9111&#45;b7e40c7a43c7 -->
<g id="edge2" class="edge"><title>070ddd78&#45;aa59&#45;4452&#45;a6e3&#45;8cf52873627f&#45;&gt;a0fdc968&#45;d4ad&#45;4876&#45;9111&#45;b7e40c7a43c7</title>
<path fill="none" stroke="black" d="M127.969,-287.697C127.528,-279.983 126.999,-270.712 126.507,-262.112"/>
<polygon fill="none" stroke="black" points="130,-261.888 125.935,-252.104 123.012,-262.288 130,-261.888"/>
</g>
<!-- 627f66cb&#45;89bc&#45;455a&#45;9110&#45;35b68448060c -->
<g id="node7" class="node"><title>627f66cb&#45;89bc&#45;455a&#45;9110&#45;35b68448060c</title>
<polygon fill="cornsilk" stroke="black" points="117.958,-180 77.5719,-162 117.958,-144 158.344,-162 117.958,-180"/>
<text text-anchor="middle" x="117.958" y="-158.3" font-family="Helvetica,sans-Serif" font-size="14.00">OK?</text>
</g>
<!-- a0fdc968&#45;d4ad&#45;4876&#45;9111&#45;b7e40c7a43c7&#45;&gt;627f66cb&#45;89bc&#45;455a&#45;9110&#45;35b68448060c -->
<g id="edge5" class="edge"><title>a0fdc968&#45;d4ad&#45;4876&#45;9111&#45;b7e40c7a43c7&#45;&gt;627f66cb&#45;89bc&#45;455a&#45;9110&#45;35b68448060c</title>
<path fill="none" stroke="black" d="M123.228,-215.697C122.445,-207.868 121.501,-198.435 120.631,-189.728"/>
<polygon fill="none" stroke="black" points="124.098,-189.224 119.62,-179.622 117.133,-189.921 124.098,-189.224"/>
</g>
<!-- 50246890&#45;0f9a&#45;48d9&#45;bb1f&#45;6516321e28d5 -->
<g id="node4" class="node"><title>50246890&#45;0f9a&#45;48d9&#45;bb1f&#45;6516321e28d5</title>
<ellipse fill="cornsilk" stroke="black" cx="208.958" cy="-18" rx="27.0966" ry="18"/>
<text text-anchor="middle" x="208.958" y="-14.3" font-family="Helvetica,sans-Serif" font-size="14.00">end</text>
</g>
<!-- 6081c367&#45;f4e6&#45;4ed2&#45;898b&#45;3b497b41dec5 -->
<g id="node5" class="node"><title>6081c367&#45;f4e6&#45;4ed2&#45;898b&#45;3b497b41dec5</title>
<polygon fill="cornsilk" stroke="black" points="110.458,-108 37.4579,-108 33.4579,-104 33.4579,-72 106.458,-72 110.458,-76 110.458,-108"/>
<polyline fill="none" stroke="black" points="106.458,-104 33.4579,-104 "/>
<polyline fill="none" stroke="black" points="106.458,-104 106.458,-72 "/>
<polyline fill="none" stroke="black" points="106.458,-104 110.458,-108 "/>
<text text-anchor="middle" x="71.9579" y="-86.3" font-family="Helvetica,sans-Serif" font-size="14.00">FOOBAR</text>
</g>
<!-- 6081c367&#45;f4e6&#45;4ed2&#45;898b&#45;3b497b41dec5&#45;&gt;770ff93b&#45;58b1&#45;4294&#45;8366&#45;db79a67ada5a -->
<g id="edge3" class="edge"><title>6081c367&#45;f4e6&#45;4ed2&#45;898b&#45;3b497b41dec5&#45;&gt;770ff93b&#45;58b1&#45;4294&#45;8366&#45;db79a67ada5a</title>
<path fill="none" stroke="black" d="M70.3845,-108.306C66.0204,-156.313 53.7361,-291.439 48.4395,-349.702"/>
<polygon fill="none" stroke="black" points="44.9262,-349.69 47.5064,-359.966 51.8975,-350.324 44.9262,-349.69"/>
</g>
<!-- 2d3b52a0&#45;bd42&#45;4de7&#45;babd&#45;399b39d54a7e -->
<g id="node6" class="node"><title>2d3b52a0&#45;bd42&#45;4de7&#45;babd&#45;399b39d54a7e</title>
<ellipse fill="cornsilk" stroke="black" cx="141.958" cy="-378" rx="32.4942" ry="18"/>
<text text-anchor="middle" x="141.958" y="-374.3" font-family="Helvetica,sans-Serif" font-size="14.00">start</text>
</g>
<!-- 2d3b52a0&#45;bd42&#45;4de7&#45;babd&#45;399b39d54a7e&#45;&gt;070ddd78&#45;aa59&#45;4452&#45;a6e3&#45;8cf52873627f -->
<g id="edge4" class="edge"><title>2d3b52a0&#45;bd42&#45;4de7&#45;babd&#45;399b39d54a7e&#45;&gt;070ddd78&#45;aa59&#45;4452&#45;a6e3&#45;8cf52873627f</title>
<path fill="none" stroke="black" d="M138.811,-360.055C137.379,-352.346 135.649,-343.027 134.04,-334.364"/>
<polygon fill="none" stroke="black" points="137.433,-333.468 132.166,-324.275 130.551,-334.746 137.433,-333.468"/>
</g>
<!-- 627f66cb&#45;89bc&#45;455a&#45;9110&#45;35b68448060c&#45;&gt;6081c367&#45;f4e6&#45;4ed2&#45;898b&#45;3b497b41dec5 -->
<g id="edge8" class="edge"><title>627f66cb&#45;89bc&#45;455a&#45;9110&#45;35b68448060c&#45;&gt;6081c367&#45;f4e6&#45;4ed2&#45;898b&#45;3b497b41dec5</title>
<path fill="none" stroke="black" d="M109.306,-147.834C103.531,-139.046 95.7479,-127.202 88.7811,-116.601"/>
<polygon fill="none" stroke="black" points="91.5999,-114.517 83.1831,-108.082 85.75,-118.361 91.5999,-114.517"/>
<text text-anchor="middle" x="100.306" y="-136.634" font-family="Helvetica,sans-Serif" font-size="14.00">no</text>
</g>
<!-- 7882a6f7&#45;1003&#45;4c07&#45;9825&#45;cca639b5b81c -->
<g id="node9" class="node"><title>7882a6f7&#45;1003&#45;4c07&#45;9825&#45;cca639b5b81c</title>
<polygon fill="cornsilk" stroke="black" points="276.776,-108 168.893,-108 141.14,-72 249.023,-72 276.776,-108"/>
<text text-anchor="middle" x="208.958" y="-86.3" font-family="Helvetica,sans-Serif" font-size="14.00">Catch it</text>
</g>
<!-- 627f66cb&#45;89bc&#45;455a&#45;9110&#45;35b68448060c&#45;&gt;7882a6f7&#45;1003&#45;4c07&#45;9825&#45;cca639b5b81c -->
<g id="edge7" class="edge"><title>627f66cb&#45;89bc&#45;455a&#45;9110&#45;35b68448060c&#45;&gt;7882a6f7&#45;1003&#45;4c07&#45;9825&#45;cca639b5b81c</title>
<path fill="none" stroke="black" d="M132.177,-150.062C144.492,-140.589 162.734,-126.556 178.348,-114.546"/>
<polygon fill="none" stroke="black" points="180.904,-116.995 186.697,-108.124 176.636,-111.447 180.904,-116.995"/>
<text text-anchor="middle" x="144.177" y="-138.863" font-family="Helvetica,sans-Serif" font-size="14.00">yes</text>
</g>
<!-- d0debc0f&#45;40ce&#45;47cd&#45;868b&#45;498c3409247f -->
<g id="node8" class="node"><title>d0debc0f&#45;40ce&#45;47cd&#45;868b&#45;498c3409247f</title>
<ellipse fill="cornsilk" stroke="black" cx="222.958" cy="-162" rx="46.5926" ry="18"/>
<text text-anchor="middle" x="222.958" y="-158.3" font-family="Helvetica,sans-Serif" font-size="14.00">alt start</text>
</g>
<!-- d0debc0f&#45;40ce&#45;47cd&#45;868b&#45;498c3409247f&#45;&gt;7882a6f7&#45;1003&#45;4c07&#45;9825&#45;cca639b5b81c -->
<g id="edge6" class="edge"><title>d0debc0f&#45;40ce&#45;47cd&#45;868b&#45;498c3409247f&#45;&gt;7882a6f7&#45;1003&#45;4c07&#45;9825&#45;cca639b5b81c</title>
<path fill="none" stroke="black" d="M219.497,-143.697C217.954,-135.983 216.1,-126.712 214.38,-118.112"/>
<polygon fill="none" stroke="black" points="217.772,-117.224 212.379,-108.104 210.908,-118.597 217.772,-117.224"/>
</g>
<!-- 7882a6f7&#45;1003&#45;4c07&#45;9825&#45;cca639b5b81c&#45;&gt;50246890&#45;0f9a&#45;48d9&#45;bb1f&#45;6516321e28d5 -->
<g id="edge9" class="edge"><title>7882a6f7&#45;1003&#45;4c07&#45;9825&#45;cca639b5b81c&#45;&gt;50246890&#45;0f9a&#45;48d9&#45;bb1f&#45;6516321e28d5</title>
<path fill="none" stroke="black" d="M208.958,-71.6966C208.958,-63.9827 208.958,-54.7125 208.958,-46.1124"/>
<polygon fill="none" stroke="black" points="212.458,-46.1043 208.958,-36.1043 205.458,-46.1044 212.458,-46.1043"/>
</g>
</g>
</svg>
