<?xml version="1.0" encoding="UTF-8" standalone="no"?>
<!DOCTYPE svg PUBLIC "-//W3C//DTD SVG 1.1//EN"
 "http://www.w3.org/Graphics/SVG/1.1/DTD/svg11.dtd">
<!-- Generated by graphviz version 2.38.0 (20140413.2041)
 -->
<!-- Title: %3 Pages: 1 -->
<svg width="285pt" height="404pt"
 viewBox="0.00 0.00 284.62 404.00" xmlns="http://www.w3.org/2000/svg" xmlns:xlink="http://www.w3.org/1999/xlink">
<g id="graph0" class="graph" transform="scale(1 1) rotate(0) translate(4 400)">
<title>%3</title>
<polygon fill="white" stroke="none" points="-4,4 -4,-400 280.617,-400 280.617,4 -4,4"/>
<!-- f90466f8&#45;21fd&#45;4f0e&#45;a487&#45;56030215afde -->
<g id="node1" class="node"><title>f90466f8&#45;21fd&#45;4f0e&#45;a487&#45;56030215afde</title>
<polygon fill="cornsilk" stroke="black" points="19.1423,-360 72.7734,-360 91.8736,-396 0.0420985,-396 19.1423,-360"/>
<text text-anchor="middle" x="45.9579" y="-374.3" font-family="Helvetica,sans-Serif" font-size="14.00">Fix it</text>
</g>
<!-- de7a714e&#45;f301&#45;4557&#45;a73c&#45;bcb4355b8951 -->
<g id="node2" class="node"><title>de7a714e&#45;f301&#45;4557&#45;a73c&#45;bcb4355b8951</title>
<polygon fill="cornsilk" stroke="black" points="183.958,-324 73.9579,-324 73.9579,-288 183.958,-288 183.958,-324"/>
<text text-anchor="middle" x="128.958" y="-302.3" font-family="Helvetica,sans-Serif" font-size="14.00">My Operation</text>
</g>
<!-- f90466f8&#45;21fd&#45;4f0e&#45;a487&#45;56030215afde&#45;&gt;de7a714e&#45;f301&#45;4557&#45;a73c&#45;bcb4355b8951 -->
<g id="edge1" class="edge"><title>f90466f8&#45;21fd&#45;4f0e&#45;a487&#45;56030215afde&#45;&gt;de7a714e&#45;f301&#45;4557&#45;a73c&#45;bcb4355b8951</title>
<path fill="none" stroke="black" d="M66.4747,-359.697C76.8273,-350.965 89.5441,-340.24 100.797,-330.75"/>
<polygon fill="none" stroke="black" points="103.289,-333.227 108.677,-324.104 98.7762,-327.876 103.289,-333.227"/>
</g>
<!-- afee13d2&#45;9aca&#45;4c3f&#45;881a&#45;45ffad093c3b -->
<g id="node3" class="node"><title>afee13d2&#45;9aca&#45;4c3f&#45;881a&#45;45ffad093c3b</title>
<polygon fill="cornsilk" stroke="black" points="151.958,-252 97.9579,-252 97.9579,-216 151.958,-216 151.958,-252"/>
</g>
<!-- de7a714e&#45;f301&#45;4557&#45;a73c&#45;bcb4355b8951&#45;&gt;afee13d2&#45;9aca&#45;4c3f&#45;881a&#45;45ffad093c3b -->
<g id="edge2" class="edge"><title>de7a714e&#45;f301&#45;4557&#45;a73c&#45;bcb4355b8951&#45;&gt;afee13d2&#45;9aca&#45;4c3f&#45;881a&#45;45ffad093c3b</title>
<path fill="none" stroke="black" d="M127.969,-287.697C127.528,-279.983 126.999,-270.712 126.507,-262.112"/>
<polygon fill="none" stroke="black" points="130,-261.888 125.935,-252.104 123.012,-262.288 130,-261.888"/>
</g>
<!-- 4e4e97b3&#45;99b4&#45;42fe&#45;83a4&#45;a3551ea3bf24 -->
<g id="node7" class="node"><title>4e4e97b3&#45;99b4&#45;42fe&#45;83a4&#45;a3551ea3bf24</title>
<polygon fill="cornsilk" stroke="black" points="117.958,-180 77.5719,-162 117.958,-144 158.344,-162 117.958,-180"/>
<text text-anchor="middle" x="117.958" y="-158.3" font-family="Helvetica,sans-Serif" font-size="14.00">OK?</text>
</g>
<!-- afee13d2&#45;9aca&#45;4c3f&#45;881a&#45;45ffad093c3b&#45;&gt;4e4e97b3&#45;99b4&#45;42fe&#45;83a4&#45;a3551ea3bf24 -->
<g id="edge5" class="edge"><title>afee13d2&#45;9aca&#45;4c3f&#45;881a&#45;45ffad093c3b&#45;&gt;4e4e97b3&#45;99b4&#45;42fe&#45;83a4&#45;a3551ea3bf24</title>
<path fill="none" stroke="black" d="M123.228,-215.697C122.445,-207.868 121.501,-198.435 120.631,-189.728"/>
<polygon fill="none" stroke="black" points="124.098,-189.224 119.62,-179.622 117.133,-189.921 124.098,-189.224"/>
</g>
<!-- 720a0c2e&#45;f0bb&#45;4459&#45;bbf0&#45;d11b2db5fa3e -->
<g id="node4" class="node"><title>720a0c2e&#45;f0bb&#45;4459&#45;bbf0&#45;d11b2db5fa3e</title>
<ellipse fill="cornsilk" stroke="black" cx="208.958" cy="-18" rx="27.0966" ry="18"/>
<text text-anchor="middle" x="208.958" y="-14.3" font-family="Helvetica,sans-Serif" font-size="14.00">end</text>
</g>
<!-- b5edd504&#45;0cea&#45;491f&#45;821d&#45;851279dd9831 -->
<g id="node5" class="node"><title>b5edd504&#45;0cea&#45;491f&#45;821d&#45;851279dd9831</title>
<polygon fill="cornsilk" stroke="black" points="110.458,-108 37.4579,-108 33.4579,-104 33.4579,-72 106.458,-72 110.458,-76 110.458,-108"/>
<polyline fill="none" stroke="black" points="106.458,-104 33.4579,-104 "/>
<polyline fill="none" stroke="black" points="106.458,-104 106.458,-72 "/>
<polyline fill="none" stroke="black" points="106.458,-104 110.458,-108 "/>
<text text-anchor="middle" x="71.9579" y="-86.3" font-family="Helvetica,sans-Serif" font-size="14.00">FOOBAR</text>
</g>
<!-- b5edd504&#45;0cea&#45;491f&#45;821d&#45;851279dd9831&#45;&gt;f90466f8&#45;21fd&#45;4f0e&#45;a487&#45;56030215afde -->
<g id="edge3" class="edge"><title>b5edd504&#45;0cea&#45;491f&#45;821d&#45;851279dd9831&#45;&gt;f90466f8&#45;21fd&#45;4f0e&#45;a487&#45;56030215afde</title>
<path fill="none" stroke="black" d="M70.3845,-108.306C66.0204,-156.313 53.7361,-291.439 48.4395,-349.702"/>
<polygon fill="none" stroke="black" points="44.9262,-349.69 47.5064,-359.966 51.8975,-350.324 44.9262,-349.69"/>
</g>
<!-- 73a5e5aa&#45;46c4&#45;4b5a&#45;a231&#45;943db0433572 -->
<g id="node6" class="node"><title>73a5e5aa&#45;46c4&#45;4b5a&#45;a231&#45;943db0433572</title>
<ellipse fill="cornsilk" stroke="black" cx="141.958" cy="-378" rx="32.4942" ry="18"/>
<text text-anchor="middle" x="141.958" y="-374.3" font-family="Helvetica,sans-Serif" font-size="14.00">start</text>
</g>
<!-- 73a5e5aa&#45;46c4&#45;4b5a&#45;a231&#45;943db0433572&#45;&gt;de7a714e&#45;f301&#45;4557&#45;a73c&#45;bcb4355b8951 -->
<g id="edge4" class="edge"><title>73a5e5aa&#45;46c4&#45;4b5a&#45;a231&#45;943db0433572&#45;&gt;de7a714e&#45;f301&#45;4557&#45;a73c&#45;bcb4355b8951</title>
<path fill="none" stroke="black" d="M138.811,-360.055C137.379,-352.346 135.649,-343.027 134.04,-334.364"/>
<polygon fill="none" stroke="black" points="137.433,-333.468 132.166,-324.275 130.551,-334.746 137.433,-333.468"/>
</g>
<!-- 4e4e97b3&#45;99b4&#45;42fe&#45;83a4&#45;a3551ea3bf24&#45;&gt;b5edd504&#45;0cea&#45;491f&#45;821d&#45;851279dd9831 -->
<g id="edge8" class="edge"><title>4e4e97b3&#45;99b4&#45;42fe&#45;83a4&#45;a3551ea3bf24&#45;&gt;b5edd504&#45;0cea&#45;491f&#45;821d&#45;851279dd9831</title>
<path fill="none" stroke="black" d="M109.306,-147.834C103.531,-139.046 95.7479,-127.202 88.7811,-116.601"/>
<polygon fill="none" stroke="black" points="91.5999,-114.517 83.1831,-108.082 85.75,-118.361 91.5999,-114.517"/>
<text text-anchor="middle" x="100.306" y="-136.634" font-family="Helvetica,sans-Serif" font-size="14.00">no</text>
</g>
<!-- 1f97c7cb&#45;9335&#45;4745&#45;9ca0&#45;85c8ee687eac -->
<g id="node9" class="node"><title>1f97c7cb&#45;9335&#45;4745&#45;9ca0&#45;85c8ee687eac</title>
<polygon fill="cornsilk" stroke="black" points="276.776,-108 168.893,-108 141.14,-72 249.023,-72 276.776,-108"/>
<text text-anchor="middle" x="208.958" y="-86.3" font-family="Helvetica,sans-Serif" font-size="14.00">Catch it</text>
</g>
<!-- 4e4e97b3&#45;99b4&#45;42fe&#45;83a4&#45;a3551ea3bf24&#45;&gt;1f97c7cb&#45;9335&#45;4745&#45;9ca0&#45;85c8ee687eac -->
<g id="edge7" class="edge"><title>4e4e97b3&#45;99b4&#45;42fe&#45;83a4&#45;a3551ea3bf24&#45;&gt;1f97c7cb&#45;9335&#45;4745&#45;9ca0&#45;85c8ee687eac</title>
<path fill="none" stroke="black" d="M132.177,-150.062C144.492,-140.589 162.734,-126.556 178.348,-114.546"/>
<polygon fill="none" stroke="black" points="180.904,-116.995 186.697,-108.124 176.636,-111.447 180.904,-116.995"/>
<text text-anchor="middle" x="144.177" y="-138.863" font-family="Helvetica,sans-Serif" font-size="14.00">yes</text>
</g>
<!-- 36024e2f&#45;a7f3&#45;48cd&#45;bd3f&#45;d9c63cb0ba6c -->
<g id="node8" class="node"><title>36024e2f&#45;a7f3&#45;48cd&#45;bd3f&#45;d9c63cb0ba6c</title>
<ellipse fill="cornsilk" stroke="black" cx="222.958" cy="-162" rx="46.5926" ry="18"/>
<text text-anchor="middle" x="222.958" y="-158.3" font-family="Helvetica,sans-Serif" font-size="14.00">alt start</text>
</g>
<!-- 36024e2f&#45;a7f3&#45;48cd&#45;bd3f&#45;d9c63cb0ba6c&#45;&gt;1f97c7cb&#45;9335&#45;4745&#45;9ca0&#45;85c8ee687eac -->
<g id="edge6" class="edge"><title>36024e2f&#45;a7f3&#45;48cd&#45;bd3f&#45;d9c63cb0ba6c&#45;&gt;1f97c7cb&#45;9335&#45;4745&#45;9ca0&#45;85c8ee687eac</title>
<path fill="none" stroke="black" d="M219.497,-143.697C217.954,-135.983 216.1,-126.712 214.38,-118.112"/>
<polygon fill="none" stroke="black" points="217.772,-117.224 212.379,-108.104 210.908,-118.597 217.772,-117.224"/>
</g>
<!-- 1f97c7cb&#45;9335&#45;4745&#45;9ca0&#45;85c8ee687eac&#45;&gt;720a0c2e&#45;f0bb&#45;4459&#45;bbf0&#45;d11b2db5fa3e -->
<g id="edge9" class="edge"><title>1f97c7cb&#45;9335&#45;4745&#45;9ca0&#45;85c8ee687eac&#45;&gt;720a0c2e&#45;f0bb&#45;4459&#45;bbf0&#45;d11b2db5fa3e</title>
<path fill="none" stroke="black" d="M208.958,-71.6966C208.958,-63.9827 208.958,-54.7125 208.958,-46.1124"/>
<polygon fill="none" stroke="black" points="212.458,-46.1043 208.958,-36.1043 205.458,-46.1044 212.458,-46.1043"/>
</g>
</g>
</svg>
