<?xml version="1.0" encoding="UTF-8" standalone="no"?>
<!DOCTYPE svg PUBLIC "-//W3C//DTD SVG 1.1//EN"
 "http://www.w3.org/Graphics/SVG/1.1/DTD/svg11.dtd">
<!-- Generated by graphviz version 2.43.0 (0)
 -->
<!-- Title: %3 Pages: 1 -->
<svg width="96pt" height="332pt"
 viewBox="0.00 0.00 96.00 332.00" xmlns="http://www.w3.org/2000/svg" xmlns:xlink="http://www.w3.org/1999/xlink">
<g id="graph0" class="graph" transform="scale(1 1) rotate(0) translate(4 328)">
<title>%3</title>
<polygon fill="white" stroke="transparent" points="-4,4 -4,-328 92,-328 92,4 -4,4"/>
<!-- 09455056&#45;fdf2&#45;4133&#45;b750&#45;c860ea36e6db -->
<g id="node1" class="node">
<title>09455056&#45;fdf2&#45;4133&#45;b750&#45;c860ea36e6db</title>
<polygon fill="cornsilk" stroke="black" points="71.98,-252 27.47,-252 16.02,-216 60.53,-216 71.98,-252"/>
<text text-anchor="middle" x="44" y="-230.3" font-family="Helvetica,sans-Serif" font-size="14.00">a</text>
</g>
<!-- ad04b3bb&#45;ab1b&#45;4d74&#45;ad22&#45;a2e0ea2b6d33 -->
<g id="node2" class="node">
<title>ad04b3bb&#45;ab1b&#45;4d74&#45;ad22&#45;a2e0ea2b6d33</title>
<polygon fill="cornsilk" stroke="black" points="88,-180 0,-180 0,-144 88,-144 88,-180"/>
<text text-anchor="middle" x="44" y="-158.3" font-family="Helvetica,sans-Serif" font-size="14.00">cat &lt;a &gt;b</text>
</g>
<!-- 09455056&#45;fdf2&#45;4133&#45;b750&#45;c860ea36e6db&#45;&gt;ad04b3bb&#45;ab1b&#45;4d74&#45;ad22&#45;a2e0ea2b6d33 -->
<g id="edge1" class="edge">
<title>09455056&#45;fdf2&#45;4133&#45;b750&#45;c860ea36e6db&#45;&gt;ad04b3bb&#45;ab1b&#45;4d74&#45;ad22&#45;a2e0ea2b6d33</title>
<path fill="none" stroke="black" d="M44,-215.7C44,-207.98 44,-198.71 44,-190.11"/>
<polygon fill="none" stroke="black" points="47.5,-190.1 44,-180.1 40.5,-190.1 47.5,-190.1"/>
</g>
<!-- 83f7f3a4&#45;f48d&#45;4997&#45;aea1&#45;ec184ce76e78 -->
<g id="node5" class="node">
<title>83f7f3a4&#45;f48d&#45;4997&#45;aea1&#45;ec184ce76e78</title>
<polygon fill="cornsilk" stroke="black" points="71.98,-108 27.47,-108 16.02,-72 60.53,-72 71.98,-108"/>
<text text-anchor="middle" x="44" y="-86.3" font-family="Helvetica,sans-Serif" font-size="14.00">b</text>
</g>
<!-- ad04b3bb&#45;ab1b&#45;4d74&#45;ad22&#45;a2e0ea2b6d33&#45;&gt;83f7f3a4&#45;f48d&#45;4997&#45;aea1&#45;ec184ce76e78 -->
<g id="edge4" class="edge">
<title>ad04b3bb&#45;ab1b&#45;4d74&#45;ad22&#45;a2e0ea2b6d33&#45;&gt;83f7f3a4&#45;f48d&#45;4997&#45;aea1&#45;ec184ce76e78</title>
<path fill="none" stroke="black" d="M44,-143.7C44,-135.98 44,-126.71 44,-118.11"/>
<polygon fill="none" stroke="black" points="47.5,-118.1 44,-108.1 40.5,-118.1 47.5,-118.1"/>
</g>
<!-- f499d2ed&#45;6d13&#45;4a2b&#45;bfcf&#45;c6ea50324b21 -->
<g id="node3" class="node">
<title>f499d2ed&#45;6d13&#45;4a2b&#45;bfcf&#45;c6ea50324b21</title>
<ellipse fill="cornsilk" stroke="black" cx="44" cy="-306" rx="31.7" ry="18"/>
<text text-anchor="middle" x="44" y="-302.3" font-family="Helvetica,sans-Serif" font-size="14.00">start</text>
</g>
<!-- f499d2ed&#45;6d13&#45;4a2b&#45;bfcf&#45;c6ea50324b21&#45;&gt;09455056&#45;fdf2&#45;4133&#45;b750&#45;c860ea36e6db -->
<g id="edge2" class="edge">
<title>f499d2ed&#45;6d13&#45;4a2b&#45;bfcf&#45;c6ea50324b21&#45;&gt;09455056&#45;fdf2&#45;4133&#45;b750&#45;c860ea36e6db</title>
<path fill="none" stroke="black" d="M44,-287.7C44,-279.98 44,-270.71 44,-262.11"/>
<polygon fill="none" stroke="black" points="47.5,-262.1 44,-252.1 40.5,-262.1 47.5,-262.1"/>
</g>
<!-- 882e510e&#45;d544&#45;4f03&#45;9e15&#45;1588f74ebd8e -->
<g id="node4" class="node">
<title>882e510e&#45;d544&#45;4f03&#45;9e15&#45;1588f74ebd8e</title>
<ellipse fill="cornsilk" stroke="black" cx="44" cy="-18" rx="27.9" ry="18"/>
<text text-anchor="middle" x="44" y="-14.3" font-family="Helvetica,sans-Serif" font-size="14.00">end</text>
</g>
<!-- 83f7f3a4&#45;f48d&#45;4997&#45;aea1&#45;ec184ce76e78&#45;&gt;882e510e&#45;d544&#45;4f03&#45;9e15&#45;1588f74ebd8e -->
<g id="edge3" class="edge">
<title>83f7f3a4&#45;f48d&#45;4997&#45;aea1&#45;ec184ce76e78&#45;&gt;882e510e&#45;d544&#45;4f03&#45;9e15&#45;1588f74ebd8e</title>
<path fill="none" stroke="black" d="M44,-71.7C44,-63.98 44,-54.71 44,-46.11"/>
<polygon fill="none" stroke="black" points="47.5,-46.1 44,-36.1 40.5,-46.1 47.5,-46.1"/>
</g>
</g>
</svg>
