<?xml version="1.0" encoding="UTF-8" standalone="no"?>
<!DOCTYPE svg PUBLIC "-//W3C//DTD SVG 1.1//EN"
 "http://www.w3.org/Graphics/SVG/1.1/DTD/svg11.dtd">
<!-- Generated by graphviz version 2.38.0 (20140413.2041)
 -->
<!-- Title: %3 Pages: 1 -->
<svg width="265pt" height="476pt"
 viewBox="0.00 0.00 264.69 476.00" xmlns="http://www.w3.org/2000/svg" xmlns:xlink="http://www.w3.org/1999/xlink">
<g id="graph0" class="graph" transform="scale(1 1) rotate(0) translate(4 472)">
<title>%3</title>
<polygon fill="white" stroke="none" points="-4,4 -4,-472 260.686,-472 260.686,4 -4,4"/>
<!-- b641e04b&#45;8bd7&#45;44e8&#45;a01f&#45;8607b869209d -->
<g id="node1" class="node"><title>b641e04b&#45;8bd7&#45;44e8&#45;a01f&#45;8607b869209d</title>
<polygon fill="cornsilk" stroke="black" points="256.872,-383.562 141,-396 25.1283,-383.562 25.2365,-363.438 256.764,-363.438 256.872,-383.562"/>
<text text-anchor="middle" x="141" y="-374.3" font-family="Helvetica,sans-Serif" font-size="14.00">enter data records</text>
</g>
<!-- 198f9e0d&#45;f1bf&#45;4145&#45;b8c5&#45;8f2806995da7 -->
<g id="node2" class="node"><title>198f9e0d&#45;f1bf&#45;4145&#45;b8c5&#45;8f2806995da7</title>
<polygon fill="cornsilk" stroke="black" points="238.4,-324 83.4584,-324 43.6,-288 198.542,-288 238.4,-324"/>
<text text-anchor="middle" x="141" y="-302.3" font-family="Helvetica,sans-Serif" font-size="14.00">data records</text>
</g>
<!-- b641e04b&#45;8bd7&#45;44e8&#45;a01f&#45;8607b869209d&#45;&gt;198f9e0d&#45;f1bf&#45;4145&#45;b8c5&#45;8f2806995da7 -->
<g id="edge1" class="edge"><title>b641e04b&#45;8bd7&#45;44e8&#45;a01f&#45;8607b869209d&#45;&gt;198f9e0d&#45;f1bf&#45;4145&#45;b8c5&#45;8f2806995da7</title>
<path fill="none" stroke="black" d="M141,-363.17C141,-354.919 141,-344.153 141,-334.256"/>
<polygon fill="none" stroke="black" points="144.5,-334.019 141,-324.019 137.5,-334.019 144.5,-334.019"/>
</g>
<!-- 083aa074&#45;6d86&#45;4cc9&#45;a5f9&#45;ef398882f9ae -->
<g id="node3" class="node"><title>083aa074&#45;6d86&#45;4cc9&#45;a5f9&#45;ef398882f9ae</title>
<polygon fill="cornsilk" stroke="black" points="168,-252 114,-252 114,-216 168,-216 168,-252"/>
<text text-anchor="middle" x="141" y="-230.3" font-family="Helvetica,sans-Serif" font-size="14.00">sort</text>
</g>
<!-- 198f9e0d&#45;f1bf&#45;4145&#45;b8c5&#45;8f2806995da7&#45;&gt;083aa074&#45;6d86&#45;4cc9&#45;a5f9&#45;ef398882f9ae -->
<g id="edge4" class="edge"><title>198f9e0d&#45;f1bf&#45;4145&#45;b8c5&#45;8f2806995da7&#45;&gt;083aa074&#45;6d86&#45;4cc9&#45;a5f9&#45;ef398882f9ae</title>
<path fill="none" stroke="black" d="M141,-287.697C141,-279.983 141,-270.712 141,-262.112"/>
<polygon fill="none" stroke="black" points="144.5,-262.104 141,-252.104 137.5,-262.104 144.5,-262.104"/>
</g>
<!-- 55b65a38&#45;6af1&#45;4861&#45;bcc5&#45;a9b07382a8a7 -->
<g id="node4" class="node"><title>55b65a38&#45;6af1&#45;4861&#45;bcc5&#45;a9b07382a8a7</title>
<polygon fill="cornsilk" stroke="black" points="168,-180 114,-180 114,-144 168,-144 168,-180"/>
<text text-anchor="middle" x="141" y="-158.3" font-family="Helvetica,sans-Serif" font-size="14.00">print</text>
</g>
<!-- 083aa074&#45;6d86&#45;4cc9&#45;a5f9&#45;ef398882f9ae&#45;&gt;55b65a38&#45;6af1&#45;4861&#45;bcc5&#45;a9b07382a8a7 -->
<g id="edge2" class="edge"><title>083aa074&#45;6d86&#45;4cc9&#45;a5f9&#45;ef398882f9ae&#45;&gt;55b65a38&#45;6af1&#45;4861&#45;bcc5&#45;a9b07382a8a7</title>
<path fill="none" stroke="black" d="M141,-215.697C141,-207.983 141,-198.712 141,-190.112"/>
<polygon fill="none" stroke="black" points="144.5,-190.104 141,-180.104 137.5,-190.104 144.5,-190.104"/>
</g>
<!-- 022c6641&#45;7e87&#45;40a4&#45;ba99&#45;732477d6e8eb -->
<g id="node6" class="node"><title>022c6641&#45;7e87&#45;40a4&#45;ba99&#45;732477d6e8eb</title>
<polygon fill="cornsilk" stroke="black" points="117.5,-108 64.5,-108 64.5,-72 123.5,-72 123.5,-102 117.5,-108"/>
<polyline fill="none" stroke="black" points="117.5,-108 117.5,-102 "/>
<polyline fill="none" stroke="black" points="123.5,-102 117.5,-102 "/>
<text text-anchor="middle" x="94" y="-86.3" font-family="Helvetica,sans-Serif" font-size="14.00">report</text>
</g>
<!-- 55b65a38&#45;6af1&#45;4861&#45;bcc5&#45;a9b07382a8a7&#45;&gt;022c6641&#45;7e87&#45;40a4&#45;ba99&#45;732477d6e8eb -->
<g id="edge5" class="edge"><title>55b65a38&#45;6af1&#45;4861&#45;bcc5&#45;a9b07382a8a7&#45;&gt;022c6641&#45;7e87&#45;40a4&#45;ba99&#45;732477d6e8eb</title>
<path fill="none" stroke="black" d="M129.382,-143.697C123.861,-135.474 117.153,-125.483 111.068,-116.421"/>
<polygon fill="none" stroke="black" points="113.965,-114.456 105.484,-108.104 108.153,-118.358 113.965,-114.456"/>
</g>
<!-- 061cb454&#45;7e1d&#45;49b4&#45;9a35&#45;2fc79cd8472d -->
<g id="node5" class="node"><title>061cb454&#45;7e1d&#45;49b4&#45;9a35&#45;2fc79cd8472d</title>
<polygon fill="cornsilk" stroke="black" points="96,-180 0,-180 0,-144 96,-144 96,-180"/>
<text text-anchor="middle" x="48" y="-158.3" font-family="Helvetica,sans-Serif" font-size="14.00">confidential</text>
</g>
<!-- 061cb454&#45;7e1d&#45;49b4&#45;9a35&#45;2fc79cd8472d&#45;&gt;022c6641&#45;7e87&#45;40a4&#45;ba99&#45;732477d6e8eb -->
<g id="edge3" class="edge"><title>061cb454&#45;7e1d&#45;49b4&#45;9a35&#45;2fc79cd8472d&#45;&gt;022c6641&#45;7e87&#45;40a4&#45;ba99&#45;732477d6e8eb</title>
<path fill="none" stroke="black" d="M59.3708,-143.697C64.7185,-135.559 71.2043,-125.689 77.1106,-116.701"/>
<polygon fill="none" stroke="black" points="80.1932,-118.384 82.76,-108.104 74.3432,-114.539 80.1932,-118.384"/>
</g>
<!-- a8de600d&#45;930f&#45;4e4c&#45;a0a9&#45;4f46f1b40ac3 -->
<g id="node7" class="node"><title>a8de600d&#45;930f&#45;4e4c&#45;a0a9&#45;4f46f1b40ac3</title>
<ellipse fill="cornsilk" stroke="black" cx="94" cy="-18" rx="27.0966" ry="18"/>
<text text-anchor="middle" x="94" y="-14.3" font-family="Helvetica,sans-Serif" font-size="14.00">end</text>
</g>
<!-- 022c6641&#45;7e87&#45;40a4&#45;ba99&#45;732477d6e8eb&#45;&gt;a8de600d&#45;930f&#45;4e4c&#45;a0a9&#45;4f46f1b40ac3 -->
<g id="edge6" class="edge"><title>022c6641&#45;7e87&#45;40a4&#45;ba99&#45;732477d6e8eb&#45;&gt;a8de600d&#45;930f&#45;4e4c&#45;a0a9&#45;4f46f1b40ac3</title>
<path fill="none" stroke="black" d="M94,-71.6966C94,-63.9827 94,-54.7125 94,-46.1124"/>
<polygon fill="none" stroke="black" points="97.5001,-46.1043 94,-36.1043 90.5001,-46.1044 97.5001,-46.1043"/>
</g>
<!-- 2a02397b&#45;0687&#45;4fee&#45;bc4a&#45;e5f8f6adb5de -->
<g id="node8" class="node"><title>2a02397b&#45;0687&#45;4fee&#45;bc4a&#45;e5f8f6adb5de</title>
<ellipse fill="cornsilk" stroke="black" cx="141" cy="-450" rx="32.4942" ry="18"/>
<text text-anchor="middle" x="141" y="-446.3" font-family="Helvetica,sans-Serif" font-size="14.00">start</text>
</g>
<!-- 2a02397b&#45;0687&#45;4fee&#45;bc4a&#45;e5f8f6adb5de&#45;&gt;b641e04b&#45;8bd7&#45;44e8&#45;a01f&#45;8607b869209d -->
<g id="edge7" class="edge"><title>2a02397b&#45;0687&#45;4fee&#45;bc4a&#45;e5f8f6adb5de&#45;&gt;b641e04b&#45;8bd7&#45;44e8&#45;a01f&#45;8607b869209d</title>
<path fill="none" stroke="black" d="M141,-431.697C141,-423.983 141,-414.712 141,-406.112"/>
<polygon fill="none" stroke="black" points="144.5,-406.104 141,-396.104 137.5,-406.104 144.5,-406.104"/>
</g>
</g>
</svg>
