<?xml version="1.0" encoding="UTF-8" standalone="no"?>
<!DOCTYPE svg PUBLIC "-//W3C//DTD SVG 1.1//EN"
 "http://www.w3.org/Graphics/SVG/1.1/DTD/svg11.dtd">
<!-- Generated by graphviz version 2.43.0 (0)
 -->
<!-- Title: %3 Pages: 1 -->
<svg width="251pt" height="476pt"
 viewBox="0.00 0.00 250.69 476.00" xmlns="http://www.w3.org/2000/svg" xmlns:xlink="http://www.w3.org/1999/xlink">
<g id="graph0" class="graph" transform="scale(1 1) rotate(0) translate(4 472)">
<title>%3</title>
<polygon fill="white" stroke="transparent" points="-4,4 -4,-472 246.69,-472 246.69,4 -4,4"/>
<!-- 63e5aa7c&#45;f817&#45;4e5c&#45;ab09&#45;fda5f67174ff -->
<g id="node1" class="node">
<title>63e5aa7c&#45;f817&#45;4e5c&#45;ab09&#45;fda5f67174ff</title>
<polygon fill="cornsilk" stroke="black" points="182.19,-108 129.19,-108 129.19,-72 188.19,-72 188.19,-102 182.19,-108"/>
<polyline fill="none" stroke="black" points="182.19,-108 182.19,-102 "/>
<polyline fill="none" stroke="black" points="188.19,-102 182.19,-102 "/>
<text text-anchor="middle" x="158.69" y="-86.3" font-family="Helvetica,sans-Serif" font-size="14.00">report</text>
</g>
<!-- 9eeae7d0&#45;2440&#45;4d94&#45;afaf&#45;f53086f03550 -->
<g id="node2" class="node">
<title>9eeae7d0&#45;2440&#45;4d94&#45;afaf&#45;f53086f03550</title>
<ellipse fill="cornsilk" stroke="black" cx="158.69" cy="-18" rx="27.9" ry="18"/>
<text text-anchor="middle" x="158.69" y="-14.3" font-family="Helvetica,sans-Serif" font-size="14.00">end</text>
</g>
<!-- 63e5aa7c&#45;f817&#45;4e5c&#45;ab09&#45;fda5f67174ff&#45;&gt;9eeae7d0&#45;2440&#45;4d94&#45;afaf&#45;f53086f03550 -->
<g id="edge1" class="edge">
<title>63e5aa7c&#45;f817&#45;4e5c&#45;ab09&#45;fda5f67174ff&#45;&gt;9eeae7d0&#45;2440&#45;4d94&#45;afaf&#45;f53086f03550</title>
<path fill="none" stroke="black" d="M158.69,-71.7C158.69,-63.98 158.69,-54.71 158.69,-46.11"/>
<polygon fill="none" stroke="black" points="162.19,-46.1 158.69,-36.1 155.19,-46.1 162.19,-46.1"/>
</g>
<!-- b796dac1&#45;2d50&#45;4bcb&#45;8a41&#45;5e98ddf2114e -->
<g id="node3" class="node">
<title>b796dac1&#45;2d50&#45;4bcb&#45;8a41&#45;5e98ddf2114e</title>
<polygon fill="cornsilk" stroke="black" points="231.56,-383.56 115.69,-396 -0.19,-383.56 -0.08,-363.44 231.45,-363.44 231.56,-383.56"/>
<text text-anchor="middle" x="115.69" y="-374.3" font-family="Helvetica,sans-Serif" font-size="14.00">enter data records</text>
</g>
<!-- 69ce03e2&#45;6199&#45;4200&#45;aa63&#45;e28d77aba7d2 -->
<g id="node4" class="node">
<title>69ce03e2&#45;6199&#45;4200&#45;aa63&#45;e28d77aba7d2</title>
<polygon fill="cornsilk" stroke="black" points="213.99,-324 57.61,-324 17.38,-288 173.76,-288 213.99,-324"/>
<text text-anchor="middle" x="115.69" y="-302.3" font-family="Helvetica,sans-Serif" font-size="14.00">data records</text>
</g>
<!-- b796dac1&#45;2d50&#45;4bcb&#45;8a41&#45;5e98ddf2114e&#45;&gt;69ce03e2&#45;6199&#45;4200&#45;aa63&#45;e28d77aba7d2 -->
<g id="edge2" class="edge">
<title>b796dac1&#45;2d50&#45;4bcb&#45;8a41&#45;5e98ddf2114e&#45;&gt;69ce03e2&#45;6199&#45;4200&#45;aa63&#45;e28d77aba7d2</title>
<path fill="none" stroke="black" d="M115.69,-363.17C115.69,-354.92 115.69,-344.15 115.69,-334.26"/>
<polygon fill="none" stroke="black" points="119.19,-334.02 115.69,-324.02 112.19,-334.02 119.19,-334.02"/>
</g>
<!-- 24a51916&#45;bf76&#45;48a4&#45;8cc8&#45;790746c5fbf9 -->
<g id="node5" class="node">
<title>24a51916&#45;bf76&#45;48a4&#45;8cc8&#45;790746c5fbf9</title>
<polygon fill="cornsilk" stroke="black" points="142.69,-252 88.69,-252 88.69,-216 142.69,-216 142.69,-252"/>
<text text-anchor="middle" x="115.69" y="-230.3" font-family="Helvetica,sans-Serif" font-size="14.00">sort</text>
</g>
<!-- 69ce03e2&#45;6199&#45;4200&#45;aa63&#45;e28d77aba7d2&#45;&gt;24a51916&#45;bf76&#45;48a4&#45;8cc8&#45;790746c5fbf9 -->
<g id="edge7" class="edge">
<title>69ce03e2&#45;6199&#45;4200&#45;aa63&#45;e28d77aba7d2&#45;&gt;24a51916&#45;bf76&#45;48a4&#45;8cc8&#45;790746c5fbf9</title>
<path fill="none" stroke="black" d="M115.69,-287.7C115.69,-279.98 115.69,-270.71 115.69,-262.11"/>
<polygon fill="none" stroke="black" points="119.19,-262.1 115.69,-252.1 112.19,-262.1 119.19,-262.1"/>
</g>
<!-- c9784705&#45;58ba&#45;4b8d&#45;956d&#45;c92c25c7cde4 -->
<g id="node6" class="node">
<title>c9784705&#45;58ba&#45;4b8d&#45;956d&#45;c92c25c7cde4</title>
<polygon fill="cornsilk" stroke="black" points="142.69,-180 88.69,-180 88.69,-144 142.69,-144 142.69,-180"/>
<text text-anchor="middle" x="115.69" y="-158.3" font-family="Helvetica,sans-Serif" font-size="14.00">print</text>
</g>
<!-- 24a51916&#45;bf76&#45;48a4&#45;8cc8&#45;790746c5fbf9&#45;&gt;c9784705&#45;58ba&#45;4b8d&#45;956d&#45;c92c25c7cde4 -->
<g id="edge3" class="edge">
<title>24a51916&#45;bf76&#45;48a4&#45;8cc8&#45;790746c5fbf9&#45;&gt;c9784705&#45;58ba&#45;4b8d&#45;956d&#45;c92c25c7cde4</title>
<path fill="none" stroke="black" d="M115.69,-215.7C115.69,-207.98 115.69,-198.71 115.69,-190.11"/>
<polygon fill="none" stroke="black" points="119.19,-190.1 115.69,-180.1 112.19,-190.1 119.19,-190.1"/>
</g>
<!-- c9784705&#45;58ba&#45;4b8d&#45;956d&#45;c92c25c7cde4&#45;&gt;63e5aa7c&#45;f817&#45;4e5c&#45;ab09&#45;fda5f67174ff -->
<g id="edge6" class="edge">
<title>c9784705&#45;58ba&#45;4b8d&#45;956d&#45;c92c25c7cde4&#45;&gt;63e5aa7c&#45;f817&#45;4e5c&#45;ab09&#45;fda5f67174ff</title>
<path fill="none" stroke="black" d="M126.31,-143.7C131.31,-135.56 137.38,-125.69 142.9,-116.7"/>
<polygon fill="none" stroke="black" points="145.93,-118.46 148.18,-108.1 139.96,-114.79 145.93,-118.46"/>
</g>
<!-- c8c6227f&#45;97b4&#45;4ac1&#45;b7d5&#45;66cf6942b921 -->
<g id="node7" class="node">
<title>c8c6227f&#45;97b4&#45;4ac1&#45;b7d5&#45;66cf6942b921</title>
<polygon fill="cornsilk" stroke="transparent" points="242.69,-169.5 160.69,-169.5 160.69,-154.5 242.69,-154.5 242.69,-169.5"/>
<text text-anchor="middle" x="201.69" y="-158.3" font-family="Helvetica,sans-Serif" font-size="14.00">confidential</text>
</g>
<!-- c8c6227f&#45;97b4&#45;4ac1&#45;b7d5&#45;66cf6942b921&#45;&gt;63e5aa7c&#45;f817&#45;4e5c&#45;ab09&#45;fda5f67174ff -->
<g id="edge4" class="edge">
<title>c8c6227f&#45;97b4&#45;4ac1&#45;b7d5&#45;66cf6942b921&#45;&gt;63e5aa7c&#45;f817&#45;4e5c&#45;ab09&#45;fda5f67174ff</title>
<path fill="none" stroke="black" d="M197.56,-154.29C192.3,-145.72 182.9,-130.41 174.65,-117"/>
<polygon fill="none" stroke="black" points="177.42,-114.8 169.2,-108.12 171.45,-118.47 177.42,-114.8"/>
</g>
<!-- 4703fb40&#45;2722&#45;473e&#45;a689&#45;7626297128f8 -->
<g id="node8" class="node">
<title>4703fb40&#45;2722&#45;473e&#45;a689&#45;7626297128f8</title>
<ellipse fill="cornsilk" stroke="black" cx="115.69" cy="-450" rx="31.7" ry="18"/>
<text text-anchor="middle" x="115.69" y="-446.3" font-family="Helvetica,sans-Serif" font-size="14.00">start</text>
</g>
<!-- 4703fb40&#45;2722&#45;473e&#45;a689&#45;7626297128f8&#45;&gt;b796dac1&#45;2d50&#45;4bcb&#45;8a41&#45;5e98ddf2114e -->
<g id="edge5" class="edge">
<title>4703fb40&#45;2722&#45;473e&#45;a689&#45;7626297128f8&#45;&gt;b796dac1&#45;2d50&#45;4bcb&#45;8a41&#45;5e98ddf2114e</title>
<path fill="none" stroke="black" d="M115.69,-431.7C115.69,-423.98 115.69,-414.71 115.69,-406.11"/>
<polygon fill="none" stroke="black" points="119.19,-406.1 115.69,-396.1 112.19,-406.1 119.19,-406.1"/>
</g>
</g>
</svg>
