<?xml version="1.0" encoding="UTF-8" standalone="no"?>
<!DOCTYPE svg PUBLIC "-//W3C//DTD SVG 1.1//EN"
 "http://www.w3.org/Graphics/SVG/1.1/DTD/svg11.dtd">
<!-- Generated by graphviz version 2.38.0 (20140413.2041)
 -->
<!-- Title: %3 Pages: 1 -->
<svg width="95pt" height="332pt"
 viewBox="0.00 0.00 95.00 332.00" xmlns="http://www.w3.org/2000/svg" xmlns:xlink="http://www.w3.org/1999/xlink">
<g id="graph0" class="graph" transform="scale(1 1) rotate(0) translate(4 328)">
<title>%3</title>
<polygon fill="white" stroke="none" points="-4,4 -4,-328 91,-328 91,4 -4,4"/>
<!-- e660e7f0&#45;e3ba&#45;41d6&#45;8429&#45;d36c5d473245 -->
<g id="node1" class="node"><title>e660e7f0&#45;e3ba&#45;41d6&#45;8429&#45;d36c5d473245</title>
<ellipse fill="cornsilk" stroke="black" cx="43.5" cy="-306" rx="32.4942" ry="18"/>
<text text-anchor="middle" x="43.5" y="-302.3" font-family="Helvetica,sans-Serif" font-size="14.00">start</text>
</g>
<!-- fb933ea9&#45;7aa1&#45;4fe0&#45;b394&#45;3ae6bc1fe0a1 -->
<g id="node2" class="node"><title>fb933ea9&#45;7aa1&#45;4fe0&#45;b394&#45;3ae6bc1fe0a1</title>
<polygon fill="cornsilk" stroke="black" points="71.4847,-252 26.9673,-252 15.5153,-216 60.0327,-216 71.4847,-252"/>
<text text-anchor="middle" x="43.5" y="-230.3" font-family="Helvetica,sans-Serif" font-size="14.00">a</text>
</g>
<!-- e660e7f0&#45;e3ba&#45;41d6&#45;8429&#45;d36c5d473245&#45;&gt;fb933ea9&#45;7aa1&#45;4fe0&#45;b394&#45;3ae6bc1fe0a1 -->
<g id="edge1" class="edge"><title>e660e7f0&#45;e3ba&#45;41d6&#45;8429&#45;d36c5d473245&#45;&gt;fb933ea9&#45;7aa1&#45;4fe0&#45;b394&#45;3ae6bc1fe0a1</title>
<path fill="none" stroke="black" d="M43.5,-287.697C43.5,-279.983 43.5,-270.712 43.5,-262.112"/>
<polygon fill="none" stroke="black" points="47.0001,-262.104 43.5,-252.104 40.0001,-262.104 47.0001,-262.104"/>
</g>
<!-- 65c70ca5&#45;34b3&#45;43cf&#45;99cb&#45;bcd799afc35c -->
<g id="node5" class="node"><title>65c70ca5&#45;34b3&#45;43cf&#45;99cb&#45;bcd799afc35c</title>
<polygon fill="cornsilk" stroke="black" points="87,-180 0,-180 0,-144 87,-144 87,-180"/>
<text text-anchor="middle" x="43.5" y="-158.3" font-family="Helvetica,sans-Serif" font-size="14.00">cat &lt;a &gt;b</text>
</g>
<!-- fb933ea9&#45;7aa1&#45;4fe0&#45;b394&#45;3ae6bc1fe0a1&#45;&gt;65c70ca5&#45;34b3&#45;43cf&#45;99cb&#45;bcd799afc35c -->
<g id="edge4" class="edge"><title>fb933ea9&#45;7aa1&#45;4fe0&#45;b394&#45;3ae6bc1fe0a1&#45;&gt;65c70ca5&#45;34b3&#45;43cf&#45;99cb&#45;bcd799afc35c</title>
<path fill="none" stroke="black" d="M43.5,-215.697C43.5,-207.983 43.5,-198.712 43.5,-190.112"/>
<polygon fill="none" stroke="black" points="47.0001,-190.104 43.5,-180.104 40.0001,-190.104 47.0001,-190.104"/>
</g>
<!-- 44c9672c&#45;9d9e&#45;4358&#45;931d&#45;0f7cd7833324 -->
<g id="node3" class="node"><title>44c9672c&#45;9d9e&#45;4358&#45;931d&#45;0f7cd7833324</title>
<polygon fill="cornsilk" stroke="black" points="71.4847,-108 26.9673,-108 15.5153,-72 60.0327,-72 71.4847,-108"/>
<text text-anchor="middle" x="43.5" y="-86.3" font-family="Helvetica,sans-Serif" font-size="14.00">b</text>
</g>
<!-- ff04b444&#45;d52f&#45;497f&#45;922f&#45;df877226a454 -->
<g id="node4" class="node"><title>ff04b444&#45;d52f&#45;497f&#45;922f&#45;df877226a454</title>
<ellipse fill="cornsilk" stroke="black" cx="43.5" cy="-18" rx="27.0966" ry="18"/>
<text text-anchor="middle" x="43.5" y="-14.3" font-family="Helvetica,sans-Serif" font-size="14.00">end</text>
</g>
<!-- 44c9672c&#45;9d9e&#45;4358&#45;931d&#45;0f7cd7833324&#45;&gt;ff04b444&#45;d52f&#45;497f&#45;922f&#45;df877226a454 -->
<g id="edge2" class="edge"><title>44c9672c&#45;9d9e&#45;4358&#45;931d&#45;0f7cd7833324&#45;&gt;ff04b444&#45;d52f&#45;497f&#45;922f&#45;df877226a454</title>
<path fill="none" stroke="black" d="M43.5,-71.6966C43.5,-63.9827 43.5,-54.7125 43.5,-46.1124"/>
<polygon fill="none" stroke="black" points="47.0001,-46.1043 43.5,-36.1043 40.0001,-46.1044 47.0001,-46.1043"/>
</g>
<!-- 65c70ca5&#45;34b3&#45;43cf&#45;99cb&#45;bcd799afc35c&#45;&gt;44c9672c&#45;9d9e&#45;4358&#45;931d&#45;0f7cd7833324 -->
<g id="edge3" class="edge"><title>65c70ca5&#45;34b3&#45;43cf&#45;99cb&#45;bcd799afc35c&#45;&gt;44c9672c&#45;9d9e&#45;4358&#45;931d&#45;0f7cd7833324</title>
<path fill="none" stroke="black" d="M43.5,-143.697C43.5,-135.983 43.5,-126.712 43.5,-118.112"/>
<polygon fill="none" stroke="black" points="47.0001,-118.104 43.5,-108.104 40.0001,-118.104 47.0001,-118.104"/>
</g>
</g>
</svg>
