<?xml version="1.0" encoding="UTF-8" standalone="no"?>
<!DOCTYPE svg PUBLIC "-//W3C//DTD SVG 1.1//EN"
 "http://www.w3.org/Graphics/SVG/1.1/DTD/svg11.dtd">
<!-- Generated by graphviz version 2.38.0 (20140413.2041)
 -->
<!-- Title: %3 Pages: 1 -->
<svg width="265pt" height="476pt"
 viewBox="0.00 0.00 264.69 476.00" xmlns="http://www.w3.org/2000/svg" xmlns:xlink="http://www.w3.org/1999/xlink">
<g id="graph0" class="graph" transform="scale(1 1) rotate(0) translate(4 472)">
<title>%3</title>
<polygon fill="white" stroke="none" points="-4,4 -4,-472 260.686,-472 260.686,4 -4,4"/>
<!-- 78aa34a2&#45;dd39&#45;418e&#45;b800&#45;f967808ae9b0 -->
<g id="node1" class="node"><title>78aa34a2&#45;dd39&#45;418e&#45;b800&#45;f967808ae9b0</title>
<polygon fill="cornsilk" stroke="black" points="256.872,-383.562 141,-396 25.1283,-383.562 25.2365,-363.438 256.764,-363.438 256.872,-383.562"/>
<text text-anchor="middle" x="141" y="-374.3" font-family="Helvetica,sans-Serif" font-size="14.00">enter data records</text>
</g>
<!-- 0ad8c023&#45;28b7&#45;437f&#45;ae92&#45;0daa424ab6a9 -->
<g id="node2" class="node"><title>0ad8c023&#45;28b7&#45;437f&#45;ae92&#45;0daa424ab6a9</title>
<polygon fill="cornsilk" stroke="black" points="238.4,-324 83.4584,-324 43.6,-288 198.542,-288 238.4,-324"/>
<text text-anchor="middle" x="141" y="-302.3" font-family="Helvetica,sans-Serif" font-size="14.00">data records</text>
</g>
<!-- 78aa34a2&#45;dd39&#45;418e&#45;b800&#45;f967808ae9b0&#45;&gt;0ad8c023&#45;28b7&#45;437f&#45;ae92&#45;0daa424ab6a9 -->
<g id="edge1" class="edge"><title>78aa34a2&#45;dd39&#45;418e&#45;b800&#45;f967808ae9b0&#45;&gt;0ad8c023&#45;28b7&#45;437f&#45;ae92&#45;0daa424ab6a9</title>
<path fill="none" stroke="black" d="M141,-363.17C141,-354.919 141,-344.153 141,-334.256"/>
<polygon fill="none" stroke="black" points="144.5,-334.019 141,-324.019 137.5,-334.019 144.5,-334.019"/>
</g>
<!-- 9bb70ae8&#45;2971&#45;461f&#45;b7d4&#45;2bd94061880a -->
<g id="node3" class="node"><title>9bb70ae8&#45;2971&#45;461f&#45;b7d4&#45;2bd94061880a</title>
<polygon fill="cornsilk" stroke="black" points="168,-252 114,-252 114,-216 168,-216 168,-252"/>
<text text-anchor="middle" x="141" y="-230.3" font-family="Helvetica,sans-Serif" font-size="14.00">sort</text>
</g>
<!-- 0ad8c023&#45;28b7&#45;437f&#45;ae92&#45;0daa424ab6a9&#45;&gt;9bb70ae8&#45;2971&#45;461f&#45;b7d4&#45;2bd94061880a -->
<g id="edge4" class="edge"><title>0ad8c023&#45;28b7&#45;437f&#45;ae92&#45;0daa424ab6a9&#45;&gt;9bb70ae8&#45;2971&#45;461f&#45;b7d4&#45;2bd94061880a</title>
<path fill="none" stroke="black" d="M141,-287.697C141,-279.983 141,-270.712 141,-262.112"/>
<polygon fill="none" stroke="black" points="144.5,-262.104 141,-252.104 137.5,-262.104 144.5,-262.104"/>
</g>
<!-- 191ff2b0&#45;c9a5&#45;4ff2&#45;a484&#45;e4997f165359 -->
<g id="node4" class="node"><title>191ff2b0&#45;c9a5&#45;4ff2&#45;a484&#45;e4997f165359</title>
<polygon fill="cornsilk" stroke="black" points="168,-180 114,-180 114,-144 168,-144 168,-180"/>
<text text-anchor="middle" x="141" y="-158.3" font-family="Helvetica,sans-Serif" font-size="14.00">print</text>
</g>
<!-- 9bb70ae8&#45;2971&#45;461f&#45;b7d4&#45;2bd94061880a&#45;&gt;191ff2b0&#45;c9a5&#45;4ff2&#45;a484&#45;e4997f165359 -->
<g id="edge2" class="edge"><title>9bb70ae8&#45;2971&#45;461f&#45;b7d4&#45;2bd94061880a&#45;&gt;191ff2b0&#45;c9a5&#45;4ff2&#45;a484&#45;e4997f165359</title>
<path fill="none" stroke="black" d="M141,-215.697C141,-207.983 141,-198.712 141,-190.112"/>
<polygon fill="none" stroke="black" points="144.5,-190.104 141,-180.104 137.5,-190.104 144.5,-190.104"/>
</g>
<!-- 453bab61&#45;161d&#45;4d9c&#45;9bbd&#45;93a647978fd7 -->
<g id="node6" class="node"><title>453bab61&#45;161d&#45;4d9c&#45;9bbd&#45;93a647978fd7</title>
<polygon fill="cornsilk" stroke="black" points="117.5,-108 64.5,-108 64.5,-72 123.5,-72 123.5,-102 117.5,-108"/>
<polyline fill="none" stroke="black" points="117.5,-108 117.5,-102 "/>
<polyline fill="none" stroke="black" points="123.5,-102 117.5,-102 "/>
<text text-anchor="middle" x="94" y="-86.3" font-family="Helvetica,sans-Serif" font-size="14.00">report</text>
</g>
<!-- 191ff2b0&#45;c9a5&#45;4ff2&#45;a484&#45;e4997f165359&#45;&gt;453bab61&#45;161d&#45;4d9c&#45;9bbd&#45;93a647978fd7 -->
<g id="edge5" class="edge"><title>191ff2b0&#45;c9a5&#45;4ff2&#45;a484&#45;e4997f165359&#45;&gt;453bab61&#45;161d&#45;4d9c&#45;9bbd&#45;93a647978fd7</title>
<path fill="none" stroke="black" d="M129.382,-143.697C123.861,-135.474 117.153,-125.483 111.068,-116.421"/>
<polygon fill="none" stroke="black" points="113.965,-114.456 105.484,-108.104 108.153,-118.358 113.965,-114.456"/>
</g>
<!-- a1548fbd&#45;fcaa&#45;44e0&#45;87d5&#45;307568057bbd -->
<g id="node5" class="node"><title>a1548fbd&#45;fcaa&#45;44e0&#45;87d5&#45;307568057bbd</title>
<polygon fill="cornsilk" stroke="black" points="96,-180 0,-180 0,-144 96,-144 96,-180"/>
<text text-anchor="middle" x="48" y="-158.3" font-family="Helvetica,sans-Serif" font-size="14.00">confidential</text>
</g>
<!-- a1548fbd&#45;fcaa&#45;44e0&#45;87d5&#45;307568057bbd&#45;&gt;453bab61&#45;161d&#45;4d9c&#45;9bbd&#45;93a647978fd7 -->
<g id="edge3" class="edge"><title>a1548fbd&#45;fcaa&#45;44e0&#45;87d5&#45;307568057bbd&#45;&gt;453bab61&#45;161d&#45;4d9c&#45;9bbd&#45;93a647978fd7</title>
<path fill="none" stroke="black" d="M59.3708,-143.697C64.7185,-135.559 71.2043,-125.689 77.1106,-116.701"/>
<polygon fill="none" stroke="black" points="80.1932,-118.384 82.76,-108.104 74.3432,-114.539 80.1932,-118.384"/>
</g>
<!-- 27a7b276&#45;78de&#45;405d&#45;8eb4&#45;0a364ad4ed7c -->
<g id="node7" class="node"><title>27a7b276&#45;78de&#45;405d&#45;8eb4&#45;0a364ad4ed7c</title>
<ellipse fill="cornsilk" stroke="black" cx="94" cy="-18" rx="27.0966" ry="18"/>
<text text-anchor="middle" x="94" y="-14.3" font-family="Helvetica,sans-Serif" font-size="14.00">end</text>
</g>
<!-- 453bab61&#45;161d&#45;4d9c&#45;9bbd&#45;93a647978fd7&#45;&gt;27a7b276&#45;78de&#45;405d&#45;8eb4&#45;0a364ad4ed7c -->
<g id="edge6" class="edge"><title>453bab61&#45;161d&#45;4d9c&#45;9bbd&#45;93a647978fd7&#45;&gt;27a7b276&#45;78de&#45;405d&#45;8eb4&#45;0a364ad4ed7c</title>
<path fill="none" stroke="black" d="M94,-71.6966C94,-63.9827 94,-54.7125 94,-46.1124"/>
<polygon fill="none" stroke="black" points="97.5001,-46.1043 94,-36.1043 90.5001,-46.1044 97.5001,-46.1043"/>
</g>
<!-- 1705a907&#45;68fd&#45;4357&#45;8ffe&#45;da42dc818452 -->
<g id="node8" class="node"><title>1705a907&#45;68fd&#45;4357&#45;8ffe&#45;da42dc818452</title>
<ellipse fill="cornsilk" stroke="black" cx="141" cy="-450" rx="32.4942" ry="18"/>
<text text-anchor="middle" x="141" y="-446.3" font-family="Helvetica,sans-Serif" font-size="14.00">start</text>
</g>
<!-- 1705a907&#45;68fd&#45;4357&#45;8ffe&#45;da42dc818452&#45;&gt;78aa34a2&#45;dd39&#45;418e&#45;b800&#45;f967808ae9b0 -->
<g id="edge7" class="edge"><title>1705a907&#45;68fd&#45;4357&#45;8ffe&#45;da42dc818452&#45;&gt;78aa34a2&#45;dd39&#45;418e&#45;b800&#45;f967808ae9b0</title>
<path fill="none" stroke="black" d="M141,-431.697C141,-423.983 141,-414.712 141,-406.112"/>
<polygon fill="none" stroke="black" points="144.5,-406.104 141,-396.104 137.5,-406.104 144.5,-406.104"/>
</g>
</g>
</svg>
