<?xml version="1.0" encoding="UTF-8" standalone="no"?>
<!DOCTYPE svg PUBLIC "-//W3C//DTD SVG 1.1//EN"
 "http://www.w3.org/Graphics/SVG/1.1/DTD/svg11.dtd">
<!-- Generated by graphviz version 2.38.0 (20140413.2041)
 -->
<!-- Title: %3 Pages: 1 -->
<svg width="265pt" height="476pt"
 viewBox="0.00 0.00 264.69 476.00" xmlns="http://www.w3.org/2000/svg" xmlns:xlink="http://www.w3.org/1999/xlink">
<g id="graph0" class="graph" transform="scale(1 1) rotate(0) translate(4 472)">
<title>%3</title>
<polygon fill="white" stroke="none" points="-4,4 -4,-472 260.686,-472 260.686,4 -4,4"/>
<!-- 644dd6c3&#45;5f71&#45;4bca&#45;b431&#45;7075549ebda6 -->
<g id="node1" class="node"><title>644dd6c3&#45;5f71&#45;4bca&#45;b431&#45;7075549ebda6</title>
<polygon fill="cornsilk" stroke="black" points="256.872,-383.562 141,-396 25.1283,-383.562 25.2365,-363.438 256.764,-363.438 256.872,-383.562"/>
<text text-anchor="middle" x="141" y="-374.3" font-family="Helvetica,sans-Serif" font-size="14.00">enter data records</text>
</g>
<!-- d6db4740&#45;cb98&#45;4560&#45;b57e&#45;ab265cb52508 -->
<g id="node2" class="node"><title>d6db4740&#45;cb98&#45;4560&#45;b57e&#45;ab265cb52508</title>
<polygon fill="cornsilk" stroke="black" points="238.4,-324 83.4584,-324 43.6,-288 198.542,-288 238.4,-324"/>
<text text-anchor="middle" x="141" y="-302.3" font-family="Helvetica,sans-Serif" font-size="14.00">data records</text>
</g>
<!-- 644dd6c3&#45;5f71&#45;4bca&#45;b431&#45;7075549ebda6&#45;&gt;d6db4740&#45;cb98&#45;4560&#45;b57e&#45;ab265cb52508 -->
<g id="edge1" class="edge"><title>644dd6c3&#45;5f71&#45;4bca&#45;b431&#45;7075549ebda6&#45;&gt;d6db4740&#45;cb98&#45;4560&#45;b57e&#45;ab265cb52508</title>
<path fill="none" stroke="black" d="M141,-363.17C141,-354.919 141,-344.153 141,-334.256"/>
<polygon fill="none" stroke="black" points="144.5,-334.019 141,-324.019 137.5,-334.019 144.5,-334.019"/>
</g>
<!-- 95a90b60&#45;da8e&#45;40f3&#45;82e2&#45;ce0d8a77a8a2 -->
<g id="node3" class="node"><title>95a90b60&#45;da8e&#45;40f3&#45;82e2&#45;ce0d8a77a8a2</title>
<polygon fill="cornsilk" stroke="black" points="168,-252 114,-252 114,-216 168,-216 168,-252"/>
<text text-anchor="middle" x="141" y="-230.3" font-family="Helvetica,sans-Serif" font-size="14.00">sort</text>
</g>
<!-- d6db4740&#45;cb98&#45;4560&#45;b57e&#45;ab265cb52508&#45;&gt;95a90b60&#45;da8e&#45;40f3&#45;82e2&#45;ce0d8a77a8a2 -->
<g id="edge4" class="edge"><title>d6db4740&#45;cb98&#45;4560&#45;b57e&#45;ab265cb52508&#45;&gt;95a90b60&#45;da8e&#45;40f3&#45;82e2&#45;ce0d8a77a8a2</title>
<path fill="none" stroke="black" d="M141,-287.697C141,-279.983 141,-270.712 141,-262.112"/>
<polygon fill="none" stroke="black" points="144.5,-262.104 141,-252.104 137.5,-262.104 144.5,-262.104"/>
</g>
<!-- dafe0d11&#45;06fd&#45;4bf8&#45;a8d7&#45;4717be54dbbc -->
<g id="node4" class="node"><title>dafe0d11&#45;06fd&#45;4bf8&#45;a8d7&#45;4717be54dbbc</title>
<polygon fill="cornsilk" stroke="black" points="168,-180 114,-180 114,-144 168,-144 168,-180"/>
<text text-anchor="middle" x="141" y="-158.3" font-family="Helvetica,sans-Serif" font-size="14.00">print</text>
</g>
<!-- 95a90b60&#45;da8e&#45;40f3&#45;82e2&#45;ce0d8a77a8a2&#45;&gt;dafe0d11&#45;06fd&#45;4bf8&#45;a8d7&#45;4717be54dbbc -->
<g id="edge2" class="edge"><title>95a90b60&#45;da8e&#45;40f3&#45;82e2&#45;ce0d8a77a8a2&#45;&gt;dafe0d11&#45;06fd&#45;4bf8&#45;a8d7&#45;4717be54dbbc</title>
<path fill="none" stroke="black" d="M141,-215.697C141,-207.983 141,-198.712 141,-190.112"/>
<polygon fill="none" stroke="black" points="144.5,-190.104 141,-180.104 137.5,-190.104 144.5,-190.104"/>
</g>
<!-- 5470e369&#45;7cc8&#45;451a&#45;bf1c&#45;3c0293e4d15c -->
<g id="node6" class="node"><title>5470e369&#45;7cc8&#45;451a&#45;bf1c&#45;3c0293e4d15c</title>
<polygon fill="cornsilk" stroke="black" points="117.5,-108 64.5,-108 64.5,-72 123.5,-72 123.5,-102 117.5,-108"/>
<polyline fill="none" stroke="black" points="117.5,-108 117.5,-102 "/>
<polyline fill="none" stroke="black" points="123.5,-102 117.5,-102 "/>
<text text-anchor="middle" x="94" y="-86.3" font-family="Helvetica,sans-Serif" font-size="14.00">report</text>
</g>
<!-- dafe0d11&#45;06fd&#45;4bf8&#45;a8d7&#45;4717be54dbbc&#45;&gt;5470e369&#45;7cc8&#45;451a&#45;bf1c&#45;3c0293e4d15c -->
<g id="edge5" class="edge"><title>dafe0d11&#45;06fd&#45;4bf8&#45;a8d7&#45;4717be54dbbc&#45;&gt;5470e369&#45;7cc8&#45;451a&#45;bf1c&#45;3c0293e4d15c</title>
<path fill="none" stroke="black" d="M129.382,-143.697C123.861,-135.474 117.153,-125.483 111.068,-116.421"/>
<polygon fill="none" stroke="black" points="113.965,-114.456 105.484,-108.104 108.153,-118.358 113.965,-114.456"/>
</g>
<!-- 753d38fd&#45;565f&#45;4772&#45;81aa&#45;f6dbe27e3537 -->
<g id="node5" class="node"><title>753d38fd&#45;565f&#45;4772&#45;81aa&#45;f6dbe27e3537</title>
<polygon fill="cornsilk" stroke="black" points="96,-180 0,-180 0,-144 96,-144 96,-180"/>
<text text-anchor="middle" x="48" y="-158.3" font-family="Helvetica,sans-Serif" font-size="14.00">confidential</text>
</g>
<!-- 753d38fd&#45;565f&#45;4772&#45;81aa&#45;f6dbe27e3537&#45;&gt;5470e369&#45;7cc8&#45;451a&#45;bf1c&#45;3c0293e4d15c -->
<g id="edge3" class="edge"><title>753d38fd&#45;565f&#45;4772&#45;81aa&#45;f6dbe27e3537&#45;&gt;5470e369&#45;7cc8&#45;451a&#45;bf1c&#45;3c0293e4d15c</title>
<path fill="none" stroke="black" d="M59.3708,-143.697C64.7185,-135.559 71.2043,-125.689 77.1106,-116.701"/>
<polygon fill="none" stroke="black" points="80.1932,-118.384 82.76,-108.104 74.3432,-114.539 80.1932,-118.384"/>
</g>
<!-- 63ba90db&#45;dd37&#45;4da8&#45;9b1d&#45;1849bf6b1ffe -->
<g id="node7" class="node"><title>63ba90db&#45;dd37&#45;4da8&#45;9b1d&#45;1849bf6b1ffe</title>
<ellipse fill="cornsilk" stroke="black" cx="94" cy="-18" rx="27.0966" ry="18"/>
<text text-anchor="middle" x="94" y="-14.3" font-family="Helvetica,sans-Serif" font-size="14.00">end</text>
</g>
<!-- 5470e369&#45;7cc8&#45;451a&#45;bf1c&#45;3c0293e4d15c&#45;&gt;63ba90db&#45;dd37&#45;4da8&#45;9b1d&#45;1849bf6b1ffe -->
<g id="edge6" class="edge"><title>5470e369&#45;7cc8&#45;451a&#45;bf1c&#45;3c0293e4d15c&#45;&gt;63ba90db&#45;dd37&#45;4da8&#45;9b1d&#45;1849bf6b1ffe</title>
<path fill="none" stroke="black" d="M94,-71.6966C94,-63.9827 94,-54.7125 94,-46.1124"/>
<polygon fill="none" stroke="black" points="97.5001,-46.1043 94,-36.1043 90.5001,-46.1044 97.5001,-46.1043"/>
</g>
<!-- 62573554&#45;3ce9&#45;4209&#45;b957&#45;9d980bedf8c9 -->
<g id="node8" class="node"><title>62573554&#45;3ce9&#45;4209&#45;b957&#45;9d980bedf8c9</title>
<ellipse fill="cornsilk" stroke="black" cx="141" cy="-450" rx="32.4942" ry="18"/>
<text text-anchor="middle" x="141" y="-446.3" font-family="Helvetica,sans-Serif" font-size="14.00">start</text>
</g>
<!-- 62573554&#45;3ce9&#45;4209&#45;b957&#45;9d980bedf8c9&#45;&gt;644dd6c3&#45;5f71&#45;4bca&#45;b431&#45;7075549ebda6 -->
<g id="edge7" class="edge"><title>62573554&#45;3ce9&#45;4209&#45;b957&#45;9d980bedf8c9&#45;&gt;644dd6c3&#45;5f71&#45;4bca&#45;b431&#45;7075549ebda6</title>
<path fill="none" stroke="black" d="M141,-431.697C141,-423.983 141,-414.712 141,-406.112"/>
<polygon fill="none" stroke="black" points="144.5,-406.104 141,-396.104 137.5,-406.104 144.5,-406.104"/>
</g>
</g>
</svg>
