<?xml version="1.0" encoding="UTF-8" standalone="no"?>
<!DOCTYPE svg PUBLIC "-//W3C//DTD SVG 1.1//EN"
 "http://www.w3.org/Graphics/SVG/1.1/DTD/svg11.dtd">
<!-- Generated by graphviz version 2.38.0 (20140413.2041)
 -->
<!-- Title: %3 Pages: 1 -->
<svg width="265pt" height="476pt"
 viewBox="0.00 0.00 264.69 476.00" xmlns="http://www.w3.org/2000/svg" xmlns:xlink="http://www.w3.org/1999/xlink">
<g id="graph0" class="graph" transform="scale(1 1) rotate(0) translate(4 472)">
<title>%3</title>
<polygon fill="white" stroke="none" points="-4,4 -4,-472 260.686,-472 260.686,4 -4,4"/>
<!-- 977860ee&#45;2cfa&#45;41c9&#45;8b56&#45;e308d38b4830 -->
<g id="node1" class="node"><title>977860ee&#45;2cfa&#45;41c9&#45;8b56&#45;e308d38b4830</title>
<polygon fill="cornsilk" stroke="black" points="256.872,-383.562 141,-396 25.1283,-383.562 25.2365,-363.438 256.764,-363.438 256.872,-383.562"/>
<text text-anchor="middle" x="141" y="-374.3" font-family="Helvetica,sans-Serif" font-size="14.00">enter data records</text>
</g>
<!-- b8b8f27e&#45;01e0&#45;430e&#45;af47&#45;3868f6eef14a -->
<g id="node2" class="node"><title>b8b8f27e&#45;01e0&#45;430e&#45;af47&#45;3868f6eef14a</title>
<polygon fill="cornsilk" stroke="black" points="238.4,-324 83.4584,-324 43.6,-288 198.542,-288 238.4,-324"/>
<text text-anchor="middle" x="141" y="-302.3" font-family="Helvetica,sans-Serif" font-size="14.00">data records</text>
</g>
<!-- 977860ee&#45;2cfa&#45;41c9&#45;8b56&#45;e308d38b4830&#45;&gt;b8b8f27e&#45;01e0&#45;430e&#45;af47&#45;3868f6eef14a -->
<g id="edge1" class="edge"><title>977860ee&#45;2cfa&#45;41c9&#45;8b56&#45;e308d38b4830&#45;&gt;b8b8f27e&#45;01e0&#45;430e&#45;af47&#45;3868f6eef14a</title>
<path fill="none" stroke="black" d="M141,-363.17C141,-354.919 141,-344.153 141,-334.256"/>
<polygon fill="none" stroke="black" points="144.5,-334.019 141,-324.019 137.5,-334.019 144.5,-334.019"/>
</g>
<!-- 0638d3d0&#45;e9dd&#45;464d&#45;ac37&#45;038ccd4e5ce5 -->
<g id="node3" class="node"><title>0638d3d0&#45;e9dd&#45;464d&#45;ac37&#45;038ccd4e5ce5</title>
<polygon fill="cornsilk" stroke="black" points="168,-252 114,-252 114,-216 168,-216 168,-252"/>
<text text-anchor="middle" x="141" y="-230.3" font-family="Helvetica,sans-Serif" font-size="14.00">sort</text>
</g>
<!-- b8b8f27e&#45;01e0&#45;430e&#45;af47&#45;3868f6eef14a&#45;&gt;0638d3d0&#45;e9dd&#45;464d&#45;ac37&#45;038ccd4e5ce5 -->
<g id="edge4" class="edge"><title>b8b8f27e&#45;01e0&#45;430e&#45;af47&#45;3868f6eef14a&#45;&gt;0638d3d0&#45;e9dd&#45;464d&#45;ac37&#45;038ccd4e5ce5</title>
<path fill="none" stroke="black" d="M141,-287.697C141,-279.983 141,-270.712 141,-262.112"/>
<polygon fill="none" stroke="black" points="144.5,-262.104 141,-252.104 137.5,-262.104 144.5,-262.104"/>
</g>
<!-- 2058da7d&#45;869b&#45;423f&#45;bced&#45;4b7efabcd3ad -->
<g id="node4" class="node"><title>2058da7d&#45;869b&#45;423f&#45;bced&#45;4b7efabcd3ad</title>
<polygon fill="cornsilk" stroke="black" points="168,-180 114,-180 114,-144 168,-144 168,-180"/>
<text text-anchor="middle" x="141" y="-158.3" font-family="Helvetica,sans-Serif" font-size="14.00">print</text>
</g>
<!-- 0638d3d0&#45;e9dd&#45;464d&#45;ac37&#45;038ccd4e5ce5&#45;&gt;2058da7d&#45;869b&#45;423f&#45;bced&#45;4b7efabcd3ad -->
<g id="edge2" class="edge"><title>0638d3d0&#45;e9dd&#45;464d&#45;ac37&#45;038ccd4e5ce5&#45;&gt;2058da7d&#45;869b&#45;423f&#45;bced&#45;4b7efabcd3ad</title>
<path fill="none" stroke="black" d="M141,-215.697C141,-207.983 141,-198.712 141,-190.112"/>
<polygon fill="none" stroke="black" points="144.5,-190.104 141,-180.104 137.5,-190.104 144.5,-190.104"/>
</g>
<!-- de39ffaf&#45;34a7&#45;4f67&#45;b89c&#45;ee50ca4c35ef -->
<g id="node6" class="node"><title>de39ffaf&#45;34a7&#45;4f67&#45;b89c&#45;ee50ca4c35ef</title>
<polygon fill="cornsilk" stroke="black" points="117.5,-108 64.5,-108 64.5,-72 123.5,-72 123.5,-102 117.5,-108"/>
<polyline fill="none" stroke="black" points="117.5,-108 117.5,-102 "/>
<polyline fill="none" stroke="black" points="123.5,-102 117.5,-102 "/>
<text text-anchor="middle" x="94" y="-86.3" font-family="Helvetica,sans-Serif" font-size="14.00">report</text>
</g>
<!-- 2058da7d&#45;869b&#45;423f&#45;bced&#45;4b7efabcd3ad&#45;&gt;de39ffaf&#45;34a7&#45;4f67&#45;b89c&#45;ee50ca4c35ef -->
<g id="edge5" class="edge"><title>2058da7d&#45;869b&#45;423f&#45;bced&#45;4b7efabcd3ad&#45;&gt;de39ffaf&#45;34a7&#45;4f67&#45;b89c&#45;ee50ca4c35ef</title>
<path fill="none" stroke="black" d="M129.382,-143.697C123.861,-135.474 117.153,-125.483 111.068,-116.421"/>
<polygon fill="none" stroke="black" points="113.965,-114.456 105.484,-108.104 108.153,-118.358 113.965,-114.456"/>
</g>
<!-- a8f168a4&#45;749b&#45;4a42&#45;94be&#45;b12d6a984eae -->
<g id="node5" class="node"><title>a8f168a4&#45;749b&#45;4a42&#45;94be&#45;b12d6a984eae</title>
<polygon fill="cornsilk" stroke="black" points="96,-180 0,-180 0,-144 96,-144 96,-180"/>
<text text-anchor="middle" x="48" y="-158.3" font-family="Helvetica,sans-Serif" font-size="14.00">confidential</text>
</g>
<!-- a8f168a4&#45;749b&#45;4a42&#45;94be&#45;b12d6a984eae&#45;&gt;de39ffaf&#45;34a7&#45;4f67&#45;b89c&#45;ee50ca4c35ef -->
<g id="edge3" class="edge"><title>a8f168a4&#45;749b&#45;4a42&#45;94be&#45;b12d6a984eae&#45;&gt;de39ffaf&#45;34a7&#45;4f67&#45;b89c&#45;ee50ca4c35ef</title>
<path fill="none" stroke="black" d="M59.3708,-143.697C64.7185,-135.559 71.2043,-125.689 77.1106,-116.701"/>
<polygon fill="none" stroke="black" points="80.1932,-118.384 82.76,-108.104 74.3432,-114.539 80.1932,-118.384"/>
</g>
<!-- c7090ad0&#45;f5dd&#45;4eae&#45;8876&#45;ea697de2a051 -->
<g id="node7" class="node"><title>c7090ad0&#45;f5dd&#45;4eae&#45;8876&#45;ea697de2a051</title>
<ellipse fill="cornsilk" stroke="black" cx="94" cy="-18" rx="27.0966" ry="18"/>
<text text-anchor="middle" x="94" y="-14.3" font-family="Helvetica,sans-Serif" font-size="14.00">end</text>
</g>
<!-- de39ffaf&#45;34a7&#45;4f67&#45;b89c&#45;ee50ca4c35ef&#45;&gt;c7090ad0&#45;f5dd&#45;4eae&#45;8876&#45;ea697de2a051 -->
<g id="edge6" class="edge"><title>de39ffaf&#45;34a7&#45;4f67&#45;b89c&#45;ee50ca4c35ef&#45;&gt;c7090ad0&#45;f5dd&#45;4eae&#45;8876&#45;ea697de2a051</title>
<path fill="none" stroke="black" d="M94,-71.6966C94,-63.9827 94,-54.7125 94,-46.1124"/>
<polygon fill="none" stroke="black" points="97.5001,-46.1043 94,-36.1043 90.5001,-46.1044 97.5001,-46.1043"/>
</g>
<!-- b5a63e9f&#45;eb3f&#45;4fba&#45;a8e5&#45;059d922b78b0 -->
<g id="node8" class="node"><title>b5a63e9f&#45;eb3f&#45;4fba&#45;a8e5&#45;059d922b78b0</title>
<ellipse fill="cornsilk" stroke="black" cx="141" cy="-450" rx="32.4942" ry="18"/>
<text text-anchor="middle" x="141" y="-446.3" font-family="Helvetica,sans-Serif" font-size="14.00">start</text>
</g>
<!-- b5a63e9f&#45;eb3f&#45;4fba&#45;a8e5&#45;059d922b78b0&#45;&gt;977860ee&#45;2cfa&#45;41c9&#45;8b56&#45;e308d38b4830 -->
<g id="edge7" class="edge"><title>b5a63e9f&#45;eb3f&#45;4fba&#45;a8e5&#45;059d922b78b0&#45;&gt;977860ee&#45;2cfa&#45;41c9&#45;8b56&#45;e308d38b4830</title>
<path fill="none" stroke="black" d="M141,-431.697C141,-423.983 141,-414.712 141,-406.112"/>
<polygon fill="none" stroke="black" points="144.5,-406.104 141,-396.104 137.5,-406.104 144.5,-406.104"/>
</g>
</g>
</svg>
