<?xml version="1.0" encoding="UTF-8" standalone="no"?>
<!DOCTYPE svg PUBLIC "-//W3C//DTD SVG 1.1//EN"
 "http://www.w3.org/Graphics/SVG/1.1/DTD/svg11.dtd">
<!-- Generated by graphviz version 2.38.0 (20140413.2041)
 -->
<!-- Title: %3 Pages: 1 -->
<svg width="265pt" height="476pt"
 viewBox="0.00 0.00 264.69 476.00" xmlns="http://www.w3.org/2000/svg" xmlns:xlink="http://www.w3.org/1999/xlink">
<g id="graph0" class="graph" transform="scale(1 1) rotate(0) translate(4 472)">
<title>%3</title>
<polygon fill="white" stroke="none" points="-4,4 -4,-472 260.686,-472 260.686,4 -4,4"/>
<!-- ab9cbf50&#45;8515&#45;4e8a&#45;9c8e&#45;1bb2232dcf15 -->
<g id="node1" class="node"><title>ab9cbf50&#45;8515&#45;4e8a&#45;9c8e&#45;1bb2232dcf15</title>
<polygon fill="cornsilk" stroke="black" points="256.872,-383.562 141,-396 25.1283,-383.562 25.2365,-363.438 256.764,-363.438 256.872,-383.562"/>
<text text-anchor="middle" x="141" y="-374.3" font-family="Helvetica,sans-Serif" font-size="14.00">enter data records</text>
</g>
<!-- b73b6d2d&#45;1e4c&#45;41b2&#45;993b&#45;2e8415198351 -->
<g id="node2" class="node"><title>b73b6d2d&#45;1e4c&#45;41b2&#45;993b&#45;2e8415198351</title>
<polygon fill="cornsilk" stroke="black" points="238.4,-324 83.4584,-324 43.6,-288 198.542,-288 238.4,-324"/>
<text text-anchor="middle" x="141" y="-302.3" font-family="Helvetica,sans-Serif" font-size="14.00">data records</text>
</g>
<!-- ab9cbf50&#45;8515&#45;4e8a&#45;9c8e&#45;1bb2232dcf15&#45;&gt;b73b6d2d&#45;1e4c&#45;41b2&#45;993b&#45;2e8415198351 -->
<g id="edge1" class="edge"><title>ab9cbf50&#45;8515&#45;4e8a&#45;9c8e&#45;1bb2232dcf15&#45;&gt;b73b6d2d&#45;1e4c&#45;41b2&#45;993b&#45;2e8415198351</title>
<path fill="none" stroke="black" d="M141,-363.17C141,-354.919 141,-344.153 141,-334.256"/>
<polygon fill="none" stroke="black" points="144.5,-334.019 141,-324.019 137.5,-334.019 144.5,-334.019"/>
</g>
<!-- ffa93a4d&#45;f1e7&#45;47d8&#45;9d9a&#45;0c72944b12c4 -->
<g id="node3" class="node"><title>ffa93a4d&#45;f1e7&#45;47d8&#45;9d9a&#45;0c72944b12c4</title>
<polygon fill="cornsilk" stroke="black" points="168,-252 114,-252 114,-216 168,-216 168,-252"/>
<text text-anchor="middle" x="141" y="-230.3" font-family="Helvetica,sans-Serif" font-size="14.00">sort</text>
</g>
<!-- b73b6d2d&#45;1e4c&#45;41b2&#45;993b&#45;2e8415198351&#45;&gt;ffa93a4d&#45;f1e7&#45;47d8&#45;9d9a&#45;0c72944b12c4 -->
<g id="edge4" class="edge"><title>b73b6d2d&#45;1e4c&#45;41b2&#45;993b&#45;2e8415198351&#45;&gt;ffa93a4d&#45;f1e7&#45;47d8&#45;9d9a&#45;0c72944b12c4</title>
<path fill="none" stroke="black" d="M141,-287.697C141,-279.983 141,-270.712 141,-262.112"/>
<polygon fill="none" stroke="black" points="144.5,-262.104 141,-252.104 137.5,-262.104 144.5,-262.104"/>
</g>
<!-- 7a177e05&#45;8983&#45;402f&#45;a3cb&#45;4d6a911cfd76 -->
<g id="node4" class="node"><title>7a177e05&#45;8983&#45;402f&#45;a3cb&#45;4d6a911cfd76</title>
<polygon fill="cornsilk" stroke="black" points="168,-180 114,-180 114,-144 168,-144 168,-180"/>
<text text-anchor="middle" x="141" y="-158.3" font-family="Helvetica,sans-Serif" font-size="14.00">print</text>
</g>
<!-- ffa93a4d&#45;f1e7&#45;47d8&#45;9d9a&#45;0c72944b12c4&#45;&gt;7a177e05&#45;8983&#45;402f&#45;a3cb&#45;4d6a911cfd76 -->
<g id="edge2" class="edge"><title>ffa93a4d&#45;f1e7&#45;47d8&#45;9d9a&#45;0c72944b12c4&#45;&gt;7a177e05&#45;8983&#45;402f&#45;a3cb&#45;4d6a911cfd76</title>
<path fill="none" stroke="black" d="M141,-215.697C141,-207.983 141,-198.712 141,-190.112"/>
<polygon fill="none" stroke="black" points="144.5,-190.104 141,-180.104 137.5,-190.104 144.5,-190.104"/>
</g>
<!-- 06e628de&#45;0b86&#45;48ed&#45;8a28&#45;e075103f449d -->
<g id="node6" class="node"><title>06e628de&#45;0b86&#45;48ed&#45;8a28&#45;e075103f449d</title>
<polygon fill="cornsilk" stroke="black" points="117.5,-108 64.5,-108 64.5,-72 123.5,-72 123.5,-102 117.5,-108"/>
<polyline fill="none" stroke="black" points="117.5,-108 117.5,-102 "/>
<polyline fill="none" stroke="black" points="123.5,-102 117.5,-102 "/>
<text text-anchor="middle" x="94" y="-86.3" font-family="Helvetica,sans-Serif" font-size="14.00">report</text>
</g>
<!-- 7a177e05&#45;8983&#45;402f&#45;a3cb&#45;4d6a911cfd76&#45;&gt;06e628de&#45;0b86&#45;48ed&#45;8a28&#45;e075103f449d -->
<g id="edge5" class="edge"><title>7a177e05&#45;8983&#45;402f&#45;a3cb&#45;4d6a911cfd76&#45;&gt;06e628de&#45;0b86&#45;48ed&#45;8a28&#45;e075103f449d</title>
<path fill="none" stroke="black" d="M129.382,-143.697C123.861,-135.474 117.153,-125.483 111.068,-116.421"/>
<polygon fill="none" stroke="black" points="113.965,-114.456 105.484,-108.104 108.153,-118.358 113.965,-114.456"/>
</g>
<!-- 1f37d126&#45;38bd&#45;481b&#45;8e88&#45;565d56faa7c5 -->
<g id="node5" class="node"><title>1f37d126&#45;38bd&#45;481b&#45;8e88&#45;565d56faa7c5</title>
<polygon fill="cornsilk" stroke="black" points="96,-180 0,-180 0,-144 96,-144 96,-180"/>
<text text-anchor="middle" x="48" y="-158.3" font-family="Helvetica,sans-Serif" font-size="14.00">confidential</text>
</g>
<!-- 1f37d126&#45;38bd&#45;481b&#45;8e88&#45;565d56faa7c5&#45;&gt;06e628de&#45;0b86&#45;48ed&#45;8a28&#45;e075103f449d -->
<g id="edge3" class="edge"><title>1f37d126&#45;38bd&#45;481b&#45;8e88&#45;565d56faa7c5&#45;&gt;06e628de&#45;0b86&#45;48ed&#45;8a28&#45;e075103f449d</title>
<path fill="none" stroke="black" d="M59.3708,-143.697C64.7185,-135.559 71.2043,-125.689 77.1106,-116.701"/>
<polygon fill="none" stroke="black" points="80.1932,-118.384 82.76,-108.104 74.3432,-114.539 80.1932,-118.384"/>
</g>
<!-- 52b7bb39&#45;580d&#45;4d0a&#45;ac1d&#45;da1178cb3e8f -->
<g id="node7" class="node"><title>52b7bb39&#45;580d&#45;4d0a&#45;ac1d&#45;da1178cb3e8f</title>
<ellipse fill="cornsilk" stroke="black" cx="94" cy="-18" rx="27.0966" ry="18"/>
<text text-anchor="middle" x="94" y="-14.3" font-family="Helvetica,sans-Serif" font-size="14.00">end</text>
</g>
<!-- 06e628de&#45;0b86&#45;48ed&#45;8a28&#45;e075103f449d&#45;&gt;52b7bb39&#45;580d&#45;4d0a&#45;ac1d&#45;da1178cb3e8f -->
<g id="edge6" class="edge"><title>06e628de&#45;0b86&#45;48ed&#45;8a28&#45;e075103f449d&#45;&gt;52b7bb39&#45;580d&#45;4d0a&#45;ac1d&#45;da1178cb3e8f</title>
<path fill="none" stroke="black" d="M94,-71.6966C94,-63.9827 94,-54.7125 94,-46.1124"/>
<polygon fill="none" stroke="black" points="97.5001,-46.1043 94,-36.1043 90.5001,-46.1044 97.5001,-46.1043"/>
</g>
<!-- 144a66c0&#45;c9c3&#45;4932&#45;90d3&#45;180cef1b164f -->
<g id="node8" class="node"><title>144a66c0&#45;c9c3&#45;4932&#45;90d3&#45;180cef1b164f</title>
<ellipse fill="cornsilk" stroke="black" cx="141" cy="-450" rx="32.4942" ry="18"/>
<text text-anchor="middle" x="141" y="-446.3" font-family="Helvetica,sans-Serif" font-size="14.00">start</text>
</g>
<!-- 144a66c0&#45;c9c3&#45;4932&#45;90d3&#45;180cef1b164f&#45;&gt;ab9cbf50&#45;8515&#45;4e8a&#45;9c8e&#45;1bb2232dcf15 -->
<g id="edge7" class="edge"><title>144a66c0&#45;c9c3&#45;4932&#45;90d3&#45;180cef1b164f&#45;&gt;ab9cbf50&#45;8515&#45;4e8a&#45;9c8e&#45;1bb2232dcf15</title>
<path fill="none" stroke="black" d="M141,-431.697C141,-423.983 141,-414.712 141,-406.112"/>
<polygon fill="none" stroke="black" points="144.5,-406.104 141,-396.104 137.5,-406.104 144.5,-406.104"/>
</g>
</g>
</svg>
