<?xml version="1.0" encoding="UTF-8" standalone="no"?>
<!DOCTYPE svg PUBLIC "-//W3C//DTD SVG 1.1//EN"
 "http://www.w3.org/Graphics/SVG/1.1/DTD/svg11.dtd">
<!-- Generated by graphviz version 2.38.0 (20140413.2041)
 -->
<!-- Title: %3 Pages: 1 -->
<svg width="95pt" height="332pt"
 viewBox="0.00 0.00 95.00 332.00" xmlns="http://www.w3.org/2000/svg" xmlns:xlink="http://www.w3.org/1999/xlink">
<g id="graph0" class="graph" transform="scale(1 1) rotate(0) translate(4 328)">
<title>%3</title>
<polygon fill="white" stroke="none" points="-4,4 -4,-328 91,-328 91,4 -4,4"/>
<!-- fb5a5c1e&#45;a41e&#45;4a6b&#45;9196&#45;7fcc57494d99 -->
<g id="node1" class="node"><title>fb5a5c1e&#45;a41e&#45;4a6b&#45;9196&#45;7fcc57494d99</title>
<ellipse fill="cornsilk" stroke="black" cx="43.5" cy="-306" rx="32.4942" ry="18"/>
<text text-anchor="middle" x="43.5" y="-302.3" font-family="Helvetica,sans-Serif" font-size="14.00">start</text>
</g>
<!-- cd5a6377&#45;afd0&#45;407f&#45;9978&#45;61547950d04f -->
<g id="node2" class="node"><title>cd5a6377&#45;afd0&#45;407f&#45;9978&#45;61547950d04f</title>
<polygon fill="cornsilk" stroke="black" points="71.4847,-252 26.9673,-252 15.5153,-216 60.0327,-216 71.4847,-252"/>
<text text-anchor="middle" x="43.5" y="-230.3" font-family="Helvetica,sans-Serif" font-size="14.00">a</text>
</g>
<!-- fb5a5c1e&#45;a41e&#45;4a6b&#45;9196&#45;7fcc57494d99&#45;&gt;cd5a6377&#45;afd0&#45;407f&#45;9978&#45;61547950d04f -->
<g id="edge1" class="edge"><title>fb5a5c1e&#45;a41e&#45;4a6b&#45;9196&#45;7fcc57494d99&#45;&gt;cd5a6377&#45;afd0&#45;407f&#45;9978&#45;61547950d04f</title>
<path fill="none" stroke="black" d="M43.5,-287.697C43.5,-279.983 43.5,-270.712 43.5,-262.112"/>
<polygon fill="none" stroke="black" points="47.0001,-262.104 43.5,-252.104 40.0001,-262.104 47.0001,-262.104"/>
</g>
<!-- 50bb653b&#45;ff42&#45;4b41&#45;932f&#45;1297e472f8f3 -->
<g id="node5" class="node"><title>50bb653b&#45;ff42&#45;4b41&#45;932f&#45;1297e472f8f3</title>
<polygon fill="cornsilk" stroke="black" points="87,-180 0,-180 0,-144 87,-144 87,-180"/>
<text text-anchor="middle" x="43.5" y="-158.3" font-family="Helvetica,sans-Serif" font-size="14.00">cat &lt;a &gt;b</text>
</g>
<!-- cd5a6377&#45;afd0&#45;407f&#45;9978&#45;61547950d04f&#45;&gt;50bb653b&#45;ff42&#45;4b41&#45;932f&#45;1297e472f8f3 -->
<g id="edge4" class="edge"><title>cd5a6377&#45;afd0&#45;407f&#45;9978&#45;61547950d04f&#45;&gt;50bb653b&#45;ff42&#45;4b41&#45;932f&#45;1297e472f8f3</title>
<path fill="none" stroke="black" d="M43.5,-215.697C43.5,-207.983 43.5,-198.712 43.5,-190.112"/>
<polygon fill="none" stroke="black" points="47.0001,-190.104 43.5,-180.104 40.0001,-190.104 47.0001,-190.104"/>
</g>
<!-- 43fef29d&#45;8b91&#45;4b52&#45;a260&#45;36983f1d43a2 -->
<g id="node3" class="node"><title>43fef29d&#45;8b91&#45;4b52&#45;a260&#45;36983f1d43a2</title>
<polygon fill="cornsilk" stroke="black" points="71.4847,-108 26.9673,-108 15.5153,-72 60.0327,-72 71.4847,-108"/>
<text text-anchor="middle" x="43.5" y="-86.3" font-family="Helvetica,sans-Serif" font-size="14.00">b</text>
</g>
<!-- 55dc246e&#45;8628&#45;415d&#45;bc45&#45;46f23d631604 -->
<g id="node4" class="node"><title>55dc246e&#45;8628&#45;415d&#45;bc45&#45;46f23d631604</title>
<ellipse fill="cornsilk" stroke="black" cx="43.5" cy="-18" rx="27.0966" ry="18"/>
<text text-anchor="middle" x="43.5" y="-14.3" font-family="Helvetica,sans-Serif" font-size="14.00">end</text>
</g>
<!-- 43fef29d&#45;8b91&#45;4b52&#45;a260&#45;36983f1d43a2&#45;&gt;55dc246e&#45;8628&#45;415d&#45;bc45&#45;46f23d631604 -->
<g id="edge2" class="edge"><title>43fef29d&#45;8b91&#45;4b52&#45;a260&#45;36983f1d43a2&#45;&gt;55dc246e&#45;8628&#45;415d&#45;bc45&#45;46f23d631604</title>
<path fill="none" stroke="black" d="M43.5,-71.6966C43.5,-63.9827 43.5,-54.7125 43.5,-46.1124"/>
<polygon fill="none" stroke="black" points="47.0001,-46.1043 43.5,-36.1043 40.0001,-46.1044 47.0001,-46.1043"/>
</g>
<!-- 50bb653b&#45;ff42&#45;4b41&#45;932f&#45;1297e472f8f3&#45;&gt;43fef29d&#45;8b91&#45;4b52&#45;a260&#45;36983f1d43a2 -->
<g id="edge3" class="edge"><title>50bb653b&#45;ff42&#45;4b41&#45;932f&#45;1297e472f8f3&#45;&gt;43fef29d&#45;8b91&#45;4b52&#45;a260&#45;36983f1d43a2</title>
<path fill="none" stroke="black" d="M43.5,-143.697C43.5,-135.983 43.5,-126.712 43.5,-118.112"/>
<polygon fill="none" stroke="black" points="47.0001,-118.104 43.5,-108.104 40.0001,-118.104 47.0001,-118.104"/>
</g>
</g>
</svg>
