<?xml version="1.0" encoding="UTF-8" standalone="no"?>
<!DOCTYPE svg PUBLIC "-//W3C//DTD SVG 1.1//EN"
 "http://www.w3.org/Graphics/SVG/1.1/DTD/svg11.dtd">
<!-- Generated by graphviz version 2.38.0 (20140413.2041)
 -->
<!-- Title: %3 Pages: 1 -->
<svg width="95pt" height="332pt"
 viewBox="0.00 0.00 95.00 332.00" xmlns="http://www.w3.org/2000/svg" xmlns:xlink="http://www.w3.org/1999/xlink">
<g id="graph0" class="graph" transform="scale(1 1) rotate(0) translate(4 328)">
<title>%3</title>
<polygon fill="white" stroke="none" points="-4,4 -4,-328 91,-328 91,4 -4,4"/>
<!-- e6447794&#45;7373&#45;414f&#45;b316&#45;92e0fdcc6f69 -->
<g id="node1" class="node"><title>e6447794&#45;7373&#45;414f&#45;b316&#45;92e0fdcc6f69</title>
<ellipse fill="cornsilk" stroke="black" cx="43.5" cy="-306" rx="32.4942" ry="18"/>
<text text-anchor="middle" x="43.5" y="-302.3" font-family="Helvetica,sans-Serif" font-size="14.00">start</text>
</g>
<!-- 14cdaccc&#45;8060&#45;48b6&#45;8444&#45;53522ff2cb43 -->
<g id="node2" class="node"><title>14cdaccc&#45;8060&#45;48b6&#45;8444&#45;53522ff2cb43</title>
<polygon fill="cornsilk" stroke="black" points="71.4847,-252 26.9673,-252 15.5153,-216 60.0327,-216 71.4847,-252"/>
<text text-anchor="middle" x="43.5" y="-230.3" font-family="Helvetica,sans-Serif" font-size="14.00">a</text>
</g>
<!-- e6447794&#45;7373&#45;414f&#45;b316&#45;92e0fdcc6f69&#45;&gt;14cdaccc&#45;8060&#45;48b6&#45;8444&#45;53522ff2cb43 -->
<g id="edge1" class="edge"><title>e6447794&#45;7373&#45;414f&#45;b316&#45;92e0fdcc6f69&#45;&gt;14cdaccc&#45;8060&#45;48b6&#45;8444&#45;53522ff2cb43</title>
<path fill="none" stroke="black" d="M43.5,-287.697C43.5,-279.983 43.5,-270.712 43.5,-262.112"/>
<polygon fill="none" stroke="black" points="47.0001,-262.104 43.5,-252.104 40.0001,-262.104 47.0001,-262.104"/>
</g>
<!-- f7c9fb50&#45;d727&#45;44db&#45;b209&#45;490194066738 -->
<g id="node5" class="node"><title>f7c9fb50&#45;d727&#45;44db&#45;b209&#45;490194066738</title>
<polygon fill="cornsilk" stroke="black" points="87,-180 0,-180 0,-144 87,-144 87,-180"/>
<text text-anchor="middle" x="43.5" y="-158.3" font-family="Helvetica,sans-Serif" font-size="14.00">cat &lt;a &gt;b</text>
</g>
<!-- 14cdaccc&#45;8060&#45;48b6&#45;8444&#45;53522ff2cb43&#45;&gt;f7c9fb50&#45;d727&#45;44db&#45;b209&#45;490194066738 -->
<g id="edge4" class="edge"><title>14cdaccc&#45;8060&#45;48b6&#45;8444&#45;53522ff2cb43&#45;&gt;f7c9fb50&#45;d727&#45;44db&#45;b209&#45;490194066738</title>
<path fill="none" stroke="black" d="M43.5,-215.697C43.5,-207.983 43.5,-198.712 43.5,-190.112"/>
<polygon fill="none" stroke="black" points="47.0001,-190.104 43.5,-180.104 40.0001,-190.104 47.0001,-190.104"/>
</g>
<!-- 494a873c&#45;33c6&#45;475d&#45;83e1&#45;32e630b8fb9b -->
<g id="node3" class="node"><title>494a873c&#45;33c6&#45;475d&#45;83e1&#45;32e630b8fb9b</title>
<polygon fill="cornsilk" stroke="black" points="71.4847,-108 26.9673,-108 15.5153,-72 60.0327,-72 71.4847,-108"/>
<text text-anchor="middle" x="43.5" y="-86.3" font-family="Helvetica,sans-Serif" font-size="14.00">b</text>
</g>
<!-- 673b2c23&#45;7539&#45;40a4&#45;9064&#45;d3910eaf047a -->
<g id="node4" class="node"><title>673b2c23&#45;7539&#45;40a4&#45;9064&#45;d3910eaf047a</title>
<ellipse fill="cornsilk" stroke="black" cx="43.5" cy="-18" rx="27.0966" ry="18"/>
<text text-anchor="middle" x="43.5" y="-14.3" font-family="Helvetica,sans-Serif" font-size="14.00">end</text>
</g>
<!-- 494a873c&#45;33c6&#45;475d&#45;83e1&#45;32e630b8fb9b&#45;&gt;673b2c23&#45;7539&#45;40a4&#45;9064&#45;d3910eaf047a -->
<g id="edge2" class="edge"><title>494a873c&#45;33c6&#45;475d&#45;83e1&#45;32e630b8fb9b&#45;&gt;673b2c23&#45;7539&#45;40a4&#45;9064&#45;d3910eaf047a</title>
<path fill="none" stroke="black" d="M43.5,-71.6966C43.5,-63.9827 43.5,-54.7125 43.5,-46.1124"/>
<polygon fill="none" stroke="black" points="47.0001,-46.1043 43.5,-36.1043 40.0001,-46.1044 47.0001,-46.1043"/>
</g>
<!-- f7c9fb50&#45;d727&#45;44db&#45;b209&#45;490194066738&#45;&gt;494a873c&#45;33c6&#45;475d&#45;83e1&#45;32e630b8fb9b -->
<g id="edge3" class="edge"><title>f7c9fb50&#45;d727&#45;44db&#45;b209&#45;490194066738&#45;&gt;494a873c&#45;33c6&#45;475d&#45;83e1&#45;32e630b8fb9b</title>
<path fill="none" stroke="black" d="M43.5,-143.697C43.5,-135.983 43.5,-126.712 43.5,-118.112"/>
<polygon fill="none" stroke="black" points="47.0001,-118.104 43.5,-108.104 40.0001,-118.104 47.0001,-118.104"/>
</g>
</g>
</svg>
