<?xml version="1.0" encoding="UTF-8" standalone="no"?>
<!DOCTYPE svg PUBLIC "-//W3C//DTD SVG 1.1//EN"
 "http://www.w3.org/Graphics/SVG/1.1/DTD/svg11.dtd">
<!-- Generated by graphviz version 2.43.0 (0)
 -->
<!-- Title: %3 Pages: 1 -->
<svg width="251pt" height="476pt"
 viewBox="0.00 0.00 250.69 476.00" xmlns="http://www.w3.org/2000/svg" xmlns:xlink="http://www.w3.org/1999/xlink">
<g id="graph0" class="graph" transform="scale(1 1) rotate(0) translate(4 472)">
<title>%3</title>
<polygon fill="white" stroke="transparent" points="-4,4 -4,-472 246.69,-472 246.69,4 -4,4"/>
<!-- eb75ba80&#45;dc42&#45;45dc&#45;bf70&#45;e6f9345bd9c0 -->
<g id="node1" class="node">
<title>eb75ba80&#45;dc42&#45;45dc&#45;bf70&#45;e6f9345bd9c0</title>
<polygon fill="cornsilk" stroke="black" points="182.19,-108 129.19,-108 129.19,-72 188.19,-72 188.19,-102 182.19,-108"/>
<polyline fill="none" stroke="black" points="182.19,-108 182.19,-102 "/>
<polyline fill="none" stroke="black" points="188.19,-102 182.19,-102 "/>
<text text-anchor="middle" x="158.69" y="-86.3" font-family="Helvetica,sans-Serif" font-size="14.00">report</text>
</g>
<!-- cb02b338&#45;0865&#45;43da&#45;b786&#45;89d86e71d3ea -->
<g id="node2" class="node">
<title>cb02b338&#45;0865&#45;43da&#45;b786&#45;89d86e71d3ea</title>
<ellipse fill="cornsilk" stroke="black" cx="158.69" cy="-18" rx="27.9" ry="18"/>
<text text-anchor="middle" x="158.69" y="-14.3" font-family="Helvetica,sans-Serif" font-size="14.00">end</text>
</g>
<!-- eb75ba80&#45;dc42&#45;45dc&#45;bf70&#45;e6f9345bd9c0&#45;&gt;cb02b338&#45;0865&#45;43da&#45;b786&#45;89d86e71d3ea -->
<g id="edge1" class="edge">
<title>eb75ba80&#45;dc42&#45;45dc&#45;bf70&#45;e6f9345bd9c0&#45;&gt;cb02b338&#45;0865&#45;43da&#45;b786&#45;89d86e71d3ea</title>
<path fill="none" stroke="black" d="M158.69,-71.7C158.69,-63.98 158.69,-54.71 158.69,-46.11"/>
<polygon fill="none" stroke="black" points="162.19,-46.1 158.69,-36.1 155.19,-46.1 162.19,-46.1"/>
</g>
<!-- 2cad57e8&#45;6391&#45;4295&#45;a5ae&#45;b15c0ca9c6f9 -->
<g id="node3" class="node">
<title>2cad57e8&#45;6391&#45;4295&#45;a5ae&#45;b15c0ca9c6f9</title>
<polygon fill="cornsilk" stroke="black" points="231.56,-383.56 115.69,-396 -0.19,-383.56 -0.08,-363.44 231.45,-363.44 231.56,-383.56"/>
<text text-anchor="middle" x="115.69" y="-374.3" font-family="Helvetica,sans-Serif" font-size="14.00">enter data records</text>
</g>
<!-- 92b8d11c&#45;1f6b&#45;433a&#45;ab5e&#45;f5bdeeb2897e -->
<g id="node4" class="node">
<title>92b8d11c&#45;1f6b&#45;433a&#45;ab5e&#45;f5bdeeb2897e</title>
<polygon fill="cornsilk" stroke="black" points="213.99,-324 57.61,-324 17.38,-288 173.76,-288 213.99,-324"/>
<text text-anchor="middle" x="115.69" y="-302.3" font-family="Helvetica,sans-Serif" font-size="14.00">data records</text>
</g>
<!-- 2cad57e8&#45;6391&#45;4295&#45;a5ae&#45;b15c0ca9c6f9&#45;&gt;92b8d11c&#45;1f6b&#45;433a&#45;ab5e&#45;f5bdeeb2897e -->
<g id="edge2" class="edge">
<title>2cad57e8&#45;6391&#45;4295&#45;a5ae&#45;b15c0ca9c6f9&#45;&gt;92b8d11c&#45;1f6b&#45;433a&#45;ab5e&#45;f5bdeeb2897e</title>
<path fill="none" stroke="black" d="M115.69,-363.17C115.69,-354.92 115.69,-344.15 115.69,-334.26"/>
<polygon fill="none" stroke="black" points="119.19,-334.02 115.69,-324.02 112.19,-334.02 119.19,-334.02"/>
</g>
<!-- 2a3c3a82&#45;2899&#45;4874&#45;82f7&#45;2686d2b86fc4 -->
<g id="node5" class="node">
<title>2a3c3a82&#45;2899&#45;4874&#45;82f7&#45;2686d2b86fc4</title>
<polygon fill="cornsilk" stroke="black" points="142.69,-252 88.69,-252 88.69,-216 142.69,-216 142.69,-252"/>
<text text-anchor="middle" x="115.69" y="-230.3" font-family="Helvetica,sans-Serif" font-size="14.00">sort</text>
</g>
<!-- 92b8d11c&#45;1f6b&#45;433a&#45;ab5e&#45;f5bdeeb2897e&#45;&gt;2a3c3a82&#45;2899&#45;4874&#45;82f7&#45;2686d2b86fc4 -->
<g id="edge7" class="edge">
<title>92b8d11c&#45;1f6b&#45;433a&#45;ab5e&#45;f5bdeeb2897e&#45;&gt;2a3c3a82&#45;2899&#45;4874&#45;82f7&#45;2686d2b86fc4</title>
<path fill="none" stroke="black" d="M115.69,-287.7C115.69,-279.98 115.69,-270.71 115.69,-262.11"/>
<polygon fill="none" stroke="black" points="119.19,-262.1 115.69,-252.1 112.19,-262.1 119.19,-262.1"/>
</g>
<!-- 2e74fbf4&#45;8dac&#45;43a5&#45;825f&#45;35dd9718714e -->
<g id="node6" class="node">
<title>2e74fbf4&#45;8dac&#45;43a5&#45;825f&#45;35dd9718714e</title>
<polygon fill="cornsilk" stroke="black" points="142.69,-180 88.69,-180 88.69,-144 142.69,-144 142.69,-180"/>
<text text-anchor="middle" x="115.69" y="-158.3" font-family="Helvetica,sans-Serif" font-size="14.00">print</text>
</g>
<!-- 2a3c3a82&#45;2899&#45;4874&#45;82f7&#45;2686d2b86fc4&#45;&gt;2e74fbf4&#45;8dac&#45;43a5&#45;825f&#45;35dd9718714e -->
<g id="edge3" class="edge">
<title>2a3c3a82&#45;2899&#45;4874&#45;82f7&#45;2686d2b86fc4&#45;&gt;2e74fbf4&#45;8dac&#45;43a5&#45;825f&#45;35dd9718714e</title>
<path fill="none" stroke="black" d="M115.69,-215.7C115.69,-207.98 115.69,-198.71 115.69,-190.11"/>
<polygon fill="none" stroke="black" points="119.19,-190.1 115.69,-180.1 112.19,-190.1 119.19,-190.1"/>
</g>
<!-- 2e74fbf4&#45;8dac&#45;43a5&#45;825f&#45;35dd9718714e&#45;&gt;eb75ba80&#45;dc42&#45;45dc&#45;bf70&#45;e6f9345bd9c0 -->
<g id="edge6" class="edge">
<title>2e74fbf4&#45;8dac&#45;43a5&#45;825f&#45;35dd9718714e&#45;&gt;eb75ba80&#45;dc42&#45;45dc&#45;bf70&#45;e6f9345bd9c0</title>
<path fill="none" stroke="black" d="M126.31,-143.7C131.31,-135.56 137.38,-125.69 142.9,-116.7"/>
<polygon fill="none" stroke="black" points="145.93,-118.46 148.18,-108.1 139.96,-114.79 145.93,-118.46"/>
</g>
<!-- ebbb10e1&#45;b284&#45;4735&#45;8778&#45;9949886948c7 -->
<g id="node7" class="node">
<title>ebbb10e1&#45;b284&#45;4735&#45;8778&#45;9949886948c7</title>
<polygon fill="cornsilk" stroke="transparent" points="242.69,-169.5 160.69,-169.5 160.69,-154.5 242.69,-154.5 242.69,-169.5"/>
<text text-anchor="middle" x="201.69" y="-158.3" font-family="Helvetica,sans-Serif" font-size="14.00">confidential</text>
</g>
<!-- ebbb10e1&#45;b284&#45;4735&#45;8778&#45;9949886948c7&#45;&gt;eb75ba80&#45;dc42&#45;45dc&#45;bf70&#45;e6f9345bd9c0 -->
<g id="edge4" class="edge">
<title>ebbb10e1&#45;b284&#45;4735&#45;8778&#45;9949886948c7&#45;&gt;eb75ba80&#45;dc42&#45;45dc&#45;bf70&#45;e6f9345bd9c0</title>
<path fill="none" stroke="black" d="M197.56,-154.29C192.3,-145.72 182.9,-130.41 174.65,-117"/>
<polygon fill="none" stroke="black" points="177.42,-114.8 169.2,-108.12 171.45,-118.47 177.42,-114.8"/>
</g>
<!-- c6c4b4b9&#45;a592&#45;49f7&#45;a5a2&#45;8883460534a3 -->
<g id="node8" class="node">
<title>c6c4b4b9&#45;a592&#45;49f7&#45;a5a2&#45;8883460534a3</title>
<ellipse fill="cornsilk" stroke="black" cx="115.69" cy="-450" rx="31.7" ry="18"/>
<text text-anchor="middle" x="115.69" y="-446.3" font-family="Helvetica,sans-Serif" font-size="14.00">start</text>
</g>
<!-- c6c4b4b9&#45;a592&#45;49f7&#45;a5a2&#45;8883460534a3&#45;&gt;2cad57e8&#45;6391&#45;4295&#45;a5ae&#45;b15c0ca9c6f9 -->
<g id="edge5" class="edge">
<title>c6c4b4b9&#45;a592&#45;49f7&#45;a5a2&#45;8883460534a3&#45;&gt;2cad57e8&#45;6391&#45;4295&#45;a5ae&#45;b15c0ca9c6f9</title>
<path fill="none" stroke="black" d="M115.69,-431.7C115.69,-423.98 115.69,-414.71 115.69,-406.11"/>
<polygon fill="none" stroke="black" points="119.19,-406.1 115.69,-396.1 112.19,-406.1 119.19,-406.1"/>
</g>
</g>
</svg>
