<?xml version="1.0" encoding="UTF-8" standalone="no"?>
<!DOCTYPE svg PUBLIC "-//W3C//DTD SVG 1.1//EN"
 "http://www.w3.org/Graphics/SVG/1.1/DTD/svg11.dtd">
<!-- Generated by graphviz version 2.38.0 (20140413.2041)
 -->
<!-- Title: %3 Pages: 1 -->
<svg width="95pt" height="332pt"
 viewBox="0.00 0.00 95.00 332.00" xmlns="http://www.w3.org/2000/svg" xmlns:xlink="http://www.w3.org/1999/xlink">
<g id="graph0" class="graph" transform="scale(1 1) rotate(0) translate(4 328)">
<title>%3</title>
<polygon fill="white" stroke="none" points="-4,4 -4,-328 91,-328 91,4 -4,4"/>
<!-- 2e094369&#45;b6c1&#45;4a3f&#45;8185&#45;2578bb8a4755 -->
<g id="node1" class="node"><title>2e094369&#45;b6c1&#45;4a3f&#45;8185&#45;2578bb8a4755</title>
<ellipse fill="cornsilk" stroke="black" cx="43.5" cy="-306" rx="32.4942" ry="18"/>
<text text-anchor="middle" x="43.5" y="-302.3" font-family="Helvetica,sans-Serif" font-size="14.00">start</text>
</g>
<!-- e21cb3e1&#45;7dbd&#45;4700&#45;9056&#45;89367f69732e -->
<g id="node2" class="node"><title>e21cb3e1&#45;7dbd&#45;4700&#45;9056&#45;89367f69732e</title>
<polygon fill="cornsilk" stroke="black" points="71.4847,-252 26.9673,-252 15.5153,-216 60.0327,-216 71.4847,-252"/>
<text text-anchor="middle" x="43.5" y="-230.3" font-family="Helvetica,sans-Serif" font-size="14.00">a</text>
</g>
<!-- 2e094369&#45;b6c1&#45;4a3f&#45;8185&#45;2578bb8a4755&#45;&gt;e21cb3e1&#45;7dbd&#45;4700&#45;9056&#45;89367f69732e -->
<g id="edge1" class="edge"><title>2e094369&#45;b6c1&#45;4a3f&#45;8185&#45;2578bb8a4755&#45;&gt;e21cb3e1&#45;7dbd&#45;4700&#45;9056&#45;89367f69732e</title>
<path fill="none" stroke="black" d="M43.5,-287.697C43.5,-279.983 43.5,-270.712 43.5,-262.112"/>
<polygon fill="none" stroke="black" points="47.0001,-262.104 43.5,-252.104 40.0001,-262.104 47.0001,-262.104"/>
</g>
<!-- 19828439&#45;8643&#45;4f44&#45;9401&#45;e760d5e5ba94 -->
<g id="node5" class="node"><title>19828439&#45;8643&#45;4f44&#45;9401&#45;e760d5e5ba94</title>
<polygon fill="cornsilk" stroke="black" points="87,-180 0,-180 0,-144 87,-144 87,-180"/>
<text text-anchor="middle" x="43.5" y="-158.3" font-family="Helvetica,sans-Serif" font-size="14.00">cat &lt;a &gt;b</text>
</g>
<!-- e21cb3e1&#45;7dbd&#45;4700&#45;9056&#45;89367f69732e&#45;&gt;19828439&#45;8643&#45;4f44&#45;9401&#45;e760d5e5ba94 -->
<g id="edge4" class="edge"><title>e21cb3e1&#45;7dbd&#45;4700&#45;9056&#45;89367f69732e&#45;&gt;19828439&#45;8643&#45;4f44&#45;9401&#45;e760d5e5ba94</title>
<path fill="none" stroke="black" d="M43.5,-215.697C43.5,-207.983 43.5,-198.712 43.5,-190.112"/>
<polygon fill="none" stroke="black" points="47.0001,-190.104 43.5,-180.104 40.0001,-190.104 47.0001,-190.104"/>
</g>
<!-- c06d02cb&#45;9967&#45;4e57&#45;84a3&#45;eead5eb19e04 -->
<g id="node3" class="node"><title>c06d02cb&#45;9967&#45;4e57&#45;84a3&#45;eead5eb19e04</title>
<polygon fill="cornsilk" stroke="black" points="71.4847,-108 26.9673,-108 15.5153,-72 60.0327,-72 71.4847,-108"/>
<text text-anchor="middle" x="43.5" y="-86.3" font-family="Helvetica,sans-Serif" font-size="14.00">b</text>
</g>
<!-- 7b1542ff&#45;c3c4&#45;48ae&#45;9a5e&#45;6193b33be4b8 -->
<g id="node4" class="node"><title>7b1542ff&#45;c3c4&#45;48ae&#45;9a5e&#45;6193b33be4b8</title>
<ellipse fill="cornsilk" stroke="black" cx="43.5" cy="-18" rx="27.0966" ry="18"/>
<text text-anchor="middle" x="43.5" y="-14.3" font-family="Helvetica,sans-Serif" font-size="14.00">end</text>
</g>
<!-- c06d02cb&#45;9967&#45;4e57&#45;84a3&#45;eead5eb19e04&#45;&gt;7b1542ff&#45;c3c4&#45;48ae&#45;9a5e&#45;6193b33be4b8 -->
<g id="edge2" class="edge"><title>c06d02cb&#45;9967&#45;4e57&#45;84a3&#45;eead5eb19e04&#45;&gt;7b1542ff&#45;c3c4&#45;48ae&#45;9a5e&#45;6193b33be4b8</title>
<path fill="none" stroke="black" d="M43.5,-71.6966C43.5,-63.9827 43.5,-54.7125 43.5,-46.1124"/>
<polygon fill="none" stroke="black" points="47.0001,-46.1043 43.5,-36.1043 40.0001,-46.1044 47.0001,-46.1043"/>
</g>
<!-- 19828439&#45;8643&#45;4f44&#45;9401&#45;e760d5e5ba94&#45;&gt;c06d02cb&#45;9967&#45;4e57&#45;84a3&#45;eead5eb19e04 -->
<g id="edge3" class="edge"><title>19828439&#45;8643&#45;4f44&#45;9401&#45;e760d5e5ba94&#45;&gt;c06d02cb&#45;9967&#45;4e57&#45;84a3&#45;eead5eb19e04</title>
<path fill="none" stroke="black" d="M43.5,-143.697C43.5,-135.983 43.5,-126.712 43.5,-118.112"/>
<polygon fill="none" stroke="black" points="47.0001,-118.104 43.5,-108.104 40.0001,-118.104 47.0001,-118.104"/>
</g>
</g>
</svg>
