<?xml version="1.0" encoding="UTF-8" standalone="no"?>
<!DOCTYPE svg PUBLIC "-//W3C//DTD SVG 1.1//EN"
 "http://www.w3.org/Graphics/SVG/1.1/DTD/svg11.dtd">
<!-- Generated by graphviz version 2.38.0 (20140413.2041)
 -->
<!-- Title: %3 Pages: 1 -->
<svg width="74pt" height="116pt"
 viewBox="0.00 0.00 73.68 116.00" xmlns="http://www.w3.org/2000/svg" xmlns:xlink="http://www.w3.org/1999/xlink">
<g id="graph0" class="graph" transform="scale(1 1) rotate(0) translate(4 112)">
<title>%3</title>
<polygon fill="white" stroke="none" points="-4,4 -4,-112 69.6798,-112 69.6798,4 -4,4"/>
<!-- 5c064eb3&#45;027c&#45;4d04&#45;8b09&#45;660c9396d545 -->
<g id="node1" class="node"><title>5c064eb3&#45;027c&#45;4d04&#45;8b09&#45;660c9396d545</title>
<ellipse fill="cornsilk" stroke="black" cx="31.8399" cy="-90" rx="27" ry="18"/>
<text text-anchor="middle" x="31.8399" y="-86.3" font-family="Helvetica,sans-Serif" font-size="14.00">a</text>
</g>
<!-- a604647e&#45;8c80&#45;4389&#45;be22&#45;d17f72620898 -->
<g id="node2" class="node"><title>a604647e&#45;8c80&#45;4389&#45;be22&#45;d17f72620898</title>
<ellipse fill="cornsilk" stroke="black" cx="31.8399" cy="-18" rx="27" ry="18"/>
<text text-anchor="middle" x="31.8399" y="-14.3" font-family="Helvetica,sans-Serif" font-size="14.00">b</text>
</g>
<!-- 5c064eb3&#45;027c&#45;4d04&#45;8b09&#45;660c9396d545&#45;&gt;a604647e&#45;8c80&#45;4389&#45;be22&#45;d17f72620898 -->
<g id="edge1" class="edge"><title>5c064eb3&#45;027c&#45;4d04&#45;8b09&#45;660c9396d545&#45;&gt;a604647e&#45;8c80&#45;4389&#45;be22&#45;d17f72620898</title>
<path fill="none" stroke="black" d="M26,-72.411C25.1374,-64.507 24.888,-54.8518 25.2518,-45.9352"/>
<polygon fill="none" stroke="black" points="28.7432,-46.1791 25.9605,-35.9562 21.7608,-45.6831 28.7432,-46.1791"/>
<text text-anchor="middle" x="13" y="-61.211" font-family="Helvetica,sans-Serif" font-size="14.00">one</text>
</g>
<!-- 5c064eb3&#45;027c&#45;4d04&#45;8b09&#45;660c9396d545&#45;&gt;a604647e&#45;8c80&#45;4389&#45;be22&#45;d17f72620898 -->
<g id="edge2" class="edge"><title>5c064eb3&#45;027c&#45;4d04&#45;8b09&#45;660c9396d545&#45;&gt;a604647e&#45;8c80&#45;4389&#45;be22&#45;d17f72620898</title>
<path fill="none" stroke="black" d="M37.6798,-72.411C38.5424,-64.507 38.7918,-54.8518 38.4281,-45.9352"/>
<polygon fill="none" stroke="black" points="41.9191,-45.6831 37.7193,-35.9562 34.9367,-46.1791 41.9191,-45.6831"/>
<text text-anchor="middle" x="51.6798" y="-61.211" font-family="Helvetica,sans-Serif" font-size="14.00">two</text>
</g>
</g>
</svg>
