<?xml version="1.0" encoding="UTF-8" standalone="no"?>
<!DOCTYPE svg PUBLIC "-//W3C//DTD SVG 1.1//EN"
 "http://www.w3.org/Graphics/SVG/1.1/DTD/svg11.dtd">
<!-- Generated by graphviz version 2.43.0 (0)
 -->
<!-- Title: %3 Pages: 1 -->
<svg width="71pt" height="116pt"
 viewBox="0.00 0.00 70.68 116.00" xmlns="http://www.w3.org/2000/svg" xmlns:xlink="http://www.w3.org/1999/xlink">
<g id="graph0" class="graph" transform="scale(1 1) rotate(0) translate(4 112)">
<title>%3</title>
<polygon fill="white" stroke="transparent" points="-4,4 -4,-112 66.68,-112 66.68,4 -4,4"/>
<!-- 980486fd&#45;c9a4&#45;4d2d&#45;8e2b&#45;b669c8cb4f76 -->
<g id="node1" class="node">
<title>980486fd&#45;c9a4&#45;4d2d&#45;8e2b&#45;b669c8cb4f76</title>
<ellipse fill="cornsilk" stroke="black" cx="31.84" cy="-90" rx="27" ry="18"/>
<text text-anchor="middle" x="31.84" y="-86.3" font-family="Helvetica,sans-Serif" font-size="14.00">a</text>
</g>
<!-- d65e1587&#45;eee7&#45;4cba&#45;91c4&#45;80584a123bc5 -->
<g id="node2" class="node">
<title>d65e1587&#45;eee7&#45;4cba&#45;91c4&#45;80584a123bc5</title>
<ellipse fill="cornsilk" stroke="black" cx="31.84" cy="-18" rx="27" ry="18"/>
<text text-anchor="middle" x="31.84" y="-14.3" font-family="Helvetica,sans-Serif" font-size="14.00">b</text>
</g>
<!-- 980486fd&#45;c9a4&#45;4d2d&#45;8e2b&#45;b669c8cb4f76&#45;&gt;d65e1587&#45;eee7&#45;4cba&#45;91c4&#45;80584a123bc5 -->
<g id="edge1" class="edge">
<title>980486fd&#45;c9a4&#45;4d2d&#45;8e2b&#45;b669c8cb4f76&#45;&gt;d65e1587&#45;eee7&#45;4cba&#45;91c4&#45;80584a123bc5</title>
<path fill="none" stroke="black" d="M26,-72.41C25.14,-64.51 24.89,-54.85 25.25,-45.94"/>
<polygon fill="none" stroke="black" points="28.74,-46.18 25.96,-35.96 21.76,-45.68 28.74,-46.18"/>
<text text-anchor="middle" x="13" y="-61.21" font-family="Helvetica,sans-Serif" font-size="14.00">one</text>
</g>
<!-- 980486fd&#45;c9a4&#45;4d2d&#45;8e2b&#45;b669c8cb4f76&#45;&gt;d65e1587&#45;eee7&#45;4cba&#45;91c4&#45;80584a123bc5 -->
<g id="edge2" class="edge">
<title>980486fd&#45;c9a4&#45;4d2d&#45;8e2b&#45;b669c8cb4f76&#45;&gt;d65e1587&#45;eee7&#45;4cba&#45;91c4&#45;80584a123bc5</title>
<path fill="none" stroke="black" d="M37.68,-72.41C38.54,-64.51 38.79,-54.85 38.43,-45.94"/>
<polygon fill="none" stroke="black" points="41.92,-45.68 37.72,-35.96 34.94,-46.18 41.92,-45.68"/>
<text text-anchor="middle" x="50.18" y="-61.21" font-family="Helvetica,sans-Serif" font-size="14.00">two</text>
</g>
</g>
</svg>
