<?xml version="1.0" encoding="UTF-8" standalone="no"?>
<!DOCTYPE svg PUBLIC "-//W3C//DTD SVG 1.1//EN"
 "http://www.w3.org/Graphics/SVG/1.1/DTD/svg11.dtd">
<!-- Generated by graphviz version 2.38.0 (20140413.2041)
 -->
<!-- Title: %3 Pages: 1 -->
<svg width="263pt" height="836pt"
 viewBox="0.00 0.00 263.05 836.00" xmlns="http://www.w3.org/2000/svg" xmlns:xlink="http://www.w3.org/1999/xlink">
<g id="graph0" class="graph" transform="scale(1 1) rotate(0) translate(4 832)">
<title>%3</title>
<polygon fill="white" stroke="none" points="-4,4 -4,-832 259.046,-832 259.046,4 -4,4"/>
<!-- 022f1a30&#45;bab8&#45;478e&#45;8396&#45;ca1824e777c7 -->
<g id="node1" class="node"><title>022f1a30&#45;bab8&#45;478e&#45;8396&#45;ca1824e777c7</title>
<polygon fill="cornsilk" stroke="black" points="163.344,-468 84.3437,-468 84.3437,-432 169.344,-432 169.344,-462 163.344,-468"/>
<polyline fill="none" stroke="black" points="163.344,-468 163.344,-462 "/>
<polyline fill="none" stroke="black" points="169.344,-462 163.344,-462 "/>
<text text-anchor="middle" x="126.844" y="-446.3" font-family="Helvetica,sans-Serif" font-size="14.00">document</text>
</g>
<!-- 8a03700c&#45;df97&#45;49e8&#45;a2dd&#45;7f85a727e848 -->
<g id="node2" class="node"><title>8a03700c&#45;df97&#45;49e8&#45;a2dd&#45;7f85a727e848</title>
<polygon fill="cornsilk" stroke="black" points="160.844,-396 92.8437,-396 92.8437,-360 160.844,-360 160.844,-396"/>
<text text-anchor="middle" x="126.844" y="-374.3" font-family="Helvetica,sans-Serif" font-size="14.00">storage</text>
</g>
<!-- 022f1a30&#45;bab8&#45;478e&#45;8396&#45;ca1824e777c7&#45;&gt;8a03700c&#45;df97&#45;49e8&#45;a2dd&#45;7f85a727e848 -->
<g id="edge1" class="edge"><title>022f1a30&#45;bab8&#45;478e&#45;8396&#45;ca1824e777c7&#45;&gt;8a03700c&#45;df97&#45;49e8&#45;a2dd&#45;7f85a727e848</title>
<path fill="none" stroke="black" d="M126.844,-431.697C126.844,-423.983 126.844,-414.712 126.844,-406.112"/>
<polygon fill="none" stroke="black" points="130.344,-406.104 126.844,-396.104 123.344,-406.104 130.344,-406.104"/>
</g>
<!-- 48dc7e70&#45;7c92&#45;442c&#45;a973&#45;bfeb5f353782 -->
<g id="node6" class="node"><title>48dc7e70&#45;7c92&#45;442c&#45;a973&#45;bfeb5f353782</title>
<polygon fill="cornsilk" stroke="black" points="166.844,-324 86.8437,-324 86.8437,-288 166.844,-288 166.844,-324"/>
<text text-anchor="middle" x="126.844" y="-302.3" font-family="Helvetica,sans-Serif" font-size="14.00">comment</text>
</g>
<!-- 8a03700c&#45;df97&#45;49e8&#45;a2dd&#45;7f85a727e848&#45;&gt;48dc7e70&#45;7c92&#45;442c&#45;a973&#45;bfeb5f353782 -->
<g id="edge9" class="edge"><title>8a03700c&#45;df97&#45;49e8&#45;a2dd&#45;7f85a727e848&#45;&gt;48dc7e70&#45;7c92&#45;442c&#45;a973&#45;bfeb5f353782</title>
<path fill="none" stroke="black" d="M126.844,-359.697C126.844,-351.983 126.844,-342.712 126.844,-334.112"/>
<polygon fill="none" stroke="black" points="130.344,-334.104 126.844,-324.104 123.344,-334.104 130.344,-334.104"/>
</g>
<!-- 8070af89&#45;52a0&#45;4db5&#45;bf17&#45;4059208862c3 -->
<g id="node3" class="node"><title>8070af89&#45;52a0&#45;4db5&#45;bf17&#45;4059208862c3</title>
<polygon fill="cornsilk" stroke="black" points="158.238,-684 108.297,-684 95.4496,-648 145.391,-648 158.238,-684"/>
<text text-anchor="middle" x="126.844" y="-662.3" font-family="Helvetica,sans-Serif" font-size="14.00">i/o</text>
</g>
<!-- 375ea8f7&#45;dced&#45;420d&#45;93fc&#45;6a1bcc035688 -->
<g id="node4" class="node"><title>375ea8f7&#45;dced&#45;420d&#45;93fc&#45;6a1bcc035688</title>
<polygon fill="cornsilk" stroke="black" points="126.844,-612 61.8225,-594 126.844,-576 191.865,-594 126.844,-612"/>
<text text-anchor="middle" x="126.844" y="-590.3" font-family="Helvetica,sans-Serif" font-size="14.00">decision</text>
</g>
<!-- 8070af89&#45;52a0&#45;4db5&#45;bf17&#45;4059208862c3&#45;&gt;375ea8f7&#45;dced&#45;420d&#45;93fc&#45;6a1bcc035688 -->
<g id="edge2" class="edge"><title>8070af89&#45;52a0&#45;4db5&#45;bf17&#45;4059208862c3&#45;&gt;375ea8f7&#45;dced&#45;420d&#45;93fc&#45;6a1bcc035688</title>
<path fill="none" stroke="black" d="M126.844,-647.697C126.844,-639.983 126.844,-630.712 126.844,-622.112"/>
<polygon fill="none" stroke="black" points="130.344,-622.104 126.844,-612.104 123.344,-622.104 130.344,-622.104"/>
</g>
<!-- c4ebaa1c&#45;4c03&#45;4d36&#45;af92&#45;c94d12b78af9 -->
<g id="node5" class="node"><title>c4ebaa1c&#45;4c03&#45;4d36&#45;af92&#45;c94d12b78af9</title>
<polygon fill="cornsilk" stroke="black" points="171.344,-540 86.3437,-540 82.3437,-536 82.3437,-504 167.344,-504 171.344,-508 171.344,-540"/>
<polyline fill="none" stroke="black" points="167.344,-536 82.3437,-536 "/>
<polyline fill="none" stroke="black" points="167.344,-536 167.344,-504 "/>
<polyline fill="none" stroke="black" points="167.344,-536 171.344,-540 "/>
<text text-anchor="middle" x="126.844" y="-518.3" font-family="Helvetica,sans-Serif" font-size="14.00">predefined</text>
</g>
<!-- 375ea8f7&#45;dced&#45;420d&#45;93fc&#45;6a1bcc035688&#45;&gt;c4ebaa1c&#45;4c03&#45;4d36&#45;af92&#45;c94d12b78af9 -->
<g id="edge6" class="edge"><title>375ea8f7&#45;dced&#45;420d&#45;93fc&#45;6a1bcc035688&#45;&gt;c4ebaa1c&#45;4c03&#45;4d36&#45;af92&#45;c94d12b78af9</title>
<path fill="none" stroke="black" d="M126.844,-575.697C126.844,-567.983 126.844,-558.712 126.844,-550.112"/>
<polygon fill="none" stroke="black" points="130.344,-550.104 126.844,-540.104 123.344,-550.104 130.344,-550.104"/>
</g>
<!-- c4ebaa1c&#45;4c03&#45;4d36&#45;af92&#45;c94d12b78af9&#45;&gt;022f1a30&#45;bab8&#45;478e&#45;8396&#45;ca1824e777c7 -->
<g id="edge3" class="edge"><title>c4ebaa1c&#45;4c03&#45;4d36&#45;af92&#45;c94d12b78af9&#45;&gt;022f1a30&#45;bab8&#45;478e&#45;8396&#45;ca1824e777c7</title>
<path fill="none" stroke="black" d="M126.844,-503.697C126.844,-495.983 126.844,-486.712 126.844,-478.112"/>
<polygon fill="none" stroke="black" points="130.344,-478.104 126.844,-468.104 123.344,-478.104 130.344,-478.104"/>
</g>
<!-- e63ad7c7&#45;1a2e&#45;406e&#45;a0a8&#45;47bd16e4f750 -->
<g id="node7" class="node"><title>e63ad7c7&#45;1a2e&#45;406e&#45;a0a8&#45;47bd16e4f750</title>
<polygon fill="cornsilk" stroke="black" points="213.373,-239.562 126.844,-252 40.3145,-239.562 40.3953,-219.438 213.292,-219.438 213.373,-239.562"/>
<text text-anchor="middle" x="126.844" y="-230.3" font-family="Helvetica,sans-Serif" font-size="14.00">manual input</text>
</g>
<!-- 48dc7e70&#45;7c92&#45;442c&#45;a973&#45;bfeb5f353782&#45;&gt;e63ad7c7&#45;1a2e&#45;406e&#45;a0a8&#45;47bd16e4f750 -->
<g id="edge4" class="edge"><title>48dc7e70&#45;7c92&#45;442c&#45;a973&#45;bfeb5f353782&#45;&gt;e63ad7c7&#45;1a2e&#45;406e&#45;a0a8&#45;47bd16e4f750</title>
<path fill="none" stroke="black" d="M126.844,-287.697C126.844,-279.983 126.844,-270.712 126.844,-262.112"/>
<polygon fill="none" stroke="black" points="130.344,-262.104 126.844,-252.104 123.344,-262.104 130.344,-262.104"/>
</g>
<!-- e5970bf9&#45;0738&#45;4d43&#45;ac0b&#45;b586382c1138 -->
<g id="node12" class="node"><title>e5970bf9&#45;0738&#45;4d43&#45;ac0b&#45;b586382c1138</title>
<polygon fill="cornsilk" stroke="black" points="52.856,-144 200.831,-144 253.531,-180 0.156106,-180 52.856,-144"/>
<text text-anchor="middle" x="126.844" y="-158.3" font-family="Helvetica,sans-Serif" font-size="14.00">manual operation</text>
</g>
<!-- e63ad7c7&#45;1a2e&#45;406e&#45;a0a8&#45;47bd16e4f750&#45;&gt;e5970bf9&#45;0738&#45;4d43&#45;ac0b&#45;b586382c1138 -->
<g id="edge11" class="edge"><title>e63ad7c7&#45;1a2e&#45;406e&#45;a0a8&#45;47bd16e4f750&#45;&gt;e5970bf9&#45;0738&#45;4d43&#45;ac0b&#45;b586382c1138</title>
<path fill="none" stroke="black" d="M126.844,-219.17C126.844,-210.919 126.844,-200.153 126.844,-190.256"/>
<polygon fill="none" stroke="black" points="130.344,-190.019 126.844,-180.019 123.344,-190.019 130.344,-190.019"/>
</g>
<!-- 1293f6f9&#45;b6f5&#45;436f&#45;bb1d&#45;475c312b6fac -->
<g id="node8" class="node"><title>1293f6f9&#45;b6f5&#45;436f&#45;bb1d&#45;475c312b6fac</title>
<polygon fill="cornsilk" stroke="black" points="171.891,-82.5442 171.891,-97.4558 145.503,-108 108.185,-108 81.7966,-97.4558 81.7966,-82.5442 108.185,-72 145.503,-72 171.891,-82.5442"/>
<text text-anchor="middle" x="126.844" y="-86.3" font-family="Helvetica,sans-Serif" font-size="14.00">display</text>
</g>
<!-- fa697936&#45;d2eb&#45;452c&#45;9887&#45;cb1ceabf05e0 -->
<g id="node9" class="node"><title>fa697936&#45;d2eb&#45;452c&#45;9887&#45;cb1ceabf05e0</title>
<polygon fill="cornsilk" stroke="black" points="178.844,-36 74.8437,-36 74.8437,-0 178.844,-0 178.844,-36"/>
<text text-anchor="middle" x="126.844" y="-14.3" font-family="Helvetica,sans-Serif" font-size="14.00">Vertex Label</text>
</g>
<!-- 1293f6f9&#45;b6f5&#45;436f&#45;bb1d&#45;475c312b6fac&#45;&gt;fa697936&#45;d2eb&#45;452c&#45;9887&#45;cb1ceabf05e0 -->
<g id="edge5" class="edge"><title>1293f6f9&#45;b6f5&#45;436f&#45;bb1d&#45;475c312b6fac&#45;&gt;fa697936&#45;d2eb&#45;452c&#45;9887&#45;cb1ceabf05e0</title>
<path fill="none" stroke="black" d="M126.844,-71.6966C126.844,-63.9827 126.844,-54.7125 126.844,-46.1124"/>
<polygon fill="none" stroke="black" points="130.344,-46.1043 126.844,-36.1043 123.344,-46.1044 130.344,-46.1043"/>
</g>
<!-- fa697936&#45;d2eb&#45;452c&#45;9887&#45;cb1ceabf05e0&#45;&gt;fa697936&#45;d2eb&#45;452c&#45;9887&#45;cb1ceabf05e0 -->
<g id="edge7" class="edge"><title>fa697936&#45;d2eb&#45;452c&#45;9887&#45;cb1ceabf05e0&#45;&gt;fa697936&#45;d2eb&#45;452c&#45;9887&#45;cb1ceabf05e0</title>
<path fill="none" stroke="black" d="M179.046,-30.943C189.435,-29.4862 196.844,-25.1719 196.844,-18 196.844,-13.4055 193.803,-9.98377 188.887,-7.73476"/>
<polygon fill="none" stroke="black" points="189.614,-4.30558 179.046,-5.05701 187.776,-11.06 189.614,-4.30558"/>
<text text-anchor="middle" x="217.046" y="-34.743" font-family="Helvetica,sans-Serif" font-size="14.00">Edge Label</text>
</g>
<!-- b34a6ba4&#45;6350&#45;4487&#45;b091&#45;152f2f2c3823 -->
<g id="node10" class="node"><title>b34a6ba4&#45;6350&#45;4487&#45;b091&#45;152f2f2c3823</title>
<ellipse fill="cornsilk" stroke="black" cx="126.844" cy="-810" rx="48.1917" ry="18"/>
<text text-anchor="middle" x="126.844" y="-806.3" font-family="Helvetica,sans-Serif" font-size="14.00">terminal</text>
</g>
<!-- b0282295&#45;ecf0&#45;435c&#45;a5d5&#45;e5c2d6eb9bd4 -->
<g id="node11" class="node"><title>b0282295&#45;ecf0&#45;435c&#45;a5d5&#45;e5c2d6eb9bd4</title>
<polygon fill="cornsilk" stroke="black" points="160.844,-756 92.8437,-756 92.8437,-720 160.844,-720 160.844,-756"/>
<text text-anchor="middle" x="126.844" y="-734.3" font-family="Helvetica,sans-Serif" font-size="14.00">process</text>
</g>
<!-- b34a6ba4&#45;6350&#45;4487&#45;b091&#45;152f2f2c3823&#45;&gt;b0282295&#45;ecf0&#45;435c&#45;a5d5&#45;e5c2d6eb9bd4 -->
<g id="edge8" class="edge"><title>b34a6ba4&#45;6350&#45;4487&#45;b091&#45;152f2f2c3823&#45;&gt;b0282295&#45;ecf0&#45;435c&#45;a5d5&#45;e5c2d6eb9bd4</title>
<path fill="none" stroke="black" d="M126.844,-791.697C126.844,-783.983 126.844,-774.712 126.844,-766.112"/>
<polygon fill="none" stroke="black" points="130.344,-766.104 126.844,-756.104 123.344,-766.104 130.344,-766.104"/>
</g>
<!-- b0282295&#45;ecf0&#45;435c&#45;a5d5&#45;e5c2d6eb9bd4&#45;&gt;8070af89&#45;52a0&#45;4db5&#45;bf17&#45;4059208862c3 -->
<g id="edge12" class="edge"><title>b0282295&#45;ecf0&#45;435c&#45;a5d5&#45;e5c2d6eb9bd4&#45;&gt;8070af89&#45;52a0&#45;4db5&#45;bf17&#45;4059208862c3</title>
<path fill="none" stroke="black" d="M126.844,-719.697C126.844,-711.983 126.844,-702.712 126.844,-694.112"/>
<polygon fill="none" stroke="black" points="130.344,-694.104 126.844,-684.104 123.344,-694.104 130.344,-694.104"/>
</g>
<!-- e5970bf9&#45;0738&#45;4d43&#45;ac0b&#45;b586382c1138&#45;&gt;1293f6f9&#45;b6f5&#45;436f&#45;bb1d&#45;475c312b6fac -->
<g id="edge10" class="edge"><title>e5970bf9&#45;0738&#45;4d43&#45;ac0b&#45;b586382c1138&#45;&gt;1293f6f9&#45;b6f5&#45;436f&#45;bb1d&#45;475c312b6fac</title>
<path fill="none" stroke="black" d="M126.844,-143.697C126.844,-135.983 126.844,-126.712 126.844,-118.112"/>
<polygon fill="none" stroke="black" points="130.344,-118.104 126.844,-108.104 123.344,-118.104 130.344,-118.104"/>
</g>
</g>
</svg>
