<?xml version="1.0" encoding="UTF-8" standalone="no"?>
<!DOCTYPE svg PUBLIC "-//W3C//DTD SVG 1.1//EN"
 "http://www.w3.org/Graphics/SVG/1.1/DTD/svg11.dtd">
<!-- Generated by graphviz version 2.38.0 (20140413.2041)
 -->
<!-- Title: %3 Pages: 1 -->
<svg width="263pt" height="836pt"
 viewBox="0.00 0.00 263.05 836.00" xmlns="http://www.w3.org/2000/svg" xmlns:xlink="http://www.w3.org/1999/xlink">
<g id="graph0" class="graph" transform="scale(1 1) rotate(0) translate(4 832)">
<title>%3</title>
<polygon fill="white" stroke="none" points="-4,4 -4,-832 259.046,-832 259.046,4 -4,4"/>
<!-- 5910d542&#45;fa26&#45;4dae&#45;b557&#45;b2cfd3a79714 -->
<g id="node1" class="node"><title>5910d542&#45;fa26&#45;4dae&#45;b557&#45;b2cfd3a79714</title>
<polygon fill="cornsilk" stroke="black" points="163.344,-468 84.3437,-468 84.3437,-432 169.344,-432 169.344,-462 163.344,-468"/>
<polyline fill="none" stroke="black" points="163.344,-468 163.344,-462 "/>
<polyline fill="none" stroke="black" points="169.344,-462 163.344,-462 "/>
<text text-anchor="middle" x="126.844" y="-446.3" font-family="Helvetica,sans-Serif" font-size="14.00">document</text>
</g>
<!-- 46818eec&#45;3614&#45;4125&#45;8c04&#45;afad65d1b331 -->
<g id="node2" class="node"><title>46818eec&#45;3614&#45;4125&#45;8c04&#45;afad65d1b331</title>
<polygon fill="cornsilk" stroke="black" points="160.844,-396 92.8437,-396 92.8437,-360 160.844,-360 160.844,-396"/>
<text text-anchor="middle" x="126.844" y="-374.3" font-family="Helvetica,sans-Serif" font-size="14.00">storage</text>
</g>
<!-- 5910d542&#45;fa26&#45;4dae&#45;b557&#45;b2cfd3a79714&#45;&gt;46818eec&#45;3614&#45;4125&#45;8c04&#45;afad65d1b331 -->
<g id="edge1" class="edge"><title>5910d542&#45;fa26&#45;4dae&#45;b557&#45;b2cfd3a79714&#45;&gt;46818eec&#45;3614&#45;4125&#45;8c04&#45;afad65d1b331</title>
<path fill="none" stroke="black" d="M126.844,-431.697C126.844,-423.983 126.844,-414.712 126.844,-406.112"/>
<polygon fill="none" stroke="black" points="130.344,-406.104 126.844,-396.104 123.344,-406.104 130.344,-406.104"/>
</g>
<!-- cefa7137&#45;77af&#45;4f1a&#45;812f&#45;4bcf163b04c4 -->
<g id="node6" class="node"><title>cefa7137&#45;77af&#45;4f1a&#45;812f&#45;4bcf163b04c4</title>
<polygon fill="cornsilk" stroke="black" points="166.844,-324 86.8437,-324 86.8437,-288 166.844,-288 166.844,-324"/>
<text text-anchor="middle" x="126.844" y="-302.3" font-family="Helvetica,sans-Serif" font-size="14.00">comment</text>
</g>
<!-- 46818eec&#45;3614&#45;4125&#45;8c04&#45;afad65d1b331&#45;&gt;cefa7137&#45;77af&#45;4f1a&#45;812f&#45;4bcf163b04c4 -->
<g id="edge9" class="edge"><title>46818eec&#45;3614&#45;4125&#45;8c04&#45;afad65d1b331&#45;&gt;cefa7137&#45;77af&#45;4f1a&#45;812f&#45;4bcf163b04c4</title>
<path fill="none" stroke="black" d="M126.844,-359.697C126.844,-351.983 126.844,-342.712 126.844,-334.112"/>
<polygon fill="none" stroke="black" points="130.344,-334.104 126.844,-324.104 123.344,-334.104 130.344,-334.104"/>
</g>
<!-- b2be3d18&#45;8a77&#45;45cd&#45;8536&#45;222143ffb1e3 -->
<g id="node3" class="node"><title>b2be3d18&#45;8a77&#45;45cd&#45;8536&#45;222143ffb1e3</title>
<polygon fill="cornsilk" stroke="black" points="158.238,-684 108.297,-684 95.4496,-648 145.391,-648 158.238,-684"/>
<text text-anchor="middle" x="126.844" y="-662.3" font-family="Helvetica,sans-Serif" font-size="14.00">i/o</text>
</g>
<!-- dc1fb000&#45;63af&#45;4526&#45;9f3a&#45;d0aca8914c64 -->
<g id="node4" class="node"><title>dc1fb000&#45;63af&#45;4526&#45;9f3a&#45;d0aca8914c64</title>
<polygon fill="cornsilk" stroke="black" points="126.844,-612 61.8225,-594 126.844,-576 191.865,-594 126.844,-612"/>
<text text-anchor="middle" x="126.844" y="-590.3" font-family="Helvetica,sans-Serif" font-size="14.00">decision</text>
</g>
<!-- b2be3d18&#45;8a77&#45;45cd&#45;8536&#45;222143ffb1e3&#45;&gt;dc1fb000&#45;63af&#45;4526&#45;9f3a&#45;d0aca8914c64 -->
<g id="edge2" class="edge"><title>b2be3d18&#45;8a77&#45;45cd&#45;8536&#45;222143ffb1e3&#45;&gt;dc1fb000&#45;63af&#45;4526&#45;9f3a&#45;d0aca8914c64</title>
<path fill="none" stroke="black" d="M126.844,-647.697C126.844,-639.983 126.844,-630.712 126.844,-622.112"/>
<polygon fill="none" stroke="black" points="130.344,-622.104 126.844,-612.104 123.344,-622.104 130.344,-622.104"/>
</g>
<!-- fe3f86a8&#45;574d&#45;446e&#45;af91&#45;f9edf791fa18 -->
<g id="node5" class="node"><title>fe3f86a8&#45;574d&#45;446e&#45;af91&#45;f9edf791fa18</title>
<polygon fill="cornsilk" stroke="black" points="171.344,-540 86.3437,-540 82.3437,-536 82.3437,-504 167.344,-504 171.344,-508 171.344,-540"/>
<polyline fill="none" stroke="black" points="167.344,-536 82.3437,-536 "/>
<polyline fill="none" stroke="black" points="167.344,-536 167.344,-504 "/>
<polyline fill="none" stroke="black" points="167.344,-536 171.344,-540 "/>
<text text-anchor="middle" x="126.844" y="-518.3" font-family="Helvetica,sans-Serif" font-size="14.00">predefined</text>
</g>
<!-- dc1fb000&#45;63af&#45;4526&#45;9f3a&#45;d0aca8914c64&#45;&gt;fe3f86a8&#45;574d&#45;446e&#45;af91&#45;f9edf791fa18 -->
<g id="edge6" class="edge"><title>dc1fb000&#45;63af&#45;4526&#45;9f3a&#45;d0aca8914c64&#45;&gt;fe3f86a8&#45;574d&#45;446e&#45;af91&#45;f9edf791fa18</title>
<path fill="none" stroke="black" d="M126.844,-575.697C126.844,-567.983 126.844,-558.712 126.844,-550.112"/>
<polygon fill="none" stroke="black" points="130.344,-550.104 126.844,-540.104 123.344,-550.104 130.344,-550.104"/>
</g>
<!-- fe3f86a8&#45;574d&#45;446e&#45;af91&#45;f9edf791fa18&#45;&gt;5910d542&#45;fa26&#45;4dae&#45;b557&#45;b2cfd3a79714 -->
<g id="edge3" class="edge"><title>fe3f86a8&#45;574d&#45;446e&#45;af91&#45;f9edf791fa18&#45;&gt;5910d542&#45;fa26&#45;4dae&#45;b557&#45;b2cfd3a79714</title>
<path fill="none" stroke="black" d="M126.844,-503.697C126.844,-495.983 126.844,-486.712 126.844,-478.112"/>
<polygon fill="none" stroke="black" points="130.344,-478.104 126.844,-468.104 123.344,-478.104 130.344,-478.104"/>
</g>
<!-- ceac0143&#45;3c4e&#45;46d7&#45;b064&#45;d34558d11ecd -->
<g id="node7" class="node"><title>ceac0143&#45;3c4e&#45;46d7&#45;b064&#45;d34558d11ecd</title>
<polygon fill="cornsilk" stroke="black" points="213.373,-239.562 126.844,-252 40.3145,-239.562 40.3953,-219.438 213.292,-219.438 213.373,-239.562"/>
<text text-anchor="middle" x="126.844" y="-230.3" font-family="Helvetica,sans-Serif" font-size="14.00">manual input</text>
</g>
<!-- cefa7137&#45;77af&#45;4f1a&#45;812f&#45;4bcf163b04c4&#45;&gt;ceac0143&#45;3c4e&#45;46d7&#45;b064&#45;d34558d11ecd -->
<g id="edge4" class="edge"><title>cefa7137&#45;77af&#45;4f1a&#45;812f&#45;4bcf163b04c4&#45;&gt;ceac0143&#45;3c4e&#45;46d7&#45;b064&#45;d34558d11ecd</title>
<path fill="none" stroke="black" d="M126.844,-287.697C126.844,-279.983 126.844,-270.712 126.844,-262.112"/>
<polygon fill="none" stroke="black" points="130.344,-262.104 126.844,-252.104 123.344,-262.104 130.344,-262.104"/>
</g>
<!-- 6afdcc0a&#45;2fda&#45;44cf&#45;a881&#45;c5c0265e9a31 -->
<g id="node12" class="node"><title>6afdcc0a&#45;2fda&#45;44cf&#45;a881&#45;c5c0265e9a31</title>
<polygon fill="cornsilk" stroke="black" points="52.856,-144 200.831,-144 253.531,-180 0.156106,-180 52.856,-144"/>
<text text-anchor="middle" x="126.844" y="-158.3" font-family="Helvetica,sans-Serif" font-size="14.00">manual operation</text>
</g>
<!-- ceac0143&#45;3c4e&#45;46d7&#45;b064&#45;d34558d11ecd&#45;&gt;6afdcc0a&#45;2fda&#45;44cf&#45;a881&#45;c5c0265e9a31 -->
<g id="edge11" class="edge"><title>ceac0143&#45;3c4e&#45;46d7&#45;b064&#45;d34558d11ecd&#45;&gt;6afdcc0a&#45;2fda&#45;44cf&#45;a881&#45;c5c0265e9a31</title>
<path fill="none" stroke="black" d="M126.844,-219.17C126.844,-210.919 126.844,-200.153 126.844,-190.256"/>
<polygon fill="none" stroke="black" points="130.344,-190.019 126.844,-180.019 123.344,-190.019 130.344,-190.019"/>
</g>
<!-- 48b019e3&#45;0701&#45;45d4&#45;89a1&#45;8a56353fd8d4 -->
<g id="node8" class="node"><title>48b019e3&#45;0701&#45;45d4&#45;89a1&#45;8a56353fd8d4</title>
<polygon fill="cornsilk" stroke="black" points="171.891,-82.5442 171.891,-97.4558 145.503,-108 108.185,-108 81.7966,-97.4558 81.7966,-82.5442 108.185,-72 145.503,-72 171.891,-82.5442"/>
<text text-anchor="middle" x="126.844" y="-86.3" font-family="Helvetica,sans-Serif" font-size="14.00">display</text>
</g>
<!-- 8593860f&#45;b52e&#45;4592&#45;897e&#45;d4d3a44fa826 -->
<g id="node9" class="node"><title>8593860f&#45;b52e&#45;4592&#45;897e&#45;d4d3a44fa826</title>
<polygon fill="cornsilk" stroke="black" points="178.844,-36 74.8437,-36 74.8437,-0 178.844,-0 178.844,-36"/>
<text text-anchor="middle" x="126.844" y="-14.3" font-family="Helvetica,sans-Serif" font-size="14.00">Vertex Label</text>
</g>
<!-- 48b019e3&#45;0701&#45;45d4&#45;89a1&#45;8a56353fd8d4&#45;&gt;8593860f&#45;b52e&#45;4592&#45;897e&#45;d4d3a44fa826 -->
<g id="edge5" class="edge"><title>48b019e3&#45;0701&#45;45d4&#45;89a1&#45;8a56353fd8d4&#45;&gt;8593860f&#45;b52e&#45;4592&#45;897e&#45;d4d3a44fa826</title>
<path fill="none" stroke="black" d="M126.844,-71.6966C126.844,-63.9827 126.844,-54.7125 126.844,-46.1124"/>
<polygon fill="none" stroke="black" points="130.344,-46.1043 126.844,-36.1043 123.344,-46.1044 130.344,-46.1043"/>
</g>
<!-- 8593860f&#45;b52e&#45;4592&#45;897e&#45;d4d3a44fa826&#45;&gt;8593860f&#45;b52e&#45;4592&#45;897e&#45;d4d3a44fa826 -->
<g id="edge7" class="edge"><title>8593860f&#45;b52e&#45;4592&#45;897e&#45;d4d3a44fa826&#45;&gt;8593860f&#45;b52e&#45;4592&#45;897e&#45;d4d3a44fa826</title>
<path fill="none" stroke="black" d="M179.046,-30.943C189.435,-29.4862 196.844,-25.1719 196.844,-18 196.844,-13.4055 193.803,-9.98377 188.887,-7.73476"/>
<polygon fill="none" stroke="black" points="189.614,-4.30558 179.046,-5.05701 187.776,-11.06 189.614,-4.30558"/>
<text text-anchor="middle" x="217.046" y="-34.743" font-family="Helvetica,sans-Serif" font-size="14.00">Edge Label</text>
</g>
<!-- 4f051c5e&#45;d97e&#45;42c7&#45;8207&#45;7cf6ab1577d2 -->
<g id="node10" class="node"><title>4f051c5e&#45;d97e&#45;42c7&#45;8207&#45;7cf6ab1577d2</title>
<ellipse fill="cornsilk" stroke="black" cx="126.844" cy="-810" rx="48.1917" ry="18"/>
<text text-anchor="middle" x="126.844" y="-806.3" font-family="Helvetica,sans-Serif" font-size="14.00">terminal</text>
</g>
<!-- cad5ca18&#45;298f&#45;4c82&#45;808d&#45;ca209fff464f -->
<g id="node11" class="node"><title>cad5ca18&#45;298f&#45;4c82&#45;808d&#45;ca209fff464f</title>
<polygon fill="cornsilk" stroke="black" points="160.844,-756 92.8437,-756 92.8437,-720 160.844,-720 160.844,-756"/>
<text text-anchor="middle" x="126.844" y="-734.3" font-family="Helvetica,sans-Serif" font-size="14.00">process</text>
</g>
<!-- 4f051c5e&#45;d97e&#45;42c7&#45;8207&#45;7cf6ab1577d2&#45;&gt;cad5ca18&#45;298f&#45;4c82&#45;808d&#45;ca209fff464f -->
<g id="edge8" class="edge"><title>4f051c5e&#45;d97e&#45;42c7&#45;8207&#45;7cf6ab1577d2&#45;&gt;cad5ca18&#45;298f&#45;4c82&#45;808d&#45;ca209fff464f</title>
<path fill="none" stroke="black" d="M126.844,-791.697C126.844,-783.983 126.844,-774.712 126.844,-766.112"/>
<polygon fill="none" stroke="black" points="130.344,-766.104 126.844,-756.104 123.344,-766.104 130.344,-766.104"/>
</g>
<!-- cad5ca18&#45;298f&#45;4c82&#45;808d&#45;ca209fff464f&#45;&gt;b2be3d18&#45;8a77&#45;45cd&#45;8536&#45;222143ffb1e3 -->
<g id="edge12" class="edge"><title>cad5ca18&#45;298f&#45;4c82&#45;808d&#45;ca209fff464f&#45;&gt;b2be3d18&#45;8a77&#45;45cd&#45;8536&#45;222143ffb1e3</title>
<path fill="none" stroke="black" d="M126.844,-719.697C126.844,-711.983 126.844,-702.712 126.844,-694.112"/>
<polygon fill="none" stroke="black" points="130.344,-694.104 126.844,-684.104 123.344,-694.104 130.344,-694.104"/>
</g>
<!-- 6afdcc0a&#45;2fda&#45;44cf&#45;a881&#45;c5c0265e9a31&#45;&gt;48b019e3&#45;0701&#45;45d4&#45;89a1&#45;8a56353fd8d4 -->
<g id="edge10" class="edge"><title>6afdcc0a&#45;2fda&#45;44cf&#45;a881&#45;c5c0265e9a31&#45;&gt;48b019e3&#45;0701&#45;45d4&#45;89a1&#45;8a56353fd8d4</title>
<path fill="none" stroke="black" d="M126.844,-143.697C126.844,-135.983 126.844,-126.712 126.844,-118.112"/>
<polygon fill="none" stroke="black" points="130.344,-118.104 126.844,-108.104 123.344,-118.104 130.344,-118.104"/>
</g>
</g>
</svg>
