<?xml version="1.0" encoding="UTF-8" standalone="no"?>
<!DOCTYPE svg PUBLIC "-//W3C//DTD SVG 1.1//EN"
 "http://www.w3.org/Graphics/SVG/1.1/DTD/svg11.dtd">
<!-- Generated by graphviz version 2.43.0 (0)
 -->
<!-- Title: %3 Pages: 1 -->
<svg width="264pt" height="815pt"
 viewBox="0.00 0.00 263.92 815.00" xmlns="http://www.w3.org/2000/svg" xmlns:xlink="http://www.w3.org/1999/xlink">
<g id="graph0" class="graph" transform="scale(1 1) rotate(0) translate(4 811)">
<title>%3</title>
<polygon fill="white" stroke="transparent" points="-4,4 -4,-811 259.92,-811 259.92,4 -4,4"/>
<!-- ad34da72&#45;c656&#45;4f22&#45;823f&#45;4d4de8921f74 -->
<g id="node1" class="node">
<title>ad34da72&#45;c656&#45;4f22&#45;823f&#45;4d4de8921f74</title>
<polygon fill="cornsilk" stroke="black" points="162.76,-735 92.76,-735 92.76,-699 162.76,-699 162.76,-735"/>
<text text-anchor="middle" x="127.76" y="-713.3" font-family="Helvetica,sans-Serif" font-size="14.00">process</text>
</g>
<!-- aa9caba4&#45;cfb4&#45;4e2e&#45;9c7e&#45;186f275ec6bd -->
<g id="node2" class="node">
<title>aa9caba4&#45;cfb4&#45;4e2e&#45;9c7e&#45;186f275ec6bd</title>
<polygon fill="cornsilk" stroke="black" points="159.16,-663 109.22,-663 96.37,-627 146.31,-627 159.16,-663"/>
<text text-anchor="middle" x="127.76" y="-641.3" font-family="Helvetica,sans-Serif" font-size="14.00">i/o</text>
</g>
<!-- ad34da72&#45;c656&#45;4f22&#45;823f&#45;4d4de8921f74&#45;&gt;aa9caba4&#45;cfb4&#45;4e2e&#45;9c7e&#45;186f275ec6bd -->
<g id="edge1" class="edge">
<title>ad34da72&#45;c656&#45;4f22&#45;823f&#45;4d4de8921f74&#45;&gt;aa9caba4&#45;cfb4&#45;4e2e&#45;9c7e&#45;186f275ec6bd</title>
<path fill="none" stroke="black" d="M127.76,-698.7C127.76,-690.98 127.76,-681.71 127.76,-673.11"/>
<polygon fill="none" stroke="black" points="131.26,-673.1 127.76,-663.1 124.26,-673.1 131.26,-673.1"/>
</g>
<!-- e14c1efd&#45;5988&#45;4c7f&#45;b139&#45;dca237dc5cb3 -->
<g id="node10" class="node">
<title>e14c1efd&#45;5988&#45;4c7f&#45;b139&#45;dca237dc5cb3</title>
<polygon fill="cornsilk" stroke="black" points="127.76,-591 59.73,-573 127.76,-555 195.8,-573 127.76,-591"/>
<text text-anchor="middle" x="127.76" y="-569.3" font-family="Helvetica,sans-Serif" font-size="14.00">decision</text>
</g>
<!-- aa9caba4&#45;cfb4&#45;4e2e&#45;9c7e&#45;186f275ec6bd&#45;&gt;e14c1efd&#45;5988&#45;4c7f&#45;b139&#45;dca237dc5cb3 -->
<g id="edge7" class="edge">
<title>aa9caba4&#45;cfb4&#45;4e2e&#45;9c7e&#45;186f275ec6bd&#45;&gt;e14c1efd&#45;5988&#45;4c7f&#45;b139&#45;dca237dc5cb3</title>
<path fill="none" stroke="black" d="M127.76,-626.7C127.76,-618.98 127.76,-609.71 127.76,-601.11"/>
<polygon fill="none" stroke="black" points="131.26,-601.1 127.76,-591.1 124.26,-601.1 131.26,-601.1"/>
</g>
<!-- 9fc26a25&#45;ebb5&#45;4064&#45;8612&#45;31fc612ed3b0 -->
<g id="node3" class="node">
<title>9fc26a25&#45;ebb5&#45;4064&#45;8612&#45;31fc612ed3b0</title>
<path fill="cornsilk" stroke="black" d="M162.26,-371.73C162.26,-373.53 146.8,-375 127.76,-375 108.73,-375 93.26,-373.53 93.26,-371.73 93.26,-371.73 93.26,-342.27 93.26,-342.27 93.26,-340.47 108.73,-339 127.76,-339 146.8,-339 162.26,-340.47 162.26,-342.27 162.26,-342.27 162.26,-371.73 162.26,-371.73"/>
<path fill="none" stroke="black" d="M162.26,-371.73C162.26,-369.92 146.8,-368.45 127.76,-368.45 108.73,-368.45 93.26,-369.92 93.26,-371.73"/>
<text text-anchor="middle" x="127.76" y="-353.3" font-family="Helvetica,sans-Serif" font-size="14.00">storage</text>
</g>
<!-- 20358d70&#45;465c&#45;4034&#45;8d4e&#45;2eda2d5078fc -->
<g id="node4" class="node">
<title>20358d70&#45;465c&#45;4034&#45;8d4e&#45;2eda2d5078fc</title>
<polygon fill="cornsilk" stroke="transparent" points="160.76,-303 94.76,-303 94.76,-288 160.76,-288 160.76,-303"/>
<text text-anchor="middle" x="127.76" y="-291.8" font-family="Helvetica,sans-Serif" font-size="14.00">comment</text>
</g>
<!-- 9fc26a25&#45;ebb5&#45;4064&#45;8612&#45;31fc612ed3b0&#45;&gt;20358d70&#45;465c&#45;4034&#45;8d4e&#45;2eda2d5078fc -->
<g id="edge2" class="edge">
<title>9fc26a25&#45;ebb5&#45;4064&#45;8612&#45;31fc612ed3b0&#45;&gt;20358d70&#45;465c&#45;4034&#45;8d4e&#45;2eda2d5078fc</title>
<path fill="none" stroke="black" d="M127.76,-338.79C127.76,-330.77 127.76,-321.25 127.76,-313.28"/>
<polygon fill="none" stroke="black" points="131.26,-313.06 127.76,-303.06 124.26,-313.06 131.26,-313.06"/>
</g>
<!-- 0ba7faab&#45;8e59&#45;4274&#45;896f&#45;9b6a73fd85f0 -->
<g id="node9" class="node">
<title>0ba7faab&#45;8e59&#45;4274&#45;896f&#45;9b6a73fd85f0</title>
<polygon fill="cornsilk" stroke="black" points="215.4,-239.56 127.76,-252 40.13,-239.56 40.21,-219.44 215.32,-219.44 215.4,-239.56"/>
<text text-anchor="middle" x="127.76" y="-230.3" font-family="Helvetica,sans-Serif" font-size="14.00">manual input</text>
</g>
<!-- 20358d70&#45;465c&#45;4034&#45;8d4e&#45;2eda2d5078fc&#45;&gt;0ba7faab&#45;8e59&#45;4274&#45;896f&#45;9b6a73fd85f0 -->
<g id="edge6" class="edge">
<title>20358d70&#45;465c&#45;4034&#45;8d4e&#45;2eda2d5078fc&#45;&gt;0ba7faab&#45;8e59&#45;4274&#45;896f&#45;9b6a73fd85f0</title>
<path fill="none" stroke="black" d="M127.76,-287.67C127.76,-281.42 127.76,-271.74 127.76,-262.37"/>
<polygon fill="none" stroke="black" points="131.26,-262.13 127.76,-252.13 124.26,-262.13 131.26,-262.13"/>
</g>
<!-- c3345434&#45;c538&#45;44fe&#45;a632&#45;70d8549238b1 -->
<g id="node5" class="node">
<title>c3345434&#45;c538&#45;44fe&#45;a632&#45;70d8549238b1</title>
<polygon fill="cornsilk" stroke="black" points="173.76,-519 85.76,-519 81.76,-515 81.76,-483 169.76,-483 173.76,-487 173.76,-519"/>
<polyline fill="none" stroke="black" points="169.76,-515 81.76,-515 "/>
<polyline fill="none" stroke="black" points="169.76,-515 169.76,-483 "/>
<polyline fill="none" stroke="black" points="169.76,-515 173.76,-519 "/>
<text text-anchor="middle" x="127.76" y="-497.3" font-family="Helvetica,sans-Serif" font-size="14.00">predefined</text>
</g>
<!-- fe5f8c94&#45;751c&#45;4dea&#45;ad7b&#45;448524f1a58f -->
<g id="node6" class="node">
<title>fe5f8c94&#45;751c&#45;4dea&#45;ad7b&#45;448524f1a58f</title>
<polygon fill="cornsilk" stroke="black" points="164.76,-447 84.76,-447 84.76,-411 170.76,-411 170.76,-441 164.76,-447"/>
<polyline fill="none" stroke="black" points="164.76,-447 164.76,-441 "/>
<polyline fill="none" stroke="black" points="170.76,-441 164.76,-441 "/>
<text text-anchor="middle" x="127.76" y="-425.3" font-family="Helvetica,sans-Serif" font-size="14.00">document</text>
</g>
<!-- c3345434&#45;c538&#45;44fe&#45;a632&#45;70d8549238b1&#45;&gt;fe5f8c94&#45;751c&#45;4dea&#45;ad7b&#45;448524f1a58f -->
<g id="edge3" class="edge">
<title>c3345434&#45;c538&#45;44fe&#45;a632&#45;70d8549238b1&#45;&gt;fe5f8c94&#45;751c&#45;4dea&#45;ad7b&#45;448524f1a58f</title>
<path fill="none" stroke="black" d="M127.76,-482.7C127.76,-474.98 127.76,-465.71 127.76,-457.11"/>
<polygon fill="none" stroke="black" points="131.26,-457.1 127.76,-447.1 124.26,-457.1 131.26,-457.1"/>
</g>
<!-- fe5f8c94&#45;751c&#45;4dea&#45;ad7b&#45;448524f1a58f&#45;&gt;9fc26a25&#45;ebb5&#45;4064&#45;8612&#45;31fc612ed3b0 -->
<g id="edge4" class="edge">
<title>fe5f8c94&#45;751c&#45;4dea&#45;ad7b&#45;448524f1a58f&#45;&gt;9fc26a25&#45;ebb5&#45;4064&#45;8612&#45;31fc612ed3b0</title>
<path fill="none" stroke="black" d="M127.76,-410.7C127.76,-402.98 127.76,-393.71 127.76,-385.11"/>
<polygon fill="none" stroke="black" points="131.26,-385.1 127.76,-375.1 124.26,-385.1 131.26,-385.1"/>
</g>
<!-- db90fbd4&#45;fd8a&#45;4eee&#45;9b95&#45;e0ecd06c0d1b -->
<g id="node7" class="node">
<title>db90fbd4&#45;fd8a&#45;4eee&#45;9b95&#45;e0ecd06c0d1b</title>
<polygon fill="cornsilk" stroke="black" points="53.29,-144 202.24,-144 255.29,-180 0.24,-180 53.29,-144"/>
<text text-anchor="middle" x="127.76" y="-158.3" font-family="Helvetica,sans-Serif" font-size="14.00">manual operation</text>
</g>
<!-- 464bd85b&#45;8d4f&#45;45aa&#45;a622&#45;4209dcd2c315 -->
<g id="node8" class="node">
<title>464bd85b&#45;8d4f&#45;45aa&#45;a622&#45;4209dcd2c315</title>
<polygon fill="cornsilk" stroke="black" points="174.12,-82.54 174.12,-97.46 146.97,-108 108.56,-108 81.4,-97.46 81.4,-82.54 108.56,-72 146.97,-72 174.12,-82.54"/>
<text text-anchor="middle" x="127.76" y="-86.3" font-family="Helvetica,sans-Serif" font-size="14.00">display</text>
</g>
<!-- db90fbd4&#45;fd8a&#45;4eee&#45;9b95&#45;e0ecd06c0d1b&#45;&gt;464bd85b&#45;8d4f&#45;45aa&#45;a622&#45;4209dcd2c315 -->
<g id="edge5" class="edge">
<title>db90fbd4&#45;fd8a&#45;4eee&#45;9b95&#45;e0ecd06c0d1b&#45;&gt;464bd85b&#45;8d4f&#45;45aa&#45;a622&#45;4209dcd2c315</title>
<path fill="none" stroke="black" d="M127.76,-143.7C127.76,-135.98 127.76,-126.71 127.76,-118.11"/>
<polygon fill="none" stroke="black" points="131.26,-118.1 127.76,-108.1 124.26,-118.1 131.26,-118.1"/>
</g>
<!-- 87c5e520&#45;d2ef&#45;4fd6&#45;9c7b&#45;5fb9fcb51368 -->
<g id="node11" class="node">
<title>87c5e520&#45;d2ef&#45;4fd6&#45;9c7b&#45;5fb9fcb51368</title>
<polygon fill="cornsilk" stroke="black" points="178.76,-36 76.76,-36 76.76,0 178.76,0 178.76,-36"/>
<text text-anchor="middle" x="127.76" y="-14.3" font-family="Helvetica,sans-Serif" font-size="14.00">Vertex Label</text>
</g>
<!-- 464bd85b&#45;8d4f&#45;45aa&#45;a622&#45;4209dcd2c315&#45;&gt;87c5e520&#45;d2ef&#45;4fd6&#45;9c7b&#45;5fb9fcb51368 -->
<g id="edge8" class="edge">
<title>464bd85b&#45;8d4f&#45;45aa&#45;a622&#45;4209dcd2c315&#45;&gt;87c5e520&#45;d2ef&#45;4fd6&#45;9c7b&#45;5fb9fcb51368</title>
<path fill="none" stroke="black" d="M127.76,-71.7C127.76,-63.98 127.76,-54.71 127.76,-46.11"/>
<polygon fill="none" stroke="black" points="131.26,-46.1 127.76,-36.1 124.26,-46.1 131.26,-46.1"/>
</g>
<!-- 0ba7faab&#45;8e59&#45;4274&#45;896f&#45;9b6a73fd85f0&#45;&gt;db90fbd4&#45;fd8a&#45;4eee&#45;9b95&#45;e0ecd06c0d1b -->
<g id="edge12" class="edge">
<title>0ba7faab&#45;8e59&#45;4274&#45;896f&#45;9b6a73fd85f0&#45;&gt;db90fbd4&#45;fd8a&#45;4eee&#45;9b95&#45;e0ecd06c0d1b</title>
<path fill="none" stroke="black" d="M127.76,-219.17C127.76,-210.92 127.76,-200.15 127.76,-190.26"/>
<polygon fill="none" stroke="black" points="131.26,-190.02 127.76,-180.02 124.26,-190.02 131.26,-190.02"/>
</g>
<!-- e14c1efd&#45;5988&#45;4c7f&#45;b139&#45;dca237dc5cb3&#45;&gt;c3345434&#45;c538&#45;44fe&#45;a632&#45;70d8549238b1 -->
<g id="edge11" class="edge">
<title>e14c1efd&#45;5988&#45;4c7f&#45;b139&#45;dca237dc5cb3&#45;&gt;c3345434&#45;c538&#45;44fe&#45;a632&#45;70d8549238b1</title>
<path fill="none" stroke="black" d="M127.76,-554.7C127.76,-546.98 127.76,-537.71 127.76,-529.11"/>
<polygon fill="none" stroke="black" points="131.26,-529.1 127.76,-519.1 124.26,-529.1 131.26,-529.1"/>
</g>
<!-- 87c5e520&#45;d2ef&#45;4fd6&#45;9c7b&#45;5fb9fcb51368&#45;&gt;87c5e520&#45;d2ef&#45;4fd6&#45;9c7b&#45;5fb9fcb51368 -->
<g id="edge9" class="edge">
<title>87c5e520&#45;d2ef&#45;4fd6&#45;9c7b&#45;5fb9fcb51368&#45;&gt;87c5e520&#45;d2ef&#45;4fd6&#45;9c7b&#45;5fb9fcb51368</title>
<path fill="none" stroke="black" d="M178.92,-30.99C189.32,-29.57 196.76,-25.24 196.76,-18 196.76,-13.36 193.71,-9.92 188.78,-7.67"/>
<polygon fill="none" stroke="black" points="189.48,-4.23 178.92,-5.01 187.66,-10.99 189.48,-4.23"/>
<text text-anchor="middle" x="217.42" y="-34.79" font-family="Helvetica,sans-Serif" font-size="14.00">Edge Label</text>
</g>
<!-- f4003275&#45;0f48&#45;4124&#45;af3e&#45;ec066ca0434e -->
<g id="node12" class="node">
<title>f4003275&#45;0f48&#45;4124&#45;af3e&#45;ec066ca0434e</title>
<ellipse fill="cornsilk" stroke="black" cx="127.76" cy="-789" rx="48.19" ry="18"/>
<text text-anchor="middle" x="127.76" y="-785.3" font-family="Helvetica,sans-Serif" font-size="14.00">terminal</text>
</g>
<!-- f4003275&#45;0f48&#45;4124&#45;af3e&#45;ec066ca0434e&#45;&gt;ad34da72&#45;c656&#45;4f22&#45;823f&#45;4d4de8921f74 -->
<g id="edge10" class="edge">
<title>f4003275&#45;0f48&#45;4124&#45;af3e&#45;ec066ca0434e&#45;&gt;ad34da72&#45;c656&#45;4f22&#45;823f&#45;4d4de8921f74</title>
<path fill="none" stroke="black" d="M127.76,-770.7C127.76,-762.98 127.76,-753.71 127.76,-745.11"/>
<polygon fill="none" stroke="black" points="131.26,-745.1 127.76,-735.1 124.26,-745.1 131.26,-745.1"/>
</g>
</g>
</svg>
