<?xml version="1.0" encoding="UTF-8" standalone="no"?>
<!DOCTYPE svg PUBLIC "-//W3C//DTD SVG 1.1//EN"
 "http://www.w3.org/Graphics/SVG/1.1/DTD/svg11.dtd">
<!-- Generated by graphviz version 2.43.0 (0)
 -->
<!-- Title: %3 Pages: 1 -->
<svg width="264pt" height="815pt"
 viewBox="0.00 0.00 263.92 815.00" xmlns="http://www.w3.org/2000/svg" xmlns:xlink="http://www.w3.org/1999/xlink">
<g id="graph0" class="graph" transform="scale(1 1) rotate(0) translate(4 811)">
<title>%3</title>
<polygon fill="white" stroke="transparent" points="-4,4 -4,-811 259.92,-811 259.92,4 -4,4"/>
<!-- e003601a&#45;f164&#45;4132&#45;a450&#45;568ae094fbc2 -->
<g id="node1" class="node">
<title>e003601a&#45;f164&#45;4132&#45;a450&#45;568ae094fbc2</title>
<polygon fill="cornsilk" stroke="black" points="162.76,-735 92.76,-735 92.76,-699 162.76,-699 162.76,-735"/>
<text text-anchor="middle" x="127.76" y="-713.3" font-family="Helvetica,sans-Serif" font-size="14.00">process</text>
</g>
<!-- 9e5d1b42&#45;8997&#45;4814&#45;9e51&#45;7daf1d7b367a -->
<g id="node2" class="node">
<title>9e5d1b42&#45;8997&#45;4814&#45;9e51&#45;7daf1d7b367a</title>
<polygon fill="cornsilk" stroke="black" points="159.16,-663 109.22,-663 96.37,-627 146.31,-627 159.16,-663"/>
<text text-anchor="middle" x="127.76" y="-641.3" font-family="Helvetica,sans-Serif" font-size="14.00">i/o</text>
</g>
<!-- e003601a&#45;f164&#45;4132&#45;a450&#45;568ae094fbc2&#45;&gt;9e5d1b42&#45;8997&#45;4814&#45;9e51&#45;7daf1d7b367a -->
<g id="edge1" class="edge">
<title>e003601a&#45;f164&#45;4132&#45;a450&#45;568ae094fbc2&#45;&gt;9e5d1b42&#45;8997&#45;4814&#45;9e51&#45;7daf1d7b367a</title>
<path fill="none" stroke="black" d="M127.76,-698.7C127.76,-690.98 127.76,-681.71 127.76,-673.11"/>
<polygon fill="none" stroke="black" points="131.26,-673.1 127.76,-663.1 124.26,-673.1 131.26,-673.1"/>
</g>
<!-- e914f9aa&#45;6c3a&#45;4de0&#45;a4e1&#45;2382ebe880de -->
<g id="node10" class="node">
<title>e914f9aa&#45;6c3a&#45;4de0&#45;a4e1&#45;2382ebe880de</title>
<polygon fill="cornsilk" stroke="black" points="127.76,-591 59.73,-573 127.76,-555 195.8,-573 127.76,-591"/>
<text text-anchor="middle" x="127.76" y="-569.3" font-family="Helvetica,sans-Serif" font-size="14.00">decision</text>
</g>
<!-- 9e5d1b42&#45;8997&#45;4814&#45;9e51&#45;7daf1d7b367a&#45;&gt;e914f9aa&#45;6c3a&#45;4de0&#45;a4e1&#45;2382ebe880de -->
<g id="edge7" class="edge">
<title>9e5d1b42&#45;8997&#45;4814&#45;9e51&#45;7daf1d7b367a&#45;&gt;e914f9aa&#45;6c3a&#45;4de0&#45;a4e1&#45;2382ebe880de</title>
<path fill="none" stroke="black" d="M127.76,-626.7C127.76,-618.98 127.76,-609.71 127.76,-601.11"/>
<polygon fill="none" stroke="black" points="131.26,-601.1 127.76,-591.1 124.26,-601.1 131.26,-601.1"/>
</g>
<!-- 19b6ebb2&#45;0f55&#45;4493&#45;8cef&#45;f60092b875ef -->
<g id="node3" class="node">
<title>19b6ebb2&#45;0f55&#45;4493&#45;8cef&#45;f60092b875ef</title>
<path fill="cornsilk" stroke="black" d="M162.26,-371.73C162.26,-373.53 146.8,-375 127.76,-375 108.73,-375 93.26,-373.53 93.26,-371.73 93.26,-371.73 93.26,-342.27 93.26,-342.27 93.26,-340.47 108.73,-339 127.76,-339 146.8,-339 162.26,-340.47 162.26,-342.27 162.26,-342.27 162.26,-371.73 162.26,-371.73"/>
<path fill="none" stroke="black" d="M162.26,-371.73C162.26,-369.92 146.8,-368.45 127.76,-368.45 108.73,-368.45 93.26,-369.92 93.26,-371.73"/>
<text text-anchor="middle" x="127.76" y="-353.3" font-family="Helvetica,sans-Serif" font-size="14.00">storage</text>
</g>
<!-- 063b2e6d&#45;bd14&#45;424d&#45;beb5&#45;f41b920ae3f0 -->
<g id="node4" class="node">
<title>063b2e6d&#45;bd14&#45;424d&#45;beb5&#45;f41b920ae3f0</title>
<polygon fill="cornsilk" stroke="transparent" points="160.76,-303 94.76,-303 94.76,-288 160.76,-288 160.76,-303"/>
<text text-anchor="middle" x="127.76" y="-291.8" font-family="Helvetica,sans-Serif" font-size="14.00">comment</text>
</g>
<!-- 19b6ebb2&#45;0f55&#45;4493&#45;8cef&#45;f60092b875ef&#45;&gt;063b2e6d&#45;bd14&#45;424d&#45;beb5&#45;f41b920ae3f0 -->
<g id="edge2" class="edge">
<title>19b6ebb2&#45;0f55&#45;4493&#45;8cef&#45;f60092b875ef&#45;&gt;063b2e6d&#45;bd14&#45;424d&#45;beb5&#45;f41b920ae3f0</title>
<path fill="none" stroke="black" d="M127.76,-338.79C127.76,-330.77 127.76,-321.25 127.76,-313.28"/>
<polygon fill="none" stroke="black" points="131.26,-313.06 127.76,-303.06 124.26,-313.06 131.26,-313.06"/>
</g>
<!-- e29468d4&#45;8d20&#45;40ff&#45;bfb1&#45;c3464dc26b01 -->
<g id="node9" class="node">
<title>e29468d4&#45;8d20&#45;40ff&#45;bfb1&#45;c3464dc26b01</title>
<polygon fill="cornsilk" stroke="black" points="215.4,-239.56 127.76,-252 40.13,-239.56 40.21,-219.44 215.32,-219.44 215.4,-239.56"/>
<text text-anchor="middle" x="127.76" y="-230.3" font-family="Helvetica,sans-Serif" font-size="14.00">manual input</text>
</g>
<!-- 063b2e6d&#45;bd14&#45;424d&#45;beb5&#45;f41b920ae3f0&#45;&gt;e29468d4&#45;8d20&#45;40ff&#45;bfb1&#45;c3464dc26b01 -->
<g id="edge6" class="edge">
<title>063b2e6d&#45;bd14&#45;424d&#45;beb5&#45;f41b920ae3f0&#45;&gt;e29468d4&#45;8d20&#45;40ff&#45;bfb1&#45;c3464dc26b01</title>
<path fill="none" stroke="black" d="M127.76,-287.67C127.76,-281.42 127.76,-271.74 127.76,-262.37"/>
<polygon fill="none" stroke="black" points="131.26,-262.13 127.76,-252.13 124.26,-262.13 131.26,-262.13"/>
</g>
<!-- 9860aa34&#45;3c4c&#45;471c&#45;9673&#45;79422e2f6d9d -->
<g id="node5" class="node">
<title>9860aa34&#45;3c4c&#45;471c&#45;9673&#45;79422e2f6d9d</title>
<polygon fill="cornsilk" stroke="black" points="173.76,-519 85.76,-519 81.76,-515 81.76,-483 169.76,-483 173.76,-487 173.76,-519"/>
<polyline fill="none" stroke="black" points="169.76,-515 81.76,-515 "/>
<polyline fill="none" stroke="black" points="169.76,-515 169.76,-483 "/>
<polyline fill="none" stroke="black" points="169.76,-515 173.76,-519 "/>
<text text-anchor="middle" x="127.76" y="-497.3" font-family="Helvetica,sans-Serif" font-size="14.00">predefined</text>
</g>
<!-- 54415d14&#45;2b57&#45;4c96&#45;8143&#45;90be6ee1de3d -->
<g id="node6" class="node">
<title>54415d14&#45;2b57&#45;4c96&#45;8143&#45;90be6ee1de3d</title>
<polygon fill="cornsilk" stroke="black" points="164.76,-447 84.76,-447 84.76,-411 170.76,-411 170.76,-441 164.76,-447"/>
<polyline fill="none" stroke="black" points="164.76,-447 164.76,-441 "/>
<polyline fill="none" stroke="black" points="170.76,-441 164.76,-441 "/>
<text text-anchor="middle" x="127.76" y="-425.3" font-family="Helvetica,sans-Serif" font-size="14.00">document</text>
</g>
<!-- 9860aa34&#45;3c4c&#45;471c&#45;9673&#45;79422e2f6d9d&#45;&gt;54415d14&#45;2b57&#45;4c96&#45;8143&#45;90be6ee1de3d -->
<g id="edge3" class="edge">
<title>9860aa34&#45;3c4c&#45;471c&#45;9673&#45;79422e2f6d9d&#45;&gt;54415d14&#45;2b57&#45;4c96&#45;8143&#45;90be6ee1de3d</title>
<path fill="none" stroke="black" d="M127.76,-482.7C127.76,-474.98 127.76,-465.71 127.76,-457.11"/>
<polygon fill="none" stroke="black" points="131.26,-457.1 127.76,-447.1 124.26,-457.1 131.26,-457.1"/>
</g>
<!-- 54415d14&#45;2b57&#45;4c96&#45;8143&#45;90be6ee1de3d&#45;&gt;19b6ebb2&#45;0f55&#45;4493&#45;8cef&#45;f60092b875ef -->
<g id="edge4" class="edge">
<title>54415d14&#45;2b57&#45;4c96&#45;8143&#45;90be6ee1de3d&#45;&gt;19b6ebb2&#45;0f55&#45;4493&#45;8cef&#45;f60092b875ef</title>
<path fill="none" stroke="black" d="M127.76,-410.7C127.76,-402.98 127.76,-393.71 127.76,-385.11"/>
<polygon fill="none" stroke="black" points="131.26,-385.1 127.76,-375.1 124.26,-385.1 131.26,-385.1"/>
</g>
<!-- 19dca36d&#45;f60b&#45;4b54&#45;8255&#45;972c89baee21 -->
<g id="node7" class="node">
<title>19dca36d&#45;f60b&#45;4b54&#45;8255&#45;972c89baee21</title>
<polygon fill="cornsilk" stroke="black" points="53.29,-144 202.24,-144 255.29,-180 0.24,-180 53.29,-144"/>
<text text-anchor="middle" x="127.76" y="-158.3" font-family="Helvetica,sans-Serif" font-size="14.00">manual operation</text>
</g>
<!-- 4239ffdd&#45;c304&#45;44bb&#45;ba3d&#45;19ae1eb9de55 -->
<g id="node8" class="node">
<title>4239ffdd&#45;c304&#45;44bb&#45;ba3d&#45;19ae1eb9de55</title>
<polygon fill="cornsilk" stroke="black" points="174.12,-82.54 174.12,-97.46 146.97,-108 108.56,-108 81.4,-97.46 81.4,-82.54 108.56,-72 146.97,-72 174.12,-82.54"/>
<text text-anchor="middle" x="127.76" y="-86.3" font-family="Helvetica,sans-Serif" font-size="14.00">display</text>
</g>
<!-- 19dca36d&#45;f60b&#45;4b54&#45;8255&#45;972c89baee21&#45;&gt;4239ffdd&#45;c304&#45;44bb&#45;ba3d&#45;19ae1eb9de55 -->
<g id="edge5" class="edge">
<title>19dca36d&#45;f60b&#45;4b54&#45;8255&#45;972c89baee21&#45;&gt;4239ffdd&#45;c304&#45;44bb&#45;ba3d&#45;19ae1eb9de55</title>
<path fill="none" stroke="black" d="M127.76,-143.7C127.76,-135.98 127.76,-126.71 127.76,-118.11"/>
<polygon fill="none" stroke="black" points="131.26,-118.1 127.76,-108.1 124.26,-118.1 131.26,-118.1"/>
</g>
<!-- f723a6e0&#45;8b1c&#45;4ec4&#45;8ae3&#45;ff643d52ff4c -->
<g id="node11" class="node">
<title>f723a6e0&#45;8b1c&#45;4ec4&#45;8ae3&#45;ff643d52ff4c</title>
<polygon fill="cornsilk" stroke="black" points="178.76,-36 76.76,-36 76.76,0 178.76,0 178.76,-36"/>
<text text-anchor="middle" x="127.76" y="-14.3" font-family="Helvetica,sans-Serif" font-size="14.00">Vertex Label</text>
</g>
<!-- 4239ffdd&#45;c304&#45;44bb&#45;ba3d&#45;19ae1eb9de55&#45;&gt;f723a6e0&#45;8b1c&#45;4ec4&#45;8ae3&#45;ff643d52ff4c -->
<g id="edge8" class="edge">
<title>4239ffdd&#45;c304&#45;44bb&#45;ba3d&#45;19ae1eb9de55&#45;&gt;f723a6e0&#45;8b1c&#45;4ec4&#45;8ae3&#45;ff643d52ff4c</title>
<path fill="none" stroke="black" d="M127.76,-71.7C127.76,-63.98 127.76,-54.71 127.76,-46.11"/>
<polygon fill="none" stroke="black" points="131.26,-46.1 127.76,-36.1 124.26,-46.1 131.26,-46.1"/>
</g>
<!-- e29468d4&#45;8d20&#45;40ff&#45;bfb1&#45;c3464dc26b01&#45;&gt;19dca36d&#45;f60b&#45;4b54&#45;8255&#45;972c89baee21 -->
<g id="edge12" class="edge">
<title>e29468d4&#45;8d20&#45;40ff&#45;bfb1&#45;c3464dc26b01&#45;&gt;19dca36d&#45;f60b&#45;4b54&#45;8255&#45;972c89baee21</title>
<path fill="none" stroke="black" d="M127.76,-219.17C127.76,-210.92 127.76,-200.15 127.76,-190.26"/>
<polygon fill="none" stroke="black" points="131.26,-190.02 127.76,-180.02 124.26,-190.02 131.26,-190.02"/>
</g>
<!-- e914f9aa&#45;6c3a&#45;4de0&#45;a4e1&#45;2382ebe880de&#45;&gt;9860aa34&#45;3c4c&#45;471c&#45;9673&#45;79422e2f6d9d -->
<g id="edge11" class="edge">
<title>e914f9aa&#45;6c3a&#45;4de0&#45;a4e1&#45;2382ebe880de&#45;&gt;9860aa34&#45;3c4c&#45;471c&#45;9673&#45;79422e2f6d9d</title>
<path fill="none" stroke="black" d="M127.76,-554.7C127.76,-546.98 127.76,-537.71 127.76,-529.11"/>
<polygon fill="none" stroke="black" points="131.26,-529.1 127.76,-519.1 124.26,-529.1 131.26,-529.1"/>
</g>
<!-- f723a6e0&#45;8b1c&#45;4ec4&#45;8ae3&#45;ff643d52ff4c&#45;&gt;f723a6e0&#45;8b1c&#45;4ec4&#45;8ae3&#45;ff643d52ff4c -->
<g id="edge9" class="edge">
<title>f723a6e0&#45;8b1c&#45;4ec4&#45;8ae3&#45;ff643d52ff4c&#45;&gt;f723a6e0&#45;8b1c&#45;4ec4&#45;8ae3&#45;ff643d52ff4c</title>
<path fill="none" stroke="black" d="M178.92,-30.99C189.32,-29.57 196.76,-25.24 196.76,-18 196.76,-13.36 193.71,-9.92 188.78,-7.67"/>
<polygon fill="none" stroke="black" points="189.48,-4.23 178.92,-5.01 187.66,-10.99 189.48,-4.23"/>
<text text-anchor="middle" x="217.42" y="-34.79" font-family="Helvetica,sans-Serif" font-size="14.00">Edge Label</text>
</g>
<!-- 4d29556e&#45;9015&#45;40b3&#45;a800&#45;63a54f4f3b12 -->
<g id="node12" class="node">
<title>4d29556e&#45;9015&#45;40b3&#45;a800&#45;63a54f4f3b12</title>
<ellipse fill="cornsilk" stroke="black" cx="127.76" cy="-789" rx="48.19" ry="18"/>
<text text-anchor="middle" x="127.76" y="-785.3" font-family="Helvetica,sans-Serif" font-size="14.00">terminal</text>
</g>
<!-- 4d29556e&#45;9015&#45;40b3&#45;a800&#45;63a54f4f3b12&#45;&gt;e003601a&#45;f164&#45;4132&#45;a450&#45;568ae094fbc2 -->
<g id="edge10" class="edge">
<title>4d29556e&#45;9015&#45;40b3&#45;a800&#45;63a54f4f3b12&#45;&gt;e003601a&#45;f164&#45;4132&#45;a450&#45;568ae094fbc2</title>
<path fill="none" stroke="black" d="M127.76,-770.7C127.76,-762.98 127.76,-753.71 127.76,-745.11"/>
<polygon fill="none" stroke="black" points="131.26,-745.1 127.76,-735.1 124.26,-745.1 131.26,-745.1"/>
</g>
</g>
</svg>
