<?xml version="1.0" encoding="UTF-8" standalone="no"?>
<!DOCTYPE svg PUBLIC "-//W3C//DTD SVG 1.1//EN"
 "http://www.w3.org/Graphics/SVG/1.1/DTD/svg11.dtd">
<!-- Generated by graphviz version 2.38.0 (20140413.2041)
 -->
<!-- Title: %3 Pages: 1 -->
<svg width="263pt" height="836pt"
 viewBox="0.00 0.00 263.05 836.00" xmlns="http://www.w3.org/2000/svg" xmlns:xlink="http://www.w3.org/1999/xlink">
<g id="graph0" class="graph" transform="scale(1 1) rotate(0) translate(4 832)">
<title>%3</title>
<polygon fill="white" stroke="none" points="-4,4 -4,-832 259.046,-832 259.046,4 -4,4"/>
<!-- d027323f&#45;d12b&#45;4c45&#45;ab1c&#45;2ea3f24001cc -->
<g id="node1" class="node"><title>d027323f&#45;d12b&#45;4c45&#45;ab1c&#45;2ea3f24001cc</title>
<polygon fill="cornsilk" stroke="black" points="163.344,-468 84.3437,-468 84.3437,-432 169.344,-432 169.344,-462 163.344,-468"/>
<polyline fill="none" stroke="black" points="163.344,-468 163.344,-462 "/>
<polyline fill="none" stroke="black" points="169.344,-462 163.344,-462 "/>
<text text-anchor="middle" x="126.844" y="-446.3" font-family="Helvetica,sans-Serif" font-size="14.00">document</text>
</g>
<!-- 032ed081&#45;c675&#45;4d5e&#45;86a4&#45;6b81277c748b -->
<g id="node2" class="node"><title>032ed081&#45;c675&#45;4d5e&#45;86a4&#45;6b81277c748b</title>
<polygon fill="cornsilk" stroke="black" points="160.844,-396 92.8437,-396 92.8437,-360 160.844,-360 160.844,-396"/>
<text text-anchor="middle" x="126.844" y="-374.3" font-family="Helvetica,sans-Serif" font-size="14.00">storage</text>
</g>
<!-- d027323f&#45;d12b&#45;4c45&#45;ab1c&#45;2ea3f24001cc&#45;&gt;032ed081&#45;c675&#45;4d5e&#45;86a4&#45;6b81277c748b -->
<g id="edge1" class="edge"><title>d027323f&#45;d12b&#45;4c45&#45;ab1c&#45;2ea3f24001cc&#45;&gt;032ed081&#45;c675&#45;4d5e&#45;86a4&#45;6b81277c748b</title>
<path fill="none" stroke="black" d="M126.844,-431.697C126.844,-423.983 126.844,-414.712 126.844,-406.112"/>
<polygon fill="none" stroke="black" points="130.344,-406.104 126.844,-396.104 123.344,-406.104 130.344,-406.104"/>
</g>
<!-- e44ae507&#45;12f3&#45;463e&#45;a327&#45;f4e36faaa53a -->
<g id="node6" class="node"><title>e44ae507&#45;12f3&#45;463e&#45;a327&#45;f4e36faaa53a</title>
<polygon fill="cornsilk" stroke="black" points="166.844,-324 86.8437,-324 86.8437,-288 166.844,-288 166.844,-324"/>
<text text-anchor="middle" x="126.844" y="-302.3" font-family="Helvetica,sans-Serif" font-size="14.00">comment</text>
</g>
<!-- 032ed081&#45;c675&#45;4d5e&#45;86a4&#45;6b81277c748b&#45;&gt;e44ae507&#45;12f3&#45;463e&#45;a327&#45;f4e36faaa53a -->
<g id="edge9" class="edge"><title>032ed081&#45;c675&#45;4d5e&#45;86a4&#45;6b81277c748b&#45;&gt;e44ae507&#45;12f3&#45;463e&#45;a327&#45;f4e36faaa53a</title>
<path fill="none" stroke="black" d="M126.844,-359.697C126.844,-351.983 126.844,-342.712 126.844,-334.112"/>
<polygon fill="none" stroke="black" points="130.344,-334.104 126.844,-324.104 123.344,-334.104 130.344,-334.104"/>
</g>
<!-- 63a20947&#45;944a&#45;44bc&#45;b759&#45;5de7eec94381 -->
<g id="node3" class="node"><title>63a20947&#45;944a&#45;44bc&#45;b759&#45;5de7eec94381</title>
<polygon fill="cornsilk" stroke="black" points="158.238,-684 108.297,-684 95.4496,-648 145.391,-648 158.238,-684"/>
<text text-anchor="middle" x="126.844" y="-662.3" font-family="Helvetica,sans-Serif" font-size="14.00">i/o</text>
</g>
<!-- 7a74fa94&#45;3471&#45;4d24&#45;bbc7&#45;aeffddfb1ebd -->
<g id="node4" class="node"><title>7a74fa94&#45;3471&#45;4d24&#45;bbc7&#45;aeffddfb1ebd</title>
<polygon fill="cornsilk" stroke="black" points="126.844,-612 61.8225,-594 126.844,-576 191.865,-594 126.844,-612"/>
<text text-anchor="middle" x="126.844" y="-590.3" font-family="Helvetica,sans-Serif" font-size="14.00">decision</text>
</g>
<!-- 63a20947&#45;944a&#45;44bc&#45;b759&#45;5de7eec94381&#45;&gt;7a74fa94&#45;3471&#45;4d24&#45;bbc7&#45;aeffddfb1ebd -->
<g id="edge2" class="edge"><title>63a20947&#45;944a&#45;44bc&#45;b759&#45;5de7eec94381&#45;&gt;7a74fa94&#45;3471&#45;4d24&#45;bbc7&#45;aeffddfb1ebd</title>
<path fill="none" stroke="black" d="M126.844,-647.697C126.844,-639.983 126.844,-630.712 126.844,-622.112"/>
<polygon fill="none" stroke="black" points="130.344,-622.104 126.844,-612.104 123.344,-622.104 130.344,-622.104"/>
</g>
<!-- 062a4092&#45;83a8&#45;4406&#45;8691&#45;fcd2f1269663 -->
<g id="node5" class="node"><title>062a4092&#45;83a8&#45;4406&#45;8691&#45;fcd2f1269663</title>
<polygon fill="cornsilk" stroke="black" points="171.344,-540 86.3437,-540 82.3437,-536 82.3437,-504 167.344,-504 171.344,-508 171.344,-540"/>
<polyline fill="none" stroke="black" points="167.344,-536 82.3437,-536 "/>
<polyline fill="none" stroke="black" points="167.344,-536 167.344,-504 "/>
<polyline fill="none" stroke="black" points="167.344,-536 171.344,-540 "/>
<text text-anchor="middle" x="126.844" y="-518.3" font-family="Helvetica,sans-Serif" font-size="14.00">predefined</text>
</g>
<!-- 7a74fa94&#45;3471&#45;4d24&#45;bbc7&#45;aeffddfb1ebd&#45;&gt;062a4092&#45;83a8&#45;4406&#45;8691&#45;fcd2f1269663 -->
<g id="edge6" class="edge"><title>7a74fa94&#45;3471&#45;4d24&#45;bbc7&#45;aeffddfb1ebd&#45;&gt;062a4092&#45;83a8&#45;4406&#45;8691&#45;fcd2f1269663</title>
<path fill="none" stroke="black" d="M126.844,-575.697C126.844,-567.983 126.844,-558.712 126.844,-550.112"/>
<polygon fill="none" stroke="black" points="130.344,-550.104 126.844,-540.104 123.344,-550.104 130.344,-550.104"/>
</g>
<!-- 062a4092&#45;83a8&#45;4406&#45;8691&#45;fcd2f1269663&#45;&gt;d027323f&#45;d12b&#45;4c45&#45;ab1c&#45;2ea3f24001cc -->
<g id="edge3" class="edge"><title>062a4092&#45;83a8&#45;4406&#45;8691&#45;fcd2f1269663&#45;&gt;d027323f&#45;d12b&#45;4c45&#45;ab1c&#45;2ea3f24001cc</title>
<path fill="none" stroke="black" d="M126.844,-503.697C126.844,-495.983 126.844,-486.712 126.844,-478.112"/>
<polygon fill="none" stroke="black" points="130.344,-478.104 126.844,-468.104 123.344,-478.104 130.344,-478.104"/>
</g>
<!-- ca23ecfa&#45;937a&#45;4356&#45;af36&#45;9f593b3a05bc -->
<g id="node7" class="node"><title>ca23ecfa&#45;937a&#45;4356&#45;af36&#45;9f593b3a05bc</title>
<polygon fill="cornsilk" stroke="black" points="213.373,-239.562 126.844,-252 40.3145,-239.562 40.3953,-219.438 213.292,-219.438 213.373,-239.562"/>
<text text-anchor="middle" x="126.844" y="-230.3" font-family="Helvetica,sans-Serif" font-size="14.00">manual input</text>
</g>
<!-- e44ae507&#45;12f3&#45;463e&#45;a327&#45;f4e36faaa53a&#45;&gt;ca23ecfa&#45;937a&#45;4356&#45;af36&#45;9f593b3a05bc -->
<g id="edge4" class="edge"><title>e44ae507&#45;12f3&#45;463e&#45;a327&#45;f4e36faaa53a&#45;&gt;ca23ecfa&#45;937a&#45;4356&#45;af36&#45;9f593b3a05bc</title>
<path fill="none" stroke="black" d="M126.844,-287.697C126.844,-279.983 126.844,-270.712 126.844,-262.112"/>
<polygon fill="none" stroke="black" points="130.344,-262.104 126.844,-252.104 123.344,-262.104 130.344,-262.104"/>
</g>
<!-- dc73a5e1&#45;e532&#45;44d4&#45;978a&#45;8df6feaa9f0a -->
<g id="node12" class="node"><title>dc73a5e1&#45;e532&#45;44d4&#45;978a&#45;8df6feaa9f0a</title>
<polygon fill="cornsilk" stroke="black" points="52.856,-144 200.831,-144 253.531,-180 0.156106,-180 52.856,-144"/>
<text text-anchor="middle" x="126.844" y="-158.3" font-family="Helvetica,sans-Serif" font-size="14.00">manual operation</text>
</g>
<!-- ca23ecfa&#45;937a&#45;4356&#45;af36&#45;9f593b3a05bc&#45;&gt;dc73a5e1&#45;e532&#45;44d4&#45;978a&#45;8df6feaa9f0a -->
<g id="edge11" class="edge"><title>ca23ecfa&#45;937a&#45;4356&#45;af36&#45;9f593b3a05bc&#45;&gt;dc73a5e1&#45;e532&#45;44d4&#45;978a&#45;8df6feaa9f0a</title>
<path fill="none" stroke="black" d="M126.844,-219.17C126.844,-210.919 126.844,-200.153 126.844,-190.256"/>
<polygon fill="none" stroke="black" points="130.344,-190.019 126.844,-180.019 123.344,-190.019 130.344,-190.019"/>
</g>
<!-- 3e7deda1&#45;9252&#45;49d8&#45;b18b&#45;0c45cab2e7c8 -->
<g id="node8" class="node"><title>3e7deda1&#45;9252&#45;49d8&#45;b18b&#45;0c45cab2e7c8</title>
<polygon fill="cornsilk" stroke="black" points="171.891,-82.5442 171.891,-97.4558 145.503,-108 108.185,-108 81.7966,-97.4558 81.7966,-82.5442 108.185,-72 145.503,-72 171.891,-82.5442"/>
<text text-anchor="middle" x="126.844" y="-86.3" font-family="Helvetica,sans-Serif" font-size="14.00">display</text>
</g>
<!-- d331569f&#45;bdff&#45;4a25&#45;b37e&#45;78befe518847 -->
<g id="node9" class="node"><title>d331569f&#45;bdff&#45;4a25&#45;b37e&#45;78befe518847</title>
<polygon fill="cornsilk" stroke="black" points="178.844,-36 74.8437,-36 74.8437,-0 178.844,-0 178.844,-36"/>
<text text-anchor="middle" x="126.844" y="-14.3" font-family="Helvetica,sans-Serif" font-size="14.00">Vertex Label</text>
</g>
<!-- 3e7deda1&#45;9252&#45;49d8&#45;b18b&#45;0c45cab2e7c8&#45;&gt;d331569f&#45;bdff&#45;4a25&#45;b37e&#45;78befe518847 -->
<g id="edge5" class="edge"><title>3e7deda1&#45;9252&#45;49d8&#45;b18b&#45;0c45cab2e7c8&#45;&gt;d331569f&#45;bdff&#45;4a25&#45;b37e&#45;78befe518847</title>
<path fill="none" stroke="black" d="M126.844,-71.6966C126.844,-63.9827 126.844,-54.7125 126.844,-46.1124"/>
<polygon fill="none" stroke="black" points="130.344,-46.1043 126.844,-36.1043 123.344,-46.1044 130.344,-46.1043"/>
</g>
<!-- d331569f&#45;bdff&#45;4a25&#45;b37e&#45;78befe518847&#45;&gt;d331569f&#45;bdff&#45;4a25&#45;b37e&#45;78befe518847 -->
<g id="edge7" class="edge"><title>d331569f&#45;bdff&#45;4a25&#45;b37e&#45;78befe518847&#45;&gt;d331569f&#45;bdff&#45;4a25&#45;b37e&#45;78befe518847</title>
<path fill="none" stroke="black" d="M179.046,-30.943C189.435,-29.4862 196.844,-25.1719 196.844,-18 196.844,-13.4055 193.803,-9.98377 188.887,-7.73476"/>
<polygon fill="none" stroke="black" points="189.614,-4.30558 179.046,-5.05701 187.776,-11.06 189.614,-4.30558"/>
<text text-anchor="middle" x="217.046" y="-34.743" font-family="Helvetica,sans-Serif" font-size="14.00">Edge Label</text>
</g>
<!-- d72861ff&#45;985e&#45;4063&#45;9820&#45;aed9ee849bfe -->
<g id="node10" class="node"><title>d72861ff&#45;985e&#45;4063&#45;9820&#45;aed9ee849bfe</title>
<ellipse fill="cornsilk" stroke="black" cx="126.844" cy="-810" rx="48.1917" ry="18"/>
<text text-anchor="middle" x="126.844" y="-806.3" font-family="Helvetica,sans-Serif" font-size="14.00">terminal</text>
</g>
<!-- e3e9730f&#45;1beb&#45;401c&#45;8680&#45;ae53188fc4a3 -->
<g id="node11" class="node"><title>e3e9730f&#45;1beb&#45;401c&#45;8680&#45;ae53188fc4a3</title>
<polygon fill="cornsilk" stroke="black" points="160.844,-756 92.8437,-756 92.8437,-720 160.844,-720 160.844,-756"/>
<text text-anchor="middle" x="126.844" y="-734.3" font-family="Helvetica,sans-Serif" font-size="14.00">process</text>
</g>
<!-- d72861ff&#45;985e&#45;4063&#45;9820&#45;aed9ee849bfe&#45;&gt;e3e9730f&#45;1beb&#45;401c&#45;8680&#45;ae53188fc4a3 -->
<g id="edge8" class="edge"><title>d72861ff&#45;985e&#45;4063&#45;9820&#45;aed9ee849bfe&#45;&gt;e3e9730f&#45;1beb&#45;401c&#45;8680&#45;ae53188fc4a3</title>
<path fill="none" stroke="black" d="M126.844,-791.697C126.844,-783.983 126.844,-774.712 126.844,-766.112"/>
<polygon fill="none" stroke="black" points="130.344,-766.104 126.844,-756.104 123.344,-766.104 130.344,-766.104"/>
</g>
<!-- e3e9730f&#45;1beb&#45;401c&#45;8680&#45;ae53188fc4a3&#45;&gt;63a20947&#45;944a&#45;44bc&#45;b759&#45;5de7eec94381 -->
<g id="edge12" class="edge"><title>e3e9730f&#45;1beb&#45;401c&#45;8680&#45;ae53188fc4a3&#45;&gt;63a20947&#45;944a&#45;44bc&#45;b759&#45;5de7eec94381</title>
<path fill="none" stroke="black" d="M126.844,-719.697C126.844,-711.983 126.844,-702.712 126.844,-694.112"/>
<polygon fill="none" stroke="black" points="130.344,-694.104 126.844,-684.104 123.344,-694.104 130.344,-694.104"/>
</g>
<!-- dc73a5e1&#45;e532&#45;44d4&#45;978a&#45;8df6feaa9f0a&#45;&gt;3e7deda1&#45;9252&#45;49d8&#45;b18b&#45;0c45cab2e7c8 -->
<g id="edge10" class="edge"><title>dc73a5e1&#45;e532&#45;44d4&#45;978a&#45;8df6feaa9f0a&#45;&gt;3e7deda1&#45;9252&#45;49d8&#45;b18b&#45;0c45cab2e7c8</title>
<path fill="none" stroke="black" d="M126.844,-143.697C126.844,-135.983 126.844,-126.712 126.844,-118.112"/>
<polygon fill="none" stroke="black" points="130.344,-118.104 126.844,-108.104 123.344,-118.104 130.344,-118.104"/>
</g>
</g>
</svg>
